<?xml version="1.0" encoding="utf-8" standalone="no"?>
<!DOCTYPE svg PUBLIC "-//W3C//DTD SVG 1.1//EN"
  "http://www.w3.org/Graphics/SVG/1.1/DTD/svg11.dtd">
<svg height="345.6pt" version="1.1" viewBox="0 0 460.8 345.6" width="460.8pt" xmlns="http://www.w3.org/2000/svg" xmlns:xlink="http://www.w3.org/1999/xlink">
 <metadata>
  <rdf:RDF xmlns:cc="http://creativecommons.org/ns#" xmlns:dc="http://purl.org/dc/elements/1.1/" xmlns:rdf="http://www.w3.org/1999/02/22-rdf-syntax-ns#">
   <cc:Work>
    <dc:type rdf:resource="http://purl.org/dc/dcmitype/StillImage"/>
    <dc:date>2021-07-11T18:58:19.150909</dc:date>
    <dc:format>image/svg+xml</dc:format>
    <dc:creator>
     <cc:Agent>
      <dc:title>Matplotlib v3.4.2, https://matplotlib.org/</dc:title>
     </cc:Agent>
    </dc:creator>
   </cc:Work>
  </rdf:RDF>
 </metadata>
 <defs>
  <style type="text/css">*{stroke-linecap:butt;stroke-linejoin:round;}</style>
 </defs>
 <g id="figure_1">
  <g id="patch_1">
   <path d="M 0 345.6 
L 460.8 345.6 
L 460.8 0 
L 0 0 
z
" style="fill:#ffffff;"/>
  </g>
  <g id="axes_1">
   <g id="patch_2">
    <path d="M 230.4 307.584 
L 414.72 307.584 
L 414.72 41.472 
L 230.4 41.472 
z
" style="fill:#eaeaf2;"/>
   </g>
   <g id="matplotlib.axis_1">
    <g id="xtick_1">
     <g id="text_1">
      <!-- btc -->
      <g style="fill:#262626;" transform="translate(313.888047 325.442281)scale(0.11 -0.11)">
       <defs>
        <path d="M 3116 1747 
Q 3116 2381 2855 2742 
Q 2594 3103 2138 3103 
Q 1681 3103 1420 2742 
Q 1159 2381 1159 1747 
Q 1159 1113 1420 752 
Q 1681 391 2138 391 
Q 2594 391 2855 752 
Q 3116 1113 3116 1747 
z
M 1159 2969 
Q 1341 3281 1617 3432 
Q 1894 3584 2278 3584 
Q 2916 3584 3314 3078 
Q 3713 2572 3713 1747 
Q 3713 922 3314 415 
Q 2916 -91 2278 -91 
Q 1894 -91 1617 61 
Q 1341 213 1159 525 
L 1159 0 
L 581 0 
L 581 4863 
L 1159 4863 
L 1159 2969 
z
" id="DejaVuSans-62" transform="scale(0.015625)"/>
        <path d="M 1172 4494 
L 1172 3500 
L 2356 3500 
L 2356 3053 
L 1172 3053 
L 1172 1153 
Q 1172 725 1289 603 
Q 1406 481 1766 481 
L 2356 481 
L 2356 0 
L 1766 0 
Q 1100 0 847 248 
Q 594 497 594 1153 
L 594 3053 
L 172 3053 
L 172 3500 
L 594 3500 
L 594 4494 
L 1172 4494 
z
" id="DejaVuSans-74" transform="scale(0.015625)"/>
        <path d="M 3122 3366 
L 3122 2828 
Q 2878 2963 2633 3030 
Q 2388 3097 2138 3097 
Q 1578 3097 1268 2742 
Q 959 2388 959 1747 
Q 959 1106 1268 751 
Q 1578 397 2138 397 
Q 2388 397 2633 464 
Q 2878 531 3122 666 
L 3122 134 
Q 2881 22 2623 -34 
Q 2366 -91 2075 -91 
Q 1284 -91 818 406 
Q 353 903 353 1747 
Q 353 2603 823 3093 
Q 1294 3584 2113 3584 
Q 2378 3584 2631 3529 
Q 2884 3475 3122 3366 
z
" id="DejaVuSans-63" transform="scale(0.015625)"/>
       </defs>
       <use xlink:href="#DejaVuSans-62"/>
       <use x="63.476562" xlink:href="#DejaVuSans-74"/>
       <use x="102.685547" xlink:href="#DejaVuSans-63"/>
      </g>
     </g>
    </g>
    <g id="text_2">
     <!-- ship_from -->
     <g style="fill:#262626;" transform="translate(293.196563 340.848062)scale(0.12 -0.12)">
      <defs>
       <path d="M 2834 3397 
L 2834 2853 
Q 2591 2978 2328 3040 
Q 2066 3103 1784 3103 
Q 1356 3103 1142 2972 
Q 928 2841 928 2578 
Q 928 2378 1081 2264 
Q 1234 2150 1697 2047 
L 1894 2003 
Q 2506 1872 2764 1633 
Q 3022 1394 3022 966 
Q 3022 478 2636 193 
Q 2250 -91 1575 -91 
Q 1294 -91 989 -36 
Q 684 19 347 128 
L 347 722 
Q 666 556 975 473 
Q 1284 391 1588 391 
Q 1994 391 2212 530 
Q 2431 669 2431 922 
Q 2431 1156 2273 1281 
Q 2116 1406 1581 1522 
L 1381 1569 
Q 847 1681 609 1914 
Q 372 2147 372 2553 
Q 372 3047 722 3315 
Q 1072 3584 1716 3584 
Q 2034 3584 2315 3537 
Q 2597 3491 2834 3397 
z
" id="DejaVuSans-73" transform="scale(0.015625)"/>
       <path d="M 3513 2113 
L 3513 0 
L 2938 0 
L 2938 2094 
Q 2938 2591 2744 2837 
Q 2550 3084 2163 3084 
Q 1697 3084 1428 2787 
Q 1159 2491 1159 1978 
L 1159 0 
L 581 0 
L 581 4863 
L 1159 4863 
L 1159 2956 
Q 1366 3272 1645 3428 
Q 1925 3584 2291 3584 
Q 2894 3584 3203 3211 
Q 3513 2838 3513 2113 
z
" id="DejaVuSans-68" transform="scale(0.015625)"/>
       <path d="M 603 3500 
L 1178 3500 
L 1178 0 
L 603 0 
L 603 3500 
z
M 603 4863 
L 1178 4863 
L 1178 4134 
L 603 4134 
L 603 4863 
z
" id="DejaVuSans-69" transform="scale(0.015625)"/>
       <path d="M 1159 525 
L 1159 -1331 
L 581 -1331 
L 581 3500 
L 1159 3500 
L 1159 2969 
Q 1341 3281 1617 3432 
Q 1894 3584 2278 3584 
Q 2916 3584 3314 3078 
Q 3713 2572 3713 1747 
Q 3713 922 3314 415 
Q 2916 -91 2278 -91 
Q 1894 -91 1617 61 
Q 1341 213 1159 525 
z
M 3116 1747 
Q 3116 2381 2855 2742 
Q 2594 3103 2138 3103 
Q 1681 3103 1420 2742 
Q 1159 2381 1159 1747 
Q 1159 1113 1420 752 
Q 1681 391 2138 391 
Q 2594 391 2855 752 
Q 3116 1113 3116 1747 
z
" id="DejaVuSans-70" transform="scale(0.015625)"/>
       <path d="M 3263 -1063 
L 3263 -1509 
L -63 -1509 
L -63 -1063 
L 3263 -1063 
z
" id="DejaVuSans-5f" transform="scale(0.015625)"/>
       <path d="M 2375 4863 
L 2375 4384 
L 1825 4384 
Q 1516 4384 1395 4259 
Q 1275 4134 1275 3809 
L 1275 3500 
L 2222 3500 
L 2222 3053 
L 1275 3053 
L 1275 0 
L 697 0 
L 697 3053 
L 147 3053 
L 147 3500 
L 697 3500 
L 697 3744 
Q 697 4328 969 4595 
Q 1241 4863 1831 4863 
L 2375 4863 
z
" id="DejaVuSans-66" transform="scale(0.015625)"/>
       <path d="M 2631 2963 
Q 2534 3019 2420 3045 
Q 2306 3072 2169 3072 
Q 1681 3072 1420 2755 
Q 1159 2438 1159 1844 
L 1159 0 
L 581 0 
L 581 3500 
L 1159 3500 
L 1159 2956 
Q 1341 3275 1631 3429 
Q 1922 3584 2338 3584 
Q 2397 3584 2469 3576 
Q 2541 3569 2628 3553 
L 2631 2963 
z
" id="DejaVuSans-72" transform="scale(0.015625)"/>
       <path d="M 1959 3097 
Q 1497 3097 1228 2736 
Q 959 2375 959 1747 
Q 959 1119 1226 758 
Q 1494 397 1959 397 
Q 2419 397 2687 759 
Q 2956 1122 2956 1747 
Q 2956 2369 2687 2733 
Q 2419 3097 1959 3097 
z
M 1959 3584 
Q 2709 3584 3137 3096 
Q 3566 2609 3566 1747 
Q 3566 888 3137 398 
Q 2709 -91 1959 -91 
Q 1206 -91 779 398 
Q 353 888 353 1747 
Q 353 2609 779 3096 
Q 1206 3584 1959 3584 
z
" id="DejaVuSans-6f" transform="scale(0.015625)"/>
       <path d="M 3328 2828 
Q 3544 3216 3844 3400 
Q 4144 3584 4550 3584 
Q 5097 3584 5394 3201 
Q 5691 2819 5691 2113 
L 5691 0 
L 5113 0 
L 5113 2094 
Q 5113 2597 4934 2840 
Q 4756 3084 4391 3084 
Q 3944 3084 3684 2787 
Q 3425 2491 3425 1978 
L 3425 0 
L 2847 0 
L 2847 2094 
Q 2847 2600 2669 2842 
Q 2491 3084 2119 3084 
Q 1678 3084 1418 2786 
Q 1159 2488 1159 1978 
L 1159 0 
L 581 0 
L 581 3500 
L 1159 3500 
L 1159 2956 
Q 1356 3278 1631 3431 
Q 1906 3584 2284 3584 
Q 2666 3584 2933 3390 
Q 3200 3197 3328 2828 
z
" id="DejaVuSans-6d" transform="scale(0.015625)"/>
      </defs>
      <use xlink:href="#DejaVuSans-73"/>
      <use x="52.099609" xlink:href="#DejaVuSans-68"/>
      <use x="115.478516" xlink:href="#DejaVuSans-69"/>
      <use x="143.261719" xlink:href="#DejaVuSans-70"/>
      <use x="206.738281" xlink:href="#DejaVuSans-5f"/>
      <use x="256.738281" xlink:href="#DejaVuSans-66"/>
      <use x="291.943359" xlink:href="#DejaVuSans-72"/>
      <use x="330.806641" xlink:href="#DejaVuSans-6f"/>
      <use x="391.988281" xlink:href="#DejaVuSans-6d"/>
     </g>
    </g>
   </g>
   <g id="matplotlib.axis_2">
    <g id="ytick_1">
     <g id="line2d_1">
      <path clip-path="url(#pf5e23ca878)" d="M 230.4 266.273938 
L 414.72 266.273938 
" style="fill:none;stroke:#ffffff;stroke-linecap:round;"/>
     </g>
     <g id="text_3">
      <!-- 0 -->
      <g style="fill:#262626;" transform="translate(213.90125 270.453079)scale(0.11 -0.11)">
       <defs>
        <path d="M 2034 4250 
Q 1547 4250 1301 3770 
Q 1056 3291 1056 2328 
Q 1056 1369 1301 889 
Q 1547 409 2034 409 
Q 2525 409 2770 889 
Q 3016 1369 3016 2328 
Q 3016 3291 2770 3770 
Q 2525 4250 2034 4250 
z
M 2034 4750 
Q 2819 4750 3233 4129 
Q 3647 3509 3647 2328 
Q 3647 1150 3233 529 
Q 2819 -91 2034 -91 
Q 1250 -91 836 529 
Q 422 1150 422 2328 
Q 422 3509 836 4129 
Q 1250 4750 2034 4750 
z
" id="DejaVuSans-30" transform="scale(0.015625)"/>
       </defs>
       <use xlink:href="#DejaVuSans-30"/>
      </g>
     </g>
    </g>
    <g id="ytick_2">
     <g id="line2d_2">
      <path clip-path="url(#pf5e23ca878)" d="M 230.4 220.130258 
L 414.72 220.130258 
" style="fill:none;stroke:#ffffff;stroke-linecap:round;"/>
     </g>
     <g id="text_4">
      <!-- 5 -->
      <g style="fill:#262626;" transform="translate(213.90125 224.309399)scale(0.11 -0.11)">
       <defs>
        <path d="M 691 4666 
L 3169 4666 
L 3169 4134 
L 1269 4134 
L 1269 2991 
Q 1406 3038 1543 3061 
Q 1681 3084 1819 3084 
Q 2600 3084 3056 2656 
Q 3513 2228 3513 1497 
Q 3513 744 3044 326 
Q 2575 -91 1722 -91 
Q 1428 -91 1123 -41 
Q 819 9 494 109 
L 494 744 
Q 775 591 1075 516 
Q 1375 441 1709 441 
Q 2250 441 2565 725 
Q 2881 1009 2881 1497 
Q 2881 1984 2565 2268 
Q 2250 2553 1709 2553 
Q 1456 2553 1204 2497 
Q 953 2441 691 2322 
L 691 4666 
z
" id="DejaVuSans-35" transform="scale(0.015625)"/>
       </defs>
       <use xlink:href="#DejaVuSans-35"/>
      </g>
     </g>
    </g>
    <g id="ytick_3">
     <g id="line2d_3">
      <path clip-path="url(#pf5e23ca878)" d="M 230.4 173.986578 
L 414.72 173.986578 
" style="fill:none;stroke:#ffffff;stroke-linecap:round;"/>
     </g>
     <g id="text_5">
      <!-- 10 -->
      <g style="fill:#262626;" transform="translate(206.9025 178.165718)scale(0.11 -0.11)">
       <defs>
        <path d="M 794 531 
L 1825 531 
L 1825 4091 
L 703 3866 
L 703 4441 
L 1819 4666 
L 2450 4666 
L 2450 531 
L 3481 531 
L 3481 0 
L 794 0 
L 794 531 
z
" id="DejaVuSans-31" transform="scale(0.015625)"/>
       </defs>
       <use xlink:href="#DejaVuSans-31"/>
       <use x="63.623047" xlink:href="#DejaVuSans-30"/>
      </g>
     </g>
    </g>
    <g id="ytick_4">
     <g id="line2d_4">
      <path clip-path="url(#pf5e23ca878)" d="M 230.4 127.842897 
L 414.72 127.842897 
" style="fill:none;stroke:#ffffff;stroke-linecap:round;"/>
     </g>
     <g id="text_6">
      <!-- 15 -->
      <g style="fill:#262626;" transform="translate(206.9025 132.022038)scale(0.11 -0.11)">
       <use xlink:href="#DejaVuSans-31"/>
       <use x="63.623047" xlink:href="#DejaVuSans-35"/>
      </g>
     </g>
    </g>
    <g id="ytick_5">
     <g id="line2d_5">
      <path clip-path="url(#pf5e23ca878)" d="M 230.4 81.699217 
L 414.72 81.699217 
" style="fill:none;stroke:#ffffff;stroke-linecap:round;"/>
     </g>
     <g id="text_7">
      <!-- 20 -->
      <g style="fill:#262626;" transform="translate(206.9025 85.878357)scale(0.11 -0.11)">
       <defs>
        <path d="M 1228 531 
L 3431 531 
L 3431 0 
L 469 0 
L 469 531 
Q 828 903 1448 1529 
Q 2069 2156 2228 2338 
Q 2531 2678 2651 2914 
Q 2772 3150 2772 3378 
Q 2772 3750 2511 3984 
Q 2250 4219 1831 4219 
Q 1534 4219 1204 4116 
Q 875 4013 500 3803 
L 500 4441 
Q 881 4594 1212 4672 
Q 1544 4750 1819 4750 
Q 2544 4750 2975 4387 
Q 3406 4025 3406 3419 
Q 3406 3131 3298 2873 
Q 3191 2616 2906 2266 
Q 2828 2175 2409 1742 
Q 1991 1309 1228 531 
z
" id="DejaVuSans-32" transform="scale(0.015625)"/>
       </defs>
       <use xlink:href="#DejaVuSans-32"/>
       <use x="63.623047" xlink:href="#DejaVuSans-30"/>
      </g>
     </g>
    </g>
    <g id="text_8">
     <!-- btc -->
     <g style="fill:#262626;" transform="translate(200.406875 183.988312)rotate(-90)scale(0.12 -0.12)">
      <use xlink:href="#DejaVuSans-62"/>
      <use x="63.476562" xlink:href="#DejaVuSans-74"/>
      <use x="102.685547" xlink:href="#DejaVuSans-63"/>
     </g>
    </g>
   </g>
   <g id="PolyCollection_1">
    <defs>
     <path d="M 327.28059 -50.112 
L 317.83941 -50.112 
L 315.80943 -52.555636 
L 313.153349 -54.999273 
L 309.785378 -57.442909 
L 305.649595 -59.886545 
L 300.735975 -62.330182 
L 295.094898 -64.773818 
L 288.847263 -67.217455 
L 282.187425 -69.661091 
L 275.37689 -72.104727 
L 268.728004 -74.548364 
L 262.578589 -76.992 
L 257.260295 -79.435636 
L 253.06485 -81.879273 
L 250.213162 -84.322909 
L 248.832 -86.766545 
L 248.941869 -89.210182 
L 250.457784 -91.653818 
L 253.202458 -94.097455 
L 256.929386 -96.541091 
L 261.351813 -98.984727 
L 266.173013 -101.428364 
L 271.113607 -103.872 
L 275.932762 -106.315636 
L 280.441598 -108.759273 
L 284.50872 -111.202909 
L 288.059034 -113.646545 
L 291.067754 -116.090182 
L 293.551665 -118.533818 
L 295.559397 -120.977455 
L 297.161899 -123.421091 
L 298.443675 -125.864727 
L 299.494899 -128.308364 
L 300.404342 -130.752 
L 301.253054 -133.195636 
L 302.108991 -135.639273 
L 303.022912 -138.082909 
L 304.026022 -140.526545 
L 305.129693 -142.970182 
L 306.327345 -145.413818 
L 307.598223 -147.857455 
L 308.912409 -150.301091 
L 310.236243 -152.744727 
L 311.537251 -155.188364 
L 312.78786 -157.632 
L 313.9675 -160.075636 
L 315.063045 -162.519273 
L 316.06789 -164.962909 
L 316.980168 -167.406545 
L 317.800706 -169.850182 
L 318.531196 -172.293818 
L 319.172964 -174.737455 
L 319.726444 -177.181091 
L 320.191342 -179.624727 
L 320.567288 -182.068364 
L 320.854778 -184.512 
L 321.056135 -186.955636 
L 321.176324 -189.399273 
L 321.22346 -191.842909 
L 321.208924 -194.286545 
L 321.147053 -196.730182 
L 321.054411 -199.173818 
L 320.948687 -201.617455 
L 320.847329 -204.061091 
L 320.766069 -206.504727 
L 320.717519 -208.948364 
L 320.710045 -211.392 
L 320.747074 -213.835636 
L 320.826951 -216.279273 
L 320.943365 -218.722909 
L 321.086254 -221.166545 
L 321.243056 -223.610182 
L 321.400107 -226.053818 
L 321.543996 -228.497455 
L 321.662739 -230.941091 
L 321.746692 -233.384727 
L 321.789178 -235.828364 
L 321.786869 -238.272 
L 321.739956 -240.715636 
L 321.652145 -243.159273 
L 321.530474 -245.602909 
L 321.384928 -248.046545 
L 321.227798 -250.490182 
L 321.072774 -252.933818 
L 320.9338 -255.377455 
L 320.823767 -257.821091 
L 320.75322 -260.264727 
L 320.729247 -262.708364 
L 320.754748 -265.152 
L 320.828218 -267.595636 
L 320.944076 -270.039273 
L 321.093511 -272.482909 
L 321.265673 -274.926545 
L 321.449028 -277.370182 
L 321.632639 -279.813818 
L 321.807203 -282.257455 
L 321.965724 -284.701091 
L 322.103776 -287.144727 
L 322.219399 -289.588364 
L 322.312717 -292.032 
L 322.807283 -292.032 
L 322.807283 -292.032 
L 322.900601 -289.588364 
L 323.016224 -287.144727 
L 323.154276 -284.701091 
L 323.312797 -282.257455 
L 323.487361 -279.813818 
L 323.670972 -277.370182 
L 323.854327 -274.926545 
L 324.026489 -272.482909 
L 324.175924 -270.039273 
L 324.291782 -267.595636 
L 324.365252 -265.152 
L 324.390753 -262.708364 
L 324.36678 -260.264727 
L 324.296233 -257.821091 
L 324.1862 -255.377455 
L 324.047226 -252.933818 
L 323.892202 -250.490182 
L 323.735072 -248.046545 
L 323.589526 -245.602909 
L 323.467855 -243.159273 
L 323.380044 -240.715636 
L 323.333131 -238.272 
L 323.330822 -235.828364 
L 323.373308 -233.384727 
L 323.457261 -230.941091 
L 323.576004 -228.497455 
L 323.719893 -226.053818 
L 323.876944 -223.610182 
L 324.033746 -221.166545 
L 324.176635 -218.722909 
L 324.293049 -216.279273 
L 324.372926 -213.835636 
L 324.409955 -211.392 
L 324.402481 -208.948364 
L 324.353931 -206.504727 
L 324.272671 -204.061091 
L 324.171313 -201.617455 
L 324.065589 -199.173818 
L 323.972947 -196.730182 
L 323.911076 -194.286545 
L 323.89654 -191.842909 
L 323.943676 -189.399273 
L 324.063865 -186.955636 
L 324.265222 -184.512 
L 324.552712 -182.068364 
L 324.928658 -179.624727 
L 325.393556 -177.181091 
L 325.947036 -174.737455 
L 326.588804 -172.293818 
L 327.319294 -169.850182 
L 328.139832 -167.406545 
L 329.05211 -164.962909 
L 330.056955 -162.519273 
L 331.1525 -160.075636 
L 332.33214 -157.632 
L 333.582749 -155.188364 
L 334.883757 -152.744727 
L 336.207591 -150.301091 
L 337.521777 -147.857455 
L 338.792655 -145.413818 
L 339.990307 -142.970182 
L 341.093978 -140.526545 
L 342.097088 -138.082909 
L 343.011009 -135.639273 
L 343.866946 -133.195636 
L 344.715658 -130.752 
L 345.625101 -128.308364 
L 346.676325 -125.864727 
L 347.958101 -123.421091 
L 349.560603 -120.977455 
L 351.568335 -118.533818 
L 354.052246 -116.090182 
L 357.060966 -113.646545 
L 360.61128 -111.202909 
L 364.678402 -108.759273 
L 369.187238 -106.315636 
L 374.006393 -103.872 
L 378.946987 -101.428364 
L 383.768187 -98.984727 
L 388.190614 -96.541091 
L 391.917542 -94.097455 
L 394.662216 -91.653818 
L 396.178131 -89.210182 
L 396.288 -86.766545 
L 394.906838 -84.322909 
L 392.05515 -81.879273 
L 387.859705 -79.435636 
L 382.541411 -76.992 
L 376.391996 -74.548364 
L 369.74311 -72.104727 
L 362.932575 -69.661091 
L 356.272737 -67.217455 
L 350.025102 -64.773818 
L 344.384025 -62.330182 
L 339.470405 -59.886545 
L 335.334622 -57.442909 
L 331.966651 -54.999273 
L 329.31057 -52.555636 
L 327.28059 -50.112 
z
" id="mccc9e3fe7b" style="stroke:#4c4c4c;stroke-width:1.5;"/>
    </defs>
    <g clip-path="url(#pf5e23ca878)">
     <use style="fill:#5875a4;stroke:#4c4c4c;stroke-width:1.5;" x="0" xlink:href="#mccc9e3fe7b" y="345.6"/>
    </g>
   </g>
   <g id="line2d_6">
    <path clip-path="url(#pf5e23ca878)" d="M 322.56 266.234751 
L 322.56 187.774846 
" style="fill:none;stroke:#4c4c4c;stroke-linecap:round;stroke-width:1.5;"/>
   </g>
   <g id="line2d_7">
    <path clip-path="url(#pf5e23ca878)" d="M 322.56 262.494924 
L 322.56 231.8319 
" style="fill:none;stroke:#4c4c4c;stroke-linecap:round;stroke-width:4.5;"/>
   </g>
   <g id="patch_3">
    <path d="M 230.4 307.584 
L 230.4 41.472 
" style="fill:none;stroke:#ffffff;stroke-linecap:square;stroke-linejoin:miter;stroke-width:1.25;"/>
   </g>
   <g id="patch_4">
    <path d="M 414.72 307.584 
L 414.72 41.472 
" style="fill:none;stroke:#ffffff;stroke-linecap:square;stroke-linejoin:miter;stroke-width:1.25;"/>
   </g>
   <g id="patch_5">
    <path d="M 230.4 307.584 
L 414.72 307.584 
" style="fill:none;stroke:#ffffff;stroke-linecap:square;stroke-linejoin:miter;stroke-width:1.25;"/>
   </g>
   <g id="patch_6">
    <path d="M 230.4 41.472 
L 414.72 41.472 
" style="fill:none;stroke:#ffffff;stroke-linecap:square;stroke-linejoin:miter;stroke-width:1.25;"/>
   </g>
   <g id="PathCollection_1">
    <defs>
     <path d="M 0 1.5 
C 0.397805 1.5 0.77937 1.341951 1.06066 1.06066 
C 1.341951 0.77937 1.5 0.397805 1.5 0 
C 1.5 -0.397805 1.341951 -0.77937 1.06066 -1.06066 
C 0.77937 -1.341951 0.397805 -1.5 0 -1.5 
C -0.397805 -1.5 -0.77937 -1.341951 -1.06066 -1.06066 
C -1.341951 -0.77937 -1.5 -0.397805 -1.5 0 
C -1.5 0.397805 -1.341951 0.77937 -1.06066 1.06066 
C -0.77937 1.341951 -0.397805 1.5 0 1.5 
z
" id="m64b1d78b05" style="stroke:#4c4c4c;"/>
    </defs>
    <g clip-path="url(#pf5e23ca878)">
     <use style="fill:#ffffff;stroke:#4c4c4c;" x="322.56" xlink:href="#m64b1d78b05" y="254.752896"/>
    </g>
   </g>
  </g>
 </g>
 <defs>
  <clipPath id="pf5e23ca878">
   <rect height="266.112" width="184.32" x="230.4" y="41.472"/>
  </clipPath>
 </defs>
</svg>
