<?xml version="1.0" encoding="utf-8" standalone="no"?>
<!DOCTYPE svg PUBLIC "-//W3C//DTD SVG 1.1//EN"
  "http://www.w3.org/Graphics/SVG/1.1/DTD/svg11.dtd">
<svg height="1152pt" version="1.1" viewBox="0 0 1872 1152" width="1872pt" xmlns="http://www.w3.org/2000/svg" xmlns:xlink="http://www.w3.org/1999/xlink">
 <metadata>
  <rdf:RDF xmlns:cc="http://creativecommons.org/ns#" xmlns:dc="http://purl.org/dc/elements/1.1/" xmlns:rdf="http://www.w3.org/1999/02/22-rdf-syntax-ns#">
   <cc:Work>
    <dc:type rdf:resource="http://purl.org/dc/dcmitype/StillImage"/>
    <dc:date>2021-08-29T21:15:31.166664</dc:date>
    <dc:format>image/svg+xml</dc:format>
    <dc:creator>
     <cc:Agent>
      <dc:title>Matplotlib v3.4.3, https://matplotlib.org/</dc:title>
     </cc:Agent>
    </dc:creator>
   </cc:Work>
  </rdf:RDF>
 </metadata>
 <defs>
  <style type="text/css">*{stroke-linecap:butt;stroke-linejoin:round;}</style>
 </defs>
 <g id="figure_1">
  <g id="patch_1">
   <path d="M 0 1152 
L 1872 1152 
L 1872 0 
L 0 0 
z
" style="fill:#ffffff;"/>
  </g>
  <g id="axes_1">
   <g id="patch_2">
    <path d="M 561.6 1025.28 
L 1684.8 1025.28 
L 1684.8 138.24 
L 561.6 138.24 
z
" style="fill:#eaeaf2;"/>
   </g>
   <g id="matplotlib.axis_1">
    <g id="xtick_1">
     <g id="text_1">
      <!-- transactions -->
      <g style="fill:#262626;" transform="translate(1089.266719 1043.138281)scale(0.11 -0.11)">
       <defs>
        <path d="M 1172 4494 
L 1172 3500 
L 2356 3500 
L 2356 3053 
L 1172 3053 
L 1172 1153 
Q 1172 725 1289 603 
Q 1406 481 1766 481 
L 2356 481 
L 2356 0 
L 1766 0 
Q 1100 0 847 248 
Q 594 497 594 1153 
L 594 3053 
L 172 3053 
L 172 3500 
L 594 3500 
L 594 4494 
L 1172 4494 
z
" id="DejaVuSans-74" transform="scale(0.015625)"/>
        <path d="M 2631 2963 
Q 2534 3019 2420 3045 
Q 2306 3072 2169 3072 
Q 1681 3072 1420 2755 
Q 1159 2438 1159 1844 
L 1159 0 
L 581 0 
L 581 3500 
L 1159 3500 
L 1159 2956 
Q 1341 3275 1631 3429 
Q 1922 3584 2338 3584 
Q 2397 3584 2469 3576 
Q 2541 3569 2628 3553 
L 2631 2963 
z
" id="DejaVuSans-72" transform="scale(0.015625)"/>
        <path d="M 2194 1759 
Q 1497 1759 1228 1600 
Q 959 1441 959 1056 
Q 959 750 1161 570 
Q 1363 391 1709 391 
Q 2188 391 2477 730 
Q 2766 1069 2766 1631 
L 2766 1759 
L 2194 1759 
z
M 3341 1997 
L 3341 0 
L 2766 0 
L 2766 531 
Q 2569 213 2275 61 
Q 1981 -91 1556 -91 
Q 1019 -91 701 211 
Q 384 513 384 1019 
Q 384 1609 779 1909 
Q 1175 2209 1959 2209 
L 2766 2209 
L 2766 2266 
Q 2766 2663 2505 2880 
Q 2244 3097 1772 3097 
Q 1472 3097 1187 3025 
Q 903 2953 641 2809 
L 641 3341 
Q 956 3463 1253 3523 
Q 1550 3584 1831 3584 
Q 2591 3584 2966 3190 
Q 3341 2797 3341 1997 
z
" id="DejaVuSans-61" transform="scale(0.015625)"/>
        <path d="M 3513 2113 
L 3513 0 
L 2938 0 
L 2938 2094 
Q 2938 2591 2744 2837 
Q 2550 3084 2163 3084 
Q 1697 3084 1428 2787 
Q 1159 2491 1159 1978 
L 1159 0 
L 581 0 
L 581 3500 
L 1159 3500 
L 1159 2956 
Q 1366 3272 1645 3428 
Q 1925 3584 2291 3584 
Q 2894 3584 3203 3211 
Q 3513 2838 3513 2113 
z
" id="DejaVuSans-6e" transform="scale(0.015625)"/>
        <path d="M 2834 3397 
L 2834 2853 
Q 2591 2978 2328 3040 
Q 2066 3103 1784 3103 
Q 1356 3103 1142 2972 
Q 928 2841 928 2578 
Q 928 2378 1081 2264 
Q 1234 2150 1697 2047 
L 1894 2003 
Q 2506 1872 2764 1633 
Q 3022 1394 3022 966 
Q 3022 478 2636 193 
Q 2250 -91 1575 -91 
Q 1294 -91 989 -36 
Q 684 19 347 128 
L 347 722 
Q 666 556 975 473 
Q 1284 391 1588 391 
Q 1994 391 2212 530 
Q 2431 669 2431 922 
Q 2431 1156 2273 1281 
Q 2116 1406 1581 1522 
L 1381 1569 
Q 847 1681 609 1914 
Q 372 2147 372 2553 
Q 372 3047 722 3315 
Q 1072 3584 1716 3584 
Q 2034 3584 2315 3537 
Q 2597 3491 2834 3397 
z
" id="DejaVuSans-73" transform="scale(0.015625)"/>
        <path d="M 3122 3366 
L 3122 2828 
Q 2878 2963 2633 3030 
Q 2388 3097 2138 3097 
Q 1578 3097 1268 2742 
Q 959 2388 959 1747 
Q 959 1106 1268 751 
Q 1578 397 2138 397 
Q 2388 397 2633 464 
Q 2878 531 3122 666 
L 3122 134 
Q 2881 22 2623 -34 
Q 2366 -91 2075 -91 
Q 1284 -91 818 406 
Q 353 903 353 1747 
Q 353 2603 823 3093 
Q 1294 3584 2113 3584 
Q 2378 3584 2631 3529 
Q 2884 3475 3122 3366 
z
" id="DejaVuSans-63" transform="scale(0.015625)"/>
        <path d="M 603 3500 
L 1178 3500 
L 1178 0 
L 603 0 
L 603 3500 
z
M 603 4863 
L 1178 4863 
L 1178 4134 
L 603 4134 
L 603 4863 
z
" id="DejaVuSans-69" transform="scale(0.015625)"/>
        <path d="M 1959 3097 
Q 1497 3097 1228 2736 
Q 959 2375 959 1747 
Q 959 1119 1226 758 
Q 1494 397 1959 397 
Q 2419 397 2687 759 
Q 2956 1122 2956 1747 
Q 2956 2369 2687 2733 
Q 2419 3097 1959 3097 
z
M 1959 3584 
Q 2709 3584 3137 3096 
Q 3566 2609 3566 1747 
Q 3566 888 3137 398 
Q 2709 -91 1959 -91 
Q 1206 -91 779 398 
Q 353 888 353 1747 
Q 353 2609 779 3096 
Q 1206 3584 1959 3584 
z
" id="DejaVuSans-6f" transform="scale(0.015625)"/>
       </defs>
       <use xlink:href="#DejaVuSans-74"/>
       <use x="39.208984" xlink:href="#DejaVuSans-72"/>
       <use x="80.322266" xlink:href="#DejaVuSans-61"/>
       <use x="141.601562" xlink:href="#DejaVuSans-6e"/>
       <use x="204.980469" xlink:href="#DejaVuSans-73"/>
       <use x="257.080078" xlink:href="#DejaVuSans-61"/>
       <use x="318.359375" xlink:href="#DejaVuSans-63"/>
       <use x="373.339844" xlink:href="#DejaVuSans-74"/>
       <use x="412.548828" xlink:href="#DejaVuSans-69"/>
       <use x="440.332031" xlink:href="#DejaVuSans-6f"/>
       <use x="501.513672" xlink:href="#DejaVuSans-6e"/>
       <use x="564.892578" xlink:href="#DejaVuSans-73"/>
      </g>
     </g>
    </g>
    <g id="text_2">
     <!-- ship_from -->
     <g style="fill:#262626;" transform="translate(1093.836563 1058.544063)scale(0.12 -0.12)">
      <defs>
       <path d="M 3513 2113 
L 3513 0 
L 2938 0 
L 2938 2094 
Q 2938 2591 2744 2837 
Q 2550 3084 2163 3084 
Q 1697 3084 1428 2787 
Q 1159 2491 1159 1978 
L 1159 0 
L 581 0 
L 581 4863 
L 1159 4863 
L 1159 2956 
Q 1366 3272 1645 3428 
Q 1925 3584 2291 3584 
Q 2894 3584 3203 3211 
Q 3513 2838 3513 2113 
z
" id="DejaVuSans-68" transform="scale(0.015625)"/>
       <path d="M 1159 525 
L 1159 -1331 
L 581 -1331 
L 581 3500 
L 1159 3500 
L 1159 2969 
Q 1341 3281 1617 3432 
Q 1894 3584 2278 3584 
Q 2916 3584 3314 3078 
Q 3713 2572 3713 1747 
Q 3713 922 3314 415 
Q 2916 -91 2278 -91 
Q 1894 -91 1617 61 
Q 1341 213 1159 525 
z
M 3116 1747 
Q 3116 2381 2855 2742 
Q 2594 3103 2138 3103 
Q 1681 3103 1420 2742 
Q 1159 2381 1159 1747 
Q 1159 1113 1420 752 
Q 1681 391 2138 391 
Q 2594 391 2855 752 
Q 3116 1113 3116 1747 
z
" id="DejaVuSans-70" transform="scale(0.015625)"/>
       <path d="M 3263 -1063 
L 3263 -1509 
L -63 -1509 
L -63 -1063 
L 3263 -1063 
z
" id="DejaVuSans-5f" transform="scale(0.015625)"/>
       <path d="M 2375 4863 
L 2375 4384 
L 1825 4384 
Q 1516 4384 1395 4259 
Q 1275 4134 1275 3809 
L 1275 3500 
L 2222 3500 
L 2222 3053 
L 1275 3053 
L 1275 0 
L 697 0 
L 697 3053 
L 147 3053 
L 147 3500 
L 697 3500 
L 697 3744 
Q 697 4328 969 4595 
Q 1241 4863 1831 4863 
L 2375 4863 
z
" id="DejaVuSans-66" transform="scale(0.015625)"/>
       <path d="M 3328 2828 
Q 3544 3216 3844 3400 
Q 4144 3584 4550 3584 
Q 5097 3584 5394 3201 
Q 5691 2819 5691 2113 
L 5691 0 
L 5113 0 
L 5113 2094 
Q 5113 2597 4934 2840 
Q 4756 3084 4391 3084 
Q 3944 3084 3684 2787 
Q 3425 2491 3425 1978 
L 3425 0 
L 2847 0 
L 2847 2094 
Q 2847 2600 2669 2842 
Q 2491 3084 2119 3084 
Q 1678 3084 1418 2786 
Q 1159 2488 1159 1978 
L 1159 0 
L 581 0 
L 581 3500 
L 1159 3500 
L 1159 2956 
Q 1356 3278 1631 3431 
Q 1906 3584 2284 3584 
Q 2666 3584 2933 3390 
Q 3200 3197 3328 2828 
z
" id="DejaVuSans-6d" transform="scale(0.015625)"/>
      </defs>
      <use xlink:href="#DejaVuSans-73"/>
      <use x="52.099609" xlink:href="#DejaVuSans-68"/>
      <use x="115.478516" xlink:href="#DejaVuSans-69"/>
      <use x="143.261719" xlink:href="#DejaVuSans-70"/>
      <use x="206.738281" xlink:href="#DejaVuSans-5f"/>
      <use x="256.738281" xlink:href="#DejaVuSans-66"/>
      <use x="291.943359" xlink:href="#DejaVuSans-72"/>
      <use x="330.806641" xlink:href="#DejaVuSans-6f"/>
      <use x="391.988281" xlink:href="#DejaVuSans-6d"/>
     </g>
    </g>
   </g>
   <g id="matplotlib.axis_2">
    <g id="ytick_1">
     <g id="line2d_1">
      <path clip-path="url(#p3432f2abde)" d="M 561.6 900.028397 
L 1684.8 900.028397 
" style="fill:none;stroke:#ffffff;stroke-linecap:round;"/>
     </g>
     <g id="text_3">
      <!-- 0 -->
      <g style="fill:#262626;" transform="translate(545.10125 904.207537)scale(0.11 -0.11)">
       <defs>
        <path d="M 2034 4250 
Q 1547 4250 1301 3770 
Q 1056 3291 1056 2328 
Q 1056 1369 1301 889 
Q 1547 409 2034 409 
Q 2525 409 2770 889 
Q 3016 1369 3016 2328 
Q 3016 3291 2770 3770 
Q 2525 4250 2034 4250 
z
M 2034 4750 
Q 2819 4750 3233 4129 
Q 3647 3509 3647 2328 
Q 3647 1150 3233 529 
Q 2819 -91 2034 -91 
Q 1250 -91 836 529 
Q 422 1150 422 2328 
Q 422 3509 836 4129 
Q 1250 4750 2034 4750 
z
" id="DejaVuSans-30" transform="scale(0.015625)"/>
       </defs>
       <use xlink:href="#DejaVuSans-30"/>
      </g>
     </g>
    </g>
    <g id="ytick_2">
     <g id="line2d_2">
      <path clip-path="url(#p3432f2abde)" d="M 561.6 757.610499 
L 1684.8 757.610499 
" style="fill:none;stroke:#ffffff;stroke-linecap:round;"/>
     </g>
     <g id="text_4">
      <!-- 20000 -->
      <g style="fill:#262626;" transform="translate(517.10625 761.78964)scale(0.11 -0.11)">
       <defs>
        <path d="M 1228 531 
L 3431 531 
L 3431 0 
L 469 0 
L 469 531 
Q 828 903 1448 1529 
Q 2069 2156 2228 2338 
Q 2531 2678 2651 2914 
Q 2772 3150 2772 3378 
Q 2772 3750 2511 3984 
Q 2250 4219 1831 4219 
Q 1534 4219 1204 4116 
Q 875 4013 500 3803 
L 500 4441 
Q 881 4594 1212 4672 
Q 1544 4750 1819 4750 
Q 2544 4750 2975 4387 
Q 3406 4025 3406 3419 
Q 3406 3131 3298 2873 
Q 3191 2616 2906 2266 
Q 2828 2175 2409 1742 
Q 1991 1309 1228 531 
z
" id="DejaVuSans-32" transform="scale(0.015625)"/>
       </defs>
       <use xlink:href="#DejaVuSans-32"/>
       <use x="63.623047" xlink:href="#DejaVuSans-30"/>
       <use x="127.246094" xlink:href="#DejaVuSans-30"/>
       <use x="190.869141" xlink:href="#DejaVuSans-30"/>
       <use x="254.492188" xlink:href="#DejaVuSans-30"/>
      </g>
     </g>
    </g>
    <g id="ytick_3">
     <g id="line2d_3">
      <path clip-path="url(#p3432f2abde)" d="M 561.6 615.192601 
L 1684.8 615.192601 
" style="fill:none;stroke:#ffffff;stroke-linecap:round;"/>
     </g>
     <g id="text_5">
      <!-- 40000 -->
      <g style="fill:#262626;" transform="translate(517.10625 619.371742)scale(0.11 -0.11)">
       <defs>
        <path d="M 2419 4116 
L 825 1625 
L 2419 1625 
L 2419 4116 
z
M 2253 4666 
L 3047 4666 
L 3047 1625 
L 3713 1625 
L 3713 1100 
L 3047 1100 
L 3047 0 
L 2419 0 
L 2419 1100 
L 313 1100 
L 313 1709 
L 2253 4666 
z
" id="DejaVuSans-34" transform="scale(0.015625)"/>
       </defs>
       <use xlink:href="#DejaVuSans-34"/>
       <use x="63.623047" xlink:href="#DejaVuSans-30"/>
       <use x="127.246094" xlink:href="#DejaVuSans-30"/>
       <use x="190.869141" xlink:href="#DejaVuSans-30"/>
       <use x="254.492188" xlink:href="#DejaVuSans-30"/>
      </g>
     </g>
    </g>
    <g id="ytick_4">
     <g id="line2d_4">
      <path clip-path="url(#p3432f2abde)" d="M 561.6 472.774704 
L 1684.8 472.774704 
" style="fill:none;stroke:#ffffff;stroke-linecap:round;"/>
     </g>
     <g id="text_6">
      <!-- 60000 -->
      <g style="fill:#262626;" transform="translate(517.10625 476.953844)scale(0.11 -0.11)">
       <defs>
        <path d="M 2113 2584 
Q 1688 2584 1439 2293 
Q 1191 2003 1191 1497 
Q 1191 994 1439 701 
Q 1688 409 2113 409 
Q 2538 409 2786 701 
Q 3034 994 3034 1497 
Q 3034 2003 2786 2293 
Q 2538 2584 2113 2584 
z
M 3366 4563 
L 3366 3988 
Q 3128 4100 2886 4159 
Q 2644 4219 2406 4219 
Q 1781 4219 1451 3797 
Q 1122 3375 1075 2522 
Q 1259 2794 1537 2939 
Q 1816 3084 2150 3084 
Q 2853 3084 3261 2657 
Q 3669 2231 3669 1497 
Q 3669 778 3244 343 
Q 2819 -91 2113 -91 
Q 1303 -91 875 529 
Q 447 1150 447 2328 
Q 447 3434 972 4092 
Q 1497 4750 2381 4750 
Q 2619 4750 2861 4703 
Q 3103 4656 3366 4563 
z
" id="DejaVuSans-36" transform="scale(0.015625)"/>
       </defs>
       <use xlink:href="#DejaVuSans-36"/>
       <use x="63.623047" xlink:href="#DejaVuSans-30"/>
       <use x="127.246094" xlink:href="#DejaVuSans-30"/>
       <use x="190.869141" xlink:href="#DejaVuSans-30"/>
       <use x="254.492188" xlink:href="#DejaVuSans-30"/>
      </g>
     </g>
    </g>
    <g id="ytick_5">
     <g id="line2d_5">
      <path clip-path="url(#p3432f2abde)" d="M 561.6 330.356806 
L 1684.8 330.356806 
" style="fill:none;stroke:#ffffff;stroke-linecap:round;"/>
     </g>
     <g id="text_7">
      <!-- 80000 -->
      <g style="fill:#262626;" transform="translate(517.10625 334.535947)scale(0.11 -0.11)">
       <defs>
        <path d="M 2034 2216 
Q 1584 2216 1326 1975 
Q 1069 1734 1069 1313 
Q 1069 891 1326 650 
Q 1584 409 2034 409 
Q 2484 409 2743 651 
Q 3003 894 3003 1313 
Q 3003 1734 2745 1975 
Q 2488 2216 2034 2216 
z
M 1403 2484 
Q 997 2584 770 2862 
Q 544 3141 544 3541 
Q 544 4100 942 4425 
Q 1341 4750 2034 4750 
Q 2731 4750 3128 4425 
Q 3525 4100 3525 3541 
Q 3525 3141 3298 2862 
Q 3072 2584 2669 2484 
Q 3125 2378 3379 2068 
Q 3634 1759 3634 1313 
Q 3634 634 3220 271 
Q 2806 -91 2034 -91 
Q 1263 -91 848 271 
Q 434 634 434 1313 
Q 434 1759 690 2068 
Q 947 2378 1403 2484 
z
M 1172 3481 
Q 1172 3119 1398 2916 
Q 1625 2713 2034 2713 
Q 2441 2713 2670 2916 
Q 2900 3119 2900 3481 
Q 2900 3844 2670 4047 
Q 2441 4250 2034 4250 
Q 1625 4250 1398 4047 
Q 1172 3844 1172 3481 
z
" id="DejaVuSans-38" transform="scale(0.015625)"/>
       </defs>
       <use xlink:href="#DejaVuSans-38"/>
       <use x="63.623047" xlink:href="#DejaVuSans-30"/>
       <use x="127.246094" xlink:href="#DejaVuSans-30"/>
       <use x="190.869141" xlink:href="#DejaVuSans-30"/>
       <use x="254.492188" xlink:href="#DejaVuSans-30"/>
      </g>
     </g>
    </g>
    <g id="ytick_6">
     <g id="line2d_6">
      <path clip-path="url(#p3432f2abde)" d="M 561.6 187.938908 
L 1684.8 187.938908 
" style="fill:none;stroke:#ffffff;stroke-linecap:round;"/>
     </g>
     <g id="text_8">
      <!-- 100000 -->
      <g style="fill:#262626;" transform="translate(510.1075 192.118049)scale(0.11 -0.11)">
       <defs>
        <path d="M 794 531 
L 1825 531 
L 1825 4091 
L 703 3866 
L 703 4441 
L 1819 4666 
L 2450 4666 
L 2450 531 
L 3481 531 
L 3481 0 
L 794 0 
L 794 531 
z
" id="DejaVuSans-31" transform="scale(0.015625)"/>
       </defs>
       <use xlink:href="#DejaVuSans-31"/>
       <use x="63.623047" xlink:href="#DejaVuSans-30"/>
       <use x="127.246094" xlink:href="#DejaVuSans-30"/>
       <use x="190.869141" xlink:href="#DejaVuSans-30"/>
       <use x="254.492188" xlink:href="#DejaVuSans-30"/>
       <use x="318.115234" xlink:href="#DejaVuSans-30"/>
      </g>
     </g>
    </g>
    <g id="text_9">
     <!-- count -->
     <g style="fill:#262626;" transform="translate(503.611875 598.6875)rotate(-90)scale(0.12 -0.12)">
      <defs>
       <path d="M 544 1381 
L 544 3500 
L 1119 3500 
L 1119 1403 
Q 1119 906 1312 657 
Q 1506 409 1894 409 
Q 2359 409 2629 706 
Q 2900 1003 2900 1516 
L 2900 3500 
L 3475 3500 
L 3475 0 
L 2900 0 
L 2900 538 
Q 2691 219 2414 64 
Q 2138 -91 1772 -91 
Q 1169 -91 856 284 
Q 544 659 544 1381 
z
M 1991 3584 
L 1991 3584 
z
" id="DejaVuSans-75" transform="scale(0.015625)"/>
      </defs>
      <use xlink:href="#DejaVuSans-63"/>
      <use x="54.980469" xlink:href="#DejaVuSans-6f"/>
      <use x="116.162109" xlink:href="#DejaVuSans-75"/>
      <use x="179.541016" xlink:href="#DejaVuSans-6e"/>
      <use x="242.919922" xlink:href="#DejaVuSans-74"/>
     </g>
    </g>
   </g>
   <g id="PolyCollection_1">
    <defs>
     <path d="M 1174.696542 -167.04 
L 1071.703458 -167.04 
L 1048.101977 -175.185455 
L 1017.584771 -183.330909 
L 979.950452 -191.476364 
L 935.807332 -199.621818 
L 886.75407 -207.767273 
L 835.41887 -215.912727 
L 785.306217 -224.058182 
L 740.438817 -232.203636 
L 704.834453 -240.349091 
L 681.907901 -248.494545 
L 673.92 -256.64 
L 681.596213 -264.785455 
L 704.002673 -272.930909 
L 738.707476 -281.076364 
L 782.187011 -289.221818 
L 830.382199 -297.367273 
L 879.283181 -305.512727 
L 925.428536 -313.658182 
L 966.240254 -321.803636 
L 1000.164358 -329.949091 
L 1026.633473 -338.094545 
L 1045.899611 -346.24 
L 1058.798281 -354.385455 
L 1066.500535 -362.530909 
L 1070.294321 -370.676364 
L 1071.417816 -378.821818 
L 1070.951056 -386.967273 
L 1069.760916 -395.112727 
L 1068.488572 -403.258182 
L 1067.566738 -411.403636 
L 1067.254446 -419.549091 
L 1067.678828 -427.694545 
L 1068.875556 -435.84 
L 1070.822162 -443.985455 
L 1073.461223 -452.130909 
L 1076.713207 -460.276364 
L 1080.481143 -468.421818 
L 1084.650801 -476.567273 
L 1089.090458 -484.712727 
L 1093.653474 -492.858182 
L 1098.185299 -501.003636 
L 1102.53453 -509.149091 
L 1106.566015 -517.294545 
L 1110.173124 -525.44 
L 1113.286472 -533.585455 
L 1115.877279 -541.730909 
L 1117.955007 -549.876364 
L 1119.56024 -558.021818 
L 1120.754689 -566.167273 
L 1121.610533 -574.312727 
L 1122.200948 -582.458182 
L 1122.593068 -590.603636 
L 1122.843767 -598.749091 
L 1122.99806 -606.894545 
L 1123.08947 -615.04 
L 1123.141602 -623.185455 
L 1123.170222 -631.330909 
L 1123.185349 -639.476364 
L 1123.193044 -647.621818 
L 1123.196813 -655.767273 
L 1123.198586 -663.912727 
L 1123.199381 -672.058182 
L 1123.199703 -680.203636 
L 1123.199775 -688.349091 
L 1123.199654 -696.494545 
L 1123.199264 -704.64 
L 1123.198368 -712.785455 
L 1123.196466 -720.930909 
L 1123.192608 -729.076364 
L 1123.185091 -737.221818 
L 1123.171016 -745.367273 
L 1123.145687 -753.512727 
L 1123.101899 -761.658182 
L 1123.029209 -769.803636 
L 1122.913397 -777.949091 
L 1122.736424 -786.094545 
L 1122.477255 -794.24 
L 1122.113891 -802.385455 
L 1121.626792 -810.530909 
L 1121.003541 -818.676364 
L 1120.244139 -826.821818 
L 1119.365849 -834.967273 
L 1118.406216 -843.112727 
L 1117.422872 -851.258182 
L 1116.489272 -859.403636 
L 1115.686341 -867.549091 
L 1115.091183 -875.694545 
L 1114.76495 -883.84 
L 1114.742501 -891.985455 
L 1115.026267 -900.130909 
L 1115.58582 -908.276364 
L 1116.363246 -916.421818 
L 1117.283008 -924.567273 
L 1118.263989 -932.712727 
L 1119.231051 -940.858182 
L 1120.12391 -949.003636 
L 1120.902018 -957.149091 
L 1121.545303 -965.294545 
L 1122.051544 -973.44 
L 1124.348456 -973.44 
L 1124.348456 -973.44 
L 1124.854697 -965.294545 
L 1125.497982 -957.149091 
L 1126.27609 -949.003636 
L 1127.168949 -940.858182 
L 1128.136011 -932.712727 
L 1129.116992 -924.567273 
L 1130.036754 -916.421818 
L 1130.81418 -908.276364 
L 1131.373733 -900.130909 
L 1131.657499 -891.985455 
L 1131.63505 -883.84 
L 1131.308817 -875.694545 
L 1130.713659 -867.549091 
L 1129.910728 -859.403636 
L 1128.977128 -851.258182 
L 1127.993784 -843.112727 
L 1127.034151 -834.967273 
L 1126.155861 -826.821818 
L 1125.396459 -818.676364 
L 1124.773208 -810.530909 
L 1124.286109 -802.385455 
L 1123.922745 -794.24 
L 1123.663576 -786.094545 
L 1123.486603 -777.949091 
L 1123.370791 -769.803636 
L 1123.298101 -761.658182 
L 1123.254313 -753.512727 
L 1123.228984 -745.367273 
L 1123.214909 -737.221818 
L 1123.207392 -729.076364 
L 1123.203534 -720.930909 
L 1123.201632 -712.785455 
L 1123.200736 -704.64 
L 1123.200346 -696.494545 
L 1123.200225 -688.349091 
L 1123.200297 -680.203636 
L 1123.200619 -672.058182 
L 1123.201414 -663.912727 
L 1123.203187 -655.767273 
L 1123.206956 -647.621818 
L 1123.214651 -639.476364 
L 1123.229778 -631.330909 
L 1123.258398 -623.185455 
L 1123.31053 -615.04 
L 1123.40194 -606.894545 
L 1123.556233 -598.749091 
L 1123.806932 -590.603636 
L 1124.199052 -582.458182 
L 1124.789467 -574.312727 
L 1125.645311 -566.167273 
L 1126.83976 -558.021818 
L 1128.444993 -549.876364 
L 1130.522721 -541.730909 
L 1133.113528 -533.585455 
L 1136.226876 -525.44 
L 1139.833985 -517.294545 
L 1143.86547 -509.149091 
L 1148.214701 -501.003636 
L 1152.746526 -492.858182 
L 1157.309542 -484.712727 
L 1161.749199 -476.567273 
L 1165.918857 -468.421818 
L 1169.686793 -460.276364 
L 1172.938777 -452.130909 
L 1175.577838 -443.985455 
L 1177.524444 -435.84 
L 1178.721172 -427.694545 
L 1179.145554 -419.549091 
L 1178.833262 -411.403636 
L 1177.911428 -403.258182 
L 1176.639084 -395.112727 
L 1175.448944 -386.967273 
L 1174.982184 -378.821818 
L 1176.105679 -370.676364 
L 1179.899465 -362.530909 
L 1187.601719 -354.385455 
L 1200.500389 -346.24 
L 1219.766527 -338.094545 
L 1246.235642 -329.949091 
L 1280.159746 -321.803636 
L 1320.971464 -313.658182 
L 1367.116819 -305.512727 
L 1416.017801 -297.367273 
L 1464.212989 -289.221818 
L 1507.692524 -281.076364 
L 1542.397327 -272.930909 
L 1564.803787 -264.785455 
L 1572.48 -256.64 
L 1564.492099 -248.494545 
L 1541.565547 -240.349091 
L 1505.961183 -232.203636 
L 1461.093783 -224.058182 
L 1410.98113 -215.912727 
L 1359.64593 -207.767273 
L 1310.592668 -199.621818 
L 1266.449548 -191.476364 
L 1228.815229 -183.330909 
L 1198.298023 -175.185455 
L 1174.696542 -167.04 
z
" id="m3a890fb171" style="stroke:#4c4c4c;stroke-width:1.5;"/>
    </defs>
    <g clip-path="url(#p3432f2abde)">
     <use style="fill:#5875a4;stroke:#4c4c4c;stroke-width:1.5;" x="0" xlink:href="#m3a890fb171" y="1152"/>
    </g>
   </g>
   <g id="line2d_7">
    <path clip-path="url(#p3432f2abde)" d="M 1123.2 900.021276 
L 1123.2 887.132456 
" style="fill:none;stroke:#4c4c4c;stroke-linecap:round;stroke-width:1.5;"/>
   </g>
   <g id="line2d_8">
    <path clip-path="url(#p3432f2abde)" d="M 1123.2 899.857495 
L 1123.2 889.532198 
" style="fill:none;stroke:#4c4c4c;stroke-linecap:round;stroke-width:4.5;"/>
   </g>
   <g id="patch_3">
    <path d="M 561.6 1025.28 
L 561.6 138.24 
" style="fill:none;stroke:#ffffff;stroke-linecap:square;stroke-linejoin:miter;stroke-width:1.25;"/>
   </g>
   <g id="patch_4">
    <path d="M 1684.8 1025.28 
L 1684.8 138.24 
" style="fill:none;stroke:#ffffff;stroke-linecap:square;stroke-linejoin:miter;stroke-width:1.25;"/>
   </g>
   <g id="patch_5">
    <path d="M 561.6 1025.28 
L 1684.8 1025.28 
" style="fill:none;stroke:#ffffff;stroke-linecap:square;stroke-linejoin:miter;stroke-width:1.25;"/>
   </g>
   <g id="patch_6">
    <path d="M 561.6 138.24 
L 1684.8 138.24 
" style="fill:none;stroke:#ffffff;stroke-linecap:square;stroke-linejoin:miter;stroke-width:1.25;"/>
   </g>
   <g id="PathCollection_1">
    <defs>
     <path d="M 0 1.5 
C 0.397805 1.5 0.77937 1.341951 1.06066 1.06066 
C 1.341951 0.77937 1.5 0.397805 1.5 0 
C 1.5 -0.397805 1.341951 -0.77937 1.06066 -1.06066 
C 0.77937 -1.341951 0.397805 -1.5 0 -1.5 
C -0.397805 -1.5 -0.77937 -1.341951 -1.06066 -1.06066 
C -1.341951 -0.77937 -1.5 -0.397805 -1.5 0 
C -1.5 0.397805 -1.341951 0.77937 -1.06066 1.06066 
C -0.77937 1.341951 -0.397805 1.5 0 1.5 
z
" id="md1660d55dc" style="stroke:#4c4c4c;"/>
    </defs>
    <g clip-path="url(#p3432f2abde)">
     <use style="fill:#ffffff;stroke:#4c4c4c;" x="1123.2" xlink:href="#md1660d55dc" y="898.241052"/>
    </g>
   </g>
   <g id="text_10">
    <!-- 11-apr2015.csv - Total number of transactions per shipping locality -->
    <g style="fill:#262626;" transform="translate(921.634688 132.24)scale(0.12 -0.12)">
     <defs>
      <path d="M 313 2009 
L 1997 2009 
L 1997 1497 
L 313 1497 
L 313 2009 
z
" id="DejaVuSans-2d" transform="scale(0.015625)"/>
      <path d="M 691 4666 
L 3169 4666 
L 3169 4134 
L 1269 4134 
L 1269 2991 
Q 1406 3038 1543 3061 
Q 1681 3084 1819 3084 
Q 2600 3084 3056 2656 
Q 3513 2228 3513 1497 
Q 3513 744 3044 326 
Q 2575 -91 1722 -91 
Q 1428 -91 1123 -41 
Q 819 9 494 109 
L 494 744 
Q 775 591 1075 516 
Q 1375 441 1709 441 
Q 2250 441 2565 725 
Q 2881 1009 2881 1497 
Q 2881 1984 2565 2268 
Q 2250 2553 1709 2553 
Q 1456 2553 1204 2497 
Q 953 2441 691 2322 
L 691 4666 
z
" id="DejaVuSans-35" transform="scale(0.015625)"/>
      <path d="M 684 794 
L 1344 794 
L 1344 0 
L 684 0 
L 684 794 
z
" id="DejaVuSans-2e" transform="scale(0.015625)"/>
      <path d="M 191 3500 
L 800 3500 
L 1894 563 
L 2988 3500 
L 3597 3500 
L 2284 0 
L 1503 0 
L 191 3500 
z
" id="DejaVuSans-76" transform="scale(0.015625)"/>
      <path id="DejaVuSans-20" transform="scale(0.015625)"/>
      <path d="M -19 4666 
L 3928 4666 
L 3928 4134 
L 2272 4134 
L 2272 0 
L 1638 0 
L 1638 4134 
L -19 4134 
L -19 4666 
z
" id="DejaVuSans-54" transform="scale(0.015625)"/>
      <path d="M 603 4863 
L 1178 4863 
L 1178 0 
L 603 0 
L 603 4863 
z
" id="DejaVuSans-6c" transform="scale(0.015625)"/>
      <path d="M 3116 1747 
Q 3116 2381 2855 2742 
Q 2594 3103 2138 3103 
Q 1681 3103 1420 2742 
Q 1159 2381 1159 1747 
Q 1159 1113 1420 752 
Q 1681 391 2138 391 
Q 2594 391 2855 752 
Q 3116 1113 3116 1747 
z
M 1159 2969 
Q 1341 3281 1617 3432 
Q 1894 3584 2278 3584 
Q 2916 3584 3314 3078 
Q 3713 2572 3713 1747 
Q 3713 922 3314 415 
Q 2916 -91 2278 -91 
Q 1894 -91 1617 61 
Q 1341 213 1159 525 
L 1159 0 
L 581 0 
L 581 4863 
L 1159 4863 
L 1159 2969 
z
" id="DejaVuSans-62" transform="scale(0.015625)"/>
      <path d="M 3597 1894 
L 3597 1613 
L 953 1613 
Q 991 1019 1311 708 
Q 1631 397 2203 397 
Q 2534 397 2845 478 
Q 3156 559 3463 722 
L 3463 178 
Q 3153 47 2828 -22 
Q 2503 -91 2169 -91 
Q 1331 -91 842 396 
Q 353 884 353 1716 
Q 353 2575 817 3079 
Q 1281 3584 2069 3584 
Q 2775 3584 3186 3129 
Q 3597 2675 3597 1894 
z
M 3022 2063 
Q 3016 2534 2758 2815 
Q 2500 3097 2075 3097 
Q 1594 3097 1305 2825 
Q 1016 2553 972 2059 
L 3022 2063 
z
" id="DejaVuSans-65" transform="scale(0.015625)"/>
      <path d="M 2906 1791 
Q 2906 2416 2648 2759 
Q 2391 3103 1925 3103 
Q 1463 3103 1205 2759 
Q 947 2416 947 1791 
Q 947 1169 1205 825 
Q 1463 481 1925 481 
Q 2391 481 2648 825 
Q 2906 1169 2906 1791 
z
M 3481 434 
Q 3481 -459 3084 -895 
Q 2688 -1331 1869 -1331 
Q 1566 -1331 1297 -1286 
Q 1028 -1241 775 -1147 
L 775 -588 
Q 1028 -725 1275 -790 
Q 1522 -856 1778 -856 
Q 2344 -856 2625 -561 
Q 2906 -266 2906 331 
L 2906 616 
Q 2728 306 2450 153 
Q 2172 0 1784 0 
Q 1141 0 747 490 
Q 353 981 353 1791 
Q 353 2603 747 3093 
Q 1141 3584 1784 3584 
Q 2172 3584 2450 3431 
Q 2728 3278 2906 2969 
L 2906 3500 
L 3481 3500 
L 3481 434 
z
" id="DejaVuSans-67" transform="scale(0.015625)"/>
      <path d="M 2059 -325 
Q 1816 -950 1584 -1140 
Q 1353 -1331 966 -1331 
L 506 -1331 
L 506 -850 
L 844 -850 
Q 1081 -850 1212 -737 
Q 1344 -625 1503 -206 
L 1606 56 
L 191 3500 
L 800 3500 
L 1894 763 
L 2988 3500 
L 3597 3500 
L 2059 -325 
z
" id="DejaVuSans-79" transform="scale(0.015625)"/>
     </defs>
     <use xlink:href="#DejaVuSans-31"/>
     <use x="63.623047" xlink:href="#DejaVuSans-31"/>
     <use x="127.246094" xlink:href="#DejaVuSans-2d"/>
     <use x="163.330078" xlink:href="#DejaVuSans-61"/>
     <use x="224.609375" xlink:href="#DejaVuSans-70"/>
     <use x="288.085938" xlink:href="#DejaVuSans-72"/>
     <use x="329.199219" xlink:href="#DejaVuSans-32"/>
     <use x="392.822266" xlink:href="#DejaVuSans-30"/>
     <use x="456.445312" xlink:href="#DejaVuSans-31"/>
     <use x="520.068359" xlink:href="#DejaVuSans-35"/>
     <use x="583.691406" xlink:href="#DejaVuSans-2e"/>
     <use x="615.478516" xlink:href="#DejaVuSans-63"/>
     <use x="670.458984" xlink:href="#DejaVuSans-73"/>
     <use x="722.558594" xlink:href="#DejaVuSans-76"/>
     <use x="781.738281" xlink:href="#DejaVuSans-20"/>
     <use x="813.525391" xlink:href="#DejaVuSans-2d"/>
     <use x="849.609375" xlink:href="#DejaVuSans-20"/>
     <use x="881.396484" xlink:href="#DejaVuSans-54"/>
     <use x="925.480469" xlink:href="#DejaVuSans-6f"/>
     <use x="986.662109" xlink:href="#DejaVuSans-74"/>
     <use x="1025.871094" xlink:href="#DejaVuSans-61"/>
     <use x="1087.150391" xlink:href="#DejaVuSans-6c"/>
     <use x="1114.933594" xlink:href="#DejaVuSans-20"/>
     <use x="1146.720703" xlink:href="#DejaVuSans-6e"/>
     <use x="1210.099609" xlink:href="#DejaVuSans-75"/>
     <use x="1273.478516" xlink:href="#DejaVuSans-6d"/>
     <use x="1370.890625" xlink:href="#DejaVuSans-62"/>
     <use x="1434.367188" xlink:href="#DejaVuSans-65"/>
     <use x="1495.890625" xlink:href="#DejaVuSans-72"/>
     <use x="1537.003906" xlink:href="#DejaVuSans-20"/>
     <use x="1568.791016" xlink:href="#DejaVuSans-6f"/>
     <use x="1629.972656" xlink:href="#DejaVuSans-66"/>
     <use x="1665.177734" xlink:href="#DejaVuSans-20"/>
     <use x="1696.964844" xlink:href="#DejaVuSans-74"/>
     <use x="1736.173828" xlink:href="#DejaVuSans-72"/>
     <use x="1777.287109" xlink:href="#DejaVuSans-61"/>
     <use x="1838.566406" xlink:href="#DejaVuSans-6e"/>
     <use x="1901.945312" xlink:href="#DejaVuSans-73"/>
     <use x="1954.044922" xlink:href="#DejaVuSans-61"/>
     <use x="2015.324219" xlink:href="#DejaVuSans-63"/>
     <use x="2070.304688" xlink:href="#DejaVuSans-74"/>
     <use x="2109.513672" xlink:href="#DejaVuSans-69"/>
     <use x="2137.296875" xlink:href="#DejaVuSans-6f"/>
     <use x="2198.478516" xlink:href="#DejaVuSans-6e"/>
     <use x="2261.857422" xlink:href="#DejaVuSans-73"/>
     <use x="2313.957031" xlink:href="#DejaVuSans-20"/>
     <use x="2345.744141" xlink:href="#DejaVuSans-70"/>
     <use x="2409.220703" xlink:href="#DejaVuSans-65"/>
     <use x="2470.744141" xlink:href="#DejaVuSans-72"/>
     <use x="2511.857422" xlink:href="#DejaVuSans-20"/>
     <use x="2543.644531" xlink:href="#DejaVuSans-73"/>
     <use x="2595.744141" xlink:href="#DejaVuSans-68"/>
     <use x="2659.123047" xlink:href="#DejaVuSans-69"/>
     <use x="2686.90625" xlink:href="#DejaVuSans-70"/>
     <use x="2750.382812" xlink:href="#DejaVuSans-70"/>
     <use x="2813.859375" xlink:href="#DejaVuSans-69"/>
     <use x="2841.642578" xlink:href="#DejaVuSans-6e"/>
     <use x="2905.021484" xlink:href="#DejaVuSans-67"/>
     <use x="2968.498047" xlink:href="#DejaVuSans-20"/>
     <use x="3000.285156" xlink:href="#DejaVuSans-6c"/>
     <use x="3028.068359" xlink:href="#DejaVuSans-6f"/>
     <use x="3089.25" xlink:href="#DejaVuSans-63"/>
     <use x="3144.230469" xlink:href="#DejaVuSans-61"/>
     <use x="3205.509766" xlink:href="#DejaVuSans-6c"/>
     <use x="3233.292969" xlink:href="#DejaVuSans-69"/>
     <use x="3261.076172" xlink:href="#DejaVuSans-74"/>
     <use x="3300.285156" xlink:href="#DejaVuSans-79"/>
    </g>
   </g>
  </g>
 </g>
 <defs>
  <clipPath id="p3432f2abde">
   <rect height="887.04" width="1123.2" x="561.6" y="138.24"/>
  </clipPath>
 </defs>
</svg>
