<?xml version="1.0" encoding="utf-8" standalone="no"?>
<!DOCTYPE svg PUBLIC "-//W3C//DTD SVG 1.1//EN"
  "http://www.w3.org/Graphics/SVG/1.1/DTD/svg11.dtd">
<svg height="1152pt" version="1.1" viewBox="0 0 1872 1152" width="1872pt" xmlns="http://www.w3.org/2000/svg" xmlns:xlink="http://www.w3.org/1999/xlink">
 <metadata>
  <rdf:RDF xmlns:cc="http://creativecommons.org/ns#" xmlns:dc="http://purl.org/dc/elements/1.1/" xmlns:rdf="http://www.w3.org/1999/02/22-rdf-syntax-ns#">
   <cc:Work>
    <dc:type rdf:resource="http://purl.org/dc/dcmitype/StillImage"/>
    <dc:date>2021-08-29T20:24:08.554307</dc:date>
    <dc:format>image/svg+xml</dc:format>
    <dc:creator>
     <cc:Agent>
      <dc:title>Matplotlib v3.4.3, https://matplotlib.org/</dc:title>
     </cc:Agent>
    </dc:creator>
   </cc:Work>
  </rdf:RDF>
 </metadata>
 <defs>
  <style type="text/css">*{stroke-linecap:butt;stroke-linejoin:round;}</style>
 </defs>
 <g id="figure_1">
  <g id="patch_1">
   <path d="M 0 1152 
L 1872 1152 
L 1872 0 
L 0 0 
z
" style="fill:#ffffff;"/>
  </g>
  <g id="axes_1">
   <g id="patch_2">
    <path d="M 561.6 1025.28 
L 1684.8 1025.28 
L 1684.8 138.24 
L 561.6 138.24 
z
" style="fill:#eaeaf2;"/>
   </g>
   <g id="matplotlib.axis_1">
    <g id="xtick_1">
     <g id="text_1">
      <!-- transactions -->
      <g style="fill:#262626;" transform="translate(1089.266719 1043.138281)scale(0.11 -0.11)">
       <defs>
        <path d="M 1172 4494 
L 1172 3500 
L 2356 3500 
L 2356 3053 
L 1172 3053 
L 1172 1153 
Q 1172 725 1289 603 
Q 1406 481 1766 481 
L 2356 481 
L 2356 0 
L 1766 0 
Q 1100 0 847 248 
Q 594 497 594 1153 
L 594 3053 
L 172 3053 
L 172 3500 
L 594 3500 
L 594 4494 
L 1172 4494 
z
" id="DejaVuSans-74" transform="scale(0.015625)"/>
        <path d="M 2631 2963 
Q 2534 3019 2420 3045 
Q 2306 3072 2169 3072 
Q 1681 3072 1420 2755 
Q 1159 2438 1159 1844 
L 1159 0 
L 581 0 
L 581 3500 
L 1159 3500 
L 1159 2956 
Q 1341 3275 1631 3429 
Q 1922 3584 2338 3584 
Q 2397 3584 2469 3576 
Q 2541 3569 2628 3553 
L 2631 2963 
z
" id="DejaVuSans-72" transform="scale(0.015625)"/>
        <path d="M 2194 1759 
Q 1497 1759 1228 1600 
Q 959 1441 959 1056 
Q 959 750 1161 570 
Q 1363 391 1709 391 
Q 2188 391 2477 730 
Q 2766 1069 2766 1631 
L 2766 1759 
L 2194 1759 
z
M 3341 1997 
L 3341 0 
L 2766 0 
L 2766 531 
Q 2569 213 2275 61 
Q 1981 -91 1556 -91 
Q 1019 -91 701 211 
Q 384 513 384 1019 
Q 384 1609 779 1909 
Q 1175 2209 1959 2209 
L 2766 2209 
L 2766 2266 
Q 2766 2663 2505 2880 
Q 2244 3097 1772 3097 
Q 1472 3097 1187 3025 
Q 903 2953 641 2809 
L 641 3341 
Q 956 3463 1253 3523 
Q 1550 3584 1831 3584 
Q 2591 3584 2966 3190 
Q 3341 2797 3341 1997 
z
" id="DejaVuSans-61" transform="scale(0.015625)"/>
        <path d="M 3513 2113 
L 3513 0 
L 2938 0 
L 2938 2094 
Q 2938 2591 2744 2837 
Q 2550 3084 2163 3084 
Q 1697 3084 1428 2787 
Q 1159 2491 1159 1978 
L 1159 0 
L 581 0 
L 581 3500 
L 1159 3500 
L 1159 2956 
Q 1366 3272 1645 3428 
Q 1925 3584 2291 3584 
Q 2894 3584 3203 3211 
Q 3513 2838 3513 2113 
z
" id="DejaVuSans-6e" transform="scale(0.015625)"/>
        <path d="M 2834 3397 
L 2834 2853 
Q 2591 2978 2328 3040 
Q 2066 3103 1784 3103 
Q 1356 3103 1142 2972 
Q 928 2841 928 2578 
Q 928 2378 1081 2264 
Q 1234 2150 1697 2047 
L 1894 2003 
Q 2506 1872 2764 1633 
Q 3022 1394 3022 966 
Q 3022 478 2636 193 
Q 2250 -91 1575 -91 
Q 1294 -91 989 -36 
Q 684 19 347 128 
L 347 722 
Q 666 556 975 473 
Q 1284 391 1588 391 
Q 1994 391 2212 530 
Q 2431 669 2431 922 
Q 2431 1156 2273 1281 
Q 2116 1406 1581 1522 
L 1381 1569 
Q 847 1681 609 1914 
Q 372 2147 372 2553 
Q 372 3047 722 3315 
Q 1072 3584 1716 3584 
Q 2034 3584 2315 3537 
Q 2597 3491 2834 3397 
z
" id="DejaVuSans-73" transform="scale(0.015625)"/>
        <path d="M 3122 3366 
L 3122 2828 
Q 2878 2963 2633 3030 
Q 2388 3097 2138 3097 
Q 1578 3097 1268 2742 
Q 959 2388 959 1747 
Q 959 1106 1268 751 
Q 1578 397 2138 397 
Q 2388 397 2633 464 
Q 2878 531 3122 666 
L 3122 134 
Q 2881 22 2623 -34 
Q 2366 -91 2075 -91 
Q 1284 -91 818 406 
Q 353 903 353 1747 
Q 353 2603 823 3093 
Q 1294 3584 2113 3584 
Q 2378 3584 2631 3529 
Q 2884 3475 3122 3366 
z
" id="DejaVuSans-63" transform="scale(0.015625)"/>
        <path d="M 603 3500 
L 1178 3500 
L 1178 0 
L 603 0 
L 603 3500 
z
M 603 4863 
L 1178 4863 
L 1178 4134 
L 603 4134 
L 603 4863 
z
" id="DejaVuSans-69" transform="scale(0.015625)"/>
        <path d="M 1959 3097 
Q 1497 3097 1228 2736 
Q 959 2375 959 1747 
Q 959 1119 1226 758 
Q 1494 397 1959 397 
Q 2419 397 2687 759 
Q 2956 1122 2956 1747 
Q 2956 2369 2687 2733 
Q 2419 3097 1959 3097 
z
M 1959 3584 
Q 2709 3584 3137 3096 
Q 3566 2609 3566 1747 
Q 3566 888 3137 398 
Q 2709 -91 1959 -91 
Q 1206 -91 779 398 
Q 353 888 353 1747 
Q 353 2609 779 3096 
Q 1206 3584 1959 3584 
z
" id="DejaVuSans-6f" transform="scale(0.015625)"/>
       </defs>
       <use xlink:href="#DejaVuSans-74"/>
       <use x="39.208984" xlink:href="#DejaVuSans-72"/>
       <use x="80.322266" xlink:href="#DejaVuSans-61"/>
       <use x="141.601562" xlink:href="#DejaVuSans-6e"/>
       <use x="204.980469" xlink:href="#DejaVuSans-73"/>
       <use x="257.080078" xlink:href="#DejaVuSans-61"/>
       <use x="318.359375" xlink:href="#DejaVuSans-63"/>
       <use x="373.339844" xlink:href="#DejaVuSans-74"/>
       <use x="412.548828" xlink:href="#DejaVuSans-69"/>
       <use x="440.332031" xlink:href="#DejaVuSans-6f"/>
       <use x="501.513672" xlink:href="#DejaVuSans-6e"/>
       <use x="564.892578" xlink:href="#DejaVuSans-73"/>
      </g>
     </g>
    </g>
    <g id="text_2">
     <!-- ship_from -->
     <g style="fill:#262626;" transform="translate(1093.836563 1058.544063)scale(0.12 -0.12)">
      <defs>
       <path d="M 3513 2113 
L 3513 0 
L 2938 0 
L 2938 2094 
Q 2938 2591 2744 2837 
Q 2550 3084 2163 3084 
Q 1697 3084 1428 2787 
Q 1159 2491 1159 1978 
L 1159 0 
L 581 0 
L 581 4863 
L 1159 4863 
L 1159 2956 
Q 1366 3272 1645 3428 
Q 1925 3584 2291 3584 
Q 2894 3584 3203 3211 
Q 3513 2838 3513 2113 
z
" id="DejaVuSans-68" transform="scale(0.015625)"/>
       <path d="M 1159 525 
L 1159 -1331 
L 581 -1331 
L 581 3500 
L 1159 3500 
L 1159 2969 
Q 1341 3281 1617 3432 
Q 1894 3584 2278 3584 
Q 2916 3584 3314 3078 
Q 3713 2572 3713 1747 
Q 3713 922 3314 415 
Q 2916 -91 2278 -91 
Q 1894 -91 1617 61 
Q 1341 213 1159 525 
z
M 3116 1747 
Q 3116 2381 2855 2742 
Q 2594 3103 2138 3103 
Q 1681 3103 1420 2742 
Q 1159 2381 1159 1747 
Q 1159 1113 1420 752 
Q 1681 391 2138 391 
Q 2594 391 2855 752 
Q 3116 1113 3116 1747 
z
" id="DejaVuSans-70" transform="scale(0.015625)"/>
       <path d="M 3263 -1063 
L 3263 -1509 
L -63 -1509 
L -63 -1063 
L 3263 -1063 
z
" id="DejaVuSans-5f" transform="scale(0.015625)"/>
       <path d="M 2375 4863 
L 2375 4384 
L 1825 4384 
Q 1516 4384 1395 4259 
Q 1275 4134 1275 3809 
L 1275 3500 
L 2222 3500 
L 2222 3053 
L 1275 3053 
L 1275 0 
L 697 0 
L 697 3053 
L 147 3053 
L 147 3500 
L 697 3500 
L 697 3744 
Q 697 4328 969 4595 
Q 1241 4863 1831 4863 
L 2375 4863 
z
" id="DejaVuSans-66" transform="scale(0.015625)"/>
       <path d="M 3328 2828 
Q 3544 3216 3844 3400 
Q 4144 3584 4550 3584 
Q 5097 3584 5394 3201 
Q 5691 2819 5691 2113 
L 5691 0 
L 5113 0 
L 5113 2094 
Q 5113 2597 4934 2840 
Q 4756 3084 4391 3084 
Q 3944 3084 3684 2787 
Q 3425 2491 3425 1978 
L 3425 0 
L 2847 0 
L 2847 2094 
Q 2847 2600 2669 2842 
Q 2491 3084 2119 3084 
Q 1678 3084 1418 2786 
Q 1159 2488 1159 1978 
L 1159 0 
L 581 0 
L 581 3500 
L 1159 3500 
L 1159 2956 
Q 1356 3278 1631 3431 
Q 1906 3584 2284 3584 
Q 2666 3584 2933 3390 
Q 3200 3197 3328 2828 
z
" id="DejaVuSans-6d" transform="scale(0.015625)"/>
      </defs>
      <use xlink:href="#DejaVuSans-73"/>
      <use x="52.099609" xlink:href="#DejaVuSans-68"/>
      <use x="115.478516" xlink:href="#DejaVuSans-69"/>
      <use x="143.261719" xlink:href="#DejaVuSans-70"/>
      <use x="206.738281" xlink:href="#DejaVuSans-5f"/>
      <use x="256.738281" xlink:href="#DejaVuSans-66"/>
      <use x="291.943359" xlink:href="#DejaVuSans-72"/>
      <use x="330.806641" xlink:href="#DejaVuSans-6f"/>
      <use x="391.988281" xlink:href="#DejaVuSans-6d"/>
     </g>
    </g>
   </g>
   <g id="matplotlib.axis_2">
    <g id="ytick_1">
     <g id="line2d_1">
      <path clip-path="url(#p271d34ab3f)" d="M 561.6 923.314577 
L 1684.8 923.314577 
" style="fill:none;stroke:#ffffff;stroke-linecap:round;"/>
     </g>
     <g id="text_3">
      <!-- −50 -->
      <g style="fill:#262626;" transform="translate(528.884844 927.493718)scale(0.11 -0.11)">
       <defs>
        <path d="M 678 2272 
L 4684 2272 
L 4684 1741 
L 678 1741 
L 678 2272 
z
" id="DejaVuSans-2212" transform="scale(0.015625)"/>
        <path d="M 691 4666 
L 3169 4666 
L 3169 4134 
L 1269 4134 
L 1269 2991 
Q 1406 3038 1543 3061 
Q 1681 3084 1819 3084 
Q 2600 3084 3056 2656 
Q 3513 2228 3513 1497 
Q 3513 744 3044 326 
Q 2575 -91 1722 -91 
Q 1428 -91 1123 -41 
Q 819 9 494 109 
L 494 744 
Q 775 591 1075 516 
Q 1375 441 1709 441 
Q 2250 441 2565 725 
Q 2881 1009 2881 1497 
Q 2881 1984 2565 2268 
Q 2250 2553 1709 2553 
Q 1456 2553 1204 2497 
Q 953 2441 691 2322 
L 691 4666 
z
" id="DejaVuSans-35" transform="scale(0.015625)"/>
        <path d="M 2034 4250 
Q 1547 4250 1301 3770 
Q 1056 3291 1056 2328 
Q 1056 1369 1301 889 
Q 1547 409 2034 409 
Q 2525 409 2770 889 
Q 3016 1369 3016 2328 
Q 3016 3291 2770 3770 
Q 2525 4250 2034 4250 
z
M 2034 4750 
Q 2819 4750 3233 4129 
Q 3647 3509 3647 2328 
Q 3647 1150 3233 529 
Q 2819 -91 2034 -91 
Q 1250 -91 836 529 
Q 422 1150 422 2328 
Q 422 3509 836 4129 
Q 1250 4750 2034 4750 
z
" id="DejaVuSans-30" transform="scale(0.015625)"/>
       </defs>
       <use xlink:href="#DejaVuSans-2212"/>
       <use x="83.789062" xlink:href="#DejaVuSans-35"/>
       <use x="147.412109" xlink:href="#DejaVuSans-30"/>
      </g>
     </g>
    </g>
    <g id="ytick_2">
     <g id="line2d_2">
      <path clip-path="url(#p271d34ab3f)" d="M 561.6 799.562919 
L 1684.8 799.562919 
" style="fill:none;stroke:#ffffff;stroke-linecap:round;"/>
     </g>
     <g id="text_4">
      <!-- 0 -->
      <g style="fill:#262626;" transform="translate(545.10125 803.742059)scale(0.11 -0.11)">
       <use xlink:href="#DejaVuSans-30"/>
      </g>
     </g>
    </g>
    <g id="ytick_3">
     <g id="line2d_3">
      <path clip-path="url(#p271d34ab3f)" d="M 561.6 675.81126 
L 1684.8 675.81126 
" style="fill:none;stroke:#ffffff;stroke-linecap:round;"/>
     </g>
     <g id="text_5">
      <!-- 50 -->
      <g style="fill:#262626;" transform="translate(538.1025 679.990401)scale(0.11 -0.11)">
       <use xlink:href="#DejaVuSans-35"/>
       <use x="63.623047" xlink:href="#DejaVuSans-30"/>
      </g>
     </g>
    </g>
    <g id="ytick_4">
     <g id="line2d_4">
      <path clip-path="url(#p271d34ab3f)" d="M 561.6 552.059602 
L 1684.8 552.059602 
" style="fill:none;stroke:#ffffff;stroke-linecap:round;"/>
     </g>
     <g id="text_6">
      <!-- 100 -->
      <g style="fill:#262626;" transform="translate(531.10375 556.238743)scale(0.11 -0.11)">
       <defs>
        <path d="M 794 531 
L 1825 531 
L 1825 4091 
L 703 3866 
L 703 4441 
L 1819 4666 
L 2450 4666 
L 2450 531 
L 3481 531 
L 3481 0 
L 794 0 
L 794 531 
z
" id="DejaVuSans-31" transform="scale(0.015625)"/>
       </defs>
       <use xlink:href="#DejaVuSans-31"/>
       <use x="63.623047" xlink:href="#DejaVuSans-30"/>
       <use x="127.246094" xlink:href="#DejaVuSans-30"/>
      </g>
     </g>
    </g>
    <g id="ytick_5">
     <g id="line2d_5">
      <path clip-path="url(#p271d34ab3f)" d="M 561.6 428.307944 
L 1684.8 428.307944 
" style="fill:none;stroke:#ffffff;stroke-linecap:round;"/>
     </g>
     <g id="text_7">
      <!-- 150 -->
      <g style="fill:#262626;" transform="translate(531.10375 432.487084)scale(0.11 -0.11)">
       <use xlink:href="#DejaVuSans-31"/>
       <use x="63.623047" xlink:href="#DejaVuSans-35"/>
       <use x="127.246094" xlink:href="#DejaVuSans-30"/>
      </g>
     </g>
    </g>
    <g id="ytick_6">
     <g id="line2d_6">
      <path clip-path="url(#p271d34ab3f)" d="M 561.6 304.556285 
L 1684.8 304.556285 
" style="fill:none;stroke:#ffffff;stroke-linecap:round;"/>
     </g>
     <g id="text_8">
      <!-- 200 -->
      <g style="fill:#262626;" transform="translate(531.10375 308.735426)scale(0.11 -0.11)">
       <defs>
        <path d="M 1228 531 
L 3431 531 
L 3431 0 
L 469 0 
L 469 531 
Q 828 903 1448 1529 
Q 2069 2156 2228 2338 
Q 2531 2678 2651 2914 
Q 2772 3150 2772 3378 
Q 2772 3750 2511 3984 
Q 2250 4219 1831 4219 
Q 1534 4219 1204 4116 
Q 875 4013 500 3803 
L 500 4441 
Q 881 4594 1212 4672 
Q 1544 4750 1819 4750 
Q 2544 4750 2975 4387 
Q 3406 4025 3406 3419 
Q 3406 3131 3298 2873 
Q 3191 2616 2906 2266 
Q 2828 2175 2409 1742 
Q 1991 1309 1228 531 
z
" id="DejaVuSans-32" transform="scale(0.015625)"/>
       </defs>
       <use xlink:href="#DejaVuSans-32"/>
       <use x="63.623047" xlink:href="#DejaVuSans-30"/>
       <use x="127.246094" xlink:href="#DejaVuSans-30"/>
      </g>
     </g>
    </g>
    <g id="ytick_7">
     <g id="line2d_7">
      <path clip-path="url(#p271d34ab3f)" d="M 561.6 180.804627 
L 1684.8 180.804627 
" style="fill:none;stroke:#ffffff;stroke-linecap:round;"/>
     </g>
     <g id="text_9">
      <!-- 250 -->
      <g style="fill:#262626;" transform="translate(531.10375 184.983767)scale(0.11 -0.11)">
       <use xlink:href="#DejaVuSans-32"/>
       <use x="63.623047" xlink:href="#DejaVuSans-35"/>
       <use x="127.246094" xlink:href="#DejaVuSans-30"/>
      </g>
     </g>
    </g>
    <g id="text_10">
     <!-- count -->
     <g style="fill:#262626;" transform="translate(522.389219 598.6875)rotate(-90)scale(0.12 -0.12)">
      <defs>
       <path d="M 544 1381 
L 544 3500 
L 1119 3500 
L 1119 1403 
Q 1119 906 1312 657 
Q 1506 409 1894 409 
Q 2359 409 2629 706 
Q 2900 1003 2900 1516 
L 2900 3500 
L 3475 3500 
L 3475 0 
L 2900 0 
L 2900 538 
Q 2691 219 2414 64 
Q 2138 -91 1772 -91 
Q 1169 -91 856 284 
Q 544 659 544 1381 
z
M 1991 3584 
L 1991 3584 
z
" id="DejaVuSans-75" transform="scale(0.015625)"/>
      </defs>
      <use xlink:href="#DejaVuSans-63"/>
      <use x="54.980469" xlink:href="#DejaVuSans-6f"/>
      <use x="116.162109" xlink:href="#DejaVuSans-75"/>
      <use x="179.541016" xlink:href="#DejaVuSans-6e"/>
      <use x="242.919922" xlink:href="#DejaVuSans-74"/>
     </g>
    </g>
   </g>
   <g id="PolyCollection_1">
    <defs>
     <path d="M 1169.588279 -167.04 
L 1076.811721 -167.04 
L 1067.754382 -175.185455 
L 1057.417194 -183.330909 
L 1045.727695 -191.476364 
L 1032.632475 -199.621818 
L 1018.102159 -207.767273 
L 1002.136264 -215.912727 
L 984.767693 -224.058182 
L 966.066586 -232.203636 
L 946.143251 -240.349091 
L 925.14991 -248.494545 
L 903.28102 -256.64 
L 880.771987 -264.785455 
L 857.896128 -272.930909 
L 834.959866 -281.076364 
L 812.296175 -289.221818 
L 790.256456 -297.367273 
L 769.201053 -305.512727 
L 749.48877 -313.658182 
L 731.465801 -321.803636 
L 715.454531 -329.949091 
L 701.742723 -338.094545 
L 690.573601 -346.24 
L 682.137304 -354.385455 
L 676.564142 -362.530909 
L 673.92 -370.676364 
L 674.204113 -378.821818 
L 677.349349 -386.967273 
L 683.224973 -395.112727 
L 691.641751 -403.258182 
L 702.359139 -411.403636 
L 715.094184 -419.549091 
L 729.531697 -427.694545 
L 745.335193 -435.84 
L 762.158086 -443.985455 
L 779.65461 -452.130909 
L 797.490009 -460.276364 
L 815.349561 -468.421818 
L 832.946131 -476.567273 
L 850.025994 -484.712727 
L 866.372828 -492.858182 
L 881.80984 -501.003636 
L 896.200115 -509.149091 
L 909.445354 -517.294545 
L 921.483243 -525.44 
L 932.283757 -533.585455 
L 941.84472 -541.730909 
L 950.186959 -549.876364 
L 957.349389 -558.021818 
L 963.384311 -566.167273 
L 968.353187 -574.312727 
L 972.323088 -582.458182 
L 975.363923 -590.603636 
L 977.546533 -598.749091 
L 978.941625 -606.894545 
L 979.619484 -615.04 
L 979.650327 -623.185455 
L 979.10515 -631.330909 
L 978.056866 -639.476364 
L 976.581527 -647.621818 
L 974.759443 -655.767273 
L 972.676005 -663.912727 
L 970.422064 -672.058182 
L 968.093764 -680.203636 
L 965.791757 -688.349091 
L 963.619802 -696.494545 
L 961.682785 -704.64 
L 960.084249 -712.785455 
L 958.923563 -720.930909 
L 958.2929 -729.076364 
L 958.274182 -737.221818 
L 958.936204 -745.367273 
L 960.332081 -753.512727 
L 962.497208 -761.658182 
L 965.447831 -769.803636 
L 969.180339 -777.949091 
L 973.671316 -786.094545 
L 978.878354 -794.24 
L 984.741591 -802.385455 
L 991.185881 -810.530909 
L 998.123501 -818.676364 
L 1005.457237 -826.821818 
L 1013.083704 -834.967273 
L 1020.896747 -843.112727 
L 1028.790754 -851.258182 
L 1036.66375 -859.403636 
L 1044.420155 -867.549091 
L 1051.973101 -875.694545 
L 1059.24625 -883.84 
L 1066.175081 -891.985455 
L 1072.707633 -900.130909 
L 1078.804734 -908.276364 
L 1084.439759 -916.421818 
L 1089.597977 -924.567273 
L 1094.275562 -932.712727 
L 1098.478359 -940.858182 
L 1102.220475 -949.003636 
L 1105.522788 -957.149091 
L 1108.411435 -965.294545 
L 1110.916353 -973.44 
L 1135.483647 -973.44 
L 1135.483647 -973.44 
L 1137.988565 -965.294545 
L 1140.877212 -957.149091 
L 1144.179525 -949.003636 
L 1147.921641 -940.858182 
L 1152.124438 -932.712727 
L 1156.802023 -924.567273 
L 1161.960241 -916.421818 
L 1167.595266 -908.276364 
L 1173.692367 -900.130909 
L 1180.224919 -891.985455 
L 1187.15375 -883.84 
L 1194.426899 -875.694545 
L 1201.979845 -867.549091 
L 1209.73625 -859.403636 
L 1217.609246 -851.258182 
L 1225.503253 -843.112727 
L 1233.316296 -834.967273 
L 1240.942763 -826.821818 
L 1248.276499 -818.676364 
L 1255.214119 -810.530909 
L 1261.658409 -802.385455 
L 1267.521646 -794.24 
L 1272.728684 -786.094545 
L 1277.219661 -777.949091 
L 1280.952169 -769.803636 
L 1283.902792 -761.658182 
L 1286.067919 -753.512727 
L 1287.463796 -745.367273 
L 1288.125818 -737.221818 
L 1288.1071 -729.076364 
L 1287.476437 -720.930909 
L 1286.315751 -712.785455 
L 1284.717215 -704.64 
L 1282.780198 -696.494545 
L 1280.608243 -688.349091 
L 1278.306236 -680.203636 
L 1275.977936 -672.058182 
L 1273.723995 -663.912727 
L 1271.640557 -655.767273 
L 1269.818473 -647.621818 
L 1268.343134 -639.476364 
L 1267.29485 -631.330909 
L 1266.749673 -623.185455 
L 1266.780516 -615.04 
L 1267.458375 -606.894545 
L 1268.853467 -598.749091 
L 1271.036077 -590.603636 
L 1274.076912 -582.458182 
L 1278.046813 -574.312727 
L 1283.015689 -566.167273 
L 1289.050611 -558.021818 
L 1296.213041 -549.876364 
L 1304.55528 -541.730909 
L 1314.116243 -533.585455 
L 1324.916757 -525.44 
L 1336.954646 -517.294545 
L 1350.199885 -509.149091 
L 1364.59016 -501.003636 
L 1380.027172 -492.858182 
L 1396.374006 -484.712727 
L 1413.453869 -476.567273 
L 1431.050439 -468.421818 
L 1448.909991 -460.276364 
L 1466.74539 -452.130909 
L 1484.241914 -443.985455 
L 1501.064807 -435.84 
L 1516.868303 -427.694545 
L 1531.305816 -419.549091 
L 1544.040861 -411.403636 
L 1554.758249 -403.258182 
L 1563.175027 -395.112727 
L 1569.050651 -386.967273 
L 1572.195887 -378.821818 
L 1572.48 -370.676364 
L 1569.835858 -362.530909 
L 1564.262696 -354.385455 
L 1555.826399 -346.24 
L 1544.657277 -338.094545 
L 1530.945469 -329.949091 
L 1514.934199 -321.803636 
L 1496.91123 -313.658182 
L 1477.198947 -305.512727 
L 1456.143544 -297.367273 
L 1434.103825 -289.221818 
L 1411.440134 -281.076364 
L 1388.503872 -272.930909 
L 1365.628013 -264.785455 
L 1343.11898 -256.64 
L 1321.25009 -248.494545 
L 1300.256749 -240.349091 
L 1280.333414 -232.203636 
L 1261.632307 -224.058182 
L 1244.263736 -215.912727 
L 1228.297841 -207.767273 
L 1213.767525 -199.621818 
L 1200.672305 -191.476364 
L 1188.982806 -183.330909 
L 1178.645618 -175.185455 
L 1169.588279 -167.04 
z
" id="m19bf4487d8" style="stroke:#4c4c4c;stroke-width:1.5;"/>
    </defs>
    <g clip-path="url(#p271d34ab3f)">
     <use style="fill:#5875a4;stroke:#4c4c4c;stroke-width:1.5;" x="0" xlink:href="#m19bf4487d8" y="1152"/>
    </g>
   </g>
   <g id="line2d_8">
    <path clip-path="url(#p271d34ab3f)" d="M 1123.2 797.087886 
L 1123.2 366.432114 
" style="fill:none;stroke:#4c4c4c;stroke-linecap:round;stroke-width:1.5;"/>
   </g>
   <g id="line2d_9">
    <path clip-path="url(#p271d34ab3f)" d="M 1123.2 790.900303 
L 1123.2 570.622351 
" style="fill:none;stroke:#4c4c4c;stroke-linecap:round;stroke-width:4.5;"/>
   </g>
   <g id="patch_3">
    <path d="M 561.6 1025.28 
L 561.6 138.24 
" style="fill:none;stroke:#ffffff;stroke-linecap:square;stroke-linejoin:miter;stroke-width:1.25;"/>
   </g>
   <g id="patch_4">
    <path d="M 1684.8 1025.28 
L 1684.8 138.24 
" style="fill:none;stroke:#ffffff;stroke-linecap:square;stroke-linejoin:miter;stroke-width:1.25;"/>
   </g>
   <g id="patch_5">
    <path d="M 561.6 1025.28 
L 1684.8 1025.28 
" style="fill:none;stroke:#ffffff;stroke-linecap:square;stroke-linejoin:miter;stroke-width:1.25;"/>
   </g>
   <g id="patch_6">
    <path d="M 561.6 138.24 
L 1684.8 138.24 
" style="fill:none;stroke:#ffffff;stroke-linecap:square;stroke-linejoin:miter;stroke-width:1.25;"/>
   </g>
   <g id="PathCollection_1">
    <defs>
     <path d="M 0 1.5 
C 0.397805 1.5 0.77937 1.341951 1.06066 1.06066 
C 1.341951 0.77937 1.5 0.397805 1.5 0 
C 1.5 -0.397805 1.341951 -0.77937 1.06066 -1.06066 
C 0.77937 -1.341951 0.397805 -1.5 0 -1.5 
C -0.397805 -1.5 -0.77937 -1.341951 -1.06066 -1.06066 
C -1.341951 -0.77937 -1.5 -0.397805 -1.5 0 
C -1.5 0.397805 -1.341951 0.77937 -1.06066 1.06066 
C -0.77937 1.341951 -0.397805 1.5 0 1.5 
z
" id="m14f7bc3f71" style="stroke:#4c4c4c;"/>
    </defs>
    <g clip-path="url(#p271d34ab3f)">
     <use style="fill:#ffffff;stroke:#4c4c4c;" x="1123.2" xlink:href="#m14f7bc3f71" y="778.525137"/>
    </g>
   </g>
   <g id="text_11">
    <!-- 08-jan2015.csv - Total number of transactions per shipping locality -->
    <g style="fill:#262626;" transform="translate(922.440938 132.24)scale(0.12 -0.12)">
     <defs>
      <path d="M 2034 2216 
Q 1584 2216 1326 1975 
Q 1069 1734 1069 1313 
Q 1069 891 1326 650 
Q 1584 409 2034 409 
Q 2484 409 2743 651 
Q 3003 894 3003 1313 
Q 3003 1734 2745 1975 
Q 2488 2216 2034 2216 
z
M 1403 2484 
Q 997 2584 770 2862 
Q 544 3141 544 3541 
Q 544 4100 942 4425 
Q 1341 4750 2034 4750 
Q 2731 4750 3128 4425 
Q 3525 4100 3525 3541 
Q 3525 3141 3298 2862 
Q 3072 2584 2669 2484 
Q 3125 2378 3379 2068 
Q 3634 1759 3634 1313 
Q 3634 634 3220 271 
Q 2806 -91 2034 -91 
Q 1263 -91 848 271 
Q 434 634 434 1313 
Q 434 1759 690 2068 
Q 947 2378 1403 2484 
z
M 1172 3481 
Q 1172 3119 1398 2916 
Q 1625 2713 2034 2713 
Q 2441 2713 2670 2916 
Q 2900 3119 2900 3481 
Q 2900 3844 2670 4047 
Q 2441 4250 2034 4250 
Q 1625 4250 1398 4047 
Q 1172 3844 1172 3481 
z
" id="DejaVuSans-38" transform="scale(0.015625)"/>
      <path d="M 313 2009 
L 1997 2009 
L 1997 1497 
L 313 1497 
L 313 2009 
z
" id="DejaVuSans-2d" transform="scale(0.015625)"/>
      <path d="M 603 3500 
L 1178 3500 
L 1178 -63 
Q 1178 -731 923 -1031 
Q 669 -1331 103 -1331 
L -116 -1331 
L -116 -844 
L 38 -844 
Q 366 -844 484 -692 
Q 603 -541 603 -63 
L 603 3500 
z
M 603 4863 
L 1178 4863 
L 1178 4134 
L 603 4134 
L 603 4863 
z
" id="DejaVuSans-6a" transform="scale(0.015625)"/>
      <path d="M 684 794 
L 1344 794 
L 1344 0 
L 684 0 
L 684 794 
z
" id="DejaVuSans-2e" transform="scale(0.015625)"/>
      <path d="M 191 3500 
L 800 3500 
L 1894 563 
L 2988 3500 
L 3597 3500 
L 2284 0 
L 1503 0 
L 191 3500 
z
" id="DejaVuSans-76" transform="scale(0.015625)"/>
      <path id="DejaVuSans-20" transform="scale(0.015625)"/>
      <path d="M -19 4666 
L 3928 4666 
L 3928 4134 
L 2272 4134 
L 2272 0 
L 1638 0 
L 1638 4134 
L -19 4134 
L -19 4666 
z
" id="DejaVuSans-54" transform="scale(0.015625)"/>
      <path d="M 603 4863 
L 1178 4863 
L 1178 0 
L 603 0 
L 603 4863 
z
" id="DejaVuSans-6c" transform="scale(0.015625)"/>
      <path d="M 3116 1747 
Q 3116 2381 2855 2742 
Q 2594 3103 2138 3103 
Q 1681 3103 1420 2742 
Q 1159 2381 1159 1747 
Q 1159 1113 1420 752 
Q 1681 391 2138 391 
Q 2594 391 2855 752 
Q 3116 1113 3116 1747 
z
M 1159 2969 
Q 1341 3281 1617 3432 
Q 1894 3584 2278 3584 
Q 2916 3584 3314 3078 
Q 3713 2572 3713 1747 
Q 3713 922 3314 415 
Q 2916 -91 2278 -91 
Q 1894 -91 1617 61 
Q 1341 213 1159 525 
L 1159 0 
L 581 0 
L 581 4863 
L 1159 4863 
L 1159 2969 
z
" id="DejaVuSans-62" transform="scale(0.015625)"/>
      <path d="M 3597 1894 
L 3597 1613 
L 953 1613 
Q 991 1019 1311 708 
Q 1631 397 2203 397 
Q 2534 397 2845 478 
Q 3156 559 3463 722 
L 3463 178 
Q 3153 47 2828 -22 
Q 2503 -91 2169 -91 
Q 1331 -91 842 396 
Q 353 884 353 1716 
Q 353 2575 817 3079 
Q 1281 3584 2069 3584 
Q 2775 3584 3186 3129 
Q 3597 2675 3597 1894 
z
M 3022 2063 
Q 3016 2534 2758 2815 
Q 2500 3097 2075 3097 
Q 1594 3097 1305 2825 
Q 1016 2553 972 2059 
L 3022 2063 
z
" id="DejaVuSans-65" transform="scale(0.015625)"/>
      <path d="M 2906 1791 
Q 2906 2416 2648 2759 
Q 2391 3103 1925 3103 
Q 1463 3103 1205 2759 
Q 947 2416 947 1791 
Q 947 1169 1205 825 
Q 1463 481 1925 481 
Q 2391 481 2648 825 
Q 2906 1169 2906 1791 
z
M 3481 434 
Q 3481 -459 3084 -895 
Q 2688 -1331 1869 -1331 
Q 1566 -1331 1297 -1286 
Q 1028 -1241 775 -1147 
L 775 -588 
Q 1028 -725 1275 -790 
Q 1522 -856 1778 -856 
Q 2344 -856 2625 -561 
Q 2906 -266 2906 331 
L 2906 616 
Q 2728 306 2450 153 
Q 2172 0 1784 0 
Q 1141 0 747 490 
Q 353 981 353 1791 
Q 353 2603 747 3093 
Q 1141 3584 1784 3584 
Q 2172 3584 2450 3431 
Q 2728 3278 2906 2969 
L 2906 3500 
L 3481 3500 
L 3481 434 
z
" id="DejaVuSans-67" transform="scale(0.015625)"/>
      <path d="M 2059 -325 
Q 1816 -950 1584 -1140 
Q 1353 -1331 966 -1331 
L 506 -1331 
L 506 -850 
L 844 -850 
Q 1081 -850 1212 -737 
Q 1344 -625 1503 -206 
L 1606 56 
L 191 3500 
L 800 3500 
L 1894 763 
L 2988 3500 
L 3597 3500 
L 2059 -325 
z
" id="DejaVuSans-79" transform="scale(0.015625)"/>
     </defs>
     <use xlink:href="#DejaVuSans-30"/>
     <use x="63.623047" xlink:href="#DejaVuSans-38"/>
     <use x="127.246094" xlink:href="#DejaVuSans-2d"/>
     <use x="163.330078" xlink:href="#DejaVuSans-6a"/>
     <use x="191.113281" xlink:href="#DejaVuSans-61"/>
     <use x="252.392578" xlink:href="#DejaVuSans-6e"/>
     <use x="315.771484" xlink:href="#DejaVuSans-32"/>
     <use x="379.394531" xlink:href="#DejaVuSans-30"/>
     <use x="443.017578" xlink:href="#DejaVuSans-31"/>
     <use x="506.640625" xlink:href="#DejaVuSans-35"/>
     <use x="570.263672" xlink:href="#DejaVuSans-2e"/>
     <use x="602.050781" xlink:href="#DejaVuSans-63"/>
     <use x="657.03125" xlink:href="#DejaVuSans-73"/>
     <use x="709.130859" xlink:href="#DejaVuSans-76"/>
     <use x="768.310547" xlink:href="#DejaVuSans-20"/>
     <use x="800.097656" xlink:href="#DejaVuSans-2d"/>
     <use x="836.181641" xlink:href="#DejaVuSans-20"/>
     <use x="867.96875" xlink:href="#DejaVuSans-54"/>
     <use x="912.052734" xlink:href="#DejaVuSans-6f"/>
     <use x="973.234375" xlink:href="#DejaVuSans-74"/>
     <use x="1012.443359" xlink:href="#DejaVuSans-61"/>
     <use x="1073.722656" xlink:href="#DejaVuSans-6c"/>
     <use x="1101.505859" xlink:href="#DejaVuSans-20"/>
     <use x="1133.292969" xlink:href="#DejaVuSans-6e"/>
     <use x="1196.671875" xlink:href="#DejaVuSans-75"/>
     <use x="1260.050781" xlink:href="#DejaVuSans-6d"/>
     <use x="1357.462891" xlink:href="#DejaVuSans-62"/>
     <use x="1420.939453" xlink:href="#DejaVuSans-65"/>
     <use x="1482.462891" xlink:href="#DejaVuSans-72"/>
     <use x="1523.576172" xlink:href="#DejaVuSans-20"/>
     <use x="1555.363281" xlink:href="#DejaVuSans-6f"/>
     <use x="1616.544922" xlink:href="#DejaVuSans-66"/>
     <use x="1651.75" xlink:href="#DejaVuSans-20"/>
     <use x="1683.537109" xlink:href="#DejaVuSans-74"/>
     <use x="1722.746094" xlink:href="#DejaVuSans-72"/>
     <use x="1763.859375" xlink:href="#DejaVuSans-61"/>
     <use x="1825.138672" xlink:href="#DejaVuSans-6e"/>
     <use x="1888.517578" xlink:href="#DejaVuSans-73"/>
     <use x="1940.617188" xlink:href="#DejaVuSans-61"/>
     <use x="2001.896484" xlink:href="#DejaVuSans-63"/>
     <use x="2056.876953" xlink:href="#DejaVuSans-74"/>
     <use x="2096.085938" xlink:href="#DejaVuSans-69"/>
     <use x="2123.869141" xlink:href="#DejaVuSans-6f"/>
     <use x="2185.050781" xlink:href="#DejaVuSans-6e"/>
     <use x="2248.429688" xlink:href="#DejaVuSans-73"/>
     <use x="2300.529297" xlink:href="#DejaVuSans-20"/>
     <use x="2332.316406" xlink:href="#DejaVuSans-70"/>
     <use x="2395.792969" xlink:href="#DejaVuSans-65"/>
     <use x="2457.316406" xlink:href="#DejaVuSans-72"/>
     <use x="2498.429688" xlink:href="#DejaVuSans-20"/>
     <use x="2530.216797" xlink:href="#DejaVuSans-73"/>
     <use x="2582.316406" xlink:href="#DejaVuSans-68"/>
     <use x="2645.695312" xlink:href="#DejaVuSans-69"/>
     <use x="2673.478516" xlink:href="#DejaVuSans-70"/>
     <use x="2736.955078" xlink:href="#DejaVuSans-70"/>
     <use x="2800.431641" xlink:href="#DejaVuSans-69"/>
     <use x="2828.214844" xlink:href="#DejaVuSans-6e"/>
     <use x="2891.59375" xlink:href="#DejaVuSans-67"/>
     <use x="2955.070312" xlink:href="#DejaVuSans-20"/>
     <use x="2986.857422" xlink:href="#DejaVuSans-6c"/>
     <use x="3014.640625" xlink:href="#DejaVuSans-6f"/>
     <use x="3075.822266" xlink:href="#DejaVuSans-63"/>
     <use x="3130.802734" xlink:href="#DejaVuSans-61"/>
     <use x="3192.082031" xlink:href="#DejaVuSans-6c"/>
     <use x="3219.865234" xlink:href="#DejaVuSans-69"/>
     <use x="3247.648438" xlink:href="#DejaVuSans-74"/>
     <use x="3286.857422" xlink:href="#DejaVuSans-79"/>
    </g>
   </g>
  </g>
 </g>
 <defs>
  <clipPath id="p271d34ab3f">
   <rect height="887.04" width="1123.2" x="561.6" y="138.24"/>
  </clipPath>
 </defs>
</svg>
