<?xml version="1.0" encoding="utf-8" standalone="no"?>
<!DOCTYPE svg PUBLIC "-//W3C//DTD SVG 1.1//EN"
  "http://www.w3.org/Graphics/SVG/1.1/DTD/svg11.dtd">
<svg height="1152pt" version="1.1" viewBox="0 0 1872 1152" width="1872pt" xmlns="http://www.w3.org/2000/svg" xmlns:xlink="http://www.w3.org/1999/xlink">
 <metadata>
  <rdf:RDF xmlns:cc="http://creativecommons.org/ns#" xmlns:dc="http://purl.org/dc/elements/1.1/" xmlns:rdf="http://www.w3.org/1999/02/22-rdf-syntax-ns#">
   <cc:Work>
    <dc:type rdf:resource="http://purl.org/dc/dcmitype/StillImage"/>
    <dc:date>2021-08-29T20:36:12.092344</dc:date>
    <dc:format>image/svg+xml</dc:format>
    <dc:creator>
     <cc:Agent>
      <dc:title>Matplotlib v3.4.3, https://matplotlib.org/</dc:title>
     </cc:Agent>
    </dc:creator>
   </cc:Work>
  </rdf:RDF>
 </metadata>
 <defs>
  <style type="text/css">*{stroke-linecap:butt;stroke-linejoin:round;}</style>
 </defs>
 <g id="figure_1">
  <g id="patch_1">
   <path d="M 0 1152 
L 1872 1152 
L 1872 0 
L 0 0 
z
" style="fill:#ffffff;"/>
  </g>
  <g id="axes_1">
   <g id="patch_2">
    <path d="M 561.6 1025.28 
L 1684.8 1025.28 
L 1684.8 138.24 
L 561.6 138.24 
z
" style="fill:#eaeaf2;"/>
   </g>
   <g id="matplotlib.axis_1">
    <g id="xtick_1">
     <g id="text_1">
      <!-- transactions -->
      <g style="fill:#262626;" transform="translate(1089.266719 1043.138281)scale(0.11 -0.11)">
       <defs>
        <path d="M 1172 4494 
L 1172 3500 
L 2356 3500 
L 2356 3053 
L 1172 3053 
L 1172 1153 
Q 1172 725 1289 603 
Q 1406 481 1766 481 
L 2356 481 
L 2356 0 
L 1766 0 
Q 1100 0 847 248 
Q 594 497 594 1153 
L 594 3053 
L 172 3053 
L 172 3500 
L 594 3500 
L 594 4494 
L 1172 4494 
z
" id="DejaVuSans-74" transform="scale(0.015625)"/>
        <path d="M 2631 2963 
Q 2534 3019 2420 3045 
Q 2306 3072 2169 3072 
Q 1681 3072 1420 2755 
Q 1159 2438 1159 1844 
L 1159 0 
L 581 0 
L 581 3500 
L 1159 3500 
L 1159 2956 
Q 1341 3275 1631 3429 
Q 1922 3584 2338 3584 
Q 2397 3584 2469 3576 
Q 2541 3569 2628 3553 
L 2631 2963 
z
" id="DejaVuSans-72" transform="scale(0.015625)"/>
        <path d="M 2194 1759 
Q 1497 1759 1228 1600 
Q 959 1441 959 1056 
Q 959 750 1161 570 
Q 1363 391 1709 391 
Q 2188 391 2477 730 
Q 2766 1069 2766 1631 
L 2766 1759 
L 2194 1759 
z
M 3341 1997 
L 3341 0 
L 2766 0 
L 2766 531 
Q 2569 213 2275 61 
Q 1981 -91 1556 -91 
Q 1019 -91 701 211 
Q 384 513 384 1019 
Q 384 1609 779 1909 
Q 1175 2209 1959 2209 
L 2766 2209 
L 2766 2266 
Q 2766 2663 2505 2880 
Q 2244 3097 1772 3097 
Q 1472 3097 1187 3025 
Q 903 2953 641 2809 
L 641 3341 
Q 956 3463 1253 3523 
Q 1550 3584 1831 3584 
Q 2591 3584 2966 3190 
Q 3341 2797 3341 1997 
z
" id="DejaVuSans-61" transform="scale(0.015625)"/>
        <path d="M 3513 2113 
L 3513 0 
L 2938 0 
L 2938 2094 
Q 2938 2591 2744 2837 
Q 2550 3084 2163 3084 
Q 1697 3084 1428 2787 
Q 1159 2491 1159 1978 
L 1159 0 
L 581 0 
L 581 3500 
L 1159 3500 
L 1159 2956 
Q 1366 3272 1645 3428 
Q 1925 3584 2291 3584 
Q 2894 3584 3203 3211 
Q 3513 2838 3513 2113 
z
" id="DejaVuSans-6e" transform="scale(0.015625)"/>
        <path d="M 2834 3397 
L 2834 2853 
Q 2591 2978 2328 3040 
Q 2066 3103 1784 3103 
Q 1356 3103 1142 2972 
Q 928 2841 928 2578 
Q 928 2378 1081 2264 
Q 1234 2150 1697 2047 
L 1894 2003 
Q 2506 1872 2764 1633 
Q 3022 1394 3022 966 
Q 3022 478 2636 193 
Q 2250 -91 1575 -91 
Q 1294 -91 989 -36 
Q 684 19 347 128 
L 347 722 
Q 666 556 975 473 
Q 1284 391 1588 391 
Q 1994 391 2212 530 
Q 2431 669 2431 922 
Q 2431 1156 2273 1281 
Q 2116 1406 1581 1522 
L 1381 1569 
Q 847 1681 609 1914 
Q 372 2147 372 2553 
Q 372 3047 722 3315 
Q 1072 3584 1716 3584 
Q 2034 3584 2315 3537 
Q 2597 3491 2834 3397 
z
" id="DejaVuSans-73" transform="scale(0.015625)"/>
        <path d="M 3122 3366 
L 3122 2828 
Q 2878 2963 2633 3030 
Q 2388 3097 2138 3097 
Q 1578 3097 1268 2742 
Q 959 2388 959 1747 
Q 959 1106 1268 751 
Q 1578 397 2138 397 
Q 2388 397 2633 464 
Q 2878 531 3122 666 
L 3122 134 
Q 2881 22 2623 -34 
Q 2366 -91 2075 -91 
Q 1284 -91 818 406 
Q 353 903 353 1747 
Q 353 2603 823 3093 
Q 1294 3584 2113 3584 
Q 2378 3584 2631 3529 
Q 2884 3475 3122 3366 
z
" id="DejaVuSans-63" transform="scale(0.015625)"/>
        <path d="M 603 3500 
L 1178 3500 
L 1178 0 
L 603 0 
L 603 3500 
z
M 603 4863 
L 1178 4863 
L 1178 4134 
L 603 4134 
L 603 4863 
z
" id="DejaVuSans-69" transform="scale(0.015625)"/>
        <path d="M 1959 3097 
Q 1497 3097 1228 2736 
Q 959 2375 959 1747 
Q 959 1119 1226 758 
Q 1494 397 1959 397 
Q 2419 397 2687 759 
Q 2956 1122 2956 1747 
Q 2956 2369 2687 2733 
Q 2419 3097 1959 3097 
z
M 1959 3584 
Q 2709 3584 3137 3096 
Q 3566 2609 3566 1747 
Q 3566 888 3137 398 
Q 2709 -91 1959 -91 
Q 1206 -91 779 398 
Q 353 888 353 1747 
Q 353 2609 779 3096 
Q 1206 3584 1959 3584 
z
" id="DejaVuSans-6f" transform="scale(0.015625)"/>
       </defs>
       <use xlink:href="#DejaVuSans-74"/>
       <use x="39.208984" xlink:href="#DejaVuSans-72"/>
       <use x="80.322266" xlink:href="#DejaVuSans-61"/>
       <use x="141.601562" xlink:href="#DejaVuSans-6e"/>
       <use x="204.980469" xlink:href="#DejaVuSans-73"/>
       <use x="257.080078" xlink:href="#DejaVuSans-61"/>
       <use x="318.359375" xlink:href="#DejaVuSans-63"/>
       <use x="373.339844" xlink:href="#DejaVuSans-74"/>
       <use x="412.548828" xlink:href="#DejaVuSans-69"/>
       <use x="440.332031" xlink:href="#DejaVuSans-6f"/>
       <use x="501.513672" xlink:href="#DejaVuSans-6e"/>
       <use x="564.892578" xlink:href="#DejaVuSans-73"/>
      </g>
     </g>
    </g>
    <g id="text_2">
     <!-- ship_from -->
     <g style="fill:#262626;" transform="translate(1093.836563 1058.544063)scale(0.12 -0.12)">
      <defs>
       <path d="M 3513 2113 
L 3513 0 
L 2938 0 
L 2938 2094 
Q 2938 2591 2744 2837 
Q 2550 3084 2163 3084 
Q 1697 3084 1428 2787 
Q 1159 2491 1159 1978 
L 1159 0 
L 581 0 
L 581 4863 
L 1159 4863 
L 1159 2956 
Q 1366 3272 1645 3428 
Q 1925 3584 2291 3584 
Q 2894 3584 3203 3211 
Q 3513 2838 3513 2113 
z
" id="DejaVuSans-68" transform="scale(0.015625)"/>
       <path d="M 1159 525 
L 1159 -1331 
L 581 -1331 
L 581 3500 
L 1159 3500 
L 1159 2969 
Q 1341 3281 1617 3432 
Q 1894 3584 2278 3584 
Q 2916 3584 3314 3078 
Q 3713 2572 3713 1747 
Q 3713 922 3314 415 
Q 2916 -91 2278 -91 
Q 1894 -91 1617 61 
Q 1341 213 1159 525 
z
M 3116 1747 
Q 3116 2381 2855 2742 
Q 2594 3103 2138 3103 
Q 1681 3103 1420 2742 
Q 1159 2381 1159 1747 
Q 1159 1113 1420 752 
Q 1681 391 2138 391 
Q 2594 391 2855 752 
Q 3116 1113 3116 1747 
z
" id="DejaVuSans-70" transform="scale(0.015625)"/>
       <path d="M 3263 -1063 
L 3263 -1509 
L -63 -1509 
L -63 -1063 
L 3263 -1063 
z
" id="DejaVuSans-5f" transform="scale(0.015625)"/>
       <path d="M 2375 4863 
L 2375 4384 
L 1825 4384 
Q 1516 4384 1395 4259 
Q 1275 4134 1275 3809 
L 1275 3500 
L 2222 3500 
L 2222 3053 
L 1275 3053 
L 1275 0 
L 697 0 
L 697 3053 
L 147 3053 
L 147 3500 
L 697 3500 
L 697 3744 
Q 697 4328 969 4595 
Q 1241 4863 1831 4863 
L 2375 4863 
z
" id="DejaVuSans-66" transform="scale(0.015625)"/>
       <path d="M 3328 2828 
Q 3544 3216 3844 3400 
Q 4144 3584 4550 3584 
Q 5097 3584 5394 3201 
Q 5691 2819 5691 2113 
L 5691 0 
L 5113 0 
L 5113 2094 
Q 5113 2597 4934 2840 
Q 4756 3084 4391 3084 
Q 3944 3084 3684 2787 
Q 3425 2491 3425 1978 
L 3425 0 
L 2847 0 
L 2847 2094 
Q 2847 2600 2669 2842 
Q 2491 3084 2119 3084 
Q 1678 3084 1418 2786 
Q 1159 2488 1159 1978 
L 1159 0 
L 581 0 
L 581 3500 
L 1159 3500 
L 1159 2956 
Q 1356 3278 1631 3431 
Q 1906 3584 2284 3584 
Q 2666 3584 2933 3390 
Q 3200 3197 3328 2828 
z
" id="DejaVuSans-6d" transform="scale(0.015625)"/>
      </defs>
      <use xlink:href="#DejaVuSans-73"/>
      <use x="52.099609" xlink:href="#DejaVuSans-68"/>
      <use x="115.478516" xlink:href="#DejaVuSans-69"/>
      <use x="143.261719" xlink:href="#DejaVuSans-70"/>
      <use x="206.738281" xlink:href="#DejaVuSans-5f"/>
      <use x="256.738281" xlink:href="#DejaVuSans-66"/>
      <use x="291.943359" xlink:href="#DejaVuSans-72"/>
      <use x="330.806641" xlink:href="#DejaVuSans-6f"/>
      <use x="391.988281" xlink:href="#DejaVuSans-6d"/>
     </g>
    </g>
   </g>
   <g id="matplotlib.axis_2">
    <g id="ytick_1">
     <g id="line2d_1">
      <path clip-path="url(#p02d114777f)" d="M 561.6 938.011632 
L 1684.8 938.011632 
" style="fill:none;stroke:#ffffff;stroke-linecap:round;"/>
     </g>
     <g id="text_3">
      <!-- −50 -->
      <g style="fill:#262626;" transform="translate(528.884844 942.190772)scale(0.11 -0.11)">
       <defs>
        <path d="M 678 2272 
L 4684 2272 
L 4684 1741 
L 678 1741 
L 678 2272 
z
" id="DejaVuSans-2212" transform="scale(0.015625)"/>
        <path d="M 691 4666 
L 3169 4666 
L 3169 4134 
L 1269 4134 
L 1269 2991 
Q 1406 3038 1543 3061 
Q 1681 3084 1819 3084 
Q 2600 3084 3056 2656 
Q 3513 2228 3513 1497 
Q 3513 744 3044 326 
Q 2575 -91 1722 -91 
Q 1428 -91 1123 -41 
Q 819 9 494 109 
L 494 744 
Q 775 591 1075 516 
Q 1375 441 1709 441 
Q 2250 441 2565 725 
Q 2881 1009 2881 1497 
Q 2881 1984 2565 2268 
Q 2250 2553 1709 2553 
Q 1456 2553 1204 2497 
Q 953 2441 691 2322 
L 691 4666 
z
" id="DejaVuSans-35" transform="scale(0.015625)"/>
        <path d="M 2034 4250 
Q 1547 4250 1301 3770 
Q 1056 3291 1056 2328 
Q 1056 1369 1301 889 
Q 1547 409 2034 409 
Q 2525 409 2770 889 
Q 3016 1369 3016 2328 
Q 3016 3291 2770 3770 
Q 2525 4250 2034 4250 
z
M 2034 4750 
Q 2819 4750 3233 4129 
Q 3647 3509 3647 2328 
Q 3647 1150 3233 529 
Q 2819 -91 2034 -91 
Q 1250 -91 836 529 
Q 422 1150 422 2328 
Q 422 3509 836 4129 
Q 1250 4750 2034 4750 
z
" id="DejaVuSans-30" transform="scale(0.015625)"/>
       </defs>
       <use xlink:href="#DejaVuSans-2212"/>
       <use x="83.789062" xlink:href="#DejaVuSans-35"/>
       <use x="147.412109" xlink:href="#DejaVuSans-30"/>
      </g>
     </g>
    </g>
    <g id="ytick_2">
     <g id="line2d_2">
      <path clip-path="url(#p02d114777f)" d="M 561.6 817.656351 
L 1684.8 817.656351 
" style="fill:none;stroke:#ffffff;stroke-linecap:round;"/>
     </g>
     <g id="text_4">
      <!-- 0 -->
      <g style="fill:#262626;" transform="translate(545.10125 821.835491)scale(0.11 -0.11)">
       <use xlink:href="#DejaVuSans-30"/>
      </g>
     </g>
    </g>
    <g id="ytick_3">
     <g id="line2d_3">
      <path clip-path="url(#p02d114777f)" d="M 561.6 697.30107 
L 1684.8 697.30107 
" style="fill:none;stroke:#ffffff;stroke-linecap:round;"/>
     </g>
     <g id="text_5">
      <!-- 50 -->
      <g style="fill:#262626;" transform="translate(538.1025 701.48021)scale(0.11 -0.11)">
       <use xlink:href="#DejaVuSans-35"/>
       <use x="63.623047" xlink:href="#DejaVuSans-30"/>
      </g>
     </g>
    </g>
    <g id="ytick_4">
     <g id="line2d_4">
      <path clip-path="url(#p02d114777f)" d="M 561.6 576.945789 
L 1684.8 576.945789 
" style="fill:none;stroke:#ffffff;stroke-linecap:round;"/>
     </g>
     <g id="text_6">
      <!-- 100 -->
      <g style="fill:#262626;" transform="translate(531.10375 581.124929)scale(0.11 -0.11)">
       <defs>
        <path d="M 794 531 
L 1825 531 
L 1825 4091 
L 703 3866 
L 703 4441 
L 1819 4666 
L 2450 4666 
L 2450 531 
L 3481 531 
L 3481 0 
L 794 0 
L 794 531 
z
" id="DejaVuSans-31" transform="scale(0.015625)"/>
       </defs>
       <use xlink:href="#DejaVuSans-31"/>
       <use x="63.623047" xlink:href="#DejaVuSans-30"/>
       <use x="127.246094" xlink:href="#DejaVuSans-30"/>
      </g>
     </g>
    </g>
    <g id="ytick_5">
     <g id="line2d_5">
      <path clip-path="url(#p02d114777f)" d="M 561.6 456.590508 
L 1684.8 456.590508 
" style="fill:none;stroke:#ffffff;stroke-linecap:round;"/>
     </g>
     <g id="text_7">
      <!-- 150 -->
      <g style="fill:#262626;" transform="translate(531.10375 460.769648)scale(0.11 -0.11)">
       <use xlink:href="#DejaVuSans-31"/>
       <use x="63.623047" xlink:href="#DejaVuSans-35"/>
       <use x="127.246094" xlink:href="#DejaVuSans-30"/>
      </g>
     </g>
    </g>
    <g id="ytick_6">
     <g id="line2d_6">
      <path clip-path="url(#p02d114777f)" d="M 561.6 336.235227 
L 1684.8 336.235227 
" style="fill:none;stroke:#ffffff;stroke-linecap:round;"/>
     </g>
     <g id="text_8">
      <!-- 200 -->
      <g style="fill:#262626;" transform="translate(531.10375 340.414367)scale(0.11 -0.11)">
       <defs>
        <path d="M 1228 531 
L 3431 531 
L 3431 0 
L 469 0 
L 469 531 
Q 828 903 1448 1529 
Q 2069 2156 2228 2338 
Q 2531 2678 2651 2914 
Q 2772 3150 2772 3378 
Q 2772 3750 2511 3984 
Q 2250 4219 1831 4219 
Q 1534 4219 1204 4116 
Q 875 4013 500 3803 
L 500 4441 
Q 881 4594 1212 4672 
Q 1544 4750 1819 4750 
Q 2544 4750 2975 4387 
Q 3406 4025 3406 3419 
Q 3406 3131 3298 2873 
Q 3191 2616 2906 2266 
Q 2828 2175 2409 1742 
Q 1991 1309 1228 531 
z
" id="DejaVuSans-32" transform="scale(0.015625)"/>
       </defs>
       <use xlink:href="#DejaVuSans-32"/>
       <use x="63.623047" xlink:href="#DejaVuSans-30"/>
       <use x="127.246094" xlink:href="#DejaVuSans-30"/>
      </g>
     </g>
    </g>
    <g id="ytick_7">
     <g id="line2d_7">
      <path clip-path="url(#p02d114777f)" d="M 561.6 215.879946 
L 1684.8 215.879946 
" style="fill:none;stroke:#ffffff;stroke-linecap:round;"/>
     </g>
     <g id="text_9">
      <!-- 250 -->
      <g style="fill:#262626;" transform="translate(531.10375 220.059086)scale(0.11 -0.11)">
       <use xlink:href="#DejaVuSans-32"/>
       <use x="63.623047" xlink:href="#DejaVuSans-35"/>
       <use x="127.246094" xlink:href="#DejaVuSans-30"/>
      </g>
     </g>
    </g>
    <g id="text_10">
     <!-- count -->
     <g style="fill:#262626;" transform="translate(522.389219 598.6875)rotate(-90)scale(0.12 -0.12)">
      <defs>
       <path d="M 544 1381 
L 544 3500 
L 1119 3500 
L 1119 1403 
Q 1119 906 1312 657 
Q 1506 409 1894 409 
Q 2359 409 2629 706 
Q 2900 1003 2900 1516 
L 2900 3500 
L 3475 3500 
L 3475 0 
L 2900 0 
L 2900 538 
Q 2691 219 2414 64 
Q 2138 -91 1772 -91 
Q 1169 -91 856 284 
Q 544 659 544 1381 
z
M 1991 3584 
L 1991 3584 
z
" id="DejaVuSans-75" transform="scale(0.015625)"/>
      </defs>
      <use xlink:href="#DejaVuSans-63"/>
      <use x="54.980469" xlink:href="#DejaVuSans-6f"/>
      <use x="116.162109" xlink:href="#DejaVuSans-75"/>
      <use x="179.541016" xlink:href="#DejaVuSans-6e"/>
      <use x="242.919922" xlink:href="#DejaVuSans-74"/>
     </g>
    </g>
   </g>
   <g id="PolyCollection_1">
    <defs>
     <path d="M 1164.764676 -167.04 
L 1081.635324 -167.04 
L 1072.725337 -175.185455 
L 1062.425432 -183.330909 
L 1050.64371 -191.476364 
L 1037.310705 -199.621818 
L 1022.386036 -207.767273 
L 1005.8649 -215.912727 
L 987.784022 -224.058182 
L 968.226627 -232.203636 
L 947.326011 -240.349091 
L 925.267285 -248.494545 
L 902.286961 -256.64 
L 878.670106 -264.785455 
L 854.74493 -272.930909 
L 830.874824 -281.076364 
L 807.448037 -289.221818 
L 784.865316 -297.367273 
L 763.526042 -305.512727 
L 743.813511 -313.658182 
L 726.080093 -321.803636 
L 710.633108 -329.949091 
L 697.722206 -338.094545 
L 687.529024 -346.24 
L 680.159757 -354.385455 
L 675.641121 -362.530909 
L 673.92 -370.676364 
L 674.866812 -378.821818 
L 678.282423 -386.967273 
L 683.908205 -395.112727 
L 691.438625 -403.258182 
L 700.535633 -411.403636 
L 710.843975 -419.549091 
L 722.006573 -427.694545 
L 733.679095 -435.84 
L 745.542949 -443.985455 
L 757.316077 -452.130909 
L 768.761073 -460.276364 
L 779.690378 -468.421818 
L 789.968489 -476.567273 
L 799.511308 -484.712727 
L 808.282958 -492.858182 
L 816.290496 -501.003636 
L 823.57706 -509.149091 
L 830.214041 -517.294545 
L 836.292852 -525.44 
L 841.916852 -533.585455 
L 847.193879 -541.730909 
L 852.22976 -549.876364 
L 857.12305 -558.021818 
L 861.961124 -566.167273 
L 866.817638 -574.312727 
L 871.751276 -582.458182 
L 876.805618 -590.603636 
L 882.009913 -598.749091 
L 887.380514 -606.894545 
L 892.922733 -615.04 
L 898.632888 -623.185455 
L 904.500357 -631.330909 
L 910.509485 -639.476364 
L 916.641269 -647.621818 
L 922.874749 -655.767273 
L 929.188134 -663.912727 
L 935.559654 -672.058182 
L 941.968216 -680.203636 
L 948.39389 -688.349091 
L 954.818294 -696.494545 
L 961.224904 -704.64 
L 967.599305 -712.785455 
L 973.929395 -720.930909 
L 980.205529 -729.076364 
L 986.420564 -737.221818 
L 992.569796 -745.367273 
L 998.65075 -753.512727 
L 1004.662826 -761.658182 
L 1010.606781 -769.803636 
L 1016.484087 -777.949091 
L 1022.296188 -786.094545 
L 1028.04371 -794.24 
L 1033.725702 -802.385455 
L 1039.338946 -810.530909 
L 1044.877428 -818.676364 
L 1050.332001 -826.821818 
L 1055.690289 -834.967273 
L 1060.936845 -843.112727 
L 1066.053557 -851.258182 
L 1071.020278 -859.403636 
L 1075.815629 -867.549091 
L 1080.417929 -875.694545 
L 1084.806173 -883.84 
L 1088.960991 -891.985455 
L 1092.865531 -900.130909 
L 1096.506202 -908.276364 
L 1099.873239 -916.421818 
L 1102.961062 -924.567273 
L 1105.768418 -932.712727 
L 1108.298317 -940.858182 
L 1110.557776 -949.003636 
L 1112.557403 -957.149091 
L 1114.310859 -965.294545 
L 1115.834249 -973.44 
L 1130.565751 -973.44 
L 1130.565751 -973.44 
L 1132.089141 -965.294545 
L 1133.842597 -957.149091 
L 1135.842224 -949.003636 
L 1138.101683 -940.858182 
L 1140.631582 -932.712727 
L 1143.438938 -924.567273 
L 1146.526761 -916.421818 
L 1149.893798 -908.276364 
L 1153.534469 -900.130909 
L 1157.439009 -891.985455 
L 1161.593827 -883.84 
L 1165.982071 -875.694545 
L 1170.584371 -867.549091 
L 1175.379722 -859.403636 
L 1180.346443 -851.258182 
L 1185.463155 -843.112727 
L 1190.709711 -834.967273 
L 1196.067999 -826.821818 
L 1201.522572 -818.676364 
L 1207.061054 -810.530909 
L 1212.674298 -802.385455 
L 1218.35629 -794.24 
L 1224.103812 -786.094545 
L 1229.915913 -777.949091 
L 1235.793219 -769.803636 
L 1241.737174 -761.658182 
L 1247.74925 -753.512727 
L 1253.830204 -745.367273 
L 1259.979436 -737.221818 
L 1266.194471 -729.076364 
L 1272.470605 -720.930909 
L 1278.800695 -712.785455 
L 1285.175096 -704.64 
L 1291.581706 -696.494545 
L 1298.00611 -688.349091 
L 1304.431784 -680.203636 
L 1310.840346 -672.058182 
L 1317.211866 -663.912727 
L 1323.525251 -655.767273 
L 1329.758731 -647.621818 
L 1335.890515 -639.476364 
L 1341.899643 -631.330909 
L 1347.767112 -623.185455 
L 1353.477267 -615.04 
L 1359.019486 -606.894545 
L 1364.390087 -598.749091 
L 1369.594382 -590.603636 
L 1374.648724 -582.458182 
L 1379.582362 -574.312727 
L 1384.438876 -566.167273 
L 1389.27695 -558.021818 
L 1394.17024 -549.876364 
L 1399.206121 -541.730909 
L 1404.483148 -533.585455 
L 1410.107148 -525.44 
L 1416.185959 -517.294545 
L 1422.82294 -509.149091 
L 1430.109504 -501.003636 
L 1438.117042 -492.858182 
L 1446.888692 -484.712727 
L 1456.431511 -476.567273 
L 1466.709622 -468.421818 
L 1477.638927 -460.276364 
L 1489.083923 -452.130909 
L 1500.857051 -443.985455 
L 1512.720905 -435.84 
L 1524.393427 -427.694545 
L 1535.556025 -419.549091 
L 1545.864367 -411.403636 
L 1554.961375 -403.258182 
L 1562.491795 -395.112727 
L 1568.117577 -386.967273 
L 1571.533188 -378.821818 
L 1572.48 -370.676364 
L 1570.758879 -362.530909 
L 1566.240243 -354.385455 
L 1558.870976 -346.24 
L 1548.677794 -338.094545 
L 1535.766892 -329.949091 
L 1520.319907 -321.803636 
L 1502.586489 -313.658182 
L 1482.873958 -305.512727 
L 1461.534684 -297.367273 
L 1438.951963 -289.221818 
L 1415.525176 -281.076364 
L 1391.65507 -272.930909 
L 1367.729894 -264.785455 
L 1344.113039 -256.64 
L 1321.132715 -248.494545 
L 1299.073989 -240.349091 
L 1278.173373 -232.203636 
L 1258.615978 -224.058182 
L 1240.5351 -215.912727 
L 1224.013964 -207.767273 
L 1209.089295 -199.621818 
L 1195.75629 -191.476364 
L 1183.974568 -183.330909 
L 1173.674663 -175.185455 
L 1164.764676 -167.04 
z
" id="m8831d9a58e" style="stroke:#4c4c4c;stroke-width:1.5;"/>
    </defs>
    <g clip-path="url(#p02d114777f)">
     <use style="fill:#5875a4;stroke:#4c4c4c;stroke-width:1.5;" x="0" xlink:href="#m8831d9a58e" y="1152"/>
    </g>
   </g>
   <g id="line2d_8">
    <path clip-path="url(#p02d114777f)" d="M 1123.2 810.435034 
L 1123.2 353.084966 
" style="fill:none;stroke:#4c4c4c;stroke-linecap:round;stroke-width:1.5;"/>
   </g>
   <g id="line2d_9">
    <path clip-path="url(#p02d114777f)" d="M 1123.2 802.010164 
L 1123.2 587.777764 
" style="fill:none;stroke:#4c4c4c;stroke-linecap:round;stroke-width:4.5;"/>
   </g>
   <g id="patch_3">
    <path d="M 561.6 1025.28 
L 561.6 138.24 
" style="fill:none;stroke:#ffffff;stroke-linecap:square;stroke-linejoin:miter;stroke-width:1.25;"/>
   </g>
   <g id="patch_4">
    <path d="M 1684.8 1025.28 
L 1684.8 138.24 
" style="fill:none;stroke:#ffffff;stroke-linecap:square;stroke-linejoin:miter;stroke-width:1.25;"/>
   </g>
   <g id="patch_5">
    <path d="M 561.6 1025.28 
L 1684.8 1025.28 
" style="fill:none;stroke:#ffffff;stroke-linecap:square;stroke-linejoin:miter;stroke-width:1.25;"/>
   </g>
   <g id="patch_6">
    <path d="M 561.6 138.24 
L 1684.8 138.24 
" style="fill:none;stroke:#ffffff;stroke-linecap:square;stroke-linejoin:miter;stroke-width:1.25;"/>
   </g>
   <g id="PathCollection_1">
    <defs>
     <path d="M 0 1.5 
C 0.397805 1.5 0.77937 1.341951 1.06066 1.06066 
C 1.341951 0.77937 1.5 0.397805 1.5 0 
C 1.5 -0.397805 1.341951 -0.77937 1.06066 -1.06066 
C 0.77937 -1.341951 0.397805 -1.5 0 -1.5 
C -0.397805 -1.5 -0.77937 -1.341951 -1.06066 -1.06066 
C -1.341951 -0.77937 -1.5 -0.397805 -1.5 0 
C -1.5 0.397805 -1.341951 0.77937 -1.06066 1.06066 
C -0.77937 1.341951 -0.397805 1.5 0 1.5 
z
" id="mcd134c7531" style="stroke:#4c4c4c;"/>
    </defs>
    <g clip-path="url(#p02d114777f)">
     <use style="fill:#ffffff;stroke:#4c4c4c;" x="1123.2" xlink:href="#mcd134c7531" y="764.700027"/>
    </g>
   </g>
   <g id="text_11">
    <!-- 09-feb2015.csv - Total number of transactions per shipping locality -->
    <g style="fill:#262626;" transform="translate(921.974063 132.24)scale(0.12 -0.12)">
     <defs>
      <path d="M 703 97 
L 703 672 
Q 941 559 1184 500 
Q 1428 441 1663 441 
Q 2288 441 2617 861 
Q 2947 1281 2994 2138 
Q 2813 1869 2534 1725 
Q 2256 1581 1919 1581 
Q 1219 1581 811 2004 
Q 403 2428 403 3163 
Q 403 3881 828 4315 
Q 1253 4750 1959 4750 
Q 2769 4750 3195 4129 
Q 3622 3509 3622 2328 
Q 3622 1225 3098 567 
Q 2575 -91 1691 -91 
Q 1453 -91 1209 -44 
Q 966 3 703 97 
z
M 1959 2075 
Q 2384 2075 2632 2365 
Q 2881 2656 2881 3163 
Q 2881 3666 2632 3958 
Q 2384 4250 1959 4250 
Q 1534 4250 1286 3958 
Q 1038 3666 1038 3163 
Q 1038 2656 1286 2365 
Q 1534 2075 1959 2075 
z
" id="DejaVuSans-39" transform="scale(0.015625)"/>
      <path d="M 313 2009 
L 1997 2009 
L 1997 1497 
L 313 1497 
L 313 2009 
z
" id="DejaVuSans-2d" transform="scale(0.015625)"/>
      <path d="M 3597 1894 
L 3597 1613 
L 953 1613 
Q 991 1019 1311 708 
Q 1631 397 2203 397 
Q 2534 397 2845 478 
Q 3156 559 3463 722 
L 3463 178 
Q 3153 47 2828 -22 
Q 2503 -91 2169 -91 
Q 1331 -91 842 396 
Q 353 884 353 1716 
Q 353 2575 817 3079 
Q 1281 3584 2069 3584 
Q 2775 3584 3186 3129 
Q 3597 2675 3597 1894 
z
M 3022 2063 
Q 3016 2534 2758 2815 
Q 2500 3097 2075 3097 
Q 1594 3097 1305 2825 
Q 1016 2553 972 2059 
L 3022 2063 
z
" id="DejaVuSans-65" transform="scale(0.015625)"/>
      <path d="M 3116 1747 
Q 3116 2381 2855 2742 
Q 2594 3103 2138 3103 
Q 1681 3103 1420 2742 
Q 1159 2381 1159 1747 
Q 1159 1113 1420 752 
Q 1681 391 2138 391 
Q 2594 391 2855 752 
Q 3116 1113 3116 1747 
z
M 1159 2969 
Q 1341 3281 1617 3432 
Q 1894 3584 2278 3584 
Q 2916 3584 3314 3078 
Q 3713 2572 3713 1747 
Q 3713 922 3314 415 
Q 2916 -91 2278 -91 
Q 1894 -91 1617 61 
Q 1341 213 1159 525 
L 1159 0 
L 581 0 
L 581 4863 
L 1159 4863 
L 1159 2969 
z
" id="DejaVuSans-62" transform="scale(0.015625)"/>
      <path d="M 684 794 
L 1344 794 
L 1344 0 
L 684 0 
L 684 794 
z
" id="DejaVuSans-2e" transform="scale(0.015625)"/>
      <path d="M 191 3500 
L 800 3500 
L 1894 563 
L 2988 3500 
L 3597 3500 
L 2284 0 
L 1503 0 
L 191 3500 
z
" id="DejaVuSans-76" transform="scale(0.015625)"/>
      <path id="DejaVuSans-20" transform="scale(0.015625)"/>
      <path d="M -19 4666 
L 3928 4666 
L 3928 4134 
L 2272 4134 
L 2272 0 
L 1638 0 
L 1638 4134 
L -19 4134 
L -19 4666 
z
" id="DejaVuSans-54" transform="scale(0.015625)"/>
      <path d="M 603 4863 
L 1178 4863 
L 1178 0 
L 603 0 
L 603 4863 
z
" id="DejaVuSans-6c" transform="scale(0.015625)"/>
      <path d="M 2906 1791 
Q 2906 2416 2648 2759 
Q 2391 3103 1925 3103 
Q 1463 3103 1205 2759 
Q 947 2416 947 1791 
Q 947 1169 1205 825 
Q 1463 481 1925 481 
Q 2391 481 2648 825 
Q 2906 1169 2906 1791 
z
M 3481 434 
Q 3481 -459 3084 -895 
Q 2688 -1331 1869 -1331 
Q 1566 -1331 1297 -1286 
Q 1028 -1241 775 -1147 
L 775 -588 
Q 1028 -725 1275 -790 
Q 1522 -856 1778 -856 
Q 2344 -856 2625 -561 
Q 2906 -266 2906 331 
L 2906 616 
Q 2728 306 2450 153 
Q 2172 0 1784 0 
Q 1141 0 747 490 
Q 353 981 353 1791 
Q 353 2603 747 3093 
Q 1141 3584 1784 3584 
Q 2172 3584 2450 3431 
Q 2728 3278 2906 2969 
L 2906 3500 
L 3481 3500 
L 3481 434 
z
" id="DejaVuSans-67" transform="scale(0.015625)"/>
      <path d="M 2059 -325 
Q 1816 -950 1584 -1140 
Q 1353 -1331 966 -1331 
L 506 -1331 
L 506 -850 
L 844 -850 
Q 1081 -850 1212 -737 
Q 1344 -625 1503 -206 
L 1606 56 
L 191 3500 
L 800 3500 
L 1894 763 
L 2988 3500 
L 3597 3500 
L 2059 -325 
z
" id="DejaVuSans-79" transform="scale(0.015625)"/>
     </defs>
     <use xlink:href="#DejaVuSans-30"/>
     <use x="63.623047" xlink:href="#DejaVuSans-39"/>
     <use x="127.246094" xlink:href="#DejaVuSans-2d"/>
     <use x="163.330078" xlink:href="#DejaVuSans-66"/>
     <use x="198.535156" xlink:href="#DejaVuSans-65"/>
     <use x="260.058594" xlink:href="#DejaVuSans-62"/>
     <use x="323.535156" xlink:href="#DejaVuSans-32"/>
     <use x="387.158203" xlink:href="#DejaVuSans-30"/>
     <use x="450.78125" xlink:href="#DejaVuSans-31"/>
     <use x="514.404297" xlink:href="#DejaVuSans-35"/>
     <use x="578.027344" xlink:href="#DejaVuSans-2e"/>
     <use x="609.814453" xlink:href="#DejaVuSans-63"/>
     <use x="664.794922" xlink:href="#DejaVuSans-73"/>
     <use x="716.894531" xlink:href="#DejaVuSans-76"/>
     <use x="776.074219" xlink:href="#DejaVuSans-20"/>
     <use x="807.861328" xlink:href="#DejaVuSans-2d"/>
     <use x="843.945312" xlink:href="#DejaVuSans-20"/>
     <use x="875.732422" xlink:href="#DejaVuSans-54"/>
     <use x="919.816406" xlink:href="#DejaVuSans-6f"/>
     <use x="980.998047" xlink:href="#DejaVuSans-74"/>
     <use x="1020.207031" xlink:href="#DejaVuSans-61"/>
     <use x="1081.486328" xlink:href="#DejaVuSans-6c"/>
     <use x="1109.269531" xlink:href="#DejaVuSans-20"/>
     <use x="1141.056641" xlink:href="#DejaVuSans-6e"/>
     <use x="1204.435547" xlink:href="#DejaVuSans-75"/>
     <use x="1267.814453" xlink:href="#DejaVuSans-6d"/>
     <use x="1365.226562" xlink:href="#DejaVuSans-62"/>
     <use x="1428.703125" xlink:href="#DejaVuSans-65"/>
     <use x="1490.226562" xlink:href="#DejaVuSans-72"/>
     <use x="1531.339844" xlink:href="#DejaVuSans-20"/>
     <use x="1563.126953" xlink:href="#DejaVuSans-6f"/>
     <use x="1624.308594" xlink:href="#DejaVuSans-66"/>
     <use x="1659.513672" xlink:href="#DejaVuSans-20"/>
     <use x="1691.300781" xlink:href="#DejaVuSans-74"/>
     <use x="1730.509766" xlink:href="#DejaVuSans-72"/>
     <use x="1771.623047" xlink:href="#DejaVuSans-61"/>
     <use x="1832.902344" xlink:href="#DejaVuSans-6e"/>
     <use x="1896.28125" xlink:href="#DejaVuSans-73"/>
     <use x="1948.380859" xlink:href="#DejaVuSans-61"/>
     <use x="2009.660156" xlink:href="#DejaVuSans-63"/>
     <use x="2064.640625" xlink:href="#DejaVuSans-74"/>
     <use x="2103.849609" xlink:href="#DejaVuSans-69"/>
     <use x="2131.632812" xlink:href="#DejaVuSans-6f"/>
     <use x="2192.814453" xlink:href="#DejaVuSans-6e"/>
     <use x="2256.193359" xlink:href="#DejaVuSans-73"/>
     <use x="2308.292969" xlink:href="#DejaVuSans-20"/>
     <use x="2340.080078" xlink:href="#DejaVuSans-70"/>
     <use x="2403.556641" xlink:href="#DejaVuSans-65"/>
     <use x="2465.080078" xlink:href="#DejaVuSans-72"/>
     <use x="2506.193359" xlink:href="#DejaVuSans-20"/>
     <use x="2537.980469" xlink:href="#DejaVuSans-73"/>
     <use x="2590.080078" xlink:href="#DejaVuSans-68"/>
     <use x="2653.458984" xlink:href="#DejaVuSans-69"/>
     <use x="2681.242188" xlink:href="#DejaVuSans-70"/>
     <use x="2744.71875" xlink:href="#DejaVuSans-70"/>
     <use x="2808.195312" xlink:href="#DejaVuSans-69"/>
     <use x="2835.978516" xlink:href="#DejaVuSans-6e"/>
     <use x="2899.357422" xlink:href="#DejaVuSans-67"/>
     <use x="2962.833984" xlink:href="#DejaVuSans-20"/>
     <use x="2994.621094" xlink:href="#DejaVuSans-6c"/>
     <use x="3022.404297" xlink:href="#DejaVuSans-6f"/>
     <use x="3083.585938" xlink:href="#DejaVuSans-63"/>
     <use x="3138.566406" xlink:href="#DejaVuSans-61"/>
     <use x="3199.845703" xlink:href="#DejaVuSans-6c"/>
     <use x="3227.628906" xlink:href="#DejaVuSans-69"/>
     <use x="3255.412109" xlink:href="#DejaVuSans-74"/>
     <use x="3294.621094" xlink:href="#DejaVuSans-79"/>
    </g>
   </g>
  </g>
 </g>
 <defs>
  <clipPath id="p02d114777f">
   <rect height="887.04" width="1123.2" x="561.6" y="138.24"/>
  </clipPath>
 </defs>
</svg>
