<?xml version="1.0" encoding="utf-8" standalone="no"?>
<!DOCTYPE svg PUBLIC "-//W3C//DTD SVG 1.1//EN"
  "http://www.w3.org/Graphics/SVG/1.1/DTD/svg11.dtd">
<svg height="345.6pt" version="1.1" viewBox="0 0 460.8 345.6" width="460.8pt" xmlns="http://www.w3.org/2000/svg" xmlns:xlink="http://www.w3.org/1999/xlink">
 <metadata>
  <rdf:RDF xmlns:cc="http://creativecommons.org/ns#" xmlns:dc="http://purl.org/dc/elements/1.1/" xmlns:rdf="http://www.w3.org/1999/02/22-rdf-syntax-ns#">
   <cc:Work>
    <dc:type rdf:resource="http://purl.org/dc/dcmitype/StillImage"/>
    <dc:date>2021-07-11T18:57:22.807464</dc:date>
    <dc:format>image/svg+xml</dc:format>
    <dc:creator>
     <cc:Agent>
      <dc:title>Matplotlib v3.4.2, https://matplotlib.org/</dc:title>
     </cc:Agent>
    </dc:creator>
   </cc:Work>
  </rdf:RDF>
 </metadata>
 <defs>
  <style type="text/css">*{stroke-linecap:butt;stroke-linejoin:round;}</style>
 </defs>
 <g id="figure_1">
  <g id="patch_1">
   <path d="M 0 345.6 
L 460.8 345.6 
L 460.8 0 
L 0 0 
z
" style="fill:#ffffff;"/>
  </g>
  <g id="axes_1">
   <g id="patch_2">
    <path d="M 230.4 307.584 
L 414.72 307.584 
L 414.72 41.472 
L 230.4 41.472 
z
" style="fill:#eaeaf2;"/>
   </g>
   <g id="matplotlib.axis_1">
    <g id="xtick_1">
     <g id="text_1">
      <!-- transactions -->
      <g style="fill:#262626;" transform="translate(288.626719 325.442281)scale(0.11 -0.11)">
       <defs>
        <path d="M 1172 4494 
L 1172 3500 
L 2356 3500 
L 2356 3053 
L 1172 3053 
L 1172 1153 
Q 1172 725 1289 603 
Q 1406 481 1766 481 
L 2356 481 
L 2356 0 
L 1766 0 
Q 1100 0 847 248 
Q 594 497 594 1153 
L 594 3053 
L 172 3053 
L 172 3500 
L 594 3500 
L 594 4494 
L 1172 4494 
z
" id="DejaVuSans-74" transform="scale(0.015625)"/>
        <path d="M 2631 2963 
Q 2534 3019 2420 3045 
Q 2306 3072 2169 3072 
Q 1681 3072 1420 2755 
Q 1159 2438 1159 1844 
L 1159 0 
L 581 0 
L 581 3500 
L 1159 3500 
L 1159 2956 
Q 1341 3275 1631 3429 
Q 1922 3584 2338 3584 
Q 2397 3584 2469 3576 
Q 2541 3569 2628 3553 
L 2631 2963 
z
" id="DejaVuSans-72" transform="scale(0.015625)"/>
        <path d="M 2194 1759 
Q 1497 1759 1228 1600 
Q 959 1441 959 1056 
Q 959 750 1161 570 
Q 1363 391 1709 391 
Q 2188 391 2477 730 
Q 2766 1069 2766 1631 
L 2766 1759 
L 2194 1759 
z
M 3341 1997 
L 3341 0 
L 2766 0 
L 2766 531 
Q 2569 213 2275 61 
Q 1981 -91 1556 -91 
Q 1019 -91 701 211 
Q 384 513 384 1019 
Q 384 1609 779 1909 
Q 1175 2209 1959 2209 
L 2766 2209 
L 2766 2266 
Q 2766 2663 2505 2880 
Q 2244 3097 1772 3097 
Q 1472 3097 1187 3025 
Q 903 2953 641 2809 
L 641 3341 
Q 956 3463 1253 3523 
Q 1550 3584 1831 3584 
Q 2591 3584 2966 3190 
Q 3341 2797 3341 1997 
z
" id="DejaVuSans-61" transform="scale(0.015625)"/>
        <path d="M 3513 2113 
L 3513 0 
L 2938 0 
L 2938 2094 
Q 2938 2591 2744 2837 
Q 2550 3084 2163 3084 
Q 1697 3084 1428 2787 
Q 1159 2491 1159 1978 
L 1159 0 
L 581 0 
L 581 3500 
L 1159 3500 
L 1159 2956 
Q 1366 3272 1645 3428 
Q 1925 3584 2291 3584 
Q 2894 3584 3203 3211 
Q 3513 2838 3513 2113 
z
" id="DejaVuSans-6e" transform="scale(0.015625)"/>
        <path d="M 2834 3397 
L 2834 2853 
Q 2591 2978 2328 3040 
Q 2066 3103 1784 3103 
Q 1356 3103 1142 2972 
Q 928 2841 928 2578 
Q 928 2378 1081 2264 
Q 1234 2150 1697 2047 
L 1894 2003 
Q 2506 1872 2764 1633 
Q 3022 1394 3022 966 
Q 3022 478 2636 193 
Q 2250 -91 1575 -91 
Q 1294 -91 989 -36 
Q 684 19 347 128 
L 347 722 
Q 666 556 975 473 
Q 1284 391 1588 391 
Q 1994 391 2212 530 
Q 2431 669 2431 922 
Q 2431 1156 2273 1281 
Q 2116 1406 1581 1522 
L 1381 1569 
Q 847 1681 609 1914 
Q 372 2147 372 2553 
Q 372 3047 722 3315 
Q 1072 3584 1716 3584 
Q 2034 3584 2315 3537 
Q 2597 3491 2834 3397 
z
" id="DejaVuSans-73" transform="scale(0.015625)"/>
        <path d="M 3122 3366 
L 3122 2828 
Q 2878 2963 2633 3030 
Q 2388 3097 2138 3097 
Q 1578 3097 1268 2742 
Q 959 2388 959 1747 
Q 959 1106 1268 751 
Q 1578 397 2138 397 
Q 2388 397 2633 464 
Q 2878 531 3122 666 
L 3122 134 
Q 2881 22 2623 -34 
Q 2366 -91 2075 -91 
Q 1284 -91 818 406 
Q 353 903 353 1747 
Q 353 2603 823 3093 
Q 1294 3584 2113 3584 
Q 2378 3584 2631 3529 
Q 2884 3475 3122 3366 
z
" id="DejaVuSans-63" transform="scale(0.015625)"/>
        <path d="M 603 3500 
L 1178 3500 
L 1178 0 
L 603 0 
L 603 3500 
z
M 603 4863 
L 1178 4863 
L 1178 4134 
L 603 4134 
L 603 4863 
z
" id="DejaVuSans-69" transform="scale(0.015625)"/>
        <path d="M 1959 3097 
Q 1497 3097 1228 2736 
Q 959 2375 959 1747 
Q 959 1119 1226 758 
Q 1494 397 1959 397 
Q 2419 397 2687 759 
Q 2956 1122 2956 1747 
Q 2956 2369 2687 2733 
Q 2419 3097 1959 3097 
z
M 1959 3584 
Q 2709 3584 3137 3096 
Q 3566 2609 3566 1747 
Q 3566 888 3137 398 
Q 2709 -91 1959 -91 
Q 1206 -91 779 398 
Q 353 888 353 1747 
Q 353 2609 779 3096 
Q 1206 3584 1959 3584 
z
" id="DejaVuSans-6f" transform="scale(0.015625)"/>
       </defs>
       <use xlink:href="#DejaVuSans-74"/>
       <use x="39.208984" xlink:href="#DejaVuSans-72"/>
       <use x="80.322266" xlink:href="#DejaVuSans-61"/>
       <use x="141.601562" xlink:href="#DejaVuSans-6e"/>
       <use x="204.980469" xlink:href="#DejaVuSans-73"/>
       <use x="257.080078" xlink:href="#DejaVuSans-61"/>
       <use x="318.359375" xlink:href="#DejaVuSans-63"/>
       <use x="373.339844" xlink:href="#DejaVuSans-74"/>
       <use x="412.548828" xlink:href="#DejaVuSans-69"/>
       <use x="440.332031" xlink:href="#DejaVuSans-6f"/>
       <use x="501.513672" xlink:href="#DejaVuSans-6e"/>
       <use x="564.892578" xlink:href="#DejaVuSans-73"/>
      </g>
     </g>
    </g>
    <g id="text_2">
     <!-- ship_from -->
     <g style="fill:#262626;" transform="translate(293.196563 340.848062)scale(0.12 -0.12)">
      <defs>
       <path d="M 3513 2113 
L 3513 0 
L 2938 0 
L 2938 2094 
Q 2938 2591 2744 2837 
Q 2550 3084 2163 3084 
Q 1697 3084 1428 2787 
Q 1159 2491 1159 1978 
L 1159 0 
L 581 0 
L 581 4863 
L 1159 4863 
L 1159 2956 
Q 1366 3272 1645 3428 
Q 1925 3584 2291 3584 
Q 2894 3584 3203 3211 
Q 3513 2838 3513 2113 
z
" id="DejaVuSans-68" transform="scale(0.015625)"/>
       <path d="M 1159 525 
L 1159 -1331 
L 581 -1331 
L 581 3500 
L 1159 3500 
L 1159 2969 
Q 1341 3281 1617 3432 
Q 1894 3584 2278 3584 
Q 2916 3584 3314 3078 
Q 3713 2572 3713 1747 
Q 3713 922 3314 415 
Q 2916 -91 2278 -91 
Q 1894 -91 1617 61 
Q 1341 213 1159 525 
z
M 3116 1747 
Q 3116 2381 2855 2742 
Q 2594 3103 2138 3103 
Q 1681 3103 1420 2742 
Q 1159 2381 1159 1747 
Q 1159 1113 1420 752 
Q 1681 391 2138 391 
Q 2594 391 2855 752 
Q 3116 1113 3116 1747 
z
" id="DejaVuSans-70" transform="scale(0.015625)"/>
       <path d="M 3263 -1063 
L 3263 -1509 
L -63 -1509 
L -63 -1063 
L 3263 -1063 
z
" id="DejaVuSans-5f" transform="scale(0.015625)"/>
       <path d="M 2375 4863 
L 2375 4384 
L 1825 4384 
Q 1516 4384 1395 4259 
Q 1275 4134 1275 3809 
L 1275 3500 
L 2222 3500 
L 2222 3053 
L 1275 3053 
L 1275 0 
L 697 0 
L 697 3053 
L 147 3053 
L 147 3500 
L 697 3500 
L 697 3744 
Q 697 4328 969 4595 
Q 1241 4863 1831 4863 
L 2375 4863 
z
" id="DejaVuSans-66" transform="scale(0.015625)"/>
       <path d="M 3328 2828 
Q 3544 3216 3844 3400 
Q 4144 3584 4550 3584 
Q 5097 3584 5394 3201 
Q 5691 2819 5691 2113 
L 5691 0 
L 5113 0 
L 5113 2094 
Q 5113 2597 4934 2840 
Q 4756 3084 4391 3084 
Q 3944 3084 3684 2787 
Q 3425 2491 3425 1978 
L 3425 0 
L 2847 0 
L 2847 2094 
Q 2847 2600 2669 2842 
Q 2491 3084 2119 3084 
Q 1678 3084 1418 2786 
Q 1159 2488 1159 1978 
L 1159 0 
L 581 0 
L 581 3500 
L 1159 3500 
L 1159 2956 
Q 1356 3278 1631 3431 
Q 1906 3584 2284 3584 
Q 2666 3584 2933 3390 
Q 3200 3197 3328 2828 
z
" id="DejaVuSans-6d" transform="scale(0.015625)"/>
      </defs>
      <use xlink:href="#DejaVuSans-73"/>
      <use x="52.099609" xlink:href="#DejaVuSans-68"/>
      <use x="115.478516" xlink:href="#DejaVuSans-69"/>
      <use x="143.261719" xlink:href="#DejaVuSans-70"/>
      <use x="206.738281" xlink:href="#DejaVuSans-5f"/>
      <use x="256.738281" xlink:href="#DejaVuSans-66"/>
      <use x="291.943359" xlink:href="#DejaVuSans-72"/>
      <use x="330.806641" xlink:href="#DejaVuSans-6f"/>
      <use x="391.988281" xlink:href="#DejaVuSans-6d"/>
     </g>
    </g>
   </g>
   <g id="matplotlib.axis_2">
    <g id="ytick_1">
     <g id="line2d_1">
      <path clip-path="url(#pd6ff99453f)" d="M 230.4 269.083675 
L 414.72 269.083675 
" style="fill:none;stroke:#ffffff;stroke-linecap:round;"/>
     </g>
     <g id="text_3">
      <!-- 0 -->
      <g style="fill:#262626;" transform="translate(213.90125 273.262816)scale(0.11 -0.11)">
       <defs>
        <path d="M 2034 4250 
Q 1547 4250 1301 3770 
Q 1056 3291 1056 2328 
Q 1056 1369 1301 889 
Q 1547 409 2034 409 
Q 2525 409 2770 889 
Q 3016 1369 3016 2328 
Q 3016 3291 2770 3770 
Q 2525 4250 2034 4250 
z
M 2034 4750 
Q 2819 4750 3233 4129 
Q 3647 3509 3647 2328 
Q 3647 1150 3233 529 
Q 2819 -91 2034 -91 
Q 1250 -91 836 529 
Q 422 1150 422 2328 
Q 422 3509 836 4129 
Q 1250 4750 2034 4750 
z
" id="DejaVuSans-30" transform="scale(0.015625)"/>
       </defs>
       <use xlink:href="#DejaVuSans-30"/>
      </g>
     </g>
    </g>
    <g id="ytick_2">
     <g id="line2d_2">
      <path clip-path="url(#pd6ff99453f)" d="M 230.4 230.100486 
L 414.72 230.100486 
" style="fill:none;stroke:#ffffff;stroke-linecap:round;"/>
     </g>
     <g id="text_4">
      <!-- 10000 -->
      <g style="fill:#262626;" transform="translate(185.90625 234.279626)scale(0.11 -0.11)">
       <defs>
        <path d="M 794 531 
L 1825 531 
L 1825 4091 
L 703 3866 
L 703 4441 
L 1819 4666 
L 2450 4666 
L 2450 531 
L 3481 531 
L 3481 0 
L 794 0 
L 794 531 
z
" id="DejaVuSans-31" transform="scale(0.015625)"/>
       </defs>
       <use xlink:href="#DejaVuSans-31"/>
       <use x="63.623047" xlink:href="#DejaVuSans-30"/>
       <use x="127.246094" xlink:href="#DejaVuSans-30"/>
       <use x="190.869141" xlink:href="#DejaVuSans-30"/>
       <use x="254.492188" xlink:href="#DejaVuSans-30"/>
      </g>
     </g>
    </g>
    <g id="ytick_3">
     <g id="line2d_3">
      <path clip-path="url(#pd6ff99453f)" d="M 230.4 191.117296 
L 414.72 191.117296 
" style="fill:none;stroke:#ffffff;stroke-linecap:round;"/>
     </g>
     <g id="text_5">
      <!-- 20000 -->
      <g style="fill:#262626;" transform="translate(185.90625 195.296437)scale(0.11 -0.11)">
       <defs>
        <path d="M 1228 531 
L 3431 531 
L 3431 0 
L 469 0 
L 469 531 
Q 828 903 1448 1529 
Q 2069 2156 2228 2338 
Q 2531 2678 2651 2914 
Q 2772 3150 2772 3378 
Q 2772 3750 2511 3984 
Q 2250 4219 1831 4219 
Q 1534 4219 1204 4116 
Q 875 4013 500 3803 
L 500 4441 
Q 881 4594 1212 4672 
Q 1544 4750 1819 4750 
Q 2544 4750 2975 4387 
Q 3406 4025 3406 3419 
Q 3406 3131 3298 2873 
Q 3191 2616 2906 2266 
Q 2828 2175 2409 1742 
Q 1991 1309 1228 531 
z
" id="DejaVuSans-32" transform="scale(0.015625)"/>
       </defs>
       <use xlink:href="#DejaVuSans-32"/>
       <use x="63.623047" xlink:href="#DejaVuSans-30"/>
       <use x="127.246094" xlink:href="#DejaVuSans-30"/>
       <use x="190.869141" xlink:href="#DejaVuSans-30"/>
       <use x="254.492188" xlink:href="#DejaVuSans-30"/>
      </g>
     </g>
    </g>
    <g id="ytick_4">
     <g id="line2d_4">
      <path clip-path="url(#pd6ff99453f)" d="M 230.4 152.134107 
L 414.72 152.134107 
" style="fill:none;stroke:#ffffff;stroke-linecap:round;"/>
     </g>
     <g id="text_6">
      <!-- 30000 -->
      <g style="fill:#262626;" transform="translate(185.90625 156.313248)scale(0.11 -0.11)">
       <defs>
        <path d="M 2597 2516 
Q 3050 2419 3304 2112 
Q 3559 1806 3559 1356 
Q 3559 666 3084 287 
Q 2609 -91 1734 -91 
Q 1441 -91 1130 -33 
Q 819 25 488 141 
L 488 750 
Q 750 597 1062 519 
Q 1375 441 1716 441 
Q 2309 441 2620 675 
Q 2931 909 2931 1356 
Q 2931 1769 2642 2001 
Q 2353 2234 1838 2234 
L 1294 2234 
L 1294 2753 
L 1863 2753 
Q 2328 2753 2575 2939 
Q 2822 3125 2822 3475 
Q 2822 3834 2567 4026 
Q 2313 4219 1838 4219 
Q 1578 4219 1281 4162 
Q 984 4106 628 3988 
L 628 4550 
Q 988 4650 1302 4700 
Q 1616 4750 1894 4750 
Q 2613 4750 3031 4423 
Q 3450 4097 3450 3541 
Q 3450 3153 3228 2886 
Q 3006 2619 2597 2516 
z
" id="DejaVuSans-33" transform="scale(0.015625)"/>
       </defs>
       <use xlink:href="#DejaVuSans-33"/>
       <use x="63.623047" xlink:href="#DejaVuSans-30"/>
       <use x="127.246094" xlink:href="#DejaVuSans-30"/>
       <use x="190.869141" xlink:href="#DejaVuSans-30"/>
       <use x="254.492188" xlink:href="#DejaVuSans-30"/>
      </g>
     </g>
    </g>
    <g id="ytick_5">
     <g id="line2d_5">
      <path clip-path="url(#pd6ff99453f)" d="M 230.4 113.150918 
L 414.72 113.150918 
" style="fill:none;stroke:#ffffff;stroke-linecap:round;"/>
     </g>
     <g id="text_7">
      <!-- 40000 -->
      <g style="fill:#262626;" transform="translate(185.90625 117.330058)scale(0.11 -0.11)">
       <defs>
        <path d="M 2419 4116 
L 825 1625 
L 2419 1625 
L 2419 4116 
z
M 2253 4666 
L 3047 4666 
L 3047 1625 
L 3713 1625 
L 3713 1100 
L 3047 1100 
L 3047 0 
L 2419 0 
L 2419 1100 
L 313 1100 
L 313 1709 
L 2253 4666 
z
" id="DejaVuSans-34" transform="scale(0.015625)"/>
       </defs>
       <use xlink:href="#DejaVuSans-34"/>
       <use x="63.623047" xlink:href="#DejaVuSans-30"/>
       <use x="127.246094" xlink:href="#DejaVuSans-30"/>
       <use x="190.869141" xlink:href="#DejaVuSans-30"/>
       <use x="254.492188" xlink:href="#DejaVuSans-30"/>
      </g>
     </g>
    </g>
    <g id="ytick_6">
     <g id="line2d_6">
      <path clip-path="url(#pd6ff99453f)" d="M 230.4 74.167728 
L 414.72 74.167728 
" style="fill:none;stroke:#ffffff;stroke-linecap:round;"/>
     </g>
     <g id="text_8">
      <!-- 50000 -->
      <g style="fill:#262626;" transform="translate(185.90625 78.346869)scale(0.11 -0.11)">
       <defs>
        <path d="M 691 4666 
L 3169 4666 
L 3169 4134 
L 1269 4134 
L 1269 2991 
Q 1406 3038 1543 3061 
Q 1681 3084 1819 3084 
Q 2600 3084 3056 2656 
Q 3513 2228 3513 1497 
Q 3513 744 3044 326 
Q 2575 -91 1722 -91 
Q 1428 -91 1123 -41 
Q 819 9 494 109 
L 494 744 
Q 775 591 1075 516 
Q 1375 441 1709 441 
Q 2250 441 2565 725 
Q 2881 1009 2881 1497 
Q 2881 1984 2565 2268 
Q 2250 2553 1709 2553 
Q 1456 2553 1204 2497 
Q 953 2441 691 2322 
L 691 4666 
z
" id="DejaVuSans-35" transform="scale(0.015625)"/>
       </defs>
       <use xlink:href="#DejaVuSans-35"/>
       <use x="63.623047" xlink:href="#DejaVuSans-30"/>
       <use x="127.246094" xlink:href="#DejaVuSans-30"/>
       <use x="190.869141" xlink:href="#DejaVuSans-30"/>
       <use x="254.492188" xlink:href="#DejaVuSans-30"/>
      </g>
     </g>
    </g>
    <g id="text_9">
     <!-- count -->
     <g style="fill:#262626;" transform="translate(179.410625 191.4555)rotate(-90)scale(0.12 -0.12)">
      <defs>
       <path d="M 544 1381 
L 544 3500 
L 1119 3500 
L 1119 1403 
Q 1119 906 1312 657 
Q 1506 409 1894 409 
Q 2359 409 2629 706 
Q 2900 1003 2900 1516 
L 2900 3500 
L 3475 3500 
L 3475 0 
L 2900 0 
L 2900 538 
Q 2691 219 2414 64 
Q 2138 -91 1772 -91 
Q 1169 -91 856 284 
Q 544 659 544 1381 
z
M 1991 3584 
L 1991 3584 
z
" id="DejaVuSans-75" transform="scale(0.015625)"/>
      </defs>
      <use xlink:href="#DejaVuSans-63"/>
      <use x="54.980469" xlink:href="#DejaVuSans-6f"/>
      <use x="116.162109" xlink:href="#DejaVuSans-75"/>
      <use x="179.541016" xlink:href="#DejaVuSans-6e"/>
      <use x="242.919922" xlink:href="#DejaVuSans-74"/>
     </g>
    </g>
   </g>
   <g id="PolyCollection_1">
    <defs>
     <path d="M 330.867219 -50.112 
L 314.252781 -50.112 
L 310.573091 -52.555636 
L 305.837642 -54.999273 
L 300.005212 -57.442909 
L 293.146659 -59.886545 
L 285.472334 -62.330182 
L 277.341971 -64.773818 
L 269.24966 -67.217455 
L 261.780874 -69.661091 
L 255.544793 -72.104727 
L 251.091914 -74.548364 
L 248.832 -76.992 
L 248.969091 -79.435636 
L 251.467673 -81.879273 
L 256.057585 -84.322909 
L 262.276616 -86.766545 
L 269.541461 -89.210182 
L 277.232022 -91.653818 
L 284.772456 -94.097455 
L 291.694883 -96.541091 
L 297.67718 -98.984727 
L 302.552908 -101.428364 
L 306.297239 -103.872 
L 308.99652 -106.315636 
L 310.810327 -108.759273 
L 311.933881 -111.202909 
L 312.566408 -113.646545 
L 312.888271 -116.090182 
L 313.04734 -118.533818 
L 313.153437 -120.977455 
L 313.278901 -123.421091 
L 313.463177 -125.864727 
L 313.719613 -128.308364 
L 314.0431 -130.752 
L 314.417549 -133.195636 
L 314.822577 -135.639273 
L 315.238926 -138.082909 
L 315.6523 -140.526545 
L 316.055425 -142.970182 
L 316.448321 -145.413818 
L 316.836952 -147.857455 
L 317.230691 -150.301091 
L 317.639193 -152.744727 
L 318.069387 -155.188364 
L 318.52323 -157.632 
L 318.996683 -160.075636 
L 319.480065 -162.519273 
L 319.959603 -164.962909 
L 320.419748 -167.406545 
L 320.845679 -169.850182 
L 321.225453 -172.293818 
L 321.5514 -174.737455 
L 321.820615 -177.181091 
L 322.034603 -179.624727 
L 322.198315 -182.068364 
L 322.318894 -184.512 
L 322.404415 -186.955636 
L 322.462841 -189.399273 
L 322.501297 -191.842909 
L 322.52569 -194.286545 
L 322.540604 -196.730182 
L 322.549393 -199.173818 
L 322.554384 -201.617455 
L 322.557108 -204.061091 
L 322.55852 -206.504727 
L 322.55918 -208.948364 
L 322.559374 -211.392 
L 322.559202 -213.835636 
L 322.558602 -216.279273 
L 322.55735 -218.722909 
L 322.555012 -221.166545 
L 322.550874 -223.610182 
L 322.543844 -226.053818 
L 322.532355 -228.497455 
L 322.514283 -230.941091 
L 322.486942 -233.384727 
L 322.447179 -235.828364 
L 322.391638 -238.272 
L 322.317213 -240.715636 
L 322.221672 -243.159273 
L 322.104404 -245.602909 
L 321.96714 -248.046545 
L 321.814489 -250.490182 
L 321.654087 -252.933818 
L 321.496228 -255.377455 
L 321.352908 -257.821091 
L 321.236382 -260.264727 
L 321.157462 -262.708364 
L 321.12386 -265.152 
L 321.138951 -267.595636 
L 321.201214 -270.039273 
L 321.304481 -272.482909 
L 321.438949 -274.926545 
L 321.592708 -277.370182 
L 321.753471 -279.813818 
L 321.910152 -282.257455 
L 322.054019 -284.701091 
L 322.179297 -287.144727 
L 322.283199 -289.588364 
L 322.365518 -292.032 
L 322.754482 -292.032 
L 322.754482 -292.032 
L 322.836801 -289.588364 
L 322.940703 -287.144727 
L 323.065981 -284.701091 
L 323.209848 -282.257455 
L 323.366529 -279.813818 
L 323.527292 -277.370182 
L 323.681051 -274.926545 
L 323.815519 -272.482909 
L 323.918786 -270.039273 
L 323.981049 -267.595636 
L 323.99614 -265.152 
L 323.962538 -262.708364 
L 323.883618 -260.264727 
L 323.767092 -257.821091 
L 323.623772 -255.377455 
L 323.465913 -252.933818 
L 323.305511 -250.490182 
L 323.15286 -248.046545 
L 323.015596 -245.602909 
L 322.898328 -243.159273 
L 322.802787 -240.715636 
L 322.728362 -238.272 
L 322.672821 -235.828364 
L 322.633058 -233.384727 
L 322.605717 -230.941091 
L 322.587645 -228.497455 
L 322.576156 -226.053818 
L 322.569126 -223.610182 
L 322.564988 -221.166545 
L 322.56265 -218.722909 
L 322.561398 -216.279273 
L 322.560798 -213.835636 
L 322.560626 -211.392 
L 322.56082 -208.948364 
L 322.56148 -206.504727 
L 322.562892 -204.061091 
L 322.565616 -201.617455 
L 322.570607 -199.173818 
L 322.579396 -196.730182 
L 322.59431 -194.286545 
L 322.618703 -191.842909 
L 322.657159 -189.399273 
L 322.715585 -186.955636 
L 322.801106 -184.512 
L 322.921685 -182.068364 
L 323.085397 -179.624727 
L 323.299385 -177.181091 
L 323.5686 -174.737455 
L 323.894547 -172.293818 
L 324.274321 -169.850182 
L 324.700252 -167.406545 
L 325.160397 -164.962909 
L 325.639935 -162.519273 
L 326.123317 -160.075636 
L 326.59677 -157.632 
L 327.050613 -155.188364 
L 327.480807 -152.744727 
L 327.889309 -150.301091 
L 328.283048 -147.857455 
L 328.671679 -145.413818 
L 329.064575 -142.970182 
L 329.4677 -140.526545 
L 329.881074 -138.082909 
L 330.297423 -135.639273 
L 330.702451 -133.195636 
L 331.0769 -130.752 
L 331.400387 -128.308364 
L 331.656823 -125.864727 
L 331.841099 -123.421091 
L 331.966563 -120.977455 
L 332.07266 -118.533818 
L 332.231729 -116.090182 
L 332.553592 -113.646545 
L 333.186119 -111.202909 
L 334.309673 -108.759273 
L 336.12348 -106.315636 
L 338.822761 -103.872 
L 342.567092 -101.428364 
L 347.44282 -98.984727 
L 353.425117 -96.541091 
L 360.347544 -94.097455 
L 367.887978 -91.653818 
L 375.578539 -89.210182 
L 382.843384 -86.766545 
L 389.062415 -84.322909 
L 393.652327 -81.879273 
L 396.150909 -79.435636 
L 396.288 -76.992 
L 394.028086 -74.548364 
L 389.575207 -72.104727 
L 383.339126 -69.661091 
L 375.87034 -67.217455 
L 367.778029 -64.773818 
L 359.647666 -62.330182 
L 351.973341 -59.886545 
L 345.114788 -57.442909 
L 339.282358 -54.999273 
L 334.546909 -52.555636 
L 330.867219 -50.112 
z
" id="m4f1227e183" style="stroke:#4c4c4c;stroke-width:1.5;"/>
    </defs>
    <g clip-path="url(#pd6ff99453f)">
     <use style="fill:#5875a4;stroke:#4c4c4c;stroke-width:1.5;" x="0" xlink:href="#m4f1227e183" y="345.6"/>
    </g>
   </g>
   <g id="line2d_7">
    <path clip-path="url(#pd6ff99453f)" d="M 322.56 269.075878 
L 322.56 260.062965 
" style="fill:none;stroke:#4c4c4c;stroke-linecap:round;stroke-width:1.5;"/>
   </g>
   <g id="line2d_8">
    <path clip-path="url(#pd6ff99453f)" d="M 322.56 268.982319 
L 322.56 264.210776 
" style="fill:none;stroke:#4c4c4c;stroke-linecap:round;stroke-width:4.5;"/>
   </g>
   <g id="patch_3">
    <path d="M 230.4 307.584 
L 230.4 41.472 
" style="fill:none;stroke:#ffffff;stroke-linecap:square;stroke-linejoin:miter;stroke-width:1.25;"/>
   </g>
   <g id="patch_4">
    <path d="M 414.72 307.584 
L 414.72 41.472 
" style="fill:none;stroke:#ffffff;stroke-linecap:square;stroke-linejoin:miter;stroke-width:1.25;"/>
   </g>
   <g id="patch_5">
    <path d="M 230.4 307.584 
L 414.72 307.584 
" style="fill:none;stroke:#ffffff;stroke-linecap:square;stroke-linejoin:miter;stroke-width:1.25;"/>
   </g>
   <g id="patch_6">
    <path d="M 230.4 41.472 
L 414.72 41.472 
" style="fill:none;stroke:#ffffff;stroke-linecap:square;stroke-linejoin:miter;stroke-width:1.25;"/>
   </g>
   <g id="PathCollection_1">
    <defs>
     <path d="M 0 1.5 
C 0.397805 1.5 0.77937 1.341951 1.06066 1.06066 
C 1.341951 0.77937 1.5 0.397805 1.5 0 
C 1.5 -0.397805 1.341951 -0.77937 1.06066 -1.06066 
C 0.77937 -1.341951 0.397805 -1.5 0 -1.5 
C -0.397805 -1.5 -0.77937 -1.341951 -1.06066 -1.06066 
C -1.341951 -0.77937 -1.5 -0.397805 -1.5 0 
C -1.5 0.397805 -1.341951 0.77937 -1.06066 1.06066 
C -0.77937 1.341951 -0.397805 1.5 0 1.5 
z
" id="m4829a9452f" style="stroke:#4c4c4c;"/>
    </defs>
    <g clip-path="url(#pd6ff99453f)">
     <use style="fill:#ffffff;stroke:#4c4c4c;" x="322.56" xlink:href="#m4829a9452f" y="267.894688"/>
    </g>
   </g>
  </g>
 </g>
 <defs>
  <clipPath id="pd6ff99453f">
   <rect height="266.112" width="184.32" x="230.4" y="41.472"/>
  </clipPath>
 </defs>
</svg>
