<?xml version="1.0" encoding="utf-8" standalone="no"?>
<!DOCTYPE svg PUBLIC "-//W3C//DTD SVG 1.1//EN"
  "http://www.w3.org/Graphics/SVG/1.1/DTD/svg11.dtd">
<svg height="1152pt" version="1.1" viewBox="0 0 1872 1152" width="1872pt" xmlns="http://www.w3.org/2000/svg" xmlns:xlink="http://www.w3.org/1999/xlink">
 <metadata>
  <rdf:RDF xmlns:cc="http://creativecommons.org/ns#" xmlns:dc="http://purl.org/dc/elements/1.1/" xmlns:rdf="http://www.w3.org/1999/02/22-rdf-syntax-ns#">
   <cc:Work>
    <dc:type rdf:resource="http://purl.org/dc/dcmitype/StillImage"/>
    <dc:date>2021-08-29T20:35:46.707713</dc:date>
    <dc:format>image/svg+xml</dc:format>
    <dc:creator>
     <cc:Agent>
      <dc:title>Matplotlib v3.4.3, https://matplotlib.org/</dc:title>
     </cc:Agent>
    </dc:creator>
   </cc:Work>
  </rdf:RDF>
 </metadata>
 <defs>
  <style type="text/css">*{stroke-linecap:butt;stroke-linejoin:round;}</style>
 </defs>
 <g id="figure_1">
  <g id="patch_1">
   <path d="M 0 1152 
L 1872 1152 
L 1872 0 
L 0 0 
z
" style="fill:#ffffff;"/>
  </g>
  <g id="axes_1">
   <g id="patch_2">
    <path d="M 561.6 1025.28 
L 1684.8 1025.28 
L 1684.8 138.24 
L 561.6 138.24 
z
" style="fill:#eaeaf2;"/>
   </g>
   <g id="matplotlib.axis_1">
    <g id="xtick_1">
     <g id="text_1">
      <!-- btc -->
      <g style="fill:#262626;" transform="translate(1114.528047 1043.138281)scale(0.11 -0.11)">
       <defs>
        <path d="M 3116 1747 
Q 3116 2381 2855 2742 
Q 2594 3103 2138 3103 
Q 1681 3103 1420 2742 
Q 1159 2381 1159 1747 
Q 1159 1113 1420 752 
Q 1681 391 2138 391 
Q 2594 391 2855 752 
Q 3116 1113 3116 1747 
z
M 1159 2969 
Q 1341 3281 1617 3432 
Q 1894 3584 2278 3584 
Q 2916 3584 3314 3078 
Q 3713 2572 3713 1747 
Q 3713 922 3314 415 
Q 2916 -91 2278 -91 
Q 1894 -91 1617 61 
Q 1341 213 1159 525 
L 1159 0 
L 581 0 
L 581 4863 
L 1159 4863 
L 1159 2969 
z
" id="DejaVuSans-62" transform="scale(0.015625)"/>
        <path d="M 1172 4494 
L 1172 3500 
L 2356 3500 
L 2356 3053 
L 1172 3053 
L 1172 1153 
Q 1172 725 1289 603 
Q 1406 481 1766 481 
L 2356 481 
L 2356 0 
L 1766 0 
Q 1100 0 847 248 
Q 594 497 594 1153 
L 594 3053 
L 172 3053 
L 172 3500 
L 594 3500 
L 594 4494 
L 1172 4494 
z
" id="DejaVuSans-74" transform="scale(0.015625)"/>
        <path d="M 3122 3366 
L 3122 2828 
Q 2878 2963 2633 3030 
Q 2388 3097 2138 3097 
Q 1578 3097 1268 2742 
Q 959 2388 959 1747 
Q 959 1106 1268 751 
Q 1578 397 2138 397 
Q 2388 397 2633 464 
Q 2878 531 3122 666 
L 3122 134 
Q 2881 22 2623 -34 
Q 2366 -91 2075 -91 
Q 1284 -91 818 406 
Q 353 903 353 1747 
Q 353 2603 823 3093 
Q 1294 3584 2113 3584 
Q 2378 3584 2631 3529 
Q 2884 3475 3122 3366 
z
" id="DejaVuSans-63" transform="scale(0.015625)"/>
       </defs>
       <use xlink:href="#DejaVuSans-62"/>
       <use x="63.476562" xlink:href="#DejaVuSans-74"/>
       <use x="102.685547" xlink:href="#DejaVuSans-63"/>
      </g>
     </g>
    </g>
    <g id="text_2">
     <!-- ship_from -->
     <g style="fill:#262626;" transform="translate(1093.836563 1058.544063)scale(0.12 -0.12)">
      <defs>
       <path d="M 2834 3397 
L 2834 2853 
Q 2591 2978 2328 3040 
Q 2066 3103 1784 3103 
Q 1356 3103 1142 2972 
Q 928 2841 928 2578 
Q 928 2378 1081 2264 
Q 1234 2150 1697 2047 
L 1894 2003 
Q 2506 1872 2764 1633 
Q 3022 1394 3022 966 
Q 3022 478 2636 193 
Q 2250 -91 1575 -91 
Q 1294 -91 989 -36 
Q 684 19 347 128 
L 347 722 
Q 666 556 975 473 
Q 1284 391 1588 391 
Q 1994 391 2212 530 
Q 2431 669 2431 922 
Q 2431 1156 2273 1281 
Q 2116 1406 1581 1522 
L 1381 1569 
Q 847 1681 609 1914 
Q 372 2147 372 2553 
Q 372 3047 722 3315 
Q 1072 3584 1716 3584 
Q 2034 3584 2315 3537 
Q 2597 3491 2834 3397 
z
" id="DejaVuSans-73" transform="scale(0.015625)"/>
       <path d="M 3513 2113 
L 3513 0 
L 2938 0 
L 2938 2094 
Q 2938 2591 2744 2837 
Q 2550 3084 2163 3084 
Q 1697 3084 1428 2787 
Q 1159 2491 1159 1978 
L 1159 0 
L 581 0 
L 581 4863 
L 1159 4863 
L 1159 2956 
Q 1366 3272 1645 3428 
Q 1925 3584 2291 3584 
Q 2894 3584 3203 3211 
Q 3513 2838 3513 2113 
z
" id="DejaVuSans-68" transform="scale(0.015625)"/>
       <path d="M 603 3500 
L 1178 3500 
L 1178 0 
L 603 0 
L 603 3500 
z
M 603 4863 
L 1178 4863 
L 1178 4134 
L 603 4134 
L 603 4863 
z
" id="DejaVuSans-69" transform="scale(0.015625)"/>
       <path d="M 1159 525 
L 1159 -1331 
L 581 -1331 
L 581 3500 
L 1159 3500 
L 1159 2969 
Q 1341 3281 1617 3432 
Q 1894 3584 2278 3584 
Q 2916 3584 3314 3078 
Q 3713 2572 3713 1747 
Q 3713 922 3314 415 
Q 2916 -91 2278 -91 
Q 1894 -91 1617 61 
Q 1341 213 1159 525 
z
M 3116 1747 
Q 3116 2381 2855 2742 
Q 2594 3103 2138 3103 
Q 1681 3103 1420 2742 
Q 1159 2381 1159 1747 
Q 1159 1113 1420 752 
Q 1681 391 2138 391 
Q 2594 391 2855 752 
Q 3116 1113 3116 1747 
z
" id="DejaVuSans-70" transform="scale(0.015625)"/>
       <path d="M 3263 -1063 
L 3263 -1509 
L -63 -1509 
L -63 -1063 
L 3263 -1063 
z
" id="DejaVuSans-5f" transform="scale(0.015625)"/>
       <path d="M 2375 4863 
L 2375 4384 
L 1825 4384 
Q 1516 4384 1395 4259 
Q 1275 4134 1275 3809 
L 1275 3500 
L 2222 3500 
L 2222 3053 
L 1275 3053 
L 1275 0 
L 697 0 
L 697 3053 
L 147 3053 
L 147 3500 
L 697 3500 
L 697 3744 
Q 697 4328 969 4595 
Q 1241 4863 1831 4863 
L 2375 4863 
z
" id="DejaVuSans-66" transform="scale(0.015625)"/>
       <path d="M 2631 2963 
Q 2534 3019 2420 3045 
Q 2306 3072 2169 3072 
Q 1681 3072 1420 2755 
Q 1159 2438 1159 1844 
L 1159 0 
L 581 0 
L 581 3500 
L 1159 3500 
L 1159 2956 
Q 1341 3275 1631 3429 
Q 1922 3584 2338 3584 
Q 2397 3584 2469 3576 
Q 2541 3569 2628 3553 
L 2631 2963 
z
" id="DejaVuSans-72" transform="scale(0.015625)"/>
       <path d="M 1959 3097 
Q 1497 3097 1228 2736 
Q 959 2375 959 1747 
Q 959 1119 1226 758 
Q 1494 397 1959 397 
Q 2419 397 2687 759 
Q 2956 1122 2956 1747 
Q 2956 2369 2687 2733 
Q 2419 3097 1959 3097 
z
M 1959 3584 
Q 2709 3584 3137 3096 
Q 3566 2609 3566 1747 
Q 3566 888 3137 398 
Q 2709 -91 1959 -91 
Q 1206 -91 779 398 
Q 353 888 353 1747 
Q 353 2609 779 3096 
Q 1206 3584 1959 3584 
z
" id="DejaVuSans-6f" transform="scale(0.015625)"/>
       <path d="M 3328 2828 
Q 3544 3216 3844 3400 
Q 4144 3584 4550 3584 
Q 5097 3584 5394 3201 
Q 5691 2819 5691 2113 
L 5691 0 
L 5113 0 
L 5113 2094 
Q 5113 2597 4934 2840 
Q 4756 3084 4391 3084 
Q 3944 3084 3684 2787 
Q 3425 2491 3425 1978 
L 3425 0 
L 2847 0 
L 2847 2094 
Q 2847 2600 2669 2842 
Q 2491 3084 2119 3084 
Q 1678 3084 1418 2786 
Q 1159 2488 1159 1978 
L 1159 0 
L 581 0 
L 581 3500 
L 1159 3500 
L 1159 2956 
Q 1356 3278 1631 3431 
Q 1906 3584 2284 3584 
Q 2666 3584 2933 3390 
Q 3200 3197 3328 2828 
z
" id="DejaVuSans-6d" transform="scale(0.015625)"/>
      </defs>
      <use xlink:href="#DejaVuSans-73"/>
      <use x="52.099609" xlink:href="#DejaVuSans-68"/>
      <use x="115.478516" xlink:href="#DejaVuSans-69"/>
      <use x="143.261719" xlink:href="#DejaVuSans-70"/>
      <use x="206.738281" xlink:href="#DejaVuSans-5f"/>
      <use x="256.738281" xlink:href="#DejaVuSans-66"/>
      <use x="291.943359" xlink:href="#DejaVuSans-72"/>
      <use x="330.806641" xlink:href="#DejaVuSans-6f"/>
      <use x="391.988281" xlink:href="#DejaVuSans-6d"/>
     </g>
    </g>
   </g>
   <g id="matplotlib.axis_2">
    <g id="ytick_1">
     <g id="line2d_1">
      <path clip-path="url(#p169cc027d3)" d="M 561.6 1017.803499 
L 1684.8 1017.803499 
" style="fill:none;stroke:#ffffff;stroke-linecap:round;"/>
     </g>
     <g id="text_3">
      <!-- −10 -->
      <g style="fill:#262626;" transform="translate(528.884844 1021.982639)scale(0.11 -0.11)">
       <defs>
        <path d="M 678 2272 
L 4684 2272 
L 4684 1741 
L 678 1741 
L 678 2272 
z
" id="DejaVuSans-2212" transform="scale(0.015625)"/>
        <path d="M 794 531 
L 1825 531 
L 1825 4091 
L 703 3866 
L 703 4441 
L 1819 4666 
L 2450 4666 
L 2450 531 
L 3481 531 
L 3481 0 
L 794 0 
L 794 531 
z
" id="DejaVuSans-31" transform="scale(0.015625)"/>
        <path d="M 2034 4250 
Q 1547 4250 1301 3770 
Q 1056 3291 1056 2328 
Q 1056 1369 1301 889 
Q 1547 409 2034 409 
Q 2525 409 2770 889 
Q 3016 1369 3016 2328 
Q 3016 3291 2770 3770 
Q 2525 4250 2034 4250 
z
M 2034 4750 
Q 2819 4750 3233 4129 
Q 3647 3509 3647 2328 
Q 3647 1150 3233 529 
Q 2819 -91 2034 -91 
Q 1250 -91 836 529 
Q 422 1150 422 2328 
Q 422 3509 836 4129 
Q 1250 4750 2034 4750 
z
" id="DejaVuSans-30" transform="scale(0.015625)"/>
       </defs>
       <use xlink:href="#DejaVuSans-2212"/>
       <use x="83.789062" xlink:href="#DejaVuSans-31"/>
       <use x="147.412109" xlink:href="#DejaVuSans-30"/>
      </g>
     </g>
    </g>
    <g id="ytick_2">
     <g id="line2d_2">
      <path clip-path="url(#p169cc027d3)" d="M 561.6 828.135648 
L 1684.8 828.135648 
" style="fill:none;stroke:#ffffff;stroke-linecap:round;"/>
     </g>
     <g id="text_4">
      <!-- 0 -->
      <g style="fill:#262626;" transform="translate(545.10125 832.314789)scale(0.11 -0.11)">
       <use xlink:href="#DejaVuSans-30"/>
      </g>
     </g>
    </g>
    <g id="ytick_3">
     <g id="line2d_3">
      <path clip-path="url(#p169cc027d3)" d="M 561.6 638.467798 
L 1684.8 638.467798 
" style="fill:none;stroke:#ffffff;stroke-linecap:round;"/>
     </g>
     <g id="text_5">
      <!-- 10 -->
      <g style="fill:#262626;" transform="translate(538.1025 642.646938)scale(0.11 -0.11)">
       <use xlink:href="#DejaVuSans-31"/>
       <use x="63.623047" xlink:href="#DejaVuSans-30"/>
      </g>
     </g>
    </g>
    <g id="ytick_4">
     <g id="line2d_4">
      <path clip-path="url(#p169cc027d3)" d="M 561.6 448.799947 
L 1684.8 448.799947 
" style="fill:none;stroke:#ffffff;stroke-linecap:round;"/>
     </g>
     <g id="text_6">
      <!-- 20 -->
      <g style="fill:#262626;" transform="translate(538.1025 452.979088)scale(0.11 -0.11)">
       <defs>
        <path d="M 1228 531 
L 3431 531 
L 3431 0 
L 469 0 
L 469 531 
Q 828 903 1448 1529 
Q 2069 2156 2228 2338 
Q 2531 2678 2651 2914 
Q 2772 3150 2772 3378 
Q 2772 3750 2511 3984 
Q 2250 4219 1831 4219 
Q 1534 4219 1204 4116 
Q 875 4013 500 3803 
L 500 4441 
Q 881 4594 1212 4672 
Q 1544 4750 1819 4750 
Q 2544 4750 2975 4387 
Q 3406 4025 3406 3419 
Q 3406 3131 3298 2873 
Q 3191 2616 2906 2266 
Q 2828 2175 2409 1742 
Q 1991 1309 1228 531 
z
" id="DejaVuSans-32" transform="scale(0.015625)"/>
       </defs>
       <use xlink:href="#DejaVuSans-32"/>
       <use x="63.623047" xlink:href="#DejaVuSans-30"/>
      </g>
     </g>
    </g>
    <g id="ytick_5">
     <g id="line2d_5">
      <path clip-path="url(#p169cc027d3)" d="M 561.6 259.132097 
L 1684.8 259.132097 
" style="fill:none;stroke:#ffffff;stroke-linecap:round;"/>
     </g>
     <g id="text_7">
      <!-- 30 -->
      <g style="fill:#262626;" transform="translate(538.1025 263.311237)scale(0.11 -0.11)">
       <defs>
        <path d="M 2597 2516 
Q 3050 2419 3304 2112 
Q 3559 1806 3559 1356 
Q 3559 666 3084 287 
Q 2609 -91 1734 -91 
Q 1441 -91 1130 -33 
Q 819 25 488 141 
L 488 750 
Q 750 597 1062 519 
Q 1375 441 1716 441 
Q 2309 441 2620 675 
Q 2931 909 2931 1356 
Q 2931 1769 2642 2001 
Q 2353 2234 1838 2234 
L 1294 2234 
L 1294 2753 
L 1863 2753 
Q 2328 2753 2575 2939 
Q 2822 3125 2822 3475 
Q 2822 3834 2567 4026 
Q 2313 4219 1838 4219 
Q 1578 4219 1281 4162 
Q 984 4106 628 3988 
L 628 4550 
Q 988 4650 1302 4700 
Q 1616 4750 1894 4750 
Q 2613 4750 3031 4423 
Q 3450 4097 3450 3541 
Q 3450 3153 3228 2886 
Q 3006 2619 2597 2516 
z
" id="DejaVuSans-33" transform="scale(0.015625)"/>
       </defs>
       <use xlink:href="#DejaVuSans-33"/>
       <use x="63.623047" xlink:href="#DejaVuSans-30"/>
      </g>
     </g>
    </g>
    <g id="text_8">
     <!-- btc -->
     <g style="fill:#262626;" transform="translate(522.389219 591.220312)rotate(-90)scale(0.12 -0.12)">
      <use xlink:href="#DejaVuSans-62"/>
      <use x="63.476562" xlink:href="#DejaVuSans-74"/>
      <use x="102.685547" xlink:href="#DejaVuSans-63"/>
     </g>
    </g>
   </g>
   <g id="PolyCollection_1">
    <defs>
     <path d="M 1159.323413 -167.04 
L 1087.076587 -167.04 
L 1078.224754 -175.185455 
L 1067.766226 -183.330909 
L 1055.561146 -191.476364 
L 1041.495875 -199.621818 
L 1025.493592 -207.767273 
L 1007.525083 -215.912727 
L 987.619053 -224.058182 
L 965.871203 -232.203636 
L 942.451248 -240.349091 
L 917.607089 -248.494545 
L 891.665415 -256.64 
L 865.028191 -264.785455 
L 838.1647 -272.930909 
L 811.599095 -281.076364 
L 785.893764 -289.221818 
L 761.629111 -297.367273 
L 739.380722 -305.512727 
L 719.695098 -313.658182 
L 703.065402 -321.803636 
L 689.908677 -329.949091 
L 680.546038 -338.094545 
L 675.187138 -346.24 
L 673.92 -354.385455 
L 676.706902 -362.530909 
L 683.386641 -370.676364 
L 693.683012 -378.821818 
L 707.218961 -386.967273 
L 723.535419 -395.112727 
L 742.113608 -403.258182 
L 762.399342 -411.403636 
L 783.827812 -419.549091 
L 805.847384 -427.694545 
L 827.941071 -435.84 
L 849.644607 -443.985455 
L 870.560341 -452.130909 
L 890.366516 -460.276364 
L 908.821818 -468.421818 
L 925.765434 -476.567273 
L 941.113067 -484.712727 
L 954.849614 -492.858182 
L 967.019298 -501.003636 
L 977.714135 -509.149091 
L 987.061583 -517.294545 
L 995.212188 -525.44 
L 1002.327896 -533.585455 
L 1008.57161 -541.730909 
L 1014.098378 -549.876364 
L 1019.048489 -558.021818 
L 1023.542574 -566.167273 
L 1027.678703 -574.312727 
L 1031.531361 -582.458182 
L 1035.152068 -590.603636 
L 1038.571389 -598.749091 
L 1041.802001 -606.894545 
L 1044.842486 -615.04 
L 1047.681506 -623.185455 
L 1050.302044 -631.330909 
L 1052.68544 -639.476364 
L 1054.814964 -647.621818 
L 1056.678773 -655.767273 
L 1058.272118 -663.912727 
L 1059.598758 -672.058182 
L 1060.671594 -680.203636 
L 1061.512561 -688.349091 
L 1062.151909 -696.494545 
L 1062.626966 -704.64 
L 1062.980555 -712.785455 
L 1063.259192 -720.930909 
L 1063.511194 -729.076364 
L 1063.78482 -737.221818 
L 1064.126525 -745.367273 
L 1064.57939 -753.512727 
L 1065.181771 -761.658182 
L 1065.966183 -769.803636 
L 1066.958422 -777.949091 
L 1068.176936 -786.094545 
L 1069.632421 -794.24 
L 1071.327663 -802.385455 
L 1073.2576 -810.530909 
L 1075.409628 -818.676364 
L 1077.764129 -826.821818 
L 1080.295229 -834.967273 
L 1082.971768 -843.112727 
L 1085.758447 -851.258182 
L 1088.617126 -859.403636 
L 1091.508217 -867.549091 
L 1094.392098 -875.694545 
L 1097.230501 -883.84 
L 1099.987791 -891.985455 
L 1102.632074 -900.130909 
L 1105.136092 -908.276364 
L 1107.477853 -916.421818 
L 1109.640984 -924.567273 
L 1111.614811 -932.712727 
L 1113.394178 -940.858182 
L 1114.979034 -949.003636 
L 1116.373847 -957.149091 
L 1117.586886 -965.294545 
L 1118.629427 -973.44 
L 1127.770573 -973.44 
L 1127.770573 -973.44 
L 1128.813114 -965.294545 
L 1130.026153 -957.149091 
L 1131.420966 -949.003636 
L 1133.005822 -940.858182 
L 1134.785189 -932.712727 
L 1136.759016 -924.567273 
L 1138.922147 -916.421818 
L 1141.263908 -908.276364 
L 1143.767926 -900.130909 
L 1146.412209 -891.985455 
L 1149.169499 -883.84 
L 1152.007902 -875.694545 
L 1154.891783 -867.549091 
L 1157.782874 -859.403636 
L 1160.641553 -851.258182 
L 1163.428232 -843.112727 
L 1166.104771 -834.967273 
L 1168.635871 -826.821818 
L 1170.990372 -818.676364 
L 1173.1424 -810.530909 
L 1175.072337 -802.385455 
L 1176.767579 -794.24 
L 1178.223064 -786.094545 
L 1179.441578 -777.949091 
L 1180.433817 -769.803636 
L 1181.218229 -761.658182 
L 1181.82061 -753.512727 
L 1182.273475 -745.367273 
L 1182.61518 -737.221818 
L 1182.888806 -729.076364 
L 1183.140808 -720.930909 
L 1183.419445 -712.785455 
L 1183.773034 -704.64 
L 1184.248091 -696.494545 
L 1184.887439 -688.349091 
L 1185.728406 -680.203636 
L 1186.801242 -672.058182 
L 1188.127882 -663.912727 
L 1189.721227 -655.767273 
L 1191.585036 -647.621818 
L 1193.71456 -639.476364 
L 1196.097956 -631.330909 
L 1198.718494 -623.185455 
L 1201.557514 -615.04 
L 1204.597999 -606.894545 
L 1207.828611 -598.749091 
L 1211.247932 -590.603636 
L 1214.868639 -582.458182 
L 1218.721297 -574.312727 
L 1222.857426 -566.167273 
L 1227.351511 -558.021818 
L 1232.301622 -549.876364 
L 1237.82839 -541.730909 
L 1244.072104 -533.585455 
L 1251.187812 -525.44 
L 1259.338417 -517.294545 
L 1268.685865 -509.149091 
L 1279.380702 -501.003636 
L 1291.550386 -492.858182 
L 1305.286933 -484.712727 
L 1320.634566 -476.567273 
L 1337.578182 -468.421818 
L 1356.033484 -460.276364 
L 1375.839659 -452.130909 
L 1396.755393 -443.985455 
L 1418.458929 -435.84 
L 1440.552616 -427.694545 
L 1462.572188 -419.549091 
L 1484.000658 -411.403636 
L 1504.286392 -403.258182 
L 1522.864581 -395.112727 
L 1539.181039 -386.967273 
L 1552.716988 -378.821818 
L 1563.013359 -370.676364 
L 1569.693098 -362.530909 
L 1572.48 -354.385455 
L 1571.212862 -346.24 
L 1565.853962 -338.094545 
L 1556.491323 -329.949091 
L 1543.334598 -321.803636 
L 1526.704902 -313.658182 
L 1507.019278 -305.512727 
L 1484.770889 -297.367273 
L 1460.506236 -289.221818 
L 1434.800905 -281.076364 
L 1408.2353 -272.930909 
L 1381.371809 -264.785455 
L 1354.734585 -256.64 
L 1328.792911 -248.494545 
L 1303.948752 -240.349091 
L 1280.528797 -232.203636 
L 1258.780947 -224.058182 
L 1238.874917 -215.912727 
L 1220.906408 -207.767273 
L 1204.904125 -199.621818 
L 1190.838854 -191.476364 
L 1178.633774 -183.330909 
L 1168.175246 -175.185455 
L 1159.323413 -167.04 
z
" id="m091ab5716a" style="stroke:#4c4c4c;stroke-width:1.5;"/>
    </defs>
    <g clip-path="url(#p169cc027d3)">
     <use style="fill:#5875a4;stroke:#4c4c4c;stroke-width:1.5;" x="0" xlink:href="#m091ab5716a" y="1152"/>
    </g>
   </g>
   <g id="line2d_6">
    <path clip-path="url(#p169cc027d3)" d="M 1123.2 826.07272 
L 1123.2 606.250058 
" style="fill:none;stroke:#4c4c4c;stroke-linecap:round;stroke-width:1.5;"/>
   </g>
   <g id="line2d_7">
    <path clip-path="url(#p169cc027d3)" d="M 1123.2 809.874078 
L 1123.2 717.003375 
" style="fill:none;stroke:#4c4c4c;stroke-linecap:round;stroke-width:4.5;"/>
   </g>
   <g id="patch_3">
    <path d="M 561.6 1025.28 
L 561.6 138.24 
" style="fill:none;stroke:#ffffff;stroke-linecap:square;stroke-linejoin:miter;stroke-width:1.25;"/>
   </g>
   <g id="patch_4">
    <path d="M 1684.8 1025.28 
L 1684.8 138.24 
" style="fill:none;stroke:#ffffff;stroke-linecap:square;stroke-linejoin:miter;stroke-width:1.25;"/>
   </g>
   <g id="patch_5">
    <path d="M 561.6 1025.28 
L 1684.8 1025.28 
" style="fill:none;stroke:#ffffff;stroke-linecap:square;stroke-linejoin:miter;stroke-width:1.25;"/>
   </g>
   <g id="patch_6">
    <path d="M 561.6 138.24 
L 1684.8 138.24 
" style="fill:none;stroke:#ffffff;stroke-linecap:square;stroke-linejoin:miter;stroke-width:1.25;"/>
   </g>
   <g id="PathCollection_1">
    <defs>
     <path d="M 0 1.5 
C 0.397805 1.5 0.77937 1.341951 1.06066 1.06066 
C 1.341951 0.77937 1.5 0.397805 1.5 0 
C 1.5 -0.397805 1.341951 -0.77937 1.06066 -1.06066 
C 0.77937 -1.341951 0.397805 -1.5 0 -1.5 
C -0.397805 -1.5 -0.77937 -1.341951 -1.06066 -1.06066 
C -1.341951 -0.77937 -1.5 -0.397805 -1.5 0 
C -1.5 0.397805 -1.341951 0.77937 -1.06066 1.06066 
C -0.77937 1.341951 -0.397805 1.5 0 1.5 
z
" id="m5fb400ac09" style="stroke:#4c4c4c;"/>
    </defs>
    <g clip-path="url(#p169cc027d3)">
     <use style="fill:#ffffff;stroke:#4c4c4c;" x="1123.2" xlink:href="#m5fb400ac09" y="794.068324"/>
    </g>
   </g>
   <g id="text_9">
    <!-- 04-sept2014.csv - Maximum transaction amount in BTC per shipping locality -->
    <g style="fill:#262626;" transform="translate(893.23875 132.24)scale(0.12 -0.12)">
     <defs>
      <path d="M 2419 4116 
L 825 1625 
L 2419 1625 
L 2419 4116 
z
M 2253 4666 
L 3047 4666 
L 3047 1625 
L 3713 1625 
L 3713 1100 
L 3047 1100 
L 3047 0 
L 2419 0 
L 2419 1100 
L 313 1100 
L 313 1709 
L 2253 4666 
z
" id="DejaVuSans-34" transform="scale(0.015625)"/>
      <path d="M 313 2009 
L 1997 2009 
L 1997 1497 
L 313 1497 
L 313 2009 
z
" id="DejaVuSans-2d" transform="scale(0.015625)"/>
      <path d="M 3597 1894 
L 3597 1613 
L 953 1613 
Q 991 1019 1311 708 
Q 1631 397 2203 397 
Q 2534 397 2845 478 
Q 3156 559 3463 722 
L 3463 178 
Q 3153 47 2828 -22 
Q 2503 -91 2169 -91 
Q 1331 -91 842 396 
Q 353 884 353 1716 
Q 353 2575 817 3079 
Q 1281 3584 2069 3584 
Q 2775 3584 3186 3129 
Q 3597 2675 3597 1894 
z
M 3022 2063 
Q 3016 2534 2758 2815 
Q 2500 3097 2075 3097 
Q 1594 3097 1305 2825 
Q 1016 2553 972 2059 
L 3022 2063 
z
" id="DejaVuSans-65" transform="scale(0.015625)"/>
      <path d="M 684 794 
L 1344 794 
L 1344 0 
L 684 0 
L 684 794 
z
" id="DejaVuSans-2e" transform="scale(0.015625)"/>
      <path d="M 191 3500 
L 800 3500 
L 1894 563 
L 2988 3500 
L 3597 3500 
L 2284 0 
L 1503 0 
L 191 3500 
z
" id="DejaVuSans-76" transform="scale(0.015625)"/>
      <path id="DejaVuSans-20" transform="scale(0.015625)"/>
      <path d="M 628 4666 
L 1569 4666 
L 2759 1491 
L 3956 4666 
L 4897 4666 
L 4897 0 
L 4281 0 
L 4281 4097 
L 3078 897 
L 2444 897 
L 1241 4097 
L 1241 0 
L 628 0 
L 628 4666 
z
" id="DejaVuSans-4d" transform="scale(0.015625)"/>
      <path d="M 2194 1759 
Q 1497 1759 1228 1600 
Q 959 1441 959 1056 
Q 959 750 1161 570 
Q 1363 391 1709 391 
Q 2188 391 2477 730 
Q 2766 1069 2766 1631 
L 2766 1759 
L 2194 1759 
z
M 3341 1997 
L 3341 0 
L 2766 0 
L 2766 531 
Q 2569 213 2275 61 
Q 1981 -91 1556 -91 
Q 1019 -91 701 211 
Q 384 513 384 1019 
Q 384 1609 779 1909 
Q 1175 2209 1959 2209 
L 2766 2209 
L 2766 2266 
Q 2766 2663 2505 2880 
Q 2244 3097 1772 3097 
Q 1472 3097 1187 3025 
Q 903 2953 641 2809 
L 641 3341 
Q 956 3463 1253 3523 
Q 1550 3584 1831 3584 
Q 2591 3584 2966 3190 
Q 3341 2797 3341 1997 
z
" id="DejaVuSans-61" transform="scale(0.015625)"/>
      <path d="M 3513 3500 
L 2247 1797 
L 3578 0 
L 2900 0 
L 1881 1375 
L 863 0 
L 184 0 
L 1544 1831 
L 300 3500 
L 978 3500 
L 1906 2253 
L 2834 3500 
L 3513 3500 
z
" id="DejaVuSans-78" transform="scale(0.015625)"/>
      <path d="M 544 1381 
L 544 3500 
L 1119 3500 
L 1119 1403 
Q 1119 906 1312 657 
Q 1506 409 1894 409 
Q 2359 409 2629 706 
Q 2900 1003 2900 1516 
L 2900 3500 
L 3475 3500 
L 3475 0 
L 2900 0 
L 2900 538 
Q 2691 219 2414 64 
Q 2138 -91 1772 -91 
Q 1169 -91 856 284 
Q 544 659 544 1381 
z
M 1991 3584 
L 1991 3584 
z
" id="DejaVuSans-75" transform="scale(0.015625)"/>
      <path d="M 3513 2113 
L 3513 0 
L 2938 0 
L 2938 2094 
Q 2938 2591 2744 2837 
Q 2550 3084 2163 3084 
Q 1697 3084 1428 2787 
Q 1159 2491 1159 1978 
L 1159 0 
L 581 0 
L 581 3500 
L 1159 3500 
L 1159 2956 
Q 1366 3272 1645 3428 
Q 1925 3584 2291 3584 
Q 2894 3584 3203 3211 
Q 3513 2838 3513 2113 
z
" id="DejaVuSans-6e" transform="scale(0.015625)"/>
      <path d="M 1259 2228 
L 1259 519 
L 2272 519 
Q 2781 519 3026 730 
Q 3272 941 3272 1375 
Q 3272 1813 3026 2020 
Q 2781 2228 2272 2228 
L 1259 2228 
z
M 1259 4147 
L 1259 2741 
L 2194 2741 
Q 2656 2741 2882 2914 
Q 3109 3088 3109 3444 
Q 3109 3797 2882 3972 
Q 2656 4147 2194 4147 
L 1259 4147 
z
M 628 4666 
L 2241 4666 
Q 2963 4666 3353 4366 
Q 3744 4066 3744 3513 
Q 3744 3084 3544 2831 
Q 3344 2578 2956 2516 
Q 3422 2416 3680 2098 
Q 3938 1781 3938 1306 
Q 3938 681 3513 340 
Q 3088 0 2303 0 
L 628 0 
L 628 4666 
z
" id="DejaVuSans-42" transform="scale(0.015625)"/>
      <path d="M -19 4666 
L 3928 4666 
L 3928 4134 
L 2272 4134 
L 2272 0 
L 1638 0 
L 1638 4134 
L -19 4134 
L -19 4666 
z
" id="DejaVuSans-54" transform="scale(0.015625)"/>
      <path d="M 4122 4306 
L 4122 3641 
Q 3803 3938 3442 4084 
Q 3081 4231 2675 4231 
Q 1875 4231 1450 3742 
Q 1025 3253 1025 2328 
Q 1025 1406 1450 917 
Q 1875 428 2675 428 
Q 3081 428 3442 575 
Q 3803 722 4122 1019 
L 4122 359 
Q 3791 134 3420 21 
Q 3050 -91 2638 -91 
Q 1578 -91 968 557 
Q 359 1206 359 2328 
Q 359 3453 968 4101 
Q 1578 4750 2638 4750 
Q 3056 4750 3426 4639 
Q 3797 4528 4122 4306 
z
" id="DejaVuSans-43" transform="scale(0.015625)"/>
      <path d="M 2906 1791 
Q 2906 2416 2648 2759 
Q 2391 3103 1925 3103 
Q 1463 3103 1205 2759 
Q 947 2416 947 1791 
Q 947 1169 1205 825 
Q 1463 481 1925 481 
Q 2391 481 2648 825 
Q 2906 1169 2906 1791 
z
M 3481 434 
Q 3481 -459 3084 -895 
Q 2688 -1331 1869 -1331 
Q 1566 -1331 1297 -1286 
Q 1028 -1241 775 -1147 
L 775 -588 
Q 1028 -725 1275 -790 
Q 1522 -856 1778 -856 
Q 2344 -856 2625 -561 
Q 2906 -266 2906 331 
L 2906 616 
Q 2728 306 2450 153 
Q 2172 0 1784 0 
Q 1141 0 747 490 
Q 353 981 353 1791 
Q 353 2603 747 3093 
Q 1141 3584 1784 3584 
Q 2172 3584 2450 3431 
Q 2728 3278 2906 2969 
L 2906 3500 
L 3481 3500 
L 3481 434 
z
" id="DejaVuSans-67" transform="scale(0.015625)"/>
      <path d="M 603 4863 
L 1178 4863 
L 1178 0 
L 603 0 
L 603 4863 
z
" id="DejaVuSans-6c" transform="scale(0.015625)"/>
      <path d="M 2059 -325 
Q 1816 -950 1584 -1140 
Q 1353 -1331 966 -1331 
L 506 -1331 
L 506 -850 
L 844 -850 
Q 1081 -850 1212 -737 
Q 1344 -625 1503 -206 
L 1606 56 
L 191 3500 
L 800 3500 
L 1894 763 
L 2988 3500 
L 3597 3500 
L 2059 -325 
z
" id="DejaVuSans-79" transform="scale(0.015625)"/>
     </defs>
     <use xlink:href="#DejaVuSans-30"/>
     <use x="63.623047" xlink:href="#DejaVuSans-34"/>
     <use x="127.246094" xlink:href="#DejaVuSans-2d"/>
     <use x="163.330078" xlink:href="#DejaVuSans-73"/>
     <use x="215.429688" xlink:href="#DejaVuSans-65"/>
     <use x="276.953125" xlink:href="#DejaVuSans-70"/>
     <use x="340.429688" xlink:href="#DejaVuSans-74"/>
     <use x="379.638672" xlink:href="#DejaVuSans-32"/>
     <use x="443.261719" xlink:href="#DejaVuSans-30"/>
     <use x="506.884766" xlink:href="#DejaVuSans-31"/>
     <use x="570.507812" xlink:href="#DejaVuSans-34"/>
     <use x="634.130859" xlink:href="#DejaVuSans-2e"/>
     <use x="665.917969" xlink:href="#DejaVuSans-63"/>
     <use x="720.898438" xlink:href="#DejaVuSans-73"/>
     <use x="772.998047" xlink:href="#DejaVuSans-76"/>
     <use x="832.177734" xlink:href="#DejaVuSans-20"/>
     <use x="863.964844" xlink:href="#DejaVuSans-2d"/>
     <use x="900.048828" xlink:href="#DejaVuSans-20"/>
     <use x="931.835938" xlink:href="#DejaVuSans-4d"/>
     <use x="1018.115234" xlink:href="#DejaVuSans-61"/>
     <use x="1079.394531" xlink:href="#DejaVuSans-78"/>
     <use x="1138.574219" xlink:href="#DejaVuSans-69"/>
     <use x="1166.357422" xlink:href="#DejaVuSans-6d"/>
     <use x="1263.769531" xlink:href="#DejaVuSans-75"/>
     <use x="1327.148438" xlink:href="#DejaVuSans-6d"/>
     <use x="1424.560547" xlink:href="#DejaVuSans-20"/>
     <use x="1456.347656" xlink:href="#DejaVuSans-74"/>
     <use x="1495.556641" xlink:href="#DejaVuSans-72"/>
     <use x="1536.669922" xlink:href="#DejaVuSans-61"/>
     <use x="1597.949219" xlink:href="#DejaVuSans-6e"/>
     <use x="1661.328125" xlink:href="#DejaVuSans-73"/>
     <use x="1713.427734" xlink:href="#DejaVuSans-61"/>
     <use x="1774.707031" xlink:href="#DejaVuSans-63"/>
     <use x="1829.6875" xlink:href="#DejaVuSans-74"/>
     <use x="1868.896484" xlink:href="#DejaVuSans-69"/>
     <use x="1896.679688" xlink:href="#DejaVuSans-6f"/>
     <use x="1957.861328" xlink:href="#DejaVuSans-6e"/>
     <use x="2021.240234" xlink:href="#DejaVuSans-20"/>
     <use x="2053.027344" xlink:href="#DejaVuSans-61"/>
     <use x="2114.306641" xlink:href="#DejaVuSans-6d"/>
     <use x="2211.71875" xlink:href="#DejaVuSans-6f"/>
     <use x="2272.900391" xlink:href="#DejaVuSans-75"/>
     <use x="2336.279297" xlink:href="#DejaVuSans-6e"/>
     <use x="2399.658203" xlink:href="#DejaVuSans-74"/>
     <use x="2438.867188" xlink:href="#DejaVuSans-20"/>
     <use x="2470.654297" xlink:href="#DejaVuSans-69"/>
     <use x="2498.4375" xlink:href="#DejaVuSans-6e"/>
     <use x="2561.816406" xlink:href="#DejaVuSans-20"/>
     <use x="2593.603516" xlink:href="#DejaVuSans-42"/>
     <use x="2662.207031" xlink:href="#DejaVuSans-54"/>
     <use x="2717.416016" xlink:href="#DejaVuSans-43"/>
     <use x="2787.240234" xlink:href="#DejaVuSans-20"/>
     <use x="2819.027344" xlink:href="#DejaVuSans-70"/>
     <use x="2882.503906" xlink:href="#DejaVuSans-65"/>
     <use x="2944.027344" xlink:href="#DejaVuSans-72"/>
     <use x="2985.140625" xlink:href="#DejaVuSans-20"/>
     <use x="3016.927734" xlink:href="#DejaVuSans-73"/>
     <use x="3069.027344" xlink:href="#DejaVuSans-68"/>
     <use x="3132.40625" xlink:href="#DejaVuSans-69"/>
     <use x="3160.189453" xlink:href="#DejaVuSans-70"/>
     <use x="3223.666016" xlink:href="#DejaVuSans-70"/>
     <use x="3287.142578" xlink:href="#DejaVuSans-69"/>
     <use x="3314.925781" xlink:href="#DejaVuSans-6e"/>
     <use x="3378.304688" xlink:href="#DejaVuSans-67"/>
     <use x="3441.78125" xlink:href="#DejaVuSans-20"/>
     <use x="3473.568359" xlink:href="#DejaVuSans-6c"/>
     <use x="3501.351562" xlink:href="#DejaVuSans-6f"/>
     <use x="3562.533203" xlink:href="#DejaVuSans-63"/>
     <use x="3617.513672" xlink:href="#DejaVuSans-61"/>
     <use x="3678.792969" xlink:href="#DejaVuSans-6c"/>
     <use x="3706.576172" xlink:href="#DejaVuSans-69"/>
     <use x="3734.359375" xlink:href="#DejaVuSans-74"/>
     <use x="3773.568359" xlink:href="#DejaVuSans-79"/>
    </g>
   </g>
  </g>
 </g>
 <defs>
  <clipPath id="p169cc027d3">
   <rect height="887.04" width="1123.2" x="561.6" y="138.24"/>
  </clipPath>
 </defs>
</svg>
