<?xml version="1.0" encoding="utf-8" standalone="no"?>
<!DOCTYPE svg PUBLIC "-//W3C//DTD SVG 1.1//EN"
  "http://www.w3.org/Graphics/SVG/1.1/DTD/svg11.dtd">
<svg height="1152pt" version="1.1" viewBox="0 0 1872 1152" width="1872pt" xmlns="http://www.w3.org/2000/svg" xmlns:xlink="http://www.w3.org/1999/xlink">
 <metadata>
  <rdf:RDF xmlns:cc="http://creativecommons.org/ns#" xmlns:dc="http://purl.org/dc/elements/1.1/" xmlns:rdf="http://www.w3.org/1999/02/22-rdf-syntax-ns#">
   <cc:Work>
    <dc:type rdf:resource="http://purl.org/dc/dcmitype/StillImage"/>
    <dc:date>2021-07-18T23:03:07.584743</dc:date>
    <dc:format>image/svg+xml</dc:format>
    <dc:creator>
     <cc:Agent>
      <dc:title>Matplotlib v3.4.2, https://matplotlib.org/</dc:title>
     </cc:Agent>
    </dc:creator>
   </cc:Work>
  </rdf:RDF>
 </metadata>
 <defs>
  <style type="text/css">*{stroke-linecap:butt;stroke-linejoin:round;}</style>
 </defs>
 <g id="figure_1">
  <g id="patch_1">
   <path d="M 0 1152 
L 1872 1152 
L 1872 0 
L 0 0 
z
" style="fill:#ffffff;"/>
  </g>
  <g id="axes_1">
   <g id="patch_2">
    <path d="M 561.6 1025.28 
L 1684.8 1025.28 
L 1684.8 138.24 
L 561.6 138.24 
z
" style="fill:#eaeaf2;"/>
   </g>
   <g id="matplotlib.axis_1">
    <g id="xtick_1">
     <g id="text_1">
      <!-- btc -->
      <g style="fill:#262626;" transform="translate(1114.528047 1043.138281)scale(0.11 -0.11)">
       <defs>
        <path d="M 3116 1747 
Q 3116 2381 2855 2742 
Q 2594 3103 2138 3103 
Q 1681 3103 1420 2742 
Q 1159 2381 1159 1747 
Q 1159 1113 1420 752 
Q 1681 391 2138 391 
Q 2594 391 2855 752 
Q 3116 1113 3116 1747 
z
M 1159 2969 
Q 1341 3281 1617 3432 
Q 1894 3584 2278 3584 
Q 2916 3584 3314 3078 
Q 3713 2572 3713 1747 
Q 3713 922 3314 415 
Q 2916 -91 2278 -91 
Q 1894 -91 1617 61 
Q 1341 213 1159 525 
L 1159 0 
L 581 0 
L 581 4863 
L 1159 4863 
L 1159 2969 
z
" id="DejaVuSans-62" transform="scale(0.015625)"/>
        <path d="M 1172 4494 
L 1172 3500 
L 2356 3500 
L 2356 3053 
L 1172 3053 
L 1172 1153 
Q 1172 725 1289 603 
Q 1406 481 1766 481 
L 2356 481 
L 2356 0 
L 1766 0 
Q 1100 0 847 248 
Q 594 497 594 1153 
L 594 3053 
L 172 3053 
L 172 3500 
L 594 3500 
L 594 4494 
L 1172 4494 
z
" id="DejaVuSans-74" transform="scale(0.015625)"/>
        <path d="M 3122 3366 
L 3122 2828 
Q 2878 2963 2633 3030 
Q 2388 3097 2138 3097 
Q 1578 3097 1268 2742 
Q 959 2388 959 1747 
Q 959 1106 1268 751 
Q 1578 397 2138 397 
Q 2388 397 2633 464 
Q 2878 531 3122 666 
L 3122 134 
Q 2881 22 2623 -34 
Q 2366 -91 2075 -91 
Q 1284 -91 818 406 
Q 353 903 353 1747 
Q 353 2603 823 3093 
Q 1294 3584 2113 3584 
Q 2378 3584 2631 3529 
Q 2884 3475 3122 3366 
z
" id="DejaVuSans-63" transform="scale(0.015625)"/>
       </defs>
       <use xlink:href="#DejaVuSans-62"/>
       <use x="63.476562" xlink:href="#DejaVuSans-74"/>
       <use x="102.685547" xlink:href="#DejaVuSans-63"/>
      </g>
     </g>
    </g>
    <g id="text_2">
     <!-- ship_from -->
     <g style="fill:#262626;" transform="translate(1093.836563 1058.544063)scale(0.12 -0.12)">
      <defs>
       <path d="M 2834 3397 
L 2834 2853 
Q 2591 2978 2328 3040 
Q 2066 3103 1784 3103 
Q 1356 3103 1142 2972 
Q 928 2841 928 2578 
Q 928 2378 1081 2264 
Q 1234 2150 1697 2047 
L 1894 2003 
Q 2506 1872 2764 1633 
Q 3022 1394 3022 966 
Q 3022 478 2636 193 
Q 2250 -91 1575 -91 
Q 1294 -91 989 -36 
Q 684 19 347 128 
L 347 722 
Q 666 556 975 473 
Q 1284 391 1588 391 
Q 1994 391 2212 530 
Q 2431 669 2431 922 
Q 2431 1156 2273 1281 
Q 2116 1406 1581 1522 
L 1381 1569 
Q 847 1681 609 1914 
Q 372 2147 372 2553 
Q 372 3047 722 3315 
Q 1072 3584 1716 3584 
Q 2034 3584 2315 3537 
Q 2597 3491 2834 3397 
z
" id="DejaVuSans-73" transform="scale(0.015625)"/>
       <path d="M 3513 2113 
L 3513 0 
L 2938 0 
L 2938 2094 
Q 2938 2591 2744 2837 
Q 2550 3084 2163 3084 
Q 1697 3084 1428 2787 
Q 1159 2491 1159 1978 
L 1159 0 
L 581 0 
L 581 4863 
L 1159 4863 
L 1159 2956 
Q 1366 3272 1645 3428 
Q 1925 3584 2291 3584 
Q 2894 3584 3203 3211 
Q 3513 2838 3513 2113 
z
" id="DejaVuSans-68" transform="scale(0.015625)"/>
       <path d="M 603 3500 
L 1178 3500 
L 1178 0 
L 603 0 
L 603 3500 
z
M 603 4863 
L 1178 4863 
L 1178 4134 
L 603 4134 
L 603 4863 
z
" id="DejaVuSans-69" transform="scale(0.015625)"/>
       <path d="M 1159 525 
L 1159 -1331 
L 581 -1331 
L 581 3500 
L 1159 3500 
L 1159 2969 
Q 1341 3281 1617 3432 
Q 1894 3584 2278 3584 
Q 2916 3584 3314 3078 
Q 3713 2572 3713 1747 
Q 3713 922 3314 415 
Q 2916 -91 2278 -91 
Q 1894 -91 1617 61 
Q 1341 213 1159 525 
z
M 3116 1747 
Q 3116 2381 2855 2742 
Q 2594 3103 2138 3103 
Q 1681 3103 1420 2742 
Q 1159 2381 1159 1747 
Q 1159 1113 1420 752 
Q 1681 391 2138 391 
Q 2594 391 2855 752 
Q 3116 1113 3116 1747 
z
" id="DejaVuSans-70" transform="scale(0.015625)"/>
       <path d="M 3263 -1063 
L 3263 -1509 
L -63 -1509 
L -63 -1063 
L 3263 -1063 
z
" id="DejaVuSans-5f" transform="scale(0.015625)"/>
       <path d="M 2375 4863 
L 2375 4384 
L 1825 4384 
Q 1516 4384 1395 4259 
Q 1275 4134 1275 3809 
L 1275 3500 
L 2222 3500 
L 2222 3053 
L 1275 3053 
L 1275 0 
L 697 0 
L 697 3053 
L 147 3053 
L 147 3500 
L 697 3500 
L 697 3744 
Q 697 4328 969 4595 
Q 1241 4863 1831 4863 
L 2375 4863 
z
" id="DejaVuSans-66" transform="scale(0.015625)"/>
       <path d="M 2631 2963 
Q 2534 3019 2420 3045 
Q 2306 3072 2169 3072 
Q 1681 3072 1420 2755 
Q 1159 2438 1159 1844 
L 1159 0 
L 581 0 
L 581 3500 
L 1159 3500 
L 1159 2956 
Q 1341 3275 1631 3429 
Q 1922 3584 2338 3584 
Q 2397 3584 2469 3576 
Q 2541 3569 2628 3553 
L 2631 2963 
z
" id="DejaVuSans-72" transform="scale(0.015625)"/>
       <path d="M 1959 3097 
Q 1497 3097 1228 2736 
Q 959 2375 959 1747 
Q 959 1119 1226 758 
Q 1494 397 1959 397 
Q 2419 397 2687 759 
Q 2956 1122 2956 1747 
Q 2956 2369 2687 2733 
Q 2419 3097 1959 3097 
z
M 1959 3584 
Q 2709 3584 3137 3096 
Q 3566 2609 3566 1747 
Q 3566 888 3137 398 
Q 2709 -91 1959 -91 
Q 1206 -91 779 398 
Q 353 888 353 1747 
Q 353 2609 779 3096 
Q 1206 3584 1959 3584 
z
" id="DejaVuSans-6f" transform="scale(0.015625)"/>
       <path d="M 3328 2828 
Q 3544 3216 3844 3400 
Q 4144 3584 4550 3584 
Q 5097 3584 5394 3201 
Q 5691 2819 5691 2113 
L 5691 0 
L 5113 0 
L 5113 2094 
Q 5113 2597 4934 2840 
Q 4756 3084 4391 3084 
Q 3944 3084 3684 2787 
Q 3425 2491 3425 1978 
L 3425 0 
L 2847 0 
L 2847 2094 
Q 2847 2600 2669 2842 
Q 2491 3084 2119 3084 
Q 1678 3084 1418 2786 
Q 1159 2488 1159 1978 
L 1159 0 
L 581 0 
L 581 3500 
L 1159 3500 
L 1159 2956 
Q 1356 3278 1631 3431 
Q 1906 3584 2284 3584 
Q 2666 3584 2933 3390 
Q 3200 3197 3328 2828 
z
" id="DejaVuSans-6d" transform="scale(0.015625)"/>
      </defs>
      <use xlink:href="#DejaVuSans-73"/>
      <use x="52.099609" xlink:href="#DejaVuSans-68"/>
      <use x="115.478516" xlink:href="#DejaVuSans-69"/>
      <use x="143.261719" xlink:href="#DejaVuSans-70"/>
      <use x="206.738281" xlink:href="#DejaVuSans-5f"/>
      <use x="256.738281" xlink:href="#DejaVuSans-66"/>
      <use x="291.943359" xlink:href="#DejaVuSans-72"/>
      <use x="330.806641" xlink:href="#DejaVuSans-6f"/>
      <use x="391.988281" xlink:href="#DejaVuSans-6d"/>
     </g>
    </g>
   </g>
   <g id="matplotlib.axis_2">
    <g id="ytick_1">
     <g id="line2d_1">
      <path clip-path="url(#p46617632b8)" d="M 561.6 1018.495418 
L 1684.8 1018.495418 
" style="fill:none;stroke:#ffffff;stroke-linecap:round;"/>
     </g>
     <g id="text_3">
      <!-- −50000 -->
      <g style="fill:#262626;" transform="translate(507.888594 1022.674558)scale(0.11 -0.11)">
       <defs>
        <path d="M 678 2272 
L 4684 2272 
L 4684 1741 
L 678 1741 
L 678 2272 
z
" id="DejaVuSans-2212" transform="scale(0.015625)"/>
        <path d="M 691 4666 
L 3169 4666 
L 3169 4134 
L 1269 4134 
L 1269 2991 
Q 1406 3038 1543 3061 
Q 1681 3084 1819 3084 
Q 2600 3084 3056 2656 
Q 3513 2228 3513 1497 
Q 3513 744 3044 326 
Q 2575 -91 1722 -91 
Q 1428 -91 1123 -41 
Q 819 9 494 109 
L 494 744 
Q 775 591 1075 516 
Q 1375 441 1709 441 
Q 2250 441 2565 725 
Q 2881 1009 2881 1497 
Q 2881 1984 2565 2268 
Q 2250 2553 1709 2553 
Q 1456 2553 1204 2497 
Q 953 2441 691 2322 
L 691 4666 
z
" id="DejaVuSans-35" transform="scale(0.015625)"/>
        <path d="M 2034 4250 
Q 1547 4250 1301 3770 
Q 1056 3291 1056 2328 
Q 1056 1369 1301 889 
Q 1547 409 2034 409 
Q 2525 409 2770 889 
Q 3016 1369 3016 2328 
Q 3016 3291 2770 3770 
Q 2525 4250 2034 4250 
z
M 2034 4750 
Q 2819 4750 3233 4129 
Q 3647 3509 3647 2328 
Q 3647 1150 3233 529 
Q 2819 -91 2034 -91 
Q 1250 -91 836 529 
Q 422 1150 422 2328 
Q 422 3509 836 4129 
Q 1250 4750 2034 4750 
z
" id="DejaVuSans-30" transform="scale(0.015625)"/>
       </defs>
       <use xlink:href="#DejaVuSans-2212"/>
       <use x="83.789062" xlink:href="#DejaVuSans-35"/>
       <use x="147.412109" xlink:href="#DejaVuSans-30"/>
       <use x="211.035156" xlink:href="#DejaVuSans-30"/>
       <use x="274.658203" xlink:href="#DejaVuSans-30"/>
       <use x="338.28125" xlink:href="#DejaVuSans-30"/>
      </g>
     </g>
    </g>
    <g id="ytick_2">
     <g id="line2d_2">
      <path clip-path="url(#p46617632b8)" d="M 561.6 887.726879 
L 1684.8 887.726879 
" style="fill:none;stroke:#ffffff;stroke-linecap:round;"/>
     </g>
     <g id="text_4">
      <!-- 0 -->
      <g style="fill:#262626;" transform="translate(545.10125 891.906019)scale(0.11 -0.11)">
       <use xlink:href="#DejaVuSans-30"/>
      </g>
     </g>
    </g>
    <g id="ytick_3">
     <g id="line2d_3">
      <path clip-path="url(#p46617632b8)" d="M 561.6 756.95834 
L 1684.8 756.95834 
" style="fill:none;stroke:#ffffff;stroke-linecap:round;"/>
     </g>
     <g id="text_5">
      <!-- 50000 -->
      <g style="fill:#262626;" transform="translate(517.10625 761.13748)scale(0.11 -0.11)">
       <use xlink:href="#DejaVuSans-35"/>
       <use x="63.623047" xlink:href="#DejaVuSans-30"/>
       <use x="127.246094" xlink:href="#DejaVuSans-30"/>
       <use x="190.869141" xlink:href="#DejaVuSans-30"/>
       <use x="254.492188" xlink:href="#DejaVuSans-30"/>
      </g>
     </g>
    </g>
    <g id="ytick_4">
     <g id="line2d_4">
      <path clip-path="url(#p46617632b8)" d="M 561.6 626.189801 
L 1684.8 626.189801 
" style="fill:none;stroke:#ffffff;stroke-linecap:round;"/>
     </g>
     <g id="text_6">
      <!-- 100000 -->
      <g style="fill:#262626;" transform="translate(510.1075 630.368941)scale(0.11 -0.11)">
       <defs>
        <path d="M 794 531 
L 1825 531 
L 1825 4091 
L 703 3866 
L 703 4441 
L 1819 4666 
L 2450 4666 
L 2450 531 
L 3481 531 
L 3481 0 
L 794 0 
L 794 531 
z
" id="DejaVuSans-31" transform="scale(0.015625)"/>
       </defs>
       <use xlink:href="#DejaVuSans-31"/>
       <use x="63.623047" xlink:href="#DejaVuSans-30"/>
       <use x="127.246094" xlink:href="#DejaVuSans-30"/>
       <use x="190.869141" xlink:href="#DejaVuSans-30"/>
       <use x="254.492188" xlink:href="#DejaVuSans-30"/>
       <use x="318.115234" xlink:href="#DejaVuSans-30"/>
      </g>
     </g>
    </g>
    <g id="ytick_5">
     <g id="line2d_5">
      <path clip-path="url(#p46617632b8)" d="M 561.6 495.421262 
L 1684.8 495.421262 
" style="fill:none;stroke:#ffffff;stroke-linecap:round;"/>
     </g>
     <g id="text_7">
      <!-- 150000 -->
      <g style="fill:#262626;" transform="translate(510.1075 499.600403)scale(0.11 -0.11)">
       <use xlink:href="#DejaVuSans-31"/>
       <use x="63.623047" xlink:href="#DejaVuSans-35"/>
       <use x="127.246094" xlink:href="#DejaVuSans-30"/>
       <use x="190.869141" xlink:href="#DejaVuSans-30"/>
       <use x="254.492188" xlink:href="#DejaVuSans-30"/>
       <use x="318.115234" xlink:href="#DejaVuSans-30"/>
      </g>
     </g>
    </g>
    <g id="ytick_6">
     <g id="line2d_6">
      <path clip-path="url(#p46617632b8)" d="M 561.6 364.652723 
L 1684.8 364.652723 
" style="fill:none;stroke:#ffffff;stroke-linecap:round;"/>
     </g>
     <g id="text_8">
      <!-- 200000 -->
      <g style="fill:#262626;" transform="translate(510.1075 368.831864)scale(0.11 -0.11)">
       <defs>
        <path d="M 1228 531 
L 3431 531 
L 3431 0 
L 469 0 
L 469 531 
Q 828 903 1448 1529 
Q 2069 2156 2228 2338 
Q 2531 2678 2651 2914 
Q 2772 3150 2772 3378 
Q 2772 3750 2511 3984 
Q 2250 4219 1831 4219 
Q 1534 4219 1204 4116 
Q 875 4013 500 3803 
L 500 4441 
Q 881 4594 1212 4672 
Q 1544 4750 1819 4750 
Q 2544 4750 2975 4387 
Q 3406 4025 3406 3419 
Q 3406 3131 3298 2873 
Q 3191 2616 2906 2266 
Q 2828 2175 2409 1742 
Q 1991 1309 1228 531 
z
" id="DejaVuSans-32" transform="scale(0.015625)"/>
       </defs>
       <use xlink:href="#DejaVuSans-32"/>
       <use x="63.623047" xlink:href="#DejaVuSans-30"/>
       <use x="127.246094" xlink:href="#DejaVuSans-30"/>
       <use x="190.869141" xlink:href="#DejaVuSans-30"/>
       <use x="254.492188" xlink:href="#DejaVuSans-30"/>
       <use x="318.115234" xlink:href="#DejaVuSans-30"/>
      </g>
     </g>
    </g>
    <g id="ytick_7">
     <g id="line2d_7">
      <path clip-path="url(#p46617632b8)" d="M 561.6 233.884184 
L 1684.8 233.884184 
" style="fill:none;stroke:#ffffff;stroke-linecap:round;"/>
     </g>
     <g id="text_9">
      <!-- 250000 -->
      <g style="fill:#262626;" transform="translate(510.1075 238.063325)scale(0.11 -0.11)">
       <use xlink:href="#DejaVuSans-32"/>
       <use x="63.623047" xlink:href="#DejaVuSans-35"/>
       <use x="127.246094" xlink:href="#DejaVuSans-30"/>
       <use x="190.869141" xlink:href="#DejaVuSans-30"/>
       <use x="254.492188" xlink:href="#DejaVuSans-30"/>
       <use x="318.115234" xlink:href="#DejaVuSans-30"/>
      </g>
     </g>
    </g>
    <g id="text_10">
     <!-- btc -->
     <g style="fill:#262626;" transform="translate(501.392969 591.220312)rotate(-90)scale(0.12 -0.12)">
      <use xlink:href="#DejaVuSans-62"/>
      <use x="63.476562" xlink:href="#DejaVuSans-74"/>
      <use x="102.685547" xlink:href="#DejaVuSans-63"/>
     </g>
    </g>
   </g>
   <g id="PolyCollection_1">
    <defs>
     <path d="M 1177.148461 -167.04 
L 1069.251539 -167.04 
L 1048.355572 -175.185455 
L 1022.204914 -183.330909 
L 990.63691 -191.476364 
L 953.940893 -199.621818 
L 912.95812 -207.767273 
L 869.125226 -215.912727 
L 824.438322 -224.058182 
L 781.325957 -232.203636 
L 742.435559 -240.349091 
L 710.356558 -248.494545 
L 687.319644 -256.64 
L 674.921031 -264.785455 
L 673.92 -272.930909 
L 684.146627 -281.076364 
L 704.536627 -289.221818 
L 733.286264 -297.367273 
L 768.097975 -305.512727 
L 806.47197 -313.658182 
L 845.993901 -321.803636 
L 884.57412 -329.949091 
L 920.607939 -338.094545 
L 953.044565 -346.24 
L 981.370355 -354.385455 
L 1005.52596 -362.530909 
L 1025.784456 -370.676364 
L 1042.618367 -378.821818 
L 1056.578831 -386.967273 
L 1068.20218 -395.112727 
L 1077.950397 -403.258182 
L 1086.184193 -411.403636 
L 1093.162182 -419.549091 
L 1099.057091 -427.694545 
L 1103.979973 -435.84 
L 1108.005109 -443.985455 
L 1111.190872 -452.130909 
L 1113.59447 -460.276364 
L 1115.280503 -468.421818 
L 1116.324559 -476.567273 
L 1116.813458 -484.712727 
L 1116.843554 -492.858182 
L 1116.517984 -501.003636 
L 1115.94318 -509.149091 
L 1115.22462 -517.294545 
L 1114.461729 -525.44 
L 1113.742072 -533.585455 
L 1113.135359 -541.730909 
L 1112.688195 -549.876364 
L 1112.420644 -558.021818 
L 1112.32567 -566.167273 
L 1112.372045 -574.312727 
L 1112.510746 -582.458182 
L 1112.684096 -590.603636 
L 1112.836286 -598.749091 
L 1112.923528 -606.894545 
L 1112.922049 -615.04 
L 1112.832468 -623.185455 
L 1112.679777 -631.330909 
L 1112.508953 -639.476364 
L 1112.377057 -647.621818 
L 1112.343343 -655.767273 
L 1112.45921 -663.912727 
L 1112.759796 -672.058182 
L 1113.258605 -680.203636 
L 1113.945886 -688.349091 
L 1114.790705 -696.494545 
L 1115.745977 -704.64 
L 1116.755208 -712.785455 
L 1117.759562 -720.930909 
L 1118.703988 -729.076364 
L 1119.541539 -737.221818 
L 1120.235538 -745.367273 
L 1120.759775 -753.512727 
L 1121.09731 -761.658182 
L 1121.238697 -769.803636 
L 1121.180424 -777.949091 
L 1120.924188 -786.094545 
L 1120.477297 -794.24 
L 1119.854088 -802.385455 
L 1119.077888 -810.530909 
L 1118.182812 -818.676364 
L 1117.214548 -826.821818 
L 1116.229455 -834.967273 
L 1115.291569 -843.112727 
L 1114.46757 -851.258182 
L 1113.820288 -859.403636 
L 1113.401709 -867.549091 
L 1113.24669 -875.694545 
L 1113.368572 -883.84 
L 1113.757527 -891.985455 
L 1114.382018 -900.130909 
L 1115.193104 -908.276364 
L 1116.130816 -916.421818 
L 1117.131465 -924.567273 
L 1118.134672 -932.712727 
L 1119.089068 -940.858182 
L 1119.955992 -949.003636 
L 1120.710956 -957.149091 
L 1121.343085 -965.294545 
L 1121.853023 -973.44 
L 1124.546977 -973.44 
L 1124.546977 -973.44 
L 1125.056915 -965.294545 
L 1125.689044 -957.149091 
L 1126.444008 -949.003636 
L 1127.310932 -940.858182 
L 1128.265328 -932.712727 
L 1129.268535 -924.567273 
L 1130.269184 -916.421818 
L 1131.206896 -908.276364 
L 1132.017982 -900.130909 
L 1132.642473 -891.985455 
L 1133.031428 -883.84 
L 1133.15331 -875.694545 
L 1132.998291 -867.549091 
L 1132.579712 -859.403636 
L 1131.93243 -851.258182 
L 1131.108431 -843.112727 
L 1130.170545 -834.967273 
L 1129.185452 -826.821818 
L 1128.217188 -818.676364 
L 1127.322112 -810.530909 
L 1126.545912 -802.385455 
L 1125.922703 -794.24 
L 1125.475812 -786.094545 
L 1125.219576 -777.949091 
L 1125.161303 -769.803636 
L 1125.30269 -761.658182 
L 1125.640225 -753.512727 
L 1126.164462 -745.367273 
L 1126.858461 -737.221818 
L 1127.696012 -729.076364 
L 1128.640438 -720.930909 
L 1129.644792 -712.785455 
L 1130.654023 -704.64 
L 1131.609295 -696.494545 
L 1132.454114 -688.349091 
L 1133.141395 -680.203636 
L 1133.640204 -672.058182 
L 1133.94079 -663.912727 
L 1134.056657 -655.767273 
L 1134.022943 -647.621818 
L 1133.891047 -639.476364 
L 1133.720223 -631.330909 
L 1133.567532 -623.185455 
L 1133.477951 -615.04 
L 1133.476472 -606.894545 
L 1133.563714 -598.749091 
L 1133.715904 -590.603636 
L 1133.889254 -582.458182 
L 1134.027955 -574.312727 
L 1134.07433 -566.167273 
L 1133.979356 -558.021818 
L 1133.711805 -549.876364 
L 1133.264641 -541.730909 
L 1132.657928 -533.585455 
L 1131.938271 -525.44 
L 1131.17538 -517.294545 
L 1130.45682 -509.149091 
L 1129.882016 -501.003636 
L 1129.556446 -492.858182 
L 1129.586542 -484.712727 
L 1130.075441 -476.567273 
L 1131.119497 -468.421818 
L 1132.80553 -460.276364 
L 1135.209128 -452.130909 
L 1138.394891 -443.985455 
L 1142.420027 -435.84 
L 1147.342909 -427.694545 
L 1153.237818 -419.549091 
L 1160.215807 -411.403636 
L 1168.449603 -403.258182 
L 1178.19782 -395.112727 
L 1189.821169 -386.967273 
L 1203.781633 -378.821818 
L 1220.615544 -370.676364 
L 1240.87404 -362.530909 
L 1265.029645 -354.385455 
L 1293.355435 -346.24 
L 1325.792061 -338.094545 
L 1361.82588 -329.949091 
L 1400.406099 -321.803636 
L 1439.92803 -313.658182 
L 1478.302025 -305.512727 
L 1513.113736 -297.367273 
L 1541.863373 -289.221818 
L 1562.253373 -281.076364 
L 1572.48 -272.930909 
L 1571.478969 -264.785455 
L 1559.080356 -256.64 
L 1536.043442 -248.494545 
L 1503.964441 -240.349091 
L 1465.074043 -232.203636 
L 1421.961678 -224.058182 
L 1377.274774 -215.912727 
L 1333.44188 -207.767273 
L 1292.459107 -199.621818 
L 1255.76309 -191.476364 
L 1224.195086 -183.330909 
L 1198.044428 -175.185455 
L 1177.148461 -167.04 
z
" id="ma74603404c" style="stroke:#4c4c4c;stroke-width:1.5;"/>
    </defs>
    <g clip-path="url(#p46617632b8)">
     <use style="fill:#5875a4;stroke:#4c4c4c;stroke-width:1.5;" x="0" xlink:href="#ma74603404c" y="1152"/>
    </g>
   </g>
   <g id="line2d_8">
    <path clip-path="url(#p46617632b8)" d="M 1123.2 887.726655 
L 1123.2 875.901167 
" style="fill:none;stroke:#4c4c4c;stroke-linecap:round;stroke-width:1.5;"/>
   </g>
   <g id="line2d_9">
    <path clip-path="url(#p46617632b8)" d="M 1123.2 887.646422 
L 1123.2 879.059005 
" style="fill:none;stroke:#4c4c4c;stroke-linecap:round;stroke-width:4.5;"/>
   </g>
   <g id="patch_3">
    <path d="M 561.6 1025.28 
L 561.6 138.24 
" style="fill:none;stroke:#ffffff;stroke-linecap:square;stroke-linejoin:miter;stroke-width:1.25;"/>
   </g>
   <g id="patch_4">
    <path d="M 1684.8 1025.28 
L 1684.8 138.24 
" style="fill:none;stroke:#ffffff;stroke-linecap:square;stroke-linejoin:miter;stroke-width:1.25;"/>
   </g>
   <g id="patch_5">
    <path d="M 561.6 1025.28 
L 1684.8 1025.28 
" style="fill:none;stroke:#ffffff;stroke-linecap:square;stroke-linejoin:miter;stroke-width:1.25;"/>
   </g>
   <g id="patch_6">
    <path d="M 561.6 138.24 
L 1684.8 138.24 
" style="fill:none;stroke:#ffffff;stroke-linecap:square;stroke-linejoin:miter;stroke-width:1.25;"/>
   </g>
   <g id="PathCollection_1">
    <defs>
     <path d="M 0 1.5 
C 0.397805 1.5 0.77937 1.341951 1.06066 1.06066 
C 1.341951 0.77937 1.5 0.397805 1.5 0 
C 1.5 -0.397805 1.341951 -0.77937 1.06066 -1.06066 
C 0.77937 -1.341951 0.397805 -1.5 0 -1.5 
C -0.397805 -1.5 -0.77937 -1.341951 -1.06066 -1.06066 
C -1.341951 -0.77937 -1.5 -0.397805 -1.5 0 
C -1.5 0.397805 -1.341951 0.77937 -1.06066 1.06066 
C -0.77937 1.341951 -0.397805 1.5 0 1.5 
z
" id="mef7245ad71" style="stroke:#4c4c4c;"/>
    </defs>
    <g clip-path="url(#p46617632b8)">
     <use style="fill:#ffffff;stroke:#4c4c4c;" x="1123.2" xlink:href="#mef7245ad71" y="887.134478"/>
    </g>
   </g>
   <g id="text_11">
    <!-- 09-feb2015.csv - Sum of all transaction amounts in BTC per shipping locality -->
    <g style="fill:#262626;" transform="translate(892.978125 132.24)scale(0.12 -0.12)">
     <defs>
      <path d="M 703 97 
L 703 672 
Q 941 559 1184 500 
Q 1428 441 1663 441 
Q 2288 441 2617 861 
Q 2947 1281 2994 2138 
Q 2813 1869 2534 1725 
Q 2256 1581 1919 1581 
Q 1219 1581 811 2004 
Q 403 2428 403 3163 
Q 403 3881 828 4315 
Q 1253 4750 1959 4750 
Q 2769 4750 3195 4129 
Q 3622 3509 3622 2328 
Q 3622 1225 3098 567 
Q 2575 -91 1691 -91 
Q 1453 -91 1209 -44 
Q 966 3 703 97 
z
M 1959 2075 
Q 2384 2075 2632 2365 
Q 2881 2656 2881 3163 
Q 2881 3666 2632 3958 
Q 2384 4250 1959 4250 
Q 1534 4250 1286 3958 
Q 1038 3666 1038 3163 
Q 1038 2656 1286 2365 
Q 1534 2075 1959 2075 
z
" id="DejaVuSans-39" transform="scale(0.015625)"/>
      <path d="M 313 2009 
L 1997 2009 
L 1997 1497 
L 313 1497 
L 313 2009 
z
" id="DejaVuSans-2d" transform="scale(0.015625)"/>
      <path d="M 3597 1894 
L 3597 1613 
L 953 1613 
Q 991 1019 1311 708 
Q 1631 397 2203 397 
Q 2534 397 2845 478 
Q 3156 559 3463 722 
L 3463 178 
Q 3153 47 2828 -22 
Q 2503 -91 2169 -91 
Q 1331 -91 842 396 
Q 353 884 353 1716 
Q 353 2575 817 3079 
Q 1281 3584 2069 3584 
Q 2775 3584 3186 3129 
Q 3597 2675 3597 1894 
z
M 3022 2063 
Q 3016 2534 2758 2815 
Q 2500 3097 2075 3097 
Q 1594 3097 1305 2825 
Q 1016 2553 972 2059 
L 3022 2063 
z
" id="DejaVuSans-65" transform="scale(0.015625)"/>
      <path d="M 684 794 
L 1344 794 
L 1344 0 
L 684 0 
L 684 794 
z
" id="DejaVuSans-2e" transform="scale(0.015625)"/>
      <path d="M 191 3500 
L 800 3500 
L 1894 563 
L 2988 3500 
L 3597 3500 
L 2284 0 
L 1503 0 
L 191 3500 
z
" id="DejaVuSans-76" transform="scale(0.015625)"/>
      <path id="DejaVuSans-20" transform="scale(0.015625)"/>
      <path d="M 3425 4513 
L 3425 3897 
Q 3066 4069 2747 4153 
Q 2428 4238 2131 4238 
Q 1616 4238 1336 4038 
Q 1056 3838 1056 3469 
Q 1056 3159 1242 3001 
Q 1428 2844 1947 2747 
L 2328 2669 
Q 3034 2534 3370 2195 
Q 3706 1856 3706 1288 
Q 3706 609 3251 259 
Q 2797 -91 1919 -91 
Q 1588 -91 1214 -16 
Q 841 59 441 206 
L 441 856 
Q 825 641 1194 531 
Q 1563 422 1919 422 
Q 2459 422 2753 634 
Q 3047 847 3047 1241 
Q 3047 1584 2836 1778 
Q 2625 1972 2144 2069 
L 1759 2144 
Q 1053 2284 737 2584 
Q 422 2884 422 3419 
Q 422 4038 858 4394 
Q 1294 4750 2059 4750 
Q 2388 4750 2728 4690 
Q 3069 4631 3425 4513 
z
" id="DejaVuSans-53" transform="scale(0.015625)"/>
      <path d="M 544 1381 
L 544 3500 
L 1119 3500 
L 1119 1403 
Q 1119 906 1312 657 
Q 1506 409 1894 409 
Q 2359 409 2629 706 
Q 2900 1003 2900 1516 
L 2900 3500 
L 3475 3500 
L 3475 0 
L 2900 0 
L 2900 538 
Q 2691 219 2414 64 
Q 2138 -91 1772 -91 
Q 1169 -91 856 284 
Q 544 659 544 1381 
z
M 1991 3584 
L 1991 3584 
z
" id="DejaVuSans-75" transform="scale(0.015625)"/>
      <path d="M 2194 1759 
Q 1497 1759 1228 1600 
Q 959 1441 959 1056 
Q 959 750 1161 570 
Q 1363 391 1709 391 
Q 2188 391 2477 730 
Q 2766 1069 2766 1631 
L 2766 1759 
L 2194 1759 
z
M 3341 1997 
L 3341 0 
L 2766 0 
L 2766 531 
Q 2569 213 2275 61 
Q 1981 -91 1556 -91 
Q 1019 -91 701 211 
Q 384 513 384 1019 
Q 384 1609 779 1909 
Q 1175 2209 1959 2209 
L 2766 2209 
L 2766 2266 
Q 2766 2663 2505 2880 
Q 2244 3097 1772 3097 
Q 1472 3097 1187 3025 
Q 903 2953 641 2809 
L 641 3341 
Q 956 3463 1253 3523 
Q 1550 3584 1831 3584 
Q 2591 3584 2966 3190 
Q 3341 2797 3341 1997 
z
" id="DejaVuSans-61" transform="scale(0.015625)"/>
      <path d="M 603 4863 
L 1178 4863 
L 1178 0 
L 603 0 
L 603 4863 
z
" id="DejaVuSans-6c" transform="scale(0.015625)"/>
      <path d="M 3513 2113 
L 3513 0 
L 2938 0 
L 2938 2094 
Q 2938 2591 2744 2837 
Q 2550 3084 2163 3084 
Q 1697 3084 1428 2787 
Q 1159 2491 1159 1978 
L 1159 0 
L 581 0 
L 581 3500 
L 1159 3500 
L 1159 2956 
Q 1366 3272 1645 3428 
Q 1925 3584 2291 3584 
Q 2894 3584 3203 3211 
Q 3513 2838 3513 2113 
z
" id="DejaVuSans-6e" transform="scale(0.015625)"/>
      <path d="M 1259 2228 
L 1259 519 
L 2272 519 
Q 2781 519 3026 730 
Q 3272 941 3272 1375 
Q 3272 1813 3026 2020 
Q 2781 2228 2272 2228 
L 1259 2228 
z
M 1259 4147 
L 1259 2741 
L 2194 2741 
Q 2656 2741 2882 2914 
Q 3109 3088 3109 3444 
Q 3109 3797 2882 3972 
Q 2656 4147 2194 4147 
L 1259 4147 
z
M 628 4666 
L 2241 4666 
Q 2963 4666 3353 4366 
Q 3744 4066 3744 3513 
Q 3744 3084 3544 2831 
Q 3344 2578 2956 2516 
Q 3422 2416 3680 2098 
Q 3938 1781 3938 1306 
Q 3938 681 3513 340 
Q 3088 0 2303 0 
L 628 0 
L 628 4666 
z
" id="DejaVuSans-42" transform="scale(0.015625)"/>
      <path d="M -19 4666 
L 3928 4666 
L 3928 4134 
L 2272 4134 
L 2272 0 
L 1638 0 
L 1638 4134 
L -19 4134 
L -19 4666 
z
" id="DejaVuSans-54" transform="scale(0.015625)"/>
      <path d="M 4122 4306 
L 4122 3641 
Q 3803 3938 3442 4084 
Q 3081 4231 2675 4231 
Q 1875 4231 1450 3742 
Q 1025 3253 1025 2328 
Q 1025 1406 1450 917 
Q 1875 428 2675 428 
Q 3081 428 3442 575 
Q 3803 722 4122 1019 
L 4122 359 
Q 3791 134 3420 21 
Q 3050 -91 2638 -91 
Q 1578 -91 968 557 
Q 359 1206 359 2328 
Q 359 3453 968 4101 
Q 1578 4750 2638 4750 
Q 3056 4750 3426 4639 
Q 3797 4528 4122 4306 
z
" id="DejaVuSans-43" transform="scale(0.015625)"/>
      <path d="M 2906 1791 
Q 2906 2416 2648 2759 
Q 2391 3103 1925 3103 
Q 1463 3103 1205 2759 
Q 947 2416 947 1791 
Q 947 1169 1205 825 
Q 1463 481 1925 481 
Q 2391 481 2648 825 
Q 2906 1169 2906 1791 
z
M 3481 434 
Q 3481 -459 3084 -895 
Q 2688 -1331 1869 -1331 
Q 1566 -1331 1297 -1286 
Q 1028 -1241 775 -1147 
L 775 -588 
Q 1028 -725 1275 -790 
Q 1522 -856 1778 -856 
Q 2344 -856 2625 -561 
Q 2906 -266 2906 331 
L 2906 616 
Q 2728 306 2450 153 
Q 2172 0 1784 0 
Q 1141 0 747 490 
Q 353 981 353 1791 
Q 353 2603 747 3093 
Q 1141 3584 1784 3584 
Q 2172 3584 2450 3431 
Q 2728 3278 2906 2969 
L 2906 3500 
L 3481 3500 
L 3481 434 
z
" id="DejaVuSans-67" transform="scale(0.015625)"/>
      <path d="M 2059 -325 
Q 1816 -950 1584 -1140 
Q 1353 -1331 966 -1331 
L 506 -1331 
L 506 -850 
L 844 -850 
Q 1081 -850 1212 -737 
Q 1344 -625 1503 -206 
L 1606 56 
L 191 3500 
L 800 3500 
L 1894 763 
L 2988 3500 
L 3597 3500 
L 2059 -325 
z
" id="DejaVuSans-79" transform="scale(0.015625)"/>
     </defs>
     <use xlink:href="#DejaVuSans-30"/>
     <use x="63.623047" xlink:href="#DejaVuSans-39"/>
     <use x="127.246094" xlink:href="#DejaVuSans-2d"/>
     <use x="163.330078" xlink:href="#DejaVuSans-66"/>
     <use x="198.535156" xlink:href="#DejaVuSans-65"/>
     <use x="260.058594" xlink:href="#DejaVuSans-62"/>
     <use x="323.535156" xlink:href="#DejaVuSans-32"/>
     <use x="387.158203" xlink:href="#DejaVuSans-30"/>
     <use x="450.78125" xlink:href="#DejaVuSans-31"/>
     <use x="514.404297" xlink:href="#DejaVuSans-35"/>
     <use x="578.027344" xlink:href="#DejaVuSans-2e"/>
     <use x="609.814453" xlink:href="#DejaVuSans-63"/>
     <use x="664.794922" xlink:href="#DejaVuSans-73"/>
     <use x="716.894531" xlink:href="#DejaVuSans-76"/>
     <use x="776.074219" xlink:href="#DejaVuSans-20"/>
     <use x="807.861328" xlink:href="#DejaVuSans-2d"/>
     <use x="843.945312" xlink:href="#DejaVuSans-20"/>
     <use x="875.732422" xlink:href="#DejaVuSans-53"/>
     <use x="939.208984" xlink:href="#DejaVuSans-75"/>
     <use x="1002.587891" xlink:href="#DejaVuSans-6d"/>
     <use x="1100" xlink:href="#DejaVuSans-20"/>
     <use x="1131.787109" xlink:href="#DejaVuSans-6f"/>
     <use x="1192.96875" xlink:href="#DejaVuSans-66"/>
     <use x="1228.173828" xlink:href="#DejaVuSans-20"/>
     <use x="1259.960938" xlink:href="#DejaVuSans-61"/>
     <use x="1321.240234" xlink:href="#DejaVuSans-6c"/>
     <use x="1349.023438" xlink:href="#DejaVuSans-6c"/>
     <use x="1376.806641" xlink:href="#DejaVuSans-20"/>
     <use x="1408.59375" xlink:href="#DejaVuSans-74"/>
     <use x="1447.802734" xlink:href="#DejaVuSans-72"/>
     <use x="1488.916016" xlink:href="#DejaVuSans-61"/>
     <use x="1550.195312" xlink:href="#DejaVuSans-6e"/>
     <use x="1613.574219" xlink:href="#DejaVuSans-73"/>
     <use x="1665.673828" xlink:href="#DejaVuSans-61"/>
     <use x="1726.953125" xlink:href="#DejaVuSans-63"/>
     <use x="1781.933594" xlink:href="#DejaVuSans-74"/>
     <use x="1821.142578" xlink:href="#DejaVuSans-69"/>
     <use x="1848.925781" xlink:href="#DejaVuSans-6f"/>
     <use x="1910.107422" xlink:href="#DejaVuSans-6e"/>
     <use x="1973.486328" xlink:href="#DejaVuSans-20"/>
     <use x="2005.273438" xlink:href="#DejaVuSans-61"/>
     <use x="2066.552734" xlink:href="#DejaVuSans-6d"/>
     <use x="2163.964844" xlink:href="#DejaVuSans-6f"/>
     <use x="2225.146484" xlink:href="#DejaVuSans-75"/>
     <use x="2288.525391" xlink:href="#DejaVuSans-6e"/>
     <use x="2351.904297" xlink:href="#DejaVuSans-74"/>
     <use x="2391.113281" xlink:href="#DejaVuSans-73"/>
     <use x="2443.212891" xlink:href="#DejaVuSans-20"/>
     <use x="2475" xlink:href="#DejaVuSans-69"/>
     <use x="2502.783203" xlink:href="#DejaVuSans-6e"/>
     <use x="2566.162109" xlink:href="#DejaVuSans-20"/>
     <use x="2597.949219" xlink:href="#DejaVuSans-42"/>
     <use x="2666.552734" xlink:href="#DejaVuSans-54"/>
     <use x="2721.761719" xlink:href="#DejaVuSans-43"/>
     <use x="2791.585938" xlink:href="#DejaVuSans-20"/>
     <use x="2823.373047" xlink:href="#DejaVuSans-70"/>
     <use x="2886.849609" xlink:href="#DejaVuSans-65"/>
     <use x="2948.373047" xlink:href="#DejaVuSans-72"/>
     <use x="2989.486328" xlink:href="#DejaVuSans-20"/>
     <use x="3021.273438" xlink:href="#DejaVuSans-73"/>
     <use x="3073.373047" xlink:href="#DejaVuSans-68"/>
     <use x="3136.751953" xlink:href="#DejaVuSans-69"/>
     <use x="3164.535156" xlink:href="#DejaVuSans-70"/>
     <use x="3228.011719" xlink:href="#DejaVuSans-70"/>
     <use x="3291.488281" xlink:href="#DejaVuSans-69"/>
     <use x="3319.271484" xlink:href="#DejaVuSans-6e"/>
     <use x="3382.650391" xlink:href="#DejaVuSans-67"/>
     <use x="3446.126953" xlink:href="#DejaVuSans-20"/>
     <use x="3477.914062" xlink:href="#DejaVuSans-6c"/>
     <use x="3505.697266" xlink:href="#DejaVuSans-6f"/>
     <use x="3566.878906" xlink:href="#DejaVuSans-63"/>
     <use x="3621.859375" xlink:href="#DejaVuSans-61"/>
     <use x="3683.138672" xlink:href="#DejaVuSans-6c"/>
     <use x="3710.921875" xlink:href="#DejaVuSans-69"/>
     <use x="3738.705078" xlink:href="#DejaVuSans-74"/>
     <use x="3777.914062" xlink:href="#DejaVuSans-79"/>
    </g>
   </g>
  </g>
 </g>
 <defs>
  <clipPath id="p46617632b8">
   <rect height="887.04" width="1123.2" x="561.6" y="138.24"/>
  </clipPath>
 </defs>
</svg>
