<?xml version="1.0" encoding="utf-8" standalone="no"?>
<!DOCTYPE svg PUBLIC "-//W3C//DTD SVG 1.1//EN"
  "http://www.w3.org/Graphics/SVG/1.1/DTD/svg11.dtd">
<svg height="1152pt" version="1.1" viewBox="0 0 1872 1152" width="1872pt" xmlns="http://www.w3.org/2000/svg" xmlns:xlink="http://www.w3.org/1999/xlink">
 <metadata>
  <rdf:RDF xmlns:cc="http://creativecommons.org/ns#" xmlns:dc="http://purl.org/dc/elements/1.1/" xmlns:rdf="http://www.w3.org/1999/02/22-rdf-syntax-ns#">
   <cc:Work>
    <dc:type rdf:resource="http://purl.org/dc/dcmitype/StillImage"/>
    <dc:date>2021-08-29T13:49:07.437747</dc:date>
    <dc:format>image/svg+xml</dc:format>
    <dc:creator>
     <cc:Agent>
      <dc:title>Matplotlib v3.4.3, https://matplotlib.org/</dc:title>
     </cc:Agent>
    </dc:creator>
   </cc:Work>
  </rdf:RDF>
 </metadata>
 <defs>
  <style type="text/css">*{stroke-linecap:butt;stroke-linejoin:round;}</style>
 </defs>
 <g id="figure_1">
  <g id="patch_1">
   <path d="M 0 1152 
L 1872 1152 
L 1872 0 
L 0 0 
z
" style="fill:#ffffff;"/>
  </g>
  <g id="axes_1">
   <g id="patch_2">
    <path d="M 561.6 1025.28 
L 1684.8 1025.28 
L 1684.8 138.24 
L 561.6 138.24 
z
" style="fill:#eaeaf2;"/>
   </g>
   <g id="matplotlib.axis_1">
    <g id="xtick_1">
     <g id="text_1">
      <!-- btc -->
      <g style="fill:#262626;" transform="translate(1114.528047 1043.138281)scale(0.11 -0.11)">
       <defs>
        <path d="M 3116 1747 
Q 3116 2381 2855 2742 
Q 2594 3103 2138 3103 
Q 1681 3103 1420 2742 
Q 1159 2381 1159 1747 
Q 1159 1113 1420 752 
Q 1681 391 2138 391 
Q 2594 391 2855 752 
Q 3116 1113 3116 1747 
z
M 1159 2969 
Q 1341 3281 1617 3432 
Q 1894 3584 2278 3584 
Q 2916 3584 3314 3078 
Q 3713 2572 3713 1747 
Q 3713 922 3314 415 
Q 2916 -91 2278 -91 
Q 1894 -91 1617 61 
Q 1341 213 1159 525 
L 1159 0 
L 581 0 
L 581 4863 
L 1159 4863 
L 1159 2969 
z
" id="DejaVuSans-62" transform="scale(0.015625)"/>
        <path d="M 1172 4494 
L 1172 3500 
L 2356 3500 
L 2356 3053 
L 1172 3053 
L 1172 1153 
Q 1172 725 1289 603 
Q 1406 481 1766 481 
L 2356 481 
L 2356 0 
L 1766 0 
Q 1100 0 847 248 
Q 594 497 594 1153 
L 594 3053 
L 172 3053 
L 172 3500 
L 594 3500 
L 594 4494 
L 1172 4494 
z
" id="DejaVuSans-74" transform="scale(0.015625)"/>
        <path d="M 3122 3366 
L 3122 2828 
Q 2878 2963 2633 3030 
Q 2388 3097 2138 3097 
Q 1578 3097 1268 2742 
Q 959 2388 959 1747 
Q 959 1106 1268 751 
Q 1578 397 2138 397 
Q 2388 397 2633 464 
Q 2878 531 3122 666 
L 3122 134 
Q 2881 22 2623 -34 
Q 2366 -91 2075 -91 
Q 1284 -91 818 406 
Q 353 903 353 1747 
Q 353 2603 823 3093 
Q 1294 3584 2113 3584 
Q 2378 3584 2631 3529 
Q 2884 3475 3122 3366 
z
" id="DejaVuSans-63" transform="scale(0.015625)"/>
       </defs>
       <use xlink:href="#DejaVuSans-62"/>
       <use x="63.476562" xlink:href="#DejaVuSans-74"/>
       <use x="102.685547" xlink:href="#DejaVuSans-63"/>
      </g>
     </g>
    </g>
    <g id="text_2">
     <!-- ship_from -->
     <g style="fill:#262626;" transform="translate(1093.836563 1058.544063)scale(0.12 -0.12)">
      <defs>
       <path d="M 2834 3397 
L 2834 2853 
Q 2591 2978 2328 3040 
Q 2066 3103 1784 3103 
Q 1356 3103 1142 2972 
Q 928 2841 928 2578 
Q 928 2378 1081 2264 
Q 1234 2150 1697 2047 
L 1894 2003 
Q 2506 1872 2764 1633 
Q 3022 1394 3022 966 
Q 3022 478 2636 193 
Q 2250 -91 1575 -91 
Q 1294 -91 989 -36 
Q 684 19 347 128 
L 347 722 
Q 666 556 975 473 
Q 1284 391 1588 391 
Q 1994 391 2212 530 
Q 2431 669 2431 922 
Q 2431 1156 2273 1281 
Q 2116 1406 1581 1522 
L 1381 1569 
Q 847 1681 609 1914 
Q 372 2147 372 2553 
Q 372 3047 722 3315 
Q 1072 3584 1716 3584 
Q 2034 3584 2315 3537 
Q 2597 3491 2834 3397 
z
" id="DejaVuSans-73" transform="scale(0.015625)"/>
       <path d="M 3513 2113 
L 3513 0 
L 2938 0 
L 2938 2094 
Q 2938 2591 2744 2837 
Q 2550 3084 2163 3084 
Q 1697 3084 1428 2787 
Q 1159 2491 1159 1978 
L 1159 0 
L 581 0 
L 581 4863 
L 1159 4863 
L 1159 2956 
Q 1366 3272 1645 3428 
Q 1925 3584 2291 3584 
Q 2894 3584 3203 3211 
Q 3513 2838 3513 2113 
z
" id="DejaVuSans-68" transform="scale(0.015625)"/>
       <path d="M 603 3500 
L 1178 3500 
L 1178 0 
L 603 0 
L 603 3500 
z
M 603 4863 
L 1178 4863 
L 1178 4134 
L 603 4134 
L 603 4863 
z
" id="DejaVuSans-69" transform="scale(0.015625)"/>
       <path d="M 1159 525 
L 1159 -1331 
L 581 -1331 
L 581 3500 
L 1159 3500 
L 1159 2969 
Q 1341 3281 1617 3432 
Q 1894 3584 2278 3584 
Q 2916 3584 3314 3078 
Q 3713 2572 3713 1747 
Q 3713 922 3314 415 
Q 2916 -91 2278 -91 
Q 1894 -91 1617 61 
Q 1341 213 1159 525 
z
M 3116 1747 
Q 3116 2381 2855 2742 
Q 2594 3103 2138 3103 
Q 1681 3103 1420 2742 
Q 1159 2381 1159 1747 
Q 1159 1113 1420 752 
Q 1681 391 2138 391 
Q 2594 391 2855 752 
Q 3116 1113 3116 1747 
z
" id="DejaVuSans-70" transform="scale(0.015625)"/>
       <path d="M 3263 -1063 
L 3263 -1509 
L -63 -1509 
L -63 -1063 
L 3263 -1063 
z
" id="DejaVuSans-5f" transform="scale(0.015625)"/>
       <path d="M 2375 4863 
L 2375 4384 
L 1825 4384 
Q 1516 4384 1395 4259 
Q 1275 4134 1275 3809 
L 1275 3500 
L 2222 3500 
L 2222 3053 
L 1275 3053 
L 1275 0 
L 697 0 
L 697 3053 
L 147 3053 
L 147 3500 
L 697 3500 
L 697 3744 
Q 697 4328 969 4595 
Q 1241 4863 1831 4863 
L 2375 4863 
z
" id="DejaVuSans-66" transform="scale(0.015625)"/>
       <path d="M 2631 2963 
Q 2534 3019 2420 3045 
Q 2306 3072 2169 3072 
Q 1681 3072 1420 2755 
Q 1159 2438 1159 1844 
L 1159 0 
L 581 0 
L 581 3500 
L 1159 3500 
L 1159 2956 
Q 1341 3275 1631 3429 
Q 1922 3584 2338 3584 
Q 2397 3584 2469 3576 
Q 2541 3569 2628 3553 
L 2631 2963 
z
" id="DejaVuSans-72" transform="scale(0.015625)"/>
       <path d="M 1959 3097 
Q 1497 3097 1228 2736 
Q 959 2375 959 1747 
Q 959 1119 1226 758 
Q 1494 397 1959 397 
Q 2419 397 2687 759 
Q 2956 1122 2956 1747 
Q 2956 2369 2687 2733 
Q 2419 3097 1959 3097 
z
M 1959 3584 
Q 2709 3584 3137 3096 
Q 3566 2609 3566 1747 
Q 3566 888 3137 398 
Q 2709 -91 1959 -91 
Q 1206 -91 779 398 
Q 353 888 353 1747 
Q 353 2609 779 3096 
Q 1206 3584 1959 3584 
z
" id="DejaVuSans-6f" transform="scale(0.015625)"/>
       <path d="M 3328 2828 
Q 3544 3216 3844 3400 
Q 4144 3584 4550 3584 
Q 5097 3584 5394 3201 
Q 5691 2819 5691 2113 
L 5691 0 
L 5113 0 
L 5113 2094 
Q 5113 2597 4934 2840 
Q 4756 3084 4391 3084 
Q 3944 3084 3684 2787 
Q 3425 2491 3425 1978 
L 3425 0 
L 2847 0 
L 2847 2094 
Q 2847 2600 2669 2842 
Q 2491 3084 2119 3084 
Q 1678 3084 1418 2786 
Q 1159 2488 1159 1978 
L 1159 0 
L 581 0 
L 581 3500 
L 1159 3500 
L 1159 2956 
Q 1356 3278 1631 3431 
Q 1906 3584 2284 3584 
Q 2666 3584 2933 3390 
Q 3200 3197 3328 2828 
z
" id="DejaVuSans-6d" transform="scale(0.015625)"/>
      </defs>
      <use xlink:href="#DejaVuSans-73"/>
      <use x="52.099609" xlink:href="#DejaVuSans-68"/>
      <use x="115.478516" xlink:href="#DejaVuSans-69"/>
      <use x="143.261719" xlink:href="#DejaVuSans-70"/>
      <use x="206.738281" xlink:href="#DejaVuSans-5f"/>
      <use x="256.738281" xlink:href="#DejaVuSans-66"/>
      <use x="291.943359" xlink:href="#DejaVuSans-72"/>
      <use x="330.806641" xlink:href="#DejaVuSans-6f"/>
      <use x="391.988281" xlink:href="#DejaVuSans-6d"/>
     </g>
    </g>
   </g>
   <g id="matplotlib.axis_2">
    <g id="ytick_1">
     <g id="line2d_1">
      <path clip-path="url(#pc6b6ef459d)" d="M 561.6 905.587964 
L 1684.8 905.587964 
" style="fill:none;stroke:#ffffff;stroke-linecap:round;"/>
     </g>
     <g id="text_3">
      <!-- 0 -->
      <g style="fill:#262626;" transform="translate(545.10125 909.767105)scale(0.11 -0.11)">
       <defs>
        <path d="M 2034 4250 
Q 1547 4250 1301 3770 
Q 1056 3291 1056 2328 
Q 1056 1369 1301 889 
Q 1547 409 2034 409 
Q 2525 409 2770 889 
Q 3016 1369 3016 2328 
Q 3016 3291 2770 3770 
Q 2525 4250 2034 4250 
z
M 2034 4750 
Q 2819 4750 3233 4129 
Q 3647 3509 3647 2328 
Q 3647 1150 3233 529 
Q 2819 -91 2034 -91 
Q 1250 -91 836 529 
Q 422 1150 422 2328 
Q 422 3509 836 4129 
Q 1250 4750 2034 4750 
z
" id="DejaVuSans-30" transform="scale(0.015625)"/>
       </defs>
       <use xlink:href="#DejaVuSans-30"/>
      </g>
     </g>
    </g>
    <g id="ytick_2">
     <g id="line2d_2">
      <path clip-path="url(#pc6b6ef459d)" d="M 561.6 758.293091 
L 1684.8 758.293091 
" style="fill:none;stroke:#ffffff;stroke-linecap:round;"/>
     </g>
     <g id="text_4">
      <!-- 5000 -->
      <g style="fill:#262626;" transform="translate(524.105 762.472232)scale(0.11 -0.11)">
       <defs>
        <path d="M 691 4666 
L 3169 4666 
L 3169 4134 
L 1269 4134 
L 1269 2991 
Q 1406 3038 1543 3061 
Q 1681 3084 1819 3084 
Q 2600 3084 3056 2656 
Q 3513 2228 3513 1497 
Q 3513 744 3044 326 
Q 2575 -91 1722 -91 
Q 1428 -91 1123 -41 
Q 819 9 494 109 
L 494 744 
Q 775 591 1075 516 
Q 1375 441 1709 441 
Q 2250 441 2565 725 
Q 2881 1009 2881 1497 
Q 2881 1984 2565 2268 
Q 2250 2553 1709 2553 
Q 1456 2553 1204 2497 
Q 953 2441 691 2322 
L 691 4666 
z
" id="DejaVuSans-35" transform="scale(0.015625)"/>
       </defs>
       <use xlink:href="#DejaVuSans-35"/>
       <use x="63.623047" xlink:href="#DejaVuSans-30"/>
       <use x="127.246094" xlink:href="#DejaVuSans-30"/>
       <use x="190.869141" xlink:href="#DejaVuSans-30"/>
      </g>
     </g>
    </g>
    <g id="ytick_3">
     <g id="line2d_3">
      <path clip-path="url(#pc6b6ef459d)" d="M 561.6 610.998218 
L 1684.8 610.998218 
" style="fill:none;stroke:#ffffff;stroke-linecap:round;"/>
     </g>
     <g id="text_5">
      <!-- 10000 -->
      <g style="fill:#262626;" transform="translate(517.10625 615.177359)scale(0.11 -0.11)">
       <defs>
        <path d="M 794 531 
L 1825 531 
L 1825 4091 
L 703 3866 
L 703 4441 
L 1819 4666 
L 2450 4666 
L 2450 531 
L 3481 531 
L 3481 0 
L 794 0 
L 794 531 
z
" id="DejaVuSans-31" transform="scale(0.015625)"/>
       </defs>
       <use xlink:href="#DejaVuSans-31"/>
       <use x="63.623047" xlink:href="#DejaVuSans-30"/>
       <use x="127.246094" xlink:href="#DejaVuSans-30"/>
       <use x="190.869141" xlink:href="#DejaVuSans-30"/>
       <use x="254.492188" xlink:href="#DejaVuSans-30"/>
      </g>
     </g>
    </g>
    <g id="ytick_4">
     <g id="line2d_4">
      <path clip-path="url(#pc6b6ef459d)" d="M 561.6 463.703345 
L 1684.8 463.703345 
" style="fill:none;stroke:#ffffff;stroke-linecap:round;"/>
     </g>
     <g id="text_6">
      <!-- 15000 -->
      <g style="fill:#262626;" transform="translate(517.10625 467.882486)scale(0.11 -0.11)">
       <use xlink:href="#DejaVuSans-31"/>
       <use x="63.623047" xlink:href="#DejaVuSans-35"/>
       <use x="127.246094" xlink:href="#DejaVuSans-30"/>
       <use x="190.869141" xlink:href="#DejaVuSans-30"/>
       <use x="254.492188" xlink:href="#DejaVuSans-30"/>
      </g>
     </g>
    </g>
    <g id="ytick_5">
     <g id="line2d_5">
      <path clip-path="url(#pc6b6ef459d)" d="M 561.6 316.408472 
L 1684.8 316.408472 
" style="fill:none;stroke:#ffffff;stroke-linecap:round;"/>
     </g>
     <g id="text_7">
      <!-- 20000 -->
      <g style="fill:#262626;" transform="translate(517.10625 320.587612)scale(0.11 -0.11)">
       <defs>
        <path d="M 1228 531 
L 3431 531 
L 3431 0 
L 469 0 
L 469 531 
Q 828 903 1448 1529 
Q 2069 2156 2228 2338 
Q 2531 2678 2651 2914 
Q 2772 3150 2772 3378 
Q 2772 3750 2511 3984 
Q 2250 4219 1831 4219 
Q 1534 4219 1204 4116 
Q 875 4013 500 3803 
L 500 4441 
Q 881 4594 1212 4672 
Q 1544 4750 1819 4750 
Q 2544 4750 2975 4387 
Q 3406 4025 3406 3419 
Q 3406 3131 3298 2873 
Q 3191 2616 2906 2266 
Q 2828 2175 2409 1742 
Q 1991 1309 1228 531 
z
" id="DejaVuSans-32" transform="scale(0.015625)"/>
       </defs>
       <use xlink:href="#DejaVuSans-32"/>
       <use x="63.623047" xlink:href="#DejaVuSans-30"/>
       <use x="127.246094" xlink:href="#DejaVuSans-30"/>
       <use x="190.869141" xlink:href="#DejaVuSans-30"/>
       <use x="254.492188" xlink:href="#DejaVuSans-30"/>
      </g>
     </g>
    </g>
    <g id="ytick_6">
     <g id="line2d_6">
      <path clip-path="url(#pc6b6ef459d)" d="M 561.6 169.113599 
L 1684.8 169.113599 
" style="fill:none;stroke:#ffffff;stroke-linecap:round;"/>
     </g>
     <g id="text_8">
      <!-- 25000 -->
      <g style="fill:#262626;" transform="translate(517.10625 173.292739)scale(0.11 -0.11)">
       <use xlink:href="#DejaVuSans-32"/>
       <use x="63.623047" xlink:href="#DejaVuSans-35"/>
       <use x="127.246094" xlink:href="#DejaVuSans-30"/>
       <use x="190.869141" xlink:href="#DejaVuSans-30"/>
       <use x="254.492188" xlink:href="#DejaVuSans-30"/>
      </g>
     </g>
    </g>
    <g id="text_9">
     <!-- btc -->
     <g style="fill:#262626;" transform="translate(510.610625 591.220312)rotate(-90)scale(0.12 -0.12)">
      <use xlink:href="#DejaVuSans-62"/>
      <use x="63.476562" xlink:href="#DejaVuSans-74"/>
      <use x="102.685547" xlink:href="#DejaVuSans-63"/>
     </g>
    </g>
   </g>
   <g id="PolyCollection_1">
    <defs>
     <path d="M 1183.952274 -167.04 
L 1062.447726 -167.04 
L 1033.501393 -175.185455 
L 996.22629 -183.330909 
L 950.875561 -191.476364 
L 898.974555 -199.621818 
L 843.477198 -207.767273 
L 788.638624 -215.912727 
L 739.555755 -224.058182 
L 701.419467 -232.203636 
L 678.620605 -240.349091 
L 673.92 -248.494545 
L 687.898866 -256.64 
L 718.840671 -264.785455 
L 763.077635 -272.930909 
L 815.70527 -281.076364 
L 871.472758 -289.221818 
L 925.626945 -297.367273 
L 974.527662 -305.512727 
L 1015.940051 -313.658182 
L 1049.009216 -321.803636 
L 1073.999752 -329.949091 
L 1091.918355 -338.094545 
L 1104.131487 -346.24 
L 1112.055796 -354.385455 
L 1116.955665 -362.530909 
L 1119.845496 -370.676364 
L 1121.472272 -378.821818 
L 1122.346846 -386.967273 
L 1122.79609 -395.112727 
L 1123.016665 -403.258182 
L 1123.120216 -411.403636 
L 1123.166712 -419.549091 
L 1123.186684 -427.694545 
L 1123.194893 -435.84 
L 1123.198122 -443.985455 
L 1123.199338 -452.130909 
L 1123.199776 -460.276364 
L 1123.199928 -468.421818 
L 1123.199977 -476.567273 
L 1123.199993 -484.712727 
L 1123.199998 -492.858182 
L 1123.199999 -501.003636 
L 1123.2 -509.149091 
L 1123.2 -517.294545 
L 1123.2 -525.44 
L 1123.2 -533.585455 
L 1123.2 -541.730909 
L 1123.2 -549.876364 
L 1123.2 -558.021818 
L 1123.2 -566.167273 
L 1123.2 -574.312727 
L 1123.2 -582.458182 
L 1123.2 -590.603636 
L 1123.2 -598.749091 
L 1123.2 -606.894545 
L 1123.2 -615.04 
L 1123.2 -623.185455 
L 1123.2 -631.330909 
L 1123.2 -639.476364 
L 1123.2 -647.621818 
L 1123.2 -655.767273 
L 1123.2 -663.912727 
L 1123.199999 -672.058182 
L 1123.199996 -680.203636 
L 1123.199988 -688.349091 
L 1123.199965 -696.494545 
L 1123.199904 -704.64 
L 1123.19975 -712.785455 
L 1123.199375 -720.930909 
L 1123.198501 -729.076364 
L 1123.196556 -737.221818 
L 1123.19241 -745.367273 
L 1123.183965 -753.512727 
L 1123.16752 -761.658182 
L 1123.136924 -769.803636 
L 1123.082559 -777.949091 
L 1122.990356 -786.094545 
L 1122.841203 -794.24 
L 1122.611266 -802.385455 
L 1122.273821 -810.530909 
L 1121.803068 -818.676364 
L 1121.179958 -826.821818 
L 1120.399403 -834.967273 
L 1119.477406 -843.112727 
L 1118.45599 -851.258182 
L 1117.403706 -859.403636 
L 1116.410153 -867.549091 
L 1115.574393 -875.694545 
L 1114.989043 -883.84 
L 1114.723473 -891.985455 
L 1114.81029 -900.130909 
L 1115.238758 -908.276364 
L 1115.956982 -916.421818 
L 1116.882239 -924.567273 
L 1117.916623 -932.712727 
L 1118.963913 -940.858182 
L 1119.94371 -949.003636 
L 1120.800139 -957.149091 
L 1121.504281 -965.294545 
L 1122.051247 -973.44 
L 1124.348753 -973.44 
L 1124.348753 -973.44 
L 1124.895719 -965.294545 
L 1125.599861 -957.149091 
L 1126.45629 -949.003636 
L 1127.436087 -940.858182 
L 1128.483377 -932.712727 
L 1129.517761 -924.567273 
L 1130.443018 -916.421818 
L 1131.161242 -908.276364 
L 1131.58971 -900.130909 
L 1131.676527 -891.985455 
L 1131.410957 -883.84 
L 1130.825607 -875.694545 
L 1129.989847 -867.549091 
L 1128.996294 -859.403636 
L 1127.94401 -851.258182 
L 1126.922594 -843.112727 
L 1126.000597 -834.967273 
L 1125.220042 -826.821818 
L 1124.596932 -818.676364 
L 1124.126179 -810.530909 
L 1123.788734 -802.385455 
L 1123.558797 -794.24 
L 1123.409644 -786.094545 
L 1123.317441 -777.949091 
L 1123.263076 -769.803636 
L 1123.23248 -761.658182 
L 1123.216035 -753.512727 
L 1123.20759 -745.367273 
L 1123.203444 -737.221818 
L 1123.201499 -729.076364 
L 1123.200625 -720.930909 
L 1123.20025 -712.785455 
L 1123.200096 -704.64 
L 1123.200035 -696.494545 
L 1123.200012 -688.349091 
L 1123.200004 -680.203636 
L 1123.200001 -672.058182 
L 1123.2 -663.912727 
L 1123.2 -655.767273 
L 1123.2 -647.621818 
L 1123.2 -639.476364 
L 1123.2 -631.330909 
L 1123.2 -623.185455 
L 1123.2 -615.04 
L 1123.2 -606.894545 
L 1123.2 -598.749091 
L 1123.2 -590.603636 
L 1123.2 -582.458182 
L 1123.2 -574.312727 
L 1123.2 -566.167273 
L 1123.2 -558.021818 
L 1123.2 -549.876364 
L 1123.2 -541.730909 
L 1123.2 -533.585455 
L 1123.2 -525.44 
L 1123.2 -517.294545 
L 1123.2 -509.149091 
L 1123.200001 -501.003636 
L 1123.200002 -492.858182 
L 1123.200007 -484.712727 
L 1123.200023 -476.567273 
L 1123.200072 -468.421818 
L 1123.200224 -460.276364 
L 1123.200662 -452.130909 
L 1123.201878 -443.985455 
L 1123.205107 -435.84 
L 1123.213316 -427.694545 
L 1123.233288 -419.549091 
L 1123.279784 -411.403636 
L 1123.383335 -403.258182 
L 1123.60391 -395.112727 
L 1124.053154 -386.967273 
L 1124.927728 -378.821818 
L 1126.554504 -370.676364 
L 1129.444335 -362.530909 
L 1134.344204 -354.385455 
L 1142.268513 -346.24 
L 1154.481645 -338.094545 
L 1172.400248 -329.949091 
L 1197.390784 -321.803636 
L 1230.459949 -313.658182 
L 1271.872338 -305.512727 
L 1320.773055 -297.367273 
L 1374.927242 -289.221818 
L 1430.69473 -281.076364 
L 1483.322365 -272.930909 
L 1527.559329 -264.785455 
L 1558.501134 -256.64 
L 1572.48 -248.494545 
L 1567.779395 -240.349091 
L 1544.980533 -232.203636 
L 1506.844245 -224.058182 
L 1457.761376 -215.912727 
L 1402.922802 -207.767273 
L 1347.425445 -199.621818 
L 1295.524439 -191.476364 
L 1250.17371 -183.330909 
L 1212.898607 -175.185455 
L 1183.952274 -167.04 
z
" id="med82d69d72" style="stroke:#4c4c4c;stroke-width:1.5;"/>
    </defs>
    <g clip-path="url(#pc6b6ef459d)">
     <use style="fill:#5875a4;stroke:#4c4c4c;stroke-width:1.5;" x="0" xlink:href="#med82d69d72" y="1152"/>
    </g>
   </g>
   <g id="line2d_7">
    <path clip-path="url(#pc6b6ef459d)" d="M 1123.2 905.587593 
L 1123.2 905.500115 
" style="fill:none;stroke:#4c4c4c;stroke-linecap:round;stroke-width:1.5;"/>
   </g>
   <g id="line2d_8">
    <path clip-path="url(#pc6b6ef459d)" d="M 1123.2 905.582203 
L 1123.2 905.543823 
" style="fill:none;stroke:#4c4c4c;stroke-linecap:round;stroke-width:4.5;"/>
   </g>
   <g id="patch_3">
    <path d="M 561.6 1025.28 
L 561.6 138.24 
" style="fill:none;stroke:#ffffff;stroke-linecap:square;stroke-linejoin:miter;stroke-width:1.25;"/>
   </g>
   <g id="patch_4">
    <path d="M 1684.8 1025.28 
L 1684.8 138.24 
" style="fill:none;stroke:#ffffff;stroke-linecap:square;stroke-linejoin:miter;stroke-width:1.25;"/>
   </g>
   <g id="patch_5">
    <path d="M 561.6 1025.28 
L 1684.8 1025.28 
" style="fill:none;stroke:#ffffff;stroke-linecap:square;stroke-linejoin:miter;stroke-width:1.25;"/>
   </g>
   <g id="patch_6">
    <path d="M 561.6 138.24 
L 1684.8 138.24 
" style="fill:none;stroke:#ffffff;stroke-linecap:square;stroke-linejoin:miter;stroke-width:1.25;"/>
   </g>
   <g id="PathCollection_1">
    <defs>
     <path d="M 0 1.5 
C 0.397805 1.5 0.77937 1.341951 1.06066 1.06066 
C 1.341951 0.77937 1.5 0.397805 1.5 0 
C 1.5 -0.397805 1.341951 -0.77937 1.06066 -1.06066 
C 0.77937 -1.341951 0.397805 -1.5 0 -1.5 
C -0.397805 -1.5 -0.77937 -1.341951 -1.06066 -1.06066 
C -1.341951 -0.77937 -1.5 -0.397805 -1.5 0 
C -1.5 0.397805 -1.341951 0.77937 -1.06066 1.06066 
C -0.77937 1.341951 -0.397805 1.5 0 1.5 
z
" id="mcec680d0ef" style="stroke:#4c4c4c;"/>
    </defs>
    <g clip-path="url(#pc6b6ef459d)">
     <use style="fill:#ffffff;stroke:#4c4c4c;" x="1123.2" xlink:href="#mcec680d0ef" y="905.574535"/>
    </g>
   </g>
   <g id="text_10">
    <!-- 01-june2014.csv - Average transaction amount in BTC per shipping locality -->
    <g style="fill:#262626;" transform="translate(898.1775 132.24)scale(0.12 -0.12)">
     <defs>
      <path d="M 313 2009 
L 1997 2009 
L 1997 1497 
L 313 1497 
L 313 2009 
z
" id="DejaVuSans-2d" transform="scale(0.015625)"/>
      <path d="M 603 3500 
L 1178 3500 
L 1178 -63 
Q 1178 -731 923 -1031 
Q 669 -1331 103 -1331 
L -116 -1331 
L -116 -844 
L 38 -844 
Q 366 -844 484 -692 
Q 603 -541 603 -63 
L 603 3500 
z
M 603 4863 
L 1178 4863 
L 1178 4134 
L 603 4134 
L 603 4863 
z
" id="DejaVuSans-6a" transform="scale(0.015625)"/>
      <path d="M 544 1381 
L 544 3500 
L 1119 3500 
L 1119 1403 
Q 1119 906 1312 657 
Q 1506 409 1894 409 
Q 2359 409 2629 706 
Q 2900 1003 2900 1516 
L 2900 3500 
L 3475 3500 
L 3475 0 
L 2900 0 
L 2900 538 
Q 2691 219 2414 64 
Q 2138 -91 1772 -91 
Q 1169 -91 856 284 
Q 544 659 544 1381 
z
M 1991 3584 
L 1991 3584 
z
" id="DejaVuSans-75" transform="scale(0.015625)"/>
      <path d="M 3513 2113 
L 3513 0 
L 2938 0 
L 2938 2094 
Q 2938 2591 2744 2837 
Q 2550 3084 2163 3084 
Q 1697 3084 1428 2787 
Q 1159 2491 1159 1978 
L 1159 0 
L 581 0 
L 581 3500 
L 1159 3500 
L 1159 2956 
Q 1366 3272 1645 3428 
Q 1925 3584 2291 3584 
Q 2894 3584 3203 3211 
Q 3513 2838 3513 2113 
z
" id="DejaVuSans-6e" transform="scale(0.015625)"/>
      <path d="M 3597 1894 
L 3597 1613 
L 953 1613 
Q 991 1019 1311 708 
Q 1631 397 2203 397 
Q 2534 397 2845 478 
Q 3156 559 3463 722 
L 3463 178 
Q 3153 47 2828 -22 
Q 2503 -91 2169 -91 
Q 1331 -91 842 396 
Q 353 884 353 1716 
Q 353 2575 817 3079 
Q 1281 3584 2069 3584 
Q 2775 3584 3186 3129 
Q 3597 2675 3597 1894 
z
M 3022 2063 
Q 3016 2534 2758 2815 
Q 2500 3097 2075 3097 
Q 1594 3097 1305 2825 
Q 1016 2553 972 2059 
L 3022 2063 
z
" id="DejaVuSans-65" transform="scale(0.015625)"/>
      <path d="M 2419 4116 
L 825 1625 
L 2419 1625 
L 2419 4116 
z
M 2253 4666 
L 3047 4666 
L 3047 1625 
L 3713 1625 
L 3713 1100 
L 3047 1100 
L 3047 0 
L 2419 0 
L 2419 1100 
L 313 1100 
L 313 1709 
L 2253 4666 
z
" id="DejaVuSans-34" transform="scale(0.015625)"/>
      <path d="M 684 794 
L 1344 794 
L 1344 0 
L 684 0 
L 684 794 
z
" id="DejaVuSans-2e" transform="scale(0.015625)"/>
      <path d="M 191 3500 
L 800 3500 
L 1894 563 
L 2988 3500 
L 3597 3500 
L 2284 0 
L 1503 0 
L 191 3500 
z
" id="DejaVuSans-76" transform="scale(0.015625)"/>
      <path id="DejaVuSans-20" transform="scale(0.015625)"/>
      <path d="M 2188 4044 
L 1331 1722 
L 3047 1722 
L 2188 4044 
z
M 1831 4666 
L 2547 4666 
L 4325 0 
L 3669 0 
L 3244 1197 
L 1141 1197 
L 716 0 
L 50 0 
L 1831 4666 
z
" id="DejaVuSans-41" transform="scale(0.015625)"/>
      <path d="M 2194 1759 
Q 1497 1759 1228 1600 
Q 959 1441 959 1056 
Q 959 750 1161 570 
Q 1363 391 1709 391 
Q 2188 391 2477 730 
Q 2766 1069 2766 1631 
L 2766 1759 
L 2194 1759 
z
M 3341 1997 
L 3341 0 
L 2766 0 
L 2766 531 
Q 2569 213 2275 61 
Q 1981 -91 1556 -91 
Q 1019 -91 701 211 
Q 384 513 384 1019 
Q 384 1609 779 1909 
Q 1175 2209 1959 2209 
L 2766 2209 
L 2766 2266 
Q 2766 2663 2505 2880 
Q 2244 3097 1772 3097 
Q 1472 3097 1187 3025 
Q 903 2953 641 2809 
L 641 3341 
Q 956 3463 1253 3523 
Q 1550 3584 1831 3584 
Q 2591 3584 2966 3190 
Q 3341 2797 3341 1997 
z
" id="DejaVuSans-61" transform="scale(0.015625)"/>
      <path d="M 2906 1791 
Q 2906 2416 2648 2759 
Q 2391 3103 1925 3103 
Q 1463 3103 1205 2759 
Q 947 2416 947 1791 
Q 947 1169 1205 825 
Q 1463 481 1925 481 
Q 2391 481 2648 825 
Q 2906 1169 2906 1791 
z
M 3481 434 
Q 3481 -459 3084 -895 
Q 2688 -1331 1869 -1331 
Q 1566 -1331 1297 -1286 
Q 1028 -1241 775 -1147 
L 775 -588 
Q 1028 -725 1275 -790 
Q 1522 -856 1778 -856 
Q 2344 -856 2625 -561 
Q 2906 -266 2906 331 
L 2906 616 
Q 2728 306 2450 153 
Q 2172 0 1784 0 
Q 1141 0 747 490 
Q 353 981 353 1791 
Q 353 2603 747 3093 
Q 1141 3584 1784 3584 
Q 2172 3584 2450 3431 
Q 2728 3278 2906 2969 
L 2906 3500 
L 3481 3500 
L 3481 434 
z
" id="DejaVuSans-67" transform="scale(0.015625)"/>
      <path d="M 1259 2228 
L 1259 519 
L 2272 519 
Q 2781 519 3026 730 
Q 3272 941 3272 1375 
Q 3272 1813 3026 2020 
Q 2781 2228 2272 2228 
L 1259 2228 
z
M 1259 4147 
L 1259 2741 
L 2194 2741 
Q 2656 2741 2882 2914 
Q 3109 3088 3109 3444 
Q 3109 3797 2882 3972 
Q 2656 4147 2194 4147 
L 1259 4147 
z
M 628 4666 
L 2241 4666 
Q 2963 4666 3353 4366 
Q 3744 4066 3744 3513 
Q 3744 3084 3544 2831 
Q 3344 2578 2956 2516 
Q 3422 2416 3680 2098 
Q 3938 1781 3938 1306 
Q 3938 681 3513 340 
Q 3088 0 2303 0 
L 628 0 
L 628 4666 
z
" id="DejaVuSans-42" transform="scale(0.015625)"/>
      <path d="M -19 4666 
L 3928 4666 
L 3928 4134 
L 2272 4134 
L 2272 0 
L 1638 0 
L 1638 4134 
L -19 4134 
L -19 4666 
z
" id="DejaVuSans-54" transform="scale(0.015625)"/>
      <path d="M 4122 4306 
L 4122 3641 
Q 3803 3938 3442 4084 
Q 3081 4231 2675 4231 
Q 1875 4231 1450 3742 
Q 1025 3253 1025 2328 
Q 1025 1406 1450 917 
Q 1875 428 2675 428 
Q 3081 428 3442 575 
Q 3803 722 4122 1019 
L 4122 359 
Q 3791 134 3420 21 
Q 3050 -91 2638 -91 
Q 1578 -91 968 557 
Q 359 1206 359 2328 
Q 359 3453 968 4101 
Q 1578 4750 2638 4750 
Q 3056 4750 3426 4639 
Q 3797 4528 4122 4306 
z
" id="DejaVuSans-43" transform="scale(0.015625)"/>
      <path d="M 603 4863 
L 1178 4863 
L 1178 0 
L 603 0 
L 603 4863 
z
" id="DejaVuSans-6c" transform="scale(0.015625)"/>
      <path d="M 2059 -325 
Q 1816 -950 1584 -1140 
Q 1353 -1331 966 -1331 
L 506 -1331 
L 506 -850 
L 844 -850 
Q 1081 -850 1212 -737 
Q 1344 -625 1503 -206 
L 1606 56 
L 191 3500 
L 800 3500 
L 1894 763 
L 2988 3500 
L 3597 3500 
L 2059 -325 
z
" id="DejaVuSans-79" transform="scale(0.015625)"/>
     </defs>
     <use xlink:href="#DejaVuSans-30"/>
     <use x="63.623047" xlink:href="#DejaVuSans-31"/>
     <use x="127.246094" xlink:href="#DejaVuSans-2d"/>
     <use x="163.330078" xlink:href="#DejaVuSans-6a"/>
     <use x="191.113281" xlink:href="#DejaVuSans-75"/>
     <use x="254.492188" xlink:href="#DejaVuSans-6e"/>
     <use x="317.871094" xlink:href="#DejaVuSans-65"/>
     <use x="379.394531" xlink:href="#DejaVuSans-32"/>
     <use x="443.017578" xlink:href="#DejaVuSans-30"/>
     <use x="506.640625" xlink:href="#DejaVuSans-31"/>
     <use x="570.263672" xlink:href="#DejaVuSans-34"/>
     <use x="633.886719" xlink:href="#DejaVuSans-2e"/>
     <use x="665.673828" xlink:href="#DejaVuSans-63"/>
     <use x="720.654297" xlink:href="#DejaVuSans-73"/>
     <use x="772.753906" xlink:href="#DejaVuSans-76"/>
     <use x="831.933594" xlink:href="#DejaVuSans-20"/>
     <use x="863.720703" xlink:href="#DejaVuSans-2d"/>
     <use x="899.804688" xlink:href="#DejaVuSans-20"/>
     <use x="931.591797" xlink:href="#DejaVuSans-41"/>
     <use x="994.125" xlink:href="#DejaVuSans-76"/>
     <use x="1053.304688" xlink:href="#DejaVuSans-65"/>
     <use x="1114.828125" xlink:href="#DejaVuSans-72"/>
     <use x="1155.941406" xlink:href="#DejaVuSans-61"/>
     <use x="1217.220703" xlink:href="#DejaVuSans-67"/>
     <use x="1280.697266" xlink:href="#DejaVuSans-65"/>
     <use x="1342.220703" xlink:href="#DejaVuSans-20"/>
     <use x="1374.007812" xlink:href="#DejaVuSans-74"/>
     <use x="1413.216797" xlink:href="#DejaVuSans-72"/>
     <use x="1454.330078" xlink:href="#DejaVuSans-61"/>
     <use x="1515.609375" xlink:href="#DejaVuSans-6e"/>
     <use x="1578.988281" xlink:href="#DejaVuSans-73"/>
     <use x="1631.087891" xlink:href="#DejaVuSans-61"/>
     <use x="1692.367188" xlink:href="#DejaVuSans-63"/>
     <use x="1747.347656" xlink:href="#DejaVuSans-74"/>
     <use x="1786.556641" xlink:href="#DejaVuSans-69"/>
     <use x="1814.339844" xlink:href="#DejaVuSans-6f"/>
     <use x="1875.521484" xlink:href="#DejaVuSans-6e"/>
     <use x="1938.900391" xlink:href="#DejaVuSans-20"/>
     <use x="1970.6875" xlink:href="#DejaVuSans-61"/>
     <use x="2031.966797" xlink:href="#DejaVuSans-6d"/>
     <use x="2129.378906" xlink:href="#DejaVuSans-6f"/>
     <use x="2190.560547" xlink:href="#DejaVuSans-75"/>
     <use x="2253.939453" xlink:href="#DejaVuSans-6e"/>
     <use x="2317.318359" xlink:href="#DejaVuSans-74"/>
     <use x="2356.527344" xlink:href="#DejaVuSans-20"/>
     <use x="2388.314453" xlink:href="#DejaVuSans-69"/>
     <use x="2416.097656" xlink:href="#DejaVuSans-6e"/>
     <use x="2479.476562" xlink:href="#DejaVuSans-20"/>
     <use x="2511.263672" xlink:href="#DejaVuSans-42"/>
     <use x="2579.867188" xlink:href="#DejaVuSans-54"/>
     <use x="2635.076172" xlink:href="#DejaVuSans-43"/>
     <use x="2704.900391" xlink:href="#DejaVuSans-20"/>
     <use x="2736.6875" xlink:href="#DejaVuSans-70"/>
     <use x="2800.164062" xlink:href="#DejaVuSans-65"/>
     <use x="2861.6875" xlink:href="#DejaVuSans-72"/>
     <use x="2902.800781" xlink:href="#DejaVuSans-20"/>
     <use x="2934.587891" xlink:href="#DejaVuSans-73"/>
     <use x="2986.6875" xlink:href="#DejaVuSans-68"/>
     <use x="3050.066406" xlink:href="#DejaVuSans-69"/>
     <use x="3077.849609" xlink:href="#DejaVuSans-70"/>
     <use x="3141.326172" xlink:href="#DejaVuSans-70"/>
     <use x="3204.802734" xlink:href="#DejaVuSans-69"/>
     <use x="3232.585938" xlink:href="#DejaVuSans-6e"/>
     <use x="3295.964844" xlink:href="#DejaVuSans-67"/>
     <use x="3359.441406" xlink:href="#DejaVuSans-20"/>
     <use x="3391.228516" xlink:href="#DejaVuSans-6c"/>
     <use x="3419.011719" xlink:href="#DejaVuSans-6f"/>
     <use x="3480.193359" xlink:href="#DejaVuSans-63"/>
     <use x="3535.173828" xlink:href="#DejaVuSans-61"/>
     <use x="3596.453125" xlink:href="#DejaVuSans-6c"/>
     <use x="3624.236328" xlink:href="#DejaVuSans-69"/>
     <use x="3652.019531" xlink:href="#DejaVuSans-74"/>
     <use x="3691.228516" xlink:href="#DejaVuSans-79"/>
    </g>
   </g>
  </g>
 </g>
 <defs>
  <clipPath id="pc6b6ef459d">
   <rect height="887.04" width="1123.2" x="561.6" y="138.24"/>
  </clipPath>
 </defs>
</svg>
