<?xml version="1.0" encoding="utf-8" standalone="no"?>
<!DOCTYPE svg PUBLIC "-//W3C//DTD SVG 1.1//EN"
  "http://www.w3.org/Graphics/SVG/1.1/DTD/svg11.dtd">
<svg height="345.6pt" version="1.1" viewBox="0 0 460.8 345.6" width="460.8pt" xmlns="http://www.w3.org/2000/svg" xmlns:xlink="http://www.w3.org/1999/xlink">
 <metadata>
  <rdf:RDF xmlns:cc="http://creativecommons.org/ns#" xmlns:dc="http://purl.org/dc/elements/1.1/" xmlns:rdf="http://www.w3.org/1999/02/22-rdf-syntax-ns#">
   <cc:Work>
    <dc:type rdf:resource="http://purl.org/dc/dcmitype/StillImage"/>
    <dc:date>2021-07-11T18:57:08.945429</dc:date>
    <dc:format>image/svg+xml</dc:format>
    <dc:creator>
     <cc:Agent>
      <dc:title>Matplotlib v3.4.2, https://matplotlib.org/</dc:title>
     </cc:Agent>
    </dc:creator>
   </cc:Work>
  </rdf:RDF>
 </metadata>
 <defs>
  <style type="text/css">*{stroke-linecap:butt;stroke-linejoin:round;}</style>
 </defs>
 <g id="figure_1">
  <g id="patch_1">
   <path d="M 0 345.6 
L 460.8 345.6 
L 460.8 0 
L 0 0 
z
" style="fill:#ffffff;"/>
  </g>
  <g id="axes_1">
   <g id="patch_2">
    <path d="M 230.4 307.584 
L 414.72 307.584 
L 414.72 41.472 
L 230.4 41.472 
z
" style="fill:#eaeaf2;"/>
   </g>
   <g id="matplotlib.axis_1">
    <g id="xtick_1">
     <g id="text_1">
      <!-- transactions -->
      <g style="fill:#262626;" transform="translate(288.626719 325.442281)scale(0.11 -0.11)">
       <defs>
        <path d="M 1172 4494 
L 1172 3500 
L 2356 3500 
L 2356 3053 
L 1172 3053 
L 1172 1153 
Q 1172 725 1289 603 
Q 1406 481 1766 481 
L 2356 481 
L 2356 0 
L 1766 0 
Q 1100 0 847 248 
Q 594 497 594 1153 
L 594 3053 
L 172 3053 
L 172 3500 
L 594 3500 
L 594 4494 
L 1172 4494 
z
" id="DejaVuSans-74" transform="scale(0.015625)"/>
        <path d="M 2631 2963 
Q 2534 3019 2420 3045 
Q 2306 3072 2169 3072 
Q 1681 3072 1420 2755 
Q 1159 2438 1159 1844 
L 1159 0 
L 581 0 
L 581 3500 
L 1159 3500 
L 1159 2956 
Q 1341 3275 1631 3429 
Q 1922 3584 2338 3584 
Q 2397 3584 2469 3576 
Q 2541 3569 2628 3553 
L 2631 2963 
z
" id="DejaVuSans-72" transform="scale(0.015625)"/>
        <path d="M 2194 1759 
Q 1497 1759 1228 1600 
Q 959 1441 959 1056 
Q 959 750 1161 570 
Q 1363 391 1709 391 
Q 2188 391 2477 730 
Q 2766 1069 2766 1631 
L 2766 1759 
L 2194 1759 
z
M 3341 1997 
L 3341 0 
L 2766 0 
L 2766 531 
Q 2569 213 2275 61 
Q 1981 -91 1556 -91 
Q 1019 -91 701 211 
Q 384 513 384 1019 
Q 384 1609 779 1909 
Q 1175 2209 1959 2209 
L 2766 2209 
L 2766 2266 
Q 2766 2663 2505 2880 
Q 2244 3097 1772 3097 
Q 1472 3097 1187 3025 
Q 903 2953 641 2809 
L 641 3341 
Q 956 3463 1253 3523 
Q 1550 3584 1831 3584 
Q 2591 3584 2966 3190 
Q 3341 2797 3341 1997 
z
" id="DejaVuSans-61" transform="scale(0.015625)"/>
        <path d="M 3513 2113 
L 3513 0 
L 2938 0 
L 2938 2094 
Q 2938 2591 2744 2837 
Q 2550 3084 2163 3084 
Q 1697 3084 1428 2787 
Q 1159 2491 1159 1978 
L 1159 0 
L 581 0 
L 581 3500 
L 1159 3500 
L 1159 2956 
Q 1366 3272 1645 3428 
Q 1925 3584 2291 3584 
Q 2894 3584 3203 3211 
Q 3513 2838 3513 2113 
z
" id="DejaVuSans-6e" transform="scale(0.015625)"/>
        <path d="M 2834 3397 
L 2834 2853 
Q 2591 2978 2328 3040 
Q 2066 3103 1784 3103 
Q 1356 3103 1142 2972 
Q 928 2841 928 2578 
Q 928 2378 1081 2264 
Q 1234 2150 1697 2047 
L 1894 2003 
Q 2506 1872 2764 1633 
Q 3022 1394 3022 966 
Q 3022 478 2636 193 
Q 2250 -91 1575 -91 
Q 1294 -91 989 -36 
Q 684 19 347 128 
L 347 722 
Q 666 556 975 473 
Q 1284 391 1588 391 
Q 1994 391 2212 530 
Q 2431 669 2431 922 
Q 2431 1156 2273 1281 
Q 2116 1406 1581 1522 
L 1381 1569 
Q 847 1681 609 1914 
Q 372 2147 372 2553 
Q 372 3047 722 3315 
Q 1072 3584 1716 3584 
Q 2034 3584 2315 3537 
Q 2597 3491 2834 3397 
z
" id="DejaVuSans-73" transform="scale(0.015625)"/>
        <path d="M 3122 3366 
L 3122 2828 
Q 2878 2963 2633 3030 
Q 2388 3097 2138 3097 
Q 1578 3097 1268 2742 
Q 959 2388 959 1747 
Q 959 1106 1268 751 
Q 1578 397 2138 397 
Q 2388 397 2633 464 
Q 2878 531 3122 666 
L 3122 134 
Q 2881 22 2623 -34 
Q 2366 -91 2075 -91 
Q 1284 -91 818 406 
Q 353 903 353 1747 
Q 353 2603 823 3093 
Q 1294 3584 2113 3584 
Q 2378 3584 2631 3529 
Q 2884 3475 3122 3366 
z
" id="DejaVuSans-63" transform="scale(0.015625)"/>
        <path d="M 603 3500 
L 1178 3500 
L 1178 0 
L 603 0 
L 603 3500 
z
M 603 4863 
L 1178 4863 
L 1178 4134 
L 603 4134 
L 603 4863 
z
" id="DejaVuSans-69" transform="scale(0.015625)"/>
        <path d="M 1959 3097 
Q 1497 3097 1228 2736 
Q 959 2375 959 1747 
Q 959 1119 1226 758 
Q 1494 397 1959 397 
Q 2419 397 2687 759 
Q 2956 1122 2956 1747 
Q 2956 2369 2687 2733 
Q 2419 3097 1959 3097 
z
M 1959 3584 
Q 2709 3584 3137 3096 
Q 3566 2609 3566 1747 
Q 3566 888 3137 398 
Q 2709 -91 1959 -91 
Q 1206 -91 779 398 
Q 353 888 353 1747 
Q 353 2609 779 3096 
Q 1206 3584 1959 3584 
z
" id="DejaVuSans-6f" transform="scale(0.015625)"/>
       </defs>
       <use xlink:href="#DejaVuSans-74"/>
       <use x="39.208984" xlink:href="#DejaVuSans-72"/>
       <use x="80.322266" xlink:href="#DejaVuSans-61"/>
       <use x="141.601562" xlink:href="#DejaVuSans-6e"/>
       <use x="204.980469" xlink:href="#DejaVuSans-73"/>
       <use x="257.080078" xlink:href="#DejaVuSans-61"/>
       <use x="318.359375" xlink:href="#DejaVuSans-63"/>
       <use x="373.339844" xlink:href="#DejaVuSans-74"/>
       <use x="412.548828" xlink:href="#DejaVuSans-69"/>
       <use x="440.332031" xlink:href="#DejaVuSans-6f"/>
       <use x="501.513672" xlink:href="#DejaVuSans-6e"/>
       <use x="564.892578" xlink:href="#DejaVuSans-73"/>
      </g>
     </g>
    </g>
    <g id="text_2">
     <!-- ship_from -->
     <g style="fill:#262626;" transform="translate(293.196563 340.848062)scale(0.12 -0.12)">
      <defs>
       <path d="M 3513 2113 
L 3513 0 
L 2938 0 
L 2938 2094 
Q 2938 2591 2744 2837 
Q 2550 3084 2163 3084 
Q 1697 3084 1428 2787 
Q 1159 2491 1159 1978 
L 1159 0 
L 581 0 
L 581 4863 
L 1159 4863 
L 1159 2956 
Q 1366 3272 1645 3428 
Q 1925 3584 2291 3584 
Q 2894 3584 3203 3211 
Q 3513 2838 3513 2113 
z
" id="DejaVuSans-68" transform="scale(0.015625)"/>
       <path d="M 1159 525 
L 1159 -1331 
L 581 -1331 
L 581 3500 
L 1159 3500 
L 1159 2969 
Q 1341 3281 1617 3432 
Q 1894 3584 2278 3584 
Q 2916 3584 3314 3078 
Q 3713 2572 3713 1747 
Q 3713 922 3314 415 
Q 2916 -91 2278 -91 
Q 1894 -91 1617 61 
Q 1341 213 1159 525 
z
M 3116 1747 
Q 3116 2381 2855 2742 
Q 2594 3103 2138 3103 
Q 1681 3103 1420 2742 
Q 1159 2381 1159 1747 
Q 1159 1113 1420 752 
Q 1681 391 2138 391 
Q 2594 391 2855 752 
Q 3116 1113 3116 1747 
z
" id="DejaVuSans-70" transform="scale(0.015625)"/>
       <path d="M 3263 -1063 
L 3263 -1509 
L -63 -1509 
L -63 -1063 
L 3263 -1063 
z
" id="DejaVuSans-5f" transform="scale(0.015625)"/>
       <path d="M 2375 4863 
L 2375 4384 
L 1825 4384 
Q 1516 4384 1395 4259 
Q 1275 4134 1275 3809 
L 1275 3500 
L 2222 3500 
L 2222 3053 
L 1275 3053 
L 1275 0 
L 697 0 
L 697 3053 
L 147 3053 
L 147 3500 
L 697 3500 
L 697 3744 
Q 697 4328 969 4595 
Q 1241 4863 1831 4863 
L 2375 4863 
z
" id="DejaVuSans-66" transform="scale(0.015625)"/>
       <path d="M 3328 2828 
Q 3544 3216 3844 3400 
Q 4144 3584 4550 3584 
Q 5097 3584 5394 3201 
Q 5691 2819 5691 2113 
L 5691 0 
L 5113 0 
L 5113 2094 
Q 5113 2597 4934 2840 
Q 4756 3084 4391 3084 
Q 3944 3084 3684 2787 
Q 3425 2491 3425 1978 
L 3425 0 
L 2847 0 
L 2847 2094 
Q 2847 2600 2669 2842 
Q 2491 3084 2119 3084 
Q 1678 3084 1418 2786 
Q 1159 2488 1159 1978 
L 1159 0 
L 581 0 
L 581 3500 
L 1159 3500 
L 1159 2956 
Q 1356 3278 1631 3431 
Q 1906 3584 2284 3584 
Q 2666 3584 2933 3390 
Q 3200 3197 3328 2828 
z
" id="DejaVuSans-6d" transform="scale(0.015625)"/>
      </defs>
      <use xlink:href="#DejaVuSans-73"/>
      <use x="52.099609" xlink:href="#DejaVuSans-68"/>
      <use x="115.478516" xlink:href="#DejaVuSans-69"/>
      <use x="143.261719" xlink:href="#DejaVuSans-70"/>
      <use x="206.738281" xlink:href="#DejaVuSans-5f"/>
      <use x="256.738281" xlink:href="#DejaVuSans-66"/>
      <use x="291.943359" xlink:href="#DejaVuSans-72"/>
      <use x="330.806641" xlink:href="#DejaVuSans-6f"/>
      <use x="391.988281" xlink:href="#DejaVuSans-6d"/>
     </g>
    </g>
   </g>
   <g id="matplotlib.axis_2">
    <g id="ytick_1">
     <g id="line2d_1">
      <path clip-path="url(#pf3eb5aa96c)" d="M 230.4 270.029226 
L 414.72 270.029226 
" style="fill:none;stroke:#ffffff;stroke-linecap:round;"/>
     </g>
     <g id="text_3">
      <!-- 0 -->
      <g style="fill:#262626;" transform="translate(213.90125 274.208366)scale(0.11 -0.11)">
       <defs>
        <path d="M 2034 4250 
Q 1547 4250 1301 3770 
Q 1056 3291 1056 2328 
Q 1056 1369 1301 889 
Q 1547 409 2034 409 
Q 2525 409 2770 889 
Q 3016 1369 3016 2328 
Q 3016 3291 2770 3770 
Q 2525 4250 2034 4250 
z
M 2034 4750 
Q 2819 4750 3233 4129 
Q 3647 3509 3647 2328 
Q 3647 1150 3233 529 
Q 2819 -91 2034 -91 
Q 1250 -91 836 529 
Q 422 1150 422 2328 
Q 422 3509 836 4129 
Q 1250 4750 2034 4750 
z
" id="DejaVuSans-30" transform="scale(0.015625)"/>
       </defs>
       <use xlink:href="#DejaVuSans-30"/>
      </g>
     </g>
    </g>
    <g id="ytick_2">
     <g id="line2d_2">
      <path clip-path="url(#pf3eb5aa96c)" d="M 230.4 218.938561 
L 414.72 218.938561 
" style="fill:none;stroke:#ffffff;stroke-linecap:round;"/>
     </g>
     <g id="text_4">
      <!-- 10000 -->
      <g style="fill:#262626;" transform="translate(185.90625 223.117701)scale(0.11 -0.11)">
       <defs>
        <path d="M 794 531 
L 1825 531 
L 1825 4091 
L 703 3866 
L 703 4441 
L 1819 4666 
L 2450 4666 
L 2450 531 
L 3481 531 
L 3481 0 
L 794 0 
L 794 531 
z
" id="DejaVuSans-31" transform="scale(0.015625)"/>
       </defs>
       <use xlink:href="#DejaVuSans-31"/>
       <use x="63.623047" xlink:href="#DejaVuSans-30"/>
       <use x="127.246094" xlink:href="#DejaVuSans-30"/>
       <use x="190.869141" xlink:href="#DejaVuSans-30"/>
       <use x="254.492188" xlink:href="#DejaVuSans-30"/>
      </g>
     </g>
    </g>
    <g id="ytick_3">
     <g id="line2d_3">
      <path clip-path="url(#pf3eb5aa96c)" d="M 230.4 167.847896 
L 414.72 167.847896 
" style="fill:none;stroke:#ffffff;stroke-linecap:round;"/>
     </g>
     <g id="text_5">
      <!-- 20000 -->
      <g style="fill:#262626;" transform="translate(185.90625 172.027036)scale(0.11 -0.11)">
       <defs>
        <path d="M 1228 531 
L 3431 531 
L 3431 0 
L 469 0 
L 469 531 
Q 828 903 1448 1529 
Q 2069 2156 2228 2338 
Q 2531 2678 2651 2914 
Q 2772 3150 2772 3378 
Q 2772 3750 2511 3984 
Q 2250 4219 1831 4219 
Q 1534 4219 1204 4116 
Q 875 4013 500 3803 
L 500 4441 
Q 881 4594 1212 4672 
Q 1544 4750 1819 4750 
Q 2544 4750 2975 4387 
Q 3406 4025 3406 3419 
Q 3406 3131 3298 2873 
Q 3191 2616 2906 2266 
Q 2828 2175 2409 1742 
Q 1991 1309 1228 531 
z
" id="DejaVuSans-32" transform="scale(0.015625)"/>
       </defs>
       <use xlink:href="#DejaVuSans-32"/>
       <use x="63.623047" xlink:href="#DejaVuSans-30"/>
       <use x="127.246094" xlink:href="#DejaVuSans-30"/>
       <use x="190.869141" xlink:href="#DejaVuSans-30"/>
       <use x="254.492188" xlink:href="#DejaVuSans-30"/>
      </g>
     </g>
    </g>
    <g id="ytick_4">
     <g id="line2d_4">
      <path clip-path="url(#pf3eb5aa96c)" d="M 230.4 116.75723 
L 414.72 116.75723 
" style="fill:none;stroke:#ffffff;stroke-linecap:round;"/>
     </g>
     <g id="text_6">
      <!-- 30000 -->
      <g style="fill:#262626;" transform="translate(185.90625 120.936371)scale(0.11 -0.11)">
       <defs>
        <path d="M 2597 2516 
Q 3050 2419 3304 2112 
Q 3559 1806 3559 1356 
Q 3559 666 3084 287 
Q 2609 -91 1734 -91 
Q 1441 -91 1130 -33 
Q 819 25 488 141 
L 488 750 
Q 750 597 1062 519 
Q 1375 441 1716 441 
Q 2309 441 2620 675 
Q 2931 909 2931 1356 
Q 2931 1769 2642 2001 
Q 2353 2234 1838 2234 
L 1294 2234 
L 1294 2753 
L 1863 2753 
Q 2328 2753 2575 2939 
Q 2822 3125 2822 3475 
Q 2822 3834 2567 4026 
Q 2313 4219 1838 4219 
Q 1578 4219 1281 4162 
Q 984 4106 628 3988 
L 628 4550 
Q 988 4650 1302 4700 
Q 1616 4750 1894 4750 
Q 2613 4750 3031 4423 
Q 3450 4097 3450 3541 
Q 3450 3153 3228 2886 
Q 3006 2619 2597 2516 
z
" id="DejaVuSans-33" transform="scale(0.015625)"/>
       </defs>
       <use xlink:href="#DejaVuSans-33"/>
       <use x="63.623047" xlink:href="#DejaVuSans-30"/>
       <use x="127.246094" xlink:href="#DejaVuSans-30"/>
       <use x="190.869141" xlink:href="#DejaVuSans-30"/>
       <use x="254.492188" xlink:href="#DejaVuSans-30"/>
      </g>
     </g>
    </g>
    <g id="ytick_5">
     <g id="line2d_5">
      <path clip-path="url(#pf3eb5aa96c)" d="M 230.4 65.666565 
L 414.72 65.666565 
" style="fill:none;stroke:#ffffff;stroke-linecap:round;"/>
     </g>
     <g id="text_7">
      <!-- 40000 -->
      <g style="fill:#262626;" transform="translate(185.90625 69.845706)scale(0.11 -0.11)">
       <defs>
        <path d="M 2419 4116 
L 825 1625 
L 2419 1625 
L 2419 4116 
z
M 2253 4666 
L 3047 4666 
L 3047 1625 
L 3713 1625 
L 3713 1100 
L 3047 1100 
L 3047 0 
L 2419 0 
L 2419 1100 
L 313 1100 
L 313 1709 
L 2253 4666 
z
" id="DejaVuSans-34" transform="scale(0.015625)"/>
       </defs>
       <use xlink:href="#DejaVuSans-34"/>
       <use x="63.623047" xlink:href="#DejaVuSans-30"/>
       <use x="127.246094" xlink:href="#DejaVuSans-30"/>
       <use x="190.869141" xlink:href="#DejaVuSans-30"/>
       <use x="254.492188" xlink:href="#DejaVuSans-30"/>
      </g>
     </g>
    </g>
    <g id="text_8">
     <!-- count -->
     <g style="fill:#262626;" transform="translate(179.410625 191.4555)rotate(-90)scale(0.12 -0.12)">
      <defs>
       <path d="M 544 1381 
L 544 3500 
L 1119 3500 
L 1119 1403 
Q 1119 906 1312 657 
Q 1506 409 1894 409 
Q 2359 409 2629 706 
Q 2900 1003 2900 1516 
L 2900 3500 
L 3475 3500 
L 3475 0 
L 2900 0 
L 2900 538 
Q 2691 219 2414 64 
Q 2138 -91 1772 -91 
Q 1169 -91 856 284 
Q 544 659 544 1381 
z
M 1991 3584 
L 1991 3584 
z
" id="DejaVuSans-75" transform="scale(0.015625)"/>
      </defs>
      <use xlink:href="#DejaVuSans-63"/>
      <use x="54.980469" xlink:href="#DejaVuSans-6f"/>
      <use x="116.162109" xlink:href="#DejaVuSans-75"/>
      <use x="179.541016" xlink:href="#DejaVuSans-6e"/>
      <use x="242.919922" xlink:href="#DejaVuSans-74"/>
     </g>
    </g>
   </g>
   <g id="PolyCollection_1">
    <defs>
     <path d="M 330.834203 -50.112 
L 314.285797 -50.112 
L 310.471106 -52.555636 
L 305.526767 -54.999273 
L 299.413926 -57.442909 
L 292.22458 -59.886545 
L 284.212094 -62.330182 
L 275.798981 -64.773818 
L 267.553308 -67.217455 
L 260.131281 -69.661091 
L 254.192132 -72.104727 
L 250.299871 -74.548364 
L 248.832 -76.992 
L 249.915656 -79.435636 
L 253.406157 -81.879273 
L 258.912986 -84.322909 
L 265.86677 -86.766545 
L 273.611384 -89.210182 
L 281.500602 -91.653818 
L 288.979931 -94.097455 
L 295.640237 -96.541091 
L 301.238363 -98.984727 
L 305.688039 -101.428364 
L 309.030041 -103.872 
L 311.392555 -106.315636 
L 312.951529 -108.759273 
L 313.897595 -111.202909 
L 314.412431 -113.646545 
L 314.654455 -116.090182 
L 314.751949 -118.533818 
L 314.801304 -120.977455 
L 314.868393 -123.421091 
L 314.991793 -125.864727 
L 315.187165 -128.308364 
L 315.452432 -130.752 
L 315.773437 -133.195636 
L 316.129698 -135.639273 
L 316.499757 -138.082909 
L 316.865602 -140.526545 
L 317.215701 -142.970182 
L 317.546343 -145.413818 
L 317.861228 -147.857455 
L 318.169495 -150.301091 
L 318.482694 -152.744727 
L 318.811373 -155.188364 
L 319.16209 -157.632 
L 319.53549 -160.075636 
L 319.925862 -162.519273 
L 320.322172 -164.962909 
L 320.710223 -167.406545 
L 321.075312 -169.850182 
L 321.404738 -172.293818 
L 321.689606 -174.737455 
L 321.925653 -177.181091 
L 322.113116 -179.624727 
L 322.255858 -182.068364 
L 322.360112 -184.512 
L 322.433181 -186.955636 
L 322.482347 -189.399273 
L 322.51412 -191.842909 
L 322.533847 -194.286545 
L 322.545618 -196.730182 
L 322.552371 -199.173818 
L 322.556094 -201.617455 
L 322.558067 -204.061091 
L 322.559064 -206.504727 
L 322.559532 -208.948364 
L 322.559702 -211.392 
L 322.559669 -213.835636 
L 322.55942 -216.279273 
L 322.55884 -218.722909 
L 322.557679 -221.166545 
L 322.555492 -223.610182 
L 322.551549 -226.053818 
L 322.544725 -228.497455 
L 322.533387 -230.941091 
L 322.51531 -233.384727 
L 322.487667 -235.828364 
L 322.447156 -238.272 
L 322.390323 -240.715636 
L 322.314089 -243.159273 
L 322.216488 -245.602909 
L 322.097498 -248.046545 
L 321.959804 -250.490182 
L 321.809274 -252.933818 
L 321.654939 -255.377455 
L 321.508322 -257.821091 
L 321.382134 -260.264727 
L 321.288498 -262.708364 
L 321.237039 -265.152 
L 321.233262 -267.595636 
L 321.277577 -270.039273 
L 321.365225 -272.482909 
L 321.487125 -274.926545 
L 321.631417 -277.370182 
L 321.785359 -279.813818 
L 321.937143 -282.257455 
L 322.077292 -284.701091 
L 322.19943 -287.144727 
L 322.300401 -289.588364 
L 322.379854 -292.032 
L 322.740146 -292.032 
L 322.740146 -292.032 
L 322.819599 -289.588364 
L 322.92057 -287.144727 
L 323.042708 -284.701091 
L 323.182857 -282.257455 
L 323.334641 -279.813818 
L 323.488583 -277.370182 
L 323.632875 -274.926545 
L 323.754775 -272.482909 
L 323.842423 -270.039273 
L 323.886738 -267.595636 
L 323.882961 -265.152 
L 323.831502 -262.708364 
L 323.737866 -260.264727 
L 323.611678 -257.821091 
L 323.465061 -255.377455 
L 323.310726 -252.933818 
L 323.160196 -250.490182 
L 323.022502 -248.046545 
L 322.903512 -245.602909 
L 322.805911 -243.159273 
L 322.729677 -240.715636 
L 322.672844 -238.272 
L 322.632333 -235.828364 
L 322.60469 -233.384727 
L 322.586613 -230.941091 
L 322.575275 -228.497455 
L 322.568451 -226.053818 
L 322.564508 -223.610182 
L 322.562321 -221.166545 
L 322.56116 -218.722909 
L 322.56058 -216.279273 
L 322.560331 -213.835636 
L 322.560298 -211.392 
L 322.560468 -208.948364 
L 322.560936 -206.504727 
L 322.561933 -204.061091 
L 322.563906 -201.617455 
L 322.567629 -199.173818 
L 322.574382 -196.730182 
L 322.586153 -194.286545 
L 322.60588 -191.842909 
L 322.637653 -189.399273 
L 322.686819 -186.955636 
L 322.759888 -184.512 
L 322.864142 -182.068364 
L 323.006884 -179.624727 
L 323.194347 -177.181091 
L 323.430394 -174.737455 
L 323.715262 -172.293818 
L 324.044688 -169.850182 
L 324.409777 -167.406545 
L 324.797828 -164.962909 
L 325.194138 -162.519273 
L 325.58451 -160.075636 
L 325.95791 -157.632 
L 326.308627 -155.188364 
L 326.637306 -152.744727 
L 326.950505 -150.301091 
L 327.258772 -147.857455 
L 327.573657 -145.413818 
L 327.904299 -142.970182 
L 328.254398 -140.526545 
L 328.620243 -138.082909 
L 328.990302 -135.639273 
L 329.346563 -133.195636 
L 329.667568 -130.752 
L 329.932835 -128.308364 
L 330.128207 -125.864727 
L 330.251607 -123.421091 
L 330.318696 -120.977455 
L 330.368051 -118.533818 
L 330.465545 -116.090182 
L 330.707569 -113.646545 
L 331.222405 -111.202909 
L 332.168471 -108.759273 
L 333.727445 -106.315636 
L 336.089959 -103.872 
L 339.431961 -101.428364 
L 343.881637 -98.984727 
L 349.479763 -96.541091 
L 356.140069 -94.097455 
L 363.619398 -91.653818 
L 371.508616 -89.210182 
L 379.25323 -86.766545 
L 386.207014 -84.322909 
L 391.713843 -81.879273 
L 395.204344 -79.435636 
L 396.288 -76.992 
L 394.820129 -74.548364 
L 390.927868 -72.104727 
L 384.988719 -69.661091 
L 377.566692 -67.217455 
L 369.321019 -64.773818 
L 360.907906 -62.330182 
L 352.89542 -59.886545 
L 345.706074 -57.442909 
L 339.593233 -54.999273 
L 334.648894 -52.555636 
L 330.834203 -50.112 
z
" id="m48effff0cb" style="stroke:#4c4c4c;stroke-width:1.5;"/>
    </defs>
    <g clip-path="url(#pf3eb5aa96c)">
     <use style="fill:#5875a4;stroke:#4c4c4c;stroke-width:1.5;" x="0" xlink:href="#m48effff0cb" y="345.6"/>
    </g>
   </g>
   <g id="line2d_6">
    <path clip-path="url(#pf3eb5aa96c)" d="M 322.56 270.019008 
L 322.56 262.227681 
" style="fill:none;stroke:#4c4c4c;stroke-linecap:round;stroke-width:1.5;"/>
   </g>
   <g id="line2d_7">
    <path clip-path="url(#pf3eb5aa96c)" d="M 322.56 269.95259 
L 322.56 266.131008 
" style="fill:none;stroke:#4c4c4c;stroke-linecap:round;stroke-width:4.5;"/>
   </g>
   <g id="patch_3">
    <path d="M 230.4 307.584 
L 230.4 41.472 
" style="fill:none;stroke:#ffffff;stroke-linecap:square;stroke-linejoin:miter;stroke-width:1.25;"/>
   </g>
   <g id="patch_4">
    <path d="M 414.72 307.584 
L 414.72 41.472 
" style="fill:none;stroke:#ffffff;stroke-linecap:square;stroke-linejoin:miter;stroke-width:1.25;"/>
   </g>
   <g id="patch_5">
    <path d="M 230.4 307.584 
L 414.72 307.584 
" style="fill:none;stroke:#ffffff;stroke-linecap:square;stroke-linejoin:miter;stroke-width:1.25;"/>
   </g>
   <g id="patch_6">
    <path d="M 230.4 41.472 
L 414.72 41.472 
" style="fill:none;stroke:#ffffff;stroke-linecap:square;stroke-linejoin:miter;stroke-width:1.25;"/>
   </g>
   <g id="PathCollection_1">
    <defs>
     <path d="M 0 1.5 
C 0.397805 1.5 0.77937 1.341951 1.06066 1.06066 
C 1.341951 0.77937 1.5 0.397805 1.5 0 
C 1.5 -0.397805 1.341951 -0.77937 1.06066 -1.06066 
C 0.77937 -1.341951 0.397805 -1.5 0 -1.5 
C -0.397805 -1.5 -0.77937 -1.341951 -1.06066 -1.06066 
C -1.341951 -0.77937 -1.5 -0.397805 -1.5 0 
C -1.5 0.397805 -1.341951 0.77937 -1.06066 1.06066 
C -0.77937 1.341951 -0.397805 1.5 0 1.5 
z
" id="me680c55221" style="stroke:#4c4c4c;"/>
    </defs>
    <g clip-path="url(#pf3eb5aa96c)">
     <use style="fill:#ffffff;stroke:#4c4c4c;" x="322.56" xlink:href="#me680c55221" y="269.191339"/>
    </g>
   </g>
  </g>
 </g>
 <defs>
  <clipPath id="pf3eb5aa96c">
   <rect height="266.112" width="184.32" x="230.4" y="41.472"/>
  </clipPath>
 </defs>
</svg>
