<?xml version="1.0" encoding="utf-8" standalone="no"?>
<!DOCTYPE svg PUBLIC "-//W3C//DTD SVG 1.1//EN"
  "http://www.w3.org/Graphics/SVG/1.1/DTD/svg11.dtd">
<svg height="1152pt" version="1.1" viewBox="0 0 1872 1152" width="1872pt" xmlns="http://www.w3.org/2000/svg" xmlns:xlink="http://www.w3.org/1999/xlink">
 <metadata>
  <rdf:RDF xmlns:cc="http://creativecommons.org/ns#" xmlns:dc="http://purl.org/dc/elements/1.1/" xmlns:rdf="http://www.w3.org/1999/02/22-rdf-syntax-ns#">
   <cc:Work>
    <dc:type rdf:resource="http://purl.org/dc/dcmitype/StillImage"/>
    <dc:date>2021-07-18T23:02:13.156223</dc:date>
    <dc:format>image/svg+xml</dc:format>
    <dc:creator>
     <cc:Agent>
      <dc:title>Matplotlib v3.4.2, https://matplotlib.org/</dc:title>
     </cc:Agent>
    </dc:creator>
   </cc:Work>
  </rdf:RDF>
 </metadata>
 <defs>
  <style type="text/css">*{stroke-linecap:butt;stroke-linejoin:round;}</style>
 </defs>
 <g id="figure_1">
  <g id="patch_1">
   <path d="M 0 1152 
L 1872 1152 
L 1872 0 
L 0 0 
z
" style="fill:#ffffff;"/>
  </g>
  <g id="axes_1">
   <g id="patch_2">
    <path d="M 561.6 1025.28 
L 1684.8 1025.28 
L 1684.8 138.24 
L 561.6 138.24 
z
" style="fill:#eaeaf2;"/>
   </g>
   <g id="matplotlib.axis_1">
    <g id="xtick_1">
     <g id="text_1">
      <!-- transactions -->
      <g style="fill:#262626;" transform="translate(1089.266719 1043.138281)scale(0.11 -0.11)">
       <defs>
        <path d="M 1172 4494 
L 1172 3500 
L 2356 3500 
L 2356 3053 
L 1172 3053 
L 1172 1153 
Q 1172 725 1289 603 
Q 1406 481 1766 481 
L 2356 481 
L 2356 0 
L 1766 0 
Q 1100 0 847 248 
Q 594 497 594 1153 
L 594 3053 
L 172 3053 
L 172 3500 
L 594 3500 
L 594 4494 
L 1172 4494 
z
" id="DejaVuSans-74" transform="scale(0.015625)"/>
        <path d="M 2631 2963 
Q 2534 3019 2420 3045 
Q 2306 3072 2169 3072 
Q 1681 3072 1420 2755 
Q 1159 2438 1159 1844 
L 1159 0 
L 581 0 
L 581 3500 
L 1159 3500 
L 1159 2956 
Q 1341 3275 1631 3429 
Q 1922 3584 2338 3584 
Q 2397 3584 2469 3576 
Q 2541 3569 2628 3553 
L 2631 2963 
z
" id="DejaVuSans-72" transform="scale(0.015625)"/>
        <path d="M 2194 1759 
Q 1497 1759 1228 1600 
Q 959 1441 959 1056 
Q 959 750 1161 570 
Q 1363 391 1709 391 
Q 2188 391 2477 730 
Q 2766 1069 2766 1631 
L 2766 1759 
L 2194 1759 
z
M 3341 1997 
L 3341 0 
L 2766 0 
L 2766 531 
Q 2569 213 2275 61 
Q 1981 -91 1556 -91 
Q 1019 -91 701 211 
Q 384 513 384 1019 
Q 384 1609 779 1909 
Q 1175 2209 1959 2209 
L 2766 2209 
L 2766 2266 
Q 2766 2663 2505 2880 
Q 2244 3097 1772 3097 
Q 1472 3097 1187 3025 
Q 903 2953 641 2809 
L 641 3341 
Q 956 3463 1253 3523 
Q 1550 3584 1831 3584 
Q 2591 3584 2966 3190 
Q 3341 2797 3341 1997 
z
" id="DejaVuSans-61" transform="scale(0.015625)"/>
        <path d="M 3513 2113 
L 3513 0 
L 2938 0 
L 2938 2094 
Q 2938 2591 2744 2837 
Q 2550 3084 2163 3084 
Q 1697 3084 1428 2787 
Q 1159 2491 1159 1978 
L 1159 0 
L 581 0 
L 581 3500 
L 1159 3500 
L 1159 2956 
Q 1366 3272 1645 3428 
Q 1925 3584 2291 3584 
Q 2894 3584 3203 3211 
Q 3513 2838 3513 2113 
z
" id="DejaVuSans-6e" transform="scale(0.015625)"/>
        <path d="M 2834 3397 
L 2834 2853 
Q 2591 2978 2328 3040 
Q 2066 3103 1784 3103 
Q 1356 3103 1142 2972 
Q 928 2841 928 2578 
Q 928 2378 1081 2264 
Q 1234 2150 1697 2047 
L 1894 2003 
Q 2506 1872 2764 1633 
Q 3022 1394 3022 966 
Q 3022 478 2636 193 
Q 2250 -91 1575 -91 
Q 1294 -91 989 -36 
Q 684 19 347 128 
L 347 722 
Q 666 556 975 473 
Q 1284 391 1588 391 
Q 1994 391 2212 530 
Q 2431 669 2431 922 
Q 2431 1156 2273 1281 
Q 2116 1406 1581 1522 
L 1381 1569 
Q 847 1681 609 1914 
Q 372 2147 372 2553 
Q 372 3047 722 3315 
Q 1072 3584 1716 3584 
Q 2034 3584 2315 3537 
Q 2597 3491 2834 3397 
z
" id="DejaVuSans-73" transform="scale(0.015625)"/>
        <path d="M 3122 3366 
L 3122 2828 
Q 2878 2963 2633 3030 
Q 2388 3097 2138 3097 
Q 1578 3097 1268 2742 
Q 959 2388 959 1747 
Q 959 1106 1268 751 
Q 1578 397 2138 397 
Q 2388 397 2633 464 
Q 2878 531 3122 666 
L 3122 134 
Q 2881 22 2623 -34 
Q 2366 -91 2075 -91 
Q 1284 -91 818 406 
Q 353 903 353 1747 
Q 353 2603 823 3093 
Q 1294 3584 2113 3584 
Q 2378 3584 2631 3529 
Q 2884 3475 3122 3366 
z
" id="DejaVuSans-63" transform="scale(0.015625)"/>
        <path d="M 603 3500 
L 1178 3500 
L 1178 0 
L 603 0 
L 603 3500 
z
M 603 4863 
L 1178 4863 
L 1178 4134 
L 603 4134 
L 603 4863 
z
" id="DejaVuSans-69" transform="scale(0.015625)"/>
        <path d="M 1959 3097 
Q 1497 3097 1228 2736 
Q 959 2375 959 1747 
Q 959 1119 1226 758 
Q 1494 397 1959 397 
Q 2419 397 2687 759 
Q 2956 1122 2956 1747 
Q 2956 2369 2687 2733 
Q 2419 3097 1959 3097 
z
M 1959 3584 
Q 2709 3584 3137 3096 
Q 3566 2609 3566 1747 
Q 3566 888 3137 398 
Q 2709 -91 1959 -91 
Q 1206 -91 779 398 
Q 353 888 353 1747 
Q 353 2609 779 3096 
Q 1206 3584 1959 3584 
z
" id="DejaVuSans-6f" transform="scale(0.015625)"/>
       </defs>
       <use xlink:href="#DejaVuSans-74"/>
       <use x="39.208984" xlink:href="#DejaVuSans-72"/>
       <use x="80.322266" xlink:href="#DejaVuSans-61"/>
       <use x="141.601562" xlink:href="#DejaVuSans-6e"/>
       <use x="204.980469" xlink:href="#DejaVuSans-73"/>
       <use x="257.080078" xlink:href="#DejaVuSans-61"/>
       <use x="318.359375" xlink:href="#DejaVuSans-63"/>
       <use x="373.339844" xlink:href="#DejaVuSans-74"/>
       <use x="412.548828" xlink:href="#DejaVuSans-69"/>
       <use x="440.332031" xlink:href="#DejaVuSans-6f"/>
       <use x="501.513672" xlink:href="#DejaVuSans-6e"/>
       <use x="564.892578" xlink:href="#DejaVuSans-73"/>
      </g>
     </g>
    </g>
    <g id="text_2">
     <!-- ship_from -->
     <g style="fill:#262626;" transform="translate(1093.836563 1058.544063)scale(0.12 -0.12)">
      <defs>
       <path d="M 3513 2113 
L 3513 0 
L 2938 0 
L 2938 2094 
Q 2938 2591 2744 2837 
Q 2550 3084 2163 3084 
Q 1697 3084 1428 2787 
Q 1159 2491 1159 1978 
L 1159 0 
L 581 0 
L 581 4863 
L 1159 4863 
L 1159 2956 
Q 1366 3272 1645 3428 
Q 1925 3584 2291 3584 
Q 2894 3584 3203 3211 
Q 3513 2838 3513 2113 
z
" id="DejaVuSans-68" transform="scale(0.015625)"/>
       <path d="M 1159 525 
L 1159 -1331 
L 581 -1331 
L 581 3500 
L 1159 3500 
L 1159 2969 
Q 1341 3281 1617 3432 
Q 1894 3584 2278 3584 
Q 2916 3584 3314 3078 
Q 3713 2572 3713 1747 
Q 3713 922 3314 415 
Q 2916 -91 2278 -91 
Q 1894 -91 1617 61 
Q 1341 213 1159 525 
z
M 3116 1747 
Q 3116 2381 2855 2742 
Q 2594 3103 2138 3103 
Q 1681 3103 1420 2742 
Q 1159 2381 1159 1747 
Q 1159 1113 1420 752 
Q 1681 391 2138 391 
Q 2594 391 2855 752 
Q 3116 1113 3116 1747 
z
" id="DejaVuSans-70" transform="scale(0.015625)"/>
       <path d="M 3263 -1063 
L 3263 -1509 
L -63 -1509 
L -63 -1063 
L 3263 -1063 
z
" id="DejaVuSans-5f" transform="scale(0.015625)"/>
       <path d="M 2375 4863 
L 2375 4384 
L 1825 4384 
Q 1516 4384 1395 4259 
Q 1275 4134 1275 3809 
L 1275 3500 
L 2222 3500 
L 2222 3053 
L 1275 3053 
L 1275 0 
L 697 0 
L 697 3053 
L 147 3053 
L 147 3500 
L 697 3500 
L 697 3744 
Q 697 4328 969 4595 
Q 1241 4863 1831 4863 
L 2375 4863 
z
" id="DejaVuSans-66" transform="scale(0.015625)"/>
       <path d="M 3328 2828 
Q 3544 3216 3844 3400 
Q 4144 3584 4550 3584 
Q 5097 3584 5394 3201 
Q 5691 2819 5691 2113 
L 5691 0 
L 5113 0 
L 5113 2094 
Q 5113 2597 4934 2840 
Q 4756 3084 4391 3084 
Q 3944 3084 3684 2787 
Q 3425 2491 3425 1978 
L 3425 0 
L 2847 0 
L 2847 2094 
Q 2847 2600 2669 2842 
Q 2491 3084 2119 3084 
Q 1678 3084 1418 2786 
Q 1159 2488 1159 1978 
L 1159 0 
L 581 0 
L 581 3500 
L 1159 3500 
L 1159 2956 
Q 1356 3278 1631 3431 
Q 1906 3584 2284 3584 
Q 2666 3584 2933 3390 
Q 3200 3197 3328 2828 
z
" id="DejaVuSans-6d" transform="scale(0.015625)"/>
      </defs>
      <use xlink:href="#DejaVuSans-73"/>
      <use x="52.099609" xlink:href="#DejaVuSans-68"/>
      <use x="115.478516" xlink:href="#DejaVuSans-69"/>
      <use x="143.261719" xlink:href="#DejaVuSans-70"/>
      <use x="206.738281" xlink:href="#DejaVuSans-5f"/>
      <use x="256.738281" xlink:href="#DejaVuSans-66"/>
      <use x="291.943359" xlink:href="#DejaVuSans-72"/>
      <use x="330.806641" xlink:href="#DejaVuSans-6f"/>
      <use x="391.988281" xlink:href="#DejaVuSans-6d"/>
     </g>
    </g>
   </g>
   <g id="matplotlib.axis_2">
    <g id="ytick_1">
     <g id="line2d_1">
      <path clip-path="url(#pf688d8394b)" d="M 561.6 888.509283 
L 1684.8 888.509283 
" style="fill:none;stroke:#ffffff;stroke-linecap:round;"/>
     </g>
     <g id="text_3">
      <!-- 0 -->
      <g style="fill:#262626;" transform="translate(545.10125 892.688423)scale(0.11 -0.11)">
       <defs>
        <path d="M 2034 4250 
Q 1547 4250 1301 3770 
Q 1056 3291 1056 2328 
Q 1056 1369 1301 889 
Q 1547 409 2034 409 
Q 2525 409 2770 889 
Q 3016 1369 3016 2328 
Q 3016 3291 2770 3770 
Q 2525 4250 2034 4250 
z
M 2034 4750 
Q 2819 4750 3233 4129 
Q 3647 3509 3647 2328 
Q 3647 1150 3233 529 
Q 2819 -91 2034 -91 
Q 1250 -91 836 529 
Q 422 1150 422 2328 
Q 422 3509 836 4129 
Q 1250 4750 2034 4750 
z
" id="DejaVuSans-30" transform="scale(0.015625)"/>
       </defs>
       <use xlink:href="#DejaVuSans-30"/>
      </g>
     </g>
    </g>
    <g id="ytick_2">
     <g id="line2d_2">
      <path clip-path="url(#pf688d8394b)" d="M 561.6 700.895043 
L 1684.8 700.895043 
" style="fill:none;stroke:#ffffff;stroke-linecap:round;"/>
     </g>
     <g id="text_4">
      <!-- 2000 -->
      <g style="fill:#262626;" transform="translate(524.105 705.074183)scale(0.11 -0.11)">
       <defs>
        <path d="M 1228 531 
L 3431 531 
L 3431 0 
L 469 0 
L 469 531 
Q 828 903 1448 1529 
Q 2069 2156 2228 2338 
Q 2531 2678 2651 2914 
Q 2772 3150 2772 3378 
Q 2772 3750 2511 3984 
Q 2250 4219 1831 4219 
Q 1534 4219 1204 4116 
Q 875 4013 500 3803 
L 500 4441 
Q 881 4594 1212 4672 
Q 1544 4750 1819 4750 
Q 2544 4750 2975 4387 
Q 3406 4025 3406 3419 
Q 3406 3131 3298 2873 
Q 3191 2616 2906 2266 
Q 2828 2175 2409 1742 
Q 1991 1309 1228 531 
z
" id="DejaVuSans-32" transform="scale(0.015625)"/>
       </defs>
       <use xlink:href="#DejaVuSans-32"/>
       <use x="63.623047" xlink:href="#DejaVuSans-30"/>
       <use x="127.246094" xlink:href="#DejaVuSans-30"/>
       <use x="190.869141" xlink:href="#DejaVuSans-30"/>
      </g>
     </g>
    </g>
    <g id="ytick_3">
     <g id="line2d_3">
      <path clip-path="url(#pf688d8394b)" d="M 561.6 513.280802 
L 1684.8 513.280802 
" style="fill:none;stroke:#ffffff;stroke-linecap:round;"/>
     </g>
     <g id="text_5">
      <!-- 4000 -->
      <g style="fill:#262626;" transform="translate(524.105 517.459943)scale(0.11 -0.11)">
       <defs>
        <path d="M 2419 4116 
L 825 1625 
L 2419 1625 
L 2419 4116 
z
M 2253 4666 
L 3047 4666 
L 3047 1625 
L 3713 1625 
L 3713 1100 
L 3047 1100 
L 3047 0 
L 2419 0 
L 2419 1100 
L 313 1100 
L 313 1709 
L 2253 4666 
z
" id="DejaVuSans-34" transform="scale(0.015625)"/>
       </defs>
       <use xlink:href="#DejaVuSans-34"/>
       <use x="63.623047" xlink:href="#DejaVuSans-30"/>
       <use x="127.246094" xlink:href="#DejaVuSans-30"/>
       <use x="190.869141" xlink:href="#DejaVuSans-30"/>
      </g>
     </g>
    </g>
    <g id="ytick_4">
     <g id="line2d_4">
      <path clip-path="url(#pf688d8394b)" d="M 561.6 325.666562 
L 1684.8 325.666562 
" style="fill:none;stroke:#ffffff;stroke-linecap:round;"/>
     </g>
     <g id="text_6">
      <!-- 6000 -->
      <g style="fill:#262626;" transform="translate(524.105 329.845703)scale(0.11 -0.11)">
       <defs>
        <path d="M 2113 2584 
Q 1688 2584 1439 2293 
Q 1191 2003 1191 1497 
Q 1191 994 1439 701 
Q 1688 409 2113 409 
Q 2538 409 2786 701 
Q 3034 994 3034 1497 
Q 3034 2003 2786 2293 
Q 2538 2584 2113 2584 
z
M 3366 4563 
L 3366 3988 
Q 3128 4100 2886 4159 
Q 2644 4219 2406 4219 
Q 1781 4219 1451 3797 
Q 1122 3375 1075 2522 
Q 1259 2794 1537 2939 
Q 1816 3084 2150 3084 
Q 2853 3084 3261 2657 
Q 3669 2231 3669 1497 
Q 3669 778 3244 343 
Q 2819 -91 2113 -91 
Q 1303 -91 875 529 
Q 447 1150 447 2328 
Q 447 3434 972 4092 
Q 1497 4750 2381 4750 
Q 2619 4750 2861 4703 
Q 3103 4656 3366 4563 
z
" id="DejaVuSans-36" transform="scale(0.015625)"/>
       </defs>
       <use xlink:href="#DejaVuSans-36"/>
       <use x="63.623047" xlink:href="#DejaVuSans-30"/>
       <use x="127.246094" xlink:href="#DejaVuSans-30"/>
       <use x="190.869141" xlink:href="#DejaVuSans-30"/>
      </g>
     </g>
    </g>
    <g id="text_7">
     <!-- count -->
     <g style="fill:#262626;" transform="translate(517.609375 598.6875)rotate(-90)scale(0.12 -0.12)">
      <defs>
       <path d="M 544 1381 
L 544 3500 
L 1119 3500 
L 1119 1403 
Q 1119 906 1312 657 
Q 1506 409 1894 409 
Q 2359 409 2629 706 
Q 2900 1003 2900 1516 
L 2900 3500 
L 3475 3500 
L 3475 0 
L 2900 0 
L 2900 538 
Q 2691 219 2414 64 
Q 2138 -91 1772 -91 
Q 1169 -91 856 284 
Q 544 659 544 1381 
z
M 1991 3584 
L 1991 3584 
z
" id="DejaVuSans-75" transform="scale(0.015625)"/>
      </defs>
      <use xlink:href="#DejaVuSans-63"/>
      <use x="54.980469" xlink:href="#DejaVuSans-6f"/>
      <use x="116.162109" xlink:href="#DejaVuSans-75"/>
      <use x="179.541016" xlink:href="#DejaVuSans-6e"/>
      <use x="242.919922" xlink:href="#DejaVuSans-74"/>
     </g>
    </g>
   </g>
   <g id="PolyCollection_1">
    <defs>
     <path d="M 1172.776293 -167.04 
L 1073.623707 -167.04 
L 1053.880493 -175.185455 
L 1028.936566 -183.330909 
L 998.531788 -191.476364 
L 962.833555 -199.621818 
L 922.54961 -207.767273 
L 878.990737 -215.912727 
L 834.058073 -224.058182 
L 790.139181 -232.203636 
L 749.912412 -240.349091 
L 716.077695 -248.494545 
L 691.049503 -256.64 
L 676.659626 -264.785455 
L 673.92 -272.930909 
L 682.887518 -281.076364 
L 702.655077 -289.221818 
L 731.469965 -297.367273 
L 766.957603 -305.512727 
L 806.410966 -313.658182 
L 847.097529 -321.803636 
L 886.537359 -329.949091 
L 922.71651 -338.094545 
L 954.21562 -346.24 
L 980.250281 -354.385455 
L 1000.633778 -362.530909 
L 1015.681799 -370.676364 
L 1026.082256 -378.821818 
L 1032.752356 -386.967273 
L 1036.701125 -395.112727 
L 1038.910513 -403.258182 
L 1040.243294 -411.403636 
L 1041.381799 -419.549091 
L 1042.798213 -427.694545 
L 1044.754395 -435.84 
L 1047.326793 -443.985455 
L 1050.449904 -452.130909 
L 1053.970102 -460.276364 
L 1057.700905 -468.421818 
L 1061.471191 -476.567273 
L 1065.15963 -484.712727 
L 1068.711475 -492.858182 
L 1072.137395 -501.003636 
L 1075.497378 -509.149091 
L 1078.87535 -517.294545 
L 1082.351326 -525.44 
L 1085.977549 -533.585455 
L 1089.763375 -541.730909 
L 1093.671102 -549.876364 
L 1097.622246 -558.021818 
L 1101.511559 -566.167273 
L 1105.224865 -574.312727 
L 1108.656586 -582.458182 
L 1111.723646 -590.603636 
L 1114.373786 -598.749091 
L 1116.587845 -606.894545 
L 1118.376825 -615.04 
L 1119.775379 -623.185455 
L 1120.833623 -631.330909 
L 1121.608967 -639.476364 
L 1122.159206 -647.621818 
L 1122.537521 -655.767273 
L 1122.789489 -663.912727 
L 1122.951876 -672.058182 
L 1123.052726 -680.203636 
L 1123.112245 -688.349091 
L 1123.144019 -696.494545 
L 1123.156226 -704.64 
L 1123.152628 -712.785455 
L 1123.133232 -720.930909 
L 1123.094629 -729.076364 
L 1123.03008 -737.221818 
L 1122.929491 -745.367273 
L 1122.77946 -753.512727 
L 1122.563639 -761.658182 
L 1122.263613 -769.803636 
L 1121.860511 -777.949091 
L 1121.337397 -786.094545 
L 1120.682394 -794.24 
L 1119.892204 -802.385455 
L 1118.975529 -810.530909 
L 1117.955692 -818.676364 
L 1116.871711 -826.821818 
L 1115.77722 -834.967273 
L 1114.736908 -843.112727 
L 1113.820628 -851.258182 
L 1113.09583 -859.403636 
L 1112.619414 -867.549091 
L 1112.430365 -875.694545 
L 1112.544485 -883.84 
L 1112.952212 -891.985455 
L 1113.619946 -900.130909 
L 1114.494614 -908.276364 
L 1115.510639 -916.421818 
L 1116.598013 -924.567273 
L 1117.690131 -932.712727 
L 1118.730179 -940.858182 
L 1119.675308 -949.003636 
L 1120.498317 -957.149091 
L 1121.187065 -965.294545 
L 1121.742168 -973.44 
L 1124.657832 -973.44 
L 1124.657832 -973.44 
L 1125.212935 -965.294545 
L 1125.901683 -957.149091 
L 1126.724692 -949.003636 
L 1127.669821 -940.858182 
L 1128.709869 -932.712727 
L 1129.801987 -924.567273 
L 1130.889361 -916.421818 
L 1131.905386 -908.276364 
L 1132.780054 -900.130909 
L 1133.447788 -891.985455 
L 1133.855515 -883.84 
L 1133.969635 -875.694545 
L 1133.780586 -867.549091 
L 1133.30417 -859.403636 
L 1132.579372 -851.258182 
L 1131.663092 -843.112727 
L 1130.62278 -834.967273 
L 1129.528289 -826.821818 
L 1128.444308 -818.676364 
L 1127.424471 -810.530909 
L 1126.507796 -802.385455 
L 1125.717606 -794.24 
L 1125.062603 -786.094545 
L 1124.539489 -777.949091 
L 1124.136387 -769.803636 
L 1123.836361 -761.658182 
L 1123.62054 -753.512727 
L 1123.470509 -745.367273 
L 1123.36992 -737.221818 
L 1123.305371 -729.076364 
L 1123.266768 -720.930909 
L 1123.247372 -712.785455 
L 1123.243774 -704.64 
L 1123.255981 -696.494545 
L 1123.287755 -688.349091 
L 1123.347274 -680.203636 
L 1123.448124 -672.058182 
L 1123.610511 -663.912727 
L 1123.862479 -655.767273 
L 1124.240794 -647.621818 
L 1124.791033 -639.476364 
L 1125.566377 -631.330909 
L 1126.624621 -623.185455 
L 1128.023175 -615.04 
L 1129.812155 -606.894545 
L 1132.026214 -598.749091 
L 1134.676354 -590.603636 
L 1137.743414 -582.458182 
L 1141.175135 -574.312727 
L 1144.888441 -566.167273 
L 1148.777754 -558.021818 
L 1152.728898 -549.876364 
L 1156.636625 -541.730909 
L 1160.422451 -533.585455 
L 1164.048674 -525.44 
L 1167.52465 -517.294545 
L 1170.902622 -509.149091 
L 1174.262605 -501.003636 
L 1177.688525 -492.858182 
L 1181.24037 -484.712727 
L 1184.928809 -476.567273 
L 1188.699095 -468.421818 
L 1192.429898 -460.276364 
L 1195.950096 -452.130909 
L 1199.073207 -443.985455 
L 1201.645605 -435.84 
L 1203.601787 -427.694545 
L 1205.018201 -419.549091 
L 1206.156706 -411.403636 
L 1207.489487 -403.258182 
L 1209.698875 -395.112727 
L 1213.647644 -386.967273 
L 1220.317744 -378.821818 
L 1230.718201 -370.676364 
L 1245.766222 -362.530909 
L 1266.149719 -354.385455 
L 1292.18438 -346.24 
L 1323.68349 -338.094545 
L 1359.862641 -329.949091 
L 1399.302471 -321.803636 
L 1439.989034 -313.658182 
L 1479.442397 -305.512727 
L 1514.930035 -297.367273 
L 1543.744923 -289.221818 
L 1563.512482 -281.076364 
L 1572.48 -272.930909 
L 1569.740374 -264.785455 
L 1555.350497 -256.64 
L 1530.322305 -248.494545 
L 1496.487588 -240.349091 
L 1456.260819 -232.203636 
L 1412.341927 -224.058182 
L 1367.409263 -215.912727 
L 1323.85039 -207.767273 
L 1283.566445 -199.621818 
L 1247.868212 -191.476364 
L 1217.463434 -183.330909 
L 1192.519507 -175.185455 
L 1172.776293 -167.04 
z
" id="maf208aa78b" style="stroke:#4c4c4c;stroke-width:1.5;"/>
    </defs>
    <g clip-path="url(#pf688d8394b)">
     <use style="fill:#5875a4;stroke:#4c4c4c;stroke-width:1.5;" x="0" xlink:href="#maf208aa78b" y="1152"/>
    </g>
   </g>
   <g id="line2d_5">
    <path clip-path="url(#pf688d8394b)" d="M 1123.2 888.227861 
L 1123.2 820.123892 
" style="fill:none;stroke:#4c4c4c;stroke-linecap:round;stroke-width:1.5;"/>
   </g>
   <g id="line2d_6">
    <path clip-path="url(#pf688d8394b)" d="M 1123.2 887.876085 
L 1123.2 855.653339 
" style="fill:none;stroke:#4c4c4c;stroke-linecap:round;stroke-width:4.5;"/>
   </g>
   <g id="patch_3">
    <path d="M 561.6 1025.28 
L 561.6 138.24 
" style="fill:none;stroke:#ffffff;stroke-linecap:square;stroke-linejoin:miter;stroke-width:1.25;"/>
   </g>
   <g id="patch_4">
    <path d="M 1684.8 1025.28 
L 1684.8 138.24 
" style="fill:none;stroke:#ffffff;stroke-linecap:square;stroke-linejoin:miter;stroke-width:1.25;"/>
   </g>
   <g id="patch_5">
    <path d="M 561.6 1025.28 
L 1684.8 1025.28 
" style="fill:none;stroke:#ffffff;stroke-linecap:square;stroke-linejoin:miter;stroke-width:1.25;"/>
   </g>
   <g id="patch_6">
    <path d="M 561.6 138.24 
L 1684.8 138.24 
" style="fill:none;stroke:#ffffff;stroke-linecap:square;stroke-linejoin:miter;stroke-width:1.25;"/>
   </g>
   <g id="PathCollection_1">
    <defs>
     <path d="M 0 1.5 
C 0.397805 1.5 0.77937 1.341951 1.06066 1.06066 
C 1.341951 0.77937 1.5 0.397805 1.5 0 
C 1.5 -0.397805 1.341951 -0.77937 1.06066 -1.06066 
C 0.77937 -1.341951 0.397805 -1.5 0 -1.5 
C -0.397805 -1.5 -0.77937 -1.341951 -1.06066 -1.06066 
C -1.341951 -0.77937 -1.5 -0.397805 -1.5 0 
C -1.5 0.397805 -1.341951 0.77937 -1.06066 1.06066 
C -0.77937 1.341951 -0.397805 1.5 0 1.5 
z
" id="mba2fc0dc9b" style="stroke:#4c4c4c;"/>
    </defs>
    <g clip-path="url(#pf688d8394b)">
     <use style="fill:#ffffff;stroke:#4c4c4c;" x="1123.2" xlink:href="#mba2fc0dc9b" y="884.428673"/>
    </g>
   </g>
   <g id="text_8">
    <!-- 01-june2014.csv - Total number of transactions per shipping locality -->
    <g style="fill:#262626;" transform="translate(918.623438 132.24)scale(0.12 -0.12)">
     <defs>
      <path d="M 794 531 
L 1825 531 
L 1825 4091 
L 703 3866 
L 703 4441 
L 1819 4666 
L 2450 4666 
L 2450 531 
L 3481 531 
L 3481 0 
L 794 0 
L 794 531 
z
" id="DejaVuSans-31" transform="scale(0.015625)"/>
      <path d="M 313 2009 
L 1997 2009 
L 1997 1497 
L 313 1497 
L 313 2009 
z
" id="DejaVuSans-2d" transform="scale(0.015625)"/>
      <path d="M 603 3500 
L 1178 3500 
L 1178 -63 
Q 1178 -731 923 -1031 
Q 669 -1331 103 -1331 
L -116 -1331 
L -116 -844 
L 38 -844 
Q 366 -844 484 -692 
Q 603 -541 603 -63 
L 603 3500 
z
M 603 4863 
L 1178 4863 
L 1178 4134 
L 603 4134 
L 603 4863 
z
" id="DejaVuSans-6a" transform="scale(0.015625)"/>
      <path d="M 3597 1894 
L 3597 1613 
L 953 1613 
Q 991 1019 1311 708 
Q 1631 397 2203 397 
Q 2534 397 2845 478 
Q 3156 559 3463 722 
L 3463 178 
Q 3153 47 2828 -22 
Q 2503 -91 2169 -91 
Q 1331 -91 842 396 
Q 353 884 353 1716 
Q 353 2575 817 3079 
Q 1281 3584 2069 3584 
Q 2775 3584 3186 3129 
Q 3597 2675 3597 1894 
z
M 3022 2063 
Q 3016 2534 2758 2815 
Q 2500 3097 2075 3097 
Q 1594 3097 1305 2825 
Q 1016 2553 972 2059 
L 3022 2063 
z
" id="DejaVuSans-65" transform="scale(0.015625)"/>
      <path d="M 684 794 
L 1344 794 
L 1344 0 
L 684 0 
L 684 794 
z
" id="DejaVuSans-2e" transform="scale(0.015625)"/>
      <path d="M 191 3500 
L 800 3500 
L 1894 563 
L 2988 3500 
L 3597 3500 
L 2284 0 
L 1503 0 
L 191 3500 
z
" id="DejaVuSans-76" transform="scale(0.015625)"/>
      <path id="DejaVuSans-20" transform="scale(0.015625)"/>
      <path d="M -19 4666 
L 3928 4666 
L 3928 4134 
L 2272 4134 
L 2272 0 
L 1638 0 
L 1638 4134 
L -19 4134 
L -19 4666 
z
" id="DejaVuSans-54" transform="scale(0.015625)"/>
      <path d="M 603 4863 
L 1178 4863 
L 1178 0 
L 603 0 
L 603 4863 
z
" id="DejaVuSans-6c" transform="scale(0.015625)"/>
      <path d="M 3116 1747 
Q 3116 2381 2855 2742 
Q 2594 3103 2138 3103 
Q 1681 3103 1420 2742 
Q 1159 2381 1159 1747 
Q 1159 1113 1420 752 
Q 1681 391 2138 391 
Q 2594 391 2855 752 
Q 3116 1113 3116 1747 
z
M 1159 2969 
Q 1341 3281 1617 3432 
Q 1894 3584 2278 3584 
Q 2916 3584 3314 3078 
Q 3713 2572 3713 1747 
Q 3713 922 3314 415 
Q 2916 -91 2278 -91 
Q 1894 -91 1617 61 
Q 1341 213 1159 525 
L 1159 0 
L 581 0 
L 581 4863 
L 1159 4863 
L 1159 2969 
z
" id="DejaVuSans-62" transform="scale(0.015625)"/>
      <path d="M 2906 1791 
Q 2906 2416 2648 2759 
Q 2391 3103 1925 3103 
Q 1463 3103 1205 2759 
Q 947 2416 947 1791 
Q 947 1169 1205 825 
Q 1463 481 1925 481 
Q 2391 481 2648 825 
Q 2906 1169 2906 1791 
z
M 3481 434 
Q 3481 -459 3084 -895 
Q 2688 -1331 1869 -1331 
Q 1566 -1331 1297 -1286 
Q 1028 -1241 775 -1147 
L 775 -588 
Q 1028 -725 1275 -790 
Q 1522 -856 1778 -856 
Q 2344 -856 2625 -561 
Q 2906 -266 2906 331 
L 2906 616 
Q 2728 306 2450 153 
Q 2172 0 1784 0 
Q 1141 0 747 490 
Q 353 981 353 1791 
Q 353 2603 747 3093 
Q 1141 3584 1784 3584 
Q 2172 3584 2450 3431 
Q 2728 3278 2906 2969 
L 2906 3500 
L 3481 3500 
L 3481 434 
z
" id="DejaVuSans-67" transform="scale(0.015625)"/>
      <path d="M 2059 -325 
Q 1816 -950 1584 -1140 
Q 1353 -1331 966 -1331 
L 506 -1331 
L 506 -850 
L 844 -850 
Q 1081 -850 1212 -737 
Q 1344 -625 1503 -206 
L 1606 56 
L 191 3500 
L 800 3500 
L 1894 763 
L 2988 3500 
L 3597 3500 
L 2059 -325 
z
" id="DejaVuSans-79" transform="scale(0.015625)"/>
     </defs>
     <use xlink:href="#DejaVuSans-30"/>
     <use x="63.623047" xlink:href="#DejaVuSans-31"/>
     <use x="127.246094" xlink:href="#DejaVuSans-2d"/>
     <use x="163.330078" xlink:href="#DejaVuSans-6a"/>
     <use x="191.113281" xlink:href="#DejaVuSans-75"/>
     <use x="254.492188" xlink:href="#DejaVuSans-6e"/>
     <use x="317.871094" xlink:href="#DejaVuSans-65"/>
     <use x="379.394531" xlink:href="#DejaVuSans-32"/>
     <use x="443.017578" xlink:href="#DejaVuSans-30"/>
     <use x="506.640625" xlink:href="#DejaVuSans-31"/>
     <use x="570.263672" xlink:href="#DejaVuSans-34"/>
     <use x="633.886719" xlink:href="#DejaVuSans-2e"/>
     <use x="665.673828" xlink:href="#DejaVuSans-63"/>
     <use x="720.654297" xlink:href="#DejaVuSans-73"/>
     <use x="772.753906" xlink:href="#DejaVuSans-76"/>
     <use x="831.933594" xlink:href="#DejaVuSans-20"/>
     <use x="863.720703" xlink:href="#DejaVuSans-2d"/>
     <use x="899.804688" xlink:href="#DejaVuSans-20"/>
     <use x="931.591797" xlink:href="#DejaVuSans-54"/>
     <use x="975.675781" xlink:href="#DejaVuSans-6f"/>
     <use x="1036.857422" xlink:href="#DejaVuSans-74"/>
     <use x="1076.066406" xlink:href="#DejaVuSans-61"/>
     <use x="1137.345703" xlink:href="#DejaVuSans-6c"/>
     <use x="1165.128906" xlink:href="#DejaVuSans-20"/>
     <use x="1196.916016" xlink:href="#DejaVuSans-6e"/>
     <use x="1260.294922" xlink:href="#DejaVuSans-75"/>
     <use x="1323.673828" xlink:href="#DejaVuSans-6d"/>
     <use x="1421.085938" xlink:href="#DejaVuSans-62"/>
     <use x="1484.5625" xlink:href="#DejaVuSans-65"/>
     <use x="1546.085938" xlink:href="#DejaVuSans-72"/>
     <use x="1587.199219" xlink:href="#DejaVuSans-20"/>
     <use x="1618.986328" xlink:href="#DejaVuSans-6f"/>
     <use x="1680.167969" xlink:href="#DejaVuSans-66"/>
     <use x="1715.373047" xlink:href="#DejaVuSans-20"/>
     <use x="1747.160156" xlink:href="#DejaVuSans-74"/>
     <use x="1786.369141" xlink:href="#DejaVuSans-72"/>
     <use x="1827.482422" xlink:href="#DejaVuSans-61"/>
     <use x="1888.761719" xlink:href="#DejaVuSans-6e"/>
     <use x="1952.140625" xlink:href="#DejaVuSans-73"/>
     <use x="2004.240234" xlink:href="#DejaVuSans-61"/>
     <use x="2065.519531" xlink:href="#DejaVuSans-63"/>
     <use x="2120.5" xlink:href="#DejaVuSans-74"/>
     <use x="2159.708984" xlink:href="#DejaVuSans-69"/>
     <use x="2187.492188" xlink:href="#DejaVuSans-6f"/>
     <use x="2248.673828" xlink:href="#DejaVuSans-6e"/>
     <use x="2312.052734" xlink:href="#DejaVuSans-73"/>
     <use x="2364.152344" xlink:href="#DejaVuSans-20"/>
     <use x="2395.939453" xlink:href="#DejaVuSans-70"/>
     <use x="2459.416016" xlink:href="#DejaVuSans-65"/>
     <use x="2520.939453" xlink:href="#DejaVuSans-72"/>
     <use x="2562.052734" xlink:href="#DejaVuSans-20"/>
     <use x="2593.839844" xlink:href="#DejaVuSans-73"/>
     <use x="2645.939453" xlink:href="#DejaVuSans-68"/>
     <use x="2709.318359" xlink:href="#DejaVuSans-69"/>
     <use x="2737.101562" xlink:href="#DejaVuSans-70"/>
     <use x="2800.578125" xlink:href="#DejaVuSans-70"/>
     <use x="2864.054688" xlink:href="#DejaVuSans-69"/>
     <use x="2891.837891" xlink:href="#DejaVuSans-6e"/>
     <use x="2955.216797" xlink:href="#DejaVuSans-67"/>
     <use x="3018.693359" xlink:href="#DejaVuSans-20"/>
     <use x="3050.480469" xlink:href="#DejaVuSans-6c"/>
     <use x="3078.263672" xlink:href="#DejaVuSans-6f"/>
     <use x="3139.445312" xlink:href="#DejaVuSans-63"/>
     <use x="3194.425781" xlink:href="#DejaVuSans-61"/>
     <use x="3255.705078" xlink:href="#DejaVuSans-6c"/>
     <use x="3283.488281" xlink:href="#DejaVuSans-69"/>
     <use x="3311.271484" xlink:href="#DejaVuSans-74"/>
     <use x="3350.480469" xlink:href="#DejaVuSans-79"/>
    </g>
   </g>
  </g>
 </g>
 <defs>
  <clipPath id="pf688d8394b">
   <rect height="887.04" width="1123.2" x="561.6" y="138.24"/>
  </clipPath>
 </defs>
</svg>
