<?xml version="1.0" encoding="utf-8" standalone="no"?>
<!DOCTYPE svg PUBLIC "-//W3C//DTD SVG 1.1//EN"
  "http://www.w3.org/Graphics/SVG/1.1/DTD/svg11.dtd">
<svg height="345.6pt" version="1.1" viewBox="0 0 460.8 345.6" width="460.8pt" xmlns="http://www.w3.org/2000/svg" xmlns:xlink="http://www.w3.org/1999/xlink">
 <metadata>
  <rdf:RDF xmlns:cc="http://creativecommons.org/ns#" xmlns:dc="http://purl.org/dc/elements/1.1/" xmlns:rdf="http://www.w3.org/1999/02/22-rdf-syntax-ns#">
   <cc:Work>
    <dc:type rdf:resource="http://purl.org/dc/dcmitype/StillImage"/>
    <dc:date>2021-07-11T18:58:38.661199</dc:date>
    <dc:format>image/svg+xml</dc:format>
    <dc:creator>
     <cc:Agent>
      <dc:title>Matplotlib v3.4.2, https://matplotlib.org/</dc:title>
     </cc:Agent>
    </dc:creator>
   </cc:Work>
  </rdf:RDF>
 </metadata>
 <defs>
  <style type="text/css">*{stroke-linecap:butt;stroke-linejoin:round;}</style>
 </defs>
 <g id="figure_1">
  <g id="patch_1">
   <path d="M 0 345.6 
L 460.8 345.6 
L 460.8 0 
L 0 0 
z
" style="fill:#ffffff;"/>
  </g>
  <g id="axes_1">
   <g id="patch_2">
    <path d="M 230.4 307.584 
L 414.72 307.584 
L 414.72 41.472 
L 230.4 41.472 
z
" style="fill:#eaeaf2;"/>
   </g>
   <g id="matplotlib.axis_1">
    <g id="xtick_1">
     <g id="text_1">
      <!-- btc -->
      <g style="fill:#262626;" transform="translate(313.888047 325.442281)scale(0.11 -0.11)">
       <defs>
        <path d="M 3116 1747 
Q 3116 2381 2855 2742 
Q 2594 3103 2138 3103 
Q 1681 3103 1420 2742 
Q 1159 2381 1159 1747 
Q 1159 1113 1420 752 
Q 1681 391 2138 391 
Q 2594 391 2855 752 
Q 3116 1113 3116 1747 
z
M 1159 2969 
Q 1341 3281 1617 3432 
Q 1894 3584 2278 3584 
Q 2916 3584 3314 3078 
Q 3713 2572 3713 1747 
Q 3713 922 3314 415 
Q 2916 -91 2278 -91 
Q 1894 -91 1617 61 
Q 1341 213 1159 525 
L 1159 0 
L 581 0 
L 581 4863 
L 1159 4863 
L 1159 2969 
z
" id="DejaVuSans-62" transform="scale(0.015625)"/>
        <path d="M 1172 4494 
L 1172 3500 
L 2356 3500 
L 2356 3053 
L 1172 3053 
L 1172 1153 
Q 1172 725 1289 603 
Q 1406 481 1766 481 
L 2356 481 
L 2356 0 
L 1766 0 
Q 1100 0 847 248 
Q 594 497 594 1153 
L 594 3053 
L 172 3053 
L 172 3500 
L 594 3500 
L 594 4494 
L 1172 4494 
z
" id="DejaVuSans-74" transform="scale(0.015625)"/>
        <path d="M 3122 3366 
L 3122 2828 
Q 2878 2963 2633 3030 
Q 2388 3097 2138 3097 
Q 1578 3097 1268 2742 
Q 959 2388 959 1747 
Q 959 1106 1268 751 
Q 1578 397 2138 397 
Q 2388 397 2633 464 
Q 2878 531 3122 666 
L 3122 134 
Q 2881 22 2623 -34 
Q 2366 -91 2075 -91 
Q 1284 -91 818 406 
Q 353 903 353 1747 
Q 353 2603 823 3093 
Q 1294 3584 2113 3584 
Q 2378 3584 2631 3529 
Q 2884 3475 3122 3366 
z
" id="DejaVuSans-63" transform="scale(0.015625)"/>
       </defs>
       <use xlink:href="#DejaVuSans-62"/>
       <use x="63.476562" xlink:href="#DejaVuSans-74"/>
       <use x="102.685547" xlink:href="#DejaVuSans-63"/>
      </g>
     </g>
    </g>
    <g id="text_2">
     <!-- ship_from -->
     <g style="fill:#262626;" transform="translate(293.196563 340.848062)scale(0.12 -0.12)">
      <defs>
       <path d="M 2834 3397 
L 2834 2853 
Q 2591 2978 2328 3040 
Q 2066 3103 1784 3103 
Q 1356 3103 1142 2972 
Q 928 2841 928 2578 
Q 928 2378 1081 2264 
Q 1234 2150 1697 2047 
L 1894 2003 
Q 2506 1872 2764 1633 
Q 3022 1394 3022 966 
Q 3022 478 2636 193 
Q 2250 -91 1575 -91 
Q 1294 -91 989 -36 
Q 684 19 347 128 
L 347 722 
Q 666 556 975 473 
Q 1284 391 1588 391 
Q 1994 391 2212 530 
Q 2431 669 2431 922 
Q 2431 1156 2273 1281 
Q 2116 1406 1581 1522 
L 1381 1569 
Q 847 1681 609 1914 
Q 372 2147 372 2553 
Q 372 3047 722 3315 
Q 1072 3584 1716 3584 
Q 2034 3584 2315 3537 
Q 2597 3491 2834 3397 
z
" id="DejaVuSans-73" transform="scale(0.015625)"/>
       <path d="M 3513 2113 
L 3513 0 
L 2938 0 
L 2938 2094 
Q 2938 2591 2744 2837 
Q 2550 3084 2163 3084 
Q 1697 3084 1428 2787 
Q 1159 2491 1159 1978 
L 1159 0 
L 581 0 
L 581 4863 
L 1159 4863 
L 1159 2956 
Q 1366 3272 1645 3428 
Q 1925 3584 2291 3584 
Q 2894 3584 3203 3211 
Q 3513 2838 3513 2113 
z
" id="DejaVuSans-68" transform="scale(0.015625)"/>
       <path d="M 603 3500 
L 1178 3500 
L 1178 0 
L 603 0 
L 603 3500 
z
M 603 4863 
L 1178 4863 
L 1178 4134 
L 603 4134 
L 603 4863 
z
" id="DejaVuSans-69" transform="scale(0.015625)"/>
       <path d="M 1159 525 
L 1159 -1331 
L 581 -1331 
L 581 3500 
L 1159 3500 
L 1159 2969 
Q 1341 3281 1617 3432 
Q 1894 3584 2278 3584 
Q 2916 3584 3314 3078 
Q 3713 2572 3713 1747 
Q 3713 922 3314 415 
Q 2916 -91 2278 -91 
Q 1894 -91 1617 61 
Q 1341 213 1159 525 
z
M 3116 1747 
Q 3116 2381 2855 2742 
Q 2594 3103 2138 3103 
Q 1681 3103 1420 2742 
Q 1159 2381 1159 1747 
Q 1159 1113 1420 752 
Q 1681 391 2138 391 
Q 2594 391 2855 752 
Q 3116 1113 3116 1747 
z
" id="DejaVuSans-70" transform="scale(0.015625)"/>
       <path d="M 3263 -1063 
L 3263 -1509 
L -63 -1509 
L -63 -1063 
L 3263 -1063 
z
" id="DejaVuSans-5f" transform="scale(0.015625)"/>
       <path d="M 2375 4863 
L 2375 4384 
L 1825 4384 
Q 1516 4384 1395 4259 
Q 1275 4134 1275 3809 
L 1275 3500 
L 2222 3500 
L 2222 3053 
L 1275 3053 
L 1275 0 
L 697 0 
L 697 3053 
L 147 3053 
L 147 3500 
L 697 3500 
L 697 3744 
Q 697 4328 969 4595 
Q 1241 4863 1831 4863 
L 2375 4863 
z
" id="DejaVuSans-66" transform="scale(0.015625)"/>
       <path d="M 2631 2963 
Q 2534 3019 2420 3045 
Q 2306 3072 2169 3072 
Q 1681 3072 1420 2755 
Q 1159 2438 1159 1844 
L 1159 0 
L 581 0 
L 581 3500 
L 1159 3500 
L 1159 2956 
Q 1341 3275 1631 3429 
Q 1922 3584 2338 3584 
Q 2397 3584 2469 3576 
Q 2541 3569 2628 3553 
L 2631 2963 
z
" id="DejaVuSans-72" transform="scale(0.015625)"/>
       <path d="M 1959 3097 
Q 1497 3097 1228 2736 
Q 959 2375 959 1747 
Q 959 1119 1226 758 
Q 1494 397 1959 397 
Q 2419 397 2687 759 
Q 2956 1122 2956 1747 
Q 2956 2369 2687 2733 
Q 2419 3097 1959 3097 
z
M 1959 3584 
Q 2709 3584 3137 3096 
Q 3566 2609 3566 1747 
Q 3566 888 3137 398 
Q 2709 -91 1959 -91 
Q 1206 -91 779 398 
Q 353 888 353 1747 
Q 353 2609 779 3096 
Q 1206 3584 1959 3584 
z
" id="DejaVuSans-6f" transform="scale(0.015625)"/>
       <path d="M 3328 2828 
Q 3544 3216 3844 3400 
Q 4144 3584 4550 3584 
Q 5097 3584 5394 3201 
Q 5691 2819 5691 2113 
L 5691 0 
L 5113 0 
L 5113 2094 
Q 5113 2597 4934 2840 
Q 4756 3084 4391 3084 
Q 3944 3084 3684 2787 
Q 3425 2491 3425 1978 
L 3425 0 
L 2847 0 
L 2847 2094 
Q 2847 2600 2669 2842 
Q 2491 3084 2119 3084 
Q 1678 3084 1418 2786 
Q 1159 2488 1159 1978 
L 1159 0 
L 581 0 
L 581 3500 
L 1159 3500 
L 1159 2956 
Q 1356 3278 1631 3431 
Q 1906 3584 2284 3584 
Q 2666 3584 2933 3390 
Q 3200 3197 3328 2828 
z
" id="DejaVuSans-6d" transform="scale(0.015625)"/>
      </defs>
      <use xlink:href="#DejaVuSans-73"/>
      <use x="52.099609" xlink:href="#DejaVuSans-68"/>
      <use x="115.478516" xlink:href="#DejaVuSans-69"/>
      <use x="143.261719" xlink:href="#DejaVuSans-70"/>
      <use x="206.738281" xlink:href="#DejaVuSans-5f"/>
      <use x="256.738281" xlink:href="#DejaVuSans-66"/>
      <use x="291.943359" xlink:href="#DejaVuSans-72"/>
      <use x="330.806641" xlink:href="#DejaVuSans-6f"/>
      <use x="391.988281" xlink:href="#DejaVuSans-6d"/>
     </g>
    </g>
   </g>
   <g id="matplotlib.axis_2">
    <g id="ytick_1">
     <g id="line2d_1">
      <path clip-path="url(#p179e3c1682)" d="M 230.4 274.018125 
L 414.72 274.018125 
" style="fill:none;stroke:#ffffff;stroke-linecap:round;"/>
     </g>
     <g id="text_3">
      <!-- 0.0 -->
      <g style="fill:#262626;" transform="translate(203.406563 278.197266)scale(0.11 -0.11)">
       <defs>
        <path d="M 2034 4250 
Q 1547 4250 1301 3770 
Q 1056 3291 1056 2328 
Q 1056 1369 1301 889 
Q 1547 409 2034 409 
Q 2525 409 2770 889 
Q 3016 1369 3016 2328 
Q 3016 3291 2770 3770 
Q 2525 4250 2034 4250 
z
M 2034 4750 
Q 2819 4750 3233 4129 
Q 3647 3509 3647 2328 
Q 3647 1150 3233 529 
Q 2819 -91 2034 -91 
Q 1250 -91 836 529 
Q 422 1150 422 2328 
Q 422 3509 836 4129 
Q 1250 4750 2034 4750 
z
" id="DejaVuSans-30" transform="scale(0.015625)"/>
        <path d="M 684 794 
L 1344 794 
L 1344 0 
L 684 0 
L 684 794 
z
" id="DejaVuSans-2e" transform="scale(0.015625)"/>
       </defs>
       <use xlink:href="#DejaVuSans-30"/>
       <use x="63.623047" xlink:href="#DejaVuSans-2e"/>
       <use x="95.410156" xlink:href="#DejaVuSans-30"/>
      </g>
     </g>
    </g>
    <g id="ytick_2">
     <g id="line2d_2">
      <path clip-path="url(#p179e3c1682)" d="M 230.4 231.138232 
L 414.72 231.138232 
" style="fill:none;stroke:#ffffff;stroke-linecap:round;"/>
     </g>
     <g id="text_4">
      <!-- 0.2 -->
      <g style="fill:#262626;" transform="translate(203.406563 235.317373)scale(0.11 -0.11)">
       <defs>
        <path d="M 1228 531 
L 3431 531 
L 3431 0 
L 469 0 
L 469 531 
Q 828 903 1448 1529 
Q 2069 2156 2228 2338 
Q 2531 2678 2651 2914 
Q 2772 3150 2772 3378 
Q 2772 3750 2511 3984 
Q 2250 4219 1831 4219 
Q 1534 4219 1204 4116 
Q 875 4013 500 3803 
L 500 4441 
Q 881 4594 1212 4672 
Q 1544 4750 1819 4750 
Q 2544 4750 2975 4387 
Q 3406 4025 3406 3419 
Q 3406 3131 3298 2873 
Q 3191 2616 2906 2266 
Q 2828 2175 2409 1742 
Q 1991 1309 1228 531 
z
" id="DejaVuSans-32" transform="scale(0.015625)"/>
       </defs>
       <use xlink:href="#DejaVuSans-30"/>
       <use x="63.623047" xlink:href="#DejaVuSans-2e"/>
       <use x="95.410156" xlink:href="#DejaVuSans-32"/>
      </g>
     </g>
    </g>
    <g id="ytick_3">
     <g id="line2d_3">
      <path clip-path="url(#p179e3c1682)" d="M 230.4 188.258338 
L 414.72 188.258338 
" style="fill:none;stroke:#ffffff;stroke-linecap:round;"/>
     </g>
     <g id="text_5">
      <!-- 0.4 -->
      <g style="fill:#262626;" transform="translate(203.406563 192.437479)scale(0.11 -0.11)">
       <defs>
        <path d="M 2419 4116 
L 825 1625 
L 2419 1625 
L 2419 4116 
z
M 2253 4666 
L 3047 4666 
L 3047 1625 
L 3713 1625 
L 3713 1100 
L 3047 1100 
L 3047 0 
L 2419 0 
L 2419 1100 
L 313 1100 
L 313 1709 
L 2253 4666 
z
" id="DejaVuSans-34" transform="scale(0.015625)"/>
       </defs>
       <use xlink:href="#DejaVuSans-30"/>
       <use x="63.623047" xlink:href="#DejaVuSans-2e"/>
       <use x="95.410156" xlink:href="#DejaVuSans-34"/>
      </g>
     </g>
    </g>
    <g id="ytick_4">
     <g id="line2d_4">
      <path clip-path="url(#p179e3c1682)" d="M 230.4 145.378445 
L 414.72 145.378445 
" style="fill:none;stroke:#ffffff;stroke-linecap:round;"/>
     </g>
     <g id="text_6">
      <!-- 0.6 -->
      <g style="fill:#262626;" transform="translate(203.406563 149.557585)scale(0.11 -0.11)">
       <defs>
        <path d="M 2113 2584 
Q 1688 2584 1439 2293 
Q 1191 2003 1191 1497 
Q 1191 994 1439 701 
Q 1688 409 2113 409 
Q 2538 409 2786 701 
Q 3034 994 3034 1497 
Q 3034 2003 2786 2293 
Q 2538 2584 2113 2584 
z
M 3366 4563 
L 3366 3988 
Q 3128 4100 2886 4159 
Q 2644 4219 2406 4219 
Q 1781 4219 1451 3797 
Q 1122 3375 1075 2522 
Q 1259 2794 1537 2939 
Q 1816 3084 2150 3084 
Q 2853 3084 3261 2657 
Q 3669 2231 3669 1497 
Q 3669 778 3244 343 
Q 2819 -91 2113 -91 
Q 1303 -91 875 529 
Q 447 1150 447 2328 
Q 447 3434 972 4092 
Q 1497 4750 2381 4750 
Q 2619 4750 2861 4703 
Q 3103 4656 3366 4563 
z
" id="DejaVuSans-36" transform="scale(0.015625)"/>
       </defs>
       <use xlink:href="#DejaVuSans-30"/>
       <use x="63.623047" xlink:href="#DejaVuSans-2e"/>
       <use x="95.410156" xlink:href="#DejaVuSans-36"/>
      </g>
     </g>
    </g>
    <g id="ytick_5">
     <g id="line2d_5">
      <path clip-path="url(#p179e3c1682)" d="M 230.4 102.498551 
L 414.72 102.498551 
" style="fill:none;stroke:#ffffff;stroke-linecap:round;"/>
     </g>
     <g id="text_7">
      <!-- 0.8 -->
      <g style="fill:#262626;" transform="translate(203.406563 106.677692)scale(0.11 -0.11)">
       <defs>
        <path d="M 2034 2216 
Q 1584 2216 1326 1975 
Q 1069 1734 1069 1313 
Q 1069 891 1326 650 
Q 1584 409 2034 409 
Q 2484 409 2743 651 
Q 3003 894 3003 1313 
Q 3003 1734 2745 1975 
Q 2488 2216 2034 2216 
z
M 1403 2484 
Q 997 2584 770 2862 
Q 544 3141 544 3541 
Q 544 4100 942 4425 
Q 1341 4750 2034 4750 
Q 2731 4750 3128 4425 
Q 3525 4100 3525 3541 
Q 3525 3141 3298 2862 
Q 3072 2584 2669 2484 
Q 3125 2378 3379 2068 
Q 3634 1759 3634 1313 
Q 3634 634 3220 271 
Q 2806 -91 2034 -91 
Q 1263 -91 848 271 
Q 434 634 434 1313 
Q 434 1759 690 2068 
Q 947 2378 1403 2484 
z
M 1172 3481 
Q 1172 3119 1398 2916 
Q 1625 2713 2034 2713 
Q 2441 2713 2670 2916 
Q 2900 3119 2900 3481 
Q 2900 3844 2670 4047 
Q 2441 4250 2034 4250 
Q 1625 4250 1398 4047 
Q 1172 3844 1172 3481 
z
" id="DejaVuSans-38" transform="scale(0.015625)"/>
       </defs>
       <use xlink:href="#DejaVuSans-30"/>
       <use x="63.623047" xlink:href="#DejaVuSans-2e"/>
       <use x="95.410156" xlink:href="#DejaVuSans-38"/>
      </g>
     </g>
    </g>
    <g id="ytick_6">
     <g id="line2d_6">
      <path clip-path="url(#p179e3c1682)" d="M 230.4 59.618658 
L 414.72 59.618658 
" style="fill:none;stroke:#ffffff;stroke-linecap:round;"/>
     </g>
     <g id="text_8">
      <!-- 1.0 -->
      <g style="fill:#262626;" transform="translate(203.406563 63.797798)scale(0.11 -0.11)">
       <defs>
        <path d="M 794 531 
L 1825 531 
L 1825 4091 
L 703 3866 
L 703 4441 
L 1819 4666 
L 2450 4666 
L 2450 531 
L 3481 531 
L 3481 0 
L 794 0 
L 794 531 
z
" id="DejaVuSans-31" transform="scale(0.015625)"/>
       </defs>
       <use xlink:href="#DejaVuSans-31"/>
       <use x="63.623047" xlink:href="#DejaVuSans-2e"/>
       <use x="95.410156" xlink:href="#DejaVuSans-30"/>
      </g>
     </g>
    </g>
    <g id="text_9">
     <!-- btc -->
     <g style="fill:#262626;" transform="translate(196.910938 183.988312)rotate(-90)scale(0.12 -0.12)">
      <use xlink:href="#DejaVuSans-62"/>
      <use x="63.476562" xlink:href="#DejaVuSans-74"/>
      <use x="102.685547" xlink:href="#DejaVuSans-63"/>
     </g>
    </g>
    <g id="text_10">
     <!-- 1e6 -->
     <g style="fill:#262626;" transform="translate(230.4 38.472)scale(0.11 -0.11)">
      <defs>
       <path d="M 3597 1894 
L 3597 1613 
L 953 1613 
Q 991 1019 1311 708 
Q 1631 397 2203 397 
Q 2534 397 2845 478 
Q 3156 559 3463 722 
L 3463 178 
Q 3153 47 2828 -22 
Q 2503 -91 2169 -91 
Q 1331 -91 842 396 
Q 353 884 353 1716 
Q 353 2575 817 3079 
Q 1281 3584 2069 3584 
Q 2775 3584 3186 3129 
Q 3597 2675 3597 1894 
z
M 3022 2063 
Q 3016 2534 2758 2815 
Q 2500 3097 2075 3097 
Q 1594 3097 1305 2825 
Q 1016 2553 972 2059 
L 3022 2063 
z
" id="DejaVuSans-65" transform="scale(0.015625)"/>
      </defs>
      <use xlink:href="#DejaVuSans-31"/>
      <use x="63.623047" xlink:href="#DejaVuSans-65"/>
      <use x="125.146484" xlink:href="#DejaVuSans-36"/>
     </g>
    </g>
   </g>
   <g id="PolyCollection_1">
    <defs>
     <path d="M 331.888996 -50.112 
L 313.231004 -50.112 
L 308.152076 -52.555636 
L 301.423106 -54.999273 
L 293.103699 -57.442909 
L 283.562163 -59.886545 
L 273.507531 -62.330182 
L 263.935652 -64.773818 
L 255.980815 -67.217455 
L 250.698012 -69.661091 
L 248.832 -72.104727 
L 250.642605 -74.548364 
L 255.842656 -76.992 
L 263.668708 -79.435636 
L 273.060325 -81.879273 
L 282.889824 -84.322909 
L 292.174482 -86.766545 
L 300.218577 -89.210182 
L 306.663516 -91.653818 
L 311.455937 -94.097455 
L 314.764112 -96.541091 
L 316.878023 -98.984727 
L 318.121034 -101.428364 
L 318.788156 -103.872 
L 319.113684 -106.315636 
L 319.263057 -108.759273 
L 319.34059 -111.202909 
L 319.404792 -113.646545 
L 319.484853 -116.090182 
L 319.594183 -118.533818 
L 319.739129 -120.977455 
L 319.9229 -123.421091 
L 320.145967 -125.864727 
L 320.404873 -128.308364 
L 320.691205 -130.752 
L 320.991871 -133.195636 
L 321.29087 -135.639273 
L 321.572065 -138.082909 
L 321.822004 -140.526545 
L 322.031953 -142.970182 
L 322.198651 -145.413818 
L 322.323798 -147.857455 
L 322.412666 -150.301091 
L 322.472374 -152.744727 
L 322.510344 -155.188364 
L 322.533204 -157.632 
L 322.546236 -160.075636 
L 322.553274 -162.519273 
L 322.556873 -164.962909 
L 322.558618 -167.406545 
L 322.559419 -169.850182 
L 322.559768 -172.293818 
L 322.559912 -174.737455 
L 322.559968 -177.181091 
L 322.559989 -179.624727 
L 322.559996 -182.068364 
L 322.559999 -184.512 
L 322.56 -186.955636 
L 322.56 -189.399273 
L 322.56 -191.842909 
L 322.56 -194.286545 
L 322.56 -196.730182 
L 322.56 -199.173818 
L 322.56 -201.617455 
L 322.56 -204.061091 
L 322.56 -206.504727 
L 322.56 -208.948364 
L 322.56 -211.392 
L 322.559999 -213.835636 
L 322.559997 -216.279273 
L 322.55999 -218.722909 
L 322.559972 -221.166545 
L 322.559922 -223.610182 
L 322.559794 -226.053818 
L 322.559484 -228.497455 
L 322.558773 -230.941091 
L 322.557229 -233.384727 
L 322.554061 -235.828364 
L 322.547913 -238.272 
L 322.536642 -240.715636 
L 322.517141 -243.159273 
L 322.48533 -245.602909 
L 322.436477 -248.046545 
L 322.365981 -250.490182 
L 322.27064 -252.933818 
L 322.15024 -255.377455 
L 322.009045 -257.821091 
L 321.856605 -260.264727 
L 321.707336 -262.708364 
L 321.578585 -265.152 
L 321.487435 -267.595636 
L 321.447012 -270.039273 
L 321.463387 -272.482909 
L 321.534082 -274.926545 
L 321.648686 -277.370182 
L 321.791367 -279.813818 
L 321.944446 -282.257455 
L 322.091931 -284.701091 
L 322.222052 -287.144727 
L 322.328322 -289.588364 
L 322.409195 -292.032 
L 322.710805 -292.032 
L 322.710805 -292.032 
L 322.791678 -289.588364 
L 322.897948 -287.144727 
L 323.028069 -284.701091 
L 323.175554 -282.257455 
L 323.328633 -279.813818 
L 323.471314 -277.370182 
L 323.585918 -274.926545 
L 323.656613 -272.482909 
L 323.672988 -270.039273 
L 323.632565 -267.595636 
L 323.541415 -265.152 
L 323.412664 -262.708364 
L 323.263395 -260.264727 
L 323.110955 -257.821091 
L 322.96976 -255.377455 
L 322.84936 -252.933818 
L 322.754019 -250.490182 
L 322.683523 -248.046545 
L 322.63467 -245.602909 
L 322.602859 -243.159273 
L 322.583358 -240.715636 
L 322.572087 -238.272 
L 322.565939 -235.828364 
L 322.562771 -233.384727 
L 322.561227 -230.941091 
L 322.560516 -228.497455 
L 322.560206 -226.053818 
L 322.560078 -223.610182 
L 322.560028 -221.166545 
L 322.56001 -218.722909 
L 322.560003 -216.279273 
L 322.560001 -213.835636 
L 322.56 -211.392 
L 322.56 -208.948364 
L 322.56 -206.504727 
L 322.56 -204.061091 
L 322.56 -201.617455 
L 322.56 -199.173818 
L 322.56 -196.730182 
L 322.56 -194.286545 
L 322.56 -191.842909 
L 322.56 -189.399273 
L 322.56 -186.955636 
L 322.560001 -184.512 
L 322.560004 -182.068364 
L 322.560011 -179.624727 
L 322.560032 -177.181091 
L 322.560088 -174.737455 
L 322.560232 -172.293818 
L 322.560581 -169.850182 
L 322.561382 -167.406545 
L 322.563127 -164.962909 
L 322.566726 -162.519273 
L 322.573764 -160.075636 
L 322.586796 -157.632 
L 322.609656 -155.188364 
L 322.647626 -152.744727 
L 322.707334 -150.301091 
L 322.796202 -147.857455 
L 322.921349 -145.413818 
L 323.088047 -142.970182 
L 323.297996 -140.526545 
L 323.547935 -138.082909 
L 323.82913 -135.639273 
L 324.128129 -133.195636 
L 324.428795 -130.752 
L 324.715127 -128.308364 
L 324.974033 -125.864727 
L 325.1971 -123.421091 
L 325.380871 -120.977455 
L 325.525817 -118.533818 
L 325.635147 -116.090182 
L 325.715208 -113.646545 
L 325.77941 -111.202909 
L 325.856943 -108.759273 
L 326.006316 -106.315636 
L 326.331844 -103.872 
L 326.998966 -101.428364 
L 328.241977 -98.984727 
L 330.355888 -96.541091 
L 333.664063 -94.097455 
L 338.456484 -91.653818 
L 344.901423 -89.210182 
L 352.945518 -86.766545 
L 362.230176 -84.322909 
L 372.059675 -81.879273 
L 381.451292 -79.435636 
L 389.277344 -76.992 
L 394.477395 -74.548364 
L 396.288 -72.104727 
L 394.421988 -69.661091 
L 389.139185 -67.217455 
L 381.184348 -64.773818 
L 371.612469 -62.330182 
L 361.557837 -59.886545 
L 352.016301 -57.442909 
L 343.696894 -54.999273 
L 336.967924 -52.555636 
L 331.888996 -50.112 
z
" id="m92503367b3" style="stroke:#4c4c4c;stroke-width:1.5;"/>
    </defs>
    <g clip-path="url(#p179e3c1682)">
     <use style="fill:#5875a4;stroke:#4c4c4c;stroke-width:1.5;" x="0" xlink:href="#m92503367b3" y="345.6"/>
    </g>
   </g>
   <g id="line2d_7">
    <path clip-path="url(#p179e3c1682)" d="M 322.56 274.018121 
L 322.56 273.383093 
" style="fill:none;stroke:#4c4c4c;stroke-linecap:round;stroke-width:1.5;"/>
   </g>
   <g id="line2d_8">
    <path clip-path="url(#p179e3c1682)" d="M 322.56 274.016517 
L 322.56 273.743302 
" style="fill:none;stroke:#4c4c4c;stroke-linecap:round;stroke-width:4.5;"/>
   </g>
   <g id="patch_3">
    <path d="M 230.4 307.584 
L 230.4 41.472 
" style="fill:none;stroke:#ffffff;stroke-linecap:square;stroke-linejoin:miter;stroke-width:1.25;"/>
   </g>
   <g id="patch_4">
    <path d="M 414.72 307.584 
L 414.72 41.472 
" style="fill:none;stroke:#ffffff;stroke-linecap:square;stroke-linejoin:miter;stroke-width:1.25;"/>
   </g>
   <g id="patch_5">
    <path d="M 230.4 307.584 
L 414.72 307.584 
" style="fill:none;stroke:#ffffff;stroke-linecap:square;stroke-linejoin:miter;stroke-width:1.25;"/>
   </g>
   <g id="patch_6">
    <path d="M 230.4 41.472 
L 414.72 41.472 
" style="fill:none;stroke:#ffffff;stroke-linecap:square;stroke-linejoin:miter;stroke-width:1.25;"/>
   </g>
   <g id="PathCollection_1">
    <defs>
     <path d="M 0 1.5 
C 0.397805 1.5 0.77937 1.341951 1.06066 1.06066 
C 1.341951 0.77937 1.5 0.397805 1.5 0 
C 1.5 -0.397805 1.341951 -0.77937 1.06066 -1.06066 
C 0.77937 -1.341951 0.397805 -1.5 0 -1.5 
C -0.397805 -1.5 -0.77937 -1.341951 -1.06066 -1.06066 
C -1.341951 -0.77937 -1.5 -0.397805 -1.5 0 
C -1.5 0.397805 -1.341951 0.77937 -1.06066 1.06066 
C -0.77937 1.341951 -0.397805 1.5 0 1.5 
z
" id="mff9687ad37" style="stroke:#4c4c4c;"/>
    </defs>
    <g clip-path="url(#p179e3c1682)">
     <use style="fill:#ffffff;stroke:#4c4c4c;" x="322.56" xlink:href="#mff9687ad37" y="273.993583"/>
    </g>
   </g>
  </g>
 </g>
 <defs>
  <clipPath id="p179e3c1682">
   <rect height="266.112" width="184.32" x="230.4" y="41.472"/>
  </clipPath>
 </defs>
</svg>
