<?xml version="1.0" encoding="utf-8" standalone="no"?>
<!DOCTYPE svg PUBLIC "-//W3C//DTD SVG 1.1//EN"
  "http://www.w3.org/Graphics/SVG/1.1/DTD/svg11.dtd">
<svg height="1152pt" version="1.1" viewBox="0 0 1872 1152" width="1872pt" xmlns="http://www.w3.org/2000/svg" xmlns:xlink="http://www.w3.org/1999/xlink">
 <metadata>
  <rdf:RDF xmlns:cc="http://creativecommons.org/ns#" xmlns:dc="http://purl.org/dc/elements/1.1/" xmlns:rdf="http://www.w3.org/1999/02/22-rdf-syntax-ns#">
   <cc:Work>
    <dc:type rdf:resource="http://purl.org/dc/dcmitype/StillImage"/>
    <dc:date>2021-08-29T20:23:34.568125</dc:date>
    <dc:format>image/svg+xml</dc:format>
    <dc:creator>
     <cc:Agent>
      <dc:title>Matplotlib v3.4.3, https://matplotlib.org/</dc:title>
     </cc:Agent>
    </dc:creator>
   </cc:Work>
  </rdf:RDF>
 </metadata>
 <defs>
  <style type="text/css">*{stroke-linecap:butt;stroke-linejoin:round;}</style>
 </defs>
 <g id="figure_1">
  <g id="patch_1">
   <path d="M 0 1152 
L 1872 1152 
L 1872 0 
L 0 0 
z
" style="fill:#ffffff;"/>
  </g>
  <g id="axes_1">
   <g id="patch_2">
    <path d="M 561.6 1025.28 
L 1684.8 1025.28 
L 1684.8 138.24 
L 561.6 138.24 
z
" style="fill:#eaeaf2;"/>
   </g>
   <g id="matplotlib.axis_1">
    <g id="xtick_1">
     <g id="text_1">
      <!-- transactions -->
      <g style="fill:#262626;" transform="translate(1089.266719 1043.138281)scale(0.11 -0.11)">
       <defs>
        <path d="M 1172 4494 
L 1172 3500 
L 2356 3500 
L 2356 3053 
L 1172 3053 
L 1172 1153 
Q 1172 725 1289 603 
Q 1406 481 1766 481 
L 2356 481 
L 2356 0 
L 1766 0 
Q 1100 0 847 248 
Q 594 497 594 1153 
L 594 3053 
L 172 3053 
L 172 3500 
L 594 3500 
L 594 4494 
L 1172 4494 
z
" id="DejaVuSans-74" transform="scale(0.015625)"/>
        <path d="M 2631 2963 
Q 2534 3019 2420 3045 
Q 2306 3072 2169 3072 
Q 1681 3072 1420 2755 
Q 1159 2438 1159 1844 
L 1159 0 
L 581 0 
L 581 3500 
L 1159 3500 
L 1159 2956 
Q 1341 3275 1631 3429 
Q 1922 3584 2338 3584 
Q 2397 3584 2469 3576 
Q 2541 3569 2628 3553 
L 2631 2963 
z
" id="DejaVuSans-72" transform="scale(0.015625)"/>
        <path d="M 2194 1759 
Q 1497 1759 1228 1600 
Q 959 1441 959 1056 
Q 959 750 1161 570 
Q 1363 391 1709 391 
Q 2188 391 2477 730 
Q 2766 1069 2766 1631 
L 2766 1759 
L 2194 1759 
z
M 3341 1997 
L 3341 0 
L 2766 0 
L 2766 531 
Q 2569 213 2275 61 
Q 1981 -91 1556 -91 
Q 1019 -91 701 211 
Q 384 513 384 1019 
Q 384 1609 779 1909 
Q 1175 2209 1959 2209 
L 2766 2209 
L 2766 2266 
Q 2766 2663 2505 2880 
Q 2244 3097 1772 3097 
Q 1472 3097 1187 3025 
Q 903 2953 641 2809 
L 641 3341 
Q 956 3463 1253 3523 
Q 1550 3584 1831 3584 
Q 2591 3584 2966 3190 
Q 3341 2797 3341 1997 
z
" id="DejaVuSans-61" transform="scale(0.015625)"/>
        <path d="M 3513 2113 
L 3513 0 
L 2938 0 
L 2938 2094 
Q 2938 2591 2744 2837 
Q 2550 3084 2163 3084 
Q 1697 3084 1428 2787 
Q 1159 2491 1159 1978 
L 1159 0 
L 581 0 
L 581 3500 
L 1159 3500 
L 1159 2956 
Q 1366 3272 1645 3428 
Q 1925 3584 2291 3584 
Q 2894 3584 3203 3211 
Q 3513 2838 3513 2113 
z
" id="DejaVuSans-6e" transform="scale(0.015625)"/>
        <path d="M 2834 3397 
L 2834 2853 
Q 2591 2978 2328 3040 
Q 2066 3103 1784 3103 
Q 1356 3103 1142 2972 
Q 928 2841 928 2578 
Q 928 2378 1081 2264 
Q 1234 2150 1697 2047 
L 1894 2003 
Q 2506 1872 2764 1633 
Q 3022 1394 3022 966 
Q 3022 478 2636 193 
Q 2250 -91 1575 -91 
Q 1294 -91 989 -36 
Q 684 19 347 128 
L 347 722 
Q 666 556 975 473 
Q 1284 391 1588 391 
Q 1994 391 2212 530 
Q 2431 669 2431 922 
Q 2431 1156 2273 1281 
Q 2116 1406 1581 1522 
L 1381 1569 
Q 847 1681 609 1914 
Q 372 2147 372 2553 
Q 372 3047 722 3315 
Q 1072 3584 1716 3584 
Q 2034 3584 2315 3537 
Q 2597 3491 2834 3397 
z
" id="DejaVuSans-73" transform="scale(0.015625)"/>
        <path d="M 3122 3366 
L 3122 2828 
Q 2878 2963 2633 3030 
Q 2388 3097 2138 3097 
Q 1578 3097 1268 2742 
Q 959 2388 959 1747 
Q 959 1106 1268 751 
Q 1578 397 2138 397 
Q 2388 397 2633 464 
Q 2878 531 3122 666 
L 3122 134 
Q 2881 22 2623 -34 
Q 2366 -91 2075 -91 
Q 1284 -91 818 406 
Q 353 903 353 1747 
Q 353 2603 823 3093 
Q 1294 3584 2113 3584 
Q 2378 3584 2631 3529 
Q 2884 3475 3122 3366 
z
" id="DejaVuSans-63" transform="scale(0.015625)"/>
        <path d="M 603 3500 
L 1178 3500 
L 1178 0 
L 603 0 
L 603 3500 
z
M 603 4863 
L 1178 4863 
L 1178 4134 
L 603 4134 
L 603 4863 
z
" id="DejaVuSans-69" transform="scale(0.015625)"/>
        <path d="M 1959 3097 
Q 1497 3097 1228 2736 
Q 959 2375 959 1747 
Q 959 1119 1226 758 
Q 1494 397 1959 397 
Q 2419 397 2687 759 
Q 2956 1122 2956 1747 
Q 2956 2369 2687 2733 
Q 2419 3097 1959 3097 
z
M 1959 3584 
Q 2709 3584 3137 3096 
Q 3566 2609 3566 1747 
Q 3566 888 3137 398 
Q 2709 -91 1959 -91 
Q 1206 -91 779 398 
Q 353 888 353 1747 
Q 353 2609 779 3096 
Q 1206 3584 1959 3584 
z
" id="DejaVuSans-6f" transform="scale(0.015625)"/>
       </defs>
       <use xlink:href="#DejaVuSans-74"/>
       <use x="39.208984" xlink:href="#DejaVuSans-72"/>
       <use x="80.322266" xlink:href="#DejaVuSans-61"/>
       <use x="141.601562" xlink:href="#DejaVuSans-6e"/>
       <use x="204.980469" xlink:href="#DejaVuSans-73"/>
       <use x="257.080078" xlink:href="#DejaVuSans-61"/>
       <use x="318.359375" xlink:href="#DejaVuSans-63"/>
       <use x="373.339844" xlink:href="#DejaVuSans-74"/>
       <use x="412.548828" xlink:href="#DejaVuSans-69"/>
       <use x="440.332031" xlink:href="#DejaVuSans-6f"/>
       <use x="501.513672" xlink:href="#DejaVuSans-6e"/>
       <use x="564.892578" xlink:href="#DejaVuSans-73"/>
      </g>
     </g>
    </g>
    <g id="text_2">
     <!-- ship_from -->
     <g style="fill:#262626;" transform="translate(1093.836563 1058.544063)scale(0.12 -0.12)">
      <defs>
       <path d="M 3513 2113 
L 3513 0 
L 2938 0 
L 2938 2094 
Q 2938 2591 2744 2837 
Q 2550 3084 2163 3084 
Q 1697 3084 1428 2787 
Q 1159 2491 1159 1978 
L 1159 0 
L 581 0 
L 581 4863 
L 1159 4863 
L 1159 2956 
Q 1366 3272 1645 3428 
Q 1925 3584 2291 3584 
Q 2894 3584 3203 3211 
Q 3513 2838 3513 2113 
z
" id="DejaVuSans-68" transform="scale(0.015625)"/>
       <path d="M 1159 525 
L 1159 -1331 
L 581 -1331 
L 581 3500 
L 1159 3500 
L 1159 2969 
Q 1341 3281 1617 3432 
Q 1894 3584 2278 3584 
Q 2916 3584 3314 3078 
Q 3713 2572 3713 1747 
Q 3713 922 3314 415 
Q 2916 -91 2278 -91 
Q 1894 -91 1617 61 
Q 1341 213 1159 525 
z
M 3116 1747 
Q 3116 2381 2855 2742 
Q 2594 3103 2138 3103 
Q 1681 3103 1420 2742 
Q 1159 2381 1159 1747 
Q 1159 1113 1420 752 
Q 1681 391 2138 391 
Q 2594 391 2855 752 
Q 3116 1113 3116 1747 
z
" id="DejaVuSans-70" transform="scale(0.015625)"/>
       <path d="M 3263 -1063 
L 3263 -1509 
L -63 -1509 
L -63 -1063 
L 3263 -1063 
z
" id="DejaVuSans-5f" transform="scale(0.015625)"/>
       <path d="M 2375 4863 
L 2375 4384 
L 1825 4384 
Q 1516 4384 1395 4259 
Q 1275 4134 1275 3809 
L 1275 3500 
L 2222 3500 
L 2222 3053 
L 1275 3053 
L 1275 0 
L 697 0 
L 697 3053 
L 147 3053 
L 147 3500 
L 697 3500 
L 697 3744 
Q 697 4328 969 4595 
Q 1241 4863 1831 4863 
L 2375 4863 
z
" id="DejaVuSans-66" transform="scale(0.015625)"/>
       <path d="M 3328 2828 
Q 3544 3216 3844 3400 
Q 4144 3584 4550 3584 
Q 5097 3584 5394 3201 
Q 5691 2819 5691 2113 
L 5691 0 
L 5113 0 
L 5113 2094 
Q 5113 2597 4934 2840 
Q 4756 3084 4391 3084 
Q 3944 3084 3684 2787 
Q 3425 2491 3425 1978 
L 3425 0 
L 2847 0 
L 2847 2094 
Q 2847 2600 2669 2842 
Q 2491 3084 2119 3084 
Q 1678 3084 1418 2786 
Q 1159 2488 1159 1978 
L 1159 0 
L 581 0 
L 581 3500 
L 1159 3500 
L 1159 2956 
Q 1356 3278 1631 3431 
Q 1906 3584 2284 3584 
Q 2666 3584 2933 3390 
Q 3200 3197 3328 2828 
z
" id="DejaVuSans-6d" transform="scale(0.015625)"/>
      </defs>
      <use xlink:href="#DejaVuSans-73"/>
      <use x="52.099609" xlink:href="#DejaVuSans-68"/>
      <use x="115.478516" xlink:href="#DejaVuSans-69"/>
      <use x="143.261719" xlink:href="#DejaVuSans-70"/>
      <use x="206.738281" xlink:href="#DejaVuSans-5f"/>
      <use x="256.738281" xlink:href="#DejaVuSans-66"/>
      <use x="291.943359" xlink:href="#DejaVuSans-72"/>
      <use x="330.806641" xlink:href="#DejaVuSans-6f"/>
      <use x="391.988281" xlink:href="#DejaVuSans-6d"/>
     </g>
    </g>
   </g>
   <g id="matplotlib.axis_2">
    <g id="ytick_1">
     <g id="line2d_1">
      <path clip-path="url(#p696d6b6acb)" d="M 561.6 929.817902 
L 1684.8 929.817902 
" style="fill:none;stroke:#ffffff;stroke-linecap:round;"/>
     </g>
     <g id="text_3">
      <!-- −50 -->
      <g style="fill:#262626;" transform="translate(528.884844 933.997043)scale(0.11 -0.11)">
       <defs>
        <path d="M 678 2272 
L 4684 2272 
L 4684 1741 
L 678 1741 
L 678 2272 
z
" id="DejaVuSans-2212" transform="scale(0.015625)"/>
        <path d="M 691 4666 
L 3169 4666 
L 3169 4134 
L 1269 4134 
L 1269 2991 
Q 1406 3038 1543 3061 
Q 1681 3084 1819 3084 
Q 2600 3084 3056 2656 
Q 3513 2228 3513 1497 
Q 3513 744 3044 326 
Q 2575 -91 1722 -91 
Q 1428 -91 1123 -41 
Q 819 9 494 109 
L 494 744 
Q 775 591 1075 516 
Q 1375 441 1709 441 
Q 2250 441 2565 725 
Q 2881 1009 2881 1497 
Q 2881 1984 2565 2268 
Q 2250 2553 1709 2553 
Q 1456 2553 1204 2497 
Q 953 2441 691 2322 
L 691 4666 
z
" id="DejaVuSans-35" transform="scale(0.015625)"/>
        <path d="M 2034 4250 
Q 1547 4250 1301 3770 
Q 1056 3291 1056 2328 
Q 1056 1369 1301 889 
Q 1547 409 2034 409 
Q 2525 409 2770 889 
Q 3016 1369 3016 2328 
Q 3016 3291 2770 3770 
Q 2525 4250 2034 4250 
z
M 2034 4750 
Q 2819 4750 3233 4129 
Q 3647 3509 3647 2328 
Q 3647 1150 3233 529 
Q 2819 -91 2034 -91 
Q 1250 -91 836 529 
Q 422 1150 422 2328 
Q 422 3509 836 4129 
Q 1250 4750 2034 4750 
z
" id="DejaVuSans-30" transform="scale(0.015625)"/>
       </defs>
       <use xlink:href="#DejaVuSans-2212"/>
       <use x="83.789062" xlink:href="#DejaVuSans-35"/>
       <use x="147.412109" xlink:href="#DejaVuSans-30"/>
      </g>
     </g>
    </g>
    <g id="ytick_2">
     <g id="line2d_2">
      <path clip-path="url(#p696d6b6acb)" d="M 561.6 827.145955 
L 1684.8 827.145955 
" style="fill:none;stroke:#ffffff;stroke-linecap:round;"/>
     </g>
     <g id="text_4">
      <!-- 0 -->
      <g style="fill:#262626;" transform="translate(545.10125 831.325095)scale(0.11 -0.11)">
       <use xlink:href="#DejaVuSans-30"/>
      </g>
     </g>
    </g>
    <g id="ytick_3">
     <g id="line2d_3">
      <path clip-path="url(#p696d6b6acb)" d="M 561.6 724.474007 
L 1684.8 724.474007 
" style="fill:none;stroke:#ffffff;stroke-linecap:round;"/>
     </g>
     <g id="text_5">
      <!-- 50 -->
      <g style="fill:#262626;" transform="translate(538.1025 728.653148)scale(0.11 -0.11)">
       <use xlink:href="#DejaVuSans-35"/>
       <use x="63.623047" xlink:href="#DejaVuSans-30"/>
      </g>
     </g>
    </g>
    <g id="ytick_4">
     <g id="line2d_4">
      <path clip-path="url(#p696d6b6acb)" d="M 561.6 621.80206 
L 1684.8 621.80206 
" style="fill:none;stroke:#ffffff;stroke-linecap:round;"/>
     </g>
     <g id="text_6">
      <!-- 100 -->
      <g style="fill:#262626;" transform="translate(531.10375 625.9812)scale(0.11 -0.11)">
       <defs>
        <path d="M 794 531 
L 1825 531 
L 1825 4091 
L 703 3866 
L 703 4441 
L 1819 4666 
L 2450 4666 
L 2450 531 
L 3481 531 
L 3481 0 
L 794 0 
L 794 531 
z
" id="DejaVuSans-31" transform="scale(0.015625)"/>
       </defs>
       <use xlink:href="#DejaVuSans-31"/>
       <use x="63.623047" xlink:href="#DejaVuSans-30"/>
       <use x="127.246094" xlink:href="#DejaVuSans-30"/>
      </g>
     </g>
    </g>
    <g id="ytick_5">
     <g id="line2d_5">
      <path clip-path="url(#p696d6b6acb)" d="M 561.6 519.130112 
L 1684.8 519.130112 
" style="fill:none;stroke:#ffffff;stroke-linecap:round;"/>
     </g>
     <g id="text_7">
      <!-- 150 -->
      <g style="fill:#262626;" transform="translate(531.10375 523.309253)scale(0.11 -0.11)">
       <use xlink:href="#DejaVuSans-31"/>
       <use x="63.623047" xlink:href="#DejaVuSans-35"/>
       <use x="127.246094" xlink:href="#DejaVuSans-30"/>
      </g>
     </g>
    </g>
    <g id="ytick_6">
     <g id="line2d_6">
      <path clip-path="url(#p696d6b6acb)" d="M 561.6 416.458164 
L 1684.8 416.458164 
" style="fill:none;stroke:#ffffff;stroke-linecap:round;"/>
     </g>
     <g id="text_8">
      <!-- 200 -->
      <g style="fill:#262626;" transform="translate(531.10375 420.637305)scale(0.11 -0.11)">
       <defs>
        <path d="M 1228 531 
L 3431 531 
L 3431 0 
L 469 0 
L 469 531 
Q 828 903 1448 1529 
Q 2069 2156 2228 2338 
Q 2531 2678 2651 2914 
Q 2772 3150 2772 3378 
Q 2772 3750 2511 3984 
Q 2250 4219 1831 4219 
Q 1534 4219 1204 4116 
Q 875 4013 500 3803 
L 500 4441 
Q 881 4594 1212 4672 
Q 1544 4750 1819 4750 
Q 2544 4750 2975 4387 
Q 3406 4025 3406 3419 
Q 3406 3131 3298 2873 
Q 3191 2616 2906 2266 
Q 2828 2175 2409 1742 
Q 1991 1309 1228 531 
z
" id="DejaVuSans-32" transform="scale(0.015625)"/>
       </defs>
       <use xlink:href="#DejaVuSans-32"/>
       <use x="63.623047" xlink:href="#DejaVuSans-30"/>
       <use x="127.246094" xlink:href="#DejaVuSans-30"/>
      </g>
     </g>
    </g>
    <g id="ytick_7">
     <g id="line2d_7">
      <path clip-path="url(#p696d6b6acb)" d="M 561.6 313.786217 
L 1684.8 313.786217 
" style="fill:none;stroke:#ffffff;stroke-linecap:round;"/>
     </g>
     <g id="text_9">
      <!-- 250 -->
      <g style="fill:#262626;" transform="translate(531.10375 317.965357)scale(0.11 -0.11)">
       <use xlink:href="#DejaVuSans-32"/>
       <use x="63.623047" xlink:href="#DejaVuSans-35"/>
       <use x="127.246094" xlink:href="#DejaVuSans-30"/>
      </g>
     </g>
    </g>
    <g id="ytick_8">
     <g id="line2d_8">
      <path clip-path="url(#p696d6b6acb)" d="M 561.6 211.114269 
L 1684.8 211.114269 
" style="fill:none;stroke:#ffffff;stroke-linecap:round;"/>
     </g>
     <g id="text_10">
      <!-- 300 -->
      <g style="fill:#262626;" transform="translate(531.10375 215.29341)scale(0.11 -0.11)">
       <defs>
        <path d="M 2597 2516 
Q 3050 2419 3304 2112 
Q 3559 1806 3559 1356 
Q 3559 666 3084 287 
Q 2609 -91 1734 -91 
Q 1441 -91 1130 -33 
Q 819 25 488 141 
L 488 750 
Q 750 597 1062 519 
Q 1375 441 1716 441 
Q 2309 441 2620 675 
Q 2931 909 2931 1356 
Q 2931 1769 2642 2001 
Q 2353 2234 1838 2234 
L 1294 2234 
L 1294 2753 
L 1863 2753 
Q 2328 2753 2575 2939 
Q 2822 3125 2822 3475 
Q 2822 3834 2567 4026 
Q 2313 4219 1838 4219 
Q 1578 4219 1281 4162 
Q 984 4106 628 3988 
L 628 4550 
Q 988 4650 1302 4700 
Q 1616 4750 1894 4750 
Q 2613 4750 3031 4423 
Q 3450 4097 3450 3541 
Q 3450 3153 3228 2886 
Q 3006 2619 2597 2516 
z
" id="DejaVuSans-33" transform="scale(0.015625)"/>
       </defs>
       <use xlink:href="#DejaVuSans-33"/>
       <use x="63.623047" xlink:href="#DejaVuSans-30"/>
       <use x="127.246094" xlink:href="#DejaVuSans-30"/>
      </g>
     </g>
    </g>
    <g id="text_11">
     <!-- count -->
     <g style="fill:#262626;" transform="translate(522.389219 598.6875)rotate(-90)scale(0.12 -0.12)">
      <defs>
       <path d="M 544 1381 
L 544 3500 
L 1119 3500 
L 1119 1403 
Q 1119 906 1312 657 
Q 1506 409 1894 409 
Q 2359 409 2629 706 
Q 2900 1003 2900 1516 
L 2900 3500 
L 3475 3500 
L 3475 0 
L 2900 0 
L 2900 538 
Q 2691 219 2414 64 
Q 2138 -91 1772 -91 
Q 1169 -91 856 284 
Q 544 659 544 1381 
z
M 1991 3584 
L 1991 3584 
z
" id="DejaVuSans-75" transform="scale(0.015625)"/>
      </defs>
      <use xlink:href="#DejaVuSans-63"/>
      <use x="54.980469" xlink:href="#DejaVuSans-6f"/>
      <use x="116.162109" xlink:href="#DejaVuSans-75"/>
      <use x="179.541016" xlink:href="#DejaVuSans-6e"/>
      <use x="242.919922" xlink:href="#DejaVuSans-74"/>
     </g>
    </g>
   </g>
   <g id="PolyCollection_1">
    <defs>
     <path d="M 1162.049797 -167.04 
L 1084.350203 -167.04 
L 1075.153341 -175.185455 
L 1064.365129 -183.330909 
L 1051.863047 -191.476364 
L 1037.552607 -199.621818 
L 1021.376952 -207.767273 
L 1003.326341 -215.912727 
L 983.44689 -224.058182 
L 961.847901 -232.203636 
L 938.707086 -240.349091 
L 914.27304 -248.494545 
L 888.864442 -256.64 
L 862.865591 -264.785455 
L 836.718133 -272.930909 
L 810.909071 -281.076364 
L 785.955417 -289.221818 
L 762.386134 -297.367273 
L 740.722217 -305.512727 
L 721.455979 -313.658182 
L 705.030703 -321.803636 
L 691.821863 -329.949091 
L 682.121026 -338.094545 
L 676.123436 -346.24 
L 673.92 -354.385455 
L 675.494155 -362.530909 
L 680.723749 -370.676364 
L 689.387732 -378.821818 
L 701.177192 -386.967273 
L 715.709956 -395.112727 
L 732.547831 -403.258182 
L 751.215428 -411.403636 
L 771.219482 -419.549091 
L 792.067639 -427.694545 
L 813.285791 -435.84 
L 834.433207 -443.985455 
L 855.114926 -452.130909 
L 874.991078 -460.276364 
L 893.783003 -468.421818 
L 911.276255 -476.567273 
L 927.320697 -484.712727 
L 941.828044 -492.858182 
L 954.767261 -501.003636 
L 966.158297 -509.149091 
L 976.064601 -517.294545 
L 984.584904 -525.44 
L 991.844669 -533.585455 
L 997.987597 -541.730909 
L 1003.167515 -549.876364 
L 1007.540919 -558.021818 
L 1011.260397 -566.167273 
L 1014.469091 -574.312727 
L 1017.296324 -582.458182 
L 1019.854433 -590.603636 
L 1022.236835 -598.749091 
L 1024.517254 -606.894545 
L 1026.750034 -615.04 
L 1028.971378 -623.185455 
L 1031.201352 -631.330909 
L 1033.446442 -639.476364 
L 1035.702462 -647.621818 
L 1037.957601 -655.767273 
L 1040.195417 -663.912727 
L 1042.397626 -672.058182 
L 1044.546538 -680.203636 
L 1046.627067 -688.349091 
L 1048.628267 -696.494545 
L 1050.544363 -704.64 
L 1052.375313 -712.785455 
L 1054.126924 -720.930909 
L 1055.81058 -729.076364 
L 1057.442636 -737.221818 
L 1059.043543 -745.367273 
L 1060.636756 -753.512727 
L 1062.247494 -761.658182 
L 1063.901398 -769.803636 
L 1065.623156 -777.949091 
L 1067.435142 -786.094545 
L 1069.356151 -794.24 
L 1071.400277 -802.385455 
L 1073.576004 -810.530909 
L 1075.885571 -818.676364 
L 1078.324645 -826.821818 
L 1080.882338 -834.967273 
L 1083.54158 -843.112727 
L 1086.279818 -851.258182 
L 1089.070012 -859.403636 
L 1091.88187 -867.549091 
L 1094.683226 -875.694545 
L 1097.441492 -883.84 
L 1100.125078 -891.985455 
L 1102.704698 -900.130909 
L 1105.154489 -908.276364 
L 1107.452883 -916.421818 
L 1109.583188 -924.567273 
L 1111.533889 -932.712727 
L 1113.298652 -940.858182 
L 1114.876075 -949.003636 
L 1116.269226 -957.149091 
L 1117.485022 -965.294545 
L 1118.533503 -973.44 
L 1127.866497 -973.44 
L 1127.866497 -973.44 
L 1128.914978 -965.294545 
L 1130.130774 -957.149091 
L 1131.523925 -949.003636 
L 1133.101348 -940.858182 
L 1134.866111 -932.712727 
L 1136.816812 -924.567273 
L 1138.947117 -916.421818 
L 1141.245511 -908.276364 
L 1143.695302 -900.130909 
L 1146.274922 -891.985455 
L 1148.958508 -883.84 
L 1151.716774 -875.694545 
L 1154.51813 -867.549091 
L 1157.329988 -859.403636 
L 1160.120182 -851.258182 
L 1162.85842 -843.112727 
L 1165.517662 -834.967273 
L 1168.075355 -826.821818 
L 1170.514429 -818.676364 
L 1172.823996 -810.530909 
L 1174.999723 -802.385455 
L 1177.043849 -794.24 
L 1178.964858 -786.094545 
L 1180.776844 -777.949091 
L 1182.498602 -769.803636 
L 1184.152506 -761.658182 
L 1185.763244 -753.512727 
L 1187.356457 -745.367273 
L 1188.957364 -737.221818 
L 1190.58942 -729.076364 
L 1192.273076 -720.930909 
L 1194.024687 -712.785455 
L 1195.855637 -704.64 
L 1197.771733 -696.494545 
L 1199.772933 -688.349091 
L 1201.853462 -680.203636 
L 1204.002374 -672.058182 
L 1206.204583 -663.912727 
L 1208.442399 -655.767273 
L 1210.697538 -647.621818 
L 1212.953558 -639.476364 
L 1215.198648 -631.330909 
L 1217.428622 -623.185455 
L 1219.649966 -615.04 
L 1221.882746 -606.894545 
L 1224.163165 -598.749091 
L 1226.545567 -590.603636 
L 1229.103676 -582.458182 
L 1231.930909 -574.312727 
L 1235.139603 -566.167273 
L 1238.859081 -558.021818 
L 1243.232485 -549.876364 
L 1248.412403 -541.730909 
L 1254.555331 -533.585455 
L 1261.815096 -525.44 
L 1270.335399 -517.294545 
L 1280.241703 -509.149091 
L 1291.632739 -501.003636 
L 1304.571956 -492.858182 
L 1319.079303 -484.712727 
L 1335.123745 -476.567273 
L 1352.616997 -468.421818 
L 1371.408922 -460.276364 
L 1391.285074 -452.130909 
L 1411.966793 -443.985455 
L 1433.114209 -435.84 
L 1454.332361 -427.694545 
L 1475.180518 -419.549091 
L 1495.184572 -411.403636 
L 1513.852169 -403.258182 
L 1530.690044 -395.112727 
L 1545.222808 -386.967273 
L 1557.012268 -378.821818 
L 1565.676251 -370.676364 
L 1570.905845 -362.530909 
L 1572.48 -354.385455 
L 1570.276564 -346.24 
L 1564.278974 -338.094545 
L 1554.578137 -329.949091 
L 1541.369297 -321.803636 
L 1524.944021 -313.658182 
L 1505.677783 -305.512727 
L 1484.013866 -297.367273 
L 1460.444583 -289.221818 
L 1435.490929 -281.076364 
L 1409.681867 -272.930909 
L 1383.534409 -264.785455 
L 1357.535558 -256.64 
L 1332.12696 -248.494545 
L 1307.692914 -240.349091 
L 1284.552099 -232.203636 
L 1262.95311 -224.058182 
L 1243.073659 -215.912727 
L 1225.023048 -207.767273 
L 1208.847393 -199.621818 
L 1194.536953 -191.476364 
L 1182.034871 -183.330909 
L 1171.246659 -175.185455 
L 1162.049797 -167.04 
z
" id="m51f9cba496" style="stroke:#4c4c4c;stroke-width:1.5;"/>
    </defs>
    <g clip-path="url(#p696d6b6acb)">
     <use style="fill:#5875a4;stroke:#4c4c4c;stroke-width:1.5;" x="0" xlink:href="#m51f9cba496" y="1152"/>
    </g>
   </g>
   <g id="line2d_9">
    <path clip-path="url(#p696d6b6acb)" d="M 1123.2 825.092516 
L 1123.2 549.931696 
" style="fill:none;stroke:#4c4c4c;stroke-linecap:round;stroke-width:1.5;"/>
   </g>
   <g id="line2d_10">
    <path clip-path="url(#p696d6b6acb)" d="M 1123.2 818.932199 
L 1123.2 698.80602 
" style="fill:none;stroke:#4c4c4c;stroke-linecap:round;stroke-width:4.5;"/>
   </g>
   <g id="patch_3">
    <path d="M 561.6 1025.28 
L 561.6 138.24 
" style="fill:none;stroke:#ffffff;stroke-linecap:square;stroke-linejoin:miter;stroke-width:1.25;"/>
   </g>
   <g id="patch_4">
    <path d="M 1684.8 1025.28 
L 1684.8 138.24 
" style="fill:none;stroke:#ffffff;stroke-linecap:square;stroke-linejoin:miter;stroke-width:1.25;"/>
   </g>
   <g id="patch_5">
    <path d="M 561.6 1025.28 
L 1684.8 1025.28 
" style="fill:none;stroke:#ffffff;stroke-linecap:square;stroke-linejoin:miter;stroke-width:1.25;"/>
   </g>
   <g id="patch_6">
    <path d="M 561.6 138.24 
L 1684.8 138.24 
" style="fill:none;stroke:#ffffff;stroke-linecap:square;stroke-linejoin:miter;stroke-width:1.25;"/>
   </g>
   <g id="PathCollection_1">
    <defs>
     <path d="M 0 1.5 
C 0.397805 1.5 0.77937 1.341951 1.06066 1.06066 
C 1.341951 0.77937 1.5 0.397805 1.5 0 
C 1.5 -0.397805 1.341951 -0.77937 1.06066 -1.06066 
C 0.77937 -1.341951 0.397805 -1.5 0 -1.5 
C -0.397805 -1.5 -0.77937 -1.341951 -1.06066 -1.06066 
C -1.341951 -0.77937 -1.5 -0.397805 -1.5 0 
C -1.5 0.397805 -1.341951 0.77937 -1.06066 1.06066 
C -0.77937 1.341951 -0.397805 1.5 0 1.5 
z
" id="mcdc790e615" style="stroke:#4c4c4c;"/>
    </defs>
    <g clip-path="url(#p696d6b6acb)">
     <use style="fill:#ffffff;stroke:#4c4c4c;" x="1123.2" xlink:href="#mcdc790e615" y="781.970298"/>
    </g>
   </g>
   <g id="text_12">
    <!-- 02-july2014.csv - Total number of transactions per shipping locality -->
    <g style="fill:#262626;" transform="translate(920.899688 132.24)scale(0.12 -0.12)">
     <defs>
      <path d="M 313 2009 
L 1997 2009 
L 1997 1497 
L 313 1497 
L 313 2009 
z
" id="DejaVuSans-2d" transform="scale(0.015625)"/>
      <path d="M 603 3500 
L 1178 3500 
L 1178 -63 
Q 1178 -731 923 -1031 
Q 669 -1331 103 -1331 
L -116 -1331 
L -116 -844 
L 38 -844 
Q 366 -844 484 -692 
Q 603 -541 603 -63 
L 603 3500 
z
M 603 4863 
L 1178 4863 
L 1178 4134 
L 603 4134 
L 603 4863 
z
" id="DejaVuSans-6a" transform="scale(0.015625)"/>
      <path d="M 603 4863 
L 1178 4863 
L 1178 0 
L 603 0 
L 603 4863 
z
" id="DejaVuSans-6c" transform="scale(0.015625)"/>
      <path d="M 2059 -325 
Q 1816 -950 1584 -1140 
Q 1353 -1331 966 -1331 
L 506 -1331 
L 506 -850 
L 844 -850 
Q 1081 -850 1212 -737 
Q 1344 -625 1503 -206 
L 1606 56 
L 191 3500 
L 800 3500 
L 1894 763 
L 2988 3500 
L 3597 3500 
L 2059 -325 
z
" id="DejaVuSans-79" transform="scale(0.015625)"/>
      <path d="M 2419 4116 
L 825 1625 
L 2419 1625 
L 2419 4116 
z
M 2253 4666 
L 3047 4666 
L 3047 1625 
L 3713 1625 
L 3713 1100 
L 3047 1100 
L 3047 0 
L 2419 0 
L 2419 1100 
L 313 1100 
L 313 1709 
L 2253 4666 
z
" id="DejaVuSans-34" transform="scale(0.015625)"/>
      <path d="M 684 794 
L 1344 794 
L 1344 0 
L 684 0 
L 684 794 
z
" id="DejaVuSans-2e" transform="scale(0.015625)"/>
      <path d="M 191 3500 
L 800 3500 
L 1894 563 
L 2988 3500 
L 3597 3500 
L 2284 0 
L 1503 0 
L 191 3500 
z
" id="DejaVuSans-76" transform="scale(0.015625)"/>
      <path id="DejaVuSans-20" transform="scale(0.015625)"/>
      <path d="M -19 4666 
L 3928 4666 
L 3928 4134 
L 2272 4134 
L 2272 0 
L 1638 0 
L 1638 4134 
L -19 4134 
L -19 4666 
z
" id="DejaVuSans-54" transform="scale(0.015625)"/>
      <path d="M 3116 1747 
Q 3116 2381 2855 2742 
Q 2594 3103 2138 3103 
Q 1681 3103 1420 2742 
Q 1159 2381 1159 1747 
Q 1159 1113 1420 752 
Q 1681 391 2138 391 
Q 2594 391 2855 752 
Q 3116 1113 3116 1747 
z
M 1159 2969 
Q 1341 3281 1617 3432 
Q 1894 3584 2278 3584 
Q 2916 3584 3314 3078 
Q 3713 2572 3713 1747 
Q 3713 922 3314 415 
Q 2916 -91 2278 -91 
Q 1894 -91 1617 61 
Q 1341 213 1159 525 
L 1159 0 
L 581 0 
L 581 4863 
L 1159 4863 
L 1159 2969 
z
" id="DejaVuSans-62" transform="scale(0.015625)"/>
      <path d="M 3597 1894 
L 3597 1613 
L 953 1613 
Q 991 1019 1311 708 
Q 1631 397 2203 397 
Q 2534 397 2845 478 
Q 3156 559 3463 722 
L 3463 178 
Q 3153 47 2828 -22 
Q 2503 -91 2169 -91 
Q 1331 -91 842 396 
Q 353 884 353 1716 
Q 353 2575 817 3079 
Q 1281 3584 2069 3584 
Q 2775 3584 3186 3129 
Q 3597 2675 3597 1894 
z
M 3022 2063 
Q 3016 2534 2758 2815 
Q 2500 3097 2075 3097 
Q 1594 3097 1305 2825 
Q 1016 2553 972 2059 
L 3022 2063 
z
" id="DejaVuSans-65" transform="scale(0.015625)"/>
      <path d="M 2906 1791 
Q 2906 2416 2648 2759 
Q 2391 3103 1925 3103 
Q 1463 3103 1205 2759 
Q 947 2416 947 1791 
Q 947 1169 1205 825 
Q 1463 481 1925 481 
Q 2391 481 2648 825 
Q 2906 1169 2906 1791 
z
M 3481 434 
Q 3481 -459 3084 -895 
Q 2688 -1331 1869 -1331 
Q 1566 -1331 1297 -1286 
Q 1028 -1241 775 -1147 
L 775 -588 
Q 1028 -725 1275 -790 
Q 1522 -856 1778 -856 
Q 2344 -856 2625 -561 
Q 2906 -266 2906 331 
L 2906 616 
Q 2728 306 2450 153 
Q 2172 0 1784 0 
Q 1141 0 747 490 
Q 353 981 353 1791 
Q 353 2603 747 3093 
Q 1141 3584 1784 3584 
Q 2172 3584 2450 3431 
Q 2728 3278 2906 2969 
L 2906 3500 
L 3481 3500 
L 3481 434 
z
" id="DejaVuSans-67" transform="scale(0.015625)"/>
     </defs>
     <use xlink:href="#DejaVuSans-30"/>
     <use x="63.623047" xlink:href="#DejaVuSans-32"/>
     <use x="127.246094" xlink:href="#DejaVuSans-2d"/>
     <use x="163.330078" xlink:href="#DejaVuSans-6a"/>
     <use x="191.113281" xlink:href="#DejaVuSans-75"/>
     <use x="254.492188" xlink:href="#DejaVuSans-6c"/>
     <use x="282.275391" xlink:href="#DejaVuSans-79"/>
     <use x="341.455078" xlink:href="#DejaVuSans-32"/>
     <use x="405.078125" xlink:href="#DejaVuSans-30"/>
     <use x="468.701172" xlink:href="#DejaVuSans-31"/>
     <use x="532.324219" xlink:href="#DejaVuSans-34"/>
     <use x="595.947266" xlink:href="#DejaVuSans-2e"/>
     <use x="627.734375" xlink:href="#DejaVuSans-63"/>
     <use x="682.714844" xlink:href="#DejaVuSans-73"/>
     <use x="734.814453" xlink:href="#DejaVuSans-76"/>
     <use x="793.994141" xlink:href="#DejaVuSans-20"/>
     <use x="825.78125" xlink:href="#DejaVuSans-2d"/>
     <use x="861.865234" xlink:href="#DejaVuSans-20"/>
     <use x="893.652344" xlink:href="#DejaVuSans-54"/>
     <use x="937.736328" xlink:href="#DejaVuSans-6f"/>
     <use x="998.917969" xlink:href="#DejaVuSans-74"/>
     <use x="1038.126953" xlink:href="#DejaVuSans-61"/>
     <use x="1099.40625" xlink:href="#DejaVuSans-6c"/>
     <use x="1127.189453" xlink:href="#DejaVuSans-20"/>
     <use x="1158.976562" xlink:href="#DejaVuSans-6e"/>
     <use x="1222.355469" xlink:href="#DejaVuSans-75"/>
     <use x="1285.734375" xlink:href="#DejaVuSans-6d"/>
     <use x="1383.146484" xlink:href="#DejaVuSans-62"/>
     <use x="1446.623047" xlink:href="#DejaVuSans-65"/>
     <use x="1508.146484" xlink:href="#DejaVuSans-72"/>
     <use x="1549.259766" xlink:href="#DejaVuSans-20"/>
     <use x="1581.046875" xlink:href="#DejaVuSans-6f"/>
     <use x="1642.228516" xlink:href="#DejaVuSans-66"/>
     <use x="1677.433594" xlink:href="#DejaVuSans-20"/>
     <use x="1709.220703" xlink:href="#DejaVuSans-74"/>
     <use x="1748.429688" xlink:href="#DejaVuSans-72"/>
     <use x="1789.542969" xlink:href="#DejaVuSans-61"/>
     <use x="1850.822266" xlink:href="#DejaVuSans-6e"/>
     <use x="1914.201172" xlink:href="#DejaVuSans-73"/>
     <use x="1966.300781" xlink:href="#DejaVuSans-61"/>
     <use x="2027.580078" xlink:href="#DejaVuSans-63"/>
     <use x="2082.560547" xlink:href="#DejaVuSans-74"/>
     <use x="2121.769531" xlink:href="#DejaVuSans-69"/>
     <use x="2149.552734" xlink:href="#DejaVuSans-6f"/>
     <use x="2210.734375" xlink:href="#DejaVuSans-6e"/>
     <use x="2274.113281" xlink:href="#DejaVuSans-73"/>
     <use x="2326.212891" xlink:href="#DejaVuSans-20"/>
     <use x="2358" xlink:href="#DejaVuSans-70"/>
     <use x="2421.476562" xlink:href="#DejaVuSans-65"/>
     <use x="2483" xlink:href="#DejaVuSans-72"/>
     <use x="2524.113281" xlink:href="#DejaVuSans-20"/>
     <use x="2555.900391" xlink:href="#DejaVuSans-73"/>
     <use x="2608" xlink:href="#DejaVuSans-68"/>
     <use x="2671.378906" xlink:href="#DejaVuSans-69"/>
     <use x="2699.162109" xlink:href="#DejaVuSans-70"/>
     <use x="2762.638672" xlink:href="#DejaVuSans-70"/>
     <use x="2826.115234" xlink:href="#DejaVuSans-69"/>
     <use x="2853.898438" xlink:href="#DejaVuSans-6e"/>
     <use x="2917.277344" xlink:href="#DejaVuSans-67"/>
     <use x="2980.753906" xlink:href="#DejaVuSans-20"/>
     <use x="3012.541016" xlink:href="#DejaVuSans-6c"/>
     <use x="3040.324219" xlink:href="#DejaVuSans-6f"/>
     <use x="3101.505859" xlink:href="#DejaVuSans-63"/>
     <use x="3156.486328" xlink:href="#DejaVuSans-61"/>
     <use x="3217.765625" xlink:href="#DejaVuSans-6c"/>
     <use x="3245.548828" xlink:href="#DejaVuSans-69"/>
     <use x="3273.332031" xlink:href="#DejaVuSans-74"/>
     <use x="3312.541016" xlink:href="#DejaVuSans-79"/>
    </g>
   </g>
  </g>
 </g>
 <defs>
  <clipPath id="p696d6b6acb">
   <rect height="887.04" width="1123.2" x="561.6" y="138.24"/>
  </clipPath>
 </defs>
</svg>
