<?xml version="1.0" encoding="utf-8" standalone="no"?>
<!DOCTYPE svg PUBLIC "-//W3C//DTD SVG 1.1//EN"
  "http://www.w3.org/Graphics/SVG/1.1/DTD/svg11.dtd">
<svg height="1152pt" version="1.1" viewBox="0 0 1872 1152" width="1872pt" xmlns="http://www.w3.org/2000/svg" xmlns:xlink="http://www.w3.org/1999/xlink">
 <metadata>
  <rdf:RDF xmlns:cc="http://creativecommons.org/ns#" xmlns:dc="http://purl.org/dc/elements/1.1/" xmlns:rdf="http://www.w3.org/1999/02/22-rdf-syntax-ns#">
   <cc:Work>
    <dc:type rdf:resource="http://purl.org/dc/dcmitype/StillImage"/>
    <dc:date>2021-08-29T20:24:20.085733</dc:date>
    <dc:format>image/svg+xml</dc:format>
    <dc:creator>
     <cc:Agent>
      <dc:title>Matplotlib v3.4.3, https://matplotlib.org/</dc:title>
     </cc:Agent>
    </dc:creator>
   </cc:Work>
  </rdf:RDF>
 </metadata>
 <defs>
  <style type="text/css">*{stroke-linecap:butt;stroke-linejoin:round;}</style>
 </defs>
 <g id="figure_1">
  <g id="patch_1">
   <path d="M 0 1152 
L 1872 1152 
L 1872 0 
L 0 0 
z
" style="fill:#ffffff;"/>
  </g>
  <g id="axes_1">
   <g id="patch_2">
    <path d="M 561.6 1025.28 
L 1684.8 1025.28 
L 1684.8 138.24 
L 561.6 138.24 
z
" style="fill:#eaeaf2;"/>
   </g>
   <g id="matplotlib.axis_1">
    <g id="xtick_1">
     <g id="text_1">
      <!-- btc -->
      <g style="fill:#262626;" transform="translate(1114.528047 1043.138281)scale(0.11 -0.11)">
       <defs>
        <path d="M 3116 1747 
Q 3116 2381 2855 2742 
Q 2594 3103 2138 3103 
Q 1681 3103 1420 2742 
Q 1159 2381 1159 1747 
Q 1159 1113 1420 752 
Q 1681 391 2138 391 
Q 2594 391 2855 752 
Q 3116 1113 3116 1747 
z
M 1159 2969 
Q 1341 3281 1617 3432 
Q 1894 3584 2278 3584 
Q 2916 3584 3314 3078 
Q 3713 2572 3713 1747 
Q 3713 922 3314 415 
Q 2916 -91 2278 -91 
Q 1894 -91 1617 61 
Q 1341 213 1159 525 
L 1159 0 
L 581 0 
L 581 4863 
L 1159 4863 
L 1159 2969 
z
" id="DejaVuSans-62" transform="scale(0.015625)"/>
        <path d="M 1172 4494 
L 1172 3500 
L 2356 3500 
L 2356 3053 
L 1172 3053 
L 1172 1153 
Q 1172 725 1289 603 
Q 1406 481 1766 481 
L 2356 481 
L 2356 0 
L 1766 0 
Q 1100 0 847 248 
Q 594 497 594 1153 
L 594 3053 
L 172 3053 
L 172 3500 
L 594 3500 
L 594 4494 
L 1172 4494 
z
" id="DejaVuSans-74" transform="scale(0.015625)"/>
        <path d="M 3122 3366 
L 3122 2828 
Q 2878 2963 2633 3030 
Q 2388 3097 2138 3097 
Q 1578 3097 1268 2742 
Q 959 2388 959 1747 
Q 959 1106 1268 751 
Q 1578 397 2138 397 
Q 2388 397 2633 464 
Q 2878 531 3122 666 
L 3122 134 
Q 2881 22 2623 -34 
Q 2366 -91 2075 -91 
Q 1284 -91 818 406 
Q 353 903 353 1747 
Q 353 2603 823 3093 
Q 1294 3584 2113 3584 
Q 2378 3584 2631 3529 
Q 2884 3475 3122 3366 
z
" id="DejaVuSans-63" transform="scale(0.015625)"/>
       </defs>
       <use xlink:href="#DejaVuSans-62"/>
       <use x="63.476562" xlink:href="#DejaVuSans-74"/>
       <use x="102.685547" xlink:href="#DejaVuSans-63"/>
      </g>
     </g>
    </g>
    <g id="text_2">
     <!-- ship_from -->
     <g style="fill:#262626;" transform="translate(1093.836563 1058.544063)scale(0.12 -0.12)">
      <defs>
       <path d="M 2834 3397 
L 2834 2853 
Q 2591 2978 2328 3040 
Q 2066 3103 1784 3103 
Q 1356 3103 1142 2972 
Q 928 2841 928 2578 
Q 928 2378 1081 2264 
Q 1234 2150 1697 2047 
L 1894 2003 
Q 2506 1872 2764 1633 
Q 3022 1394 3022 966 
Q 3022 478 2636 193 
Q 2250 -91 1575 -91 
Q 1294 -91 989 -36 
Q 684 19 347 128 
L 347 722 
Q 666 556 975 473 
Q 1284 391 1588 391 
Q 1994 391 2212 530 
Q 2431 669 2431 922 
Q 2431 1156 2273 1281 
Q 2116 1406 1581 1522 
L 1381 1569 
Q 847 1681 609 1914 
Q 372 2147 372 2553 
Q 372 3047 722 3315 
Q 1072 3584 1716 3584 
Q 2034 3584 2315 3537 
Q 2597 3491 2834 3397 
z
" id="DejaVuSans-73" transform="scale(0.015625)"/>
       <path d="M 3513 2113 
L 3513 0 
L 2938 0 
L 2938 2094 
Q 2938 2591 2744 2837 
Q 2550 3084 2163 3084 
Q 1697 3084 1428 2787 
Q 1159 2491 1159 1978 
L 1159 0 
L 581 0 
L 581 4863 
L 1159 4863 
L 1159 2956 
Q 1366 3272 1645 3428 
Q 1925 3584 2291 3584 
Q 2894 3584 3203 3211 
Q 3513 2838 3513 2113 
z
" id="DejaVuSans-68" transform="scale(0.015625)"/>
       <path d="M 603 3500 
L 1178 3500 
L 1178 0 
L 603 0 
L 603 3500 
z
M 603 4863 
L 1178 4863 
L 1178 4134 
L 603 4134 
L 603 4863 
z
" id="DejaVuSans-69" transform="scale(0.015625)"/>
       <path d="M 1159 525 
L 1159 -1331 
L 581 -1331 
L 581 3500 
L 1159 3500 
L 1159 2969 
Q 1341 3281 1617 3432 
Q 1894 3584 2278 3584 
Q 2916 3584 3314 3078 
Q 3713 2572 3713 1747 
Q 3713 922 3314 415 
Q 2916 -91 2278 -91 
Q 1894 -91 1617 61 
Q 1341 213 1159 525 
z
M 3116 1747 
Q 3116 2381 2855 2742 
Q 2594 3103 2138 3103 
Q 1681 3103 1420 2742 
Q 1159 2381 1159 1747 
Q 1159 1113 1420 752 
Q 1681 391 2138 391 
Q 2594 391 2855 752 
Q 3116 1113 3116 1747 
z
" id="DejaVuSans-70" transform="scale(0.015625)"/>
       <path d="M 3263 -1063 
L 3263 -1509 
L -63 -1509 
L -63 -1063 
L 3263 -1063 
z
" id="DejaVuSans-5f" transform="scale(0.015625)"/>
       <path d="M 2375 4863 
L 2375 4384 
L 1825 4384 
Q 1516 4384 1395 4259 
Q 1275 4134 1275 3809 
L 1275 3500 
L 2222 3500 
L 2222 3053 
L 1275 3053 
L 1275 0 
L 697 0 
L 697 3053 
L 147 3053 
L 147 3500 
L 697 3500 
L 697 3744 
Q 697 4328 969 4595 
Q 1241 4863 1831 4863 
L 2375 4863 
z
" id="DejaVuSans-66" transform="scale(0.015625)"/>
       <path d="M 2631 2963 
Q 2534 3019 2420 3045 
Q 2306 3072 2169 3072 
Q 1681 3072 1420 2755 
Q 1159 2438 1159 1844 
L 1159 0 
L 581 0 
L 581 3500 
L 1159 3500 
L 1159 2956 
Q 1341 3275 1631 3429 
Q 1922 3584 2338 3584 
Q 2397 3584 2469 3576 
Q 2541 3569 2628 3553 
L 2631 2963 
z
" id="DejaVuSans-72" transform="scale(0.015625)"/>
       <path d="M 1959 3097 
Q 1497 3097 1228 2736 
Q 959 2375 959 1747 
Q 959 1119 1226 758 
Q 1494 397 1959 397 
Q 2419 397 2687 759 
Q 2956 1122 2956 1747 
Q 2956 2369 2687 2733 
Q 2419 3097 1959 3097 
z
M 1959 3584 
Q 2709 3584 3137 3096 
Q 3566 2609 3566 1747 
Q 3566 888 3137 398 
Q 2709 -91 1959 -91 
Q 1206 -91 779 398 
Q 353 888 353 1747 
Q 353 2609 779 3096 
Q 1206 3584 1959 3584 
z
" id="DejaVuSans-6f" transform="scale(0.015625)"/>
       <path d="M 3328 2828 
Q 3544 3216 3844 3400 
Q 4144 3584 4550 3584 
Q 5097 3584 5394 3201 
Q 5691 2819 5691 2113 
L 5691 0 
L 5113 0 
L 5113 2094 
Q 5113 2597 4934 2840 
Q 4756 3084 4391 3084 
Q 3944 3084 3684 2787 
Q 3425 2491 3425 1978 
L 3425 0 
L 2847 0 
L 2847 2094 
Q 2847 2600 2669 2842 
Q 2491 3084 2119 3084 
Q 1678 3084 1418 2786 
Q 1159 2488 1159 1978 
L 1159 0 
L 581 0 
L 581 3500 
L 1159 3500 
L 1159 2956 
Q 1356 3278 1631 3431 
Q 1906 3584 2284 3584 
Q 2666 3584 2933 3390 
Q 3200 3197 3328 2828 
z
" id="DejaVuSans-6d" transform="scale(0.015625)"/>
      </defs>
      <use xlink:href="#DejaVuSans-73"/>
      <use x="52.099609" xlink:href="#DejaVuSans-68"/>
      <use x="115.478516" xlink:href="#DejaVuSans-69"/>
      <use x="143.261719" xlink:href="#DejaVuSans-70"/>
      <use x="206.738281" xlink:href="#DejaVuSans-5f"/>
      <use x="256.738281" xlink:href="#DejaVuSans-66"/>
      <use x="291.943359" xlink:href="#DejaVuSans-72"/>
      <use x="330.806641" xlink:href="#DejaVuSans-6f"/>
      <use x="391.988281" xlink:href="#DejaVuSans-6d"/>
     </g>
    </g>
   </g>
   <g id="matplotlib.axis_2">
    <g id="ytick_1">
     <g id="line2d_1">
      <path clip-path="url(#pf0201b8d10)" d="M 561.6 836.041184 
L 1684.8 836.041184 
" style="fill:none;stroke:#ffffff;stroke-linecap:round;"/>
     </g>
     <g id="text_3">
      <!-- 0 -->
      <g style="fill:#262626;" transform="translate(545.10125 840.220325)scale(0.11 -0.11)">
       <defs>
        <path d="M 2034 4250 
Q 1547 4250 1301 3770 
Q 1056 3291 1056 2328 
Q 1056 1369 1301 889 
Q 1547 409 2034 409 
Q 2525 409 2770 889 
Q 3016 1369 3016 2328 
Q 3016 3291 2770 3770 
Q 2525 4250 2034 4250 
z
M 2034 4750 
Q 2819 4750 3233 4129 
Q 3647 3509 3647 2328 
Q 3647 1150 3233 529 
Q 2819 -91 2034 -91 
Q 1250 -91 836 529 
Q 422 1150 422 2328 
Q 422 3509 836 4129 
Q 1250 4750 2034 4750 
z
" id="DejaVuSans-30" transform="scale(0.015625)"/>
       </defs>
       <use xlink:href="#DejaVuSans-30"/>
      </g>
     </g>
    </g>
    <g id="ytick_2">
     <g id="line2d_2">
      <path clip-path="url(#pf0201b8d10)" d="M 561.6 644.601149 
L 1684.8 644.601149 
" style="fill:none;stroke:#ffffff;stroke-linecap:round;"/>
     </g>
     <g id="text_4">
      <!-- 100 -->
      <g style="fill:#262626;" transform="translate(531.10375 648.780289)scale(0.11 -0.11)">
       <defs>
        <path d="M 794 531 
L 1825 531 
L 1825 4091 
L 703 3866 
L 703 4441 
L 1819 4666 
L 2450 4666 
L 2450 531 
L 3481 531 
L 3481 0 
L 794 0 
L 794 531 
z
" id="DejaVuSans-31" transform="scale(0.015625)"/>
       </defs>
       <use xlink:href="#DejaVuSans-31"/>
       <use x="63.623047" xlink:href="#DejaVuSans-30"/>
       <use x="127.246094" xlink:href="#DejaVuSans-30"/>
      </g>
     </g>
    </g>
    <g id="ytick_3">
     <g id="line2d_3">
      <path clip-path="url(#pf0201b8d10)" d="M 561.6 453.161114 
L 1684.8 453.161114 
" style="fill:none;stroke:#ffffff;stroke-linecap:round;"/>
     </g>
     <g id="text_5">
      <!-- 200 -->
      <g style="fill:#262626;" transform="translate(531.10375 457.340254)scale(0.11 -0.11)">
       <defs>
        <path d="M 1228 531 
L 3431 531 
L 3431 0 
L 469 0 
L 469 531 
Q 828 903 1448 1529 
Q 2069 2156 2228 2338 
Q 2531 2678 2651 2914 
Q 2772 3150 2772 3378 
Q 2772 3750 2511 3984 
Q 2250 4219 1831 4219 
Q 1534 4219 1204 4116 
Q 875 4013 500 3803 
L 500 4441 
Q 881 4594 1212 4672 
Q 1544 4750 1819 4750 
Q 2544 4750 2975 4387 
Q 3406 4025 3406 3419 
Q 3406 3131 3298 2873 
Q 3191 2616 2906 2266 
Q 2828 2175 2409 1742 
Q 1991 1309 1228 531 
z
" id="DejaVuSans-32" transform="scale(0.015625)"/>
       </defs>
       <use xlink:href="#DejaVuSans-32"/>
       <use x="63.623047" xlink:href="#DejaVuSans-30"/>
       <use x="127.246094" xlink:href="#DejaVuSans-30"/>
      </g>
     </g>
    </g>
    <g id="ytick_4">
     <g id="line2d_4">
      <path clip-path="url(#pf0201b8d10)" d="M 561.6 261.721078 
L 1684.8 261.721078 
" style="fill:none;stroke:#ffffff;stroke-linecap:round;"/>
     </g>
     <g id="text_6">
      <!-- 300 -->
      <g style="fill:#262626;" transform="translate(531.10375 265.900219)scale(0.11 -0.11)">
       <defs>
        <path d="M 2597 2516 
Q 3050 2419 3304 2112 
Q 3559 1806 3559 1356 
Q 3559 666 3084 287 
Q 2609 -91 1734 -91 
Q 1441 -91 1130 -33 
Q 819 25 488 141 
L 488 750 
Q 750 597 1062 519 
Q 1375 441 1716 441 
Q 2309 441 2620 675 
Q 2931 909 2931 1356 
Q 2931 1769 2642 2001 
Q 2353 2234 1838 2234 
L 1294 2234 
L 1294 2753 
L 1863 2753 
Q 2328 2753 2575 2939 
Q 2822 3125 2822 3475 
Q 2822 3834 2567 4026 
Q 2313 4219 1838 4219 
Q 1578 4219 1281 4162 
Q 984 4106 628 3988 
L 628 4550 
Q 988 4650 1302 4700 
Q 1616 4750 1894 4750 
Q 2613 4750 3031 4423 
Q 3450 4097 3450 3541 
Q 3450 3153 3228 2886 
Q 3006 2619 2597 2516 
z
" id="DejaVuSans-33" transform="scale(0.015625)"/>
       </defs>
       <use xlink:href="#DejaVuSans-33"/>
       <use x="63.623047" xlink:href="#DejaVuSans-30"/>
       <use x="127.246094" xlink:href="#DejaVuSans-30"/>
      </g>
     </g>
    </g>
    <g id="text_7">
     <!-- btc -->
     <g style="fill:#262626;" transform="translate(524.608125 591.220312)rotate(-90)scale(0.12 -0.12)">
      <use xlink:href="#DejaVuSans-62"/>
      <use x="63.476562" xlink:href="#DejaVuSans-74"/>
      <use x="102.685547" xlink:href="#DejaVuSans-63"/>
     </g>
    </g>
   </g>
   <g id="PolyCollection_1">
    <defs>
     <path d="M 1161.730587 -167.04 
L 1084.669413 -167.04 
L 1074.814001 -175.185455 
L 1063.13027 -183.330909 
L 1049.472617 -191.476364 
L 1033.734393 -199.621818 
L 1015.861299 -207.767273 
L 995.864276 -215.912727 
L 973.830867 -224.058182 
L 949.933949 -232.203636 
L 924.436764 -240.349091 
L 897.693351 -248.494545 
L 870.143717 -256.64 
L 842.303471 -264.785455 
L 814.748049 -272.930909 
L 788.092152 -281.076364 
L 762.965428 -289.221818 
L 739.985841 -297.367273 
L 719.732428 -305.512727 
L 702.719242 -313.658182 
L 689.372293 -321.803636 
L 680.011008 -329.949091 
L 674.835448 -338.094545 
L 673.92 -346.24 
L 677.213764 -354.385455 
L 684.547317 -362.530909 
L 695.645069 -370.676364 
L 710.142045 -378.821818 
L 727.603702 -386.967273 
L 747.547283 -395.112727 
L 769.463269 -403.258182 
L 792.835664 -411.403636 
L 817.160103 -419.549091 
L 841.959091 -427.694545 
L 866.793992 -435.84 
L 891.27369 -443.985455 
L 915.060083 -452.130909 
L 937.87074 -460.276364 
L 959.479158 -468.421818 
L 979.713102 -476.567273 
L 998.451486 -484.712727 
L 1015.620206 -492.858182 
L 1031.187288 -501.003636 
L 1045.157611 -509.149091 
L 1057.567433 -517.294545 
L 1068.47888 -525.44 
L 1077.974524 -533.585455 
L 1086.152157 -541.730909 
L 1093.119861 -549.876364 
L 1098.991435 -558.021818 
L 1103.88228 -566.167273 
L 1107.90578 -574.312727 
L 1111.17024 -582.458182 
L 1113.776411 -590.603636 
L 1115.815598 -598.749091 
L 1117.368363 -606.894545 
L 1118.503777 -615.04 
L 1119.279196 -623.185455 
L 1119.740504 -631.330909 
L 1119.922784 -639.476364 
L 1119.851344 -647.621818 
L 1119.543075 -655.767273 
L 1119.008066 -663.912727 
L 1118.251442 -672.058182 
L 1117.275357 -680.203636 
L 1116.081087 -688.349091 
L 1114.671139 -696.494545 
L 1113.051289 -704.64 
L 1111.232448 -712.785455 
L 1109.232231 -720.930909 
L 1107.076137 -729.076364 
L 1104.798202 -737.221818 
L 1102.441062 -745.367273 
L 1100.055347 -753.512727 
L 1097.6984 -761.658182 
L 1095.432361 -769.803636 
L 1093.321683 -777.949091 
L 1091.430244 -786.094545 
L 1089.818229 -794.24 
L 1088.539004 -802.385455 
L 1087.636214 -810.530909 
L 1087.141327 -818.676364 
L 1087.071825 -826.821818 
L 1087.430186 -834.967273 
L 1088.203741 -843.112727 
L 1089.365418 -851.258182 
L 1090.875321 -859.403636 
L 1092.683 -867.549091 
L 1094.730251 -875.694545 
L 1096.954212 -883.84 
L 1099.290538 -891.985455 
L 1101.676437 -900.130909 
L 1104.053354 -908.276364 
L 1106.369174 -916.421818 
L 1108.579833 -924.567273 
L 1110.650297 -932.712727 
L 1112.554925 -940.858182 
L 1114.277262 -949.003636 
L 1115.809364 -957.149091 
L 1117.150777 -965.294545 
L 1118.307266 -973.44 
L 1128.092734 -973.44 
L 1128.092734 -973.44 
L 1129.249223 -965.294545 
L 1130.590636 -957.149091 
L 1132.122738 -949.003636 
L 1133.845075 -940.858182 
L 1135.749703 -932.712727 
L 1137.820167 -924.567273 
L 1140.030826 -916.421818 
L 1142.346646 -908.276364 
L 1144.723563 -900.130909 
L 1147.109462 -891.985455 
L 1149.445788 -883.84 
L 1151.669749 -875.694545 
L 1153.717 -867.549091 
L 1155.524679 -859.403636 
L 1157.034582 -851.258182 
L 1158.196259 -843.112727 
L 1158.969814 -834.967273 
L 1159.328175 -826.821818 
L 1159.258673 -818.676364 
L 1158.763786 -810.530909 
L 1157.860996 -802.385455 
L 1156.581771 -794.24 
L 1154.969756 -786.094545 
L 1153.078317 -777.949091 
L 1150.967639 -769.803636 
L 1148.7016 -761.658182 
L 1146.344653 -753.512727 
L 1143.958938 -745.367273 
L 1141.601798 -737.221818 
L 1139.323863 -729.076364 
L 1137.167769 -720.930909 
L 1135.167552 -712.785455 
L 1133.348711 -704.64 
L 1131.728861 -696.494545 
L 1130.318913 -688.349091 
L 1129.124643 -680.203636 
L 1128.148558 -672.058182 
L 1127.391934 -663.912727 
L 1126.856925 -655.767273 
L 1126.548656 -647.621818 
L 1126.477216 -639.476364 
L 1126.659496 -631.330909 
L 1127.120804 -623.185455 
L 1127.896223 -615.04 
L 1129.031637 -606.894545 
L 1130.584402 -598.749091 
L 1132.623589 -590.603636 
L 1135.22976 -582.458182 
L 1138.49422 -574.312727 
L 1142.51772 -566.167273 
L 1147.408565 -558.021818 
L 1153.280139 -549.876364 
L 1160.247843 -541.730909 
L 1168.425476 -533.585455 
L 1177.92112 -525.44 
L 1188.832567 -517.294545 
L 1201.242389 -509.149091 
L 1215.212712 -501.003636 
L 1230.779794 -492.858182 
L 1247.948514 -484.712727 
L 1266.686898 -476.567273 
L 1286.920842 -468.421818 
L 1308.52926 -460.276364 
L 1331.339917 -452.130909 
L 1355.12631 -443.985455 
L 1379.606008 -435.84 
L 1404.440909 -427.694545 
L 1429.239897 -419.549091 
L 1453.564336 -411.403636 
L 1476.936731 -403.258182 
L 1498.852717 -395.112727 
L 1518.796298 -386.967273 
L 1536.257955 -378.821818 
L 1550.754931 -370.676364 
L 1561.852683 -362.530909 
L 1569.186236 -354.385455 
L 1572.48 -346.24 
L 1571.564552 -338.094545 
L 1566.388992 -329.949091 
L 1557.027707 -321.803636 
L 1543.680758 -313.658182 
L 1526.667572 -305.512727 
L 1506.414159 -297.367273 
L 1483.434572 -289.221818 
L 1458.307848 -281.076364 
L 1431.651951 -272.930909 
L 1404.096529 -264.785455 
L 1376.256283 -256.64 
L 1348.706649 -248.494545 
L 1321.963236 -240.349091 
L 1296.466051 -232.203636 
L 1272.569133 -224.058182 
L 1250.535724 -215.912727 
L 1230.538701 -207.767273 
L 1212.665607 -199.621818 
L 1196.927383 -191.476364 
L 1183.26973 -183.330909 
L 1171.585999 -175.185455 
L 1161.730587 -167.04 
z
" id="maa45bf437e" style="stroke:#4c4c4c;stroke-width:1.5;"/>
    </defs>
    <g clip-path="url(#pf0201b8d10)">
     <use style="fill:#5875a4;stroke:#4c4c4c;stroke-width:1.5;" x="0" xlink:href="#maa45bf437e" y="1152"/>
    </g>
   </g>
   <g id="line2d_5">
    <path clip-path="url(#pf0201b8d10)" d="M 1123.2 835.588428 
L 1123.2 718.962029 
" style="fill:none;stroke:#4c4c4c;stroke-linecap:round;stroke-width:1.5;"/>
   </g>
   <g id="line2d_6">
    <path clip-path="url(#pf0201b8d10)" d="M 1123.2 826.581124 
L 1123.2 759.016779 
" style="fill:none;stroke:#4c4c4c;stroke-linecap:round;stroke-width:4.5;"/>
   </g>
   <g id="patch_3">
    <path d="M 561.6 1025.28 
L 561.6 138.24 
" style="fill:none;stroke:#ffffff;stroke-linecap:square;stroke-linejoin:miter;stroke-width:1.25;"/>
   </g>
   <g id="patch_4">
    <path d="M 1684.8 1025.28 
L 1684.8 138.24 
" style="fill:none;stroke:#ffffff;stroke-linecap:square;stroke-linejoin:miter;stroke-width:1.25;"/>
   </g>
   <g id="patch_5">
    <path d="M 561.6 1025.28 
L 1684.8 1025.28 
" style="fill:none;stroke:#ffffff;stroke-linecap:square;stroke-linejoin:miter;stroke-width:1.25;"/>
   </g>
   <g id="patch_6">
    <path d="M 561.6 138.24 
L 1684.8 138.24 
" style="fill:none;stroke:#ffffff;stroke-linecap:square;stroke-linejoin:miter;stroke-width:1.25;"/>
   </g>
   <g id="PathCollection_1">
    <defs>
     <path d="M 0 1.5 
C 0.397805 1.5 0.77937 1.341951 1.06066 1.06066 
C 1.341951 0.77937 1.5 0.397805 1.5 0 
C 1.5 -0.397805 1.341951 -0.77937 1.06066 -1.06066 
C 0.77937 -1.341951 0.397805 -1.5 0 -1.5 
C -0.397805 -1.5 -0.77937 -1.341951 -1.06066 -1.06066 
C -1.341951 -0.77937 -1.5 -0.397805 -1.5 0 
C -1.5 0.397805 -1.341951 0.77937 -1.06066 1.06066 
C -0.77937 1.341951 -0.397805 1.5 0 1.5 
z
" id="mb0588bb13c" style="stroke:#4c4c4c;"/>
    </defs>
    <g clip-path="url(#pf0201b8d10)">
     <use style="fill:#ffffff;stroke:#4c4c4c;" x="1123.2" xlink:href="#mb0588bb13c" y="820.725981"/>
    </g>
   </g>
   <g id="text_8">
    <!-- 10-mar2015.csv - Maximum transaction amount in BTC per shipping locality -->
    <g style="fill:#262626;" transform="translate(894.229688 132.24)scale(0.12 -0.12)">
     <defs>
      <path d="M 313 2009 
L 1997 2009 
L 1997 1497 
L 313 1497 
L 313 2009 
z
" id="DejaVuSans-2d" transform="scale(0.015625)"/>
      <path d="M 2194 1759 
Q 1497 1759 1228 1600 
Q 959 1441 959 1056 
Q 959 750 1161 570 
Q 1363 391 1709 391 
Q 2188 391 2477 730 
Q 2766 1069 2766 1631 
L 2766 1759 
L 2194 1759 
z
M 3341 1997 
L 3341 0 
L 2766 0 
L 2766 531 
Q 2569 213 2275 61 
Q 1981 -91 1556 -91 
Q 1019 -91 701 211 
Q 384 513 384 1019 
Q 384 1609 779 1909 
Q 1175 2209 1959 2209 
L 2766 2209 
L 2766 2266 
Q 2766 2663 2505 2880 
Q 2244 3097 1772 3097 
Q 1472 3097 1187 3025 
Q 903 2953 641 2809 
L 641 3341 
Q 956 3463 1253 3523 
Q 1550 3584 1831 3584 
Q 2591 3584 2966 3190 
Q 3341 2797 3341 1997 
z
" id="DejaVuSans-61" transform="scale(0.015625)"/>
      <path d="M 691 4666 
L 3169 4666 
L 3169 4134 
L 1269 4134 
L 1269 2991 
Q 1406 3038 1543 3061 
Q 1681 3084 1819 3084 
Q 2600 3084 3056 2656 
Q 3513 2228 3513 1497 
Q 3513 744 3044 326 
Q 2575 -91 1722 -91 
Q 1428 -91 1123 -41 
Q 819 9 494 109 
L 494 744 
Q 775 591 1075 516 
Q 1375 441 1709 441 
Q 2250 441 2565 725 
Q 2881 1009 2881 1497 
Q 2881 1984 2565 2268 
Q 2250 2553 1709 2553 
Q 1456 2553 1204 2497 
Q 953 2441 691 2322 
L 691 4666 
z
" id="DejaVuSans-35" transform="scale(0.015625)"/>
      <path d="M 684 794 
L 1344 794 
L 1344 0 
L 684 0 
L 684 794 
z
" id="DejaVuSans-2e" transform="scale(0.015625)"/>
      <path d="M 191 3500 
L 800 3500 
L 1894 563 
L 2988 3500 
L 3597 3500 
L 2284 0 
L 1503 0 
L 191 3500 
z
" id="DejaVuSans-76" transform="scale(0.015625)"/>
      <path id="DejaVuSans-20" transform="scale(0.015625)"/>
      <path d="M 628 4666 
L 1569 4666 
L 2759 1491 
L 3956 4666 
L 4897 4666 
L 4897 0 
L 4281 0 
L 4281 4097 
L 3078 897 
L 2444 897 
L 1241 4097 
L 1241 0 
L 628 0 
L 628 4666 
z
" id="DejaVuSans-4d" transform="scale(0.015625)"/>
      <path d="M 3513 3500 
L 2247 1797 
L 3578 0 
L 2900 0 
L 1881 1375 
L 863 0 
L 184 0 
L 1544 1831 
L 300 3500 
L 978 3500 
L 1906 2253 
L 2834 3500 
L 3513 3500 
z
" id="DejaVuSans-78" transform="scale(0.015625)"/>
      <path d="M 544 1381 
L 544 3500 
L 1119 3500 
L 1119 1403 
Q 1119 906 1312 657 
Q 1506 409 1894 409 
Q 2359 409 2629 706 
Q 2900 1003 2900 1516 
L 2900 3500 
L 3475 3500 
L 3475 0 
L 2900 0 
L 2900 538 
Q 2691 219 2414 64 
Q 2138 -91 1772 -91 
Q 1169 -91 856 284 
Q 544 659 544 1381 
z
M 1991 3584 
L 1991 3584 
z
" id="DejaVuSans-75" transform="scale(0.015625)"/>
      <path d="M 3513 2113 
L 3513 0 
L 2938 0 
L 2938 2094 
Q 2938 2591 2744 2837 
Q 2550 3084 2163 3084 
Q 1697 3084 1428 2787 
Q 1159 2491 1159 1978 
L 1159 0 
L 581 0 
L 581 3500 
L 1159 3500 
L 1159 2956 
Q 1366 3272 1645 3428 
Q 1925 3584 2291 3584 
Q 2894 3584 3203 3211 
Q 3513 2838 3513 2113 
z
" id="DejaVuSans-6e" transform="scale(0.015625)"/>
      <path d="M 1259 2228 
L 1259 519 
L 2272 519 
Q 2781 519 3026 730 
Q 3272 941 3272 1375 
Q 3272 1813 3026 2020 
Q 2781 2228 2272 2228 
L 1259 2228 
z
M 1259 4147 
L 1259 2741 
L 2194 2741 
Q 2656 2741 2882 2914 
Q 3109 3088 3109 3444 
Q 3109 3797 2882 3972 
Q 2656 4147 2194 4147 
L 1259 4147 
z
M 628 4666 
L 2241 4666 
Q 2963 4666 3353 4366 
Q 3744 4066 3744 3513 
Q 3744 3084 3544 2831 
Q 3344 2578 2956 2516 
Q 3422 2416 3680 2098 
Q 3938 1781 3938 1306 
Q 3938 681 3513 340 
Q 3088 0 2303 0 
L 628 0 
L 628 4666 
z
" id="DejaVuSans-42" transform="scale(0.015625)"/>
      <path d="M -19 4666 
L 3928 4666 
L 3928 4134 
L 2272 4134 
L 2272 0 
L 1638 0 
L 1638 4134 
L -19 4134 
L -19 4666 
z
" id="DejaVuSans-54" transform="scale(0.015625)"/>
      <path d="M 4122 4306 
L 4122 3641 
Q 3803 3938 3442 4084 
Q 3081 4231 2675 4231 
Q 1875 4231 1450 3742 
Q 1025 3253 1025 2328 
Q 1025 1406 1450 917 
Q 1875 428 2675 428 
Q 3081 428 3442 575 
Q 3803 722 4122 1019 
L 4122 359 
Q 3791 134 3420 21 
Q 3050 -91 2638 -91 
Q 1578 -91 968 557 
Q 359 1206 359 2328 
Q 359 3453 968 4101 
Q 1578 4750 2638 4750 
Q 3056 4750 3426 4639 
Q 3797 4528 4122 4306 
z
" id="DejaVuSans-43" transform="scale(0.015625)"/>
      <path d="M 3597 1894 
L 3597 1613 
L 953 1613 
Q 991 1019 1311 708 
Q 1631 397 2203 397 
Q 2534 397 2845 478 
Q 3156 559 3463 722 
L 3463 178 
Q 3153 47 2828 -22 
Q 2503 -91 2169 -91 
Q 1331 -91 842 396 
Q 353 884 353 1716 
Q 353 2575 817 3079 
Q 1281 3584 2069 3584 
Q 2775 3584 3186 3129 
Q 3597 2675 3597 1894 
z
M 3022 2063 
Q 3016 2534 2758 2815 
Q 2500 3097 2075 3097 
Q 1594 3097 1305 2825 
Q 1016 2553 972 2059 
L 3022 2063 
z
" id="DejaVuSans-65" transform="scale(0.015625)"/>
      <path d="M 2906 1791 
Q 2906 2416 2648 2759 
Q 2391 3103 1925 3103 
Q 1463 3103 1205 2759 
Q 947 2416 947 1791 
Q 947 1169 1205 825 
Q 1463 481 1925 481 
Q 2391 481 2648 825 
Q 2906 1169 2906 1791 
z
M 3481 434 
Q 3481 -459 3084 -895 
Q 2688 -1331 1869 -1331 
Q 1566 -1331 1297 -1286 
Q 1028 -1241 775 -1147 
L 775 -588 
Q 1028 -725 1275 -790 
Q 1522 -856 1778 -856 
Q 2344 -856 2625 -561 
Q 2906 -266 2906 331 
L 2906 616 
Q 2728 306 2450 153 
Q 2172 0 1784 0 
Q 1141 0 747 490 
Q 353 981 353 1791 
Q 353 2603 747 3093 
Q 1141 3584 1784 3584 
Q 2172 3584 2450 3431 
Q 2728 3278 2906 2969 
L 2906 3500 
L 3481 3500 
L 3481 434 
z
" id="DejaVuSans-67" transform="scale(0.015625)"/>
      <path d="M 603 4863 
L 1178 4863 
L 1178 0 
L 603 0 
L 603 4863 
z
" id="DejaVuSans-6c" transform="scale(0.015625)"/>
      <path d="M 2059 -325 
Q 1816 -950 1584 -1140 
Q 1353 -1331 966 -1331 
L 506 -1331 
L 506 -850 
L 844 -850 
Q 1081 -850 1212 -737 
Q 1344 -625 1503 -206 
L 1606 56 
L 191 3500 
L 800 3500 
L 1894 763 
L 2988 3500 
L 3597 3500 
L 2059 -325 
z
" id="DejaVuSans-79" transform="scale(0.015625)"/>
     </defs>
     <use xlink:href="#DejaVuSans-31"/>
     <use x="63.623047" xlink:href="#DejaVuSans-30"/>
     <use x="127.246094" xlink:href="#DejaVuSans-2d"/>
     <use x="163.330078" xlink:href="#DejaVuSans-6d"/>
     <use x="260.742188" xlink:href="#DejaVuSans-61"/>
     <use x="322.021484" xlink:href="#DejaVuSans-72"/>
     <use x="363.134766" xlink:href="#DejaVuSans-32"/>
     <use x="426.757812" xlink:href="#DejaVuSans-30"/>
     <use x="490.380859" xlink:href="#DejaVuSans-31"/>
     <use x="554.003906" xlink:href="#DejaVuSans-35"/>
     <use x="617.626953" xlink:href="#DejaVuSans-2e"/>
     <use x="649.414062" xlink:href="#DejaVuSans-63"/>
     <use x="704.394531" xlink:href="#DejaVuSans-73"/>
     <use x="756.494141" xlink:href="#DejaVuSans-76"/>
     <use x="815.673828" xlink:href="#DejaVuSans-20"/>
     <use x="847.460938" xlink:href="#DejaVuSans-2d"/>
     <use x="883.544922" xlink:href="#DejaVuSans-20"/>
     <use x="915.332031" xlink:href="#DejaVuSans-4d"/>
     <use x="1001.611328" xlink:href="#DejaVuSans-61"/>
     <use x="1062.890625" xlink:href="#DejaVuSans-78"/>
     <use x="1122.070312" xlink:href="#DejaVuSans-69"/>
     <use x="1149.853516" xlink:href="#DejaVuSans-6d"/>
     <use x="1247.265625" xlink:href="#DejaVuSans-75"/>
     <use x="1310.644531" xlink:href="#DejaVuSans-6d"/>
     <use x="1408.056641" xlink:href="#DejaVuSans-20"/>
     <use x="1439.84375" xlink:href="#DejaVuSans-74"/>
     <use x="1479.052734" xlink:href="#DejaVuSans-72"/>
     <use x="1520.166016" xlink:href="#DejaVuSans-61"/>
     <use x="1581.445312" xlink:href="#DejaVuSans-6e"/>
     <use x="1644.824219" xlink:href="#DejaVuSans-73"/>
     <use x="1696.923828" xlink:href="#DejaVuSans-61"/>
     <use x="1758.203125" xlink:href="#DejaVuSans-63"/>
     <use x="1813.183594" xlink:href="#DejaVuSans-74"/>
     <use x="1852.392578" xlink:href="#DejaVuSans-69"/>
     <use x="1880.175781" xlink:href="#DejaVuSans-6f"/>
     <use x="1941.357422" xlink:href="#DejaVuSans-6e"/>
     <use x="2004.736328" xlink:href="#DejaVuSans-20"/>
     <use x="2036.523438" xlink:href="#DejaVuSans-61"/>
     <use x="2097.802734" xlink:href="#DejaVuSans-6d"/>
     <use x="2195.214844" xlink:href="#DejaVuSans-6f"/>
     <use x="2256.396484" xlink:href="#DejaVuSans-75"/>
     <use x="2319.775391" xlink:href="#DejaVuSans-6e"/>
     <use x="2383.154297" xlink:href="#DejaVuSans-74"/>
     <use x="2422.363281" xlink:href="#DejaVuSans-20"/>
     <use x="2454.150391" xlink:href="#DejaVuSans-69"/>
     <use x="2481.933594" xlink:href="#DejaVuSans-6e"/>
     <use x="2545.3125" xlink:href="#DejaVuSans-20"/>
     <use x="2577.099609" xlink:href="#DejaVuSans-42"/>
     <use x="2645.703125" xlink:href="#DejaVuSans-54"/>
     <use x="2700.912109" xlink:href="#DejaVuSans-43"/>
     <use x="2770.736328" xlink:href="#DejaVuSans-20"/>
     <use x="2802.523438" xlink:href="#DejaVuSans-70"/>
     <use x="2866" xlink:href="#DejaVuSans-65"/>
     <use x="2927.523438" xlink:href="#DejaVuSans-72"/>
     <use x="2968.636719" xlink:href="#DejaVuSans-20"/>
     <use x="3000.423828" xlink:href="#DejaVuSans-73"/>
     <use x="3052.523438" xlink:href="#DejaVuSans-68"/>
     <use x="3115.902344" xlink:href="#DejaVuSans-69"/>
     <use x="3143.685547" xlink:href="#DejaVuSans-70"/>
     <use x="3207.162109" xlink:href="#DejaVuSans-70"/>
     <use x="3270.638672" xlink:href="#DejaVuSans-69"/>
     <use x="3298.421875" xlink:href="#DejaVuSans-6e"/>
     <use x="3361.800781" xlink:href="#DejaVuSans-67"/>
     <use x="3425.277344" xlink:href="#DejaVuSans-20"/>
     <use x="3457.064453" xlink:href="#DejaVuSans-6c"/>
     <use x="3484.847656" xlink:href="#DejaVuSans-6f"/>
     <use x="3546.029297" xlink:href="#DejaVuSans-63"/>
     <use x="3601.009766" xlink:href="#DejaVuSans-61"/>
     <use x="3662.289062" xlink:href="#DejaVuSans-6c"/>
     <use x="3690.072266" xlink:href="#DejaVuSans-69"/>
     <use x="3717.855469" xlink:href="#DejaVuSans-74"/>
     <use x="3757.064453" xlink:href="#DejaVuSans-79"/>
    </g>
   </g>
  </g>
 </g>
 <defs>
  <clipPath id="pf0201b8d10">
   <rect height="887.04" width="1123.2" x="561.6" y="138.24"/>
  </clipPath>
 </defs>
</svg>
