<?xml version="1.0" encoding="utf-8" standalone="no"?>
<!DOCTYPE svg PUBLIC "-//W3C//DTD SVG 1.1//EN"
  "http://www.w3.org/Graphics/SVG/1.1/DTD/svg11.dtd">
<svg height="345.6pt" version="1.1" viewBox="0 0 765.36 345.6" width="765.36pt" xmlns="http://www.w3.org/2000/svg" xmlns:xlink="http://www.w3.org/1999/xlink">
 <metadata>
  <rdf:RDF xmlns:cc="http://creativecommons.org/ns#" xmlns:dc="http://purl.org/dc/elements/1.1/" xmlns:rdf="http://www.w3.org/1999/02/22-rdf-syntax-ns#">
   <cc:Work>
    <dc:type rdf:resource="http://purl.org/dc/dcmitype/StillImage"/>
    <dc:date>2021-07-11T13:45:16.698716</dc:date>
    <dc:format>image/svg+xml</dc:format>
    <dc:creator>
     <cc:Agent>
      <dc:title>Matplotlib v3.4.2, https://matplotlib.org/</dc:title>
     </cc:Agent>
    </dc:creator>
   </cc:Work>
  </rdf:RDF>
 </metadata>
 <defs>
  <style type="text/css">*{stroke-linecap:butt;stroke-linejoin:round;}</style>
 </defs>
 <g id="figure_1">
  <g id="patch_1">
   <path d="M 0 345.6 
L 765.36 345.6 
L 765.36 0 
L 0 0 
z
" style="fill:#ffffff;"/>
  </g>
  <g id="axes_1">
   <g id="patch_2">
    <path d="M 95.67 307.584 
L 688.824 307.584 
L 688.824 41.472 
L 95.67 41.472 
z
" style="fill:#eaeaf2;"/>
   </g>
   <g id="matplotlib.axis_1">
    <g id="xtick_1">
     <g id="text_1">
      <!-- btc -->
      <g style="fill:#262626;" transform="translate(383.575047 325.442281)scale(0.11 -0.11)">
       <defs>
        <path d="M 3116 1747 
Q 3116 2381 2855 2742 
Q 2594 3103 2138 3103 
Q 1681 3103 1420 2742 
Q 1159 2381 1159 1747 
Q 1159 1113 1420 752 
Q 1681 391 2138 391 
Q 2594 391 2855 752 
Q 3116 1113 3116 1747 
z
M 1159 2969 
Q 1341 3281 1617 3432 
Q 1894 3584 2278 3584 
Q 2916 3584 3314 3078 
Q 3713 2572 3713 1747 
Q 3713 922 3314 415 
Q 2916 -91 2278 -91 
Q 1894 -91 1617 61 
Q 1341 213 1159 525 
L 1159 0 
L 581 0 
L 581 4863 
L 1159 4863 
L 1159 2969 
z
" id="DejaVuSans-62" transform="scale(0.015625)"/>
        <path d="M 1172 4494 
L 1172 3500 
L 2356 3500 
L 2356 3053 
L 1172 3053 
L 1172 1153 
Q 1172 725 1289 603 
Q 1406 481 1766 481 
L 2356 481 
L 2356 0 
L 1766 0 
Q 1100 0 847 248 
Q 594 497 594 1153 
L 594 3053 
L 172 3053 
L 172 3500 
L 594 3500 
L 594 4494 
L 1172 4494 
z
" id="DejaVuSans-74" transform="scale(0.015625)"/>
        <path d="M 3122 3366 
L 3122 2828 
Q 2878 2963 2633 3030 
Q 2388 3097 2138 3097 
Q 1578 3097 1268 2742 
Q 959 2388 959 1747 
Q 959 1106 1268 751 
Q 1578 397 2138 397 
Q 2388 397 2633 464 
Q 2878 531 3122 666 
L 3122 134 
Q 2881 22 2623 -34 
Q 2366 -91 2075 -91 
Q 1284 -91 818 406 
Q 353 903 353 1747 
Q 353 2603 823 3093 
Q 1294 3584 2113 3584 
Q 2378 3584 2631 3529 
Q 2884 3475 3122 3366 
z
" id="DejaVuSans-63" transform="scale(0.015625)"/>
       </defs>
       <use xlink:href="#DejaVuSans-62"/>
       <use x="63.476562" xlink:href="#DejaVuSans-74"/>
       <use x="102.685547" xlink:href="#DejaVuSans-63"/>
      </g>
     </g>
    </g>
    <g id="text_2">
     <!-- x -->
     <g style="fill:#262626;" transform="translate(388.69575 340.848062)scale(0.12 -0.12)">
      <defs>
       <path d="M 3513 3500 
L 2247 1797 
L 3578 0 
L 2900 0 
L 1881 1375 
L 863 0 
L 184 0 
L 1544 1831 
L 300 3500 
L 978 3500 
L 1906 2253 
L 2834 3500 
L 3513 3500 
z
" id="DejaVuSans-78" transform="scale(0.015625)"/>
      </defs>
      <use xlink:href="#DejaVuSans-78"/>
     </g>
    </g>
   </g>
   <g id="matplotlib.axis_2">
    <g id="ytick_1">
     <g id="line2d_1">
      <path clip-path="url(#p6b346e99a3)" d="M 95.67 273.675245 
L 688.824 273.675245 
" style="fill:none;stroke:#ffffff;stroke-linecap:round;"/>
     </g>
     <g id="text_3">
      <!-- 0 -->
      <g style="fill:#262626;" transform="translate(79.17125 277.854386)scale(0.11 -0.11)">
       <defs>
        <path d="M 2034 4250 
Q 1547 4250 1301 3770 
Q 1056 3291 1056 2328 
Q 1056 1369 1301 889 
Q 1547 409 2034 409 
Q 2525 409 2770 889 
Q 3016 1369 3016 2328 
Q 3016 3291 2770 3770 
Q 2525 4250 2034 4250 
z
M 2034 4750 
Q 2819 4750 3233 4129 
Q 3647 3509 3647 2328 
Q 3647 1150 3233 529 
Q 2819 -91 2034 -91 
Q 1250 -91 836 529 
Q 422 1150 422 2328 
Q 422 3509 836 4129 
Q 1250 4750 2034 4750 
z
" id="DejaVuSans-30" transform="scale(0.015625)"/>
       </defs>
       <use xlink:href="#DejaVuSans-30"/>
      </g>
     </g>
    </g>
    <g id="ytick_2">
     <g id="line2d_2">
      <path clip-path="url(#p6b346e99a3)" d="M 95.67 228.577609 
L 688.824 228.577609 
" style="fill:none;stroke:#ffffff;stroke-linecap:round;"/>
     </g>
     <g id="text_4">
      <!-- 5000 -->
      <g style="fill:#262626;" transform="translate(58.175 232.756749)scale(0.11 -0.11)">
       <defs>
        <path d="M 691 4666 
L 3169 4666 
L 3169 4134 
L 1269 4134 
L 1269 2991 
Q 1406 3038 1543 3061 
Q 1681 3084 1819 3084 
Q 2600 3084 3056 2656 
Q 3513 2228 3513 1497 
Q 3513 744 3044 326 
Q 2575 -91 1722 -91 
Q 1428 -91 1123 -41 
Q 819 9 494 109 
L 494 744 
Q 775 591 1075 516 
Q 1375 441 1709 441 
Q 2250 441 2565 725 
Q 2881 1009 2881 1497 
Q 2881 1984 2565 2268 
Q 2250 2553 1709 2553 
Q 1456 2553 1204 2497 
Q 953 2441 691 2322 
L 691 4666 
z
" id="DejaVuSans-35" transform="scale(0.015625)"/>
       </defs>
       <use xlink:href="#DejaVuSans-35"/>
       <use x="63.623047" xlink:href="#DejaVuSans-30"/>
       <use x="127.246094" xlink:href="#DejaVuSans-30"/>
       <use x="190.869141" xlink:href="#DejaVuSans-30"/>
      </g>
     </g>
    </g>
    <g id="ytick_3">
     <g id="line2d_3">
      <path clip-path="url(#p6b346e99a3)" d="M 95.67 183.479972 
L 688.824 183.479972 
" style="fill:none;stroke:#ffffff;stroke-linecap:round;"/>
     </g>
     <g id="text_5">
      <!-- 10000 -->
      <g style="fill:#262626;" transform="translate(51.17625 187.659112)scale(0.11 -0.11)">
       <defs>
        <path d="M 794 531 
L 1825 531 
L 1825 4091 
L 703 3866 
L 703 4441 
L 1819 4666 
L 2450 4666 
L 2450 531 
L 3481 531 
L 3481 0 
L 794 0 
L 794 531 
z
" id="DejaVuSans-31" transform="scale(0.015625)"/>
       </defs>
       <use xlink:href="#DejaVuSans-31"/>
       <use x="63.623047" xlink:href="#DejaVuSans-30"/>
       <use x="127.246094" xlink:href="#DejaVuSans-30"/>
       <use x="190.869141" xlink:href="#DejaVuSans-30"/>
       <use x="254.492188" xlink:href="#DejaVuSans-30"/>
      </g>
     </g>
    </g>
    <g id="ytick_4">
     <g id="line2d_4">
      <path clip-path="url(#p6b346e99a3)" d="M 95.67 138.382335 
L 688.824 138.382335 
" style="fill:none;stroke:#ffffff;stroke-linecap:round;"/>
     </g>
     <g id="text_6">
      <!-- 15000 -->
      <g style="fill:#262626;" transform="translate(51.17625 142.561476)scale(0.11 -0.11)">
       <use xlink:href="#DejaVuSans-31"/>
       <use x="63.623047" xlink:href="#DejaVuSans-35"/>
       <use x="127.246094" xlink:href="#DejaVuSans-30"/>
       <use x="190.869141" xlink:href="#DejaVuSans-30"/>
       <use x="254.492188" xlink:href="#DejaVuSans-30"/>
      </g>
     </g>
    </g>
    <g id="ytick_5">
     <g id="line2d_5">
      <path clip-path="url(#p6b346e99a3)" d="M 95.67 93.284699 
L 688.824 93.284699 
" style="fill:none;stroke:#ffffff;stroke-linecap:round;"/>
     </g>
     <g id="text_7">
      <!-- 20000 -->
      <g style="fill:#262626;" transform="translate(51.17625 97.463839)scale(0.11 -0.11)">
       <defs>
        <path d="M 1228 531 
L 3431 531 
L 3431 0 
L 469 0 
L 469 531 
Q 828 903 1448 1529 
Q 2069 2156 2228 2338 
Q 2531 2678 2651 2914 
Q 2772 3150 2772 3378 
Q 2772 3750 2511 3984 
Q 2250 4219 1831 4219 
Q 1534 4219 1204 4116 
Q 875 4013 500 3803 
L 500 4441 
Q 881 4594 1212 4672 
Q 1544 4750 1819 4750 
Q 2544 4750 2975 4387 
Q 3406 4025 3406 3419 
Q 3406 3131 3298 2873 
Q 3191 2616 2906 2266 
Q 2828 2175 2409 1742 
Q 1991 1309 1228 531 
z
" id="DejaVuSans-32" transform="scale(0.015625)"/>
       </defs>
       <use xlink:href="#DejaVuSans-32"/>
       <use x="63.623047" xlink:href="#DejaVuSans-30"/>
       <use x="127.246094" xlink:href="#DejaVuSans-30"/>
       <use x="190.869141" xlink:href="#DejaVuSans-30"/>
       <use x="254.492188" xlink:href="#DejaVuSans-30"/>
      </g>
     </g>
    </g>
    <g id="ytick_6">
     <g id="line2d_6">
      <path clip-path="url(#p6b346e99a3)" d="M 95.67 48.187062 
L 688.824 48.187062 
" style="fill:none;stroke:#ffffff;stroke-linecap:round;"/>
     </g>
     <g id="text_8">
      <!-- 25000 -->
      <g style="fill:#262626;" transform="translate(51.17625 52.366203)scale(0.11 -0.11)">
       <use xlink:href="#DejaVuSans-32"/>
       <use x="63.623047" xlink:href="#DejaVuSans-35"/>
       <use x="127.246094" xlink:href="#DejaVuSans-30"/>
       <use x="190.869141" xlink:href="#DejaVuSans-30"/>
       <use x="254.492188" xlink:href="#DejaVuSans-30"/>
      </g>
     </g>
    </g>
    <g id="text_9">
     <!-- Average transaction amount in BTC -->
     <g style="fill:#262626;" transform="translate(44.680625 280.924875)rotate(-90)scale(0.12 -0.12)">
      <defs>
       <path d="M 2188 4044 
L 1331 1722 
L 3047 1722 
L 2188 4044 
z
M 1831 4666 
L 2547 4666 
L 4325 0 
L 3669 0 
L 3244 1197 
L 1141 1197 
L 716 0 
L 50 0 
L 1831 4666 
z
" id="DejaVuSans-41" transform="scale(0.015625)"/>
       <path d="M 191 3500 
L 800 3500 
L 1894 563 
L 2988 3500 
L 3597 3500 
L 2284 0 
L 1503 0 
L 191 3500 
z
" id="DejaVuSans-76" transform="scale(0.015625)"/>
       <path d="M 3597 1894 
L 3597 1613 
L 953 1613 
Q 991 1019 1311 708 
Q 1631 397 2203 397 
Q 2534 397 2845 478 
Q 3156 559 3463 722 
L 3463 178 
Q 3153 47 2828 -22 
Q 2503 -91 2169 -91 
Q 1331 -91 842 396 
Q 353 884 353 1716 
Q 353 2575 817 3079 
Q 1281 3584 2069 3584 
Q 2775 3584 3186 3129 
Q 3597 2675 3597 1894 
z
M 3022 2063 
Q 3016 2534 2758 2815 
Q 2500 3097 2075 3097 
Q 1594 3097 1305 2825 
Q 1016 2553 972 2059 
L 3022 2063 
z
" id="DejaVuSans-65" transform="scale(0.015625)"/>
       <path d="M 2631 2963 
Q 2534 3019 2420 3045 
Q 2306 3072 2169 3072 
Q 1681 3072 1420 2755 
Q 1159 2438 1159 1844 
L 1159 0 
L 581 0 
L 581 3500 
L 1159 3500 
L 1159 2956 
Q 1341 3275 1631 3429 
Q 1922 3584 2338 3584 
Q 2397 3584 2469 3576 
Q 2541 3569 2628 3553 
L 2631 2963 
z
" id="DejaVuSans-72" transform="scale(0.015625)"/>
       <path d="M 2194 1759 
Q 1497 1759 1228 1600 
Q 959 1441 959 1056 
Q 959 750 1161 570 
Q 1363 391 1709 391 
Q 2188 391 2477 730 
Q 2766 1069 2766 1631 
L 2766 1759 
L 2194 1759 
z
M 3341 1997 
L 3341 0 
L 2766 0 
L 2766 531 
Q 2569 213 2275 61 
Q 1981 -91 1556 -91 
Q 1019 -91 701 211 
Q 384 513 384 1019 
Q 384 1609 779 1909 
Q 1175 2209 1959 2209 
L 2766 2209 
L 2766 2266 
Q 2766 2663 2505 2880 
Q 2244 3097 1772 3097 
Q 1472 3097 1187 3025 
Q 903 2953 641 2809 
L 641 3341 
Q 956 3463 1253 3523 
Q 1550 3584 1831 3584 
Q 2591 3584 2966 3190 
Q 3341 2797 3341 1997 
z
" id="DejaVuSans-61" transform="scale(0.015625)"/>
       <path d="M 2906 1791 
Q 2906 2416 2648 2759 
Q 2391 3103 1925 3103 
Q 1463 3103 1205 2759 
Q 947 2416 947 1791 
Q 947 1169 1205 825 
Q 1463 481 1925 481 
Q 2391 481 2648 825 
Q 2906 1169 2906 1791 
z
M 3481 434 
Q 3481 -459 3084 -895 
Q 2688 -1331 1869 -1331 
Q 1566 -1331 1297 -1286 
Q 1028 -1241 775 -1147 
L 775 -588 
Q 1028 -725 1275 -790 
Q 1522 -856 1778 -856 
Q 2344 -856 2625 -561 
Q 2906 -266 2906 331 
L 2906 616 
Q 2728 306 2450 153 
Q 2172 0 1784 0 
Q 1141 0 747 490 
Q 353 981 353 1791 
Q 353 2603 747 3093 
Q 1141 3584 1784 3584 
Q 2172 3584 2450 3431 
Q 2728 3278 2906 2969 
L 2906 3500 
L 3481 3500 
L 3481 434 
z
" id="DejaVuSans-67" transform="scale(0.015625)"/>
       <path id="DejaVuSans-20" transform="scale(0.015625)"/>
       <path d="M 3513 2113 
L 3513 0 
L 2938 0 
L 2938 2094 
Q 2938 2591 2744 2837 
Q 2550 3084 2163 3084 
Q 1697 3084 1428 2787 
Q 1159 2491 1159 1978 
L 1159 0 
L 581 0 
L 581 3500 
L 1159 3500 
L 1159 2956 
Q 1366 3272 1645 3428 
Q 1925 3584 2291 3584 
Q 2894 3584 3203 3211 
Q 3513 2838 3513 2113 
z
" id="DejaVuSans-6e" transform="scale(0.015625)"/>
       <path d="M 2834 3397 
L 2834 2853 
Q 2591 2978 2328 3040 
Q 2066 3103 1784 3103 
Q 1356 3103 1142 2972 
Q 928 2841 928 2578 
Q 928 2378 1081 2264 
Q 1234 2150 1697 2047 
L 1894 2003 
Q 2506 1872 2764 1633 
Q 3022 1394 3022 966 
Q 3022 478 2636 193 
Q 2250 -91 1575 -91 
Q 1294 -91 989 -36 
Q 684 19 347 128 
L 347 722 
Q 666 556 975 473 
Q 1284 391 1588 391 
Q 1994 391 2212 530 
Q 2431 669 2431 922 
Q 2431 1156 2273 1281 
Q 2116 1406 1581 1522 
L 1381 1569 
Q 847 1681 609 1914 
Q 372 2147 372 2553 
Q 372 3047 722 3315 
Q 1072 3584 1716 3584 
Q 2034 3584 2315 3537 
Q 2597 3491 2834 3397 
z
" id="DejaVuSans-73" transform="scale(0.015625)"/>
       <path d="M 603 3500 
L 1178 3500 
L 1178 0 
L 603 0 
L 603 3500 
z
M 603 4863 
L 1178 4863 
L 1178 4134 
L 603 4134 
L 603 4863 
z
" id="DejaVuSans-69" transform="scale(0.015625)"/>
       <path d="M 1959 3097 
Q 1497 3097 1228 2736 
Q 959 2375 959 1747 
Q 959 1119 1226 758 
Q 1494 397 1959 397 
Q 2419 397 2687 759 
Q 2956 1122 2956 1747 
Q 2956 2369 2687 2733 
Q 2419 3097 1959 3097 
z
M 1959 3584 
Q 2709 3584 3137 3096 
Q 3566 2609 3566 1747 
Q 3566 888 3137 398 
Q 2709 -91 1959 -91 
Q 1206 -91 779 398 
Q 353 888 353 1747 
Q 353 2609 779 3096 
Q 1206 3584 1959 3584 
z
" id="DejaVuSans-6f" transform="scale(0.015625)"/>
       <path d="M 3328 2828 
Q 3544 3216 3844 3400 
Q 4144 3584 4550 3584 
Q 5097 3584 5394 3201 
Q 5691 2819 5691 2113 
L 5691 0 
L 5113 0 
L 5113 2094 
Q 5113 2597 4934 2840 
Q 4756 3084 4391 3084 
Q 3944 3084 3684 2787 
Q 3425 2491 3425 1978 
L 3425 0 
L 2847 0 
L 2847 2094 
Q 2847 2600 2669 2842 
Q 2491 3084 2119 3084 
Q 1678 3084 1418 2786 
Q 1159 2488 1159 1978 
L 1159 0 
L 581 0 
L 581 3500 
L 1159 3500 
L 1159 2956 
Q 1356 3278 1631 3431 
Q 1906 3584 2284 3584 
Q 2666 3584 2933 3390 
Q 3200 3197 3328 2828 
z
" id="DejaVuSans-6d" transform="scale(0.015625)"/>
       <path d="M 544 1381 
L 544 3500 
L 1119 3500 
L 1119 1403 
Q 1119 906 1312 657 
Q 1506 409 1894 409 
Q 2359 409 2629 706 
Q 2900 1003 2900 1516 
L 2900 3500 
L 3475 3500 
L 3475 0 
L 2900 0 
L 2900 538 
Q 2691 219 2414 64 
Q 2138 -91 1772 -91 
Q 1169 -91 856 284 
Q 544 659 544 1381 
z
M 1991 3584 
L 1991 3584 
z
" id="DejaVuSans-75" transform="scale(0.015625)"/>
       <path d="M 1259 2228 
L 1259 519 
L 2272 519 
Q 2781 519 3026 730 
Q 3272 941 3272 1375 
Q 3272 1813 3026 2020 
Q 2781 2228 2272 2228 
L 1259 2228 
z
M 1259 4147 
L 1259 2741 
L 2194 2741 
Q 2656 2741 2882 2914 
Q 3109 3088 3109 3444 
Q 3109 3797 2882 3972 
Q 2656 4147 2194 4147 
L 1259 4147 
z
M 628 4666 
L 2241 4666 
Q 2963 4666 3353 4366 
Q 3744 4066 3744 3513 
Q 3744 3084 3544 2831 
Q 3344 2578 2956 2516 
Q 3422 2416 3680 2098 
Q 3938 1781 3938 1306 
Q 3938 681 3513 340 
Q 3088 0 2303 0 
L 628 0 
L 628 4666 
z
" id="DejaVuSans-42" transform="scale(0.015625)"/>
       <path d="M -19 4666 
L 3928 4666 
L 3928 4134 
L 2272 4134 
L 2272 0 
L 1638 0 
L 1638 4134 
L -19 4134 
L -19 4666 
z
" id="DejaVuSans-54" transform="scale(0.015625)"/>
       <path d="M 4122 4306 
L 4122 3641 
Q 3803 3938 3442 4084 
Q 3081 4231 2675 4231 
Q 1875 4231 1450 3742 
Q 1025 3253 1025 2328 
Q 1025 1406 1450 917 
Q 1875 428 2675 428 
Q 3081 428 3442 575 
Q 3803 722 4122 1019 
L 4122 359 
Q 3791 134 3420 21 
Q 3050 -91 2638 -91 
Q 1578 -91 968 557 
Q 359 1206 359 2328 
Q 359 3453 968 4101 
Q 1578 4750 2638 4750 
Q 3056 4750 3426 4639 
Q 3797 4528 4122 4306 
z
" id="DejaVuSans-43" transform="scale(0.015625)"/>
      </defs>
      <use xlink:href="#DejaVuSans-41"/>
      <use x="62.533203" xlink:href="#DejaVuSans-76"/>
      <use x="121.712891" xlink:href="#DejaVuSans-65"/>
      <use x="183.236328" xlink:href="#DejaVuSans-72"/>
      <use x="224.349609" xlink:href="#DejaVuSans-61"/>
      <use x="285.628906" xlink:href="#DejaVuSans-67"/>
      <use x="349.105469" xlink:href="#DejaVuSans-65"/>
      <use x="410.628906" xlink:href="#DejaVuSans-20"/>
      <use x="442.416016" xlink:href="#DejaVuSans-74"/>
      <use x="481.625" xlink:href="#DejaVuSans-72"/>
      <use x="522.738281" xlink:href="#DejaVuSans-61"/>
      <use x="584.017578" xlink:href="#DejaVuSans-6e"/>
      <use x="647.396484" xlink:href="#DejaVuSans-73"/>
      <use x="699.496094" xlink:href="#DejaVuSans-61"/>
      <use x="760.775391" xlink:href="#DejaVuSans-63"/>
      <use x="815.755859" xlink:href="#DejaVuSans-74"/>
      <use x="854.964844" xlink:href="#DejaVuSans-69"/>
      <use x="882.748047" xlink:href="#DejaVuSans-6f"/>
      <use x="943.929688" xlink:href="#DejaVuSans-6e"/>
      <use x="1007.308594" xlink:href="#DejaVuSans-20"/>
      <use x="1039.095703" xlink:href="#DejaVuSans-61"/>
      <use x="1100.375" xlink:href="#DejaVuSans-6d"/>
      <use x="1197.787109" xlink:href="#DejaVuSans-6f"/>
      <use x="1258.96875" xlink:href="#DejaVuSans-75"/>
      <use x="1322.347656" xlink:href="#DejaVuSans-6e"/>
      <use x="1385.726562" xlink:href="#DejaVuSans-74"/>
      <use x="1424.935547" xlink:href="#DejaVuSans-20"/>
      <use x="1456.722656" xlink:href="#DejaVuSans-69"/>
      <use x="1484.505859" xlink:href="#DejaVuSans-6e"/>
      <use x="1547.884766" xlink:href="#DejaVuSans-20"/>
      <use x="1579.671875" xlink:href="#DejaVuSans-42"/>
      <use x="1648.275391" xlink:href="#DejaVuSans-54"/>
      <use x="1703.484375" xlink:href="#DejaVuSans-43"/>
     </g>
    </g>
   </g>
   <g id="PolyCollection_1">
    <defs>
     <path d="M 424.092067 -50.112 
L 360.401933 -50.112 
L 343.593575 -52.555636 
L 321.551286 -54.999273 
L 294.549911 -57.442909 
L 263.842717 -59.886545 
L 231.742488 -62.330182 
L 201.435147 -64.773818 
L 176.505165 -67.217455 
L 160.254004 -69.661091 
L 154.9854 -72.104727 
L 161.469888 -74.548364 
L 178.760036 -76.992 
L 204.417411 -79.435636 
L 235.076374 -81.879273 
L 267.165171 -84.322909 
L 297.572441 -86.766545 
L 324.093308 -89.210182 
L 345.584999 -91.653818 
L 361.862222 -94.097455 
L 373.429219 -96.541091 
L 381.162877 -98.984727 
L 386.037511 -101.428364 
L 388.938486 -103.872 
L 390.570383 -106.315636 
L 391.438911 -108.759273 
L 391.876566 -111.202909 
L 392.085494 -113.646545 
L 392.180027 -116.090182 
L 392.220586 -118.533818 
L 392.237092 -120.977455 
L 392.243465 -123.421091 
L 392.2458 -125.864727 
L 392.246613 -128.308364 
L 392.246881 -130.752 
L 392.246965 -133.195636 
L 392.24699 -135.639273 
L 392.246997 -138.082909 
L 392.246999 -140.526545 
L 392.247 -142.970182 
L 392.247 -145.413818 
L 392.247 -147.857455 
L 392.247 -150.301091 
L 392.247 -152.744727 
L 392.247 -155.188364 
L 392.247 -157.632 
L 392.247 -160.075636 
L 392.247 -162.519273 
L 392.247 -164.962909 
L 392.247 -167.406545 
L 392.247 -169.850182 
L 392.247 -172.293818 
L 392.247 -174.737455 
L 392.247 -177.181091 
L 392.247 -179.624727 
L 392.247 -182.068364 
L 392.247 -184.512 
L 392.247 -186.955636 
L 392.247 -189.399273 
L 392.247 -191.842909 
L 392.247 -194.286545 
L 392.247 -196.730182 
L 392.247 -199.173818 
L 392.247 -201.617455 
L 392.247 -204.061091 
L 392.247 -206.504727 
L 392.246999 -208.948364 
L 392.246998 -211.392 
L 392.246994 -213.835636 
L 392.246981 -216.279273 
L 392.246945 -218.722909 
L 392.246845 -221.166545 
L 392.246586 -223.610182 
L 392.245948 -226.053818 
L 392.244457 -228.497455 
L 392.241156 -230.941091 
L 392.23423 -233.384727 
L 392.220458 -235.828364 
L 392.194536 -238.272 
L 392.148376 -240.715636 
L 392.070678 -243.159273 
L 391.947203 -245.602909 
L 391.762217 -248.046545 
L 391.501469 -250.490182 
L 391.15661 -252.933818 
L 390.730311 -255.377455 
L 390.240636 -257.821091 
L 389.722815 -260.264727 
L 389.226833 -262.708364 
L 388.81032 -265.152 
L 388.527833 -267.595636 
L 388.419189 -270.039273 
L 388.500258 -272.482909 
L 388.75917 -274.926545 
L 389.159156 -277.370182 
L 389.647118 -279.813818 
L 390.165146 -282.257455 
L 390.661576 -284.701091 
L 391.098744 -287.144727 
L 391.456084 -289.588364 
L 391.728892 -292.032 
L 392.765108 -292.032 
L 392.765108 -292.032 
L 393.037916 -289.588364 
L 393.395256 -287.144727 
L 393.832424 -284.701091 
L 394.328854 -282.257455 
L 394.846882 -279.813818 
L 395.334844 -277.370182 
L 395.73483 -274.926545 
L 395.993742 -272.482909 
L 396.074811 -270.039273 
L 395.966167 -267.595636 
L 395.68368 -265.152 
L 395.267167 -262.708364 
L 394.771185 -260.264727 
L 394.253364 -257.821091 
L 393.763689 -255.377455 
L 393.33739 -252.933818 
L 392.992531 -250.490182 
L 392.731783 -248.046545 
L 392.546797 -245.602909 
L 392.423322 -243.159273 
L 392.345624 -240.715636 
L 392.299464 -238.272 
L 392.273542 -235.828364 
L 392.25977 -233.384727 
L 392.252844 -230.941091 
L 392.249543 -228.497455 
L 392.248052 -226.053818 
L 392.247414 -223.610182 
L 392.247155 -221.166545 
L 392.247055 -218.722909 
L 392.247019 -216.279273 
L 392.247006 -213.835636 
L 392.247002 -211.392 
L 392.247001 -208.948364 
L 392.247 -206.504727 
L 392.247 -204.061091 
L 392.247 -201.617455 
L 392.247 -199.173818 
L 392.247 -196.730182 
L 392.247 -194.286545 
L 392.247 -191.842909 
L 392.247 -189.399273 
L 392.247 -186.955636 
L 392.247 -184.512 
L 392.247 -182.068364 
L 392.247 -179.624727 
L 392.247 -177.181091 
L 392.247 -174.737455 
L 392.247 -172.293818 
L 392.247 -169.850182 
L 392.247 -167.406545 
L 392.247 -164.962909 
L 392.247 -162.519273 
L 392.247 -160.075636 
L 392.247 -157.632 
L 392.247 -155.188364 
L 392.247 -152.744727 
L 392.247 -150.301091 
L 392.247 -147.857455 
L 392.247 -145.413818 
L 392.247 -142.970182 
L 392.247001 -140.526545 
L 392.247003 -138.082909 
L 392.24701 -135.639273 
L 392.247035 -133.195636 
L 392.247119 -130.752 
L 392.247387 -128.308364 
L 392.2482 -125.864727 
L 392.250535 -123.421091 
L 392.256908 -120.977455 
L 392.273414 -118.533818 
L 392.313973 -116.090182 
L 392.408506 -113.646545 
L 392.617434 -111.202909 
L 393.055089 -108.759273 
L 393.923617 -106.315636 
L 395.555514 -103.872 
L 398.456489 -101.428364 
L 403.331123 -98.984727 
L 411.064781 -96.541091 
L 422.631778 -94.097455 
L 438.909001 -91.653818 
L 460.400692 -89.210182 
L 486.921559 -86.766545 
L 517.328829 -84.322909 
L 549.417626 -81.879273 
L 580.076589 -79.435636 
L 605.733964 -76.992 
L 623.024112 -74.548364 
L 629.5086 -72.104727 
L 624.239996 -69.661091 
L 607.988835 -67.217455 
L 583.058853 -64.773818 
L 552.751512 -62.330182 
L 520.651283 -59.886545 
L 489.944089 -57.442909 
L 462.942714 -54.999273 
L 440.900425 -52.555636 
L 424.092067 -50.112 
z
" id="ma33b48ffcf" style="stroke:#4c4c4c;stroke-width:1.5;"/>
    </defs>
    <g clip-path="url(#p6b346e99a3)">
     <use style="fill:#5875a4;stroke:#4c4c4c;stroke-width:1.5;" x="0" xlink:href="#ma33b48ffcf" y="345.6"/>
    </g>
   </g>
   <g id="line2d_7">
    <path clip-path="url(#p6b346e99a3)" d="M 392.247 273.675063 
L 392.247 273.636999 
" style="fill:none;stroke:#4c4c4c;stroke-linecap:round;stroke-width:1.5;"/>
   </g>
   <g id="line2d_8">
    <path clip-path="url(#p6b346e99a3)" d="M 392.247 273.672145 
L 392.247 273.653527 
" style="fill:none;stroke:#4c4c4c;stroke-linecap:round;stroke-width:4.5;"/>
   </g>
   <g id="patch_3">
    <path d="M 95.67 307.584 
L 95.67 41.472 
" style="fill:none;stroke:#ffffff;stroke-linecap:square;stroke-linejoin:miter;stroke-width:1.25;"/>
   </g>
   <g id="patch_4">
    <path d="M 688.824 307.584 
L 688.824 41.472 
" style="fill:none;stroke:#ffffff;stroke-linecap:square;stroke-linejoin:miter;stroke-width:1.25;"/>
   </g>
   <g id="patch_5">
    <path d="M 95.67 307.584 
L 688.824 307.584 
" style="fill:none;stroke:#ffffff;stroke-linecap:square;stroke-linejoin:miter;stroke-width:1.25;"/>
   </g>
   <g id="patch_6">
    <path d="M 95.67 41.472 
L 688.824 41.472 
" style="fill:none;stroke:#ffffff;stroke-linecap:square;stroke-linejoin:miter;stroke-width:1.25;"/>
   </g>
   <g id="PathCollection_1">
    <defs>
     <path d="M 0 1.5 
C 0.397805 1.5 0.77937 1.341951 1.06066 1.06066 
C 1.341951 0.77937 1.5 0.397805 1.5 0 
C 1.5 -0.397805 1.341951 -0.77937 1.06066 -1.06066 
C 0.77937 -1.341951 0.397805 -1.5 0 -1.5 
C -0.397805 -1.5 -0.77937 -1.341951 -1.06066 -1.06066 
C -1.341951 -0.77937 -1.5 -0.397805 -1.5 0 
C -1.5 0.397805 -1.341951 0.77937 -1.06066 1.06066 
C -0.77937 1.341951 -0.397805 1.5 0 1.5 
z
" id="mea90950289" style="stroke:#4c4c4c;"/>
    </defs>
    <g clip-path="url(#p6b346e99a3)">
     <use style="fill:#ffffff;stroke:#4c4c4c;" x="392.247" xlink:href="#mea90950289" y="273.666969"/>
    </g>
   </g>
   <g id="text_10">
    <!-- 05-oct2014.csv - Average transaction amount in BTC per shipping locality -->
    <g style="fill:#262626;" transform="translate(170.75325 35.472)scale(0.12 -0.12)">
     <defs>
      <path d="M 313 2009 
L 1997 2009 
L 1997 1497 
L 313 1497 
L 313 2009 
z
" id="DejaVuSans-2d" transform="scale(0.015625)"/>
      <path d="M 2419 4116 
L 825 1625 
L 2419 1625 
L 2419 4116 
z
M 2253 4666 
L 3047 4666 
L 3047 1625 
L 3713 1625 
L 3713 1100 
L 3047 1100 
L 3047 0 
L 2419 0 
L 2419 1100 
L 313 1100 
L 313 1709 
L 2253 4666 
z
" id="DejaVuSans-34" transform="scale(0.015625)"/>
      <path d="M 684 794 
L 1344 794 
L 1344 0 
L 684 0 
L 684 794 
z
" id="DejaVuSans-2e" transform="scale(0.015625)"/>
      <path d="M 1159 525 
L 1159 -1331 
L 581 -1331 
L 581 3500 
L 1159 3500 
L 1159 2969 
Q 1341 3281 1617 3432 
Q 1894 3584 2278 3584 
Q 2916 3584 3314 3078 
Q 3713 2572 3713 1747 
Q 3713 922 3314 415 
Q 2916 -91 2278 -91 
Q 1894 -91 1617 61 
Q 1341 213 1159 525 
z
M 3116 1747 
Q 3116 2381 2855 2742 
Q 2594 3103 2138 3103 
Q 1681 3103 1420 2742 
Q 1159 2381 1159 1747 
Q 1159 1113 1420 752 
Q 1681 391 2138 391 
Q 2594 391 2855 752 
Q 3116 1113 3116 1747 
z
" id="DejaVuSans-70" transform="scale(0.015625)"/>
      <path d="M 3513 2113 
L 3513 0 
L 2938 0 
L 2938 2094 
Q 2938 2591 2744 2837 
Q 2550 3084 2163 3084 
Q 1697 3084 1428 2787 
Q 1159 2491 1159 1978 
L 1159 0 
L 581 0 
L 581 4863 
L 1159 4863 
L 1159 2956 
Q 1366 3272 1645 3428 
Q 1925 3584 2291 3584 
Q 2894 3584 3203 3211 
Q 3513 2838 3513 2113 
z
" id="DejaVuSans-68" transform="scale(0.015625)"/>
      <path d="M 603 4863 
L 1178 4863 
L 1178 0 
L 603 0 
L 603 4863 
z
" id="DejaVuSans-6c" transform="scale(0.015625)"/>
      <path d="M 2059 -325 
Q 1816 -950 1584 -1140 
Q 1353 -1331 966 -1331 
L 506 -1331 
L 506 -850 
L 844 -850 
Q 1081 -850 1212 -737 
Q 1344 -625 1503 -206 
L 1606 56 
L 191 3500 
L 800 3500 
L 1894 763 
L 2988 3500 
L 3597 3500 
L 2059 -325 
z
" id="DejaVuSans-79" transform="scale(0.015625)"/>
     </defs>
     <use xlink:href="#DejaVuSans-30"/>
     <use x="63.623047" xlink:href="#DejaVuSans-35"/>
     <use x="127.246094" xlink:href="#DejaVuSans-2d"/>
     <use x="165.205078" xlink:href="#DejaVuSans-6f"/>
     <use x="226.386719" xlink:href="#DejaVuSans-63"/>
     <use x="281.367188" xlink:href="#DejaVuSans-74"/>
     <use x="320.576172" xlink:href="#DejaVuSans-32"/>
     <use x="384.199219" xlink:href="#DejaVuSans-30"/>
     <use x="447.822266" xlink:href="#DejaVuSans-31"/>
     <use x="511.445312" xlink:href="#DejaVuSans-34"/>
     <use x="575.068359" xlink:href="#DejaVuSans-2e"/>
     <use x="606.855469" xlink:href="#DejaVuSans-63"/>
     <use x="661.835938" xlink:href="#DejaVuSans-73"/>
     <use x="713.935547" xlink:href="#DejaVuSans-76"/>
     <use x="773.115234" xlink:href="#DejaVuSans-20"/>
     <use x="804.902344" xlink:href="#DejaVuSans-2d"/>
     <use x="840.986328" xlink:href="#DejaVuSans-20"/>
     <use x="872.773438" xlink:href="#DejaVuSans-41"/>
     <use x="935.306641" xlink:href="#DejaVuSans-76"/>
     <use x="994.486328" xlink:href="#DejaVuSans-65"/>
     <use x="1056.009766" xlink:href="#DejaVuSans-72"/>
     <use x="1097.123047" xlink:href="#DejaVuSans-61"/>
     <use x="1158.402344" xlink:href="#DejaVuSans-67"/>
     <use x="1221.878906" xlink:href="#DejaVuSans-65"/>
     <use x="1283.402344" xlink:href="#DejaVuSans-20"/>
     <use x="1315.189453" xlink:href="#DejaVuSans-74"/>
     <use x="1354.398438" xlink:href="#DejaVuSans-72"/>
     <use x="1395.511719" xlink:href="#DejaVuSans-61"/>
     <use x="1456.791016" xlink:href="#DejaVuSans-6e"/>
     <use x="1520.169922" xlink:href="#DejaVuSans-73"/>
     <use x="1572.269531" xlink:href="#DejaVuSans-61"/>
     <use x="1633.548828" xlink:href="#DejaVuSans-63"/>
     <use x="1688.529297" xlink:href="#DejaVuSans-74"/>
     <use x="1727.738281" xlink:href="#DejaVuSans-69"/>
     <use x="1755.521484" xlink:href="#DejaVuSans-6f"/>
     <use x="1816.703125" xlink:href="#DejaVuSans-6e"/>
     <use x="1880.082031" xlink:href="#DejaVuSans-20"/>
     <use x="1911.869141" xlink:href="#DejaVuSans-61"/>
     <use x="1973.148438" xlink:href="#DejaVuSans-6d"/>
     <use x="2070.560547" xlink:href="#DejaVuSans-6f"/>
     <use x="2131.742188" xlink:href="#DejaVuSans-75"/>
     <use x="2195.121094" xlink:href="#DejaVuSans-6e"/>
     <use x="2258.5" xlink:href="#DejaVuSans-74"/>
     <use x="2297.708984" xlink:href="#DejaVuSans-20"/>
     <use x="2329.496094" xlink:href="#DejaVuSans-69"/>
     <use x="2357.279297" xlink:href="#DejaVuSans-6e"/>
     <use x="2420.658203" xlink:href="#DejaVuSans-20"/>
     <use x="2452.445312" xlink:href="#DejaVuSans-42"/>
     <use x="2521.048828" xlink:href="#DejaVuSans-54"/>
     <use x="2576.257812" xlink:href="#DejaVuSans-43"/>
     <use x="2646.082031" xlink:href="#DejaVuSans-20"/>
     <use x="2677.869141" xlink:href="#DejaVuSans-70"/>
     <use x="2741.345703" xlink:href="#DejaVuSans-65"/>
     <use x="2802.869141" xlink:href="#DejaVuSans-72"/>
     <use x="2843.982422" xlink:href="#DejaVuSans-20"/>
     <use x="2875.769531" xlink:href="#DejaVuSans-73"/>
     <use x="2927.869141" xlink:href="#DejaVuSans-68"/>
     <use x="2991.248047" xlink:href="#DejaVuSans-69"/>
     <use x="3019.03125" xlink:href="#DejaVuSans-70"/>
     <use x="3082.507812" xlink:href="#DejaVuSans-70"/>
     <use x="3145.984375" xlink:href="#DejaVuSans-69"/>
     <use x="3173.767578" xlink:href="#DejaVuSans-6e"/>
     <use x="3237.146484" xlink:href="#DejaVuSans-67"/>
     <use x="3300.623047" xlink:href="#DejaVuSans-20"/>
     <use x="3332.410156" xlink:href="#DejaVuSans-6c"/>
     <use x="3360.193359" xlink:href="#DejaVuSans-6f"/>
     <use x="3421.375" xlink:href="#DejaVuSans-63"/>
     <use x="3476.355469" xlink:href="#DejaVuSans-61"/>
     <use x="3537.634766" xlink:href="#DejaVuSans-6c"/>
     <use x="3565.417969" xlink:href="#DejaVuSans-69"/>
     <use x="3593.201172" xlink:href="#DejaVuSans-74"/>
     <use x="3632.410156" xlink:href="#DejaVuSans-79"/>
    </g>
   </g>
  </g>
 </g>
 <defs>
  <clipPath id="p6b346e99a3">
   <rect height="266.112" width="593.154" x="95.67" y="41.472"/>
  </clipPath>
 </defs>
</svg>
