<?xml version="1.0" encoding="utf-8" standalone="no"?>
<!DOCTYPE svg PUBLIC "-//W3C//DTD SVG 1.1//EN"
  "http://www.w3.org/Graphics/SVG/1.1/DTD/svg11.dtd">
<svg height="345.6pt" version="1.1" viewBox="0 0 460.8 345.6" width="460.8pt" xmlns="http://www.w3.org/2000/svg" xmlns:xlink="http://www.w3.org/1999/xlink">
 <metadata>
  <rdf:RDF xmlns:cc="http://creativecommons.org/ns#" xmlns:dc="http://purl.org/dc/elements/1.1/" xmlns:rdf="http://www.w3.org/1999/02/22-rdf-syntax-ns#">
   <cc:Work>
    <dc:type rdf:resource="http://purl.org/dc/dcmitype/StillImage"/>
    <dc:date>2021-07-11T13:28:46.808609</dc:date>
    <dc:format>image/svg+xml</dc:format>
    <dc:creator>
     <cc:Agent>
      <dc:title>Matplotlib v3.4.2, https://matplotlib.org/</dc:title>
     </cc:Agent>
    </dc:creator>
   </cc:Work>
  </rdf:RDF>
 </metadata>
 <defs>
  <style type="text/css">*{stroke-linecap:butt;stroke-linejoin:round;}</style>
 </defs>
 <g id="figure_1">
  <g id="patch_1">
   <path d="M 0 345.6 
L 460.8 345.6 
L 460.8 0 
L 0 0 
z
" style="fill:#ffffff;"/>
  </g>
  <g id="axes_1">
   <g id="patch_2">
    <path d="M 57.6 307.584 
L 414.72 307.584 
L 414.72 41.472 
L 57.6 41.472 
z
" style="fill:#eaeaf2;"/>
   </g>
   <g id="matplotlib.axis_1">
    <g id="xtick_1">
     <g id="text_1">
      <!-- transactions -->
      <g style="fill:#262626;" transform="translate(202.226719 325.442281)scale(0.11 -0.11)">
       <defs>
        <path d="M 1172 4494 
L 1172 3500 
L 2356 3500 
L 2356 3053 
L 1172 3053 
L 1172 1153 
Q 1172 725 1289 603 
Q 1406 481 1766 481 
L 2356 481 
L 2356 0 
L 1766 0 
Q 1100 0 847 248 
Q 594 497 594 1153 
L 594 3053 
L 172 3053 
L 172 3500 
L 594 3500 
L 594 4494 
L 1172 4494 
z
" id="DejaVuSans-74" transform="scale(0.015625)"/>
        <path d="M 2631 2963 
Q 2534 3019 2420 3045 
Q 2306 3072 2169 3072 
Q 1681 3072 1420 2755 
Q 1159 2438 1159 1844 
L 1159 0 
L 581 0 
L 581 3500 
L 1159 3500 
L 1159 2956 
Q 1341 3275 1631 3429 
Q 1922 3584 2338 3584 
Q 2397 3584 2469 3576 
Q 2541 3569 2628 3553 
L 2631 2963 
z
" id="DejaVuSans-72" transform="scale(0.015625)"/>
        <path d="M 2194 1759 
Q 1497 1759 1228 1600 
Q 959 1441 959 1056 
Q 959 750 1161 570 
Q 1363 391 1709 391 
Q 2188 391 2477 730 
Q 2766 1069 2766 1631 
L 2766 1759 
L 2194 1759 
z
M 3341 1997 
L 3341 0 
L 2766 0 
L 2766 531 
Q 2569 213 2275 61 
Q 1981 -91 1556 -91 
Q 1019 -91 701 211 
Q 384 513 384 1019 
Q 384 1609 779 1909 
Q 1175 2209 1959 2209 
L 2766 2209 
L 2766 2266 
Q 2766 2663 2505 2880 
Q 2244 3097 1772 3097 
Q 1472 3097 1187 3025 
Q 903 2953 641 2809 
L 641 3341 
Q 956 3463 1253 3523 
Q 1550 3584 1831 3584 
Q 2591 3584 2966 3190 
Q 3341 2797 3341 1997 
z
" id="DejaVuSans-61" transform="scale(0.015625)"/>
        <path d="M 3513 2113 
L 3513 0 
L 2938 0 
L 2938 2094 
Q 2938 2591 2744 2837 
Q 2550 3084 2163 3084 
Q 1697 3084 1428 2787 
Q 1159 2491 1159 1978 
L 1159 0 
L 581 0 
L 581 3500 
L 1159 3500 
L 1159 2956 
Q 1366 3272 1645 3428 
Q 1925 3584 2291 3584 
Q 2894 3584 3203 3211 
Q 3513 2838 3513 2113 
z
" id="DejaVuSans-6e" transform="scale(0.015625)"/>
        <path d="M 2834 3397 
L 2834 2853 
Q 2591 2978 2328 3040 
Q 2066 3103 1784 3103 
Q 1356 3103 1142 2972 
Q 928 2841 928 2578 
Q 928 2378 1081 2264 
Q 1234 2150 1697 2047 
L 1894 2003 
Q 2506 1872 2764 1633 
Q 3022 1394 3022 966 
Q 3022 478 2636 193 
Q 2250 -91 1575 -91 
Q 1294 -91 989 -36 
Q 684 19 347 128 
L 347 722 
Q 666 556 975 473 
Q 1284 391 1588 391 
Q 1994 391 2212 530 
Q 2431 669 2431 922 
Q 2431 1156 2273 1281 
Q 2116 1406 1581 1522 
L 1381 1569 
Q 847 1681 609 1914 
Q 372 2147 372 2553 
Q 372 3047 722 3315 
Q 1072 3584 1716 3584 
Q 2034 3584 2315 3537 
Q 2597 3491 2834 3397 
z
" id="DejaVuSans-73" transform="scale(0.015625)"/>
        <path d="M 3122 3366 
L 3122 2828 
Q 2878 2963 2633 3030 
Q 2388 3097 2138 3097 
Q 1578 3097 1268 2742 
Q 959 2388 959 1747 
Q 959 1106 1268 751 
Q 1578 397 2138 397 
Q 2388 397 2633 464 
Q 2878 531 3122 666 
L 3122 134 
Q 2881 22 2623 -34 
Q 2366 -91 2075 -91 
Q 1284 -91 818 406 
Q 353 903 353 1747 
Q 353 2603 823 3093 
Q 1294 3584 2113 3584 
Q 2378 3584 2631 3529 
Q 2884 3475 3122 3366 
z
" id="DejaVuSans-63" transform="scale(0.015625)"/>
        <path d="M 603 3500 
L 1178 3500 
L 1178 0 
L 603 0 
L 603 3500 
z
M 603 4863 
L 1178 4863 
L 1178 4134 
L 603 4134 
L 603 4863 
z
" id="DejaVuSans-69" transform="scale(0.015625)"/>
        <path d="M 1959 3097 
Q 1497 3097 1228 2736 
Q 959 2375 959 1747 
Q 959 1119 1226 758 
Q 1494 397 1959 397 
Q 2419 397 2687 759 
Q 2956 1122 2956 1747 
Q 2956 2369 2687 2733 
Q 2419 3097 1959 3097 
z
M 1959 3584 
Q 2709 3584 3137 3096 
Q 3566 2609 3566 1747 
Q 3566 888 3137 398 
Q 2709 -91 1959 -91 
Q 1206 -91 779 398 
Q 353 888 353 1747 
Q 353 2609 779 3096 
Q 1206 3584 1959 3584 
z
" id="DejaVuSans-6f" transform="scale(0.015625)"/>
       </defs>
       <use xlink:href="#DejaVuSans-74"/>
       <use x="39.208984" xlink:href="#DejaVuSans-72"/>
       <use x="80.322266" xlink:href="#DejaVuSans-61"/>
       <use x="141.601562" xlink:href="#DejaVuSans-6e"/>
       <use x="204.980469" xlink:href="#DejaVuSans-73"/>
       <use x="257.080078" xlink:href="#DejaVuSans-61"/>
       <use x="318.359375" xlink:href="#DejaVuSans-63"/>
       <use x="373.339844" xlink:href="#DejaVuSans-74"/>
       <use x="412.548828" xlink:href="#DejaVuSans-69"/>
       <use x="440.332031" xlink:href="#DejaVuSans-6f"/>
       <use x="501.513672" xlink:href="#DejaVuSans-6e"/>
       <use x="564.892578" xlink:href="#DejaVuSans-73"/>
      </g>
     </g>
    </g>
    <g id="text_2">
     <!-- x -->
     <g style="fill:#262626;" transform="translate(232.60875 340.848062)scale(0.12 -0.12)">
      <defs>
       <path d="M 3513 3500 
L 2247 1797 
L 3578 0 
L 2900 0 
L 1881 1375 
L 863 0 
L 184 0 
L 1544 1831 
L 300 3500 
L 978 3500 
L 1906 2253 
L 2834 3500 
L 3513 3500 
z
" id="DejaVuSans-78" transform="scale(0.015625)"/>
      </defs>
      <use xlink:href="#DejaVuSans-78"/>
     </g>
    </g>
   </g>
   <g id="matplotlib.axis_2">
    <g id="ytick_1">
     <g id="line2d_1">
      <path clip-path="url(#pd0360a0924)" d="M 57.6 266.552785 
L 414.72 266.552785 
" style="fill:none;stroke:#ffffff;stroke-linecap:round;"/>
     </g>
     <g id="text_3">
      <!-- 0 -->
      <g style="fill:#262626;" transform="translate(41.10125 270.731925)scale(0.11 -0.11)">
       <defs>
        <path d="M 2034 4250 
Q 1547 4250 1301 3770 
Q 1056 3291 1056 2328 
Q 1056 1369 1301 889 
Q 1547 409 2034 409 
Q 2525 409 2770 889 
Q 3016 1369 3016 2328 
Q 3016 3291 2770 3770 
Q 2525 4250 2034 4250 
z
M 2034 4750 
Q 2819 4750 3233 4129 
Q 3647 3509 3647 2328 
Q 3647 1150 3233 529 
Q 2819 -91 2034 -91 
Q 1250 -91 836 529 
Q 422 1150 422 2328 
Q 422 3509 836 4129 
Q 1250 4750 2034 4750 
z
" id="DejaVuSans-30" transform="scale(0.015625)"/>
       </defs>
       <use xlink:href="#DejaVuSans-30"/>
      </g>
     </g>
    </g>
    <g id="ytick_2">
     <g id="line2d_2">
      <path clip-path="url(#pd0360a0924)" d="M 57.6 210.268513 
L 414.72 210.268513 
" style="fill:none;stroke:#ffffff;stroke-linecap:round;"/>
     </g>
     <g id="text_4">
      <!-- 2000 -->
      <g style="fill:#262626;" transform="translate(20.105 214.447653)scale(0.11 -0.11)">
       <defs>
        <path d="M 1228 531 
L 3431 531 
L 3431 0 
L 469 0 
L 469 531 
Q 828 903 1448 1529 
Q 2069 2156 2228 2338 
Q 2531 2678 2651 2914 
Q 2772 3150 2772 3378 
Q 2772 3750 2511 3984 
Q 2250 4219 1831 4219 
Q 1534 4219 1204 4116 
Q 875 4013 500 3803 
L 500 4441 
Q 881 4594 1212 4672 
Q 1544 4750 1819 4750 
Q 2544 4750 2975 4387 
Q 3406 4025 3406 3419 
Q 3406 3131 3298 2873 
Q 3191 2616 2906 2266 
Q 2828 2175 2409 1742 
Q 1991 1309 1228 531 
z
" id="DejaVuSans-32" transform="scale(0.015625)"/>
       </defs>
       <use xlink:href="#DejaVuSans-32"/>
       <use x="63.623047" xlink:href="#DejaVuSans-30"/>
       <use x="127.246094" xlink:href="#DejaVuSans-30"/>
       <use x="190.869141" xlink:href="#DejaVuSans-30"/>
      </g>
     </g>
    </g>
    <g id="ytick_3">
     <g id="line2d_3">
      <path clip-path="url(#pd0360a0924)" d="M 57.6 153.984241 
L 414.72 153.984241 
" style="fill:none;stroke:#ffffff;stroke-linecap:round;"/>
     </g>
     <g id="text_5">
      <!-- 4000 -->
      <g style="fill:#262626;" transform="translate(20.105 158.163381)scale(0.11 -0.11)">
       <defs>
        <path d="M 2419 4116 
L 825 1625 
L 2419 1625 
L 2419 4116 
z
M 2253 4666 
L 3047 4666 
L 3047 1625 
L 3713 1625 
L 3713 1100 
L 3047 1100 
L 3047 0 
L 2419 0 
L 2419 1100 
L 313 1100 
L 313 1709 
L 2253 4666 
z
" id="DejaVuSans-34" transform="scale(0.015625)"/>
       </defs>
       <use xlink:href="#DejaVuSans-34"/>
       <use x="63.623047" xlink:href="#DejaVuSans-30"/>
       <use x="127.246094" xlink:href="#DejaVuSans-30"/>
       <use x="190.869141" xlink:href="#DejaVuSans-30"/>
      </g>
     </g>
    </g>
    <g id="ytick_4">
     <g id="line2d_4">
      <path clip-path="url(#pd0360a0924)" d="M 57.6 97.699969 
L 414.72 97.699969 
" style="fill:none;stroke:#ffffff;stroke-linecap:round;"/>
     </g>
     <g id="text_6">
      <!-- 6000 -->
      <g style="fill:#262626;" transform="translate(20.105 101.879109)scale(0.11 -0.11)">
       <defs>
        <path d="M 2113 2584 
Q 1688 2584 1439 2293 
Q 1191 2003 1191 1497 
Q 1191 994 1439 701 
Q 1688 409 2113 409 
Q 2538 409 2786 701 
Q 3034 994 3034 1497 
Q 3034 2003 2786 2293 
Q 2538 2584 2113 2584 
z
M 3366 4563 
L 3366 3988 
Q 3128 4100 2886 4159 
Q 2644 4219 2406 4219 
Q 1781 4219 1451 3797 
Q 1122 3375 1075 2522 
Q 1259 2794 1537 2939 
Q 1816 3084 2150 3084 
Q 2853 3084 3261 2657 
Q 3669 2231 3669 1497 
Q 3669 778 3244 343 
Q 2819 -91 2113 -91 
Q 1303 -91 875 529 
Q 447 1150 447 2328 
Q 447 3434 972 4092 
Q 1497 4750 2381 4750 
Q 2619 4750 2861 4703 
Q 3103 4656 3366 4563 
z
" id="DejaVuSans-36" transform="scale(0.015625)"/>
       </defs>
       <use xlink:href="#DejaVuSans-36"/>
       <use x="63.623047" xlink:href="#DejaVuSans-30"/>
       <use x="127.246094" xlink:href="#DejaVuSans-30"/>
       <use x="190.869141" xlink:href="#DejaVuSans-30"/>
      </g>
     </g>
    </g>
    <g id="text_7">
     <!-- Total number of transactions -->
     <g style="fill:#262626;" transform="translate(13.609375 260.478937)rotate(-90)scale(0.12 -0.12)">
      <defs>
       <path d="M -19 4666 
L 3928 4666 
L 3928 4134 
L 2272 4134 
L 2272 0 
L 1638 0 
L 1638 4134 
L -19 4134 
L -19 4666 
z
" id="DejaVuSans-54" transform="scale(0.015625)"/>
       <path d="M 603 4863 
L 1178 4863 
L 1178 0 
L 603 0 
L 603 4863 
z
" id="DejaVuSans-6c" transform="scale(0.015625)"/>
       <path id="DejaVuSans-20" transform="scale(0.015625)"/>
       <path d="M 544 1381 
L 544 3500 
L 1119 3500 
L 1119 1403 
Q 1119 906 1312 657 
Q 1506 409 1894 409 
Q 2359 409 2629 706 
Q 2900 1003 2900 1516 
L 2900 3500 
L 3475 3500 
L 3475 0 
L 2900 0 
L 2900 538 
Q 2691 219 2414 64 
Q 2138 -91 1772 -91 
Q 1169 -91 856 284 
Q 544 659 544 1381 
z
M 1991 3584 
L 1991 3584 
z
" id="DejaVuSans-75" transform="scale(0.015625)"/>
       <path d="M 3328 2828 
Q 3544 3216 3844 3400 
Q 4144 3584 4550 3584 
Q 5097 3584 5394 3201 
Q 5691 2819 5691 2113 
L 5691 0 
L 5113 0 
L 5113 2094 
Q 5113 2597 4934 2840 
Q 4756 3084 4391 3084 
Q 3944 3084 3684 2787 
Q 3425 2491 3425 1978 
L 3425 0 
L 2847 0 
L 2847 2094 
Q 2847 2600 2669 2842 
Q 2491 3084 2119 3084 
Q 1678 3084 1418 2786 
Q 1159 2488 1159 1978 
L 1159 0 
L 581 0 
L 581 3500 
L 1159 3500 
L 1159 2956 
Q 1356 3278 1631 3431 
Q 1906 3584 2284 3584 
Q 2666 3584 2933 3390 
Q 3200 3197 3328 2828 
z
" id="DejaVuSans-6d" transform="scale(0.015625)"/>
       <path d="M 3116 1747 
Q 3116 2381 2855 2742 
Q 2594 3103 2138 3103 
Q 1681 3103 1420 2742 
Q 1159 2381 1159 1747 
Q 1159 1113 1420 752 
Q 1681 391 2138 391 
Q 2594 391 2855 752 
Q 3116 1113 3116 1747 
z
M 1159 2969 
Q 1341 3281 1617 3432 
Q 1894 3584 2278 3584 
Q 2916 3584 3314 3078 
Q 3713 2572 3713 1747 
Q 3713 922 3314 415 
Q 2916 -91 2278 -91 
Q 1894 -91 1617 61 
Q 1341 213 1159 525 
L 1159 0 
L 581 0 
L 581 4863 
L 1159 4863 
L 1159 2969 
z
" id="DejaVuSans-62" transform="scale(0.015625)"/>
       <path d="M 3597 1894 
L 3597 1613 
L 953 1613 
Q 991 1019 1311 708 
Q 1631 397 2203 397 
Q 2534 397 2845 478 
Q 3156 559 3463 722 
L 3463 178 
Q 3153 47 2828 -22 
Q 2503 -91 2169 -91 
Q 1331 -91 842 396 
Q 353 884 353 1716 
Q 353 2575 817 3079 
Q 1281 3584 2069 3584 
Q 2775 3584 3186 3129 
Q 3597 2675 3597 1894 
z
M 3022 2063 
Q 3016 2534 2758 2815 
Q 2500 3097 2075 3097 
Q 1594 3097 1305 2825 
Q 1016 2553 972 2059 
L 3022 2063 
z
" id="DejaVuSans-65" transform="scale(0.015625)"/>
       <path d="M 2375 4863 
L 2375 4384 
L 1825 4384 
Q 1516 4384 1395 4259 
Q 1275 4134 1275 3809 
L 1275 3500 
L 2222 3500 
L 2222 3053 
L 1275 3053 
L 1275 0 
L 697 0 
L 697 3053 
L 147 3053 
L 147 3500 
L 697 3500 
L 697 3744 
Q 697 4328 969 4595 
Q 1241 4863 1831 4863 
L 2375 4863 
z
" id="DejaVuSans-66" transform="scale(0.015625)"/>
      </defs>
      <use xlink:href="#DejaVuSans-54"/>
      <use x="44.083984" xlink:href="#DejaVuSans-6f"/>
      <use x="105.265625" xlink:href="#DejaVuSans-74"/>
      <use x="144.474609" xlink:href="#DejaVuSans-61"/>
      <use x="205.753906" xlink:href="#DejaVuSans-6c"/>
      <use x="233.537109" xlink:href="#DejaVuSans-20"/>
      <use x="265.324219" xlink:href="#DejaVuSans-6e"/>
      <use x="328.703125" xlink:href="#DejaVuSans-75"/>
      <use x="392.082031" xlink:href="#DejaVuSans-6d"/>
      <use x="489.494141" xlink:href="#DejaVuSans-62"/>
      <use x="552.970703" xlink:href="#DejaVuSans-65"/>
      <use x="614.494141" xlink:href="#DejaVuSans-72"/>
      <use x="655.607422" xlink:href="#DejaVuSans-20"/>
      <use x="687.394531" xlink:href="#DejaVuSans-6f"/>
      <use x="748.576172" xlink:href="#DejaVuSans-66"/>
      <use x="783.78125" xlink:href="#DejaVuSans-20"/>
      <use x="815.568359" xlink:href="#DejaVuSans-74"/>
      <use x="854.777344" xlink:href="#DejaVuSans-72"/>
      <use x="895.890625" xlink:href="#DejaVuSans-61"/>
      <use x="957.169922" xlink:href="#DejaVuSans-6e"/>
      <use x="1020.548828" xlink:href="#DejaVuSans-73"/>
      <use x="1072.648438" xlink:href="#DejaVuSans-61"/>
      <use x="1133.927734" xlink:href="#DejaVuSans-63"/>
      <use x="1188.908203" xlink:href="#DejaVuSans-74"/>
      <use x="1228.117188" xlink:href="#DejaVuSans-69"/>
      <use x="1255.900391" xlink:href="#DejaVuSans-6f"/>
      <use x="1317.082031" xlink:href="#DejaVuSans-6e"/>
      <use x="1380.460938" xlink:href="#DejaVuSans-73"/>
     </g>
    </g>
   </g>
   <g id="PolyCollection_1">
    <defs>
     <path d="M 251.922719 -50.112 
L 220.397281 -50.112 
L 214.119952 -52.555636 
L 206.189062 -54.999273 
L 196.521902 -57.442909 
L 185.171695 -59.886545 
L 172.363466 -62.330182 
L 158.513978 -64.773818 
L 144.227695 -67.217455 
L 130.26374 -69.661091 
L 117.47369 -72.104727 
L 106.715985 -74.548364 
L 98.758303 -76.992 
L 94.18306 -79.435636 
L 93.312 -81.879273 
L 96.163211 -84.322909 
L 102.448281 -86.766545 
L 111.609938 -89.210182 
L 122.893187 -91.653818 
L 135.437333 -94.097455 
L 148.373573 -96.541091 
L 160.913417 -98.984727 
L 172.416531 -101.428364 
L 182.431633 -103.872 
L 190.70932 -106.315636 
L 197.190227 -108.759273 
L 201.974726 -111.202909 
L 205.281538 -113.646545 
L 207.402288 -116.090182 
L 208.657794 -118.533818 
L 209.360266 -120.977455 
L 209.784022 -123.421091 
L 210.146008 -125.864727 
L 210.596355 -128.308364 
L 211.21832 -130.752 
L 212.036211 -133.195636 
L 213.0292 -135.639273 
L 214.148443 -138.082909 
L 215.334647 -140.526545 
L 216.533404 -142.970182 
L 217.706139 -145.413818 
L 218.835443 -147.857455 
L 219.92471 -150.301091 
L 220.993012 -152.744727 
L 222.067034 -155.188364 
L 223.172217 -157.632 
L 224.325169 -160.075636 
L 225.528868 -162.519273 
L 226.771325 -164.962909 
L 228.027586 -167.406545 
L 229.264188 -169.850182 
L 230.444829 -172.293818 
L 231.53594 -174.737455 
L 232.511108 -177.181091 
L 233.353717 -179.624727 
L 234.057674 -182.068364 
L 234.626478 -184.512 
L 235.071146 -186.955636 
L 235.407614 -189.399273 
L 235.654133 -191.842909 
L 235.829081 -194.286545 
L 235.949366 -196.730182 
L 236.029478 -199.173818 
L 236.081109 -201.617455 
L 236.113175 -204.061091 
L 236.132099 -206.504727 
L 236.142201 -208.948364 
L 236.146082 -211.392 
L 236.144938 -213.835636 
L 236.138771 -216.279273 
L 236.126497 -218.722909 
L 236.105974 -221.166545 
L 236.073992 -223.610182 
L 236.02629 -226.053818 
L 235.95767 -228.497455 
L 235.862277 -230.941091 
L 235.734111 -233.384727 
L 235.567788 -235.828364 
L 235.35953 -238.272 
L 235.10829 -240.715636 
L 234.816835 -243.159273 
L 234.492579 -245.602909 
L 234.147929 -248.046545 
L 233.799937 -250.490182 
L 233.469171 -252.933818 
L 233.177841 -255.377455 
L 232.947392 -257.821091 
L 232.795916 -260.264727 
L 232.735808 -262.708364 
L 232.772093 -265.152 
L 232.901729 -267.595636 
L 233.114034 -270.039273 
L 233.392134 -272.482909 
L 233.715178 -274.926545 
L 234.060907 -277.370182 
L 234.408144 -279.813818 
L 234.738826 -282.257455 
L 235.039329 -284.701091 
L 235.301003 -287.144727 
L 235.51999 -289.588364 
L 235.696484 -292.032 
L 236.623516 -292.032 
L 236.623516 -292.032 
L 236.80001 -289.588364 
L 237.018997 -287.144727 
L 237.280671 -284.701091 
L 237.581174 -282.257455 
L 237.911856 -279.813818 
L 238.259093 -277.370182 
L 238.604822 -274.926545 
L 238.927866 -272.482909 
L 239.205966 -270.039273 
L 239.418271 -267.595636 
L 239.547907 -265.152 
L 239.584192 -262.708364 
L 239.524084 -260.264727 
L 239.372608 -257.821091 
L 239.142159 -255.377455 
L 238.850829 -252.933818 
L 238.520063 -250.490182 
L 238.172071 -248.046545 
L 237.827421 -245.602909 
L 237.503165 -243.159273 
L 237.21171 -240.715636 
L 236.96047 -238.272 
L 236.752212 -235.828364 
L 236.585889 -233.384727 
L 236.457723 -230.941091 
L 236.36233 -228.497455 
L 236.29371 -226.053818 
L 236.246008 -223.610182 
L 236.214026 -221.166545 
L 236.193503 -218.722909 
L 236.181229 -216.279273 
L 236.175062 -213.835636 
L 236.173918 -211.392 
L 236.177799 -208.948364 
L 236.187901 -206.504727 
L 236.206825 -204.061091 
L 236.238891 -201.617455 
L 236.290522 -199.173818 
L 236.370634 -196.730182 
L 236.490919 -194.286545 
L 236.665867 -191.842909 
L 236.912386 -189.399273 
L 237.248854 -186.955636 
L 237.693522 -184.512 
L 238.262326 -182.068364 
L 238.966283 -179.624727 
L 239.808892 -177.181091 
L 240.78406 -174.737455 
L 241.875171 -172.293818 
L 243.055812 -169.850182 
L 244.292414 -167.406545 
L 245.548675 -164.962909 
L 246.791132 -162.519273 
L 247.994831 -160.075636 
L 249.147783 -157.632 
L 250.252966 -155.188364 
L 251.326988 -152.744727 
L 252.39529 -150.301091 
L 253.484557 -147.857455 
L 254.613861 -145.413818 
L 255.786596 -142.970182 
L 256.985353 -140.526545 
L 258.171557 -138.082909 
L 259.2908 -135.639273 
L 260.283789 -133.195636 
L 261.10168 -130.752 
L 261.723645 -128.308364 
L 262.173992 -125.864727 
L 262.535978 -123.421091 
L 262.959734 -120.977455 
L 263.662206 -118.533818 
L 264.917712 -116.090182 
L 267.038462 -113.646545 
L 270.345274 -111.202909 
L 275.129773 -108.759273 
L 281.61068 -106.315636 
L 289.888367 -103.872 
L 299.903469 -101.428364 
L 311.406583 -98.984727 
L 323.946427 -96.541091 
L 336.882667 -94.097455 
L 349.426813 -91.653818 
L 360.710062 -89.210182 
L 369.871719 -86.766545 
L 376.156789 -84.322909 
L 379.008 -81.879273 
L 378.13694 -79.435636 
L 373.561697 -76.992 
L 365.604015 -74.548364 
L 354.84631 -72.104727 
L 342.05626 -69.661091 
L 328.092305 -67.217455 
L 313.806022 -64.773818 
L 299.956534 -62.330182 
L 287.148305 -59.886545 
L 275.798098 -57.442909 
L 266.130938 -54.999273 
L 258.200048 -52.555636 
L 251.922719 -50.112 
z
" id="m663a143c06" style="stroke:#4c4c4c;stroke-width:1.5;"/>
    </defs>
    <g clip-path="url(#pd0360a0924)">
     <use style="fill:#5875a4;stroke:#4c4c4c;stroke-width:1.5;" x="0" xlink:href="#m663a143c06" y="345.6"/>
    </g>
   </g>
   <g id="line2d_5">
    <path clip-path="url(#pd0360a0924)" d="M 236.16 266.468358 
L 236.16 246.037168 
" style="fill:none;stroke:#4c4c4c;stroke-linecap:round;stroke-width:1.5;"/>
   </g>
   <g id="line2d_6">
    <path clip-path="url(#pd0360a0924)" d="M 236.16 266.362825 
L 236.16 256.696002 
" style="fill:none;stroke:#4c4c4c;stroke-linecap:round;stroke-width:4.5;"/>
   </g>
   <g id="patch_3">
    <path d="M 57.6 307.584 
L 57.6 41.472 
" style="fill:none;stroke:#ffffff;stroke-linecap:square;stroke-linejoin:miter;stroke-width:1.25;"/>
   </g>
   <g id="patch_4">
    <path d="M 414.72 307.584 
L 414.72 41.472 
" style="fill:none;stroke:#ffffff;stroke-linecap:square;stroke-linejoin:miter;stroke-width:1.25;"/>
   </g>
   <g id="patch_5">
    <path d="M 57.6 307.584 
L 414.72 307.584 
" style="fill:none;stroke:#ffffff;stroke-linecap:square;stroke-linejoin:miter;stroke-width:1.25;"/>
   </g>
   <g id="patch_6">
    <path d="M 57.6 41.472 
L 414.72 41.472 
" style="fill:none;stroke:#ffffff;stroke-linecap:square;stroke-linejoin:miter;stroke-width:1.25;"/>
   </g>
   <g id="PathCollection_1">
    <defs>
     <path d="M 0 1.5 
C 0.397805 1.5 0.77937 1.341951 1.06066 1.06066 
C 1.341951 0.77937 1.5 0.397805 1.5 0 
C 1.5 -0.397805 1.341951 -0.77937 1.06066 -1.06066 
C 0.77937 -1.341951 0.397805 -1.5 0 -1.5 
C -0.397805 -1.5 -0.77937 -1.341951 -1.06066 -1.06066 
C -1.341951 -0.77937 -1.5 -0.397805 -1.5 0 
C -1.5 0.397805 -1.341951 0.77937 -1.06066 1.06066 
C -0.77937 1.341951 -0.397805 1.5 0 1.5 
z
" id="me84b3a0801" style="stroke:#4c4c4c;"/>
    </defs>
    <g clip-path="url(#pd0360a0924)">
     <use style="fill:#ffffff;stroke:#4c4c4c;" x="236.16" xlink:href="#me84b3a0801" y="265.328602"/>
    </g>
   </g>
   <g id="text_8">
    <!-- 01-june2014.csv - Total number of transactions per shipping locality -->
    <g style="fill:#262626;" transform="translate(31.583438 35.472)scale(0.12 -0.12)">
     <defs>
      <path d="M 794 531 
L 1825 531 
L 1825 4091 
L 703 3866 
L 703 4441 
L 1819 4666 
L 2450 4666 
L 2450 531 
L 3481 531 
L 3481 0 
L 794 0 
L 794 531 
z
" id="DejaVuSans-31" transform="scale(0.015625)"/>
      <path d="M 313 2009 
L 1997 2009 
L 1997 1497 
L 313 1497 
L 313 2009 
z
" id="DejaVuSans-2d" transform="scale(0.015625)"/>
      <path d="M 603 3500 
L 1178 3500 
L 1178 -63 
Q 1178 -731 923 -1031 
Q 669 -1331 103 -1331 
L -116 -1331 
L -116 -844 
L 38 -844 
Q 366 -844 484 -692 
Q 603 -541 603 -63 
L 603 3500 
z
M 603 4863 
L 1178 4863 
L 1178 4134 
L 603 4134 
L 603 4863 
z
" id="DejaVuSans-6a" transform="scale(0.015625)"/>
      <path d="M 684 794 
L 1344 794 
L 1344 0 
L 684 0 
L 684 794 
z
" id="DejaVuSans-2e" transform="scale(0.015625)"/>
      <path d="M 191 3500 
L 800 3500 
L 1894 563 
L 2988 3500 
L 3597 3500 
L 2284 0 
L 1503 0 
L 191 3500 
z
" id="DejaVuSans-76" transform="scale(0.015625)"/>
      <path d="M 1159 525 
L 1159 -1331 
L 581 -1331 
L 581 3500 
L 1159 3500 
L 1159 2969 
Q 1341 3281 1617 3432 
Q 1894 3584 2278 3584 
Q 2916 3584 3314 3078 
Q 3713 2572 3713 1747 
Q 3713 922 3314 415 
Q 2916 -91 2278 -91 
Q 1894 -91 1617 61 
Q 1341 213 1159 525 
z
M 3116 1747 
Q 3116 2381 2855 2742 
Q 2594 3103 2138 3103 
Q 1681 3103 1420 2742 
Q 1159 2381 1159 1747 
Q 1159 1113 1420 752 
Q 1681 391 2138 391 
Q 2594 391 2855 752 
Q 3116 1113 3116 1747 
z
" id="DejaVuSans-70" transform="scale(0.015625)"/>
      <path d="M 3513 2113 
L 3513 0 
L 2938 0 
L 2938 2094 
Q 2938 2591 2744 2837 
Q 2550 3084 2163 3084 
Q 1697 3084 1428 2787 
Q 1159 2491 1159 1978 
L 1159 0 
L 581 0 
L 581 4863 
L 1159 4863 
L 1159 2956 
Q 1366 3272 1645 3428 
Q 1925 3584 2291 3584 
Q 2894 3584 3203 3211 
Q 3513 2838 3513 2113 
z
" id="DejaVuSans-68" transform="scale(0.015625)"/>
      <path d="M 2906 1791 
Q 2906 2416 2648 2759 
Q 2391 3103 1925 3103 
Q 1463 3103 1205 2759 
Q 947 2416 947 1791 
Q 947 1169 1205 825 
Q 1463 481 1925 481 
Q 2391 481 2648 825 
Q 2906 1169 2906 1791 
z
M 3481 434 
Q 3481 -459 3084 -895 
Q 2688 -1331 1869 -1331 
Q 1566 -1331 1297 -1286 
Q 1028 -1241 775 -1147 
L 775 -588 
Q 1028 -725 1275 -790 
Q 1522 -856 1778 -856 
Q 2344 -856 2625 -561 
Q 2906 -266 2906 331 
L 2906 616 
Q 2728 306 2450 153 
Q 2172 0 1784 0 
Q 1141 0 747 490 
Q 353 981 353 1791 
Q 353 2603 747 3093 
Q 1141 3584 1784 3584 
Q 2172 3584 2450 3431 
Q 2728 3278 2906 2969 
L 2906 3500 
L 3481 3500 
L 3481 434 
z
" id="DejaVuSans-67" transform="scale(0.015625)"/>
      <path d="M 2059 -325 
Q 1816 -950 1584 -1140 
Q 1353 -1331 966 -1331 
L 506 -1331 
L 506 -850 
L 844 -850 
Q 1081 -850 1212 -737 
Q 1344 -625 1503 -206 
L 1606 56 
L 191 3500 
L 800 3500 
L 1894 763 
L 2988 3500 
L 3597 3500 
L 2059 -325 
z
" id="DejaVuSans-79" transform="scale(0.015625)"/>
     </defs>
     <use xlink:href="#DejaVuSans-30"/>
     <use x="63.623047" xlink:href="#DejaVuSans-31"/>
     <use x="127.246094" xlink:href="#DejaVuSans-2d"/>
     <use x="163.330078" xlink:href="#DejaVuSans-6a"/>
     <use x="191.113281" xlink:href="#DejaVuSans-75"/>
     <use x="254.492188" xlink:href="#DejaVuSans-6e"/>
     <use x="317.871094" xlink:href="#DejaVuSans-65"/>
     <use x="379.394531" xlink:href="#DejaVuSans-32"/>
     <use x="443.017578" xlink:href="#DejaVuSans-30"/>
     <use x="506.640625" xlink:href="#DejaVuSans-31"/>
     <use x="570.263672" xlink:href="#DejaVuSans-34"/>
     <use x="633.886719" xlink:href="#DejaVuSans-2e"/>
     <use x="665.673828" xlink:href="#DejaVuSans-63"/>
     <use x="720.654297" xlink:href="#DejaVuSans-73"/>
     <use x="772.753906" xlink:href="#DejaVuSans-76"/>
     <use x="831.933594" xlink:href="#DejaVuSans-20"/>
     <use x="863.720703" xlink:href="#DejaVuSans-2d"/>
     <use x="899.804688" xlink:href="#DejaVuSans-20"/>
     <use x="931.591797" xlink:href="#DejaVuSans-54"/>
     <use x="975.675781" xlink:href="#DejaVuSans-6f"/>
     <use x="1036.857422" xlink:href="#DejaVuSans-74"/>
     <use x="1076.066406" xlink:href="#DejaVuSans-61"/>
     <use x="1137.345703" xlink:href="#DejaVuSans-6c"/>
     <use x="1165.128906" xlink:href="#DejaVuSans-20"/>
     <use x="1196.916016" xlink:href="#DejaVuSans-6e"/>
     <use x="1260.294922" xlink:href="#DejaVuSans-75"/>
     <use x="1323.673828" xlink:href="#DejaVuSans-6d"/>
     <use x="1421.085938" xlink:href="#DejaVuSans-62"/>
     <use x="1484.5625" xlink:href="#DejaVuSans-65"/>
     <use x="1546.085938" xlink:href="#DejaVuSans-72"/>
     <use x="1587.199219" xlink:href="#DejaVuSans-20"/>
     <use x="1618.986328" xlink:href="#DejaVuSans-6f"/>
     <use x="1680.167969" xlink:href="#DejaVuSans-66"/>
     <use x="1715.373047" xlink:href="#DejaVuSans-20"/>
     <use x="1747.160156" xlink:href="#DejaVuSans-74"/>
     <use x="1786.369141" xlink:href="#DejaVuSans-72"/>
     <use x="1827.482422" xlink:href="#DejaVuSans-61"/>
     <use x="1888.761719" xlink:href="#DejaVuSans-6e"/>
     <use x="1952.140625" xlink:href="#DejaVuSans-73"/>
     <use x="2004.240234" xlink:href="#DejaVuSans-61"/>
     <use x="2065.519531" xlink:href="#DejaVuSans-63"/>
     <use x="2120.5" xlink:href="#DejaVuSans-74"/>
     <use x="2159.708984" xlink:href="#DejaVuSans-69"/>
     <use x="2187.492188" xlink:href="#DejaVuSans-6f"/>
     <use x="2248.673828" xlink:href="#DejaVuSans-6e"/>
     <use x="2312.052734" xlink:href="#DejaVuSans-73"/>
     <use x="2364.152344" xlink:href="#DejaVuSans-20"/>
     <use x="2395.939453" xlink:href="#DejaVuSans-70"/>
     <use x="2459.416016" xlink:href="#DejaVuSans-65"/>
     <use x="2520.939453" xlink:href="#DejaVuSans-72"/>
     <use x="2562.052734" xlink:href="#DejaVuSans-20"/>
     <use x="2593.839844" xlink:href="#DejaVuSans-73"/>
     <use x="2645.939453" xlink:href="#DejaVuSans-68"/>
     <use x="2709.318359" xlink:href="#DejaVuSans-69"/>
     <use x="2737.101562" xlink:href="#DejaVuSans-70"/>
     <use x="2800.578125" xlink:href="#DejaVuSans-70"/>
     <use x="2864.054688" xlink:href="#DejaVuSans-69"/>
     <use x="2891.837891" xlink:href="#DejaVuSans-6e"/>
     <use x="2955.216797" xlink:href="#DejaVuSans-67"/>
     <use x="3018.693359" xlink:href="#DejaVuSans-20"/>
     <use x="3050.480469" xlink:href="#DejaVuSans-6c"/>
     <use x="3078.263672" xlink:href="#DejaVuSans-6f"/>
     <use x="3139.445312" xlink:href="#DejaVuSans-63"/>
     <use x="3194.425781" xlink:href="#DejaVuSans-61"/>
     <use x="3255.705078" xlink:href="#DejaVuSans-6c"/>
     <use x="3283.488281" xlink:href="#DejaVuSans-69"/>
     <use x="3311.271484" xlink:href="#DejaVuSans-74"/>
     <use x="3350.480469" xlink:href="#DejaVuSans-79"/>
    </g>
   </g>
  </g>
 </g>
 <defs>
  <clipPath id="pd0360a0924">
   <rect height="266.112" width="357.12" x="57.6" y="41.472"/>
  </clipPath>
 </defs>
</svg>
