<?xml version="1.0" encoding="utf-8" standalone="no"?>
<!DOCTYPE svg PUBLIC "-//W3C//DTD SVG 1.1//EN"
  "http://www.w3.org/Graphics/SVG/1.1/DTD/svg11.dtd">
<svg height="345.6pt" version="1.1" viewBox="0 0 822.24 345.6" width="822.24pt" xmlns="http://www.w3.org/2000/svg" xmlns:xlink="http://www.w3.org/1999/xlink">
 <metadata>
  <rdf:RDF xmlns:cc="http://creativecommons.org/ns#" xmlns:dc="http://purl.org/dc/elements/1.1/" xmlns:rdf="http://www.w3.org/1999/02/22-rdf-syntax-ns#">
   <cc:Work>
    <dc:type rdf:resource="http://purl.org/dc/dcmitype/StillImage"/>
    <dc:date>2021-07-11T13:34:59.621120</dc:date>
    <dc:format>image/svg+xml</dc:format>
    <dc:creator>
     <cc:Agent>
      <dc:title>Matplotlib v3.4.2, https://matplotlib.org/</dc:title>
     </cc:Agent>
    </dc:creator>
   </cc:Work>
  </rdf:RDF>
 </metadata>
 <defs>
  <style type="text/css">*{stroke-linecap:butt;stroke-linejoin:round;}</style>
 </defs>
 <g id="figure_1">
  <g id="patch_1">
   <path d="M 0 345.6 
L 822.24 345.6 
L 822.24 0 
L 0 0 
z
" style="fill:#ffffff;"/>
  </g>
  <g id="axes_1">
   <g id="patch_2">
    <path d="M 102.78 307.584 
L 740.016 307.584 
L 740.016 41.472 
L 102.78 41.472 
z
" style="fill:#eaeaf2;"/>
   </g>
   <g id="matplotlib.axis_1">
    <g id="xtick_1">
     <g id="text_1">
      <!-- transactions -->
      <g style="fill:#262626;" transform="translate(387.464719 325.442281)scale(0.11 -0.11)">
       <defs>
        <path d="M 1172 4494 
L 1172 3500 
L 2356 3500 
L 2356 3053 
L 1172 3053 
L 1172 1153 
Q 1172 725 1289 603 
Q 1406 481 1766 481 
L 2356 481 
L 2356 0 
L 1766 0 
Q 1100 0 847 248 
Q 594 497 594 1153 
L 594 3053 
L 172 3053 
L 172 3500 
L 594 3500 
L 594 4494 
L 1172 4494 
z
" id="DejaVuSans-74" transform="scale(0.015625)"/>
        <path d="M 2631 2963 
Q 2534 3019 2420 3045 
Q 2306 3072 2169 3072 
Q 1681 3072 1420 2755 
Q 1159 2438 1159 1844 
L 1159 0 
L 581 0 
L 581 3500 
L 1159 3500 
L 1159 2956 
Q 1341 3275 1631 3429 
Q 1922 3584 2338 3584 
Q 2397 3584 2469 3576 
Q 2541 3569 2628 3553 
L 2631 2963 
z
" id="DejaVuSans-72" transform="scale(0.015625)"/>
        <path d="M 2194 1759 
Q 1497 1759 1228 1600 
Q 959 1441 959 1056 
Q 959 750 1161 570 
Q 1363 391 1709 391 
Q 2188 391 2477 730 
Q 2766 1069 2766 1631 
L 2766 1759 
L 2194 1759 
z
M 3341 1997 
L 3341 0 
L 2766 0 
L 2766 531 
Q 2569 213 2275 61 
Q 1981 -91 1556 -91 
Q 1019 -91 701 211 
Q 384 513 384 1019 
Q 384 1609 779 1909 
Q 1175 2209 1959 2209 
L 2766 2209 
L 2766 2266 
Q 2766 2663 2505 2880 
Q 2244 3097 1772 3097 
Q 1472 3097 1187 3025 
Q 903 2953 641 2809 
L 641 3341 
Q 956 3463 1253 3523 
Q 1550 3584 1831 3584 
Q 2591 3584 2966 3190 
Q 3341 2797 3341 1997 
z
" id="DejaVuSans-61" transform="scale(0.015625)"/>
        <path d="M 3513 2113 
L 3513 0 
L 2938 0 
L 2938 2094 
Q 2938 2591 2744 2837 
Q 2550 3084 2163 3084 
Q 1697 3084 1428 2787 
Q 1159 2491 1159 1978 
L 1159 0 
L 581 0 
L 581 3500 
L 1159 3500 
L 1159 2956 
Q 1366 3272 1645 3428 
Q 1925 3584 2291 3584 
Q 2894 3584 3203 3211 
Q 3513 2838 3513 2113 
z
" id="DejaVuSans-6e" transform="scale(0.015625)"/>
        <path d="M 2834 3397 
L 2834 2853 
Q 2591 2978 2328 3040 
Q 2066 3103 1784 3103 
Q 1356 3103 1142 2972 
Q 928 2841 928 2578 
Q 928 2378 1081 2264 
Q 1234 2150 1697 2047 
L 1894 2003 
Q 2506 1872 2764 1633 
Q 3022 1394 3022 966 
Q 3022 478 2636 193 
Q 2250 -91 1575 -91 
Q 1294 -91 989 -36 
Q 684 19 347 128 
L 347 722 
Q 666 556 975 473 
Q 1284 391 1588 391 
Q 1994 391 2212 530 
Q 2431 669 2431 922 
Q 2431 1156 2273 1281 
Q 2116 1406 1581 1522 
L 1381 1569 
Q 847 1681 609 1914 
Q 372 2147 372 2553 
Q 372 3047 722 3315 
Q 1072 3584 1716 3584 
Q 2034 3584 2315 3537 
Q 2597 3491 2834 3397 
z
" id="DejaVuSans-73" transform="scale(0.015625)"/>
        <path d="M 3122 3366 
L 3122 2828 
Q 2878 2963 2633 3030 
Q 2388 3097 2138 3097 
Q 1578 3097 1268 2742 
Q 959 2388 959 1747 
Q 959 1106 1268 751 
Q 1578 397 2138 397 
Q 2388 397 2633 464 
Q 2878 531 3122 666 
L 3122 134 
Q 2881 22 2623 -34 
Q 2366 -91 2075 -91 
Q 1284 -91 818 406 
Q 353 903 353 1747 
Q 353 2603 823 3093 
Q 1294 3584 2113 3584 
Q 2378 3584 2631 3529 
Q 2884 3475 3122 3366 
z
" id="DejaVuSans-63" transform="scale(0.015625)"/>
        <path d="M 603 3500 
L 1178 3500 
L 1178 0 
L 603 0 
L 603 3500 
z
M 603 4863 
L 1178 4863 
L 1178 4134 
L 603 4134 
L 603 4863 
z
" id="DejaVuSans-69" transform="scale(0.015625)"/>
        <path d="M 1959 3097 
Q 1497 3097 1228 2736 
Q 959 2375 959 1747 
Q 959 1119 1226 758 
Q 1494 397 1959 397 
Q 2419 397 2687 759 
Q 2956 1122 2956 1747 
Q 2956 2369 2687 2733 
Q 2419 3097 1959 3097 
z
M 1959 3584 
Q 2709 3584 3137 3096 
Q 3566 2609 3566 1747 
Q 3566 888 3137 398 
Q 2709 -91 1959 -91 
Q 1206 -91 779 398 
Q 353 888 353 1747 
Q 353 2609 779 3096 
Q 1206 3584 1959 3584 
z
" id="DejaVuSans-6f" transform="scale(0.015625)"/>
       </defs>
       <use xlink:href="#DejaVuSans-74"/>
       <use x="39.208984" xlink:href="#DejaVuSans-72"/>
       <use x="80.322266" xlink:href="#DejaVuSans-61"/>
       <use x="141.601562" xlink:href="#DejaVuSans-6e"/>
       <use x="204.980469" xlink:href="#DejaVuSans-73"/>
       <use x="257.080078" xlink:href="#DejaVuSans-61"/>
       <use x="318.359375" xlink:href="#DejaVuSans-63"/>
       <use x="373.339844" xlink:href="#DejaVuSans-74"/>
       <use x="412.548828" xlink:href="#DejaVuSans-69"/>
       <use x="440.332031" xlink:href="#DejaVuSans-6f"/>
       <use x="501.513672" xlink:href="#DejaVuSans-6e"/>
       <use x="564.892578" xlink:href="#DejaVuSans-73"/>
      </g>
     </g>
    </g>
    <g id="text_2">
     <!-- x -->
     <g style="fill:#262626;" transform="translate(417.84675 340.848062)scale(0.12 -0.12)">
      <defs>
       <path d="M 3513 3500 
L 2247 1797 
L 3578 0 
L 2900 0 
L 1881 1375 
L 863 0 
L 184 0 
L 1544 1831 
L 300 3500 
L 978 3500 
L 1906 2253 
L 2834 3500 
L 3513 3500 
z
" id="DejaVuSans-78" transform="scale(0.015625)"/>
      </defs>
      <use xlink:href="#DejaVuSans-78"/>
     </g>
    </g>
   </g>
   <g id="matplotlib.axis_2">
    <g id="ytick_1">
     <g id="line2d_1">
      <path clip-path="url(#p1cee26c367)" d="M 102.78 300.895594 
L 740.016 300.895594 
" style="fill:none;stroke:#ffffff;stroke-linecap:round;"/>
     </g>
     <g id="text_3">
      <!-- −10000 -->
      <g style="fill:#262626;" transform="translate(49.068594 305.074735)scale(0.11 -0.11)">
       <defs>
        <path d="M 678 2272 
L 4684 2272 
L 4684 1741 
L 678 1741 
L 678 2272 
z
" id="DejaVuSans-2212" transform="scale(0.015625)"/>
        <path d="M 794 531 
L 1825 531 
L 1825 4091 
L 703 3866 
L 703 4441 
L 1819 4666 
L 2450 4666 
L 2450 531 
L 3481 531 
L 3481 0 
L 794 0 
L 794 531 
z
" id="DejaVuSans-31" transform="scale(0.015625)"/>
        <path d="M 2034 4250 
Q 1547 4250 1301 3770 
Q 1056 3291 1056 2328 
Q 1056 1369 1301 889 
Q 1547 409 2034 409 
Q 2525 409 2770 889 
Q 3016 1369 3016 2328 
Q 3016 3291 2770 3770 
Q 2525 4250 2034 4250 
z
M 2034 4750 
Q 2819 4750 3233 4129 
Q 3647 3509 3647 2328 
Q 3647 1150 3233 529 
Q 2819 -91 2034 -91 
Q 1250 -91 836 529 
Q 422 1150 422 2328 
Q 422 3509 836 4129 
Q 1250 4750 2034 4750 
z
" id="DejaVuSans-30" transform="scale(0.015625)"/>
       </defs>
       <use xlink:href="#DejaVuSans-2212"/>
       <use x="83.789062" xlink:href="#DejaVuSans-31"/>
       <use x="147.412109" xlink:href="#DejaVuSans-30"/>
       <use x="211.035156" xlink:href="#DejaVuSans-30"/>
       <use x="274.658203" xlink:href="#DejaVuSans-30"/>
       <use x="338.28125" xlink:href="#DejaVuSans-30"/>
      </g>
     </g>
    </g>
    <g id="ytick_2">
     <g id="line2d_2">
      <path clip-path="url(#p1cee26c367)" d="M 102.78 269.897693 
L 740.016 269.897693 
" style="fill:none;stroke:#ffffff;stroke-linecap:round;"/>
     </g>
     <g id="text_4">
      <!-- 0 -->
      <g style="fill:#262626;" transform="translate(86.28125 274.076833)scale(0.11 -0.11)">
       <use xlink:href="#DejaVuSans-30"/>
      </g>
     </g>
    </g>
    <g id="ytick_3">
     <g id="line2d_3">
      <path clip-path="url(#p1cee26c367)" d="M 102.78 238.899792 
L 740.016 238.899792 
" style="fill:none;stroke:#ffffff;stroke-linecap:round;"/>
     </g>
     <g id="text_5">
      <!-- 10000 -->
      <g style="fill:#262626;" transform="translate(58.28625 243.078932)scale(0.11 -0.11)">
       <use xlink:href="#DejaVuSans-31"/>
       <use x="63.623047" xlink:href="#DejaVuSans-30"/>
       <use x="127.246094" xlink:href="#DejaVuSans-30"/>
       <use x="190.869141" xlink:href="#DejaVuSans-30"/>
       <use x="254.492188" xlink:href="#DejaVuSans-30"/>
      </g>
     </g>
    </g>
    <g id="ytick_4">
     <g id="line2d_4">
      <path clip-path="url(#p1cee26c367)" d="M 102.78 207.90189 
L 740.016 207.90189 
" style="fill:none;stroke:#ffffff;stroke-linecap:round;"/>
     </g>
     <g id="text_6">
      <!-- 20000 -->
      <g style="fill:#262626;" transform="translate(58.28625 212.081031)scale(0.11 -0.11)">
       <defs>
        <path d="M 1228 531 
L 3431 531 
L 3431 0 
L 469 0 
L 469 531 
Q 828 903 1448 1529 
Q 2069 2156 2228 2338 
Q 2531 2678 2651 2914 
Q 2772 3150 2772 3378 
Q 2772 3750 2511 3984 
Q 2250 4219 1831 4219 
Q 1534 4219 1204 4116 
Q 875 4013 500 3803 
L 500 4441 
Q 881 4594 1212 4672 
Q 1544 4750 1819 4750 
Q 2544 4750 2975 4387 
Q 3406 4025 3406 3419 
Q 3406 3131 3298 2873 
Q 3191 2616 2906 2266 
Q 2828 2175 2409 1742 
Q 1991 1309 1228 531 
z
" id="DejaVuSans-32" transform="scale(0.015625)"/>
       </defs>
       <use xlink:href="#DejaVuSans-32"/>
       <use x="63.623047" xlink:href="#DejaVuSans-30"/>
       <use x="127.246094" xlink:href="#DejaVuSans-30"/>
       <use x="190.869141" xlink:href="#DejaVuSans-30"/>
       <use x="254.492188" xlink:href="#DejaVuSans-30"/>
      </g>
     </g>
    </g>
    <g id="ytick_5">
     <g id="line2d_5">
      <path clip-path="url(#p1cee26c367)" d="M 102.78 176.903989 
L 740.016 176.903989 
" style="fill:none;stroke:#ffffff;stroke-linecap:round;"/>
     </g>
     <g id="text_7">
      <!-- 30000 -->
      <g style="fill:#262626;" transform="translate(58.28625 181.08313)scale(0.11 -0.11)">
       <defs>
        <path d="M 2597 2516 
Q 3050 2419 3304 2112 
Q 3559 1806 3559 1356 
Q 3559 666 3084 287 
Q 2609 -91 1734 -91 
Q 1441 -91 1130 -33 
Q 819 25 488 141 
L 488 750 
Q 750 597 1062 519 
Q 1375 441 1716 441 
Q 2309 441 2620 675 
Q 2931 909 2931 1356 
Q 2931 1769 2642 2001 
Q 2353 2234 1838 2234 
L 1294 2234 
L 1294 2753 
L 1863 2753 
Q 2328 2753 2575 2939 
Q 2822 3125 2822 3475 
Q 2822 3834 2567 4026 
Q 2313 4219 1838 4219 
Q 1578 4219 1281 4162 
Q 984 4106 628 3988 
L 628 4550 
Q 988 4650 1302 4700 
Q 1616 4750 1894 4750 
Q 2613 4750 3031 4423 
Q 3450 4097 3450 3541 
Q 3450 3153 3228 2886 
Q 3006 2619 2597 2516 
z
" id="DejaVuSans-33" transform="scale(0.015625)"/>
       </defs>
       <use xlink:href="#DejaVuSans-33"/>
       <use x="63.623047" xlink:href="#DejaVuSans-30"/>
       <use x="127.246094" xlink:href="#DejaVuSans-30"/>
       <use x="190.869141" xlink:href="#DejaVuSans-30"/>
       <use x="254.492188" xlink:href="#DejaVuSans-30"/>
      </g>
     </g>
    </g>
    <g id="ytick_6">
     <g id="line2d_6">
      <path clip-path="url(#p1cee26c367)" d="M 102.78 145.906088 
L 740.016 145.906088 
" style="fill:none;stroke:#ffffff;stroke-linecap:round;"/>
     </g>
     <g id="text_8">
      <!-- 40000 -->
      <g style="fill:#262626;" transform="translate(58.28625 150.085229)scale(0.11 -0.11)">
       <defs>
        <path d="M 2419 4116 
L 825 1625 
L 2419 1625 
L 2419 4116 
z
M 2253 4666 
L 3047 4666 
L 3047 1625 
L 3713 1625 
L 3713 1100 
L 3047 1100 
L 3047 0 
L 2419 0 
L 2419 1100 
L 313 1100 
L 313 1709 
L 2253 4666 
z
" id="DejaVuSans-34" transform="scale(0.015625)"/>
       </defs>
       <use xlink:href="#DejaVuSans-34"/>
       <use x="63.623047" xlink:href="#DejaVuSans-30"/>
       <use x="127.246094" xlink:href="#DejaVuSans-30"/>
       <use x="190.869141" xlink:href="#DejaVuSans-30"/>
       <use x="254.492188" xlink:href="#DejaVuSans-30"/>
      </g>
     </g>
    </g>
    <g id="ytick_7">
     <g id="line2d_7">
      <path clip-path="url(#p1cee26c367)" d="M 102.78 114.908187 
L 740.016 114.908187 
" style="fill:none;stroke:#ffffff;stroke-linecap:round;"/>
     </g>
     <g id="text_9">
      <!-- 50000 -->
      <g style="fill:#262626;" transform="translate(58.28625 119.087327)scale(0.11 -0.11)">
       <defs>
        <path d="M 691 4666 
L 3169 4666 
L 3169 4134 
L 1269 4134 
L 1269 2991 
Q 1406 3038 1543 3061 
Q 1681 3084 1819 3084 
Q 2600 3084 3056 2656 
Q 3513 2228 3513 1497 
Q 3513 744 3044 326 
Q 2575 -91 1722 -91 
Q 1428 -91 1123 -41 
Q 819 9 494 109 
L 494 744 
Q 775 591 1075 516 
Q 1375 441 1709 441 
Q 2250 441 2565 725 
Q 2881 1009 2881 1497 
Q 2881 1984 2565 2268 
Q 2250 2553 1709 2553 
Q 1456 2553 1204 2497 
Q 953 2441 691 2322 
L 691 4666 
z
" id="DejaVuSans-35" transform="scale(0.015625)"/>
       </defs>
       <use xlink:href="#DejaVuSans-35"/>
       <use x="63.623047" xlink:href="#DejaVuSans-30"/>
       <use x="127.246094" xlink:href="#DejaVuSans-30"/>
       <use x="190.869141" xlink:href="#DejaVuSans-30"/>
       <use x="254.492188" xlink:href="#DejaVuSans-30"/>
      </g>
     </g>
    </g>
    <g id="ytick_8">
     <g id="line2d_8">
      <path clip-path="url(#p1cee26c367)" d="M 102.78 83.910286 
L 740.016 83.910286 
" style="fill:none;stroke:#ffffff;stroke-linecap:round;"/>
     </g>
     <g id="text_10">
      <!-- 60000 -->
      <g style="fill:#262626;" transform="translate(58.28625 88.089426)scale(0.11 -0.11)">
       <defs>
        <path d="M 2113 2584 
Q 1688 2584 1439 2293 
Q 1191 2003 1191 1497 
Q 1191 994 1439 701 
Q 1688 409 2113 409 
Q 2538 409 2786 701 
Q 3034 994 3034 1497 
Q 3034 2003 2786 2293 
Q 2538 2584 2113 2584 
z
M 3366 4563 
L 3366 3988 
Q 3128 4100 2886 4159 
Q 2644 4219 2406 4219 
Q 1781 4219 1451 3797 
Q 1122 3375 1075 2522 
Q 1259 2794 1537 2939 
Q 1816 3084 2150 3084 
Q 2853 3084 3261 2657 
Q 3669 2231 3669 1497 
Q 3669 778 3244 343 
Q 2819 -91 2113 -91 
Q 1303 -91 875 529 
Q 447 1150 447 2328 
Q 447 3434 972 4092 
Q 1497 4750 2381 4750 
Q 2619 4750 2861 4703 
Q 3103 4656 3366 4563 
z
" id="DejaVuSans-36" transform="scale(0.015625)"/>
       </defs>
       <use xlink:href="#DejaVuSans-36"/>
       <use x="63.623047" xlink:href="#DejaVuSans-30"/>
       <use x="127.246094" xlink:href="#DejaVuSans-30"/>
       <use x="190.869141" xlink:href="#DejaVuSans-30"/>
       <use x="254.492188" xlink:href="#DejaVuSans-30"/>
      </g>
     </g>
    </g>
    <g id="ytick_9">
     <g id="line2d_9">
      <path clip-path="url(#p1cee26c367)" d="M 102.78 52.912384 
L 740.016 52.912384 
" style="fill:none;stroke:#ffffff;stroke-linecap:round;"/>
     </g>
     <g id="text_11">
      <!-- 70000 -->
      <g style="fill:#262626;" transform="translate(58.28625 57.091525)scale(0.11 -0.11)">
       <defs>
        <path d="M 525 4666 
L 3525 4666 
L 3525 4397 
L 1831 0 
L 1172 0 
L 2766 4134 
L 525 4134 
L 525 4666 
z
" id="DejaVuSans-37" transform="scale(0.015625)"/>
       </defs>
       <use xlink:href="#DejaVuSans-37"/>
       <use x="63.623047" xlink:href="#DejaVuSans-30"/>
       <use x="127.246094" xlink:href="#DejaVuSans-30"/>
       <use x="190.869141" xlink:href="#DejaVuSans-30"/>
       <use x="254.492188" xlink:href="#DejaVuSans-30"/>
      </g>
     </g>
    </g>
    <g id="text_12">
     <!-- Total number of transactions -->
     <g style="fill:#262626;" transform="translate(42.572969 260.478937)rotate(-90)scale(0.12 -0.12)">
      <defs>
       <path d="M -19 4666 
L 3928 4666 
L 3928 4134 
L 2272 4134 
L 2272 0 
L 1638 0 
L 1638 4134 
L -19 4134 
L -19 4666 
z
" id="DejaVuSans-54" transform="scale(0.015625)"/>
       <path d="M 603 4863 
L 1178 4863 
L 1178 0 
L 603 0 
L 603 4863 
z
" id="DejaVuSans-6c" transform="scale(0.015625)"/>
       <path id="DejaVuSans-20" transform="scale(0.015625)"/>
       <path d="M 544 1381 
L 544 3500 
L 1119 3500 
L 1119 1403 
Q 1119 906 1312 657 
Q 1506 409 1894 409 
Q 2359 409 2629 706 
Q 2900 1003 2900 1516 
L 2900 3500 
L 3475 3500 
L 3475 0 
L 2900 0 
L 2900 538 
Q 2691 219 2414 64 
Q 2138 -91 1772 -91 
Q 1169 -91 856 284 
Q 544 659 544 1381 
z
M 1991 3584 
L 1991 3584 
z
" id="DejaVuSans-75" transform="scale(0.015625)"/>
       <path d="M 3328 2828 
Q 3544 3216 3844 3400 
Q 4144 3584 4550 3584 
Q 5097 3584 5394 3201 
Q 5691 2819 5691 2113 
L 5691 0 
L 5113 0 
L 5113 2094 
Q 5113 2597 4934 2840 
Q 4756 3084 4391 3084 
Q 3944 3084 3684 2787 
Q 3425 2491 3425 1978 
L 3425 0 
L 2847 0 
L 2847 2094 
Q 2847 2600 2669 2842 
Q 2491 3084 2119 3084 
Q 1678 3084 1418 2786 
Q 1159 2488 1159 1978 
L 1159 0 
L 581 0 
L 581 3500 
L 1159 3500 
L 1159 2956 
Q 1356 3278 1631 3431 
Q 1906 3584 2284 3584 
Q 2666 3584 2933 3390 
Q 3200 3197 3328 2828 
z
" id="DejaVuSans-6d" transform="scale(0.015625)"/>
       <path d="M 3116 1747 
Q 3116 2381 2855 2742 
Q 2594 3103 2138 3103 
Q 1681 3103 1420 2742 
Q 1159 2381 1159 1747 
Q 1159 1113 1420 752 
Q 1681 391 2138 391 
Q 2594 391 2855 752 
Q 3116 1113 3116 1747 
z
M 1159 2969 
Q 1341 3281 1617 3432 
Q 1894 3584 2278 3584 
Q 2916 3584 3314 3078 
Q 3713 2572 3713 1747 
Q 3713 922 3314 415 
Q 2916 -91 2278 -91 
Q 1894 -91 1617 61 
Q 1341 213 1159 525 
L 1159 0 
L 581 0 
L 581 4863 
L 1159 4863 
L 1159 2969 
z
" id="DejaVuSans-62" transform="scale(0.015625)"/>
       <path d="M 3597 1894 
L 3597 1613 
L 953 1613 
Q 991 1019 1311 708 
Q 1631 397 2203 397 
Q 2534 397 2845 478 
Q 3156 559 3463 722 
L 3463 178 
Q 3153 47 2828 -22 
Q 2503 -91 2169 -91 
Q 1331 -91 842 396 
Q 353 884 353 1716 
Q 353 2575 817 3079 
Q 1281 3584 2069 3584 
Q 2775 3584 3186 3129 
Q 3597 2675 3597 1894 
z
M 3022 2063 
Q 3016 2534 2758 2815 
Q 2500 3097 2075 3097 
Q 1594 3097 1305 2825 
Q 1016 2553 972 2059 
L 3022 2063 
z
" id="DejaVuSans-65" transform="scale(0.015625)"/>
       <path d="M 2375 4863 
L 2375 4384 
L 1825 4384 
Q 1516 4384 1395 4259 
Q 1275 4134 1275 3809 
L 1275 3500 
L 2222 3500 
L 2222 3053 
L 1275 3053 
L 1275 0 
L 697 0 
L 697 3053 
L 147 3053 
L 147 3500 
L 697 3500 
L 697 3744 
Q 697 4328 969 4595 
Q 1241 4863 1831 4863 
L 2375 4863 
z
" id="DejaVuSans-66" transform="scale(0.015625)"/>
      </defs>
      <use xlink:href="#DejaVuSans-54"/>
      <use x="44.083984" xlink:href="#DejaVuSans-6f"/>
      <use x="105.265625" xlink:href="#DejaVuSans-74"/>
      <use x="144.474609" xlink:href="#DejaVuSans-61"/>
      <use x="205.753906" xlink:href="#DejaVuSans-6c"/>
      <use x="233.537109" xlink:href="#DejaVuSans-20"/>
      <use x="265.324219" xlink:href="#DejaVuSans-6e"/>
      <use x="328.703125" xlink:href="#DejaVuSans-75"/>
      <use x="392.082031" xlink:href="#DejaVuSans-6d"/>
      <use x="489.494141" xlink:href="#DejaVuSans-62"/>
      <use x="552.970703" xlink:href="#DejaVuSans-65"/>
      <use x="614.494141" xlink:href="#DejaVuSans-72"/>
      <use x="655.607422" xlink:href="#DejaVuSans-20"/>
      <use x="687.394531" xlink:href="#DejaVuSans-6f"/>
      <use x="748.576172" xlink:href="#DejaVuSans-66"/>
      <use x="783.78125" xlink:href="#DejaVuSans-20"/>
      <use x="815.568359" xlink:href="#DejaVuSans-74"/>
      <use x="854.777344" xlink:href="#DejaVuSans-72"/>
      <use x="895.890625" xlink:href="#DejaVuSans-61"/>
      <use x="957.169922" xlink:href="#DejaVuSans-6e"/>
      <use x="1020.548828" xlink:href="#DejaVuSans-73"/>
      <use x="1072.648438" xlink:href="#DejaVuSans-61"/>
      <use x="1133.927734" xlink:href="#DejaVuSans-63"/>
      <use x="1188.908203" xlink:href="#DejaVuSans-74"/>
      <use x="1228.117188" xlink:href="#DejaVuSans-69"/>
      <use x="1255.900391" xlink:href="#DejaVuSans-6f"/>
      <use x="1317.082031" xlink:href="#DejaVuSans-6e"/>
      <use x="1380.460938" xlink:href="#DejaVuSans-73"/>
     </g>
    </g>
   </g>
   <g id="PolyCollection_1">
    <defs>
     <path d="M 449.826753 -50.112 
L 392.969247 -50.112 
L 379.933436 -52.555636 
L 363.047895 -54.999273 
L 342.170788 -57.442909 
L 317.597165 -59.886545 
L 290.162992 -62.330182 
L 261.275155 -64.773818 
L 232.838394 -67.217455 
L 207.069986 -69.661091 
L 186.220568 -72.104727 
L 172.247203 -74.548364 
L 166.5036 -76.992 
L 169.514972 -79.435636 
L 180.888856 -81.879273 
L 199.382234 -84.322909 
L 223.108473 -86.766545 
L 249.836068 -89.210182 
L 277.31385 -91.653818 
L 303.558233 -94.097455 
L 327.054895 -96.541091 
L 346.853213 -98.984727 
L 362.558273 -101.428364 
L 374.245083 -103.872 
L 382.329126 -106.315636 
L 387.42664 -108.759273 
L 390.230064 -111.202909 
L 391.413035 -113.646545 
L 391.568996 -116.090182 
L 391.180085 -118.533818 
L 390.609286 -120.977455 
L 390.108186 -123.421091 
L 389.83376 -125.864727 
L 389.869336 -128.308364 
L 390.246246 -130.752 
L 390.963568 -133.195636 
L 392.003942 -135.639273 
L 393.344044 -138.082909 
L 394.959251 -140.526545 
L 396.823153 -142.970182 
L 398.903739 -145.413818 
L 401.158773 -147.857455 
L 403.532818 -150.301091 
L 405.957657 -152.744727 
L 408.356557 -155.188364 
L 410.651561 -157.632 
L 412.772032 -160.075636 
L 414.662392 -162.519273 
L 416.287345 -164.962909 
L 417.633668 -167.406545 
L 418.708588 -169.850182 
L 419.535538 -172.293818 
L 420.148529 -174.737455 
L 420.586366 -177.181091 
L 420.887722 -179.624727 
L 421.08761 -182.068364 
L 421.21539 -184.512 
L 421.294119 -186.955636 
L 421.340874 -189.399273 
L 421.367638 -191.842909 
L 421.382407 -194.286545 
L 421.390262 -196.730182 
L 421.394287 -199.173818 
L 421.396271 -201.617455 
L 421.3972 -204.061091 
L 421.397587 -206.504727 
L 421.397665 -208.948364 
L 421.397488 -211.392 
L 421.39696 -213.835636 
L 421.3958 -216.279273 
L 421.393449 -218.722909 
L 421.388901 -221.166545 
L 421.380451 -223.610182 
L 421.365363 -226.053818 
L 421.339473 -228.497455 
L 421.296803 -230.941091 
L 421.229286 -233.384727 
L 421.12679 -235.828364 
L 420.97763 -238.272 
L 420.769755 -240.715636 
L 420.492689 -243.159273 
L 420.140126 -245.602909 
L 419.712814 -248.046545 
L 419.221144 -250.490182 
L 418.686669 -252.933818 
L 418.141835 -255.377455 
L 417.627478 -257.821091 
L 417.18814 -260.264727 
L 416.865844 -262.708364 
L 416.693503 -265.152 
L 416.689391 -267.595636 
L 416.85395 -270.039273 
L 417.16971 -272.482909 
L 417.604348 -274.926545 
L 418.116131 -277.370182 
L 418.660487 -279.813818 
L 419.19628 -282.257455 
L 419.690584 -284.701091 
L 420.121304 -287.144727 
L 420.477536 -289.588364 
L 420.758122 -292.032 
L 422.037878 -292.032 
L 422.037878 -292.032 
L 422.318464 -289.588364 
L 422.674696 -287.144727 
L 423.105416 -284.701091 
L 423.59972 -282.257455 
L 424.135513 -279.813818 
L 424.679869 -277.370182 
L 425.191652 -274.926545 
L 425.62629 -272.482909 
L 425.94205 -270.039273 
L 426.106609 -267.595636 
L 426.102497 -265.152 
L 425.930156 -262.708364 
L 425.60786 -260.264727 
L 425.168522 -257.821091 
L 424.654165 -255.377455 
L 424.109331 -252.933818 
L 423.574856 -250.490182 
L 423.083186 -248.046545 
L 422.655874 -245.602909 
L 422.303311 -243.159273 
L 422.026245 -240.715636 
L 421.81837 -238.272 
L 421.66921 -235.828364 
L 421.566714 -233.384727 
L 421.499197 -230.941091 
L 421.456527 -228.497455 
L 421.430637 -226.053818 
L 421.415549 -223.610182 
L 421.407099 -221.166545 
L 421.402551 -218.722909 
L 421.4002 -216.279273 
L 421.39904 -213.835636 
L 421.398512 -211.392 
L 421.398335 -208.948364 
L 421.398413 -206.504727 
L 421.3988 -204.061091 
L 421.399729 -201.617455 
L 421.401713 -199.173818 
L 421.405738 -196.730182 
L 421.413593 -194.286545 
L 421.428362 -191.842909 
L 421.455126 -189.399273 
L 421.501881 -186.955636 
L 421.58061 -184.512 
L 421.70839 -182.068364 
L 421.908278 -179.624727 
L 422.209634 -177.181091 
L 422.647471 -174.737455 
L 423.260462 -172.293818 
L 424.087412 -169.850182 
L 425.162332 -167.406545 
L 426.508655 -164.962909 
L 428.133608 -162.519273 
L 430.023968 -160.075636 
L 432.144439 -157.632 
L 434.439443 -155.188364 
L 436.838343 -152.744727 
L 439.263182 -150.301091 
L 441.637227 -147.857455 
L 443.892261 -145.413818 
L 445.972847 -142.970182 
L 447.836749 -140.526545 
L 449.451956 -138.082909 
L 450.792058 -135.639273 
L 451.832432 -133.195636 
L 452.549754 -130.752 
L 452.926664 -128.308364 
L 452.96224 -125.864727 
L 452.687814 -123.421091 
L 452.186714 -120.977455 
L 451.615915 -118.533818 
L 451.227004 -116.090182 
L 451.382965 -113.646545 
L 452.565936 -111.202909 
L 455.36936 -108.759273 
L 460.466874 -106.315636 
L 468.550917 -103.872 
L 480.237727 -101.428364 
L 495.942787 -98.984727 
L 515.741105 -96.541091 
L 539.237767 -94.097455 
L 565.48215 -91.653818 
L 592.959932 -89.210182 
L 619.687527 -86.766545 
L 643.413766 -84.322909 
L 661.907144 -81.879273 
L 673.281028 -79.435636 
L 676.2924 -76.992 
L 670.548797 -74.548364 
L 656.575432 -72.104727 
L 635.726014 -69.661091 
L 609.957606 -67.217455 
L 581.520845 -64.773818 
L 552.633008 -62.330182 
L 525.198835 -59.886545 
L 500.625212 -57.442909 
L 479.748105 -54.999273 
L 462.862564 -52.555636 
L 449.826753 -50.112 
z
" id="m534a009800" style="stroke:#4c4c4c;stroke-width:1.5;"/>
    </defs>
    <g clip-path="url(#p1cee26c367)">
     <use style="fill:#5875a4;stroke:#4c4c4c;stroke-width:1.5;" x="0" xlink:href="#m534a009800" y="345.6"/>
    </g>
   </g>
   <g id="line2d_10">
    <path clip-path="url(#p1cee26c367)" d="M 421.398 269.888393 
L 421.398 259.181718 
" style="fill:none;stroke:#4c4c4c;stroke-linecap:round;stroke-width:1.5;"/>
   </g>
   <g id="line2d_11">
    <path clip-path="url(#p1cee26c367)" d="M 421.398 269.827173 
L 421.398 264.123559 
" style="fill:none;stroke:#4c4c4c;stroke-linecap:round;stroke-width:4.5;"/>
   </g>
   <g id="patch_3">
    <path d="M 102.78 307.584 
L 102.78 41.472 
" style="fill:none;stroke:#ffffff;stroke-linecap:square;stroke-linejoin:miter;stroke-width:1.25;"/>
   </g>
   <g id="patch_4">
    <path d="M 740.016 307.584 
L 740.016 41.472 
" style="fill:none;stroke:#ffffff;stroke-linecap:square;stroke-linejoin:miter;stroke-width:1.25;"/>
   </g>
   <g id="patch_5">
    <path d="M 102.78 307.584 
L 740.016 307.584 
" style="fill:none;stroke:#ffffff;stroke-linecap:square;stroke-linejoin:miter;stroke-width:1.25;"/>
   </g>
   <g id="patch_6">
    <path d="M 102.78 41.472 
L 740.016 41.472 
" style="fill:none;stroke:#ffffff;stroke-linecap:square;stroke-linejoin:miter;stroke-width:1.25;"/>
   </g>
   <g id="PathCollection_1">
    <defs>
     <path d="M 0 1.5 
C 0.397805 1.5 0.77937 1.341951 1.06066 1.06066 
C 1.341951 0.77937 1.5 0.397805 1.5 0 
C 1.5 -0.397805 1.341951 -0.77937 1.06066 -1.06066 
C 0.77937 -1.341951 0.397805 -1.5 0 -1.5 
C -0.397805 -1.5 -0.77937 -1.341951 -1.06066 -1.06066 
C -1.341951 -0.77937 -1.5 -0.397805 -1.5 0 
C -1.5 0.397805 -1.341951 0.77937 -1.06066 1.06066 
C -0.77937 1.341951 -0.397805 1.5 0 1.5 
z
" id="m4deaf9e40b" style="stroke:#4c4c4c;"/>
    </defs>
    <g clip-path="url(#p1cee26c367)">
     <use style="fill:#ffffff;stroke:#4c4c4c;" x="421.398" xlink:href="#m4deaf9e40b" y="269.032851"/>
    </g>
   </g>
   <g id="text_13">
    <!-- 02-july2014.csv - Total number of transactions per shipping locality -->
    <g style="fill:#262626;" transform="translate(219.097688 35.472)scale(0.12 -0.12)">
     <defs>
      <path d="M 313 2009 
L 1997 2009 
L 1997 1497 
L 313 1497 
L 313 2009 
z
" id="DejaVuSans-2d" transform="scale(0.015625)"/>
      <path d="M 603 3500 
L 1178 3500 
L 1178 -63 
Q 1178 -731 923 -1031 
Q 669 -1331 103 -1331 
L -116 -1331 
L -116 -844 
L 38 -844 
Q 366 -844 484 -692 
Q 603 -541 603 -63 
L 603 3500 
z
M 603 4863 
L 1178 4863 
L 1178 4134 
L 603 4134 
L 603 4863 
z
" id="DejaVuSans-6a" transform="scale(0.015625)"/>
      <path d="M 2059 -325 
Q 1816 -950 1584 -1140 
Q 1353 -1331 966 -1331 
L 506 -1331 
L 506 -850 
L 844 -850 
Q 1081 -850 1212 -737 
Q 1344 -625 1503 -206 
L 1606 56 
L 191 3500 
L 800 3500 
L 1894 763 
L 2988 3500 
L 3597 3500 
L 2059 -325 
z
" id="DejaVuSans-79" transform="scale(0.015625)"/>
      <path d="M 684 794 
L 1344 794 
L 1344 0 
L 684 0 
L 684 794 
z
" id="DejaVuSans-2e" transform="scale(0.015625)"/>
      <path d="M 191 3500 
L 800 3500 
L 1894 563 
L 2988 3500 
L 3597 3500 
L 2284 0 
L 1503 0 
L 191 3500 
z
" id="DejaVuSans-76" transform="scale(0.015625)"/>
      <path d="M 1159 525 
L 1159 -1331 
L 581 -1331 
L 581 3500 
L 1159 3500 
L 1159 2969 
Q 1341 3281 1617 3432 
Q 1894 3584 2278 3584 
Q 2916 3584 3314 3078 
Q 3713 2572 3713 1747 
Q 3713 922 3314 415 
Q 2916 -91 2278 -91 
Q 1894 -91 1617 61 
Q 1341 213 1159 525 
z
M 3116 1747 
Q 3116 2381 2855 2742 
Q 2594 3103 2138 3103 
Q 1681 3103 1420 2742 
Q 1159 2381 1159 1747 
Q 1159 1113 1420 752 
Q 1681 391 2138 391 
Q 2594 391 2855 752 
Q 3116 1113 3116 1747 
z
" id="DejaVuSans-70" transform="scale(0.015625)"/>
      <path d="M 3513 2113 
L 3513 0 
L 2938 0 
L 2938 2094 
Q 2938 2591 2744 2837 
Q 2550 3084 2163 3084 
Q 1697 3084 1428 2787 
Q 1159 2491 1159 1978 
L 1159 0 
L 581 0 
L 581 4863 
L 1159 4863 
L 1159 2956 
Q 1366 3272 1645 3428 
Q 1925 3584 2291 3584 
Q 2894 3584 3203 3211 
Q 3513 2838 3513 2113 
z
" id="DejaVuSans-68" transform="scale(0.015625)"/>
      <path d="M 2906 1791 
Q 2906 2416 2648 2759 
Q 2391 3103 1925 3103 
Q 1463 3103 1205 2759 
Q 947 2416 947 1791 
Q 947 1169 1205 825 
Q 1463 481 1925 481 
Q 2391 481 2648 825 
Q 2906 1169 2906 1791 
z
M 3481 434 
Q 3481 -459 3084 -895 
Q 2688 -1331 1869 -1331 
Q 1566 -1331 1297 -1286 
Q 1028 -1241 775 -1147 
L 775 -588 
Q 1028 -725 1275 -790 
Q 1522 -856 1778 -856 
Q 2344 -856 2625 -561 
Q 2906 -266 2906 331 
L 2906 616 
Q 2728 306 2450 153 
Q 2172 0 1784 0 
Q 1141 0 747 490 
Q 353 981 353 1791 
Q 353 2603 747 3093 
Q 1141 3584 1784 3584 
Q 2172 3584 2450 3431 
Q 2728 3278 2906 2969 
L 2906 3500 
L 3481 3500 
L 3481 434 
z
" id="DejaVuSans-67" transform="scale(0.015625)"/>
     </defs>
     <use xlink:href="#DejaVuSans-30"/>
     <use x="63.623047" xlink:href="#DejaVuSans-32"/>
     <use x="127.246094" xlink:href="#DejaVuSans-2d"/>
     <use x="163.330078" xlink:href="#DejaVuSans-6a"/>
     <use x="191.113281" xlink:href="#DejaVuSans-75"/>
     <use x="254.492188" xlink:href="#DejaVuSans-6c"/>
     <use x="282.275391" xlink:href="#DejaVuSans-79"/>
     <use x="341.455078" xlink:href="#DejaVuSans-32"/>
     <use x="405.078125" xlink:href="#DejaVuSans-30"/>
     <use x="468.701172" xlink:href="#DejaVuSans-31"/>
     <use x="532.324219" xlink:href="#DejaVuSans-34"/>
     <use x="595.947266" xlink:href="#DejaVuSans-2e"/>
     <use x="627.734375" xlink:href="#DejaVuSans-63"/>
     <use x="682.714844" xlink:href="#DejaVuSans-73"/>
     <use x="734.814453" xlink:href="#DejaVuSans-76"/>
     <use x="793.994141" xlink:href="#DejaVuSans-20"/>
     <use x="825.78125" xlink:href="#DejaVuSans-2d"/>
     <use x="861.865234" xlink:href="#DejaVuSans-20"/>
     <use x="893.652344" xlink:href="#DejaVuSans-54"/>
     <use x="937.736328" xlink:href="#DejaVuSans-6f"/>
     <use x="998.917969" xlink:href="#DejaVuSans-74"/>
     <use x="1038.126953" xlink:href="#DejaVuSans-61"/>
     <use x="1099.40625" xlink:href="#DejaVuSans-6c"/>
     <use x="1127.189453" xlink:href="#DejaVuSans-20"/>
     <use x="1158.976562" xlink:href="#DejaVuSans-6e"/>
     <use x="1222.355469" xlink:href="#DejaVuSans-75"/>
     <use x="1285.734375" xlink:href="#DejaVuSans-6d"/>
     <use x="1383.146484" xlink:href="#DejaVuSans-62"/>
     <use x="1446.623047" xlink:href="#DejaVuSans-65"/>
     <use x="1508.146484" xlink:href="#DejaVuSans-72"/>
     <use x="1549.259766" xlink:href="#DejaVuSans-20"/>
     <use x="1581.046875" xlink:href="#DejaVuSans-6f"/>
     <use x="1642.228516" xlink:href="#DejaVuSans-66"/>
     <use x="1677.433594" xlink:href="#DejaVuSans-20"/>
     <use x="1709.220703" xlink:href="#DejaVuSans-74"/>
     <use x="1748.429688" xlink:href="#DejaVuSans-72"/>
     <use x="1789.542969" xlink:href="#DejaVuSans-61"/>
     <use x="1850.822266" xlink:href="#DejaVuSans-6e"/>
     <use x="1914.201172" xlink:href="#DejaVuSans-73"/>
     <use x="1966.300781" xlink:href="#DejaVuSans-61"/>
     <use x="2027.580078" xlink:href="#DejaVuSans-63"/>
     <use x="2082.560547" xlink:href="#DejaVuSans-74"/>
     <use x="2121.769531" xlink:href="#DejaVuSans-69"/>
     <use x="2149.552734" xlink:href="#DejaVuSans-6f"/>
     <use x="2210.734375" xlink:href="#DejaVuSans-6e"/>
     <use x="2274.113281" xlink:href="#DejaVuSans-73"/>
     <use x="2326.212891" xlink:href="#DejaVuSans-20"/>
     <use x="2358" xlink:href="#DejaVuSans-70"/>
     <use x="2421.476562" xlink:href="#DejaVuSans-65"/>
     <use x="2483" xlink:href="#DejaVuSans-72"/>
     <use x="2524.113281" xlink:href="#DejaVuSans-20"/>
     <use x="2555.900391" xlink:href="#DejaVuSans-73"/>
     <use x="2608" xlink:href="#DejaVuSans-68"/>
     <use x="2671.378906" xlink:href="#DejaVuSans-69"/>
     <use x="2699.162109" xlink:href="#DejaVuSans-70"/>
     <use x="2762.638672" xlink:href="#DejaVuSans-70"/>
     <use x="2826.115234" xlink:href="#DejaVuSans-69"/>
     <use x="2853.898438" xlink:href="#DejaVuSans-6e"/>
     <use x="2917.277344" xlink:href="#DejaVuSans-67"/>
     <use x="2980.753906" xlink:href="#DejaVuSans-20"/>
     <use x="3012.541016" xlink:href="#DejaVuSans-6c"/>
     <use x="3040.324219" xlink:href="#DejaVuSans-6f"/>
     <use x="3101.505859" xlink:href="#DejaVuSans-63"/>
     <use x="3156.486328" xlink:href="#DejaVuSans-61"/>
     <use x="3217.765625" xlink:href="#DejaVuSans-6c"/>
     <use x="3245.548828" xlink:href="#DejaVuSans-69"/>
     <use x="3273.332031" xlink:href="#DejaVuSans-74"/>
     <use x="3312.541016" xlink:href="#DejaVuSans-79"/>
    </g>
   </g>
  </g>
 </g>
 <defs>
  <clipPath id="p1cee26c367">
   <rect height="266.112" width="637.236" x="102.78" y="41.472"/>
  </clipPath>
 </defs>
</svg>
