<?xml version="1.0" encoding="utf-8" standalone="no"?>
<!DOCTYPE svg PUBLIC "-//W3C//DTD SVG 1.1//EN"
  "http://www.w3.org/Graphics/SVG/1.1/DTD/svg11.dtd">
<svg height="345.6pt" version="1.1" viewBox="0 0 790.56 345.6" width="790.56pt" xmlns="http://www.w3.org/2000/svg" xmlns:xlink="http://www.w3.org/1999/xlink">
 <metadata>
  <rdf:RDF xmlns:cc="http://creativecommons.org/ns#" xmlns:dc="http://purl.org/dc/elements/1.1/" xmlns:rdf="http://www.w3.org/1999/02/22-rdf-syntax-ns#">
   <cc:Work>
    <dc:type rdf:resource="http://purl.org/dc/dcmitype/StillImage"/>
    <dc:date>2021-07-11T13:38:33.136940</dc:date>
    <dc:format>image/svg+xml</dc:format>
    <dc:creator>
     <cc:Agent>
      <dc:title>Matplotlib v3.4.2, https://matplotlib.org/</dc:title>
     </cc:Agent>
    </dc:creator>
   </cc:Work>
  </rdf:RDF>
 </metadata>
 <defs>
  <style type="text/css">*{stroke-linecap:butt;stroke-linejoin:round;}</style>
 </defs>
 <g id="figure_1">
  <g id="patch_1">
   <path d="M 0 345.6 
L 790.56 345.6 
L 790.56 0 
L 0 0 
z
" style="fill:#ffffff;"/>
  </g>
  <g id="axes_1">
   <g id="patch_2">
    <path d="M 98.82 307.584 
L 711.504 307.584 
L 711.504 41.472 
L 98.82 41.472 
z
" style="fill:#eaeaf2;"/>
   </g>
   <g id="matplotlib.axis_1">
    <g id="xtick_1">
     <g id="text_1">
      <!-- transactions -->
      <g style="fill:#262626;" transform="translate(371.228719 325.442281)scale(0.11 -0.11)">
       <defs>
        <path d="M 1172 4494 
L 1172 3500 
L 2356 3500 
L 2356 3053 
L 1172 3053 
L 1172 1153 
Q 1172 725 1289 603 
Q 1406 481 1766 481 
L 2356 481 
L 2356 0 
L 1766 0 
Q 1100 0 847 248 
Q 594 497 594 1153 
L 594 3053 
L 172 3053 
L 172 3500 
L 594 3500 
L 594 4494 
L 1172 4494 
z
" id="DejaVuSans-74" transform="scale(0.015625)"/>
        <path d="M 2631 2963 
Q 2534 3019 2420 3045 
Q 2306 3072 2169 3072 
Q 1681 3072 1420 2755 
Q 1159 2438 1159 1844 
L 1159 0 
L 581 0 
L 581 3500 
L 1159 3500 
L 1159 2956 
Q 1341 3275 1631 3429 
Q 1922 3584 2338 3584 
Q 2397 3584 2469 3576 
Q 2541 3569 2628 3553 
L 2631 2963 
z
" id="DejaVuSans-72" transform="scale(0.015625)"/>
        <path d="M 2194 1759 
Q 1497 1759 1228 1600 
Q 959 1441 959 1056 
Q 959 750 1161 570 
Q 1363 391 1709 391 
Q 2188 391 2477 730 
Q 2766 1069 2766 1631 
L 2766 1759 
L 2194 1759 
z
M 3341 1997 
L 3341 0 
L 2766 0 
L 2766 531 
Q 2569 213 2275 61 
Q 1981 -91 1556 -91 
Q 1019 -91 701 211 
Q 384 513 384 1019 
Q 384 1609 779 1909 
Q 1175 2209 1959 2209 
L 2766 2209 
L 2766 2266 
Q 2766 2663 2505 2880 
Q 2244 3097 1772 3097 
Q 1472 3097 1187 3025 
Q 903 2953 641 2809 
L 641 3341 
Q 956 3463 1253 3523 
Q 1550 3584 1831 3584 
Q 2591 3584 2966 3190 
Q 3341 2797 3341 1997 
z
" id="DejaVuSans-61" transform="scale(0.015625)"/>
        <path d="M 3513 2113 
L 3513 0 
L 2938 0 
L 2938 2094 
Q 2938 2591 2744 2837 
Q 2550 3084 2163 3084 
Q 1697 3084 1428 2787 
Q 1159 2491 1159 1978 
L 1159 0 
L 581 0 
L 581 3500 
L 1159 3500 
L 1159 2956 
Q 1366 3272 1645 3428 
Q 1925 3584 2291 3584 
Q 2894 3584 3203 3211 
Q 3513 2838 3513 2113 
z
" id="DejaVuSans-6e" transform="scale(0.015625)"/>
        <path d="M 2834 3397 
L 2834 2853 
Q 2591 2978 2328 3040 
Q 2066 3103 1784 3103 
Q 1356 3103 1142 2972 
Q 928 2841 928 2578 
Q 928 2378 1081 2264 
Q 1234 2150 1697 2047 
L 1894 2003 
Q 2506 1872 2764 1633 
Q 3022 1394 3022 966 
Q 3022 478 2636 193 
Q 2250 -91 1575 -91 
Q 1294 -91 989 -36 
Q 684 19 347 128 
L 347 722 
Q 666 556 975 473 
Q 1284 391 1588 391 
Q 1994 391 2212 530 
Q 2431 669 2431 922 
Q 2431 1156 2273 1281 
Q 2116 1406 1581 1522 
L 1381 1569 
Q 847 1681 609 1914 
Q 372 2147 372 2553 
Q 372 3047 722 3315 
Q 1072 3584 1716 3584 
Q 2034 3584 2315 3537 
Q 2597 3491 2834 3397 
z
" id="DejaVuSans-73" transform="scale(0.015625)"/>
        <path d="M 3122 3366 
L 3122 2828 
Q 2878 2963 2633 3030 
Q 2388 3097 2138 3097 
Q 1578 3097 1268 2742 
Q 959 2388 959 1747 
Q 959 1106 1268 751 
Q 1578 397 2138 397 
Q 2388 397 2633 464 
Q 2878 531 3122 666 
L 3122 134 
Q 2881 22 2623 -34 
Q 2366 -91 2075 -91 
Q 1284 -91 818 406 
Q 353 903 353 1747 
Q 353 2603 823 3093 
Q 1294 3584 2113 3584 
Q 2378 3584 2631 3529 
Q 2884 3475 3122 3366 
z
" id="DejaVuSans-63" transform="scale(0.015625)"/>
        <path d="M 603 3500 
L 1178 3500 
L 1178 0 
L 603 0 
L 603 3500 
z
M 603 4863 
L 1178 4863 
L 1178 4134 
L 603 4134 
L 603 4863 
z
" id="DejaVuSans-69" transform="scale(0.015625)"/>
        <path d="M 1959 3097 
Q 1497 3097 1228 2736 
Q 959 2375 959 1747 
Q 959 1119 1226 758 
Q 1494 397 1959 397 
Q 2419 397 2687 759 
Q 2956 1122 2956 1747 
Q 2956 2369 2687 2733 
Q 2419 3097 1959 3097 
z
M 1959 3584 
Q 2709 3584 3137 3096 
Q 3566 2609 3566 1747 
Q 3566 888 3137 398 
Q 2709 -91 1959 -91 
Q 1206 -91 779 398 
Q 353 888 353 1747 
Q 353 2609 779 3096 
Q 1206 3584 1959 3584 
z
" id="DejaVuSans-6f" transform="scale(0.015625)"/>
       </defs>
       <use xlink:href="#DejaVuSans-74"/>
       <use x="39.208984" xlink:href="#DejaVuSans-72"/>
       <use x="80.322266" xlink:href="#DejaVuSans-61"/>
       <use x="141.601562" xlink:href="#DejaVuSans-6e"/>
       <use x="204.980469" xlink:href="#DejaVuSans-73"/>
       <use x="257.080078" xlink:href="#DejaVuSans-61"/>
       <use x="318.359375" xlink:href="#DejaVuSans-63"/>
       <use x="373.339844" xlink:href="#DejaVuSans-74"/>
       <use x="412.548828" xlink:href="#DejaVuSans-69"/>
       <use x="440.332031" xlink:href="#DejaVuSans-6f"/>
       <use x="501.513672" xlink:href="#DejaVuSans-6e"/>
       <use x="564.892578" xlink:href="#DejaVuSans-73"/>
      </g>
     </g>
    </g>
    <g id="text_2">
     <!-- x -->
     <g style="fill:#262626;" transform="translate(401.61075 340.848062)scale(0.12 -0.12)">
      <defs>
       <path d="M 3513 3500 
L 2247 1797 
L 3578 0 
L 2900 0 
L 1881 1375 
L 863 0 
L 184 0 
L 1544 1831 
L 300 3500 
L 978 3500 
L 1906 2253 
L 2834 3500 
L 3513 3500 
z
" id="DejaVuSans-78" transform="scale(0.015625)"/>
      </defs>
      <use xlink:href="#DejaVuSans-78"/>
     </g>
    </g>
   </g>
   <g id="matplotlib.axis_2">
    <g id="ytick_1">
     <g id="line2d_1">
      <path clip-path="url(#p8745728ab9)" d="M 98.82 270.029226 
L 711.504 270.029226 
" style="fill:none;stroke:#ffffff;stroke-linecap:round;"/>
     </g>
     <g id="text_3">
      <!-- 0 -->
      <g style="fill:#262626;" transform="translate(82.32125 274.208366)scale(0.11 -0.11)">
       <defs>
        <path d="M 2034 4250 
Q 1547 4250 1301 3770 
Q 1056 3291 1056 2328 
Q 1056 1369 1301 889 
Q 1547 409 2034 409 
Q 2525 409 2770 889 
Q 3016 1369 3016 2328 
Q 3016 3291 2770 3770 
Q 2525 4250 2034 4250 
z
M 2034 4750 
Q 2819 4750 3233 4129 
Q 3647 3509 3647 2328 
Q 3647 1150 3233 529 
Q 2819 -91 2034 -91 
Q 1250 -91 836 529 
Q 422 1150 422 2328 
Q 422 3509 836 4129 
Q 1250 4750 2034 4750 
z
" id="DejaVuSans-30" transform="scale(0.015625)"/>
       </defs>
       <use xlink:href="#DejaVuSans-30"/>
      </g>
     </g>
    </g>
    <g id="ytick_2">
     <g id="line2d_2">
      <path clip-path="url(#p8745728ab9)" d="M 98.82 218.938561 
L 711.504 218.938561 
" style="fill:none;stroke:#ffffff;stroke-linecap:round;"/>
     </g>
     <g id="text_4">
      <!-- 10000 -->
      <g style="fill:#262626;" transform="translate(54.32625 223.117701)scale(0.11 -0.11)">
       <defs>
        <path d="M 794 531 
L 1825 531 
L 1825 4091 
L 703 3866 
L 703 4441 
L 1819 4666 
L 2450 4666 
L 2450 531 
L 3481 531 
L 3481 0 
L 794 0 
L 794 531 
z
" id="DejaVuSans-31" transform="scale(0.015625)"/>
       </defs>
       <use xlink:href="#DejaVuSans-31"/>
       <use x="63.623047" xlink:href="#DejaVuSans-30"/>
       <use x="127.246094" xlink:href="#DejaVuSans-30"/>
       <use x="190.869141" xlink:href="#DejaVuSans-30"/>
       <use x="254.492188" xlink:href="#DejaVuSans-30"/>
      </g>
     </g>
    </g>
    <g id="ytick_3">
     <g id="line2d_3">
      <path clip-path="url(#p8745728ab9)" d="M 98.82 167.847896 
L 711.504 167.847896 
" style="fill:none;stroke:#ffffff;stroke-linecap:round;"/>
     </g>
     <g id="text_5">
      <!-- 20000 -->
      <g style="fill:#262626;" transform="translate(54.32625 172.027036)scale(0.11 -0.11)">
       <defs>
        <path d="M 1228 531 
L 3431 531 
L 3431 0 
L 469 0 
L 469 531 
Q 828 903 1448 1529 
Q 2069 2156 2228 2338 
Q 2531 2678 2651 2914 
Q 2772 3150 2772 3378 
Q 2772 3750 2511 3984 
Q 2250 4219 1831 4219 
Q 1534 4219 1204 4116 
Q 875 4013 500 3803 
L 500 4441 
Q 881 4594 1212 4672 
Q 1544 4750 1819 4750 
Q 2544 4750 2975 4387 
Q 3406 4025 3406 3419 
Q 3406 3131 3298 2873 
Q 3191 2616 2906 2266 
Q 2828 2175 2409 1742 
Q 1991 1309 1228 531 
z
" id="DejaVuSans-32" transform="scale(0.015625)"/>
       </defs>
       <use xlink:href="#DejaVuSans-32"/>
       <use x="63.623047" xlink:href="#DejaVuSans-30"/>
       <use x="127.246094" xlink:href="#DejaVuSans-30"/>
       <use x="190.869141" xlink:href="#DejaVuSans-30"/>
       <use x="254.492188" xlink:href="#DejaVuSans-30"/>
      </g>
     </g>
    </g>
    <g id="ytick_4">
     <g id="line2d_4">
      <path clip-path="url(#p8745728ab9)" d="M 98.82 116.75723 
L 711.504 116.75723 
" style="fill:none;stroke:#ffffff;stroke-linecap:round;"/>
     </g>
     <g id="text_6">
      <!-- 30000 -->
      <g style="fill:#262626;" transform="translate(54.32625 120.936371)scale(0.11 -0.11)">
       <defs>
        <path d="M 2597 2516 
Q 3050 2419 3304 2112 
Q 3559 1806 3559 1356 
Q 3559 666 3084 287 
Q 2609 -91 1734 -91 
Q 1441 -91 1130 -33 
Q 819 25 488 141 
L 488 750 
Q 750 597 1062 519 
Q 1375 441 1716 441 
Q 2309 441 2620 675 
Q 2931 909 2931 1356 
Q 2931 1769 2642 2001 
Q 2353 2234 1838 2234 
L 1294 2234 
L 1294 2753 
L 1863 2753 
Q 2328 2753 2575 2939 
Q 2822 3125 2822 3475 
Q 2822 3834 2567 4026 
Q 2313 4219 1838 4219 
Q 1578 4219 1281 4162 
Q 984 4106 628 3988 
L 628 4550 
Q 988 4650 1302 4700 
Q 1616 4750 1894 4750 
Q 2613 4750 3031 4423 
Q 3450 4097 3450 3541 
Q 3450 3153 3228 2886 
Q 3006 2619 2597 2516 
z
" id="DejaVuSans-33" transform="scale(0.015625)"/>
       </defs>
       <use xlink:href="#DejaVuSans-33"/>
       <use x="63.623047" xlink:href="#DejaVuSans-30"/>
       <use x="127.246094" xlink:href="#DejaVuSans-30"/>
       <use x="190.869141" xlink:href="#DejaVuSans-30"/>
       <use x="254.492188" xlink:href="#DejaVuSans-30"/>
      </g>
     </g>
    </g>
    <g id="ytick_5">
     <g id="line2d_5">
      <path clip-path="url(#p8745728ab9)" d="M 98.82 65.666565 
L 711.504 65.666565 
" style="fill:none;stroke:#ffffff;stroke-linecap:round;"/>
     </g>
     <g id="text_7">
      <!-- 40000 -->
      <g style="fill:#262626;" transform="translate(54.32625 69.845706)scale(0.11 -0.11)">
       <defs>
        <path d="M 2419 4116 
L 825 1625 
L 2419 1625 
L 2419 4116 
z
M 2253 4666 
L 3047 4666 
L 3047 1625 
L 3713 1625 
L 3713 1100 
L 3047 1100 
L 3047 0 
L 2419 0 
L 2419 1100 
L 313 1100 
L 313 1709 
L 2253 4666 
z
" id="DejaVuSans-34" transform="scale(0.015625)"/>
       </defs>
       <use xlink:href="#DejaVuSans-34"/>
       <use x="63.623047" xlink:href="#DejaVuSans-30"/>
       <use x="127.246094" xlink:href="#DejaVuSans-30"/>
       <use x="190.869141" xlink:href="#DejaVuSans-30"/>
       <use x="254.492188" xlink:href="#DejaVuSans-30"/>
      </g>
     </g>
    </g>
    <g id="text_8">
     <!-- Total number of transactions -->
     <g style="fill:#262626;" transform="translate(47.830625 260.478937)rotate(-90)scale(0.12 -0.12)">
      <defs>
       <path d="M -19 4666 
L 3928 4666 
L 3928 4134 
L 2272 4134 
L 2272 0 
L 1638 0 
L 1638 4134 
L -19 4134 
L -19 4666 
z
" id="DejaVuSans-54" transform="scale(0.015625)"/>
       <path d="M 603 4863 
L 1178 4863 
L 1178 0 
L 603 0 
L 603 4863 
z
" id="DejaVuSans-6c" transform="scale(0.015625)"/>
       <path id="DejaVuSans-20" transform="scale(0.015625)"/>
       <path d="M 544 1381 
L 544 3500 
L 1119 3500 
L 1119 1403 
Q 1119 906 1312 657 
Q 1506 409 1894 409 
Q 2359 409 2629 706 
Q 2900 1003 2900 1516 
L 2900 3500 
L 3475 3500 
L 3475 0 
L 2900 0 
L 2900 538 
Q 2691 219 2414 64 
Q 2138 -91 1772 -91 
Q 1169 -91 856 284 
Q 544 659 544 1381 
z
M 1991 3584 
L 1991 3584 
z
" id="DejaVuSans-75" transform="scale(0.015625)"/>
       <path d="M 3328 2828 
Q 3544 3216 3844 3400 
Q 4144 3584 4550 3584 
Q 5097 3584 5394 3201 
Q 5691 2819 5691 2113 
L 5691 0 
L 5113 0 
L 5113 2094 
Q 5113 2597 4934 2840 
Q 4756 3084 4391 3084 
Q 3944 3084 3684 2787 
Q 3425 2491 3425 1978 
L 3425 0 
L 2847 0 
L 2847 2094 
Q 2847 2600 2669 2842 
Q 2491 3084 2119 3084 
Q 1678 3084 1418 2786 
Q 1159 2488 1159 1978 
L 1159 0 
L 581 0 
L 581 3500 
L 1159 3500 
L 1159 2956 
Q 1356 3278 1631 3431 
Q 1906 3584 2284 3584 
Q 2666 3584 2933 3390 
Q 3200 3197 3328 2828 
z
" id="DejaVuSans-6d" transform="scale(0.015625)"/>
       <path d="M 3116 1747 
Q 3116 2381 2855 2742 
Q 2594 3103 2138 3103 
Q 1681 3103 1420 2742 
Q 1159 2381 1159 1747 
Q 1159 1113 1420 752 
Q 1681 391 2138 391 
Q 2594 391 2855 752 
Q 3116 1113 3116 1747 
z
M 1159 2969 
Q 1341 3281 1617 3432 
Q 1894 3584 2278 3584 
Q 2916 3584 3314 3078 
Q 3713 2572 3713 1747 
Q 3713 922 3314 415 
Q 2916 -91 2278 -91 
Q 1894 -91 1617 61 
Q 1341 213 1159 525 
L 1159 0 
L 581 0 
L 581 4863 
L 1159 4863 
L 1159 2969 
z
" id="DejaVuSans-62" transform="scale(0.015625)"/>
       <path d="M 3597 1894 
L 3597 1613 
L 953 1613 
Q 991 1019 1311 708 
Q 1631 397 2203 397 
Q 2534 397 2845 478 
Q 3156 559 3463 722 
L 3463 178 
Q 3153 47 2828 -22 
Q 2503 -91 2169 -91 
Q 1331 -91 842 396 
Q 353 884 353 1716 
Q 353 2575 817 3079 
Q 1281 3584 2069 3584 
Q 2775 3584 3186 3129 
Q 3597 2675 3597 1894 
z
M 3022 2063 
Q 3016 2534 2758 2815 
Q 2500 3097 2075 3097 
Q 1594 3097 1305 2825 
Q 1016 2553 972 2059 
L 3022 2063 
z
" id="DejaVuSans-65" transform="scale(0.015625)"/>
       <path d="M 2375 4863 
L 2375 4384 
L 1825 4384 
Q 1516 4384 1395 4259 
Q 1275 4134 1275 3809 
L 1275 3500 
L 2222 3500 
L 2222 3053 
L 1275 3053 
L 1275 0 
L 697 0 
L 697 3053 
L 147 3053 
L 147 3500 
L 697 3500 
L 697 3744 
Q 697 4328 969 4595 
Q 1241 4863 1831 4863 
L 2375 4863 
z
" id="DejaVuSans-66" transform="scale(0.015625)"/>
      </defs>
      <use xlink:href="#DejaVuSans-54"/>
      <use x="44.083984" xlink:href="#DejaVuSans-6f"/>
      <use x="105.265625" xlink:href="#DejaVuSans-74"/>
      <use x="144.474609" xlink:href="#DejaVuSans-61"/>
      <use x="205.753906" xlink:href="#DejaVuSans-6c"/>
      <use x="233.537109" xlink:href="#DejaVuSans-20"/>
      <use x="265.324219" xlink:href="#DejaVuSans-6e"/>
      <use x="328.703125" xlink:href="#DejaVuSans-75"/>
      <use x="392.082031" xlink:href="#DejaVuSans-6d"/>
      <use x="489.494141" xlink:href="#DejaVuSans-62"/>
      <use x="552.970703" xlink:href="#DejaVuSans-65"/>
      <use x="614.494141" xlink:href="#DejaVuSans-72"/>
      <use x="655.607422" xlink:href="#DejaVuSans-20"/>
      <use x="687.394531" xlink:href="#DejaVuSans-6f"/>
      <use x="748.576172" xlink:href="#DejaVuSans-66"/>
      <use x="783.78125" xlink:href="#DejaVuSans-20"/>
      <use x="815.568359" xlink:href="#DejaVuSans-74"/>
      <use x="854.777344" xlink:href="#DejaVuSans-72"/>
      <use x="895.890625" xlink:href="#DejaVuSans-61"/>
      <use x="957.169922" xlink:href="#DejaVuSans-6e"/>
      <use x="1020.548828" xlink:href="#DejaVuSans-73"/>
      <use x="1072.648438" xlink:href="#DejaVuSans-61"/>
      <use x="1133.927734" xlink:href="#DejaVuSans-63"/>
      <use x="1188.908203" xlink:href="#DejaVuSans-74"/>
      <use x="1228.117188" xlink:href="#DejaVuSans-69"/>
      <use x="1255.900391" xlink:href="#DejaVuSans-6f"/>
      <use x="1317.082031" xlink:href="#DejaVuSans-6e"/>
      <use x="1380.460938" xlink:href="#DejaVuSans-73"/>
     </g>
    </g>
   </g>
   <g id="PolyCollection_1">
    <defs>
     <path d="M 432.665646 -50.112 
L 377.658354 -50.112 
L 364.978233 -52.555636 
L 348.543136 -54.999273 
L 328.223908 -57.442909 
L 304.326354 -59.886545 
L 277.692661 -62.330182 
L 249.727277 -64.773818 
L 222.318466 -67.217455 
L 197.647475 -69.661091 
L 177.905606 -72.104727 
L 164.967638 -74.548364 
L 160.0884 -76.992 
L 163.690499 -79.435636 
L 175.293006 -81.879273 
L 193.597832 -84.322909 
L 216.712374 -86.766545 
L 242.455652 -89.210182 
L 268.6796 -91.653818 
L 293.541062 -94.097455 
L 315.680077 -96.541091 
L 334.288378 -98.984727 
L 349.079206 -101.428364 
L 360.188099 -103.872 
L 368.041151 -106.315636 
L 373.223219 -108.759273 
L 376.367961 -111.202909 
L 378.079291 -113.646545 
L 378.883784 -116.090182 
L 379.207855 -118.533818 
L 379.371912 -120.977455 
L 379.594918 -123.421091 
L 380.005103 -125.864727 
L 380.654524 -128.308364 
L 381.536277 -130.752 
L 382.603304 -133.195636 
L 383.787524 -135.639273 
L 385.017609 -138.082909 
L 386.233688 -140.526545 
L 387.397423 -142.970182 
L 388.496486 -145.413818 
L 389.54317 -147.857455 
L 390.56786 -150.301091 
L 391.608938 -152.744727 
L 392.701475 -155.188364 
L 393.867266 -157.632 
L 395.108457 -160.075636 
L 396.406063 -162.519273 
L 397.723408 -164.962909 
L 399.013297 -167.406545 
L 400.226861 -169.850182 
L 401.321883 -172.293818 
L 402.26879 -174.737455 
L 403.053416 -177.181091 
L 403.676548 -179.624727 
L 404.151024 -182.068364 
L 404.497567 -184.512 
L 404.740452 -186.955636 
L 404.90388 -189.399273 
L 405.009493 -191.842909 
L 405.075066 -194.286545 
L 405.114194 -196.730182 
L 405.13664 -199.173818 
L 405.149018 -201.617455 
L 405.155573 -204.061091 
L 405.158889 -206.504727 
L 405.160443 -208.948364 
L 405.16101 -211.392 
L 405.160898 -213.835636 
L 405.160071 -216.279273 
L 405.158144 -218.722909 
L 405.154286 -221.166545 
L 405.147016 -223.610182 
L 405.133909 -226.053818 
L 405.111226 -228.497455 
L 405.073539 -230.941091 
L 405.01345 -233.384727 
L 404.921562 -235.828364 
L 404.786905 -238.272 
L 404.597988 -240.715636 
L 404.344585 -243.159273 
L 404.020158 -245.602909 
L 403.624633 -248.046545 
L 403.166934 -250.490182 
L 402.66657 -252.933818 
L 402.153556 -255.377455 
L 401.666199 -257.821091 
L 401.246747 -260.264727 
L 400.935496 -262.708364 
L 400.764448 -265.152 
L 400.751893 -267.595636 
L 400.899194 -270.039273 
L 401.190539 -272.482909 
L 401.595737 -274.926545 
L 402.075369 -277.370182 
L 402.587076 -279.813818 
L 403.091608 -282.257455 
L 403.557466 -284.701091 
L 403.963457 -287.144727 
L 404.299088 -289.588364 
L 404.563191 -292.032 
L 405.760809 -292.032 
L 405.760809 -292.032 
L 406.024912 -289.588364 
L 406.360543 -287.144727 
L 406.766534 -284.701091 
L 407.232392 -282.257455 
L 407.736924 -279.813818 
L 408.248631 -277.370182 
L 408.728263 -274.926545 
L 409.133461 -272.482909 
L 409.424806 -270.039273 
L 409.572107 -267.595636 
L 409.559552 -265.152 
L 409.388504 -262.708364 
L 409.077253 -260.264727 
L 408.657801 -257.821091 
L 408.170444 -255.377455 
L 407.65743 -252.933818 
L 407.157066 -250.490182 
L 406.699367 -248.046545 
L 406.303842 -245.602909 
L 405.979415 -243.159273 
L 405.726012 -240.715636 
L 405.537095 -238.272 
L 405.402438 -235.828364 
L 405.31055 -233.384727 
L 405.250461 -230.941091 
L 405.212774 -228.497455 
L 405.190091 -226.053818 
L 405.176984 -223.610182 
L 405.169714 -221.166545 
L 405.165856 -218.722909 
L 405.163929 -216.279273 
L 405.163102 -213.835636 
L 405.16299 -211.392 
L 405.163557 -208.948364 
L 405.165111 -206.504727 
L 405.168427 -204.061091 
L 405.174982 -201.617455 
L 405.18736 -199.173818 
L 405.209806 -196.730182 
L 405.248934 -194.286545 
L 405.314507 -191.842909 
L 405.42012 -189.399273 
L 405.583548 -186.955636 
L 405.826433 -184.512 
L 406.172976 -182.068364 
L 406.647452 -179.624727 
L 407.270584 -177.181091 
L 408.05521 -174.737455 
L 409.002117 -172.293818 
L 410.097139 -169.850182 
L 411.310703 -167.406545 
L 412.600592 -164.962909 
L 413.917937 -162.519273 
L 415.215543 -160.075636 
L 416.456734 -157.632 
L 417.622525 -155.188364 
L 418.715062 -152.744727 
L 419.75614 -150.301091 
L 420.78083 -147.857455 
L 421.827514 -145.413818 
L 422.926577 -142.970182 
L 424.090312 -140.526545 
L 425.306391 -138.082909 
L 426.536476 -135.639273 
L 427.720696 -133.195636 
L 428.787723 -130.752 
L 429.669476 -128.308364 
L 430.318897 -125.864727 
L 430.729082 -123.421091 
L 430.952088 -120.977455 
L 431.116145 -118.533818 
L 431.440216 -116.090182 
L 432.244709 -113.646545 
L 433.956039 -111.202909 
L 437.100781 -108.759273 
L 442.282849 -106.315636 
L 450.135901 -103.872 
L 461.244794 -101.428364 
L 476.035622 -98.984727 
L 494.643923 -96.541091 
L 516.782938 -94.097455 
L 541.6444 -91.653818 
L 567.868348 -89.210182 
L 593.611626 -86.766545 
L 616.726168 -84.322909 
L 635.030994 -81.879273 
L 646.633501 -79.435636 
L 650.2356 -76.992 
L 645.356362 -74.548364 
L 632.418394 -72.104727 
L 612.676525 -69.661091 
L 588.005534 -67.217455 
L 560.596723 -64.773818 
L 532.631339 -62.330182 
L 505.997646 -59.886545 
L 482.100092 -57.442909 
L 461.780864 -54.999273 
L 445.345767 -52.555636 
L 432.665646 -50.112 
z
" id="m649ed05b8a" style="stroke:#4c4c4c;stroke-width:1.5;"/>
    </defs>
    <g clip-path="url(#p8745728ab9)">
     <use style="fill:#5875a4;stroke:#4c4c4c;stroke-width:1.5;" x="0" xlink:href="#m649ed05b8a" y="345.6"/>
    </g>
   </g>
   <g id="line2d_6">
    <path clip-path="url(#p8745728ab9)" d="M 405.162 270.019008 
L 405.162 262.227681 
" style="fill:none;stroke:#4c4c4c;stroke-linecap:round;stroke-width:1.5;"/>
   </g>
   <g id="line2d_7">
    <path clip-path="url(#p8745728ab9)" d="M 405.162 269.95259 
L 405.162 266.131008 
" style="fill:none;stroke:#4c4c4c;stroke-linecap:round;stroke-width:4.5;"/>
   </g>
   <g id="patch_3">
    <path d="M 98.82 307.584 
L 98.82 41.472 
" style="fill:none;stroke:#ffffff;stroke-linecap:square;stroke-linejoin:miter;stroke-width:1.25;"/>
   </g>
   <g id="patch_4">
    <path d="M 711.504 307.584 
L 711.504 41.472 
" style="fill:none;stroke:#ffffff;stroke-linecap:square;stroke-linejoin:miter;stroke-width:1.25;"/>
   </g>
   <g id="patch_5">
    <path d="M 98.82 307.584 
L 711.504 307.584 
" style="fill:none;stroke:#ffffff;stroke-linecap:square;stroke-linejoin:miter;stroke-width:1.25;"/>
   </g>
   <g id="patch_6">
    <path d="M 98.82 41.472 
L 711.504 41.472 
" style="fill:none;stroke:#ffffff;stroke-linecap:square;stroke-linejoin:miter;stroke-width:1.25;"/>
   </g>
   <g id="PathCollection_1">
    <defs>
     <path d="M 0 1.5 
C 0.397805 1.5 0.77937 1.341951 1.06066 1.06066 
C 1.341951 0.77937 1.5 0.397805 1.5 0 
C 1.5 -0.397805 1.341951 -0.77937 1.06066 -1.06066 
C 0.77937 -1.341951 0.397805 -1.5 0 -1.5 
C -0.397805 -1.5 -0.77937 -1.341951 -1.06066 -1.06066 
C -1.341951 -0.77937 -1.5 -0.397805 -1.5 0 
C -1.5 0.397805 -1.341951 0.77937 -1.06066 1.06066 
C -0.77937 1.341951 -0.397805 1.5 0 1.5 
z
" id="m135a987358" style="stroke:#4c4c4c;"/>
    </defs>
    <g clip-path="url(#p8745728ab9)">
     <use style="fill:#ffffff;stroke:#4c4c4c;" x="405.162" xlink:href="#m135a987358" y="269.191339"/>
    </g>
   </g>
   <g id="text_9">
    <!-- 03-aug2014.csv - Total number of transactions per shipping locality -->
    <g style="fill:#262626;" transform="translate(202.26075 35.472)scale(0.12 -0.12)">
     <defs>
      <path d="M 313 2009 
L 1997 2009 
L 1997 1497 
L 313 1497 
L 313 2009 
z
" id="DejaVuSans-2d" transform="scale(0.015625)"/>
      <path d="M 2906 1791 
Q 2906 2416 2648 2759 
Q 2391 3103 1925 3103 
Q 1463 3103 1205 2759 
Q 947 2416 947 1791 
Q 947 1169 1205 825 
Q 1463 481 1925 481 
Q 2391 481 2648 825 
Q 2906 1169 2906 1791 
z
M 3481 434 
Q 3481 -459 3084 -895 
Q 2688 -1331 1869 -1331 
Q 1566 -1331 1297 -1286 
Q 1028 -1241 775 -1147 
L 775 -588 
Q 1028 -725 1275 -790 
Q 1522 -856 1778 -856 
Q 2344 -856 2625 -561 
Q 2906 -266 2906 331 
L 2906 616 
Q 2728 306 2450 153 
Q 2172 0 1784 0 
Q 1141 0 747 490 
Q 353 981 353 1791 
Q 353 2603 747 3093 
Q 1141 3584 1784 3584 
Q 2172 3584 2450 3431 
Q 2728 3278 2906 2969 
L 2906 3500 
L 3481 3500 
L 3481 434 
z
" id="DejaVuSans-67" transform="scale(0.015625)"/>
      <path d="M 684 794 
L 1344 794 
L 1344 0 
L 684 0 
L 684 794 
z
" id="DejaVuSans-2e" transform="scale(0.015625)"/>
      <path d="M 191 3500 
L 800 3500 
L 1894 563 
L 2988 3500 
L 3597 3500 
L 2284 0 
L 1503 0 
L 191 3500 
z
" id="DejaVuSans-76" transform="scale(0.015625)"/>
      <path d="M 1159 525 
L 1159 -1331 
L 581 -1331 
L 581 3500 
L 1159 3500 
L 1159 2969 
Q 1341 3281 1617 3432 
Q 1894 3584 2278 3584 
Q 2916 3584 3314 3078 
Q 3713 2572 3713 1747 
Q 3713 922 3314 415 
Q 2916 -91 2278 -91 
Q 1894 -91 1617 61 
Q 1341 213 1159 525 
z
M 3116 1747 
Q 3116 2381 2855 2742 
Q 2594 3103 2138 3103 
Q 1681 3103 1420 2742 
Q 1159 2381 1159 1747 
Q 1159 1113 1420 752 
Q 1681 391 2138 391 
Q 2594 391 2855 752 
Q 3116 1113 3116 1747 
z
" id="DejaVuSans-70" transform="scale(0.015625)"/>
      <path d="M 3513 2113 
L 3513 0 
L 2938 0 
L 2938 2094 
Q 2938 2591 2744 2837 
Q 2550 3084 2163 3084 
Q 1697 3084 1428 2787 
Q 1159 2491 1159 1978 
L 1159 0 
L 581 0 
L 581 4863 
L 1159 4863 
L 1159 2956 
Q 1366 3272 1645 3428 
Q 1925 3584 2291 3584 
Q 2894 3584 3203 3211 
Q 3513 2838 3513 2113 
z
" id="DejaVuSans-68" transform="scale(0.015625)"/>
      <path d="M 2059 -325 
Q 1816 -950 1584 -1140 
Q 1353 -1331 966 -1331 
L 506 -1331 
L 506 -850 
L 844 -850 
Q 1081 -850 1212 -737 
Q 1344 -625 1503 -206 
L 1606 56 
L 191 3500 
L 800 3500 
L 1894 763 
L 2988 3500 
L 3597 3500 
L 2059 -325 
z
" id="DejaVuSans-79" transform="scale(0.015625)"/>
     </defs>
     <use xlink:href="#DejaVuSans-30"/>
     <use x="63.623047" xlink:href="#DejaVuSans-33"/>
     <use x="127.246094" xlink:href="#DejaVuSans-2d"/>
     <use x="163.330078" xlink:href="#DejaVuSans-61"/>
     <use x="224.609375" xlink:href="#DejaVuSans-75"/>
     <use x="287.988281" xlink:href="#DejaVuSans-67"/>
     <use x="351.464844" xlink:href="#DejaVuSans-32"/>
     <use x="415.087891" xlink:href="#DejaVuSans-30"/>
     <use x="478.710938" xlink:href="#DejaVuSans-31"/>
     <use x="542.333984" xlink:href="#DejaVuSans-34"/>
     <use x="605.957031" xlink:href="#DejaVuSans-2e"/>
     <use x="637.744141" xlink:href="#DejaVuSans-63"/>
     <use x="692.724609" xlink:href="#DejaVuSans-73"/>
     <use x="744.824219" xlink:href="#DejaVuSans-76"/>
     <use x="804.003906" xlink:href="#DejaVuSans-20"/>
     <use x="835.791016" xlink:href="#DejaVuSans-2d"/>
     <use x="871.875" xlink:href="#DejaVuSans-20"/>
     <use x="903.662109" xlink:href="#DejaVuSans-54"/>
     <use x="947.746094" xlink:href="#DejaVuSans-6f"/>
     <use x="1008.927734" xlink:href="#DejaVuSans-74"/>
     <use x="1048.136719" xlink:href="#DejaVuSans-61"/>
     <use x="1109.416016" xlink:href="#DejaVuSans-6c"/>
     <use x="1137.199219" xlink:href="#DejaVuSans-20"/>
     <use x="1168.986328" xlink:href="#DejaVuSans-6e"/>
     <use x="1232.365234" xlink:href="#DejaVuSans-75"/>
     <use x="1295.744141" xlink:href="#DejaVuSans-6d"/>
     <use x="1393.15625" xlink:href="#DejaVuSans-62"/>
     <use x="1456.632812" xlink:href="#DejaVuSans-65"/>
     <use x="1518.15625" xlink:href="#DejaVuSans-72"/>
     <use x="1559.269531" xlink:href="#DejaVuSans-20"/>
     <use x="1591.056641" xlink:href="#DejaVuSans-6f"/>
     <use x="1652.238281" xlink:href="#DejaVuSans-66"/>
     <use x="1687.443359" xlink:href="#DejaVuSans-20"/>
     <use x="1719.230469" xlink:href="#DejaVuSans-74"/>
     <use x="1758.439453" xlink:href="#DejaVuSans-72"/>
     <use x="1799.552734" xlink:href="#DejaVuSans-61"/>
     <use x="1860.832031" xlink:href="#DejaVuSans-6e"/>
     <use x="1924.210938" xlink:href="#DejaVuSans-73"/>
     <use x="1976.310547" xlink:href="#DejaVuSans-61"/>
     <use x="2037.589844" xlink:href="#DejaVuSans-63"/>
     <use x="2092.570312" xlink:href="#DejaVuSans-74"/>
     <use x="2131.779297" xlink:href="#DejaVuSans-69"/>
     <use x="2159.5625" xlink:href="#DejaVuSans-6f"/>
     <use x="2220.744141" xlink:href="#DejaVuSans-6e"/>
     <use x="2284.123047" xlink:href="#DejaVuSans-73"/>
     <use x="2336.222656" xlink:href="#DejaVuSans-20"/>
     <use x="2368.009766" xlink:href="#DejaVuSans-70"/>
     <use x="2431.486328" xlink:href="#DejaVuSans-65"/>
     <use x="2493.009766" xlink:href="#DejaVuSans-72"/>
     <use x="2534.123047" xlink:href="#DejaVuSans-20"/>
     <use x="2565.910156" xlink:href="#DejaVuSans-73"/>
     <use x="2618.009766" xlink:href="#DejaVuSans-68"/>
     <use x="2681.388672" xlink:href="#DejaVuSans-69"/>
     <use x="2709.171875" xlink:href="#DejaVuSans-70"/>
     <use x="2772.648438" xlink:href="#DejaVuSans-70"/>
     <use x="2836.125" xlink:href="#DejaVuSans-69"/>
     <use x="2863.908203" xlink:href="#DejaVuSans-6e"/>
     <use x="2927.287109" xlink:href="#DejaVuSans-67"/>
     <use x="2990.763672" xlink:href="#DejaVuSans-20"/>
     <use x="3022.550781" xlink:href="#DejaVuSans-6c"/>
     <use x="3050.333984" xlink:href="#DejaVuSans-6f"/>
     <use x="3111.515625" xlink:href="#DejaVuSans-63"/>
     <use x="3166.496094" xlink:href="#DejaVuSans-61"/>
     <use x="3227.775391" xlink:href="#DejaVuSans-6c"/>
     <use x="3255.558594" xlink:href="#DejaVuSans-69"/>
     <use x="3283.341797" xlink:href="#DejaVuSans-74"/>
     <use x="3322.550781" xlink:href="#DejaVuSans-79"/>
    </g>
   </g>
  </g>
 </g>
 <defs>
  <clipPath id="p8745728ab9">
   <rect height="266.112" width="612.684" x="98.82" y="41.472"/>
  </clipPath>
 </defs>
</svg>
