<?xml version="1.0" encoding="utf-8" standalone="no"?>
<!DOCTYPE svg PUBLIC "-//W3C//DTD SVG 1.1//EN"
  "http://www.w3.org/Graphics/SVG/1.1/DTD/svg11.dtd">
<svg height="345.6pt" version="1.1" viewBox="0 0 792 345.6" width="792pt" xmlns="http://www.w3.org/2000/svg" xmlns:xlink="http://www.w3.org/1999/xlink">
 <metadata>
  <rdf:RDF xmlns:cc="http://creativecommons.org/ns#" xmlns:dc="http://purl.org/dc/elements/1.1/" xmlns:rdf="http://www.w3.org/1999/02/22-rdf-syntax-ns#">
   <cc:Work>
    <dc:type rdf:resource="http://purl.org/dc/dcmitype/StillImage"/>
    <dc:date>2021-07-11T13:42:05.205336</dc:date>
    <dc:format>image/svg+xml</dc:format>
    <dc:creator>
     <cc:Agent>
      <dc:title>Matplotlib v3.4.2, https://matplotlib.org/</dc:title>
     </cc:Agent>
    </dc:creator>
   </cc:Work>
  </rdf:RDF>
 </metadata>
 <defs>
  <style type="text/css">*{stroke-linecap:butt;stroke-linejoin:round;}</style>
 </defs>
 <g id="figure_1">
  <g id="patch_1">
   <path d="M 0 345.6 
L 792 345.6 
L 792 0 
L 0 0 
z
" style="fill:#ffffff;"/>
  </g>
  <g id="axes_1">
   <g id="patch_2">
    <path d="M 99 307.584 
L 712.8 307.584 
L 712.8 41.472 
L 99 41.472 
z
" style="fill:#eaeaf2;"/>
   </g>
   <g id="matplotlib.axis_1">
    <g id="xtick_1">
     <g id="text_1">
      <!-- transactions -->
      <g style="fill:#262626;" transform="translate(371.966719 325.442281)scale(0.11 -0.11)">
       <defs>
        <path d="M 1172 4494 
L 1172 3500 
L 2356 3500 
L 2356 3053 
L 1172 3053 
L 1172 1153 
Q 1172 725 1289 603 
Q 1406 481 1766 481 
L 2356 481 
L 2356 0 
L 1766 0 
Q 1100 0 847 248 
Q 594 497 594 1153 
L 594 3053 
L 172 3053 
L 172 3500 
L 594 3500 
L 594 4494 
L 1172 4494 
z
" id="DejaVuSans-74" transform="scale(0.015625)"/>
        <path d="M 2631 2963 
Q 2534 3019 2420 3045 
Q 2306 3072 2169 3072 
Q 1681 3072 1420 2755 
Q 1159 2438 1159 1844 
L 1159 0 
L 581 0 
L 581 3500 
L 1159 3500 
L 1159 2956 
Q 1341 3275 1631 3429 
Q 1922 3584 2338 3584 
Q 2397 3584 2469 3576 
Q 2541 3569 2628 3553 
L 2631 2963 
z
" id="DejaVuSans-72" transform="scale(0.015625)"/>
        <path d="M 2194 1759 
Q 1497 1759 1228 1600 
Q 959 1441 959 1056 
Q 959 750 1161 570 
Q 1363 391 1709 391 
Q 2188 391 2477 730 
Q 2766 1069 2766 1631 
L 2766 1759 
L 2194 1759 
z
M 3341 1997 
L 3341 0 
L 2766 0 
L 2766 531 
Q 2569 213 2275 61 
Q 1981 -91 1556 -91 
Q 1019 -91 701 211 
Q 384 513 384 1019 
Q 384 1609 779 1909 
Q 1175 2209 1959 2209 
L 2766 2209 
L 2766 2266 
Q 2766 2663 2505 2880 
Q 2244 3097 1772 3097 
Q 1472 3097 1187 3025 
Q 903 2953 641 2809 
L 641 3341 
Q 956 3463 1253 3523 
Q 1550 3584 1831 3584 
Q 2591 3584 2966 3190 
Q 3341 2797 3341 1997 
z
" id="DejaVuSans-61" transform="scale(0.015625)"/>
        <path d="M 3513 2113 
L 3513 0 
L 2938 0 
L 2938 2094 
Q 2938 2591 2744 2837 
Q 2550 3084 2163 3084 
Q 1697 3084 1428 2787 
Q 1159 2491 1159 1978 
L 1159 0 
L 581 0 
L 581 3500 
L 1159 3500 
L 1159 2956 
Q 1366 3272 1645 3428 
Q 1925 3584 2291 3584 
Q 2894 3584 3203 3211 
Q 3513 2838 3513 2113 
z
" id="DejaVuSans-6e" transform="scale(0.015625)"/>
        <path d="M 2834 3397 
L 2834 2853 
Q 2591 2978 2328 3040 
Q 2066 3103 1784 3103 
Q 1356 3103 1142 2972 
Q 928 2841 928 2578 
Q 928 2378 1081 2264 
Q 1234 2150 1697 2047 
L 1894 2003 
Q 2506 1872 2764 1633 
Q 3022 1394 3022 966 
Q 3022 478 2636 193 
Q 2250 -91 1575 -91 
Q 1294 -91 989 -36 
Q 684 19 347 128 
L 347 722 
Q 666 556 975 473 
Q 1284 391 1588 391 
Q 1994 391 2212 530 
Q 2431 669 2431 922 
Q 2431 1156 2273 1281 
Q 2116 1406 1581 1522 
L 1381 1569 
Q 847 1681 609 1914 
Q 372 2147 372 2553 
Q 372 3047 722 3315 
Q 1072 3584 1716 3584 
Q 2034 3584 2315 3537 
Q 2597 3491 2834 3397 
z
" id="DejaVuSans-73" transform="scale(0.015625)"/>
        <path d="M 3122 3366 
L 3122 2828 
Q 2878 2963 2633 3030 
Q 2388 3097 2138 3097 
Q 1578 3097 1268 2742 
Q 959 2388 959 1747 
Q 959 1106 1268 751 
Q 1578 397 2138 397 
Q 2388 397 2633 464 
Q 2878 531 3122 666 
L 3122 134 
Q 2881 22 2623 -34 
Q 2366 -91 2075 -91 
Q 1284 -91 818 406 
Q 353 903 353 1747 
Q 353 2603 823 3093 
Q 1294 3584 2113 3584 
Q 2378 3584 2631 3529 
Q 2884 3475 3122 3366 
z
" id="DejaVuSans-63" transform="scale(0.015625)"/>
        <path d="M 603 3500 
L 1178 3500 
L 1178 0 
L 603 0 
L 603 3500 
z
M 603 4863 
L 1178 4863 
L 1178 4134 
L 603 4134 
L 603 4863 
z
" id="DejaVuSans-69" transform="scale(0.015625)"/>
        <path d="M 1959 3097 
Q 1497 3097 1228 2736 
Q 959 2375 959 1747 
Q 959 1119 1226 758 
Q 1494 397 1959 397 
Q 2419 397 2687 759 
Q 2956 1122 2956 1747 
Q 2956 2369 2687 2733 
Q 2419 3097 1959 3097 
z
M 1959 3584 
Q 2709 3584 3137 3096 
Q 3566 2609 3566 1747 
Q 3566 888 3137 398 
Q 2709 -91 1959 -91 
Q 1206 -91 779 398 
Q 353 888 353 1747 
Q 353 2609 779 3096 
Q 1206 3584 1959 3584 
z
" id="DejaVuSans-6f" transform="scale(0.015625)"/>
       </defs>
       <use xlink:href="#DejaVuSans-74"/>
       <use x="39.208984" xlink:href="#DejaVuSans-72"/>
       <use x="80.322266" xlink:href="#DejaVuSans-61"/>
       <use x="141.601562" xlink:href="#DejaVuSans-6e"/>
       <use x="204.980469" xlink:href="#DejaVuSans-73"/>
       <use x="257.080078" xlink:href="#DejaVuSans-61"/>
       <use x="318.359375" xlink:href="#DejaVuSans-63"/>
       <use x="373.339844" xlink:href="#DejaVuSans-74"/>
       <use x="412.548828" xlink:href="#DejaVuSans-69"/>
       <use x="440.332031" xlink:href="#DejaVuSans-6f"/>
       <use x="501.513672" xlink:href="#DejaVuSans-6e"/>
       <use x="564.892578" xlink:href="#DejaVuSans-73"/>
      </g>
     </g>
    </g>
    <g id="text_2">
     <!-- x -->
     <g style="fill:#262626;" transform="translate(402.34875 340.848062)scale(0.12 -0.12)">
      <defs>
       <path d="M 3513 3500 
L 2247 1797 
L 3578 0 
L 2900 0 
L 1881 1375 
L 863 0 
L 184 0 
L 1544 1831 
L 300 3500 
L 978 3500 
L 1906 2253 
L 2834 3500 
L 3513 3500 
z
" id="DejaVuSans-78" transform="scale(0.015625)"/>
      </defs>
      <use xlink:href="#DejaVuSans-78"/>
     </g>
    </g>
   </g>
   <g id="matplotlib.axis_2">
    <g id="ytick_1">
     <g id="line2d_1">
      <path clip-path="url(#p4d7ccbb656)" d="M 99 269.136029 
L 712.8 269.136029 
" style="fill:none;stroke:#ffffff;stroke-linecap:round;"/>
     </g>
     <g id="text_3">
      <!-- 0 -->
      <g style="fill:#262626;" transform="translate(82.50125 273.31517)scale(0.11 -0.11)">
       <defs>
        <path d="M 2034 4250 
Q 1547 4250 1301 3770 
Q 1056 3291 1056 2328 
Q 1056 1369 1301 889 
Q 1547 409 2034 409 
Q 2525 409 2770 889 
Q 3016 1369 3016 2328 
Q 3016 3291 2770 3770 
Q 2525 4250 2034 4250 
z
M 2034 4750 
Q 2819 4750 3233 4129 
Q 3647 3509 3647 2328 
Q 3647 1150 3233 529 
Q 2819 -91 2034 -91 
Q 1250 -91 836 529 
Q 422 1150 422 2328 
Q 422 3509 836 4129 
Q 1250 4750 2034 4750 
z
" id="DejaVuSans-30" transform="scale(0.015625)"/>
       </defs>
       <use xlink:href="#DejaVuSans-30"/>
      </g>
     </g>
    </g>
    <g id="ytick_2">
     <g id="line2d_2">
      <path clip-path="url(#p4d7ccbb656)" d="M 99 212.906238 
L 712.8 212.906238 
" style="fill:none;stroke:#ffffff;stroke-linecap:round;"/>
     </g>
     <g id="text_4">
      <!-- 20000 -->
      <g style="fill:#262626;" transform="translate(54.50625 217.085379)scale(0.11 -0.11)">
       <defs>
        <path d="M 1228 531 
L 3431 531 
L 3431 0 
L 469 0 
L 469 531 
Q 828 903 1448 1529 
Q 2069 2156 2228 2338 
Q 2531 2678 2651 2914 
Q 2772 3150 2772 3378 
Q 2772 3750 2511 3984 
Q 2250 4219 1831 4219 
Q 1534 4219 1204 4116 
Q 875 4013 500 3803 
L 500 4441 
Q 881 4594 1212 4672 
Q 1544 4750 1819 4750 
Q 2544 4750 2975 4387 
Q 3406 4025 3406 3419 
Q 3406 3131 3298 2873 
Q 3191 2616 2906 2266 
Q 2828 2175 2409 1742 
Q 1991 1309 1228 531 
z
" id="DejaVuSans-32" transform="scale(0.015625)"/>
       </defs>
       <use xlink:href="#DejaVuSans-32"/>
       <use x="63.623047" xlink:href="#DejaVuSans-30"/>
       <use x="127.246094" xlink:href="#DejaVuSans-30"/>
       <use x="190.869141" xlink:href="#DejaVuSans-30"/>
       <use x="254.492188" xlink:href="#DejaVuSans-30"/>
      </g>
     </g>
    </g>
    <g id="ytick_3">
     <g id="line2d_3">
      <path clip-path="url(#p4d7ccbb656)" d="M 99 156.676447 
L 712.8 156.676447 
" style="fill:none;stroke:#ffffff;stroke-linecap:round;"/>
     </g>
     <g id="text_5">
      <!-- 40000 -->
      <g style="fill:#262626;" transform="translate(54.50625 160.855588)scale(0.11 -0.11)">
       <defs>
        <path d="M 2419 4116 
L 825 1625 
L 2419 1625 
L 2419 4116 
z
M 2253 4666 
L 3047 4666 
L 3047 1625 
L 3713 1625 
L 3713 1100 
L 3047 1100 
L 3047 0 
L 2419 0 
L 2419 1100 
L 313 1100 
L 313 1709 
L 2253 4666 
z
" id="DejaVuSans-34" transform="scale(0.015625)"/>
       </defs>
       <use xlink:href="#DejaVuSans-34"/>
       <use x="63.623047" xlink:href="#DejaVuSans-30"/>
       <use x="127.246094" xlink:href="#DejaVuSans-30"/>
       <use x="190.869141" xlink:href="#DejaVuSans-30"/>
       <use x="254.492188" xlink:href="#DejaVuSans-30"/>
      </g>
     </g>
    </g>
    <g id="ytick_4">
     <g id="line2d_4">
      <path clip-path="url(#p4d7ccbb656)" d="M 99 100.446656 
L 712.8 100.446656 
" style="fill:none;stroke:#ffffff;stroke-linecap:round;"/>
     </g>
     <g id="text_6">
      <!-- 60000 -->
      <g style="fill:#262626;" transform="translate(54.50625 104.625797)scale(0.11 -0.11)">
       <defs>
        <path d="M 2113 2584 
Q 1688 2584 1439 2293 
Q 1191 2003 1191 1497 
Q 1191 994 1439 701 
Q 1688 409 2113 409 
Q 2538 409 2786 701 
Q 3034 994 3034 1497 
Q 3034 2003 2786 2293 
Q 2538 2584 2113 2584 
z
M 3366 4563 
L 3366 3988 
Q 3128 4100 2886 4159 
Q 2644 4219 2406 4219 
Q 1781 4219 1451 3797 
Q 1122 3375 1075 2522 
Q 1259 2794 1537 2939 
Q 1816 3084 2150 3084 
Q 2853 3084 3261 2657 
Q 3669 2231 3669 1497 
Q 3669 778 3244 343 
Q 2819 -91 2113 -91 
Q 1303 -91 875 529 
Q 447 1150 447 2328 
Q 447 3434 972 4092 
Q 1497 4750 2381 4750 
Q 2619 4750 2861 4703 
Q 3103 4656 3366 4563 
z
" id="DejaVuSans-36" transform="scale(0.015625)"/>
       </defs>
       <use xlink:href="#DejaVuSans-36"/>
       <use x="63.623047" xlink:href="#DejaVuSans-30"/>
       <use x="127.246094" xlink:href="#DejaVuSans-30"/>
       <use x="190.869141" xlink:href="#DejaVuSans-30"/>
       <use x="254.492188" xlink:href="#DejaVuSans-30"/>
      </g>
     </g>
    </g>
    <g id="ytick_5">
     <g id="line2d_5">
      <path clip-path="url(#p4d7ccbb656)" d="M 99 44.216865 
L 712.8 44.216865 
" style="fill:none;stroke:#ffffff;stroke-linecap:round;"/>
     </g>
     <g id="text_7">
      <!-- 80000 -->
      <g style="fill:#262626;" transform="translate(54.50625 48.396005)scale(0.11 -0.11)">
       <defs>
        <path d="M 2034 2216 
Q 1584 2216 1326 1975 
Q 1069 1734 1069 1313 
Q 1069 891 1326 650 
Q 1584 409 2034 409 
Q 2484 409 2743 651 
Q 3003 894 3003 1313 
Q 3003 1734 2745 1975 
Q 2488 2216 2034 2216 
z
M 1403 2484 
Q 997 2584 770 2862 
Q 544 3141 544 3541 
Q 544 4100 942 4425 
Q 1341 4750 2034 4750 
Q 2731 4750 3128 4425 
Q 3525 4100 3525 3541 
Q 3525 3141 3298 2862 
Q 3072 2584 2669 2484 
Q 3125 2378 3379 2068 
Q 3634 1759 3634 1313 
Q 3634 634 3220 271 
Q 2806 -91 2034 -91 
Q 1263 -91 848 271 
Q 434 634 434 1313 
Q 434 1759 690 2068 
Q 947 2378 1403 2484 
z
M 1172 3481 
Q 1172 3119 1398 2916 
Q 1625 2713 2034 2713 
Q 2441 2713 2670 2916 
Q 2900 3119 2900 3481 
Q 2900 3844 2670 4047 
Q 2441 4250 2034 4250 
Q 1625 4250 1398 4047 
Q 1172 3844 1172 3481 
z
" id="DejaVuSans-38" transform="scale(0.015625)"/>
       </defs>
       <use xlink:href="#DejaVuSans-38"/>
       <use x="63.623047" xlink:href="#DejaVuSans-30"/>
       <use x="127.246094" xlink:href="#DejaVuSans-30"/>
       <use x="190.869141" xlink:href="#DejaVuSans-30"/>
       <use x="254.492188" xlink:href="#DejaVuSans-30"/>
      </g>
     </g>
    </g>
    <g id="text_8">
     <!-- Total number of transactions -->
     <g style="fill:#262626;" transform="translate(48.010625 260.478937)rotate(-90)scale(0.12 -0.12)">
      <defs>
       <path d="M -19 4666 
L 3928 4666 
L 3928 4134 
L 2272 4134 
L 2272 0 
L 1638 0 
L 1638 4134 
L -19 4134 
L -19 4666 
z
" id="DejaVuSans-54" transform="scale(0.015625)"/>
       <path d="M 603 4863 
L 1178 4863 
L 1178 0 
L 603 0 
L 603 4863 
z
" id="DejaVuSans-6c" transform="scale(0.015625)"/>
       <path id="DejaVuSans-20" transform="scale(0.015625)"/>
       <path d="M 544 1381 
L 544 3500 
L 1119 3500 
L 1119 1403 
Q 1119 906 1312 657 
Q 1506 409 1894 409 
Q 2359 409 2629 706 
Q 2900 1003 2900 1516 
L 2900 3500 
L 3475 3500 
L 3475 0 
L 2900 0 
L 2900 538 
Q 2691 219 2414 64 
Q 2138 -91 1772 -91 
Q 1169 -91 856 284 
Q 544 659 544 1381 
z
M 1991 3584 
L 1991 3584 
z
" id="DejaVuSans-75" transform="scale(0.015625)"/>
       <path d="M 3328 2828 
Q 3544 3216 3844 3400 
Q 4144 3584 4550 3584 
Q 5097 3584 5394 3201 
Q 5691 2819 5691 2113 
L 5691 0 
L 5113 0 
L 5113 2094 
Q 5113 2597 4934 2840 
Q 4756 3084 4391 3084 
Q 3944 3084 3684 2787 
Q 3425 2491 3425 1978 
L 3425 0 
L 2847 0 
L 2847 2094 
Q 2847 2600 2669 2842 
Q 2491 3084 2119 3084 
Q 1678 3084 1418 2786 
Q 1159 2488 1159 1978 
L 1159 0 
L 581 0 
L 581 3500 
L 1159 3500 
L 1159 2956 
Q 1356 3278 1631 3431 
Q 1906 3584 2284 3584 
Q 2666 3584 2933 3390 
Q 3200 3197 3328 2828 
z
" id="DejaVuSans-6d" transform="scale(0.015625)"/>
       <path d="M 3116 1747 
Q 3116 2381 2855 2742 
Q 2594 3103 2138 3103 
Q 1681 3103 1420 2742 
Q 1159 2381 1159 1747 
Q 1159 1113 1420 752 
Q 1681 391 2138 391 
Q 2594 391 2855 752 
Q 3116 1113 3116 1747 
z
M 1159 2969 
Q 1341 3281 1617 3432 
Q 1894 3584 2278 3584 
Q 2916 3584 3314 3078 
Q 3713 2572 3713 1747 
Q 3713 922 3314 415 
Q 2916 -91 2278 -91 
Q 1894 -91 1617 61 
Q 1341 213 1159 525 
L 1159 0 
L 581 0 
L 581 4863 
L 1159 4863 
L 1159 2969 
z
" id="DejaVuSans-62" transform="scale(0.015625)"/>
       <path d="M 3597 1894 
L 3597 1613 
L 953 1613 
Q 991 1019 1311 708 
Q 1631 397 2203 397 
Q 2534 397 2845 478 
Q 3156 559 3463 722 
L 3463 178 
Q 3153 47 2828 -22 
Q 2503 -91 2169 -91 
Q 1331 -91 842 396 
Q 353 884 353 1716 
Q 353 2575 817 3079 
Q 1281 3584 2069 3584 
Q 2775 3584 3186 3129 
Q 3597 2675 3597 1894 
z
M 3022 2063 
Q 3016 2534 2758 2815 
Q 2500 3097 2075 3097 
Q 1594 3097 1305 2825 
Q 1016 2553 972 2059 
L 3022 2063 
z
" id="DejaVuSans-65" transform="scale(0.015625)"/>
       <path d="M 2375 4863 
L 2375 4384 
L 1825 4384 
Q 1516 4384 1395 4259 
Q 1275 4134 1275 3809 
L 1275 3500 
L 2222 3500 
L 2222 3053 
L 1275 3053 
L 1275 0 
L 697 0 
L 697 3053 
L 147 3053 
L 147 3500 
L 697 3500 
L 697 3744 
Q 697 4328 969 4595 
Q 1241 4863 1831 4863 
L 2375 4863 
z
" id="DejaVuSans-66" transform="scale(0.015625)"/>
      </defs>
      <use xlink:href="#DejaVuSans-54"/>
      <use x="44.083984" xlink:href="#DejaVuSans-6f"/>
      <use x="105.265625" xlink:href="#DejaVuSans-74"/>
      <use x="144.474609" xlink:href="#DejaVuSans-61"/>
      <use x="205.753906" xlink:href="#DejaVuSans-6c"/>
      <use x="233.537109" xlink:href="#DejaVuSans-20"/>
      <use x="265.324219" xlink:href="#DejaVuSans-6e"/>
      <use x="328.703125" xlink:href="#DejaVuSans-75"/>
      <use x="392.082031" xlink:href="#DejaVuSans-6d"/>
      <use x="489.494141" xlink:href="#DejaVuSans-62"/>
      <use x="552.970703" xlink:href="#DejaVuSans-65"/>
      <use x="614.494141" xlink:href="#DejaVuSans-72"/>
      <use x="655.607422" xlink:href="#DejaVuSans-20"/>
      <use x="687.394531" xlink:href="#DejaVuSans-6f"/>
      <use x="748.576172" xlink:href="#DejaVuSans-66"/>
      <use x="783.78125" xlink:href="#DejaVuSans-20"/>
      <use x="815.568359" xlink:href="#DejaVuSans-74"/>
      <use x="854.777344" xlink:href="#DejaVuSans-72"/>
      <use x="895.890625" xlink:href="#DejaVuSans-61"/>
      <use x="957.169922" xlink:href="#DejaVuSans-6e"/>
      <use x="1020.548828" xlink:href="#DejaVuSans-73"/>
      <use x="1072.648438" xlink:href="#DejaVuSans-61"/>
      <use x="1133.927734" xlink:href="#DejaVuSans-63"/>
      <use x="1188.908203" xlink:href="#DejaVuSans-74"/>
      <use x="1228.117188" xlink:href="#DejaVuSans-69"/>
      <use x="1255.900391" xlink:href="#DejaVuSans-6f"/>
      <use x="1317.082031" xlink:href="#DejaVuSans-6e"/>
      <use x="1380.460938" xlink:href="#DejaVuSans-73"/>
     </g>
    </g>
   </g>
   <g id="PolyCollection_1">
    <defs>
     <path d="M 433.548177 -50.112 
L 378.251823 -50.112 
L 365.972232 -52.555636 
L 350.162368 -54.999273 
L 330.685847 -57.442909 
L 307.783356 -59.886545 
L 282.164381 -62.330182 
L 255.039392 -64.773818 
L 228.067672 -67.217455 
L 203.210846 -69.661091 
L 182.503681 -72.104727 
L 167.776425 -74.548364 
L 160.38 -76.992 
L 160.970592 -79.435636 
L 169.400656 -81.879273 
L 184.7409 -84.322909 
L 205.428349 -86.766545 
L 229.507672 -89.210182 
L 254.914392 -91.653818 
L 279.743989 -94.097455 
L 302.460359 -96.541091 
L 322.016281 -98.984727 
L 337.881057 -101.428364 
L 349.989828 -103.872 
L 358.640971 -106.315636 
L 364.371098 -108.759273 
L 367.833124 -111.202909 
L 369.694561 -113.646545 
L 370.564083 -116.090182 
L 370.946922 -118.533818 
L 371.224981 -120.977455 
L 371.655662 -123.421091 
L 372.3835 -125.864727 
L 373.459734 -128.308364 
L 374.866041 -130.752 
L 376.539504 -133.195636 
L 378.396291 -135.639273 
L 380.351788 -138.082909 
L 382.335337 -140.526545 
L 384.298422 -142.970182 
L 386.216136 -145.413818 
L 388.082953 -147.857455 
L 389.904746 -150.301091 
L 391.689623 -152.744727 
L 393.440037 -155.188364 
L 395.148023 -157.632 
L 396.794366 -160.075636 
L 398.351364 -162.519273 
L 399.787995 -164.962909 
L 401.075817 -167.406545 
L 402.194057 -169.850182 
L 403.132759 -172.293818 
L 403.893603 -174.737455 
L 404.488609 -177.181091 
L 404.937389 -179.624727 
L 405.263792 -182.068364 
L 405.492704 -184.512 
L 405.647514 -186.955636 
L 405.748483 -189.399273 
L 405.811998 -191.842909 
L 405.85054 -194.286545 
L 405.873101 -196.730182 
L 405.885838 -199.173818 
L 405.892765 -201.617455 
L 405.896368 -204.061091 
L 405.898104 -206.504727 
L 405.898749 -208.948364 
L 405.898617 -211.392 
L 405.897664 -213.835636 
L 405.895483 -216.279273 
L 405.891205 -218.722909 
L 405.88331 -221.166545 
L 405.869344 -223.610182 
L 405.845571 -226.053818 
L 405.806621 -228.497455 
L 405.745205 -230.941091 
L 405.652063 -233.384727 
L 405.516287 -235.828364 
L 405.326217 -238.272 
L 405.070974 -240.715636 
L 404.742647 -243.159273 
L 404.338861 -245.602909 
L 403.865323 -248.046545 
L 403.337716 -250.490182 
L 402.78228 -252.933818 
L 402.234571 -255.377455 
L 401.736194 -257.821091 
L 401.329812 -260.264727 
L 401.053193 -262.708364 
L 400.933445 -265.152 
L 400.982631 -267.595636 
L 401.195772 -270.039273 
L 401.551677 -272.482909 
L 402.016411 -274.926545 
L 402.548628 -277.370182 
L 403.105591 -279.813818 
L 403.64869 -282.257455 
L 404.147497 -284.701091 
L 404.581865 -287.144727 
L 404.942058 -289.588364 
L 405.227339 -292.032 
L 406.572661 -292.032 
L 406.572661 -292.032 
L 406.857942 -289.588364 
L 407.218135 -287.144727 
L 407.652503 -284.701091 
L 408.15131 -282.257455 
L 408.694409 -279.813818 
L 409.251372 -277.370182 
L 409.783589 -274.926545 
L 410.248323 -272.482909 
L 410.604228 -270.039273 
L 410.817369 -267.595636 
L 410.866555 -265.152 
L 410.746807 -262.708364 
L 410.470188 -260.264727 
L 410.063806 -257.821091 
L 409.565429 -255.377455 
L 409.01772 -252.933818 
L 408.462284 -250.490182 
L 407.934677 -248.046545 
L 407.461139 -245.602909 
L 407.057353 -243.159273 
L 406.729026 -240.715636 
L 406.473783 -238.272 
L 406.283713 -235.828364 
L 406.147937 -233.384727 
L 406.054795 -230.941091 
L 405.993379 -228.497455 
L 405.954429 -226.053818 
L 405.930656 -223.610182 
L 405.91669 -221.166545 
L 405.908795 -218.722909 
L 405.904517 -216.279273 
L 405.902336 -213.835636 
L 405.901383 -211.392 
L 405.901251 -208.948364 
L 405.901896 -206.504727 
L 405.903632 -204.061091 
L 405.907235 -201.617455 
L 405.914162 -199.173818 
L 405.926899 -196.730182 
L 405.94946 -194.286545 
L 405.988002 -191.842909 
L 406.051517 -189.399273 
L 406.152486 -186.955636 
L 406.307296 -184.512 
L 406.536208 -182.068364 
L 406.862611 -179.624727 
L 407.311391 -177.181091 
L 407.906397 -174.737455 
L 408.667241 -172.293818 
L 409.605943 -169.850182 
L 410.724183 -167.406545 
L 412.012005 -164.962909 
L 413.448636 -162.519273 
L 415.005634 -160.075636 
L 416.651977 -157.632 
L 418.359963 -155.188364 
L 420.110377 -152.744727 
L 421.895254 -150.301091 
L 423.717047 -147.857455 
L 425.583864 -145.413818 
L 427.501578 -142.970182 
L 429.464663 -140.526545 
L 431.448212 -138.082909 
L 433.403709 -135.639273 
L 435.260496 -133.195636 
L 436.933959 -130.752 
L 438.340266 -128.308364 
L 439.4165 -125.864727 
L 440.144338 -123.421091 
L 440.575019 -120.977455 
L 440.853078 -118.533818 
L 441.235917 -116.090182 
L 442.105439 -113.646545 
L 443.966876 -111.202909 
L 447.428902 -108.759273 
L 453.159029 -106.315636 
L 461.810172 -103.872 
L 473.918943 -101.428364 
L 489.783719 -98.984727 
L 509.339641 -96.541091 
L 532.056011 -94.097455 
L 556.885608 -91.653818 
L 582.292328 -89.210182 
L 606.371651 -86.766545 
L 627.0591 -84.322909 
L 642.399344 -81.879273 
L 650.829408 -79.435636 
L 651.42 -76.992 
L 644.023575 -74.548364 
L 629.296319 -72.104727 
L 608.589154 -69.661091 
L 583.732328 -67.217455 
L 556.760608 -64.773818 
L 529.635619 -62.330182 
L 504.016644 -59.886545 
L 481.114153 -57.442909 
L 461.637632 -54.999273 
L 445.827768 -52.555636 
L 433.548177 -50.112 
z
" id="m6274f20f5f" style="stroke:#4c4c4c;stroke-width:1.5;"/>
    </defs>
    <g clip-path="url(#p4d7ccbb656)">
     <use style="fill:#5875a4;stroke:#4c4c4c;stroke-width:1.5;" x="0" xlink:href="#m6274f20f5f" y="345.6"/>
    </g>
   </g>
   <g id="line2d_6">
    <path clip-path="url(#p4d7ccbb656)" d="M 405.9 269.121972 
L 405.9 259.011855 
" style="fill:none;stroke:#4c4c4c;stroke-linecap:round;stroke-width:1.5;"/>
   </g>
   <g id="line2d_7">
    <path clip-path="url(#p4d7ccbb656)" d="M 405.9 268.992643 
L 405.9 264.671384 
" style="fill:none;stroke:#4c4c4c;stroke-linecap:round;stroke-width:4.5;"/>
   </g>
   <g id="patch_3">
    <path d="M 99 307.584 
L 99 41.472 
" style="fill:none;stroke:#ffffff;stroke-linecap:square;stroke-linejoin:miter;stroke-width:1.25;"/>
   </g>
   <g id="patch_4">
    <path d="M 712.8 307.584 
L 712.8 41.472 
" style="fill:none;stroke:#ffffff;stroke-linecap:square;stroke-linejoin:miter;stroke-width:1.25;"/>
   </g>
   <g id="patch_5">
    <path d="M 99 307.584 
L 712.8 307.584 
" style="fill:none;stroke:#ffffff;stroke-linecap:square;stroke-linejoin:miter;stroke-width:1.25;"/>
   </g>
   <g id="patch_6">
    <path d="M 99 41.472 
L 712.8 41.472 
" style="fill:none;stroke:#ffffff;stroke-linecap:square;stroke-linejoin:miter;stroke-width:1.25;"/>
   </g>
   <g id="PathCollection_1">
    <defs>
     <path d="M 0 1.5 
C 0.397805 1.5 0.77937 1.341951 1.06066 1.06066 
C 1.341951 0.77937 1.5 0.397805 1.5 0 
C 1.5 -0.397805 1.341951 -0.77937 1.06066 -1.06066 
C 0.77937 -1.341951 0.397805 -1.5 0 -1.5 
C -0.397805 -1.5 -0.77937 -1.341951 -1.06066 -1.06066 
C -1.341951 -0.77937 -1.5 -0.397805 -1.5 0 
C -1.5 0.397805 -1.341951 0.77937 -1.06066 1.06066 
C -0.77937 1.341951 -0.397805 1.5 0 1.5 
z
" id="m6688429de9" style="stroke:#4c4c4c;"/>
    </defs>
    <g clip-path="url(#p4d7ccbb656)">
     <use style="fill:#ffffff;stroke:#4c4c4c;" x="405.9" xlink:href="#m6688429de9" y="267.825875"/>
    </g>
   </g>
   <g id="text_9">
    <!-- 04-sept2014.csv - Total number of transactions per shipping locality -->
    <g style="fill:#262626;" transform="translate(201.308438 35.472)scale(0.12 -0.12)">
     <defs>
      <path d="M 313 2009 
L 1997 2009 
L 1997 1497 
L 313 1497 
L 313 2009 
z
" id="DejaVuSans-2d" transform="scale(0.015625)"/>
      <path d="M 1159 525 
L 1159 -1331 
L 581 -1331 
L 581 3500 
L 1159 3500 
L 1159 2969 
Q 1341 3281 1617 3432 
Q 1894 3584 2278 3584 
Q 2916 3584 3314 3078 
Q 3713 2572 3713 1747 
Q 3713 922 3314 415 
Q 2916 -91 2278 -91 
Q 1894 -91 1617 61 
Q 1341 213 1159 525 
z
M 3116 1747 
Q 3116 2381 2855 2742 
Q 2594 3103 2138 3103 
Q 1681 3103 1420 2742 
Q 1159 2381 1159 1747 
Q 1159 1113 1420 752 
Q 1681 391 2138 391 
Q 2594 391 2855 752 
Q 3116 1113 3116 1747 
z
" id="DejaVuSans-70" transform="scale(0.015625)"/>
      <path d="M 794 531 
L 1825 531 
L 1825 4091 
L 703 3866 
L 703 4441 
L 1819 4666 
L 2450 4666 
L 2450 531 
L 3481 531 
L 3481 0 
L 794 0 
L 794 531 
z
" id="DejaVuSans-31" transform="scale(0.015625)"/>
      <path d="M 684 794 
L 1344 794 
L 1344 0 
L 684 0 
L 684 794 
z
" id="DejaVuSans-2e" transform="scale(0.015625)"/>
      <path d="M 191 3500 
L 800 3500 
L 1894 563 
L 2988 3500 
L 3597 3500 
L 2284 0 
L 1503 0 
L 191 3500 
z
" id="DejaVuSans-76" transform="scale(0.015625)"/>
      <path d="M 3513 2113 
L 3513 0 
L 2938 0 
L 2938 2094 
Q 2938 2591 2744 2837 
Q 2550 3084 2163 3084 
Q 1697 3084 1428 2787 
Q 1159 2491 1159 1978 
L 1159 0 
L 581 0 
L 581 4863 
L 1159 4863 
L 1159 2956 
Q 1366 3272 1645 3428 
Q 1925 3584 2291 3584 
Q 2894 3584 3203 3211 
Q 3513 2838 3513 2113 
z
" id="DejaVuSans-68" transform="scale(0.015625)"/>
      <path d="M 2906 1791 
Q 2906 2416 2648 2759 
Q 2391 3103 1925 3103 
Q 1463 3103 1205 2759 
Q 947 2416 947 1791 
Q 947 1169 1205 825 
Q 1463 481 1925 481 
Q 2391 481 2648 825 
Q 2906 1169 2906 1791 
z
M 3481 434 
Q 3481 -459 3084 -895 
Q 2688 -1331 1869 -1331 
Q 1566 -1331 1297 -1286 
Q 1028 -1241 775 -1147 
L 775 -588 
Q 1028 -725 1275 -790 
Q 1522 -856 1778 -856 
Q 2344 -856 2625 -561 
Q 2906 -266 2906 331 
L 2906 616 
Q 2728 306 2450 153 
Q 2172 0 1784 0 
Q 1141 0 747 490 
Q 353 981 353 1791 
Q 353 2603 747 3093 
Q 1141 3584 1784 3584 
Q 2172 3584 2450 3431 
Q 2728 3278 2906 2969 
L 2906 3500 
L 3481 3500 
L 3481 434 
z
" id="DejaVuSans-67" transform="scale(0.015625)"/>
      <path d="M 2059 -325 
Q 1816 -950 1584 -1140 
Q 1353 -1331 966 -1331 
L 506 -1331 
L 506 -850 
L 844 -850 
Q 1081 -850 1212 -737 
Q 1344 -625 1503 -206 
L 1606 56 
L 191 3500 
L 800 3500 
L 1894 763 
L 2988 3500 
L 3597 3500 
L 2059 -325 
z
" id="DejaVuSans-79" transform="scale(0.015625)"/>
     </defs>
     <use xlink:href="#DejaVuSans-30"/>
     <use x="63.623047" xlink:href="#DejaVuSans-34"/>
     <use x="127.246094" xlink:href="#DejaVuSans-2d"/>
     <use x="163.330078" xlink:href="#DejaVuSans-73"/>
     <use x="215.429688" xlink:href="#DejaVuSans-65"/>
     <use x="276.953125" xlink:href="#DejaVuSans-70"/>
     <use x="340.429688" xlink:href="#DejaVuSans-74"/>
     <use x="379.638672" xlink:href="#DejaVuSans-32"/>
     <use x="443.261719" xlink:href="#DejaVuSans-30"/>
     <use x="506.884766" xlink:href="#DejaVuSans-31"/>
     <use x="570.507812" xlink:href="#DejaVuSans-34"/>
     <use x="634.130859" xlink:href="#DejaVuSans-2e"/>
     <use x="665.917969" xlink:href="#DejaVuSans-63"/>
     <use x="720.898438" xlink:href="#DejaVuSans-73"/>
     <use x="772.998047" xlink:href="#DejaVuSans-76"/>
     <use x="832.177734" xlink:href="#DejaVuSans-20"/>
     <use x="863.964844" xlink:href="#DejaVuSans-2d"/>
     <use x="900.048828" xlink:href="#DejaVuSans-20"/>
     <use x="931.835938" xlink:href="#DejaVuSans-54"/>
     <use x="975.919922" xlink:href="#DejaVuSans-6f"/>
     <use x="1037.101562" xlink:href="#DejaVuSans-74"/>
     <use x="1076.310547" xlink:href="#DejaVuSans-61"/>
     <use x="1137.589844" xlink:href="#DejaVuSans-6c"/>
     <use x="1165.373047" xlink:href="#DejaVuSans-20"/>
     <use x="1197.160156" xlink:href="#DejaVuSans-6e"/>
     <use x="1260.539062" xlink:href="#DejaVuSans-75"/>
     <use x="1323.917969" xlink:href="#DejaVuSans-6d"/>
     <use x="1421.330078" xlink:href="#DejaVuSans-62"/>
     <use x="1484.806641" xlink:href="#DejaVuSans-65"/>
     <use x="1546.330078" xlink:href="#DejaVuSans-72"/>
     <use x="1587.443359" xlink:href="#DejaVuSans-20"/>
     <use x="1619.230469" xlink:href="#DejaVuSans-6f"/>
     <use x="1680.412109" xlink:href="#DejaVuSans-66"/>
     <use x="1715.617188" xlink:href="#DejaVuSans-20"/>
     <use x="1747.404297" xlink:href="#DejaVuSans-74"/>
     <use x="1786.613281" xlink:href="#DejaVuSans-72"/>
     <use x="1827.726562" xlink:href="#DejaVuSans-61"/>
     <use x="1889.005859" xlink:href="#DejaVuSans-6e"/>
     <use x="1952.384766" xlink:href="#DejaVuSans-73"/>
     <use x="2004.484375" xlink:href="#DejaVuSans-61"/>
     <use x="2065.763672" xlink:href="#DejaVuSans-63"/>
     <use x="2120.744141" xlink:href="#DejaVuSans-74"/>
     <use x="2159.953125" xlink:href="#DejaVuSans-69"/>
     <use x="2187.736328" xlink:href="#DejaVuSans-6f"/>
     <use x="2248.917969" xlink:href="#DejaVuSans-6e"/>
     <use x="2312.296875" xlink:href="#DejaVuSans-73"/>
     <use x="2364.396484" xlink:href="#DejaVuSans-20"/>
     <use x="2396.183594" xlink:href="#DejaVuSans-70"/>
     <use x="2459.660156" xlink:href="#DejaVuSans-65"/>
     <use x="2521.183594" xlink:href="#DejaVuSans-72"/>
     <use x="2562.296875" xlink:href="#DejaVuSans-20"/>
     <use x="2594.083984" xlink:href="#DejaVuSans-73"/>
     <use x="2646.183594" xlink:href="#DejaVuSans-68"/>
     <use x="2709.5625" xlink:href="#DejaVuSans-69"/>
     <use x="2737.345703" xlink:href="#DejaVuSans-70"/>
     <use x="2800.822266" xlink:href="#DejaVuSans-70"/>
     <use x="2864.298828" xlink:href="#DejaVuSans-69"/>
     <use x="2892.082031" xlink:href="#DejaVuSans-6e"/>
     <use x="2955.460938" xlink:href="#DejaVuSans-67"/>
     <use x="3018.9375" xlink:href="#DejaVuSans-20"/>
     <use x="3050.724609" xlink:href="#DejaVuSans-6c"/>
     <use x="3078.507812" xlink:href="#DejaVuSans-6f"/>
     <use x="3139.689453" xlink:href="#DejaVuSans-63"/>
     <use x="3194.669922" xlink:href="#DejaVuSans-61"/>
     <use x="3255.949219" xlink:href="#DejaVuSans-6c"/>
     <use x="3283.732422" xlink:href="#DejaVuSans-69"/>
     <use x="3311.515625" xlink:href="#DejaVuSans-74"/>
     <use x="3350.724609" xlink:href="#DejaVuSans-79"/>
    </g>
   </g>
  </g>
 </g>
 <defs>
  <clipPath id="p4d7ccbb656">
   <rect height="266.112" width="613.8" x="99" y="41.472"/>
  </clipPath>
 </defs>
</svg>
