<?xml version="1.0" encoding="utf-8" standalone="no"?>
<!DOCTYPE svg PUBLIC "-//W3C//DTD SVG 1.1//EN"
  "http://www.w3.org/Graphics/SVG/1.1/DTD/svg11.dtd">
<svg height="345.6pt" version="1.1" viewBox="0 0 729.36 345.6" width="729.36pt" xmlns="http://www.w3.org/2000/svg" xmlns:xlink="http://www.w3.org/1999/xlink">
 <metadata>
  <rdf:RDF xmlns:cc="http://creativecommons.org/ns#" xmlns:dc="http://purl.org/dc/elements/1.1/" xmlns:rdf="http://www.w3.org/1999/02/22-rdf-syntax-ns#">
   <cc:Work>
    <dc:type rdf:resource="http://purl.org/dc/dcmitype/StillImage"/>
    <dc:date>2021-07-11T13:47:44.250394</dc:date>
    <dc:format>image/svg+xml</dc:format>
    <dc:creator>
     <cc:Agent>
      <dc:title>Matplotlib v3.4.2, https://matplotlib.org/</dc:title>
     </cc:Agent>
    </dc:creator>
   </cc:Work>
  </rdf:RDF>
 </metadata>
 <defs>
  <style type="text/css">*{stroke-linecap:butt;stroke-linejoin:round;}</style>
 </defs>
 <g id="figure_1">
  <g id="patch_1">
   <path d="M 0 345.6 
L 729.36 345.6 
L 729.36 0 
L 0 0 
z
" style="fill:#ffffff;"/>
  </g>
  <g id="axes_1">
   <g id="patch_2">
    <path d="M 91.17 307.584 
L 656.424 307.584 
L 656.424 41.472 
L 91.17 41.472 
z
" style="fill:#eaeaf2;"/>
   </g>
   <g id="matplotlib.axis_1">
    <g id="xtick_1">
     <g id="text_1">
      <!-- transactions -->
      <g style="fill:#262626;" transform="translate(339.863719 325.442281)scale(0.11 -0.11)">
       <defs>
        <path d="M 1172 4494 
L 1172 3500 
L 2356 3500 
L 2356 3053 
L 1172 3053 
L 1172 1153 
Q 1172 725 1289 603 
Q 1406 481 1766 481 
L 2356 481 
L 2356 0 
L 1766 0 
Q 1100 0 847 248 
Q 594 497 594 1153 
L 594 3053 
L 172 3053 
L 172 3500 
L 594 3500 
L 594 4494 
L 1172 4494 
z
" id="DejaVuSans-74" transform="scale(0.015625)"/>
        <path d="M 2631 2963 
Q 2534 3019 2420 3045 
Q 2306 3072 2169 3072 
Q 1681 3072 1420 2755 
Q 1159 2438 1159 1844 
L 1159 0 
L 581 0 
L 581 3500 
L 1159 3500 
L 1159 2956 
Q 1341 3275 1631 3429 
Q 1922 3584 2338 3584 
Q 2397 3584 2469 3576 
Q 2541 3569 2628 3553 
L 2631 2963 
z
" id="DejaVuSans-72" transform="scale(0.015625)"/>
        <path d="M 2194 1759 
Q 1497 1759 1228 1600 
Q 959 1441 959 1056 
Q 959 750 1161 570 
Q 1363 391 1709 391 
Q 2188 391 2477 730 
Q 2766 1069 2766 1631 
L 2766 1759 
L 2194 1759 
z
M 3341 1997 
L 3341 0 
L 2766 0 
L 2766 531 
Q 2569 213 2275 61 
Q 1981 -91 1556 -91 
Q 1019 -91 701 211 
Q 384 513 384 1019 
Q 384 1609 779 1909 
Q 1175 2209 1959 2209 
L 2766 2209 
L 2766 2266 
Q 2766 2663 2505 2880 
Q 2244 3097 1772 3097 
Q 1472 3097 1187 3025 
Q 903 2953 641 2809 
L 641 3341 
Q 956 3463 1253 3523 
Q 1550 3584 1831 3584 
Q 2591 3584 2966 3190 
Q 3341 2797 3341 1997 
z
" id="DejaVuSans-61" transform="scale(0.015625)"/>
        <path d="M 3513 2113 
L 3513 0 
L 2938 0 
L 2938 2094 
Q 2938 2591 2744 2837 
Q 2550 3084 2163 3084 
Q 1697 3084 1428 2787 
Q 1159 2491 1159 1978 
L 1159 0 
L 581 0 
L 581 3500 
L 1159 3500 
L 1159 2956 
Q 1366 3272 1645 3428 
Q 1925 3584 2291 3584 
Q 2894 3584 3203 3211 
Q 3513 2838 3513 2113 
z
" id="DejaVuSans-6e" transform="scale(0.015625)"/>
        <path d="M 2834 3397 
L 2834 2853 
Q 2591 2978 2328 3040 
Q 2066 3103 1784 3103 
Q 1356 3103 1142 2972 
Q 928 2841 928 2578 
Q 928 2378 1081 2264 
Q 1234 2150 1697 2047 
L 1894 2003 
Q 2506 1872 2764 1633 
Q 3022 1394 3022 966 
Q 3022 478 2636 193 
Q 2250 -91 1575 -91 
Q 1294 -91 989 -36 
Q 684 19 347 128 
L 347 722 
Q 666 556 975 473 
Q 1284 391 1588 391 
Q 1994 391 2212 530 
Q 2431 669 2431 922 
Q 2431 1156 2273 1281 
Q 2116 1406 1581 1522 
L 1381 1569 
Q 847 1681 609 1914 
Q 372 2147 372 2553 
Q 372 3047 722 3315 
Q 1072 3584 1716 3584 
Q 2034 3584 2315 3537 
Q 2597 3491 2834 3397 
z
" id="DejaVuSans-73" transform="scale(0.015625)"/>
        <path d="M 3122 3366 
L 3122 2828 
Q 2878 2963 2633 3030 
Q 2388 3097 2138 3097 
Q 1578 3097 1268 2742 
Q 959 2388 959 1747 
Q 959 1106 1268 751 
Q 1578 397 2138 397 
Q 2388 397 2633 464 
Q 2878 531 3122 666 
L 3122 134 
Q 2881 22 2623 -34 
Q 2366 -91 2075 -91 
Q 1284 -91 818 406 
Q 353 903 353 1747 
Q 353 2603 823 3093 
Q 1294 3584 2113 3584 
Q 2378 3584 2631 3529 
Q 2884 3475 3122 3366 
z
" id="DejaVuSans-63" transform="scale(0.015625)"/>
        <path d="M 603 3500 
L 1178 3500 
L 1178 0 
L 603 0 
L 603 3500 
z
M 603 4863 
L 1178 4863 
L 1178 4134 
L 603 4134 
L 603 4863 
z
" id="DejaVuSans-69" transform="scale(0.015625)"/>
        <path d="M 1959 3097 
Q 1497 3097 1228 2736 
Q 959 2375 959 1747 
Q 959 1119 1226 758 
Q 1494 397 1959 397 
Q 2419 397 2687 759 
Q 2956 1122 2956 1747 
Q 2956 2369 2687 2733 
Q 2419 3097 1959 3097 
z
M 1959 3584 
Q 2709 3584 3137 3096 
Q 3566 2609 3566 1747 
Q 3566 888 3137 398 
Q 2709 -91 1959 -91 
Q 1206 -91 779 398 
Q 353 888 353 1747 
Q 353 2609 779 3096 
Q 1206 3584 1959 3584 
z
" id="DejaVuSans-6f" transform="scale(0.015625)"/>
       </defs>
       <use xlink:href="#DejaVuSans-74"/>
       <use x="39.208984" xlink:href="#DejaVuSans-72"/>
       <use x="80.322266" xlink:href="#DejaVuSans-61"/>
       <use x="141.601562" xlink:href="#DejaVuSans-6e"/>
       <use x="204.980469" xlink:href="#DejaVuSans-73"/>
       <use x="257.080078" xlink:href="#DejaVuSans-61"/>
       <use x="318.359375" xlink:href="#DejaVuSans-63"/>
       <use x="373.339844" xlink:href="#DejaVuSans-74"/>
       <use x="412.548828" xlink:href="#DejaVuSans-69"/>
       <use x="440.332031" xlink:href="#DejaVuSans-6f"/>
       <use x="501.513672" xlink:href="#DejaVuSans-6e"/>
       <use x="564.892578" xlink:href="#DejaVuSans-73"/>
      </g>
     </g>
    </g>
    <g id="text_2">
     <!-- x -->
     <g style="fill:#262626;" transform="translate(370.24575 340.848062)scale(0.12 -0.12)">
      <defs>
       <path d="M 3513 3500 
L 2247 1797 
L 3578 0 
L 2900 0 
L 1881 1375 
L 863 0 
L 184 0 
L 1544 1831 
L 300 3500 
L 978 3500 
L 1906 2253 
L 2834 3500 
L 3513 3500 
z
" id="DejaVuSans-78" transform="scale(0.015625)"/>
      </defs>
      <use xlink:href="#DejaVuSans-78"/>
     </g>
    </g>
   </g>
   <g id="matplotlib.axis_2">
    <g id="ytick_1">
     <g id="line2d_1">
      <path clip-path="url(#p037cb1858d)" d="M 91.17 269.346511 
L 656.424 269.346511 
" style="fill:none;stroke:#ffffff;stroke-linecap:round;"/>
     </g>
     <g id="text_3">
      <!-- 0 -->
      <g style="fill:#262626;" transform="translate(74.67125 273.525651)scale(0.11 -0.11)">
       <defs>
        <path d="M 2034 4250 
Q 1547 4250 1301 3770 
Q 1056 3291 1056 2328 
Q 1056 1369 1301 889 
Q 1547 409 2034 409 
Q 2525 409 2770 889 
Q 3016 1369 3016 2328 
Q 3016 3291 2770 3770 
Q 2525 4250 2034 4250 
z
M 2034 4750 
Q 2819 4750 3233 4129 
Q 3647 3509 3647 2328 
Q 3647 1150 3233 529 
Q 2819 -91 2034 -91 
Q 1250 -91 836 529 
Q 422 1150 422 2328 
Q 422 3509 836 4129 
Q 1250 4750 2034 4750 
z
" id="DejaVuSans-30" transform="scale(0.015625)"/>
       </defs>
       <use xlink:href="#DejaVuSans-30"/>
      </g>
     </g>
    </g>
    <g id="ytick_2">
     <g id="line2d_2">
      <path clip-path="url(#p037cb1858d)" d="M 91.17 229.923393 
L 656.424 229.923393 
" style="fill:none;stroke:#ffffff;stroke-linecap:round;"/>
     </g>
     <g id="text_4">
      <!-- 20000 -->
      <g style="fill:#262626;" transform="translate(46.67625 234.102534)scale(0.11 -0.11)">
       <defs>
        <path d="M 1228 531 
L 3431 531 
L 3431 0 
L 469 0 
L 469 531 
Q 828 903 1448 1529 
Q 2069 2156 2228 2338 
Q 2531 2678 2651 2914 
Q 2772 3150 2772 3378 
Q 2772 3750 2511 3984 
Q 2250 4219 1831 4219 
Q 1534 4219 1204 4116 
Q 875 4013 500 3803 
L 500 4441 
Q 881 4594 1212 4672 
Q 1544 4750 1819 4750 
Q 2544 4750 2975 4387 
Q 3406 4025 3406 3419 
Q 3406 3131 3298 2873 
Q 3191 2616 2906 2266 
Q 2828 2175 2409 1742 
Q 1991 1309 1228 531 
z
" id="DejaVuSans-32" transform="scale(0.015625)"/>
       </defs>
       <use xlink:href="#DejaVuSans-32"/>
       <use x="63.623047" xlink:href="#DejaVuSans-30"/>
       <use x="127.246094" xlink:href="#DejaVuSans-30"/>
       <use x="190.869141" xlink:href="#DejaVuSans-30"/>
       <use x="254.492188" xlink:href="#DejaVuSans-30"/>
      </g>
     </g>
    </g>
    <g id="ytick_3">
     <g id="line2d_3">
      <path clip-path="url(#p037cb1858d)" d="M 91.17 190.500276 
L 656.424 190.500276 
" style="fill:none;stroke:#ffffff;stroke-linecap:round;"/>
     </g>
     <g id="text_5">
      <!-- 40000 -->
      <g style="fill:#262626;" transform="translate(46.67625 194.679417)scale(0.11 -0.11)">
       <defs>
        <path d="M 2419 4116 
L 825 1625 
L 2419 1625 
L 2419 4116 
z
M 2253 4666 
L 3047 4666 
L 3047 1625 
L 3713 1625 
L 3713 1100 
L 3047 1100 
L 3047 0 
L 2419 0 
L 2419 1100 
L 313 1100 
L 313 1709 
L 2253 4666 
z
" id="DejaVuSans-34" transform="scale(0.015625)"/>
       </defs>
       <use xlink:href="#DejaVuSans-34"/>
       <use x="63.623047" xlink:href="#DejaVuSans-30"/>
       <use x="127.246094" xlink:href="#DejaVuSans-30"/>
       <use x="190.869141" xlink:href="#DejaVuSans-30"/>
       <use x="254.492188" xlink:href="#DejaVuSans-30"/>
      </g>
     </g>
    </g>
    <g id="ytick_4">
     <g id="line2d_4">
      <path clip-path="url(#p037cb1858d)" d="M 91.17 151.077159 
L 656.424 151.077159 
" style="fill:none;stroke:#ffffff;stroke-linecap:round;"/>
     </g>
     <g id="text_6">
      <!-- 60000 -->
      <g style="fill:#262626;" transform="translate(46.67625 155.256299)scale(0.11 -0.11)">
       <defs>
        <path d="M 2113 2584 
Q 1688 2584 1439 2293 
Q 1191 2003 1191 1497 
Q 1191 994 1439 701 
Q 1688 409 2113 409 
Q 2538 409 2786 701 
Q 3034 994 3034 1497 
Q 3034 2003 2786 2293 
Q 2538 2584 2113 2584 
z
M 3366 4563 
L 3366 3988 
Q 3128 4100 2886 4159 
Q 2644 4219 2406 4219 
Q 1781 4219 1451 3797 
Q 1122 3375 1075 2522 
Q 1259 2794 1537 2939 
Q 1816 3084 2150 3084 
Q 2853 3084 3261 2657 
Q 3669 2231 3669 1497 
Q 3669 778 3244 343 
Q 2819 -91 2113 -91 
Q 1303 -91 875 529 
Q 447 1150 447 2328 
Q 447 3434 972 4092 
Q 1497 4750 2381 4750 
Q 2619 4750 2861 4703 
Q 3103 4656 3366 4563 
z
" id="DejaVuSans-36" transform="scale(0.015625)"/>
       </defs>
       <use xlink:href="#DejaVuSans-36"/>
       <use x="63.623047" xlink:href="#DejaVuSans-30"/>
       <use x="127.246094" xlink:href="#DejaVuSans-30"/>
       <use x="190.869141" xlink:href="#DejaVuSans-30"/>
       <use x="254.492188" xlink:href="#DejaVuSans-30"/>
      </g>
     </g>
    </g>
    <g id="ytick_5">
     <g id="line2d_5">
      <path clip-path="url(#p037cb1858d)" d="M 91.17 111.654041 
L 656.424 111.654041 
" style="fill:none;stroke:#ffffff;stroke-linecap:round;"/>
     </g>
     <g id="text_7">
      <!-- 80000 -->
      <g style="fill:#262626;" transform="translate(46.67625 115.833182)scale(0.11 -0.11)">
       <defs>
        <path d="M 2034 2216 
Q 1584 2216 1326 1975 
Q 1069 1734 1069 1313 
Q 1069 891 1326 650 
Q 1584 409 2034 409 
Q 2484 409 2743 651 
Q 3003 894 3003 1313 
Q 3003 1734 2745 1975 
Q 2488 2216 2034 2216 
z
M 1403 2484 
Q 997 2584 770 2862 
Q 544 3141 544 3541 
Q 544 4100 942 4425 
Q 1341 4750 2034 4750 
Q 2731 4750 3128 4425 
Q 3525 4100 3525 3541 
Q 3525 3141 3298 2862 
Q 3072 2584 2669 2484 
Q 3125 2378 3379 2068 
Q 3634 1759 3634 1313 
Q 3634 634 3220 271 
Q 2806 -91 2034 -91 
Q 1263 -91 848 271 
Q 434 634 434 1313 
Q 434 1759 690 2068 
Q 947 2378 1403 2484 
z
M 1172 3481 
Q 1172 3119 1398 2916 
Q 1625 2713 2034 2713 
Q 2441 2713 2670 2916 
Q 2900 3119 2900 3481 
Q 2900 3844 2670 4047 
Q 2441 4250 2034 4250 
Q 1625 4250 1398 4047 
Q 1172 3844 1172 3481 
z
" id="DejaVuSans-38" transform="scale(0.015625)"/>
       </defs>
       <use xlink:href="#DejaVuSans-38"/>
       <use x="63.623047" xlink:href="#DejaVuSans-30"/>
       <use x="127.246094" xlink:href="#DejaVuSans-30"/>
       <use x="190.869141" xlink:href="#DejaVuSans-30"/>
       <use x="254.492188" xlink:href="#DejaVuSans-30"/>
      </g>
     </g>
    </g>
    <g id="ytick_6">
     <g id="line2d_6">
      <path clip-path="url(#p037cb1858d)" d="M 91.17 72.230924 
L 656.424 72.230924 
" style="fill:none;stroke:#ffffff;stroke-linecap:round;"/>
     </g>
     <g id="text_8">
      <!-- 100000 -->
      <g style="fill:#262626;" transform="translate(39.6775 76.410065)scale(0.11 -0.11)">
       <defs>
        <path d="M 794 531 
L 1825 531 
L 1825 4091 
L 703 3866 
L 703 4441 
L 1819 4666 
L 2450 4666 
L 2450 531 
L 3481 531 
L 3481 0 
L 794 0 
L 794 531 
z
" id="DejaVuSans-31" transform="scale(0.015625)"/>
       </defs>
       <use xlink:href="#DejaVuSans-31"/>
       <use x="63.623047" xlink:href="#DejaVuSans-30"/>
       <use x="127.246094" xlink:href="#DejaVuSans-30"/>
       <use x="190.869141" xlink:href="#DejaVuSans-30"/>
       <use x="254.492188" xlink:href="#DejaVuSans-30"/>
       <use x="318.115234" xlink:href="#DejaVuSans-30"/>
      </g>
     </g>
    </g>
    <g id="text_9">
     <!-- Total number of transactions -->
     <g style="fill:#262626;" transform="translate(33.181875 260.478937)rotate(-90)scale(0.12 -0.12)">
      <defs>
       <path d="M -19 4666 
L 3928 4666 
L 3928 4134 
L 2272 4134 
L 2272 0 
L 1638 0 
L 1638 4134 
L -19 4134 
L -19 4666 
z
" id="DejaVuSans-54" transform="scale(0.015625)"/>
       <path d="M 603 4863 
L 1178 4863 
L 1178 0 
L 603 0 
L 603 4863 
z
" id="DejaVuSans-6c" transform="scale(0.015625)"/>
       <path id="DejaVuSans-20" transform="scale(0.015625)"/>
       <path d="M 544 1381 
L 544 3500 
L 1119 3500 
L 1119 1403 
Q 1119 906 1312 657 
Q 1506 409 1894 409 
Q 2359 409 2629 706 
Q 2900 1003 2900 1516 
L 2900 3500 
L 3475 3500 
L 3475 0 
L 2900 0 
L 2900 538 
Q 2691 219 2414 64 
Q 2138 -91 1772 -91 
Q 1169 -91 856 284 
Q 544 659 544 1381 
z
M 1991 3584 
L 1991 3584 
z
" id="DejaVuSans-75" transform="scale(0.015625)"/>
       <path d="M 3328 2828 
Q 3544 3216 3844 3400 
Q 4144 3584 4550 3584 
Q 5097 3584 5394 3201 
Q 5691 2819 5691 2113 
L 5691 0 
L 5113 0 
L 5113 2094 
Q 5113 2597 4934 2840 
Q 4756 3084 4391 3084 
Q 3944 3084 3684 2787 
Q 3425 2491 3425 1978 
L 3425 0 
L 2847 0 
L 2847 2094 
Q 2847 2600 2669 2842 
Q 2491 3084 2119 3084 
Q 1678 3084 1418 2786 
Q 1159 2488 1159 1978 
L 1159 0 
L 581 0 
L 581 3500 
L 1159 3500 
L 1159 2956 
Q 1356 3278 1631 3431 
Q 1906 3584 2284 3584 
Q 2666 3584 2933 3390 
Q 3200 3197 3328 2828 
z
" id="DejaVuSans-6d" transform="scale(0.015625)"/>
       <path d="M 3116 1747 
Q 3116 2381 2855 2742 
Q 2594 3103 2138 3103 
Q 1681 3103 1420 2742 
Q 1159 2381 1159 1747 
Q 1159 1113 1420 752 
Q 1681 391 2138 391 
Q 2594 391 2855 752 
Q 3116 1113 3116 1747 
z
M 1159 2969 
Q 1341 3281 1617 3432 
Q 1894 3584 2278 3584 
Q 2916 3584 3314 3078 
Q 3713 2572 3713 1747 
Q 3713 922 3314 415 
Q 2916 -91 2278 -91 
Q 1894 -91 1617 61 
Q 1341 213 1159 525 
L 1159 0 
L 581 0 
L 581 4863 
L 1159 4863 
L 1159 2969 
z
" id="DejaVuSans-62" transform="scale(0.015625)"/>
       <path d="M 3597 1894 
L 3597 1613 
L 953 1613 
Q 991 1019 1311 708 
Q 1631 397 2203 397 
Q 2534 397 2845 478 
Q 3156 559 3463 722 
L 3463 178 
Q 3153 47 2828 -22 
Q 2503 -91 2169 -91 
Q 1331 -91 842 396 
Q 353 884 353 1716 
Q 353 2575 817 3079 
Q 1281 3584 2069 3584 
Q 2775 3584 3186 3129 
Q 3597 2675 3597 1894 
z
M 3022 2063 
Q 3016 2534 2758 2815 
Q 2500 3097 2075 3097 
Q 1594 3097 1305 2825 
Q 1016 2553 972 2059 
L 3022 2063 
z
" id="DejaVuSans-65" transform="scale(0.015625)"/>
       <path d="M 2375 4863 
L 2375 4384 
L 1825 4384 
Q 1516 4384 1395 4259 
Q 1275 4134 1275 3809 
L 1275 3500 
L 2222 3500 
L 2222 3053 
L 1275 3053 
L 1275 0 
L 697 0 
L 697 3053 
L 147 3053 
L 147 3500 
L 697 3500 
L 697 3744 
Q 697 4328 969 4595 
Q 1241 4863 1831 4863 
L 2375 4863 
z
" id="DejaVuSans-66" transform="scale(0.015625)"/>
      </defs>
      <use xlink:href="#DejaVuSans-54"/>
      <use x="44.083984" xlink:href="#DejaVuSans-6f"/>
      <use x="105.265625" xlink:href="#DejaVuSans-74"/>
      <use x="144.474609" xlink:href="#DejaVuSans-61"/>
      <use x="205.753906" xlink:href="#DejaVuSans-6c"/>
      <use x="233.537109" xlink:href="#DejaVuSans-20"/>
      <use x="265.324219" xlink:href="#DejaVuSans-6e"/>
      <use x="328.703125" xlink:href="#DejaVuSans-75"/>
      <use x="392.082031" xlink:href="#DejaVuSans-6d"/>
      <use x="489.494141" xlink:href="#DejaVuSans-62"/>
      <use x="552.970703" xlink:href="#DejaVuSans-65"/>
      <use x="614.494141" xlink:href="#DejaVuSans-72"/>
      <use x="655.607422" xlink:href="#DejaVuSans-20"/>
      <use x="687.394531" xlink:href="#DejaVuSans-6f"/>
      <use x="748.576172" xlink:href="#DejaVuSans-66"/>
      <use x="783.78125" xlink:href="#DejaVuSans-20"/>
      <use x="815.568359" xlink:href="#DejaVuSans-74"/>
      <use x="854.777344" xlink:href="#DejaVuSans-72"/>
      <use x="895.890625" xlink:href="#DejaVuSans-61"/>
      <use x="957.169922" xlink:href="#DejaVuSans-6e"/>
      <use x="1020.548828" xlink:href="#DejaVuSans-73"/>
      <use x="1072.648438" xlink:href="#DejaVuSans-61"/>
      <use x="1133.927734" xlink:href="#DejaVuSans-63"/>
      <use x="1188.908203" xlink:href="#DejaVuSans-74"/>
      <use x="1228.117188" xlink:href="#DejaVuSans-69"/>
      <use x="1255.900391" xlink:href="#DejaVuSans-6f"/>
      <use x="1317.082031" xlink:href="#DejaVuSans-6e"/>
      <use x="1380.460938" xlink:href="#DejaVuSans-73"/>
     </g>
    </g>
   </g>
   <g id="PolyCollection_1">
    <defs>
     <path d="M 399.451617 -50.112 
L 348.142383 -50.112 
L 336.710989 -52.555636 
L 321.997107 -54.999273 
L 303.88611 -57.442909 
L 282.620163 -59.886545 
L 258.881477 -62.330182 
L 233.817774 -64.773818 
L 208.987365 -67.217455 
L 186.215989 -69.661091 
L 167.378273 -72.104727 
L 154.137862 -74.548364 
L 147.6954 -76.992 
L 148.597018 -79.435636 
L 156.645477 -81.879273 
L 170.933915 -84.322909 
L 189.994278 -86.766545 
L 212.027178 -89.210182 
L 235.164027 -91.653818 
L 257.70981 -94.097455 
L 278.325024 -96.541091 
L 296.123905 -98.984727 
L 310.686916 -101.428364 
L 322.002836 -103.872 
L 330.366061 -106.315636 
L 336.257074 -108.759273 
L 340.229925 -111.202909 
L 342.82275 -113.646545 
L 344.498671 -116.090182 
L 345.617017 -118.533818 
L 346.429742 -120.977455 
L 347.095332 -123.421091 
L 347.702014 -125.864727 
L 348.293087 -128.308364 
L 348.889053 -130.752 
L 349.503468 -133.195636 
L 350.151684 -135.639273 
L 350.853365 -138.082909 
L 351.630843 -140.526545 
L 352.505602 -142.970182 
L 353.494786 -145.413818 
L 354.608759 -147.857455 
L 355.849876 -150.301091 
L 357.212057 -152.744727 
L 358.680683 -155.188364 
L 360.232609 -157.632 
L 361.836503 -160.075636 
L 363.454005 -162.519273 
L 365.042082 -164.962909 
L 366.556638 -167.406545 
L 367.956894 -169.850182 
L 369.209723 -172.293818 
L 370.292997 -174.737455 
L 371.197243 -177.181091 
L 371.925363 -179.624727 
L 372.490632 -182.068364 
L 372.913591 -184.512 
L 373.218553 -186.955636 
L 373.430419 -189.399273 
L 373.572239 -191.842909 
L 373.663714 -194.286545 
L 373.720569 -196.730182 
L 373.754622 -199.173818 
L 373.774272 -201.617455 
L 373.785182 -204.061091 
L 373.790973 -206.504727 
L 373.793828 -208.948364 
L 373.794948 -211.392 
L 373.794854 -213.835636 
L 373.793543 -216.279273 
L 373.790508 -218.722909 
L 373.784648 -221.166545 
L 373.774062 -223.610182 
L 373.755773 -226.053818 
L 373.72541 -228.497455 
L 373.676942 -230.941091 
L 373.602568 -233.384727 
L 373.49293 -235.828364 
L 373.337795 -238.272 
L 373.127319 -240.715636 
L 372.853903 -243.159273 
L 372.514456 -245.602909 
L 372.112715 -248.046545 
L 371.661074 -250.490182 
L 371.181322 -252.933818 
L 370.703788 -255.377455 
L 370.264659 -257.821091 
L 369.901683 -260.264727 
L 369.648888 -262.708364 
L 369.531347 -265.152 
L 369.561079 -267.595636 
L 369.735021 -270.039273 
L 370.035554 -272.482909 
L 370.433438 -274.926545 
L 370.8925 -277.370182 
L 371.375019 -279.813818 
L 371.846718 -282.257455 
L 372.280468 -284.701091 
L 372.658237 -287.144727 
L 372.971262 -289.588364 
L 373.2188 -292.032 
L 374.3752 -292.032 
L 374.3752 -292.032 
L 374.622738 -289.588364 
L 374.935763 -287.144727 
L 375.313532 -284.701091 
L 375.747282 -282.257455 
L 376.218981 -279.813818 
L 376.7015 -277.370182 
L 377.160562 -274.926545 
L 377.558446 -272.482909 
L 377.858979 -270.039273 
L 378.032921 -267.595636 
L 378.062653 -265.152 
L 377.945112 -262.708364 
L 377.692317 -260.264727 
L 377.329341 -257.821091 
L 376.890212 -255.377455 
L 376.412678 -252.933818 
L 375.932926 -250.490182 
L 375.481285 -248.046545 
L 375.079544 -245.602909 
L 374.740097 -243.159273 
L 374.466681 -240.715636 
L 374.256205 -238.272 
L 374.10107 -235.828364 
L 373.991432 -233.384727 
L 373.917058 -230.941091 
L 373.86859 -228.497455 
L 373.838227 -226.053818 
L 373.819938 -223.610182 
L 373.809352 -221.166545 
L 373.803492 -218.722909 
L 373.800457 -216.279273 
L 373.799146 -213.835636 
L 373.799052 -211.392 
L 373.800172 -208.948364 
L 373.803027 -206.504727 
L 373.808818 -204.061091 
L 373.819728 -201.617455 
L 373.839378 -199.173818 
L 373.873431 -196.730182 
L 373.930286 -194.286545 
L 374.021761 -191.842909 
L 374.163581 -189.399273 
L 374.375447 -186.955636 
L 374.680409 -184.512 
L 375.103368 -182.068364 
L 375.668637 -179.624727 
L 376.396757 -177.181091 
L 377.301003 -174.737455 
L 378.384277 -172.293818 
L 379.637106 -169.850182 
L 381.037362 -167.406545 
L 382.551918 -164.962909 
L 384.139995 -162.519273 
L 385.757497 -160.075636 
L 387.361391 -157.632 
L 388.913317 -155.188364 
L 390.381943 -152.744727 
L 391.744124 -150.301091 
L 392.985241 -147.857455 
L 394.099214 -145.413818 
L 395.088398 -142.970182 
L 395.963157 -140.526545 
L 396.740635 -138.082909 
L 397.442316 -135.639273 
L 398.090532 -133.195636 
L 398.704947 -130.752 
L 399.300913 -128.308364 
L 399.891986 -125.864727 
L 400.498668 -123.421091 
L 401.164258 -120.977455 
L 401.976983 -118.533818 
L 403.095329 -116.090182 
L 404.77125 -113.646545 
L 407.364075 -111.202909 
L 411.336926 -108.759273 
L 417.227939 -106.315636 
L 425.591164 -103.872 
L 436.907084 -101.428364 
L 451.470095 -98.984727 
L 469.268976 -96.541091 
L 489.88419 -94.097455 
L 512.429973 -91.653818 
L 535.566822 -89.210182 
L 557.599722 -86.766545 
L 576.660085 -84.322909 
L 590.948523 -81.879273 
L 598.996982 -79.435636 
L 599.8986 -76.992 
L 593.456138 -74.548364 
L 580.215727 -72.104727 
L 561.378011 -69.661091 
L 538.606635 -67.217455 
L 513.776226 -64.773818 
L 488.712523 -62.330182 
L 464.973837 -59.886545 
L 443.70789 -57.442909 
L 425.596893 -54.999273 
L 410.883011 -52.555636 
L 399.451617 -50.112 
z
" id="mcb87a0415b" style="stroke:#4c4c4c;stroke-width:1.5;"/>
    </defs>
    <g clip-path="url(#p037cb1858d)">
     <use style="fill:#5875a4;stroke:#4c4c4c;stroke-width:1.5;" x="0" xlink:href="#mcb87a0415b" y="345.6"/>
    </g>
   </g>
   <g id="line2d_7">
    <path clip-path="url(#p037cb1858d)" d="M 373.797 269.340597 
L 373.797 257.273181 
" style="fill:none;stroke:#4c4c4c;stroke-linecap:round;stroke-width:1.5;"/>
   </g>
   <g id="line2d_8">
    <path clip-path="url(#p037cb1858d)" d="M 373.797 269.270621 
L 373.797 263.31773 
" style="fill:none;stroke:#4c4c4c;stroke-linecap:round;stroke-width:4.5;"/>
   </g>
   <g id="patch_3">
    <path d="M 91.17 307.584 
L 91.17 41.472 
" style="fill:none;stroke:#ffffff;stroke-linecap:square;stroke-linejoin:miter;stroke-width:1.25;"/>
   </g>
   <g id="patch_4">
    <path d="M 656.424 307.584 
L 656.424 41.472 
" style="fill:none;stroke:#ffffff;stroke-linecap:square;stroke-linejoin:miter;stroke-width:1.25;"/>
   </g>
   <g id="patch_5">
    <path d="M 91.17 307.584 
L 656.424 307.584 
" style="fill:none;stroke:#ffffff;stroke-linecap:square;stroke-linejoin:miter;stroke-width:1.25;"/>
   </g>
   <g id="patch_6">
    <path d="M 91.17 41.472 
L 656.424 41.472 
" style="fill:none;stroke:#ffffff;stroke-linecap:square;stroke-linejoin:miter;stroke-width:1.25;"/>
   </g>
   <g id="PathCollection_1">
    <defs>
     <path d="M 0 1.5 
C 0.397805 1.5 0.77937 1.341951 1.06066 1.06066 
C 1.341951 0.77937 1.5 0.397805 1.5 0 
C 1.5 -0.397805 1.341951 -0.77937 1.06066 -1.06066 
C 0.77937 -1.341951 0.397805 -1.5 0 -1.5 
C -0.397805 -1.5 -0.77937 -1.341951 -1.06066 -1.06066 
C -1.341951 -0.77937 -1.5 -0.397805 -1.5 0 
C -1.5 0.397805 -1.341951 0.77937 -1.06066 1.06066 
C -0.77937 1.341951 -0.397805 1.5 0 1.5 
z
" id="m144d4f1457" style="stroke:#4c4c4c;"/>
    </defs>
    <g clip-path="url(#p037cb1858d)">
     <use style="fill:#ffffff;stroke:#4c4c4c;" x="373.797" xlink:href="#m144d4f1457" y="268.505813"/>
    </g>
   </g>
   <g id="text_10">
    <!-- 06-nov2014.csv - Total number of transactions per shipping locality -->
    <g style="fill:#262626;" transform="translate(171.159188 35.472)scale(0.12 -0.12)">
     <defs>
      <path d="M 313 2009 
L 1997 2009 
L 1997 1497 
L 313 1497 
L 313 2009 
z
" id="DejaVuSans-2d" transform="scale(0.015625)"/>
      <path d="M 191 3500 
L 800 3500 
L 1894 563 
L 2988 3500 
L 3597 3500 
L 2284 0 
L 1503 0 
L 191 3500 
z
" id="DejaVuSans-76" transform="scale(0.015625)"/>
      <path d="M 684 794 
L 1344 794 
L 1344 0 
L 684 0 
L 684 794 
z
" id="DejaVuSans-2e" transform="scale(0.015625)"/>
      <path d="M 1159 525 
L 1159 -1331 
L 581 -1331 
L 581 3500 
L 1159 3500 
L 1159 2969 
Q 1341 3281 1617 3432 
Q 1894 3584 2278 3584 
Q 2916 3584 3314 3078 
Q 3713 2572 3713 1747 
Q 3713 922 3314 415 
Q 2916 -91 2278 -91 
Q 1894 -91 1617 61 
Q 1341 213 1159 525 
z
M 3116 1747 
Q 3116 2381 2855 2742 
Q 2594 3103 2138 3103 
Q 1681 3103 1420 2742 
Q 1159 2381 1159 1747 
Q 1159 1113 1420 752 
Q 1681 391 2138 391 
Q 2594 391 2855 752 
Q 3116 1113 3116 1747 
z
" id="DejaVuSans-70" transform="scale(0.015625)"/>
      <path d="M 3513 2113 
L 3513 0 
L 2938 0 
L 2938 2094 
Q 2938 2591 2744 2837 
Q 2550 3084 2163 3084 
Q 1697 3084 1428 2787 
Q 1159 2491 1159 1978 
L 1159 0 
L 581 0 
L 581 4863 
L 1159 4863 
L 1159 2956 
Q 1366 3272 1645 3428 
Q 1925 3584 2291 3584 
Q 2894 3584 3203 3211 
Q 3513 2838 3513 2113 
z
" id="DejaVuSans-68" transform="scale(0.015625)"/>
      <path d="M 2906 1791 
Q 2906 2416 2648 2759 
Q 2391 3103 1925 3103 
Q 1463 3103 1205 2759 
Q 947 2416 947 1791 
Q 947 1169 1205 825 
Q 1463 481 1925 481 
Q 2391 481 2648 825 
Q 2906 1169 2906 1791 
z
M 3481 434 
Q 3481 -459 3084 -895 
Q 2688 -1331 1869 -1331 
Q 1566 -1331 1297 -1286 
Q 1028 -1241 775 -1147 
L 775 -588 
Q 1028 -725 1275 -790 
Q 1522 -856 1778 -856 
Q 2344 -856 2625 -561 
Q 2906 -266 2906 331 
L 2906 616 
Q 2728 306 2450 153 
Q 2172 0 1784 0 
Q 1141 0 747 490 
Q 353 981 353 1791 
Q 353 2603 747 3093 
Q 1141 3584 1784 3584 
Q 2172 3584 2450 3431 
Q 2728 3278 2906 2969 
L 2906 3500 
L 3481 3500 
L 3481 434 
z
" id="DejaVuSans-67" transform="scale(0.015625)"/>
      <path d="M 2059 -325 
Q 1816 -950 1584 -1140 
Q 1353 -1331 966 -1331 
L 506 -1331 
L 506 -850 
L 844 -850 
Q 1081 -850 1212 -737 
Q 1344 -625 1503 -206 
L 1606 56 
L 191 3500 
L 800 3500 
L 1894 763 
L 2988 3500 
L 3597 3500 
L 2059 -325 
z
" id="DejaVuSans-79" transform="scale(0.015625)"/>
     </defs>
     <use xlink:href="#DejaVuSans-30"/>
     <use x="63.623047" xlink:href="#DejaVuSans-36"/>
     <use x="127.246094" xlink:href="#DejaVuSans-2d"/>
     <use x="163.330078" xlink:href="#DejaVuSans-6e"/>
     <use x="226.708984" xlink:href="#DejaVuSans-6f"/>
     <use x="287.890625" xlink:href="#DejaVuSans-76"/>
     <use x="347.070312" xlink:href="#DejaVuSans-32"/>
     <use x="410.693359" xlink:href="#DejaVuSans-30"/>
     <use x="474.316406" xlink:href="#DejaVuSans-31"/>
     <use x="537.939453" xlink:href="#DejaVuSans-34"/>
     <use x="601.5625" xlink:href="#DejaVuSans-2e"/>
     <use x="633.349609" xlink:href="#DejaVuSans-63"/>
     <use x="688.330078" xlink:href="#DejaVuSans-73"/>
     <use x="740.429688" xlink:href="#DejaVuSans-76"/>
     <use x="799.609375" xlink:href="#DejaVuSans-20"/>
     <use x="831.396484" xlink:href="#DejaVuSans-2d"/>
     <use x="867.480469" xlink:href="#DejaVuSans-20"/>
     <use x="899.267578" xlink:href="#DejaVuSans-54"/>
     <use x="943.351562" xlink:href="#DejaVuSans-6f"/>
     <use x="1004.533203" xlink:href="#DejaVuSans-74"/>
     <use x="1043.742188" xlink:href="#DejaVuSans-61"/>
     <use x="1105.021484" xlink:href="#DejaVuSans-6c"/>
     <use x="1132.804688" xlink:href="#DejaVuSans-20"/>
     <use x="1164.591797" xlink:href="#DejaVuSans-6e"/>
     <use x="1227.970703" xlink:href="#DejaVuSans-75"/>
     <use x="1291.349609" xlink:href="#DejaVuSans-6d"/>
     <use x="1388.761719" xlink:href="#DejaVuSans-62"/>
     <use x="1452.238281" xlink:href="#DejaVuSans-65"/>
     <use x="1513.761719" xlink:href="#DejaVuSans-72"/>
     <use x="1554.875" xlink:href="#DejaVuSans-20"/>
     <use x="1586.662109" xlink:href="#DejaVuSans-6f"/>
     <use x="1647.84375" xlink:href="#DejaVuSans-66"/>
     <use x="1683.048828" xlink:href="#DejaVuSans-20"/>
     <use x="1714.835938" xlink:href="#DejaVuSans-74"/>
     <use x="1754.044922" xlink:href="#DejaVuSans-72"/>
     <use x="1795.158203" xlink:href="#DejaVuSans-61"/>
     <use x="1856.4375" xlink:href="#DejaVuSans-6e"/>
     <use x="1919.816406" xlink:href="#DejaVuSans-73"/>
     <use x="1971.916016" xlink:href="#DejaVuSans-61"/>
     <use x="2033.195312" xlink:href="#DejaVuSans-63"/>
     <use x="2088.175781" xlink:href="#DejaVuSans-74"/>
     <use x="2127.384766" xlink:href="#DejaVuSans-69"/>
     <use x="2155.167969" xlink:href="#DejaVuSans-6f"/>
     <use x="2216.349609" xlink:href="#DejaVuSans-6e"/>
     <use x="2279.728516" xlink:href="#DejaVuSans-73"/>
     <use x="2331.828125" xlink:href="#DejaVuSans-20"/>
     <use x="2363.615234" xlink:href="#DejaVuSans-70"/>
     <use x="2427.091797" xlink:href="#DejaVuSans-65"/>
     <use x="2488.615234" xlink:href="#DejaVuSans-72"/>
     <use x="2529.728516" xlink:href="#DejaVuSans-20"/>
     <use x="2561.515625" xlink:href="#DejaVuSans-73"/>
     <use x="2613.615234" xlink:href="#DejaVuSans-68"/>
     <use x="2676.994141" xlink:href="#DejaVuSans-69"/>
     <use x="2704.777344" xlink:href="#DejaVuSans-70"/>
     <use x="2768.253906" xlink:href="#DejaVuSans-70"/>
     <use x="2831.730469" xlink:href="#DejaVuSans-69"/>
     <use x="2859.513672" xlink:href="#DejaVuSans-6e"/>
     <use x="2922.892578" xlink:href="#DejaVuSans-67"/>
     <use x="2986.369141" xlink:href="#DejaVuSans-20"/>
     <use x="3018.15625" xlink:href="#DejaVuSans-6c"/>
     <use x="3045.939453" xlink:href="#DejaVuSans-6f"/>
     <use x="3107.121094" xlink:href="#DejaVuSans-63"/>
     <use x="3162.101562" xlink:href="#DejaVuSans-61"/>
     <use x="3223.380859" xlink:href="#DejaVuSans-6c"/>
     <use x="3251.164062" xlink:href="#DejaVuSans-69"/>
     <use x="3278.947266" xlink:href="#DejaVuSans-74"/>
     <use x="3318.15625" xlink:href="#DejaVuSans-79"/>
    </g>
   </g>
  </g>
 </g>
 <defs>
  <clipPath id="p037cb1858d">
   <rect height="266.112" width="565.254" x="91.17" y="41.472"/>
  </clipPath>
 </defs>
</svg>
