<?xml version="1.0" encoding="utf-8" standalone="no"?>
<!DOCTYPE svg PUBLIC "-//W3C//DTD SVG 1.1//EN"
  "http://www.w3.org/Graphics/SVG/1.1/DTD/svg11.dtd">
<svg height="1152pt" version="1.1" viewBox="0 0 1872 1152" width="1872pt" xmlns="http://www.w3.org/2000/svg" xmlns:xlink="http://www.w3.org/1999/xlink">
 <metadata>
  <rdf:RDF xmlns:cc="http://creativecommons.org/ns#" xmlns:dc="http://purl.org/dc/elements/1.1/" xmlns:rdf="http://www.w3.org/1999/02/22-rdf-syntax-ns#">
   <cc:Work>
    <dc:type rdf:resource="http://purl.org/dc/dcmitype/StillImage"/>
    <dc:date>2021-08-29T21:15:41.882120</dc:date>
    <dc:format>image/svg+xml</dc:format>
    <dc:creator>
     <cc:Agent>
      <dc:title>Matplotlib v3.4.3, https://matplotlib.org/</dc:title>
     </cc:Agent>
    </dc:creator>
   </cc:Work>
  </rdf:RDF>
 </metadata>
 <defs>
  <style type="text/css">*{stroke-linecap:butt;stroke-linejoin:round;}</style>
 </defs>
 <g id="figure_1">
  <g id="patch_1">
   <path d="M 0 1152 
L 1872 1152 
L 1872 0 
L 0 0 
z
" style="fill:#ffffff;"/>
  </g>
  <g id="axes_1">
   <g id="patch_2">
    <path d="M 561.6 1025.28 
L 1684.8 1025.28 
L 1684.8 138.24 
L 561.6 138.24 
z
" style="fill:#eaeaf2;"/>
   </g>
   <g id="matplotlib.axis_1">
    <g id="xtick_1">
     <g id="text_1">
      <!-- transactions -->
      <g style="fill:#262626;" transform="translate(1089.266719 1043.138281)scale(0.11 -0.11)">
       <defs>
        <path d="M 1172 4494 
L 1172 3500 
L 2356 3500 
L 2356 3053 
L 1172 3053 
L 1172 1153 
Q 1172 725 1289 603 
Q 1406 481 1766 481 
L 2356 481 
L 2356 0 
L 1766 0 
Q 1100 0 847 248 
Q 594 497 594 1153 
L 594 3053 
L 172 3053 
L 172 3500 
L 594 3500 
L 594 4494 
L 1172 4494 
z
" id="DejaVuSans-74" transform="scale(0.015625)"/>
        <path d="M 2631 2963 
Q 2534 3019 2420 3045 
Q 2306 3072 2169 3072 
Q 1681 3072 1420 2755 
Q 1159 2438 1159 1844 
L 1159 0 
L 581 0 
L 581 3500 
L 1159 3500 
L 1159 2956 
Q 1341 3275 1631 3429 
Q 1922 3584 2338 3584 
Q 2397 3584 2469 3576 
Q 2541 3569 2628 3553 
L 2631 2963 
z
" id="DejaVuSans-72" transform="scale(0.015625)"/>
        <path d="M 2194 1759 
Q 1497 1759 1228 1600 
Q 959 1441 959 1056 
Q 959 750 1161 570 
Q 1363 391 1709 391 
Q 2188 391 2477 730 
Q 2766 1069 2766 1631 
L 2766 1759 
L 2194 1759 
z
M 3341 1997 
L 3341 0 
L 2766 0 
L 2766 531 
Q 2569 213 2275 61 
Q 1981 -91 1556 -91 
Q 1019 -91 701 211 
Q 384 513 384 1019 
Q 384 1609 779 1909 
Q 1175 2209 1959 2209 
L 2766 2209 
L 2766 2266 
Q 2766 2663 2505 2880 
Q 2244 3097 1772 3097 
Q 1472 3097 1187 3025 
Q 903 2953 641 2809 
L 641 3341 
Q 956 3463 1253 3523 
Q 1550 3584 1831 3584 
Q 2591 3584 2966 3190 
Q 3341 2797 3341 1997 
z
" id="DejaVuSans-61" transform="scale(0.015625)"/>
        <path d="M 3513 2113 
L 3513 0 
L 2938 0 
L 2938 2094 
Q 2938 2591 2744 2837 
Q 2550 3084 2163 3084 
Q 1697 3084 1428 2787 
Q 1159 2491 1159 1978 
L 1159 0 
L 581 0 
L 581 3500 
L 1159 3500 
L 1159 2956 
Q 1366 3272 1645 3428 
Q 1925 3584 2291 3584 
Q 2894 3584 3203 3211 
Q 3513 2838 3513 2113 
z
" id="DejaVuSans-6e" transform="scale(0.015625)"/>
        <path d="M 2834 3397 
L 2834 2853 
Q 2591 2978 2328 3040 
Q 2066 3103 1784 3103 
Q 1356 3103 1142 2972 
Q 928 2841 928 2578 
Q 928 2378 1081 2264 
Q 1234 2150 1697 2047 
L 1894 2003 
Q 2506 1872 2764 1633 
Q 3022 1394 3022 966 
Q 3022 478 2636 193 
Q 2250 -91 1575 -91 
Q 1294 -91 989 -36 
Q 684 19 347 128 
L 347 722 
Q 666 556 975 473 
Q 1284 391 1588 391 
Q 1994 391 2212 530 
Q 2431 669 2431 922 
Q 2431 1156 2273 1281 
Q 2116 1406 1581 1522 
L 1381 1569 
Q 847 1681 609 1914 
Q 372 2147 372 2553 
Q 372 3047 722 3315 
Q 1072 3584 1716 3584 
Q 2034 3584 2315 3537 
Q 2597 3491 2834 3397 
z
" id="DejaVuSans-73" transform="scale(0.015625)"/>
        <path d="M 3122 3366 
L 3122 2828 
Q 2878 2963 2633 3030 
Q 2388 3097 2138 3097 
Q 1578 3097 1268 2742 
Q 959 2388 959 1747 
Q 959 1106 1268 751 
Q 1578 397 2138 397 
Q 2388 397 2633 464 
Q 2878 531 3122 666 
L 3122 134 
Q 2881 22 2623 -34 
Q 2366 -91 2075 -91 
Q 1284 -91 818 406 
Q 353 903 353 1747 
Q 353 2603 823 3093 
Q 1294 3584 2113 3584 
Q 2378 3584 2631 3529 
Q 2884 3475 3122 3366 
z
" id="DejaVuSans-63" transform="scale(0.015625)"/>
        <path d="M 603 3500 
L 1178 3500 
L 1178 0 
L 603 0 
L 603 3500 
z
M 603 4863 
L 1178 4863 
L 1178 4134 
L 603 4134 
L 603 4863 
z
" id="DejaVuSans-69" transform="scale(0.015625)"/>
        <path d="M 1959 3097 
Q 1497 3097 1228 2736 
Q 959 2375 959 1747 
Q 959 1119 1226 758 
Q 1494 397 1959 397 
Q 2419 397 2687 759 
Q 2956 1122 2956 1747 
Q 2956 2369 2687 2733 
Q 2419 3097 1959 3097 
z
M 1959 3584 
Q 2709 3584 3137 3096 
Q 3566 2609 3566 1747 
Q 3566 888 3137 398 
Q 2709 -91 1959 -91 
Q 1206 -91 779 398 
Q 353 888 353 1747 
Q 353 2609 779 3096 
Q 1206 3584 1959 3584 
z
" id="DejaVuSans-6f" transform="scale(0.015625)"/>
       </defs>
       <use xlink:href="#DejaVuSans-74"/>
       <use x="39.208984" xlink:href="#DejaVuSans-72"/>
       <use x="80.322266" xlink:href="#DejaVuSans-61"/>
       <use x="141.601562" xlink:href="#DejaVuSans-6e"/>
       <use x="204.980469" xlink:href="#DejaVuSans-73"/>
       <use x="257.080078" xlink:href="#DejaVuSans-61"/>
       <use x="318.359375" xlink:href="#DejaVuSans-63"/>
       <use x="373.339844" xlink:href="#DejaVuSans-74"/>
       <use x="412.548828" xlink:href="#DejaVuSans-69"/>
       <use x="440.332031" xlink:href="#DejaVuSans-6f"/>
       <use x="501.513672" xlink:href="#DejaVuSans-6e"/>
       <use x="564.892578" xlink:href="#DejaVuSans-73"/>
      </g>
     </g>
    </g>
    <g id="text_2">
     <!-- ship_from -->
     <g style="fill:#262626;" transform="translate(1093.836563 1058.544063)scale(0.12 -0.12)">
      <defs>
       <path d="M 3513 2113 
L 3513 0 
L 2938 0 
L 2938 2094 
Q 2938 2591 2744 2837 
Q 2550 3084 2163 3084 
Q 1697 3084 1428 2787 
Q 1159 2491 1159 1978 
L 1159 0 
L 581 0 
L 581 4863 
L 1159 4863 
L 1159 2956 
Q 1366 3272 1645 3428 
Q 1925 3584 2291 3584 
Q 2894 3584 3203 3211 
Q 3513 2838 3513 2113 
z
" id="DejaVuSans-68" transform="scale(0.015625)"/>
       <path d="M 1159 525 
L 1159 -1331 
L 581 -1331 
L 581 3500 
L 1159 3500 
L 1159 2969 
Q 1341 3281 1617 3432 
Q 1894 3584 2278 3584 
Q 2916 3584 3314 3078 
Q 3713 2572 3713 1747 
Q 3713 922 3314 415 
Q 2916 -91 2278 -91 
Q 1894 -91 1617 61 
Q 1341 213 1159 525 
z
M 3116 1747 
Q 3116 2381 2855 2742 
Q 2594 3103 2138 3103 
Q 1681 3103 1420 2742 
Q 1159 2381 1159 1747 
Q 1159 1113 1420 752 
Q 1681 391 2138 391 
Q 2594 391 2855 752 
Q 3116 1113 3116 1747 
z
" id="DejaVuSans-70" transform="scale(0.015625)"/>
       <path d="M 3263 -1063 
L 3263 -1509 
L -63 -1509 
L -63 -1063 
L 3263 -1063 
z
" id="DejaVuSans-5f" transform="scale(0.015625)"/>
       <path d="M 2375 4863 
L 2375 4384 
L 1825 4384 
Q 1516 4384 1395 4259 
Q 1275 4134 1275 3809 
L 1275 3500 
L 2222 3500 
L 2222 3053 
L 1275 3053 
L 1275 0 
L 697 0 
L 697 3053 
L 147 3053 
L 147 3500 
L 697 3500 
L 697 3744 
Q 697 4328 969 4595 
Q 1241 4863 1831 4863 
L 2375 4863 
z
" id="DejaVuSans-66" transform="scale(0.015625)"/>
       <path d="M 3328 2828 
Q 3544 3216 3844 3400 
Q 4144 3584 4550 3584 
Q 5097 3584 5394 3201 
Q 5691 2819 5691 2113 
L 5691 0 
L 5113 0 
L 5113 2094 
Q 5113 2597 4934 2840 
Q 4756 3084 4391 3084 
Q 3944 3084 3684 2787 
Q 3425 2491 3425 1978 
L 3425 0 
L 2847 0 
L 2847 2094 
Q 2847 2600 2669 2842 
Q 2491 3084 2119 3084 
Q 1678 3084 1418 2786 
Q 1159 2488 1159 1978 
L 1159 0 
L 581 0 
L 581 3500 
L 1159 3500 
L 1159 2956 
Q 1356 3278 1631 3431 
Q 1906 3584 2284 3584 
Q 2666 3584 2933 3390 
Q 3200 3197 3328 2828 
z
" id="DejaVuSans-6d" transform="scale(0.015625)"/>
      </defs>
      <use xlink:href="#DejaVuSans-73"/>
      <use x="52.099609" xlink:href="#DejaVuSans-68"/>
      <use x="115.478516" xlink:href="#DejaVuSans-69"/>
      <use x="143.261719" xlink:href="#DejaVuSans-70"/>
      <use x="206.738281" xlink:href="#DejaVuSans-5f"/>
      <use x="256.738281" xlink:href="#DejaVuSans-66"/>
      <use x="291.943359" xlink:href="#DejaVuSans-72"/>
      <use x="330.806641" xlink:href="#DejaVuSans-6f"/>
      <use x="391.988281" xlink:href="#DejaVuSans-6d"/>
     </g>
    </g>
   </g>
   <g id="matplotlib.axis_2">
    <g id="ytick_1">
     <g id="line2d_1">
      <path clip-path="url(#pc42342c86e)" d="M 561.6 899.557469 
L 1684.8 899.557469 
" style="fill:none;stroke:#ffffff;stroke-linecap:round;"/>
     </g>
     <g id="text_3">
      <!-- 0 -->
      <g style="fill:#262626;" transform="translate(545.10125 903.73661)scale(0.11 -0.11)">
       <defs>
        <path d="M 2034 4250 
Q 1547 4250 1301 3770 
Q 1056 3291 1056 2328 
Q 1056 1369 1301 889 
Q 1547 409 2034 409 
Q 2525 409 2770 889 
Q 3016 1369 3016 2328 
Q 3016 3291 2770 3770 
Q 2525 4250 2034 4250 
z
M 2034 4750 
Q 2819 4750 3233 4129 
Q 3647 3509 3647 2328 
Q 3647 1150 3233 529 
Q 2819 -91 2034 -91 
Q 1250 -91 836 529 
Q 422 1150 422 2328 
Q 422 3509 836 4129 
Q 1250 4750 2034 4750 
z
" id="DejaVuSans-30" transform="scale(0.015625)"/>
       </defs>
       <use xlink:href="#DejaVuSans-30"/>
      </g>
     </g>
    </g>
    <g id="ytick_2">
     <g id="line2d_2">
      <path clip-path="url(#pc42342c86e)" d="M 561.6 726.127468 
L 1684.8 726.127468 
" style="fill:none;stroke:#ffffff;stroke-linecap:round;"/>
     </g>
     <g id="text_4">
      <!-- 20000 -->
      <g style="fill:#262626;" transform="translate(517.10625 730.306609)scale(0.11 -0.11)">
       <defs>
        <path d="M 1228 531 
L 3431 531 
L 3431 0 
L 469 0 
L 469 531 
Q 828 903 1448 1529 
Q 2069 2156 2228 2338 
Q 2531 2678 2651 2914 
Q 2772 3150 2772 3378 
Q 2772 3750 2511 3984 
Q 2250 4219 1831 4219 
Q 1534 4219 1204 4116 
Q 875 4013 500 3803 
L 500 4441 
Q 881 4594 1212 4672 
Q 1544 4750 1819 4750 
Q 2544 4750 2975 4387 
Q 3406 4025 3406 3419 
Q 3406 3131 3298 2873 
Q 3191 2616 2906 2266 
Q 2828 2175 2409 1742 
Q 1991 1309 1228 531 
z
" id="DejaVuSans-32" transform="scale(0.015625)"/>
       </defs>
       <use xlink:href="#DejaVuSans-32"/>
       <use x="63.623047" xlink:href="#DejaVuSans-30"/>
       <use x="127.246094" xlink:href="#DejaVuSans-30"/>
       <use x="190.869141" xlink:href="#DejaVuSans-30"/>
       <use x="254.492188" xlink:href="#DejaVuSans-30"/>
      </g>
     </g>
    </g>
    <g id="ytick_3">
     <g id="line2d_3">
      <path clip-path="url(#pc42342c86e)" d="M 561.6 552.697468 
L 1684.8 552.697468 
" style="fill:none;stroke:#ffffff;stroke-linecap:round;"/>
     </g>
     <g id="text_5">
      <!-- 40000 -->
      <g style="fill:#262626;" transform="translate(517.10625 556.876608)scale(0.11 -0.11)">
       <defs>
        <path d="M 2419 4116 
L 825 1625 
L 2419 1625 
L 2419 4116 
z
M 2253 4666 
L 3047 4666 
L 3047 1625 
L 3713 1625 
L 3713 1100 
L 3047 1100 
L 3047 0 
L 2419 0 
L 2419 1100 
L 313 1100 
L 313 1709 
L 2253 4666 
z
" id="DejaVuSans-34" transform="scale(0.015625)"/>
       </defs>
       <use xlink:href="#DejaVuSans-34"/>
       <use x="63.623047" xlink:href="#DejaVuSans-30"/>
       <use x="127.246094" xlink:href="#DejaVuSans-30"/>
       <use x="190.869141" xlink:href="#DejaVuSans-30"/>
       <use x="254.492188" xlink:href="#DejaVuSans-30"/>
      </g>
     </g>
    </g>
    <g id="ytick_4">
     <g id="line2d_4">
      <path clip-path="url(#pc42342c86e)" d="M 561.6 379.267467 
L 1684.8 379.267467 
" style="fill:none;stroke:#ffffff;stroke-linecap:round;"/>
     </g>
     <g id="text_6">
      <!-- 60000 -->
      <g style="fill:#262626;" transform="translate(517.10625 383.446607)scale(0.11 -0.11)">
       <defs>
        <path d="M 2113 2584 
Q 1688 2584 1439 2293 
Q 1191 2003 1191 1497 
Q 1191 994 1439 701 
Q 1688 409 2113 409 
Q 2538 409 2786 701 
Q 3034 994 3034 1497 
Q 3034 2003 2786 2293 
Q 2538 2584 2113 2584 
z
M 3366 4563 
L 3366 3988 
Q 3128 4100 2886 4159 
Q 2644 4219 2406 4219 
Q 1781 4219 1451 3797 
Q 1122 3375 1075 2522 
Q 1259 2794 1537 2939 
Q 1816 3084 2150 3084 
Q 2853 3084 3261 2657 
Q 3669 2231 3669 1497 
Q 3669 778 3244 343 
Q 2819 -91 2113 -91 
Q 1303 -91 875 529 
Q 447 1150 447 2328 
Q 447 3434 972 4092 
Q 1497 4750 2381 4750 
Q 2619 4750 2861 4703 
Q 3103 4656 3366 4563 
z
" id="DejaVuSans-36" transform="scale(0.015625)"/>
       </defs>
       <use xlink:href="#DejaVuSans-36"/>
       <use x="63.623047" xlink:href="#DejaVuSans-30"/>
       <use x="127.246094" xlink:href="#DejaVuSans-30"/>
       <use x="190.869141" xlink:href="#DejaVuSans-30"/>
       <use x="254.492188" xlink:href="#DejaVuSans-30"/>
      </g>
     </g>
    </g>
    <g id="ytick_5">
     <g id="line2d_5">
      <path clip-path="url(#pc42342c86e)" d="M 561.6 205.837466 
L 1684.8 205.837466 
" style="fill:none;stroke:#ffffff;stroke-linecap:round;"/>
     </g>
     <g id="text_7">
      <!-- 80000 -->
      <g style="fill:#262626;" transform="translate(517.10625 210.016607)scale(0.11 -0.11)">
       <defs>
        <path d="M 2034 2216 
Q 1584 2216 1326 1975 
Q 1069 1734 1069 1313 
Q 1069 891 1326 650 
Q 1584 409 2034 409 
Q 2484 409 2743 651 
Q 3003 894 3003 1313 
Q 3003 1734 2745 1975 
Q 2488 2216 2034 2216 
z
M 1403 2484 
Q 997 2584 770 2862 
Q 544 3141 544 3541 
Q 544 4100 942 4425 
Q 1341 4750 2034 4750 
Q 2731 4750 3128 4425 
Q 3525 4100 3525 3541 
Q 3525 3141 3298 2862 
Q 3072 2584 2669 2484 
Q 3125 2378 3379 2068 
Q 3634 1759 3634 1313 
Q 3634 634 3220 271 
Q 2806 -91 2034 -91 
Q 1263 -91 848 271 
Q 434 634 434 1313 
Q 434 1759 690 2068 
Q 947 2378 1403 2484 
z
M 1172 3481 
Q 1172 3119 1398 2916 
Q 1625 2713 2034 2713 
Q 2441 2713 2670 2916 
Q 2900 3119 2900 3481 
Q 2900 3844 2670 4047 
Q 2441 4250 2034 4250 
Q 1625 4250 1398 4047 
Q 1172 3844 1172 3481 
z
" id="DejaVuSans-38" transform="scale(0.015625)"/>
       </defs>
       <use xlink:href="#DejaVuSans-38"/>
       <use x="63.623047" xlink:href="#DejaVuSans-30"/>
       <use x="127.246094" xlink:href="#DejaVuSans-30"/>
       <use x="190.869141" xlink:href="#DejaVuSans-30"/>
       <use x="254.492188" xlink:href="#DejaVuSans-30"/>
      </g>
     </g>
    </g>
    <g id="text_8">
     <!-- count -->
     <g style="fill:#262626;" transform="translate(510.610625 598.6875)rotate(-90)scale(0.12 -0.12)">
      <defs>
       <path d="M 544 1381 
L 544 3500 
L 1119 3500 
L 1119 1403 
Q 1119 906 1312 657 
Q 1506 409 1894 409 
Q 2359 409 2629 706 
Q 2900 1003 2900 1516 
L 2900 3500 
L 3475 3500 
L 3475 0 
L 2900 0 
L 2900 538 
Q 2691 219 2414 64 
Q 2138 -91 1772 -91 
Q 1169 -91 856 284 
Q 544 659 544 1381 
z
M 1991 3584 
L 1991 3584 
z
" id="DejaVuSans-75" transform="scale(0.015625)"/>
      </defs>
      <use xlink:href="#DejaVuSans-63"/>
      <use x="54.980469" xlink:href="#DejaVuSans-6f"/>
      <use x="116.162109" xlink:href="#DejaVuSans-75"/>
      <use x="179.541016" xlink:href="#DejaVuSans-6e"/>
      <use x="242.919922" xlink:href="#DejaVuSans-74"/>
     </g>
    </g>
   </g>
   <g id="PolyCollection_1">
    <defs>
     <path d="M 1174.508242 -167.04 
L 1071.891758 -167.04 
L 1048.530483 -175.185455 
L 1018.357155 -183.330909 
L 981.164696 -191.476364 
L 937.529711 -199.621818 
L 888.988459 -207.767273 
L 838.077859 -215.912727 
L 788.192164 -224.058182 
L 743.242372 -232.203636 
L 707.154696 -240.349091 
L 683.292818 -248.494545 
L 673.92 -256.64 
L 679.81909 -264.785455 
L 700.157469 -272.930909 
L 732.627901 -281.076364 
L 773.831486 -289.221818 
L 819.815095 -297.367273 
L 866.647728 -305.512727 
L 910.924028 -313.658182 
L 950.113761 -321.803636 
L 982.72098 -329.949091 
L 1008.261324 -338.094545 
L 1027.098971 -346.24 
L 1040.200795 -354.385455 
L 1048.865338 -362.530909 
L 1054.473073 -370.676364 
L 1058.288408 -378.821818 
L 1061.32789 -386.967273 
L 1064.295948 -395.112727 
L 1067.580195 -403.258182 
L 1071.292602 -411.403636 
L 1075.340138 -419.549091 
L 1079.508204 -427.694545 
L 1083.542044 -435.84 
L 1087.214596 -443.985455 
L 1090.373426 -452.130909 
L 1092.963776 -460.276364 
L 1095.028638 -468.421818 
L 1096.689924 -476.567273 
L 1098.116945 -484.712727 
L 1099.489561 -492.858182 
L 1100.96339 -501.003636 
L 1102.643403 -509.149091 
L 1104.570096 -517.294545 
L 1106.719575 -525.44 
L 1109.015895 -533.585455 
L 1111.351548 -541.730909 
L 1113.610759 -549.876364 
L 1115.690366 -558.021818 
L 1117.514508 -566.167273 
L 1119.041418 -574.312727 
L 1120.262738 -582.458182 
L 1121.197332 -590.603636 
L 1121.882249 -598.749091 
L 1122.363367 -606.894545 
L 1122.687548 -615.04 
L 1122.897208 -623.185455 
L 1123.027426 -631.330909 
L 1123.105132 -639.476364 
L 1123.1497 -647.621818 
L 1123.174276 -655.767273 
L 1123.187306 -663.912727 
L 1123.193942 -672.058182 
L 1123.197168 -680.203636 
L 1123.198615 -688.349091 
L 1123.199094 -696.494545 
L 1123.198899 -704.64 
L 1123.197943 -712.785455 
L 1123.195736 -720.930909 
L 1123.191233 -729.076364 
L 1123.182526 -737.221818 
L 1123.166384 -745.367273 
L 1123.137628 -753.512727 
L 1123.088399 -761.658182 
L 1123.007443 -769.803636 
L 1122.879616 -777.949091 
L 1122.685959 -786.094545 
L 1122.404682 -794.24 
L 1122.01341 -802.385455 
L 1121.492829 -810.530909 
L 1120.831519 -818.676364 
L 1120.031314 -826.821818 
L 1119.112057 -834.967273 
L 1118.114344 -843.112727 
L 1117.098936 -851.258182 
L 1116.142016 -859.403636 
L 1115.326421 -867.549091 
L 1114.730063 -875.694545 
L 1114.413729 -883.84 
L 1114.410878 -891.985455 
L 1114.721816 -900.130909 
L 1115.313639 -908.276364 
L 1116.125969 -916.421818 
L 1117.081096 -924.567273 
L 1118.096162 -932.712727 
L 1119.094779 -940.858182 
L 1120.015857 -949.003636 
L 1120.81842 -957.149091 
L 1121.482273 -965.294545 
L 1122.005298 -973.44 
L 1124.394702 -973.44 
L 1124.394702 -973.44 
L 1124.917727 -965.294545 
L 1125.58158 -957.149091 
L 1126.384143 -949.003636 
L 1127.305221 -940.858182 
L 1128.303838 -932.712727 
L 1129.318904 -924.567273 
L 1130.274031 -916.421818 
L 1131.086361 -908.276364 
L 1131.678184 -900.130909 
L 1131.989122 -891.985455 
L 1131.986271 -883.84 
L 1131.669937 -875.694545 
L 1131.073579 -867.549091 
L 1130.257984 -859.403636 
L 1129.301064 -851.258182 
L 1128.285656 -843.112727 
L 1127.287943 -834.967273 
L 1126.368686 -826.821818 
L 1125.568481 -818.676364 
L 1124.907171 -810.530909 
L 1124.38659 -802.385455 
L 1123.995318 -794.24 
L 1123.714041 -786.094545 
L 1123.520384 -777.949091 
L 1123.392557 -769.803636 
L 1123.311601 -761.658182 
L 1123.262372 -753.512727 
L 1123.233616 -745.367273 
L 1123.217474 -737.221818 
L 1123.208767 -729.076364 
L 1123.204264 -720.930909 
L 1123.202057 -712.785455 
L 1123.201101 -704.64 
L 1123.200906 -696.494545 
L 1123.201385 -688.349091 
L 1123.202832 -680.203636 
L 1123.206058 -672.058182 
L 1123.212694 -663.912727 
L 1123.225724 -655.767273 
L 1123.2503 -647.621818 
L 1123.294868 -639.476364 
L 1123.372574 -631.330909 
L 1123.502792 -623.185455 
L 1123.712452 -615.04 
L 1124.036633 -606.894545 
L 1124.517751 -598.749091 
L 1125.202668 -590.603636 
L 1126.137262 -582.458182 
L 1127.358582 -574.312727 
L 1128.885492 -566.167273 
L 1130.709634 -558.021818 
L 1132.789241 -549.876364 
L 1135.048452 -541.730909 
L 1137.384105 -533.585455 
L 1139.680425 -525.44 
L 1141.829904 -517.294545 
L 1143.756597 -509.149091 
L 1145.43661 -501.003636 
L 1146.910439 -492.858182 
L 1148.283055 -484.712727 
L 1149.710076 -476.567273 
L 1151.371362 -468.421818 
L 1153.436224 -460.276364 
L 1156.026574 -452.130909 
L 1159.185404 -443.985455 
L 1162.857956 -435.84 
L 1166.891796 -427.694545 
L 1171.059862 -419.549091 
L 1175.107398 -411.403636 
L 1178.819805 -403.258182 
L 1182.104052 -395.112727 
L 1185.07211 -386.967273 
L 1188.111592 -378.821818 
L 1191.926927 -370.676364 
L 1197.534662 -362.530909 
L 1206.199205 -354.385455 
L 1219.301029 -346.24 
L 1238.138676 -338.094545 
L 1263.67902 -329.949091 
L 1296.286239 -321.803636 
L 1335.475972 -313.658182 
L 1379.752272 -305.512727 
L 1426.584905 -297.367273 
L 1472.568514 -289.221818 
L 1513.772099 -281.076364 
L 1546.242531 -272.930909 
L 1566.58091 -264.785455 
L 1572.48 -256.64 
L 1563.107182 -248.494545 
L 1539.245304 -240.349091 
L 1503.157628 -232.203636 
L 1458.207836 -224.058182 
L 1408.322141 -215.912727 
L 1357.411541 -207.767273 
L 1308.870289 -199.621818 
L 1265.235304 -191.476364 
L 1228.042845 -183.330909 
L 1197.869517 -175.185455 
L 1174.508242 -167.04 
z
" id="m8d5f9d8bbc" style="stroke:#4c4c4c;stroke-width:1.5;"/>
    </defs>
    <g clip-path="url(#pc42342c86e)">
     <use style="fill:#5875a4;stroke:#4c4c4c;stroke-width:1.5;" x="0" xlink:href="#m8d5f9d8bbc" y="1152"/>
    </g>
   </g>
   <g id="line2d_6">
    <path clip-path="url(#pc42342c86e)" d="M 1123.2 899.50544 
L 1123.2 888.17179 
" style="fill:none;stroke:#4c4c4c;stroke-linecap:round;stroke-width:1.5;"/>
   </g>
   <g id="line2d_7">
    <path clip-path="url(#pc42342c86e)" d="M 1123.2 899.312499 
L 1123.2 889.106144 
" style="fill:none;stroke:#4c4c4c;stroke-linecap:round;stroke-width:4.5;"/>
   </g>
   <g id="patch_3">
    <path d="M 561.6 1025.28 
L 561.6 138.24 
" style="fill:none;stroke:#ffffff;stroke-linecap:square;stroke-linejoin:miter;stroke-width:1.25;"/>
   </g>
   <g id="patch_4">
    <path d="M 1684.8 1025.28 
L 1684.8 138.24 
" style="fill:none;stroke:#ffffff;stroke-linecap:square;stroke-linejoin:miter;stroke-width:1.25;"/>
   </g>
   <g id="patch_5">
    <path d="M 561.6 1025.28 
L 1684.8 1025.28 
" style="fill:none;stroke:#ffffff;stroke-linecap:square;stroke-linejoin:miter;stroke-width:1.25;"/>
   </g>
   <g id="patch_6">
    <path d="M 561.6 138.24 
L 1684.8 138.24 
" style="fill:none;stroke:#ffffff;stroke-linecap:square;stroke-linejoin:miter;stroke-width:1.25;"/>
   </g>
   <g id="PathCollection_1">
    <defs>
     <path d="M 0 1.5 
C 0.397805 1.5 0.77937 1.341951 1.06066 1.06066 
C 1.341951 0.77937 1.5 0.397805 1.5 0 
C 1.5 -0.397805 1.341951 -0.77937 1.06066 -1.06066 
C 0.77937 -1.341951 0.397805 -1.5 0 -1.5 
C -0.397805 -1.5 -0.77937 -1.341951 -1.06066 -1.06066 
C -1.341951 -0.77937 -1.5 -0.397805 -1.5 0 
C -1.5 0.397805 -1.341951 0.77937 -1.06066 1.06066 
C -0.77937 1.341951 -0.397805 1.5 0 1.5 
z
" id="m3d5858840a" style="stroke:#4c4c4c;"/>
    </defs>
    <g clip-path="url(#pc42342c86e)">
     <use style="fill:#ffffff;stroke:#4c4c4c;" x="1123.2" xlink:href="#m3d5858840a" y="896.392372"/>
    </g>
   </g>
   <g id="text_9">
    <!-- 12-may2015.csv - Total number of transactions per shipping locality -->
    <g style="fill:#262626;" transform="translate(918.514688 132.24)scale(0.12 -0.12)">
     <defs>
      <path d="M 794 531 
L 1825 531 
L 1825 4091 
L 703 3866 
L 703 4441 
L 1819 4666 
L 2450 4666 
L 2450 531 
L 3481 531 
L 3481 0 
L 794 0 
L 794 531 
z
" id="DejaVuSans-31" transform="scale(0.015625)"/>
      <path d="M 313 2009 
L 1997 2009 
L 1997 1497 
L 313 1497 
L 313 2009 
z
" id="DejaVuSans-2d" transform="scale(0.015625)"/>
      <path d="M 2059 -325 
Q 1816 -950 1584 -1140 
Q 1353 -1331 966 -1331 
L 506 -1331 
L 506 -850 
L 844 -850 
Q 1081 -850 1212 -737 
Q 1344 -625 1503 -206 
L 1606 56 
L 191 3500 
L 800 3500 
L 1894 763 
L 2988 3500 
L 3597 3500 
L 2059 -325 
z
" id="DejaVuSans-79" transform="scale(0.015625)"/>
      <path d="M 691 4666 
L 3169 4666 
L 3169 4134 
L 1269 4134 
L 1269 2991 
Q 1406 3038 1543 3061 
Q 1681 3084 1819 3084 
Q 2600 3084 3056 2656 
Q 3513 2228 3513 1497 
Q 3513 744 3044 326 
Q 2575 -91 1722 -91 
Q 1428 -91 1123 -41 
Q 819 9 494 109 
L 494 744 
Q 775 591 1075 516 
Q 1375 441 1709 441 
Q 2250 441 2565 725 
Q 2881 1009 2881 1497 
Q 2881 1984 2565 2268 
Q 2250 2553 1709 2553 
Q 1456 2553 1204 2497 
Q 953 2441 691 2322 
L 691 4666 
z
" id="DejaVuSans-35" transform="scale(0.015625)"/>
      <path d="M 684 794 
L 1344 794 
L 1344 0 
L 684 0 
L 684 794 
z
" id="DejaVuSans-2e" transform="scale(0.015625)"/>
      <path d="M 191 3500 
L 800 3500 
L 1894 563 
L 2988 3500 
L 3597 3500 
L 2284 0 
L 1503 0 
L 191 3500 
z
" id="DejaVuSans-76" transform="scale(0.015625)"/>
      <path id="DejaVuSans-20" transform="scale(0.015625)"/>
      <path d="M -19 4666 
L 3928 4666 
L 3928 4134 
L 2272 4134 
L 2272 0 
L 1638 0 
L 1638 4134 
L -19 4134 
L -19 4666 
z
" id="DejaVuSans-54" transform="scale(0.015625)"/>
      <path d="M 603 4863 
L 1178 4863 
L 1178 0 
L 603 0 
L 603 4863 
z
" id="DejaVuSans-6c" transform="scale(0.015625)"/>
      <path d="M 3116 1747 
Q 3116 2381 2855 2742 
Q 2594 3103 2138 3103 
Q 1681 3103 1420 2742 
Q 1159 2381 1159 1747 
Q 1159 1113 1420 752 
Q 1681 391 2138 391 
Q 2594 391 2855 752 
Q 3116 1113 3116 1747 
z
M 1159 2969 
Q 1341 3281 1617 3432 
Q 1894 3584 2278 3584 
Q 2916 3584 3314 3078 
Q 3713 2572 3713 1747 
Q 3713 922 3314 415 
Q 2916 -91 2278 -91 
Q 1894 -91 1617 61 
Q 1341 213 1159 525 
L 1159 0 
L 581 0 
L 581 4863 
L 1159 4863 
L 1159 2969 
z
" id="DejaVuSans-62" transform="scale(0.015625)"/>
      <path d="M 3597 1894 
L 3597 1613 
L 953 1613 
Q 991 1019 1311 708 
Q 1631 397 2203 397 
Q 2534 397 2845 478 
Q 3156 559 3463 722 
L 3463 178 
Q 3153 47 2828 -22 
Q 2503 -91 2169 -91 
Q 1331 -91 842 396 
Q 353 884 353 1716 
Q 353 2575 817 3079 
Q 1281 3584 2069 3584 
Q 2775 3584 3186 3129 
Q 3597 2675 3597 1894 
z
M 3022 2063 
Q 3016 2534 2758 2815 
Q 2500 3097 2075 3097 
Q 1594 3097 1305 2825 
Q 1016 2553 972 2059 
L 3022 2063 
z
" id="DejaVuSans-65" transform="scale(0.015625)"/>
      <path d="M 2906 1791 
Q 2906 2416 2648 2759 
Q 2391 3103 1925 3103 
Q 1463 3103 1205 2759 
Q 947 2416 947 1791 
Q 947 1169 1205 825 
Q 1463 481 1925 481 
Q 2391 481 2648 825 
Q 2906 1169 2906 1791 
z
M 3481 434 
Q 3481 -459 3084 -895 
Q 2688 -1331 1869 -1331 
Q 1566 -1331 1297 -1286 
Q 1028 -1241 775 -1147 
L 775 -588 
Q 1028 -725 1275 -790 
Q 1522 -856 1778 -856 
Q 2344 -856 2625 -561 
Q 2906 -266 2906 331 
L 2906 616 
Q 2728 306 2450 153 
Q 2172 0 1784 0 
Q 1141 0 747 490 
Q 353 981 353 1791 
Q 353 2603 747 3093 
Q 1141 3584 1784 3584 
Q 2172 3584 2450 3431 
Q 2728 3278 2906 2969 
L 2906 3500 
L 3481 3500 
L 3481 434 
z
" id="DejaVuSans-67" transform="scale(0.015625)"/>
     </defs>
     <use xlink:href="#DejaVuSans-31"/>
     <use x="63.623047" xlink:href="#DejaVuSans-32"/>
     <use x="127.246094" xlink:href="#DejaVuSans-2d"/>
     <use x="163.330078" xlink:href="#DejaVuSans-6d"/>
     <use x="260.742188" xlink:href="#DejaVuSans-61"/>
     <use x="322.021484" xlink:href="#DejaVuSans-79"/>
     <use x="381.201172" xlink:href="#DejaVuSans-32"/>
     <use x="444.824219" xlink:href="#DejaVuSans-30"/>
     <use x="508.447266" xlink:href="#DejaVuSans-31"/>
     <use x="572.070312" xlink:href="#DejaVuSans-35"/>
     <use x="635.693359" xlink:href="#DejaVuSans-2e"/>
     <use x="667.480469" xlink:href="#DejaVuSans-63"/>
     <use x="722.460938" xlink:href="#DejaVuSans-73"/>
     <use x="774.560547" xlink:href="#DejaVuSans-76"/>
     <use x="833.740234" xlink:href="#DejaVuSans-20"/>
     <use x="865.527344" xlink:href="#DejaVuSans-2d"/>
     <use x="901.611328" xlink:href="#DejaVuSans-20"/>
     <use x="933.398438" xlink:href="#DejaVuSans-54"/>
     <use x="977.482422" xlink:href="#DejaVuSans-6f"/>
     <use x="1038.664062" xlink:href="#DejaVuSans-74"/>
     <use x="1077.873047" xlink:href="#DejaVuSans-61"/>
     <use x="1139.152344" xlink:href="#DejaVuSans-6c"/>
     <use x="1166.935547" xlink:href="#DejaVuSans-20"/>
     <use x="1198.722656" xlink:href="#DejaVuSans-6e"/>
     <use x="1262.101562" xlink:href="#DejaVuSans-75"/>
     <use x="1325.480469" xlink:href="#DejaVuSans-6d"/>
     <use x="1422.892578" xlink:href="#DejaVuSans-62"/>
     <use x="1486.369141" xlink:href="#DejaVuSans-65"/>
     <use x="1547.892578" xlink:href="#DejaVuSans-72"/>
     <use x="1589.005859" xlink:href="#DejaVuSans-20"/>
     <use x="1620.792969" xlink:href="#DejaVuSans-6f"/>
     <use x="1681.974609" xlink:href="#DejaVuSans-66"/>
     <use x="1717.179688" xlink:href="#DejaVuSans-20"/>
     <use x="1748.966797" xlink:href="#DejaVuSans-74"/>
     <use x="1788.175781" xlink:href="#DejaVuSans-72"/>
     <use x="1829.289062" xlink:href="#DejaVuSans-61"/>
     <use x="1890.568359" xlink:href="#DejaVuSans-6e"/>
     <use x="1953.947266" xlink:href="#DejaVuSans-73"/>
     <use x="2006.046875" xlink:href="#DejaVuSans-61"/>
     <use x="2067.326172" xlink:href="#DejaVuSans-63"/>
     <use x="2122.306641" xlink:href="#DejaVuSans-74"/>
     <use x="2161.515625" xlink:href="#DejaVuSans-69"/>
     <use x="2189.298828" xlink:href="#DejaVuSans-6f"/>
     <use x="2250.480469" xlink:href="#DejaVuSans-6e"/>
     <use x="2313.859375" xlink:href="#DejaVuSans-73"/>
     <use x="2365.958984" xlink:href="#DejaVuSans-20"/>
     <use x="2397.746094" xlink:href="#DejaVuSans-70"/>
     <use x="2461.222656" xlink:href="#DejaVuSans-65"/>
     <use x="2522.746094" xlink:href="#DejaVuSans-72"/>
     <use x="2563.859375" xlink:href="#DejaVuSans-20"/>
     <use x="2595.646484" xlink:href="#DejaVuSans-73"/>
     <use x="2647.746094" xlink:href="#DejaVuSans-68"/>
     <use x="2711.125" xlink:href="#DejaVuSans-69"/>
     <use x="2738.908203" xlink:href="#DejaVuSans-70"/>
     <use x="2802.384766" xlink:href="#DejaVuSans-70"/>
     <use x="2865.861328" xlink:href="#DejaVuSans-69"/>
     <use x="2893.644531" xlink:href="#DejaVuSans-6e"/>
     <use x="2957.023438" xlink:href="#DejaVuSans-67"/>
     <use x="3020.5" xlink:href="#DejaVuSans-20"/>
     <use x="3052.287109" xlink:href="#DejaVuSans-6c"/>
     <use x="3080.070312" xlink:href="#DejaVuSans-6f"/>
     <use x="3141.251953" xlink:href="#DejaVuSans-63"/>
     <use x="3196.232422" xlink:href="#DejaVuSans-61"/>
     <use x="3257.511719" xlink:href="#DejaVuSans-6c"/>
     <use x="3285.294922" xlink:href="#DejaVuSans-69"/>
     <use x="3313.078125" xlink:href="#DejaVuSans-74"/>
     <use x="3352.287109" xlink:href="#DejaVuSans-79"/>
    </g>
   </g>
  </g>
 </g>
 <defs>
  <clipPath id="pc42342c86e">
   <rect height="887.04" width="1123.2" x="561.6" y="138.24"/>
  </clipPath>
 </defs>
</svg>
