<?xml version="1.0" encoding="utf-8" standalone="no"?>
<!DOCTYPE svg PUBLIC "-//W3C//DTD SVG 1.1//EN"
  "http://www.w3.org/Graphics/SVG/1.1/DTD/svg11.dtd">
<svg height="345.6pt" version="1.1" viewBox="0 0 460.8 345.6" width="460.8pt" xmlns="http://www.w3.org/2000/svg" xmlns:xlink="http://www.w3.org/1999/xlink">
 <metadata>
  <rdf:RDF xmlns:cc="http://creativecommons.org/ns#" xmlns:dc="http://purl.org/dc/elements/1.1/" xmlns:rdf="http://www.w3.org/1999/02/22-rdf-syntax-ns#">
   <cc:Work>
    <dc:type rdf:resource="http://purl.org/dc/dcmitype/StillImage"/>
    <dc:date>2021-07-11T18:58:03.339689</dc:date>
    <dc:format>image/svg+xml</dc:format>
    <dc:creator>
     <cc:Agent>
      <dc:title>Matplotlib v3.4.2, https://matplotlib.org/</dc:title>
     </cc:Agent>
    </dc:creator>
   </cc:Work>
  </rdf:RDF>
 </metadata>
 <defs>
  <style type="text/css">*{stroke-linecap:butt;stroke-linejoin:round;}</style>
 </defs>
 <g id="figure_1">
  <g id="patch_1">
   <path d="M 0 345.6 
L 460.8 345.6 
L 460.8 0 
L 0 0 
z
" style="fill:#ffffff;"/>
  </g>
  <g id="axes_1">
   <g id="patch_2">
    <path d="M 230.4 307.584 
L 414.72 307.584 
L 414.72 41.472 
L 230.4 41.472 
z
" style="fill:#eaeaf2;"/>
   </g>
   <g id="matplotlib.axis_1">
    <g id="xtick_1">
     <g id="line2d_1">
      <path clip-path="url(#paba5b85a4b)" d="M 230.4 307.584 
L 230.4 41.472 
" style="fill:none;stroke:#ffffff;stroke-linecap:round;"/>
     </g>
     <g id="text_1">
      <!-- 0 -->
      <g style="fill:#262626;" transform="translate(226.900625 325.442281)scale(0.11 -0.11)">
       <defs>
        <path d="M 2034 4250 
Q 1547 4250 1301 3770 
Q 1056 3291 1056 2328 
Q 1056 1369 1301 889 
Q 1547 409 2034 409 
Q 2525 409 2770 889 
Q 3016 1369 3016 2328 
Q 3016 3291 2770 3770 
Q 2525 4250 2034 4250 
z
M 2034 4750 
Q 2819 4750 3233 4129 
Q 3647 3509 3647 2328 
Q 3647 1150 3233 529 
Q 2819 -91 2034 -91 
Q 1250 -91 836 529 
Q 422 1150 422 2328 
Q 422 3509 836 4129 
Q 1250 4750 2034 4750 
z
" id="DejaVuSans-30" transform="scale(0.015625)"/>
       </defs>
       <use xlink:href="#DejaVuSans-30"/>
      </g>
     </g>
    </g>
    <g id="xtick_2">
     <g id="line2d_2">
      <path clip-path="url(#paba5b85a4b)" d="M 276.222159 307.584 
L 276.222159 41.472 
" style="fill:none;stroke:#ffffff;stroke-linecap:round;"/>
     </g>
     <g id="text_2">
      <!-- 25000 -->
      <g style="fill:#262626;" transform="translate(258.725284 325.442281)scale(0.11 -0.11)">
       <defs>
        <path d="M 1228 531 
L 3431 531 
L 3431 0 
L 469 0 
L 469 531 
Q 828 903 1448 1529 
Q 2069 2156 2228 2338 
Q 2531 2678 2651 2914 
Q 2772 3150 2772 3378 
Q 2772 3750 2511 3984 
Q 2250 4219 1831 4219 
Q 1534 4219 1204 4116 
Q 875 4013 500 3803 
L 500 4441 
Q 881 4594 1212 4672 
Q 1544 4750 1819 4750 
Q 2544 4750 2975 4387 
Q 3406 4025 3406 3419 
Q 3406 3131 3298 2873 
Q 3191 2616 2906 2266 
Q 2828 2175 2409 1742 
Q 1991 1309 1228 531 
z
" id="DejaVuSans-32" transform="scale(0.015625)"/>
        <path d="M 691 4666 
L 3169 4666 
L 3169 4134 
L 1269 4134 
L 1269 2991 
Q 1406 3038 1543 3061 
Q 1681 3084 1819 3084 
Q 2600 3084 3056 2656 
Q 3513 2228 3513 1497 
Q 3513 744 3044 326 
Q 2575 -91 1722 -91 
Q 1428 -91 1123 -41 
Q 819 9 494 109 
L 494 744 
Q 775 591 1075 516 
Q 1375 441 1709 441 
Q 2250 441 2565 725 
Q 2881 1009 2881 1497 
Q 2881 1984 2565 2268 
Q 2250 2553 1709 2553 
Q 1456 2553 1204 2497 
Q 953 2441 691 2322 
L 691 4666 
z
" id="DejaVuSans-35" transform="scale(0.015625)"/>
       </defs>
       <use xlink:href="#DejaVuSans-32"/>
       <use x="63.623047" xlink:href="#DejaVuSans-35"/>
       <use x="127.246094" xlink:href="#DejaVuSans-30"/>
       <use x="190.869141" xlink:href="#DejaVuSans-30"/>
       <use x="254.492188" xlink:href="#DejaVuSans-30"/>
      </g>
     </g>
    </g>
    <g id="xtick_3">
     <g id="line2d_3">
      <path clip-path="url(#paba5b85a4b)" d="M 322.044317 307.584 
L 322.044317 41.472 
" style="fill:none;stroke:#ffffff;stroke-linecap:round;"/>
     </g>
     <g id="text_3">
      <!-- 50000 -->
      <g style="fill:#262626;" transform="translate(304.547442 325.442281)scale(0.11 -0.11)">
       <use xlink:href="#DejaVuSans-35"/>
       <use x="63.623047" xlink:href="#DejaVuSans-30"/>
       <use x="127.246094" xlink:href="#DejaVuSans-30"/>
       <use x="190.869141" xlink:href="#DejaVuSans-30"/>
       <use x="254.492188" xlink:href="#DejaVuSans-30"/>
      </g>
     </g>
    </g>
    <g id="xtick_4">
     <g id="line2d_4">
      <path clip-path="url(#paba5b85a4b)" d="M 367.866476 307.584 
L 367.866476 41.472 
" style="fill:none;stroke:#ffffff;stroke-linecap:round;"/>
     </g>
     <g id="text_4">
      <!-- 75000 -->
      <g style="fill:#262626;" transform="translate(350.369601 325.442281)scale(0.11 -0.11)">
       <defs>
        <path d="M 525 4666 
L 3525 4666 
L 3525 4397 
L 1831 0 
L 1172 0 
L 2766 4134 
L 525 4134 
L 525 4666 
z
" id="DejaVuSans-37" transform="scale(0.015625)"/>
       </defs>
       <use xlink:href="#DejaVuSans-37"/>
       <use x="63.623047" xlink:href="#DejaVuSans-35"/>
       <use x="127.246094" xlink:href="#DejaVuSans-30"/>
       <use x="190.869141" xlink:href="#DejaVuSans-30"/>
       <use x="254.492188" xlink:href="#DejaVuSans-30"/>
      </g>
     </g>
    </g>
    <g id="xtick_5">
     <g id="line2d_5">
      <path clip-path="url(#paba5b85a4b)" d="M 413.688635 307.584 
L 413.688635 41.472 
" style="fill:none;stroke:#ffffff;stroke-linecap:round;"/>
     </g>
     <g id="text_5">
      <!-- 100000 -->
      <g style="fill:#262626;" transform="translate(392.692385 325.442281)scale(0.11 -0.11)">
       <defs>
        <path d="M 794 531 
L 1825 531 
L 1825 4091 
L 703 3866 
L 703 4441 
L 1819 4666 
L 2450 4666 
L 2450 531 
L 3481 531 
L 3481 0 
L 794 0 
L 794 531 
z
" id="DejaVuSans-31" transform="scale(0.015625)"/>
       </defs>
       <use xlink:href="#DejaVuSans-31"/>
       <use x="63.623047" xlink:href="#DejaVuSans-30"/>
       <use x="127.246094" xlink:href="#DejaVuSans-30"/>
       <use x="190.869141" xlink:href="#DejaVuSans-30"/>
       <use x="254.492188" xlink:href="#DejaVuSans-30"/>
       <use x="318.115234" xlink:href="#DejaVuSans-30"/>
      </g>
     </g>
    </g>
    <g id="text_6">
     <!-- count -->
     <g style="fill:#262626;" transform="translate(305.6325 340.848062)scale(0.12 -0.12)">
      <defs>
       <path d="M 3122 3366 
L 3122 2828 
Q 2878 2963 2633 3030 
Q 2388 3097 2138 3097 
Q 1578 3097 1268 2742 
Q 959 2388 959 1747 
Q 959 1106 1268 751 
Q 1578 397 2138 397 
Q 2388 397 2633 464 
Q 2878 531 3122 666 
L 3122 134 
Q 2881 22 2623 -34 
Q 2366 -91 2075 -91 
Q 1284 -91 818 406 
Q 353 903 353 1747 
Q 353 2603 823 3093 
Q 1294 3584 2113 3584 
Q 2378 3584 2631 3529 
Q 2884 3475 3122 3366 
z
" id="DejaVuSans-63" transform="scale(0.015625)"/>
       <path d="M 1959 3097 
Q 1497 3097 1228 2736 
Q 959 2375 959 1747 
Q 959 1119 1226 758 
Q 1494 397 1959 397 
Q 2419 397 2687 759 
Q 2956 1122 2956 1747 
Q 2956 2369 2687 2733 
Q 2419 3097 1959 3097 
z
M 1959 3584 
Q 2709 3584 3137 3096 
Q 3566 2609 3566 1747 
Q 3566 888 3137 398 
Q 2709 -91 1959 -91 
Q 1206 -91 779 398 
Q 353 888 353 1747 
Q 353 2609 779 3096 
Q 1206 3584 1959 3584 
z
" id="DejaVuSans-6f" transform="scale(0.015625)"/>
       <path d="M 544 1381 
L 544 3500 
L 1119 3500 
L 1119 1403 
Q 1119 906 1312 657 
Q 1506 409 1894 409 
Q 2359 409 2629 706 
Q 2900 1003 2900 1516 
L 2900 3500 
L 3475 3500 
L 3475 0 
L 2900 0 
L 2900 538 
Q 2691 219 2414 64 
Q 2138 -91 1772 -91 
Q 1169 -91 856 284 
Q 544 659 544 1381 
z
M 1991 3584 
L 1991 3584 
z
" id="DejaVuSans-75" transform="scale(0.015625)"/>
       <path d="M 3513 2113 
L 3513 0 
L 2938 0 
L 2938 2094 
Q 2938 2591 2744 2837 
Q 2550 3084 2163 3084 
Q 1697 3084 1428 2787 
Q 1159 2491 1159 1978 
L 1159 0 
L 581 0 
L 581 3500 
L 1159 3500 
L 1159 2956 
Q 1366 3272 1645 3428 
Q 1925 3584 2291 3584 
Q 2894 3584 3203 3211 
Q 3513 2838 3513 2113 
z
" id="DejaVuSans-6e" transform="scale(0.015625)"/>
       <path d="M 1172 4494 
L 1172 3500 
L 2356 3500 
L 2356 3053 
L 1172 3053 
L 1172 1153 
Q 1172 725 1289 603 
Q 1406 481 1766 481 
L 2356 481 
L 2356 0 
L 1766 0 
Q 1100 0 847 248 
Q 594 497 594 1153 
L 594 3053 
L 172 3053 
L 172 3500 
L 594 3500 
L 594 4494 
L 1172 4494 
z
" id="DejaVuSans-74" transform="scale(0.015625)"/>
      </defs>
      <use xlink:href="#DejaVuSans-63"/>
      <use x="54.980469" xlink:href="#DejaVuSans-6f"/>
      <use x="116.162109" xlink:href="#DejaVuSans-75"/>
      <use x="179.541016" xlink:href="#DejaVuSans-6e"/>
      <use x="242.919922" xlink:href="#DejaVuSans-74"/>
     </g>
    </g>
   </g>
   <g id="matplotlib.axis_2">
    <g id="ytick_1">
     <g id="text_7">
      <!-- south africa -->
      <g style="fill:#262626;" transform="translate(155.707812 50.086341)scale(0.11 -0.11)">
       <defs>
        <path d="M 2834 3397 
L 2834 2853 
Q 2591 2978 2328 3040 
Q 2066 3103 1784 3103 
Q 1356 3103 1142 2972 
Q 928 2841 928 2578 
Q 928 2378 1081 2264 
Q 1234 2150 1697 2047 
L 1894 2003 
Q 2506 1872 2764 1633 
Q 3022 1394 3022 966 
Q 3022 478 2636 193 
Q 2250 -91 1575 -91 
Q 1294 -91 989 -36 
Q 684 19 347 128 
L 347 722 
Q 666 556 975 473 
Q 1284 391 1588 391 
Q 1994 391 2212 530 
Q 2431 669 2431 922 
Q 2431 1156 2273 1281 
Q 2116 1406 1581 1522 
L 1381 1569 
Q 847 1681 609 1914 
Q 372 2147 372 2553 
Q 372 3047 722 3315 
Q 1072 3584 1716 3584 
Q 2034 3584 2315 3537 
Q 2597 3491 2834 3397 
z
" id="DejaVuSans-73" transform="scale(0.015625)"/>
        <path d="M 3513 2113 
L 3513 0 
L 2938 0 
L 2938 2094 
Q 2938 2591 2744 2837 
Q 2550 3084 2163 3084 
Q 1697 3084 1428 2787 
Q 1159 2491 1159 1978 
L 1159 0 
L 581 0 
L 581 4863 
L 1159 4863 
L 1159 2956 
Q 1366 3272 1645 3428 
Q 1925 3584 2291 3584 
Q 2894 3584 3203 3211 
Q 3513 2838 3513 2113 
z
" id="DejaVuSans-68" transform="scale(0.015625)"/>
        <path id="DejaVuSans-20" transform="scale(0.015625)"/>
        <path d="M 2194 1759 
Q 1497 1759 1228 1600 
Q 959 1441 959 1056 
Q 959 750 1161 570 
Q 1363 391 1709 391 
Q 2188 391 2477 730 
Q 2766 1069 2766 1631 
L 2766 1759 
L 2194 1759 
z
M 3341 1997 
L 3341 0 
L 2766 0 
L 2766 531 
Q 2569 213 2275 61 
Q 1981 -91 1556 -91 
Q 1019 -91 701 211 
Q 384 513 384 1019 
Q 384 1609 779 1909 
Q 1175 2209 1959 2209 
L 2766 2209 
L 2766 2266 
Q 2766 2663 2505 2880 
Q 2244 3097 1772 3097 
Q 1472 3097 1187 3025 
Q 903 2953 641 2809 
L 641 3341 
Q 956 3463 1253 3523 
Q 1550 3584 1831 3584 
Q 2591 3584 2966 3190 
Q 3341 2797 3341 1997 
z
" id="DejaVuSans-61" transform="scale(0.015625)"/>
        <path d="M 2375 4863 
L 2375 4384 
L 1825 4384 
Q 1516 4384 1395 4259 
Q 1275 4134 1275 3809 
L 1275 3500 
L 2222 3500 
L 2222 3053 
L 1275 3053 
L 1275 0 
L 697 0 
L 697 3053 
L 147 3053 
L 147 3500 
L 697 3500 
L 697 3744 
Q 697 4328 969 4595 
Q 1241 4863 1831 4863 
L 2375 4863 
z
" id="DejaVuSans-66" transform="scale(0.015625)"/>
        <path d="M 2631 2963 
Q 2534 3019 2420 3045 
Q 2306 3072 2169 3072 
Q 1681 3072 1420 2755 
Q 1159 2438 1159 1844 
L 1159 0 
L 581 0 
L 581 3500 
L 1159 3500 
L 1159 2956 
Q 1341 3275 1631 3429 
Q 1922 3584 2338 3584 
Q 2397 3584 2469 3576 
Q 2541 3569 2628 3553 
L 2631 2963 
z
" id="DejaVuSans-72" transform="scale(0.015625)"/>
        <path d="M 603 3500 
L 1178 3500 
L 1178 0 
L 603 0 
L 603 3500 
z
M 603 4863 
L 1178 4863 
L 1178 4134 
L 603 4134 
L 603 4863 
z
" id="DejaVuSans-69" transform="scale(0.015625)"/>
       </defs>
       <use xlink:href="#DejaVuSans-73"/>
       <use x="52.099609" xlink:href="#DejaVuSans-6f"/>
       <use x="113.28125" xlink:href="#DejaVuSans-75"/>
       <use x="176.660156" xlink:href="#DejaVuSans-74"/>
       <use x="215.869141" xlink:href="#DejaVuSans-68"/>
       <use x="279.248047" xlink:href="#DejaVuSans-20"/>
       <use x="311.035156" xlink:href="#DejaVuSans-61"/>
       <use x="372.314453" xlink:href="#DejaVuSans-66"/>
       <use x="407.519531" xlink:href="#DejaVuSans-72"/>
       <use x="448.632812" xlink:href="#DejaVuSans-69"/>
       <use x="476.416016" xlink:href="#DejaVuSans-63"/>
       <use x="531.396484" xlink:href="#DejaVuSans-61"/>
      </g>
     </g>
    </g>
    <g id="ytick_2">
     <g id="text_8">
      <!-- norway -->
      <g style="fill:#262626;" transform="translate(180.428594 58.956741)scale(0.11 -0.11)">
       <defs>
        <path d="M 269 3500 
L 844 3500 
L 1563 769 
L 2278 3500 
L 2956 3500 
L 3675 769 
L 4391 3500 
L 4966 3500 
L 4050 0 
L 3372 0 
L 2619 2869 
L 1863 0 
L 1184 0 
L 269 3500 
z
" id="DejaVuSans-77" transform="scale(0.015625)"/>
        <path d="M 2059 -325 
Q 1816 -950 1584 -1140 
Q 1353 -1331 966 -1331 
L 506 -1331 
L 506 -850 
L 844 -850 
Q 1081 -850 1212 -737 
Q 1344 -625 1503 -206 
L 1606 56 
L 191 3500 
L 800 3500 
L 1894 763 
L 2988 3500 
L 3597 3500 
L 2059 -325 
z
" id="DejaVuSans-79" transform="scale(0.015625)"/>
       </defs>
       <use xlink:href="#DejaVuSans-6e"/>
       <use x="63.378906" xlink:href="#DejaVuSans-6f"/>
       <use x="124.560547" xlink:href="#DejaVuSans-72"/>
       <use x="165.673828" xlink:href="#DejaVuSans-77"/>
       <use x="247.460938" xlink:href="#DejaVuSans-61"/>
       <use x="308.740234" xlink:href="#DejaVuSans-79"/>
      </g>
     </g>
    </g>
    <g id="ytick_3">
     <g id="text_9">
      <!-- mexico -->
      <g style="fill:#262626;" transform="translate(181.263906 67.827141)scale(0.11 -0.11)">
       <defs>
        <path d="M 3328 2828 
Q 3544 3216 3844 3400 
Q 4144 3584 4550 3584 
Q 5097 3584 5394 3201 
Q 5691 2819 5691 2113 
L 5691 0 
L 5113 0 
L 5113 2094 
Q 5113 2597 4934 2840 
Q 4756 3084 4391 3084 
Q 3944 3084 3684 2787 
Q 3425 2491 3425 1978 
L 3425 0 
L 2847 0 
L 2847 2094 
Q 2847 2600 2669 2842 
Q 2491 3084 2119 3084 
Q 1678 3084 1418 2786 
Q 1159 2488 1159 1978 
L 1159 0 
L 581 0 
L 581 3500 
L 1159 3500 
L 1159 2956 
Q 1356 3278 1631 3431 
Q 1906 3584 2284 3584 
Q 2666 3584 2933 3390 
Q 3200 3197 3328 2828 
z
" id="DejaVuSans-6d" transform="scale(0.015625)"/>
        <path d="M 3597 1894 
L 3597 1613 
L 953 1613 
Q 991 1019 1311 708 
Q 1631 397 2203 397 
Q 2534 397 2845 478 
Q 3156 559 3463 722 
L 3463 178 
Q 3153 47 2828 -22 
Q 2503 -91 2169 -91 
Q 1331 -91 842 396 
Q 353 884 353 1716 
Q 353 2575 817 3079 
Q 1281 3584 2069 3584 
Q 2775 3584 3186 3129 
Q 3597 2675 3597 1894 
z
M 3022 2063 
Q 3016 2534 2758 2815 
Q 2500 3097 2075 3097 
Q 1594 3097 1305 2825 
Q 1016 2553 972 2059 
L 3022 2063 
z
" id="DejaVuSans-65" transform="scale(0.015625)"/>
        <path d="M 3513 3500 
L 2247 1797 
L 3578 0 
L 2900 0 
L 1881 1375 
L 863 0 
L 184 0 
L 1544 1831 
L 300 3500 
L 978 3500 
L 1906 2253 
L 2834 3500 
L 3513 3500 
z
" id="DejaVuSans-78" transform="scale(0.015625)"/>
       </defs>
       <use xlink:href="#DejaVuSans-6d"/>
       <use x="97.412109" xlink:href="#DejaVuSans-65"/>
       <use x="157.185547" xlink:href="#DejaVuSans-78"/>
       <use x="216.365234" xlink:href="#DejaVuSans-69"/>
       <use x="244.148438" xlink:href="#DejaVuSans-63"/>
       <use x="299.128906" xlink:href="#DejaVuSans-6f"/>
      </g>
     </g>
    </g>
    <g id="ytick_4">
     <g id="text_10">
      <!-- agora -->
      <g style="fill:#262626;" transform="translate(189.182187 76.697541)scale(0.11 -0.11)">
       <defs>
        <path d="M 2906 1791 
Q 2906 2416 2648 2759 
Q 2391 3103 1925 3103 
Q 1463 3103 1205 2759 
Q 947 2416 947 1791 
Q 947 1169 1205 825 
Q 1463 481 1925 481 
Q 2391 481 2648 825 
Q 2906 1169 2906 1791 
z
M 3481 434 
Q 3481 -459 3084 -895 
Q 2688 -1331 1869 -1331 
Q 1566 -1331 1297 -1286 
Q 1028 -1241 775 -1147 
L 775 -588 
Q 1028 -725 1275 -790 
Q 1522 -856 1778 -856 
Q 2344 -856 2625 -561 
Q 2906 -266 2906 331 
L 2906 616 
Q 2728 306 2450 153 
Q 2172 0 1784 0 
Q 1141 0 747 490 
Q 353 981 353 1791 
Q 353 2603 747 3093 
Q 1141 3584 1784 3584 
Q 2172 3584 2450 3431 
Q 2728 3278 2906 2969 
L 2906 3500 
L 3481 3500 
L 3481 434 
z
" id="DejaVuSans-67" transform="scale(0.015625)"/>
       </defs>
       <use xlink:href="#DejaVuSans-61"/>
       <use x="61.279297" xlink:href="#DejaVuSans-67"/>
       <use x="124.755859" xlink:href="#DejaVuSans-6f"/>
       <use x="185.9375" xlink:href="#DejaVuSans-72"/>
       <use x="227.050781" xlink:href="#DejaVuSans-61"/>
      </g>
     </g>
    </g>
    <g id="ytick_5">
     <g id="text_11">
      <!-- spain -->
      <g style="fill:#262626;" transform="translate(191.418281 85.567941)scale(0.11 -0.11)">
       <defs>
        <path d="M 1159 525 
L 1159 -1331 
L 581 -1331 
L 581 3500 
L 1159 3500 
L 1159 2969 
Q 1341 3281 1617 3432 
Q 1894 3584 2278 3584 
Q 2916 3584 3314 3078 
Q 3713 2572 3713 1747 
Q 3713 922 3314 415 
Q 2916 -91 2278 -91 
Q 1894 -91 1617 61 
Q 1341 213 1159 525 
z
M 3116 1747 
Q 3116 2381 2855 2742 
Q 2594 3103 2138 3103 
Q 1681 3103 1420 2742 
Q 1159 2381 1159 1747 
Q 1159 1113 1420 752 
Q 1681 391 2138 391 
Q 2594 391 2855 752 
Q 3116 1113 3116 1747 
z
" id="DejaVuSans-70" transform="scale(0.015625)"/>
       </defs>
       <use xlink:href="#DejaVuSans-73"/>
       <use x="52.099609" xlink:href="#DejaVuSans-70"/>
       <use x="115.576172" xlink:href="#DejaVuSans-61"/>
       <use x="176.855469" xlink:href="#DejaVuSans-69"/>
       <use x="204.638672" xlink:href="#DejaVuSans-6e"/>
      </g>
     </g>
    </g>
    <g id="ytick_6">
     <g id="text_12">
      <!-- undeclared;) -->
      <g style="fill:#262626;" transform="translate(151.337031 94.438341)scale(0.11 -0.11)">
       <defs>
        <path d="M 2906 2969 
L 2906 4863 
L 3481 4863 
L 3481 0 
L 2906 0 
L 2906 525 
Q 2725 213 2448 61 
Q 2172 -91 1784 -91 
Q 1150 -91 751 415 
Q 353 922 353 1747 
Q 353 2572 751 3078 
Q 1150 3584 1784 3584 
Q 2172 3584 2448 3432 
Q 2725 3281 2906 2969 
z
M 947 1747 
Q 947 1113 1208 752 
Q 1469 391 1925 391 
Q 2381 391 2643 752 
Q 2906 1113 2906 1747 
Q 2906 2381 2643 2742 
Q 2381 3103 1925 3103 
Q 1469 3103 1208 2742 
Q 947 2381 947 1747 
z
" id="DejaVuSans-64" transform="scale(0.015625)"/>
        <path d="M 603 4863 
L 1178 4863 
L 1178 0 
L 603 0 
L 603 4863 
z
" id="DejaVuSans-6c" transform="scale(0.015625)"/>
        <path d="M 750 3309 
L 1409 3309 
L 1409 2516 
L 750 2516 
L 750 3309 
z
M 750 794 
L 1409 794 
L 1409 256 
L 897 -744 
L 494 -744 
L 750 256 
L 750 794 
z
" id="DejaVuSans-3b" transform="scale(0.015625)"/>
        <path d="M 513 4856 
L 1013 4856 
Q 1481 4119 1714 3412 
Q 1947 2706 1947 2009 
Q 1947 1309 1714 600 
Q 1481 -109 1013 -844 
L 513 -844 
Q 928 -128 1133 580 
Q 1338 1288 1338 2009 
Q 1338 2731 1133 3434 
Q 928 4138 513 4856 
z
" id="DejaVuSans-29" transform="scale(0.015625)"/>
       </defs>
       <use xlink:href="#DejaVuSans-75"/>
       <use x="63.378906" xlink:href="#DejaVuSans-6e"/>
       <use x="126.757812" xlink:href="#DejaVuSans-64"/>
       <use x="190.234375" xlink:href="#DejaVuSans-65"/>
       <use x="251.757812" xlink:href="#DejaVuSans-63"/>
       <use x="306.738281" xlink:href="#DejaVuSans-6c"/>
       <use x="334.521484" xlink:href="#DejaVuSans-61"/>
       <use x="395.800781" xlink:href="#DejaVuSans-72"/>
       <use x="434.664062" xlink:href="#DejaVuSans-65"/>
       <use x="496.1875" xlink:href="#DejaVuSans-64"/>
       <use x="559.664062" xlink:href="#DejaVuSans-3b"/>
       <use x="593.355469" xlink:href="#DejaVuSans-29"/>
      </g>
     </g>
    </g>
    <g id="ytick_7">
     <g id="text_13">
      <!-- italy -->
      <g style="fill:#262626;" transform="translate(197.224219 103.308741)scale(0.11 -0.11)">
       <use xlink:href="#DejaVuSans-69"/>
       <use x="27.783203" xlink:href="#DejaVuSans-74"/>
       <use x="66.992188" xlink:href="#DejaVuSans-61"/>
       <use x="128.271484" xlink:href="#DejaVuSans-6c"/>
       <use x="156.054688" xlink:href="#DejaVuSans-79"/>
      </g>
     </g>
    </g>
    <g id="ytick_8">
     <g id="text_14">
      <!-- poland -->
      <g style="fill:#262626;" transform="translate(183.434687 112.179141)scale(0.11 -0.11)">
       <use xlink:href="#DejaVuSans-70"/>
       <use x="63.476562" xlink:href="#DejaVuSans-6f"/>
       <use x="124.658203" xlink:href="#DejaVuSans-6c"/>
       <use x="152.441406" xlink:href="#DejaVuSans-61"/>
       <use x="213.720703" xlink:href="#DejaVuSans-6e"/>
       <use x="277.099609" xlink:href="#DejaVuSans-64"/>
      </g>
     </g>
    </g>
    <g id="ytick_9">
     <g id="text_15">
      <!-- austria -->
      <g style="fill:#262626;" transform="translate(182.82625 121.049541)scale(0.11 -0.11)">
       <use xlink:href="#DejaVuSans-61"/>
       <use x="61.279297" xlink:href="#DejaVuSans-75"/>
       <use x="124.658203" xlink:href="#DejaVuSans-73"/>
       <use x="176.757812" xlink:href="#DejaVuSans-74"/>
       <use x="215.966797" xlink:href="#DejaVuSans-72"/>
       <use x="257.080078" xlink:href="#DejaVuSans-69"/>
       <use x="284.863281" xlink:href="#DejaVuSans-61"/>
      </g>
     </g>
    </g>
    <g id="ytick_10">
     <g id="text_16">
      <!-- europe -->
      <g style="fill:#262626;" transform="translate(182.403437 129.919941)scale(0.11 -0.11)">
       <use xlink:href="#DejaVuSans-65"/>
       <use x="61.523438" xlink:href="#DejaVuSans-75"/>
       <use x="124.902344" xlink:href="#DejaVuSans-72"/>
       <use x="163.765625" xlink:href="#DejaVuSans-6f"/>
       <use x="224.947266" xlink:href="#DejaVuSans-70"/>
       <use x="288.423828" xlink:href="#DejaVuSans-65"/>
      </g>
     </g>
    </g>
    <g id="ytick_11">
     <g id="text_17">
      <!-- czech republic -->
      <g style="fill:#262626;" transform="translate(141.653594 138.790341)scale(0.11 -0.11)">
       <defs>
        <path d="M 353 3500 
L 3084 3500 
L 3084 2975 
L 922 459 
L 3084 459 
L 3084 0 
L 275 0 
L 275 525 
L 2438 3041 
L 353 3041 
L 353 3500 
z
" id="DejaVuSans-7a" transform="scale(0.015625)"/>
        <path d="M 3116 1747 
Q 3116 2381 2855 2742 
Q 2594 3103 2138 3103 
Q 1681 3103 1420 2742 
Q 1159 2381 1159 1747 
Q 1159 1113 1420 752 
Q 1681 391 2138 391 
Q 2594 391 2855 752 
Q 3116 1113 3116 1747 
z
M 1159 2969 
Q 1341 3281 1617 3432 
Q 1894 3584 2278 3584 
Q 2916 3584 3314 3078 
Q 3713 2572 3713 1747 
Q 3713 922 3314 415 
Q 2916 -91 2278 -91 
Q 1894 -91 1617 61 
Q 1341 213 1159 525 
L 1159 0 
L 581 0 
L 581 4863 
L 1159 4863 
L 1159 2969 
z
" id="DejaVuSans-62" transform="scale(0.015625)"/>
       </defs>
       <use xlink:href="#DejaVuSans-63"/>
       <use x="54.980469" xlink:href="#DejaVuSans-7a"/>
       <use x="107.470703" xlink:href="#DejaVuSans-65"/>
       <use x="168.994141" xlink:href="#DejaVuSans-63"/>
       <use x="223.974609" xlink:href="#DejaVuSans-68"/>
       <use x="287.353516" xlink:href="#DejaVuSans-20"/>
       <use x="319.140625" xlink:href="#DejaVuSans-72"/>
       <use x="358.003906" xlink:href="#DejaVuSans-65"/>
       <use x="419.527344" xlink:href="#DejaVuSans-70"/>
       <use x="483.003906" xlink:href="#DejaVuSans-75"/>
       <use x="546.382812" xlink:href="#DejaVuSans-62"/>
       <use x="609.859375" xlink:href="#DejaVuSans-6c"/>
       <use x="637.642578" xlink:href="#DejaVuSans-69"/>
       <use x="665.425781" xlink:href="#DejaVuSans-63"/>
      </g>
     </g>
    </g>
    <g id="ytick_12">
     <g id="text_18">
      <!-- uk, usa, philippines -->
      <g style="fill:#262626;" transform="translate(114.517969 147.660741)scale(0.11 -0.11)">
       <defs>
        <path d="M 581 4863 
L 1159 4863 
L 1159 1991 
L 2875 3500 
L 3609 3500 
L 1753 1863 
L 3688 0 
L 2938 0 
L 1159 1709 
L 1159 0 
L 581 0 
L 581 4863 
z
" id="DejaVuSans-6b" transform="scale(0.015625)"/>
        <path d="M 750 794 
L 1409 794 
L 1409 256 
L 897 -744 
L 494 -744 
L 750 256 
L 750 794 
z
" id="DejaVuSans-2c" transform="scale(0.015625)"/>
       </defs>
       <use xlink:href="#DejaVuSans-75"/>
       <use x="63.378906" xlink:href="#DejaVuSans-6b"/>
       <use x="121.289062" xlink:href="#DejaVuSans-2c"/>
       <use x="153.076172" xlink:href="#DejaVuSans-20"/>
       <use x="184.863281" xlink:href="#DejaVuSans-75"/>
       <use x="248.242188" xlink:href="#DejaVuSans-73"/>
       <use x="300.341797" xlink:href="#DejaVuSans-61"/>
       <use x="361.621094" xlink:href="#DejaVuSans-2c"/>
       <use x="393.408203" xlink:href="#DejaVuSans-20"/>
       <use x="425.195312" xlink:href="#DejaVuSans-70"/>
       <use x="488.671875" xlink:href="#DejaVuSans-68"/>
       <use x="552.050781" xlink:href="#DejaVuSans-69"/>
       <use x="579.833984" xlink:href="#DejaVuSans-6c"/>
       <use x="607.617188" xlink:href="#DejaVuSans-69"/>
       <use x="635.400391" xlink:href="#DejaVuSans-70"/>
       <use x="698.876953" xlink:href="#DejaVuSans-70"/>
       <use x="762.353516" xlink:href="#DejaVuSans-69"/>
       <use x="790.136719" xlink:href="#DejaVuSans-6e"/>
       <use x="853.515625" xlink:href="#DejaVuSans-65"/>
       <use x="915.039062" xlink:href="#DejaVuSans-73"/>
      </g>
     </g>
    </g>
    <g id="ytick_13">
     <g id="text_19">
      <!-- france -->
      <g style="fill:#262626;" transform="translate(185.976719 156.531141)scale(0.11 -0.11)">
       <use xlink:href="#DejaVuSans-66"/>
       <use x="35.205078" xlink:href="#DejaVuSans-72"/>
       <use x="76.318359" xlink:href="#DejaVuSans-61"/>
       <use x="137.597656" xlink:href="#DejaVuSans-6e"/>
       <use x="200.976562" xlink:href="#DejaVuSans-63"/>
       <use x="255.957031" xlink:href="#DejaVuSans-65"/>
      </g>
     </g>
    </g>
    <g id="ytick_14">
     <g id="text_20">
      <!-- belgium -->
      <g style="fill:#262626;" transform="translate(176.367188 165.401541)scale(0.11 -0.11)">
       <use xlink:href="#DejaVuSans-62"/>
       <use x="63.476562" xlink:href="#DejaVuSans-65"/>
       <use x="125" xlink:href="#DejaVuSans-6c"/>
       <use x="152.783203" xlink:href="#DejaVuSans-67"/>
       <use x="216.259766" xlink:href="#DejaVuSans-69"/>
       <use x="244.042969" xlink:href="#DejaVuSans-75"/>
       <use x="307.421875" xlink:href="#DejaVuSans-6d"/>
      </g>
     </g>
    </g>
    <g id="ytick_15">
     <g id="text_21">
      <!-- denmark -->
      <g style="fill:#262626;" transform="translate(171.829688 174.271941)scale(0.11 -0.11)">
       <use xlink:href="#DejaVuSans-64"/>
       <use x="63.476562" xlink:href="#DejaVuSans-65"/>
       <use x="125" xlink:href="#DejaVuSans-6e"/>
       <use x="188.378906" xlink:href="#DejaVuSans-6d"/>
       <use x="285.791016" xlink:href="#DejaVuSans-61"/>
       <use x="347.070312" xlink:href="#DejaVuSans-72"/>
       <use x="388.183594" xlink:href="#DejaVuSans-6b"/>
      </g>
     </g>
    </g>
    <g id="ytick_16">
     <g id="text_22">
      <!-- ukraine -->
      <g style="fill:#262626;" transform="translate(179.500469 183.142341)scale(0.11 -0.11)">
       <use xlink:href="#DejaVuSans-75"/>
       <use x="63.378906" xlink:href="#DejaVuSans-6b"/>
       <use x="121.289062" xlink:href="#DejaVuSans-72"/>
       <use x="162.402344" xlink:href="#DejaVuSans-61"/>
       <use x="223.681641" xlink:href="#DejaVuSans-69"/>
       <use x="251.464844" xlink:href="#DejaVuSans-6e"/>
       <use x="314.84375" xlink:href="#DejaVuSans-65"/>
      </g>
     </g>
    </g>
    <g id="ytick_17">
     <g id="text_23">
      <!-- sweden -->
      <g style="fill:#262626;" transform="translate(178.682344 192.012741)scale(0.11 -0.11)">
       <use xlink:href="#DejaVuSans-73"/>
       <use x="52.099609" xlink:href="#DejaVuSans-77"/>
       <use x="133.886719" xlink:href="#DejaVuSans-65"/>
       <use x="195.410156" xlink:href="#DejaVuSans-64"/>
       <use x="258.886719" xlink:href="#DejaVuSans-65"/>
       <use x="320.410156" xlink:href="#DejaVuSans-6e"/>
      </g>
     </g>
    </g>
    <g id="ytick_18">
     <g id="text_24">
      <!-- world -->
      <g style="fill:#262626;" transform="translate(190.612188 200.883141)scale(0.11 -0.11)">
       <use xlink:href="#DejaVuSans-77"/>
       <use x="81.787109" xlink:href="#DejaVuSans-6f"/>
       <use x="142.96875" xlink:href="#DejaVuSans-72"/>
       <use x="184.082031" xlink:href="#DejaVuSans-6c"/>
       <use x="211.865234" xlink:href="#DejaVuSans-64"/>
      </g>
     </g>
    </g>
    <g id="ytick_19">
     <g id="text_25">
      <!-- india -->
      <g style="fill:#262626;" transform="translate(194.092656 209.753541)scale(0.11 -0.11)">
       <use xlink:href="#DejaVuSans-69"/>
       <use x="27.783203" xlink:href="#DejaVuSans-6e"/>
       <use x="91.162109" xlink:href="#DejaVuSans-64"/>
       <use x="154.638672" xlink:href="#DejaVuSans-69"/>
       <use x="182.421875" xlink:href="#DejaVuSans-61"/>
      </g>
     </g>
    </g>
    <g id="ytick_20">
     <g id="text_26">
      <!-- hong kong -->
      <g style="fill:#262626;" transform="translate(163.091563 218.623941)scale(0.11 -0.11)">
       <use xlink:href="#DejaVuSans-68"/>
       <use x="63.378906" xlink:href="#DejaVuSans-6f"/>
       <use x="124.560547" xlink:href="#DejaVuSans-6e"/>
       <use x="187.939453" xlink:href="#DejaVuSans-67"/>
       <use x="251.416016" xlink:href="#DejaVuSans-20"/>
       <use x="283.203125" xlink:href="#DejaVuSans-6b"/>
       <use x="337.488281" xlink:href="#DejaVuSans-6f"/>
       <use x="398.669922" xlink:href="#DejaVuSans-6e"/>
       <use x="462.048828" xlink:href="#DejaVuSans-67"/>
      </g>
     </g>
    </g>
    <g id="ytick_21">
     <g id="text_27">
      <!-- torland -->
      <g style="fill:#262626;" transform="translate(181.583594 227.494341)scale(0.11 -0.11)">
       <use xlink:href="#DejaVuSans-74"/>
       <use x="39.208984" xlink:href="#DejaVuSans-6f"/>
       <use x="100.390625" xlink:href="#DejaVuSans-72"/>
       <use x="141.503906" xlink:href="#DejaVuSans-6c"/>
       <use x="169.287109" xlink:href="#DejaVuSans-61"/>
       <use x="230.566406" xlink:href="#DejaVuSans-6e"/>
       <use x="293.945312" xlink:href="#DejaVuSans-64"/>
      </g>
     </g>
    </g>
    <g id="ytick_22">
     <g id="text_28">
      <!-- canada -->
      <g style="fill:#262626;" transform="translate(180.674375 236.364741)scale(0.11 -0.11)">
       <use xlink:href="#DejaVuSans-63"/>
       <use x="54.980469" xlink:href="#DejaVuSans-61"/>
       <use x="116.259766" xlink:href="#DejaVuSans-6e"/>
       <use x="179.638672" xlink:href="#DejaVuSans-61"/>
       <use x="240.917969" xlink:href="#DejaVuSans-64"/>
       <use x="304.394531" xlink:href="#DejaVuSans-61"/>
      </g>
     </g>
    </g>
    <g id="ytick_23">
     <g id="text_29">
      <!-- germany -->
      <g style="fill:#262626;" transform="translate(171.88125 245.235141)scale(0.11 -0.11)">
       <use xlink:href="#DejaVuSans-67"/>
       <use x="63.476562" xlink:href="#DejaVuSans-65"/>
       <use x="125" xlink:href="#DejaVuSans-72"/>
       <use x="164.363281" xlink:href="#DejaVuSans-6d"/>
       <use x="261.775391" xlink:href="#DejaVuSans-61"/>
       <use x="323.054688" xlink:href="#DejaVuSans-6e"/>
       <use x="386.433594" xlink:href="#DejaVuSans-79"/>
      </g>
     </g>
    </g>
    <g id="ytick_24">
     <g id="text_30">
      <!-- eu -->
      <g style="fill:#262626;" transform="translate(207.160313 254.105541)scale(0.11 -0.11)">
       <use xlink:href="#DejaVuSans-65"/>
       <use x="61.523438" xlink:href="#DejaVuSans-75"/>
      </g>
     </g>
    </g>
    <g id="ytick_25">
     <g id="text_31">
      <!-- internet -->
      <g style="fill:#262626;" transform="translate(177.410469 262.975941)scale(0.11 -0.11)">
       <use xlink:href="#DejaVuSans-69"/>
       <use x="27.783203" xlink:href="#DejaVuSans-6e"/>
       <use x="91.162109" xlink:href="#DejaVuSans-74"/>
       <use x="130.371094" xlink:href="#DejaVuSans-65"/>
       <use x="191.894531" xlink:href="#DejaVuSans-72"/>
       <use x="231.257812" xlink:href="#DejaVuSans-6e"/>
       <use x="294.636719" xlink:href="#DejaVuSans-65"/>
       <use x="356.160156" xlink:href="#DejaVuSans-74"/>
      </g>
     </g>
    </g>
    <g id="ytick_26">
     <g id="text_32">
      <!-- netherlands -->
      <g style="fill:#262626;" transform="translate(155.104531 271.846341)scale(0.11 -0.11)">
       <use xlink:href="#DejaVuSans-6e"/>
       <use x="63.378906" xlink:href="#DejaVuSans-65"/>
       <use x="124.902344" xlink:href="#DejaVuSans-74"/>
       <use x="164.111328" xlink:href="#DejaVuSans-68"/>
       <use x="227.490234" xlink:href="#DejaVuSans-65"/>
       <use x="289.013672" xlink:href="#DejaVuSans-72"/>
       <use x="330.126953" xlink:href="#DejaVuSans-6c"/>
       <use x="357.910156" xlink:href="#DejaVuSans-61"/>
       <use x="419.189453" xlink:href="#DejaVuSans-6e"/>
       <use x="482.568359" xlink:href="#DejaVuSans-64"/>
       <use x="546.044922" xlink:href="#DejaVuSans-73"/>
      </g>
     </g>
    </g>
    <g id="ytick_27">
     <g id="text_33">
      <!-- australia -->
      <g style="fill:#262626;" transform="translate(173.029375 280.716741)scale(0.11 -0.11)">
       <use xlink:href="#DejaVuSans-61"/>
       <use x="61.279297" xlink:href="#DejaVuSans-75"/>
       <use x="124.658203" xlink:href="#DejaVuSans-73"/>
       <use x="176.757812" xlink:href="#DejaVuSans-74"/>
       <use x="215.966797" xlink:href="#DejaVuSans-72"/>
       <use x="257.080078" xlink:href="#DejaVuSans-61"/>
       <use x="318.359375" xlink:href="#DejaVuSans-6c"/>
       <use x="346.142578" xlink:href="#DejaVuSans-69"/>
       <use x="373.925781" xlink:href="#DejaVuSans-61"/>
      </g>
     </g>
    </g>
    <g id="ytick_28">
     <g id="text_34">
      <!-- uk -->
      <g style="fill:#262626;" transform="translate(207.559063 289.587141)scale(0.11 -0.11)">
       <use xlink:href="#DejaVuSans-75"/>
       <use x="63.378906" xlink:href="#DejaVuSans-6b"/>
      </g>
     </g>
    </g>
    <g id="ytick_29">
     <g id="text_35">
      <!-- china -->
      <g style="fill:#262626;" transform="translate(191.112344 298.457541)scale(0.11 -0.11)">
       <use xlink:href="#DejaVuSans-63"/>
       <use x="54.980469" xlink:href="#DejaVuSans-68"/>
       <use x="118.359375" xlink:href="#DejaVuSans-69"/>
       <use x="146.142578" xlink:href="#DejaVuSans-6e"/>
       <use x="209.521484" xlink:href="#DejaVuSans-61"/>
      </g>
     </g>
    </g>
    <g id="ytick_30">
     <g id="text_36">
      <!-- usa -->
      <g style="fill:#262626;" transform="translate(201.4575 307.327941)scale(0.11 -0.11)">
       <use xlink:href="#DejaVuSans-75"/>
       <use x="63.378906" xlink:href="#DejaVuSans-73"/>
       <use x="115.478516" xlink:href="#DejaVuSans-61"/>
      </g>
     </g>
    </g>
    <g id="text_37">
     <!-- ship_from -->
     <g style="fill:#262626;" transform="translate(107.688594 203.891437)rotate(-90)scale(0.12 -0.12)">
      <defs>
       <path d="M 3263 -1063 
L 3263 -1509 
L -63 -1509 
L -63 -1063 
L 3263 -1063 
z
" id="DejaVuSans-5f" transform="scale(0.015625)"/>
      </defs>
      <use xlink:href="#DejaVuSans-73"/>
      <use x="52.099609" xlink:href="#DejaVuSans-68"/>
      <use x="115.478516" xlink:href="#DejaVuSans-69"/>
      <use x="143.261719" xlink:href="#DejaVuSans-70"/>
      <use x="206.738281" xlink:href="#DejaVuSans-5f"/>
      <use x="256.738281" xlink:href="#DejaVuSans-66"/>
      <use x="291.943359" xlink:href="#DejaVuSans-72"/>
      <use x="330.806641" xlink:href="#DejaVuSans-6f"/>
      <use x="391.988281" xlink:href="#DejaVuSans-6d"/>
     </g>
    </g>
   </g>
   <g id="patch_3">
    <path clip-path="url(#paba5b85a4b)" d="M 230.4 42.35904 
L 231.389759 42.35904 
L 231.389759 49.45536 
L 230.4 49.45536 
z
" style="fill:#ea96a3;stroke:#ffffff;stroke-linejoin:miter;"/>
   </g>
   <g id="patch_4">
    <path clip-path="url(#paba5b85a4b)" d="M 230.4 51.22944 
L 231.706848 51.22944 
L 231.706848 58.32576 
L 230.4 58.32576 
z
" style="fill:#e99791;stroke:#ffffff;stroke-linejoin:miter;"/>
   </g>
   <g id="patch_5">
    <path clip-path="url(#paba5b85a4b)" d="M 230.4 60.09984 
L 232.132078 60.09984 
L 232.132078 67.19616 
L 230.4 67.19616 
z
" style="fill:#e59471;stroke:#ffffff;stroke-linejoin:miter;"/>
   </g>
   <g id="patch_6">
    <path clip-path="url(#paba5b85a4b)" d="M 230.4 68.97024 
L 232.161404 68.97024 
L 232.161404 76.06656 
L 230.4 76.06656 
z
" style="fill:#d7944e;stroke:#ffffff;stroke-linejoin:miter;"/>
   </g>
   <g id="patch_7">
    <path clip-path="url(#paba5b85a4b)" d="M 230.4 77.84064 
L 232.236552 77.84064 
L 232.236552 84.93696 
L 230.4 84.93696 
z
" style="fill:#c6994b;stroke:#ffffff;stroke-linejoin:miter;"/>
   </g>
   <g id="patch_8">
    <path clip-path="url(#paba5b85a4b)" d="M 230.4 86.71104 
L 232.427172 86.71104 
L 232.427172 93.80736 
L 230.4 93.80736 
z
" style="fill:#b89c49;stroke:#ffffff;stroke-linejoin:miter;"/>
   </g>
   <g id="patch_9">
    <path clip-path="url(#paba5b85a4b)" d="M 230.4 95.58144 
L 232.505986 95.58144 
L 232.505986 102.67776 
L 230.4 102.67776 
z
" style="fill:#ab9e47;stroke:#ffffff;stroke-linejoin:miter;"/>
   </g>
   <g id="patch_10">
    <path clip-path="url(#paba5b85a4b)" d="M 230.4 104.45184 
L 232.632456 104.45184 
L 232.632456 111.54816 
L 230.4 111.54816 
z
" style="fill:#9ea045;stroke:#ffffff;stroke-linejoin:miter;"/>
   </g>
   <g id="patch_11">
    <path clip-path="url(#paba5b85a4b)" d="M 230.4 113.32224 
L 232.720434 113.32224 
L 232.720434 120.41856 
L 230.4 120.41856 
z
" style="fill:#91a446;stroke:#ffffff;stroke-linejoin:miter;"/>
   </g>
   <g id="patch_12">
    <path clip-path="url(#paba5b85a4b)" d="M 230.4 122.19264 
L 232.978871 122.19264 
L 232.978871 129.28896 
L 230.4 129.28896 
z
" style="fill:#7fa946;stroke:#ffffff;stroke-linejoin:miter;"/>
   </g>
   <g id="patch_13">
    <path clip-path="url(#paba5b85a4b)" d="M 230.4 131.06304 
L 233.008197 131.06304 
L 233.008197 138.15936 
L 230.4 138.15936 
z
" style="fill:#60ae47;stroke:#ffffff;stroke-linejoin:miter;"/>
   </g>
   <g id="patch_14">
    <path clip-path="url(#paba5b85a4b)" d="M 230.4 139.93344 
L 233.286796 139.93344 
L 233.286796 147.02976 
L 230.4 147.02976 
z
" style="fill:#48b06a;stroke:#ffffff;stroke-linejoin:miter;"/>
   </g>
   <g id="patch_15">
    <path clip-path="url(#paba5b85a4b)" d="M 230.4 148.80384 
L 233.534236 148.80384 
L 233.534236 155.90016 
L 230.4 155.90016 
z
" style="fill:#49ae83;stroke:#ffffff;stroke-linejoin:miter;"/>
   </g>
   <g id="patch_16">
    <path clip-path="url(#paba5b85a4b)" d="M 230.4 157.67424 
L 233.792673 157.67424 
L 233.792673 164.77056 
L 230.4 164.77056 
z
" style="fill:#4aad91;stroke:#ffffff;stroke-linejoin:miter;"/>
   </g>
   <g id="patch_17">
    <path clip-path="url(#paba5b85a4b)" d="M 230.4 166.54464 
L 234.217902 166.54464 
L 234.217902 173.64096 
L 230.4 173.64096 
z
" style="fill:#4aac9b;stroke:#ffffff;stroke-linejoin:miter;"/>
   </g>
   <g id="patch_18">
    <path clip-path="url(#paba5b85a4b)" d="M 230.4 175.41504 
L 234.976717 175.41504 
L 234.976717 182.51136 
L 230.4 182.51136 
z
" style="fill:#4baba4;stroke:#ffffff;stroke-linejoin:miter;"/>
   </g>
   <g id="patch_19">
    <path clip-path="url(#paba5b85a4b)" d="M 230.4 184.28544 
L 239.042059 184.28544 
L 239.042059 191.38176 
L 230.4 191.38176 
z
" style="fill:#4cabad;stroke:#ffffff;stroke-linejoin:miter;"/>
   </g>
   <g id="patch_20">
    <path clip-path="url(#paba5b85a4b)" d="M 230.4 193.15584 
L 240.405727 193.15584 
L 240.405727 200.25216 
L 230.4 200.25216 
z
" style="fill:#4eabb7;stroke:#ffffff;stroke-linejoin:miter;"/>
   </g>
   <g id="patch_21">
    <path clip-path="url(#paba5b85a4b)" d="M 230.4 202.02624 
L 241.129717 202.02624 
L 241.129717 209.12256 
L 230.4 209.12256 
z
" style="fill:#50acc3;stroke:#ffffff;stroke-linejoin:miter;"/>
   </g>
   <g id="patch_22">
    <path clip-path="url(#paba5b85a4b)" d="M 230.4 210.89664 
L 241.67775 210.89664 
L 241.67775 217.99296 
L 230.4 217.99296 
z
" style="fill:#54acd1;stroke:#ffffff;stroke-linejoin:miter;"/>
   </g>
   <g id="patch_23">
    <path clip-path="url(#paba5b85a4b)" d="M 230.4 219.76704 
L 260.877234 219.76704 
L 260.877234 226.86336 
L 230.4 226.86336 
z
" style="fill:#6daee2;stroke:#ffffff;stroke-linejoin:miter;"/>
   </g>
   <g id="patch_24">
    <path clip-path="url(#paba5b85a4b)" d="M 230.4 228.63744 
L 262.490174 228.63744 
L 262.490174 235.73376 
L 230.4 235.73376 
z
" style="fill:#94aee8;stroke:#ffffff;stroke-linejoin:miter;"/>
   </g>
   <g id="patch_25">
    <path clip-path="url(#paba5b85a4b)" d="M 230.4 237.50784 
L 270.661182 237.50784 
L 270.661182 244.60416 
L 230.4 244.60416 
z
" style="fill:#adabeb;stroke:#ffffff;stroke-linejoin:miter;"/>
   </g>
   <g id="patch_26">
    <path clip-path="url(#paba5b85a4b)" d="M 230.4 246.37824 
L 273.890727 246.37824 
L 273.890727 253.47456 
L 230.4 253.47456 
z
" style="fill:#bea4ea;stroke:#ffffff;stroke-linejoin:miter;"/>
   </g>
   <g id="patch_27">
    <path clip-path="url(#paba5b85a4b)" d="M 230.4 255.24864 
L 275.829921 255.24864 
L 275.829921 262.34496 
L 230.4 262.34496 
z
" style="fill:#ce9be9;stroke:#ffffff;stroke-linejoin:miter;"/>
   </g>
   <g id="patch_28">
    <path clip-path="url(#paba5b85a4b)" d="M 230.4 264.11904 
L 276.541081 264.11904 
L 276.541081 271.21536 
L 230.4 271.21536 
z
" style="fill:#df8fe7;stroke:#ffffff;stroke-linejoin:miter;"/>
   </g>
   <g id="patch_29">
    <path clip-path="url(#paba5b85a4b)" d="M 230.4 272.98944 
L 288.183575 272.98944 
L 288.183575 280.08576 
L 230.4 280.08576 
z
" style="fill:#e78bdb;stroke:#ffffff;stroke-linejoin:miter;"/>
   </g>
   <g id="patch_30">
    <path clip-path="url(#paba5b85a4b)" d="M 230.4 281.85984 
L 291.180344 281.85984 
L 291.180344 288.95616 
L 230.4 288.95616 
z
" style="fill:#e88fcc;stroke:#ffffff;stroke-linejoin:miter;"/>
   </g>
   <g id="patch_31">
    <path clip-path="url(#paba5b85a4b)" d="M 230.4 290.73024 
L 302.298633 290.73024 
L 302.298633 297.82656 
L 230.4 297.82656 
z
" style="fill:#e891bf;stroke:#ffffff;stroke-linejoin:miter;"/>
   </g>
   <g id="patch_32">
    <path clip-path="url(#paba5b85a4b)" d="M 230.4 299.60064 
L 405.942857 299.60064 
L 405.942857 306.69696 
L 230.4 306.69696 
z
" style="fill:#e994b2;stroke:#ffffff;stroke-linejoin:miter;"/>
   </g>
   <g id="line2d_6">
    <path clip-path="url(#paba5b85a4b)" style="fill:none;stroke:#424242;stroke-linecap:round;stroke-width:2.7;"/>
   </g>
   <g id="line2d_7">
    <path clip-path="url(#paba5b85a4b)" style="fill:none;stroke:#424242;stroke-linecap:round;stroke-width:2.7;"/>
   </g>
   <g id="line2d_8">
    <path clip-path="url(#paba5b85a4b)" style="fill:none;stroke:#424242;stroke-linecap:round;stroke-width:2.7;"/>
   </g>
   <g id="line2d_9">
    <path clip-path="url(#paba5b85a4b)" style="fill:none;stroke:#424242;stroke-linecap:round;stroke-width:2.7;"/>
   </g>
   <g id="line2d_10">
    <path clip-path="url(#paba5b85a4b)" style="fill:none;stroke:#424242;stroke-linecap:round;stroke-width:2.7;"/>
   </g>
   <g id="line2d_11">
    <path clip-path="url(#paba5b85a4b)" style="fill:none;stroke:#424242;stroke-linecap:round;stroke-width:2.7;"/>
   </g>
   <g id="line2d_12">
    <path clip-path="url(#paba5b85a4b)" style="fill:none;stroke:#424242;stroke-linecap:round;stroke-width:2.7;"/>
   </g>
   <g id="line2d_13">
    <path clip-path="url(#paba5b85a4b)" style="fill:none;stroke:#424242;stroke-linecap:round;stroke-width:2.7;"/>
   </g>
   <g id="line2d_14">
    <path clip-path="url(#paba5b85a4b)" style="fill:none;stroke:#424242;stroke-linecap:round;stroke-width:2.7;"/>
   </g>
   <g id="line2d_15">
    <path clip-path="url(#paba5b85a4b)" style="fill:none;stroke:#424242;stroke-linecap:round;stroke-width:2.7;"/>
   </g>
   <g id="line2d_16">
    <path clip-path="url(#paba5b85a4b)" style="fill:none;stroke:#424242;stroke-linecap:round;stroke-width:2.7;"/>
   </g>
   <g id="line2d_17">
    <path clip-path="url(#paba5b85a4b)" style="fill:none;stroke:#424242;stroke-linecap:round;stroke-width:2.7;"/>
   </g>
   <g id="line2d_18">
    <path clip-path="url(#paba5b85a4b)" style="fill:none;stroke:#424242;stroke-linecap:round;stroke-width:2.7;"/>
   </g>
   <g id="line2d_19">
    <path clip-path="url(#paba5b85a4b)" style="fill:none;stroke:#424242;stroke-linecap:round;stroke-width:2.7;"/>
   </g>
   <g id="line2d_20">
    <path clip-path="url(#paba5b85a4b)" style="fill:none;stroke:#424242;stroke-linecap:round;stroke-width:2.7;"/>
   </g>
   <g id="line2d_21">
    <path clip-path="url(#paba5b85a4b)" style="fill:none;stroke:#424242;stroke-linecap:round;stroke-width:2.7;"/>
   </g>
   <g id="line2d_22">
    <path clip-path="url(#paba5b85a4b)" style="fill:none;stroke:#424242;stroke-linecap:round;stroke-width:2.7;"/>
   </g>
   <g id="line2d_23">
    <path clip-path="url(#paba5b85a4b)" style="fill:none;stroke:#424242;stroke-linecap:round;stroke-width:2.7;"/>
   </g>
   <g id="line2d_24">
    <path clip-path="url(#paba5b85a4b)" style="fill:none;stroke:#424242;stroke-linecap:round;stroke-width:2.7;"/>
   </g>
   <g id="line2d_25">
    <path clip-path="url(#paba5b85a4b)" style="fill:none;stroke:#424242;stroke-linecap:round;stroke-width:2.7;"/>
   </g>
   <g id="line2d_26">
    <path clip-path="url(#paba5b85a4b)" style="fill:none;stroke:#424242;stroke-linecap:round;stroke-width:2.7;"/>
   </g>
   <g id="line2d_27">
    <path clip-path="url(#paba5b85a4b)" style="fill:none;stroke:#424242;stroke-linecap:round;stroke-width:2.7;"/>
   </g>
   <g id="line2d_28">
    <path clip-path="url(#paba5b85a4b)" style="fill:none;stroke:#424242;stroke-linecap:round;stroke-width:2.7;"/>
   </g>
   <g id="line2d_29">
    <path clip-path="url(#paba5b85a4b)" style="fill:none;stroke:#424242;stroke-linecap:round;stroke-width:2.7;"/>
   </g>
   <g id="line2d_30">
    <path clip-path="url(#paba5b85a4b)" style="fill:none;stroke:#424242;stroke-linecap:round;stroke-width:2.7;"/>
   </g>
   <g id="line2d_31">
    <path clip-path="url(#paba5b85a4b)" style="fill:none;stroke:#424242;stroke-linecap:round;stroke-width:2.7;"/>
   </g>
   <g id="line2d_32">
    <path clip-path="url(#paba5b85a4b)" style="fill:none;stroke:#424242;stroke-linecap:round;stroke-width:2.7;"/>
   </g>
   <g id="line2d_33">
    <path clip-path="url(#paba5b85a4b)" style="fill:none;stroke:#424242;stroke-linecap:round;stroke-width:2.7;"/>
   </g>
   <g id="line2d_34">
    <path clip-path="url(#paba5b85a4b)" style="fill:none;stroke:#424242;stroke-linecap:round;stroke-width:2.7;"/>
   </g>
   <g id="line2d_35">
    <path clip-path="url(#paba5b85a4b)" style="fill:none;stroke:#424242;stroke-linecap:round;stroke-width:2.7;"/>
   </g>
   <g id="patch_33">
    <path d="M 230.4 307.584 
L 230.4 41.472 
" style="fill:none;stroke:#ffffff;stroke-linecap:square;stroke-linejoin:miter;stroke-width:1.25;"/>
   </g>
   <g id="patch_34">
    <path d="M 414.72 307.584 
L 414.72 41.472 
" style="fill:none;stroke:#ffffff;stroke-linecap:square;stroke-linejoin:miter;stroke-width:1.25;"/>
   </g>
   <g id="patch_35">
    <path d="M 230.4 307.584 
L 414.72 307.584 
" style="fill:none;stroke:#ffffff;stroke-linecap:square;stroke-linejoin:miter;stroke-width:1.25;"/>
   </g>
   <g id="patch_36">
    <path d="M 230.4 41.472 
L 414.72 41.472 
" style="fill:none;stroke:#ffffff;stroke-linecap:square;stroke-linejoin:miter;stroke-width:1.25;"/>
   </g>
  </g>
 </g>
 <defs>
  <clipPath id="paba5b85a4b">
   <rect height="266.112" width="184.32" x="230.4" y="41.472"/>
  </clipPath>
 </defs>
</svg>
