<?xml version="1.0" encoding="utf-8" standalone="no"?>
<!DOCTYPE svg PUBLIC "-//W3C//DTD SVG 1.1//EN"
  "http://www.w3.org/Graphics/SVG/1.1/DTD/svg11.dtd">
<svg height="1152pt" version="1.1" viewBox="0 0 1872 1152" width="1872pt" xmlns="http://www.w3.org/2000/svg" xmlns:xlink="http://www.w3.org/1999/xlink">
 <metadata>
  <rdf:RDF xmlns:cc="http://creativecommons.org/ns#" xmlns:dc="http://purl.org/dc/elements/1.1/" xmlns:rdf="http://www.w3.org/1999/02/22-rdf-syntax-ns#">
   <cc:Work>
    <dc:type rdf:resource="http://purl.org/dc/dcmitype/StillImage"/>
    <dc:date>2021-08-29T21:15:19.468982</dc:date>
    <dc:format>image/svg+xml</dc:format>
    <dc:creator>
     <cc:Agent>
      <dc:title>Matplotlib v3.4.3, https://matplotlib.org/</dc:title>
     </cc:Agent>
    </dc:creator>
   </cc:Work>
  </rdf:RDF>
 </metadata>
 <defs>
  <style type="text/css">*{stroke-linecap:butt;stroke-linejoin:round;}</style>
 </defs>
 <g id="figure_1">
  <g id="patch_1">
   <path d="M 0 1152 
L 1872 1152 
L 1872 0 
L 0 0 
z
" style="fill:#ffffff;"/>
  </g>
  <g id="axes_1">
   <g id="patch_2">
    <path d="M 561.6 1025.28 
L 1684.8 1025.28 
L 1684.8 138.24 
L 561.6 138.24 
z
" style="fill:#eaeaf2;"/>
   </g>
   <g id="matplotlib.axis_1">
    <g id="xtick_1">
     <g id="text_1">
      <!-- transactions -->
      <g style="fill:#262626;" transform="translate(1089.266719 1043.138281)scale(0.11 -0.11)">
       <defs>
        <path d="M 1172 4494 
L 1172 3500 
L 2356 3500 
L 2356 3053 
L 1172 3053 
L 1172 1153 
Q 1172 725 1289 603 
Q 1406 481 1766 481 
L 2356 481 
L 2356 0 
L 1766 0 
Q 1100 0 847 248 
Q 594 497 594 1153 
L 594 3053 
L 172 3053 
L 172 3500 
L 594 3500 
L 594 4494 
L 1172 4494 
z
" id="DejaVuSans-74" transform="scale(0.015625)"/>
        <path d="M 2631 2963 
Q 2534 3019 2420 3045 
Q 2306 3072 2169 3072 
Q 1681 3072 1420 2755 
Q 1159 2438 1159 1844 
L 1159 0 
L 581 0 
L 581 3500 
L 1159 3500 
L 1159 2956 
Q 1341 3275 1631 3429 
Q 1922 3584 2338 3584 
Q 2397 3584 2469 3576 
Q 2541 3569 2628 3553 
L 2631 2963 
z
" id="DejaVuSans-72" transform="scale(0.015625)"/>
        <path d="M 2194 1759 
Q 1497 1759 1228 1600 
Q 959 1441 959 1056 
Q 959 750 1161 570 
Q 1363 391 1709 391 
Q 2188 391 2477 730 
Q 2766 1069 2766 1631 
L 2766 1759 
L 2194 1759 
z
M 3341 1997 
L 3341 0 
L 2766 0 
L 2766 531 
Q 2569 213 2275 61 
Q 1981 -91 1556 -91 
Q 1019 -91 701 211 
Q 384 513 384 1019 
Q 384 1609 779 1909 
Q 1175 2209 1959 2209 
L 2766 2209 
L 2766 2266 
Q 2766 2663 2505 2880 
Q 2244 3097 1772 3097 
Q 1472 3097 1187 3025 
Q 903 2953 641 2809 
L 641 3341 
Q 956 3463 1253 3523 
Q 1550 3584 1831 3584 
Q 2591 3584 2966 3190 
Q 3341 2797 3341 1997 
z
" id="DejaVuSans-61" transform="scale(0.015625)"/>
        <path d="M 3513 2113 
L 3513 0 
L 2938 0 
L 2938 2094 
Q 2938 2591 2744 2837 
Q 2550 3084 2163 3084 
Q 1697 3084 1428 2787 
Q 1159 2491 1159 1978 
L 1159 0 
L 581 0 
L 581 3500 
L 1159 3500 
L 1159 2956 
Q 1366 3272 1645 3428 
Q 1925 3584 2291 3584 
Q 2894 3584 3203 3211 
Q 3513 2838 3513 2113 
z
" id="DejaVuSans-6e" transform="scale(0.015625)"/>
        <path d="M 2834 3397 
L 2834 2853 
Q 2591 2978 2328 3040 
Q 2066 3103 1784 3103 
Q 1356 3103 1142 2972 
Q 928 2841 928 2578 
Q 928 2378 1081 2264 
Q 1234 2150 1697 2047 
L 1894 2003 
Q 2506 1872 2764 1633 
Q 3022 1394 3022 966 
Q 3022 478 2636 193 
Q 2250 -91 1575 -91 
Q 1294 -91 989 -36 
Q 684 19 347 128 
L 347 722 
Q 666 556 975 473 
Q 1284 391 1588 391 
Q 1994 391 2212 530 
Q 2431 669 2431 922 
Q 2431 1156 2273 1281 
Q 2116 1406 1581 1522 
L 1381 1569 
Q 847 1681 609 1914 
Q 372 2147 372 2553 
Q 372 3047 722 3315 
Q 1072 3584 1716 3584 
Q 2034 3584 2315 3537 
Q 2597 3491 2834 3397 
z
" id="DejaVuSans-73" transform="scale(0.015625)"/>
        <path d="M 3122 3366 
L 3122 2828 
Q 2878 2963 2633 3030 
Q 2388 3097 2138 3097 
Q 1578 3097 1268 2742 
Q 959 2388 959 1747 
Q 959 1106 1268 751 
Q 1578 397 2138 397 
Q 2388 397 2633 464 
Q 2878 531 3122 666 
L 3122 134 
Q 2881 22 2623 -34 
Q 2366 -91 2075 -91 
Q 1284 -91 818 406 
Q 353 903 353 1747 
Q 353 2603 823 3093 
Q 1294 3584 2113 3584 
Q 2378 3584 2631 3529 
Q 2884 3475 3122 3366 
z
" id="DejaVuSans-63" transform="scale(0.015625)"/>
        <path d="M 603 3500 
L 1178 3500 
L 1178 0 
L 603 0 
L 603 3500 
z
M 603 4863 
L 1178 4863 
L 1178 4134 
L 603 4134 
L 603 4863 
z
" id="DejaVuSans-69" transform="scale(0.015625)"/>
        <path d="M 1959 3097 
Q 1497 3097 1228 2736 
Q 959 2375 959 1747 
Q 959 1119 1226 758 
Q 1494 397 1959 397 
Q 2419 397 2687 759 
Q 2956 1122 2956 1747 
Q 2956 2369 2687 2733 
Q 2419 3097 1959 3097 
z
M 1959 3584 
Q 2709 3584 3137 3096 
Q 3566 2609 3566 1747 
Q 3566 888 3137 398 
Q 2709 -91 1959 -91 
Q 1206 -91 779 398 
Q 353 888 353 1747 
Q 353 2609 779 3096 
Q 1206 3584 1959 3584 
z
" id="DejaVuSans-6f" transform="scale(0.015625)"/>
       </defs>
       <use xlink:href="#DejaVuSans-74"/>
       <use x="39.208984" xlink:href="#DejaVuSans-72"/>
       <use x="80.322266" xlink:href="#DejaVuSans-61"/>
       <use x="141.601562" xlink:href="#DejaVuSans-6e"/>
       <use x="204.980469" xlink:href="#DejaVuSans-73"/>
       <use x="257.080078" xlink:href="#DejaVuSans-61"/>
       <use x="318.359375" xlink:href="#DejaVuSans-63"/>
       <use x="373.339844" xlink:href="#DejaVuSans-74"/>
       <use x="412.548828" xlink:href="#DejaVuSans-69"/>
       <use x="440.332031" xlink:href="#DejaVuSans-6f"/>
       <use x="501.513672" xlink:href="#DejaVuSans-6e"/>
       <use x="564.892578" xlink:href="#DejaVuSans-73"/>
      </g>
     </g>
    </g>
    <g id="text_2">
     <!-- ship_from -->
     <g style="fill:#262626;" transform="translate(1093.836563 1058.544063)scale(0.12 -0.12)">
      <defs>
       <path d="M 3513 2113 
L 3513 0 
L 2938 0 
L 2938 2094 
Q 2938 2591 2744 2837 
Q 2550 3084 2163 3084 
Q 1697 3084 1428 2787 
Q 1159 2491 1159 1978 
L 1159 0 
L 581 0 
L 581 4863 
L 1159 4863 
L 1159 2956 
Q 1366 3272 1645 3428 
Q 1925 3584 2291 3584 
Q 2894 3584 3203 3211 
Q 3513 2838 3513 2113 
z
" id="DejaVuSans-68" transform="scale(0.015625)"/>
       <path d="M 1159 525 
L 1159 -1331 
L 581 -1331 
L 581 3500 
L 1159 3500 
L 1159 2969 
Q 1341 3281 1617 3432 
Q 1894 3584 2278 3584 
Q 2916 3584 3314 3078 
Q 3713 2572 3713 1747 
Q 3713 922 3314 415 
Q 2916 -91 2278 -91 
Q 1894 -91 1617 61 
Q 1341 213 1159 525 
z
M 3116 1747 
Q 3116 2381 2855 2742 
Q 2594 3103 2138 3103 
Q 1681 3103 1420 2742 
Q 1159 2381 1159 1747 
Q 1159 1113 1420 752 
Q 1681 391 2138 391 
Q 2594 391 2855 752 
Q 3116 1113 3116 1747 
z
" id="DejaVuSans-70" transform="scale(0.015625)"/>
       <path d="M 3263 -1063 
L 3263 -1509 
L -63 -1509 
L -63 -1063 
L 3263 -1063 
z
" id="DejaVuSans-5f" transform="scale(0.015625)"/>
       <path d="M 2375 4863 
L 2375 4384 
L 1825 4384 
Q 1516 4384 1395 4259 
Q 1275 4134 1275 3809 
L 1275 3500 
L 2222 3500 
L 2222 3053 
L 1275 3053 
L 1275 0 
L 697 0 
L 697 3053 
L 147 3053 
L 147 3500 
L 697 3500 
L 697 3744 
Q 697 4328 969 4595 
Q 1241 4863 1831 4863 
L 2375 4863 
z
" id="DejaVuSans-66" transform="scale(0.015625)"/>
       <path d="M 3328 2828 
Q 3544 3216 3844 3400 
Q 4144 3584 4550 3584 
Q 5097 3584 5394 3201 
Q 5691 2819 5691 2113 
L 5691 0 
L 5113 0 
L 5113 2094 
Q 5113 2597 4934 2840 
Q 4756 3084 4391 3084 
Q 3944 3084 3684 2787 
Q 3425 2491 3425 1978 
L 3425 0 
L 2847 0 
L 2847 2094 
Q 2847 2600 2669 2842 
Q 2491 3084 2119 3084 
Q 1678 3084 1418 2786 
Q 1159 2488 1159 1978 
L 1159 0 
L 581 0 
L 581 3500 
L 1159 3500 
L 1159 2956 
Q 1356 3278 1631 3431 
Q 1906 3584 2284 3584 
Q 2666 3584 2933 3390 
Q 3200 3197 3328 2828 
z
" id="DejaVuSans-6d" transform="scale(0.015625)"/>
      </defs>
      <use xlink:href="#DejaVuSans-73"/>
      <use x="52.099609" xlink:href="#DejaVuSans-68"/>
      <use x="115.478516" xlink:href="#DejaVuSans-69"/>
      <use x="143.261719" xlink:href="#DejaVuSans-70"/>
      <use x="206.738281" xlink:href="#DejaVuSans-5f"/>
      <use x="256.738281" xlink:href="#DejaVuSans-66"/>
      <use x="291.943359" xlink:href="#DejaVuSans-72"/>
      <use x="330.806641" xlink:href="#DejaVuSans-6f"/>
      <use x="391.988281" xlink:href="#DejaVuSans-6d"/>
     </g>
    </g>
   </g>
   <g id="matplotlib.axis_2">
    <g id="ytick_1">
     <g id="line2d_1">
      <path clip-path="url(#pdf782f9a79)" d="M 561.6 899.903043 
L 1684.8 899.903043 
" style="fill:none;stroke:#ffffff;stroke-linecap:round;"/>
     </g>
     <g id="text_3">
      <!-- 0 -->
      <g style="fill:#262626;" transform="translate(545.10125 904.082183)scale(0.11 -0.11)">
       <defs>
        <path d="M 2034 4250 
Q 1547 4250 1301 3770 
Q 1056 3291 1056 2328 
Q 1056 1369 1301 889 
Q 1547 409 2034 409 
Q 2525 409 2770 889 
Q 3016 1369 3016 2328 
Q 3016 3291 2770 3770 
Q 2525 4250 2034 4250 
z
M 2034 4750 
Q 2819 4750 3233 4129 
Q 3647 3509 3647 2328 
Q 3647 1150 3233 529 
Q 2819 -91 2034 -91 
Q 1250 -91 836 529 
Q 422 1150 422 2328 
Q 422 3509 836 4129 
Q 1250 4750 2034 4750 
z
" id="DejaVuSans-30" transform="scale(0.015625)"/>
       </defs>
       <use xlink:href="#DejaVuSans-30"/>
      </g>
     </g>
    </g>
    <g id="ytick_2">
     <g id="line2d_2">
      <path clip-path="url(#pdf782f9a79)" d="M 561.6 767.0348 
L 1684.8 767.0348 
" style="fill:none;stroke:#ffffff;stroke-linecap:round;"/>
     </g>
     <g id="text_4">
      <!-- 20000 -->
      <g style="fill:#262626;" transform="translate(517.10625 771.21394)scale(0.11 -0.11)">
       <defs>
        <path d="M 1228 531 
L 3431 531 
L 3431 0 
L 469 0 
L 469 531 
Q 828 903 1448 1529 
Q 2069 2156 2228 2338 
Q 2531 2678 2651 2914 
Q 2772 3150 2772 3378 
Q 2772 3750 2511 3984 
Q 2250 4219 1831 4219 
Q 1534 4219 1204 4116 
Q 875 4013 500 3803 
L 500 4441 
Q 881 4594 1212 4672 
Q 1544 4750 1819 4750 
Q 2544 4750 2975 4387 
Q 3406 4025 3406 3419 
Q 3406 3131 3298 2873 
Q 3191 2616 2906 2266 
Q 2828 2175 2409 1742 
Q 1991 1309 1228 531 
z
" id="DejaVuSans-32" transform="scale(0.015625)"/>
       </defs>
       <use xlink:href="#DejaVuSans-32"/>
       <use x="63.623047" xlink:href="#DejaVuSans-30"/>
       <use x="127.246094" xlink:href="#DejaVuSans-30"/>
       <use x="190.869141" xlink:href="#DejaVuSans-30"/>
       <use x="254.492188" xlink:href="#DejaVuSans-30"/>
      </g>
     </g>
    </g>
    <g id="ytick_3">
     <g id="line2d_3">
      <path clip-path="url(#pdf782f9a79)" d="M 561.6 634.166557 
L 1684.8 634.166557 
" style="fill:none;stroke:#ffffff;stroke-linecap:round;"/>
     </g>
     <g id="text_5">
      <!-- 40000 -->
      <g style="fill:#262626;" transform="translate(517.10625 638.345697)scale(0.11 -0.11)">
       <defs>
        <path d="M 2419 4116 
L 825 1625 
L 2419 1625 
L 2419 4116 
z
M 2253 4666 
L 3047 4666 
L 3047 1625 
L 3713 1625 
L 3713 1100 
L 3047 1100 
L 3047 0 
L 2419 0 
L 2419 1100 
L 313 1100 
L 313 1709 
L 2253 4666 
z
" id="DejaVuSans-34" transform="scale(0.015625)"/>
       </defs>
       <use xlink:href="#DejaVuSans-34"/>
       <use x="63.623047" xlink:href="#DejaVuSans-30"/>
       <use x="127.246094" xlink:href="#DejaVuSans-30"/>
       <use x="190.869141" xlink:href="#DejaVuSans-30"/>
       <use x="254.492188" xlink:href="#DejaVuSans-30"/>
      </g>
     </g>
    </g>
    <g id="ytick_4">
     <g id="line2d_4">
      <path clip-path="url(#pdf782f9a79)" d="M 561.6 501.298314 
L 1684.8 501.298314 
" style="fill:none;stroke:#ffffff;stroke-linecap:round;"/>
     </g>
     <g id="text_6">
      <!-- 60000 -->
      <g style="fill:#262626;" transform="translate(517.10625 505.477454)scale(0.11 -0.11)">
       <defs>
        <path d="M 2113 2584 
Q 1688 2584 1439 2293 
Q 1191 2003 1191 1497 
Q 1191 994 1439 701 
Q 1688 409 2113 409 
Q 2538 409 2786 701 
Q 3034 994 3034 1497 
Q 3034 2003 2786 2293 
Q 2538 2584 2113 2584 
z
M 3366 4563 
L 3366 3988 
Q 3128 4100 2886 4159 
Q 2644 4219 2406 4219 
Q 1781 4219 1451 3797 
Q 1122 3375 1075 2522 
Q 1259 2794 1537 2939 
Q 1816 3084 2150 3084 
Q 2853 3084 3261 2657 
Q 3669 2231 3669 1497 
Q 3669 778 3244 343 
Q 2819 -91 2113 -91 
Q 1303 -91 875 529 
Q 447 1150 447 2328 
Q 447 3434 972 4092 
Q 1497 4750 2381 4750 
Q 2619 4750 2861 4703 
Q 3103 4656 3366 4563 
z
" id="DejaVuSans-36" transform="scale(0.015625)"/>
       </defs>
       <use xlink:href="#DejaVuSans-36"/>
       <use x="63.623047" xlink:href="#DejaVuSans-30"/>
       <use x="127.246094" xlink:href="#DejaVuSans-30"/>
       <use x="190.869141" xlink:href="#DejaVuSans-30"/>
       <use x="254.492188" xlink:href="#DejaVuSans-30"/>
      </g>
     </g>
    </g>
    <g id="ytick_5">
     <g id="line2d_5">
      <path clip-path="url(#pdf782f9a79)" d="M 561.6 368.430071 
L 1684.8 368.430071 
" style="fill:none;stroke:#ffffff;stroke-linecap:round;"/>
     </g>
     <g id="text_7">
      <!-- 80000 -->
      <g style="fill:#262626;" transform="translate(517.10625 372.609211)scale(0.11 -0.11)">
       <defs>
        <path d="M 2034 2216 
Q 1584 2216 1326 1975 
Q 1069 1734 1069 1313 
Q 1069 891 1326 650 
Q 1584 409 2034 409 
Q 2484 409 2743 651 
Q 3003 894 3003 1313 
Q 3003 1734 2745 1975 
Q 2488 2216 2034 2216 
z
M 1403 2484 
Q 997 2584 770 2862 
Q 544 3141 544 3541 
Q 544 4100 942 4425 
Q 1341 4750 2034 4750 
Q 2731 4750 3128 4425 
Q 3525 4100 3525 3541 
Q 3525 3141 3298 2862 
Q 3072 2584 2669 2484 
Q 3125 2378 3379 2068 
Q 3634 1759 3634 1313 
Q 3634 634 3220 271 
Q 2806 -91 2034 -91 
Q 1263 -91 848 271 
Q 434 634 434 1313 
Q 434 1759 690 2068 
Q 947 2378 1403 2484 
z
M 1172 3481 
Q 1172 3119 1398 2916 
Q 1625 2713 2034 2713 
Q 2441 2713 2670 2916 
Q 2900 3119 2900 3481 
Q 2900 3844 2670 4047 
Q 2441 4250 2034 4250 
Q 1625 4250 1398 4047 
Q 1172 3844 1172 3481 
z
" id="DejaVuSans-38" transform="scale(0.015625)"/>
       </defs>
       <use xlink:href="#DejaVuSans-38"/>
       <use x="63.623047" xlink:href="#DejaVuSans-30"/>
       <use x="127.246094" xlink:href="#DejaVuSans-30"/>
       <use x="190.869141" xlink:href="#DejaVuSans-30"/>
       <use x="254.492188" xlink:href="#DejaVuSans-30"/>
      </g>
     </g>
    </g>
    <g id="ytick_6">
     <g id="line2d_6">
      <path clip-path="url(#pdf782f9a79)" d="M 561.6 235.561828 
L 1684.8 235.561828 
" style="fill:none;stroke:#ffffff;stroke-linecap:round;"/>
     </g>
     <g id="text_8">
      <!-- 100000 -->
      <g style="fill:#262626;" transform="translate(510.1075 239.740968)scale(0.11 -0.11)">
       <defs>
        <path d="M 794 531 
L 1825 531 
L 1825 4091 
L 703 3866 
L 703 4441 
L 1819 4666 
L 2450 4666 
L 2450 531 
L 3481 531 
L 3481 0 
L 794 0 
L 794 531 
z
" id="DejaVuSans-31" transform="scale(0.015625)"/>
       </defs>
       <use xlink:href="#DejaVuSans-31"/>
       <use x="63.623047" xlink:href="#DejaVuSans-30"/>
       <use x="127.246094" xlink:href="#DejaVuSans-30"/>
       <use x="190.869141" xlink:href="#DejaVuSans-30"/>
       <use x="254.492188" xlink:href="#DejaVuSans-30"/>
       <use x="318.115234" xlink:href="#DejaVuSans-30"/>
      </g>
     </g>
    </g>
    <g id="text_9">
     <!-- count -->
     <g style="fill:#262626;" transform="translate(503.611875 598.6875)rotate(-90)scale(0.12 -0.12)">
      <defs>
       <path d="M 544 1381 
L 544 3500 
L 1119 3500 
L 1119 1403 
Q 1119 906 1312 657 
Q 1506 409 1894 409 
Q 2359 409 2629 706 
Q 2900 1003 2900 1516 
L 2900 3500 
L 3475 3500 
L 3475 0 
L 2900 0 
L 2900 538 
Q 2691 219 2414 64 
Q 2138 -91 1772 -91 
Q 1169 -91 856 284 
Q 544 659 544 1381 
z
M 1991 3584 
L 1991 3584 
z
" id="DejaVuSans-75" transform="scale(0.015625)"/>
      </defs>
      <use xlink:href="#DejaVuSans-63"/>
      <use x="54.980469" xlink:href="#DejaVuSans-6f"/>
      <use x="116.162109" xlink:href="#DejaVuSans-75"/>
      <use x="179.541016" xlink:href="#DejaVuSans-6e"/>
      <use x="242.919922" xlink:href="#DejaVuSans-74"/>
     </g>
    </g>
   </g>
   <g id="PolyCollection_1">
    <defs>
     <path d="M 1174.056706 -167.04 
L 1072.343294 -167.04 
L 1049.038075 -175.185455 
L 1018.885448 -183.330909 
L 981.664719 -191.476364 
L 937.94547 -199.621818 
L 889.267795 -207.767273 
L 838.185927 -215.912727 
L 788.124675 -224.058182 
L 743.035264 -232.203636 
L 706.887523 -240.349091 
L 683.08481 -248.494545 
L 673.92 -256.64 
L 680.192543 -264.785455 
L 701.074485 -272.930909 
L 734.255657 -281.076364 
L 776.331963 -289.221818 
L 823.34609 -297.367273 
L 871.36243 -305.512727 
L 916.963334 -313.658182 
L 957.586734 -321.803636 
L 991.672435 -329.949091 
L 1018.630666 -338.094545 
L 1038.679498 -346.24 
L 1052.611981 -354.385455 
L 1061.550439 -362.530909 
L 1066.730273 -370.676364 
L 1069.336254 -378.821818 
L 1070.3969 -386.967273 
L 1070.730756 -395.112727 
L 1070.932782 -403.258182 
L 1071.38831 -411.403636 
L 1072.30394 -419.549091 
L 1073.747264 -427.694545 
L 1075.689307 -435.84 
L 1078.044857 -443.985455 
L 1080.706775 -452.130909 
L 1083.571428 -460.276364 
L 1086.55389 -468.421818 
L 1089.593293 -476.567273 
L 1092.650339 -484.712727 
L 1095.699978 -492.858182 
L 1098.722532 -501.003636 
L 1101.696006 -509.149091 
L 1104.591377 -517.294545 
L 1107.37153 -525.44 
L 1109.993573 -533.585455 
L 1112.413523 -541.730909 
L 1114.59203 -549.876364 
L 1116.499755 -558.021818 
L 1118.121212 -566.167273 
L 1119.4564 -574.312727 
L 1120.520044 -582.458182 
L 1121.338813 -590.603636 
L 1121.947282 -598.749091 
L 1122.383509 -606.894545 
L 1122.685045 -615.04 
L 1122.885921 -623.185455 
L 1123.014846 -631.330909 
L 1123.094547 -639.476364 
L 1123.141996 -647.621818 
L 1123.169195 -655.767273 
L 1123.184204 -663.912727 
L 1123.19217 -672.058182 
L 1123.19622 -680.203636 
L 1123.19815 -688.349091 
L 1123.198913 -696.494545 
L 1123.198916 -704.64 
L 1123.198165 -712.785455 
L 1123.196266 -720.930909 
L 1123.192302 -729.076364 
L 1123.184552 -737.221818 
L 1123.170064 -745.367273 
L 1123.144056 -753.512727 
L 1123.099211 -761.658182 
L 1123.024954 -769.803636 
L 1122.906932 -777.949091 
L 1122.727001 -786.094545 
L 1122.464083 -794.24 
L 1122.096244 -802.385455 
L 1121.604145 -810.530909 
L 1120.975719 -818.676364 
L 1120.21144 -826.821818 
L 1119.329114 -834.967273 
L 1118.3668 -843.112727 
L 1117.382516 -851.258182 
L 1116.449878 -859.403636 
L 1115.649702 -867.549091 
L 1115.058723 -875.694545 
L 1114.737533 -883.84 
L 1114.720359 -891.985455 
L 1115.009056 -900.130909 
L 1115.572776 -908.276364 
L 1116.353399 -916.421818 
L 1117.275393 -924.567273 
L 1118.257802 -932.712727 
L 1119.225736 -940.858182 
L 1120.119159 -949.003636 
L 1120.897721 -957.149091 
L 1121.541473 -965.294545 
L 1122.048237 -973.44 
L 1124.351763 -973.44 
L 1124.351763 -973.44 
L 1124.858527 -965.294545 
L 1125.502279 -957.149091 
L 1126.280841 -949.003636 
L 1127.174264 -940.858182 
L 1128.142198 -932.712727 
L 1129.124607 -924.567273 
L 1130.046601 -916.421818 
L 1130.827224 -908.276364 
L 1131.390944 -900.130909 
L 1131.679641 -891.985455 
L 1131.662467 -883.84 
L 1131.341277 -875.694545 
L 1130.750298 -867.549091 
L 1129.950122 -859.403636 
L 1129.017484 -851.258182 
L 1128.0332 -843.112727 
L 1127.070886 -834.967273 
L 1126.18856 -826.821818 
L 1125.424281 -818.676364 
L 1124.795855 -810.530909 
L 1124.303756 -802.385455 
L 1123.935917 -794.24 
L 1123.672999 -786.094545 
L 1123.493068 -777.949091 
L 1123.375046 -769.803636 
L 1123.300789 -761.658182 
L 1123.255944 -753.512727 
L 1123.229936 -745.367273 
L 1123.215448 -737.221818 
L 1123.207698 -729.076364 
L 1123.203734 -720.930909 
L 1123.201835 -712.785455 
L 1123.201084 -704.64 
L 1123.201087 -696.494545 
L 1123.20185 -688.349091 
L 1123.20378 -680.203636 
L 1123.20783 -672.058182 
L 1123.215796 -663.912727 
L 1123.230805 -655.767273 
L 1123.258004 -647.621818 
L 1123.305453 -639.476364 
L 1123.385154 -631.330909 
L 1123.514079 -623.185455 
L 1123.714955 -615.04 
L 1124.016491 -606.894545 
L 1124.452718 -598.749091 
L 1125.061187 -590.603636 
L 1125.879956 -582.458182 
L 1126.9436 -574.312727 
L 1128.278788 -566.167273 
L 1129.900245 -558.021818 
L 1131.80797 -549.876364 
L 1133.986477 -541.730909 
L 1136.406427 -533.585455 
L 1139.02847 -525.44 
L 1141.808623 -517.294545 
L 1144.703994 -509.149091 
L 1147.677468 -501.003636 
L 1150.700022 -492.858182 
L 1153.749661 -484.712727 
L 1156.806707 -476.567273 
L 1159.84611 -468.421818 
L 1162.828572 -460.276364 
L 1165.693225 -452.130909 
L 1168.355143 -443.985455 
L 1170.710693 -435.84 
L 1172.652736 -427.694545 
L 1174.09606 -419.549091 
L 1175.01169 -411.403636 
L 1175.467218 -403.258182 
L 1175.669244 -395.112727 
L 1176.0031 -386.967273 
L 1177.063746 -378.821818 
L 1179.669727 -370.676364 
L 1184.849561 -362.530909 
L 1193.788019 -354.385455 
L 1207.720502 -346.24 
L 1227.769334 -338.094545 
L 1254.727565 -329.949091 
L 1288.813266 -321.803636 
L 1329.436666 -313.658182 
L 1375.03757 -305.512727 
L 1423.05391 -297.367273 
L 1470.068037 -289.221818 
L 1512.144343 -281.076364 
L 1545.325515 -272.930909 
L 1566.207457 -264.785455 
L 1572.48 -256.64 
L 1563.31519 -248.494545 
L 1539.512477 -240.349091 
L 1503.364736 -232.203636 
L 1458.275325 -224.058182 
L 1408.214073 -215.912727 
L 1357.132205 -207.767273 
L 1308.45453 -199.621818 
L 1264.735281 -191.476364 
L 1227.514552 -183.330909 
L 1197.361925 -175.185455 
L 1174.056706 -167.04 
z
" id="ma58ec2421f" style="stroke:#4c4c4c;stroke-width:1.5;"/>
    </defs>
    <g clip-path="url(#pdf782f9a79)">
     <use style="fill:#5875a4;stroke:#4c4c4c;stroke-width:1.5;" x="0" xlink:href="#ma58ec2421f" y="1152"/>
    </g>
   </g>
   <g id="line2d_7">
    <path clip-path="url(#pdf782f9a79)" d="M 1123.2 899.883112 
L 1123.2 868.579354 
" style="fill:none;stroke:#4c4c4c;stroke-linecap:round;stroke-width:1.5;"/>
   </g>
   <g id="line2d_8">
    <path clip-path="url(#pdf782f9a79)" d="M 1123.2 899.720349 
L 1123.2 887.220769 
" style="fill:none;stroke:#4c4c4c;stroke-linecap:round;stroke-width:4.5;"/>
   </g>
   <g id="patch_3">
    <path d="M 561.6 1025.28 
L 561.6 138.24 
" style="fill:none;stroke:#ffffff;stroke-linecap:square;stroke-linejoin:miter;stroke-width:1.25;"/>
   </g>
   <g id="patch_4">
    <path d="M 1684.8 1025.28 
L 1684.8 138.24 
" style="fill:none;stroke:#ffffff;stroke-linecap:square;stroke-linejoin:miter;stroke-width:1.25;"/>
   </g>
   <g id="patch_5">
    <path d="M 561.6 1025.28 
L 1684.8 1025.28 
" style="fill:none;stroke:#ffffff;stroke-linecap:square;stroke-linejoin:miter;stroke-width:1.25;"/>
   </g>
   <g id="patch_6">
    <path d="M 561.6 138.24 
L 1684.8 138.24 
" style="fill:none;stroke:#ffffff;stroke-linecap:square;stroke-linejoin:miter;stroke-width:1.25;"/>
   </g>
   <g id="PathCollection_1">
    <defs>
     <path d="M 0 1.5 
C 0.397805 1.5 0.77937 1.341951 1.06066 1.06066 
C 1.341951 0.77937 1.5 0.397805 1.5 0 
C 1.5 -0.397805 1.341951 -0.77937 1.06066 -1.06066 
C 0.77937 -1.341951 0.397805 -1.5 0 -1.5 
C -0.397805 -1.5 -0.77937 -1.341951 -1.06066 -1.06066 
C -1.341951 -0.77937 -1.5 -0.397805 -1.5 0 
C -1.5 0.397805 -1.341951 0.77937 -1.06066 1.06066 
C -0.77937 1.341951 -0.397805 1.5 0 1.5 
z
" id="md5073976ba" style="stroke:#4c4c4c;"/>
    </defs>
    <g clip-path="url(#pdf782f9a79)">
     <use style="fill:#ffffff;stroke:#4c4c4c;" x="1123.2" xlink:href="#md5073976ba" y="898.265442"/>
    </g>
   </g>
   <g id="text_10">
    <!-- 10-mar2015.csv - Total number of transactions per shipping locality -->
    <g style="fill:#262626;" transform="translate(919.599375 132.24)scale(0.12 -0.12)">
     <defs>
      <path d="M 313 2009 
L 1997 2009 
L 1997 1497 
L 313 1497 
L 313 2009 
z
" id="DejaVuSans-2d" transform="scale(0.015625)"/>
      <path d="M 691 4666 
L 3169 4666 
L 3169 4134 
L 1269 4134 
L 1269 2991 
Q 1406 3038 1543 3061 
Q 1681 3084 1819 3084 
Q 2600 3084 3056 2656 
Q 3513 2228 3513 1497 
Q 3513 744 3044 326 
Q 2575 -91 1722 -91 
Q 1428 -91 1123 -41 
Q 819 9 494 109 
L 494 744 
Q 775 591 1075 516 
Q 1375 441 1709 441 
Q 2250 441 2565 725 
Q 2881 1009 2881 1497 
Q 2881 1984 2565 2268 
Q 2250 2553 1709 2553 
Q 1456 2553 1204 2497 
Q 953 2441 691 2322 
L 691 4666 
z
" id="DejaVuSans-35" transform="scale(0.015625)"/>
      <path d="M 684 794 
L 1344 794 
L 1344 0 
L 684 0 
L 684 794 
z
" id="DejaVuSans-2e" transform="scale(0.015625)"/>
      <path d="M 191 3500 
L 800 3500 
L 1894 563 
L 2988 3500 
L 3597 3500 
L 2284 0 
L 1503 0 
L 191 3500 
z
" id="DejaVuSans-76" transform="scale(0.015625)"/>
      <path id="DejaVuSans-20" transform="scale(0.015625)"/>
      <path d="M -19 4666 
L 3928 4666 
L 3928 4134 
L 2272 4134 
L 2272 0 
L 1638 0 
L 1638 4134 
L -19 4134 
L -19 4666 
z
" id="DejaVuSans-54" transform="scale(0.015625)"/>
      <path d="M 603 4863 
L 1178 4863 
L 1178 0 
L 603 0 
L 603 4863 
z
" id="DejaVuSans-6c" transform="scale(0.015625)"/>
      <path d="M 3116 1747 
Q 3116 2381 2855 2742 
Q 2594 3103 2138 3103 
Q 1681 3103 1420 2742 
Q 1159 2381 1159 1747 
Q 1159 1113 1420 752 
Q 1681 391 2138 391 
Q 2594 391 2855 752 
Q 3116 1113 3116 1747 
z
M 1159 2969 
Q 1341 3281 1617 3432 
Q 1894 3584 2278 3584 
Q 2916 3584 3314 3078 
Q 3713 2572 3713 1747 
Q 3713 922 3314 415 
Q 2916 -91 2278 -91 
Q 1894 -91 1617 61 
Q 1341 213 1159 525 
L 1159 0 
L 581 0 
L 581 4863 
L 1159 4863 
L 1159 2969 
z
" id="DejaVuSans-62" transform="scale(0.015625)"/>
      <path d="M 3597 1894 
L 3597 1613 
L 953 1613 
Q 991 1019 1311 708 
Q 1631 397 2203 397 
Q 2534 397 2845 478 
Q 3156 559 3463 722 
L 3463 178 
Q 3153 47 2828 -22 
Q 2503 -91 2169 -91 
Q 1331 -91 842 396 
Q 353 884 353 1716 
Q 353 2575 817 3079 
Q 1281 3584 2069 3584 
Q 2775 3584 3186 3129 
Q 3597 2675 3597 1894 
z
M 3022 2063 
Q 3016 2534 2758 2815 
Q 2500 3097 2075 3097 
Q 1594 3097 1305 2825 
Q 1016 2553 972 2059 
L 3022 2063 
z
" id="DejaVuSans-65" transform="scale(0.015625)"/>
      <path d="M 2906 1791 
Q 2906 2416 2648 2759 
Q 2391 3103 1925 3103 
Q 1463 3103 1205 2759 
Q 947 2416 947 1791 
Q 947 1169 1205 825 
Q 1463 481 1925 481 
Q 2391 481 2648 825 
Q 2906 1169 2906 1791 
z
M 3481 434 
Q 3481 -459 3084 -895 
Q 2688 -1331 1869 -1331 
Q 1566 -1331 1297 -1286 
Q 1028 -1241 775 -1147 
L 775 -588 
Q 1028 -725 1275 -790 
Q 1522 -856 1778 -856 
Q 2344 -856 2625 -561 
Q 2906 -266 2906 331 
L 2906 616 
Q 2728 306 2450 153 
Q 2172 0 1784 0 
Q 1141 0 747 490 
Q 353 981 353 1791 
Q 353 2603 747 3093 
Q 1141 3584 1784 3584 
Q 2172 3584 2450 3431 
Q 2728 3278 2906 2969 
L 2906 3500 
L 3481 3500 
L 3481 434 
z
" id="DejaVuSans-67" transform="scale(0.015625)"/>
      <path d="M 2059 -325 
Q 1816 -950 1584 -1140 
Q 1353 -1331 966 -1331 
L 506 -1331 
L 506 -850 
L 844 -850 
Q 1081 -850 1212 -737 
Q 1344 -625 1503 -206 
L 1606 56 
L 191 3500 
L 800 3500 
L 1894 763 
L 2988 3500 
L 3597 3500 
L 2059 -325 
z
" id="DejaVuSans-79" transform="scale(0.015625)"/>
     </defs>
     <use xlink:href="#DejaVuSans-31"/>
     <use x="63.623047" xlink:href="#DejaVuSans-30"/>
     <use x="127.246094" xlink:href="#DejaVuSans-2d"/>
     <use x="163.330078" xlink:href="#DejaVuSans-6d"/>
     <use x="260.742188" xlink:href="#DejaVuSans-61"/>
     <use x="322.021484" xlink:href="#DejaVuSans-72"/>
     <use x="363.134766" xlink:href="#DejaVuSans-32"/>
     <use x="426.757812" xlink:href="#DejaVuSans-30"/>
     <use x="490.380859" xlink:href="#DejaVuSans-31"/>
     <use x="554.003906" xlink:href="#DejaVuSans-35"/>
     <use x="617.626953" xlink:href="#DejaVuSans-2e"/>
     <use x="649.414062" xlink:href="#DejaVuSans-63"/>
     <use x="704.394531" xlink:href="#DejaVuSans-73"/>
     <use x="756.494141" xlink:href="#DejaVuSans-76"/>
     <use x="815.673828" xlink:href="#DejaVuSans-20"/>
     <use x="847.460938" xlink:href="#DejaVuSans-2d"/>
     <use x="883.544922" xlink:href="#DejaVuSans-20"/>
     <use x="915.332031" xlink:href="#DejaVuSans-54"/>
     <use x="959.416016" xlink:href="#DejaVuSans-6f"/>
     <use x="1020.597656" xlink:href="#DejaVuSans-74"/>
     <use x="1059.806641" xlink:href="#DejaVuSans-61"/>
     <use x="1121.085938" xlink:href="#DejaVuSans-6c"/>
     <use x="1148.869141" xlink:href="#DejaVuSans-20"/>
     <use x="1180.65625" xlink:href="#DejaVuSans-6e"/>
     <use x="1244.035156" xlink:href="#DejaVuSans-75"/>
     <use x="1307.414062" xlink:href="#DejaVuSans-6d"/>
     <use x="1404.826172" xlink:href="#DejaVuSans-62"/>
     <use x="1468.302734" xlink:href="#DejaVuSans-65"/>
     <use x="1529.826172" xlink:href="#DejaVuSans-72"/>
     <use x="1570.939453" xlink:href="#DejaVuSans-20"/>
     <use x="1602.726562" xlink:href="#DejaVuSans-6f"/>
     <use x="1663.908203" xlink:href="#DejaVuSans-66"/>
     <use x="1699.113281" xlink:href="#DejaVuSans-20"/>
     <use x="1730.900391" xlink:href="#DejaVuSans-74"/>
     <use x="1770.109375" xlink:href="#DejaVuSans-72"/>
     <use x="1811.222656" xlink:href="#DejaVuSans-61"/>
     <use x="1872.501953" xlink:href="#DejaVuSans-6e"/>
     <use x="1935.880859" xlink:href="#DejaVuSans-73"/>
     <use x="1987.980469" xlink:href="#DejaVuSans-61"/>
     <use x="2049.259766" xlink:href="#DejaVuSans-63"/>
     <use x="2104.240234" xlink:href="#DejaVuSans-74"/>
     <use x="2143.449219" xlink:href="#DejaVuSans-69"/>
     <use x="2171.232422" xlink:href="#DejaVuSans-6f"/>
     <use x="2232.414062" xlink:href="#DejaVuSans-6e"/>
     <use x="2295.792969" xlink:href="#DejaVuSans-73"/>
     <use x="2347.892578" xlink:href="#DejaVuSans-20"/>
     <use x="2379.679688" xlink:href="#DejaVuSans-70"/>
     <use x="2443.15625" xlink:href="#DejaVuSans-65"/>
     <use x="2504.679688" xlink:href="#DejaVuSans-72"/>
     <use x="2545.792969" xlink:href="#DejaVuSans-20"/>
     <use x="2577.580078" xlink:href="#DejaVuSans-73"/>
     <use x="2629.679688" xlink:href="#DejaVuSans-68"/>
     <use x="2693.058594" xlink:href="#DejaVuSans-69"/>
     <use x="2720.841797" xlink:href="#DejaVuSans-70"/>
     <use x="2784.318359" xlink:href="#DejaVuSans-70"/>
     <use x="2847.794922" xlink:href="#DejaVuSans-69"/>
     <use x="2875.578125" xlink:href="#DejaVuSans-6e"/>
     <use x="2938.957031" xlink:href="#DejaVuSans-67"/>
     <use x="3002.433594" xlink:href="#DejaVuSans-20"/>
     <use x="3034.220703" xlink:href="#DejaVuSans-6c"/>
     <use x="3062.003906" xlink:href="#DejaVuSans-6f"/>
     <use x="3123.185547" xlink:href="#DejaVuSans-63"/>
     <use x="3178.166016" xlink:href="#DejaVuSans-61"/>
     <use x="3239.445312" xlink:href="#DejaVuSans-6c"/>
     <use x="3267.228516" xlink:href="#DejaVuSans-69"/>
     <use x="3295.011719" xlink:href="#DejaVuSans-74"/>
     <use x="3334.220703" xlink:href="#DejaVuSans-79"/>
    </g>
   </g>
  </g>
 </g>
 <defs>
  <clipPath id="pdf782f9a79">
   <rect height="887.04" width="1123.2" x="561.6" y="138.24"/>
  </clipPath>
 </defs>
</svg>
